M48
; DRILL file {KiCad 8.0.8} date 2025-04-22T11:25:45-0500
; FORMAT={-:-/ absolute / inch / decimal}
; #@! TF.CreationDate,2025-04-22T11:25:45-05:00
; #@! TF.GenerationSoftware,Kicad,Pcbnew,8.0.8
; #@! TF.FileFunction,Plated,1,2,PTH
FMAT,2
INCH
; #@! TA.AperFunction,Plated,PTH,ComponentDrill
T1C0.0079
; #@! TA.AperFunction,Plated,PTH,ViaDrill
T2C0.0118
; #@! TA.AperFunction,Plated,PTH,ComponentDrill
T3C0.0469
; #@! TA.AperFunction,Plated,PTH,ComponentDrill
T4C0.0500
; #@! TA.AperFunction,Plated,PTH,ComponentDrill
T5C0.0540
%
G90
G05
T1
X5.4863Y-1.9014
X5.4863Y-1.9565
X5.5139Y-1.8738
X5.5139Y-1.9289
X5.5139Y-1.9841
X5.5405Y-1.9014
X5.5405Y-1.9565
X5.569Y-1.8738
X5.569Y-1.9289
X5.569Y-1.9841
X5.5966Y-1.9014
X5.5966Y-1.9565
T2
X4.65Y-4.235
X4.77Y-2.25
X4.77Y-2.49
X4.775Y-3.0
X4.8817Y-4.69
X4.89Y-3.925
X4.915Y-2.56
X4.965Y-1.935
X4.97Y-1.97
X4.97Y-2.02
X5.135Y-3.785
X5.18Y-1.975
X5.256Y-1.625
X5.256Y-2.025
X5.256Y-2.075
X5.256Y-2.175
X5.256Y-2.225
X5.41Y-4.055
X5.535Y-2.115
X5.55Y-4.21
X5.785Y-3.57
X5.895Y-4.8
X5.945Y-1.675
X5.945Y-1.725
X5.945Y-1.775
X5.945Y-2.275
X6.085Y-3.395
X6.105Y-2.28
X6.14Y-2.39
X6.185Y-2.255
X6.2067Y-4.71
X6.25Y-2.88
X6.255Y-3.165
X6.31Y-2.87
X6.355Y-2.645
X6.385Y-2.825
X6.58Y-2.44
X6.84Y-2.465
X6.885Y-2.945
X6.905Y-5.31
X6.985Y-2.715
X7.06Y-4.61
X7.06Y-4.66
X7.2569Y-4.31
X7.2569Y-4.51
X7.335Y-4.695
X7.335Y-4.75
T3
X3.9Y-4.62
X3.9Y-4.72
X4.06Y-2.675
X4.07Y-2.21
X4.075Y-1.785
X4.16Y-2.675
X4.17Y-2.21
X4.175Y-1.785
X4.33Y-3.63
X4.33Y-3.73
X4.3542Y-4.14
X4.3542Y-4.24
X4.355Y-4.615
X4.355Y-4.715
X4.5Y-1.725
X4.5Y-1.825
X4.5Y-2.14
X4.5Y-2.24
X4.5Y-2.61
X4.5Y-2.71
X4.915Y-1.775
X4.92Y-2.21
X5.015Y-1.775
X5.02Y-2.21
X5.045Y-4.2
X5.145Y-4.2
X5.275Y-3.0108
X5.28Y-2.645
X5.375Y-3.0108
X5.38Y-2.645
X5.495Y-5.01
X5.595Y-2.645
X5.595Y-5.01
X5.605Y-3.005
X5.695Y-2.645
X5.695Y-5.01
X5.705Y-3.005
X5.795Y-5.01
X5.895Y-5.01
X5.935Y-3.0058
X5.94Y-2.6408
X5.995Y-5.01
X6.035Y-3.0058
X6.04Y-2.6408
X6.345Y-4.23
X6.445Y-4.23
X6.605Y-2.13
X6.605Y-2.23
X6.605Y-2.33
X6.605Y-2.56
X6.605Y-2.66
X6.605Y-2.76
X6.6092Y-1.705
X6.6092Y-1.805
X6.6092Y-1.905
X6.785Y-3.51
X6.785Y-3.61
X6.785Y-3.84
X6.785Y-3.94
X6.8Y-3.165
X6.8Y-3.265
X7.235Y-3.84
X7.235Y-3.94
X7.25Y-2.14
X7.25Y-2.24
X7.25Y-2.34
X7.25Y-2.44
X7.25Y-3.17
X7.25Y-3.27
X7.25Y-3.51
X7.25Y-3.61
T4
X3.9108Y-4.13
X3.9108Y-4.23
X3.9108Y-4.33
T5
X3.9308Y-3.605
X3.9308Y-3.705
X3.9308Y-3.805
M30
