%TF.GenerationSoftware,KiCad,Pcbnew,8.0.8*%
%TF.CreationDate,2025-04-22T11:25:48-05:00*%
%TF.ProjectId,LastChance,4c617374-4368-4616-9e63-652e6b696361,rev?*%
%TF.SameCoordinates,Original*%
%TF.FileFunction,Legend,Top*%
%TF.FilePolarity,Positive*%
%FSLAX46Y46*%
G04 Gerber Fmt 4.6, Leading zero omitted, Abs format (unit mm)*
G04 Created by KiCad (PCBNEW 8.0.8) date 2025-04-22 11:25:48*
%MOMM*%
%LPD*%
G01*
G04 APERTURE LIST*
%ADD10C,0.150000*%
%ADD11C,0.120000*%
%ADD12C,0.152400*%
%ADD13C,0.400000*%
%ADD14C,0.127000*%
G04 APERTURE END LIST*
D10*
X188684819Y-82454666D02*
X188684819Y-83026094D01*
X188684819Y-82740380D02*
X187684819Y-82740380D01*
X187684819Y-82740380D02*
X187827676Y-82835618D01*
X187827676Y-82835618D02*
X187922914Y-82930856D01*
X187922914Y-82930856D02*
X187970533Y-83026094D01*
X187684819Y-81835618D02*
X187684819Y-81740380D01*
X187684819Y-81740380D02*
X187732438Y-81645142D01*
X187732438Y-81645142D02*
X187780057Y-81597523D01*
X187780057Y-81597523D02*
X187875295Y-81549904D01*
X187875295Y-81549904D02*
X188065771Y-81502285D01*
X188065771Y-81502285D02*
X188303866Y-81502285D01*
X188303866Y-81502285D02*
X188494342Y-81549904D01*
X188494342Y-81549904D02*
X188589580Y-81597523D01*
X188589580Y-81597523D02*
X188637200Y-81645142D01*
X188637200Y-81645142D02*
X188684819Y-81740380D01*
X188684819Y-81740380D02*
X188684819Y-81835618D01*
X188684819Y-81835618D02*
X188637200Y-81930856D01*
X188637200Y-81930856D02*
X188589580Y-81978475D01*
X188589580Y-81978475D02*
X188494342Y-82026094D01*
X188494342Y-82026094D02*
X188303866Y-82073713D01*
X188303866Y-82073713D02*
X188065771Y-82073713D01*
X188065771Y-82073713D02*
X187875295Y-82026094D01*
X187875295Y-82026094D02*
X187780057Y-81978475D01*
X187780057Y-81978475D02*
X187732438Y-81930856D01*
X187732438Y-81930856D02*
X187684819Y-81835618D01*
X187684819Y-80883237D02*
X187684819Y-80787999D01*
X187684819Y-80787999D02*
X187732438Y-80692761D01*
X187732438Y-80692761D02*
X187780057Y-80645142D01*
X187780057Y-80645142D02*
X187875295Y-80597523D01*
X187875295Y-80597523D02*
X188065771Y-80549904D01*
X188065771Y-80549904D02*
X188303866Y-80549904D01*
X188303866Y-80549904D02*
X188494342Y-80597523D01*
X188494342Y-80597523D02*
X188589580Y-80645142D01*
X188589580Y-80645142D02*
X188637200Y-80692761D01*
X188637200Y-80692761D02*
X188684819Y-80787999D01*
X188684819Y-80787999D02*
X188684819Y-80883237D01*
X188684819Y-80883237D02*
X188637200Y-80978475D01*
X188637200Y-80978475D02*
X188589580Y-81026094D01*
X188589580Y-81026094D02*
X188494342Y-81073713D01*
X188494342Y-81073713D02*
X188303866Y-81121332D01*
X188303866Y-81121332D02*
X188065771Y-81121332D01*
X188065771Y-81121332D02*
X187875295Y-81073713D01*
X187875295Y-81073713D02*
X187780057Y-81026094D01*
X187780057Y-81026094D02*
X187732438Y-80978475D01*
X187732438Y-80978475D02*
X187684819Y-80883237D01*
X188684819Y-91090666D02*
X188684819Y-91662094D01*
X188684819Y-91376380D02*
X187684819Y-91376380D01*
X187684819Y-91376380D02*
X187827676Y-91471618D01*
X187827676Y-91471618D02*
X187922914Y-91566856D01*
X187922914Y-91566856D02*
X187970533Y-91662094D01*
X187684819Y-90471618D02*
X187684819Y-90376380D01*
X187684819Y-90376380D02*
X187732438Y-90281142D01*
X187732438Y-90281142D02*
X187780057Y-90233523D01*
X187780057Y-90233523D02*
X187875295Y-90185904D01*
X187875295Y-90185904D02*
X188065771Y-90138285D01*
X188065771Y-90138285D02*
X188303866Y-90138285D01*
X188303866Y-90138285D02*
X188494342Y-90185904D01*
X188494342Y-90185904D02*
X188589580Y-90233523D01*
X188589580Y-90233523D02*
X188637200Y-90281142D01*
X188637200Y-90281142D02*
X188684819Y-90376380D01*
X188684819Y-90376380D02*
X188684819Y-90471618D01*
X188684819Y-90471618D02*
X188637200Y-90566856D01*
X188637200Y-90566856D02*
X188589580Y-90614475D01*
X188589580Y-90614475D02*
X188494342Y-90662094D01*
X188494342Y-90662094D02*
X188303866Y-90709713D01*
X188303866Y-90709713D02*
X188065771Y-90709713D01*
X188065771Y-90709713D02*
X187875295Y-90662094D01*
X187875295Y-90662094D02*
X187780057Y-90614475D01*
X187780057Y-90614475D02*
X187732438Y-90566856D01*
X187732438Y-90566856D02*
X187684819Y-90471618D01*
X187684819Y-89519237D02*
X187684819Y-89423999D01*
X187684819Y-89423999D02*
X187732438Y-89328761D01*
X187732438Y-89328761D02*
X187780057Y-89281142D01*
X187780057Y-89281142D02*
X187875295Y-89233523D01*
X187875295Y-89233523D02*
X188065771Y-89185904D01*
X188065771Y-89185904D02*
X188303866Y-89185904D01*
X188303866Y-89185904D02*
X188494342Y-89233523D01*
X188494342Y-89233523D02*
X188589580Y-89281142D01*
X188589580Y-89281142D02*
X188637200Y-89328761D01*
X188637200Y-89328761D02*
X188684819Y-89423999D01*
X188684819Y-89423999D02*
X188684819Y-89519237D01*
X188684819Y-89519237D02*
X188637200Y-89614475D01*
X188637200Y-89614475D02*
X188589580Y-89662094D01*
X188589580Y-89662094D02*
X188494342Y-89709713D01*
X188494342Y-89709713D02*
X188303866Y-89757332D01*
X188303866Y-89757332D02*
X188065771Y-89757332D01*
X188065771Y-89757332D02*
X187875295Y-89709713D01*
X187875295Y-89709713D02*
X187780057Y-89662094D01*
X187780057Y-89662094D02*
X187732438Y-89614475D01*
X187732438Y-89614475D02*
X187684819Y-89519237D01*
X150860286Y-70610819D02*
X151479333Y-70610819D01*
X151479333Y-70610819D02*
X151146000Y-70991771D01*
X151146000Y-70991771D02*
X151288857Y-70991771D01*
X151288857Y-70991771D02*
X151384095Y-71039390D01*
X151384095Y-71039390D02*
X151431714Y-71087009D01*
X151431714Y-71087009D02*
X151479333Y-71182247D01*
X151479333Y-71182247D02*
X151479333Y-71420342D01*
X151479333Y-71420342D02*
X151431714Y-71515580D01*
X151431714Y-71515580D02*
X151384095Y-71563200D01*
X151384095Y-71563200D02*
X151288857Y-71610819D01*
X151288857Y-71610819D02*
X151003143Y-71610819D01*
X151003143Y-71610819D02*
X150907905Y-71563200D01*
X150907905Y-71563200D02*
X150860286Y-71515580D01*
X151812667Y-70610819D02*
X152431714Y-70610819D01*
X152431714Y-70610819D02*
X152098381Y-70991771D01*
X152098381Y-70991771D02*
X152241238Y-70991771D01*
X152241238Y-70991771D02*
X152336476Y-71039390D01*
X152336476Y-71039390D02*
X152384095Y-71087009D01*
X152384095Y-71087009D02*
X152431714Y-71182247D01*
X152431714Y-71182247D02*
X152431714Y-71420342D01*
X152431714Y-71420342D02*
X152384095Y-71515580D01*
X152384095Y-71515580D02*
X152336476Y-71563200D01*
X152336476Y-71563200D02*
X152241238Y-71610819D01*
X152241238Y-71610819D02*
X151955524Y-71610819D01*
X151955524Y-71610819D02*
X151860286Y-71563200D01*
X151860286Y-71563200D02*
X151812667Y-71515580D01*
X153050762Y-70610819D02*
X153146000Y-70610819D01*
X153146000Y-70610819D02*
X153241238Y-70658438D01*
X153241238Y-70658438D02*
X153288857Y-70706057D01*
X153288857Y-70706057D02*
X153336476Y-70801295D01*
X153336476Y-70801295D02*
X153384095Y-70991771D01*
X153384095Y-70991771D02*
X153384095Y-71229866D01*
X153384095Y-71229866D02*
X153336476Y-71420342D01*
X153336476Y-71420342D02*
X153288857Y-71515580D01*
X153288857Y-71515580D02*
X153241238Y-71563200D01*
X153241238Y-71563200D02*
X153146000Y-71610819D01*
X153146000Y-71610819D02*
X153050762Y-71610819D01*
X153050762Y-71610819D02*
X152955524Y-71563200D01*
X152955524Y-71563200D02*
X152907905Y-71515580D01*
X152907905Y-71515580D02*
X152860286Y-71420342D01*
X152860286Y-71420342D02*
X152812667Y-71229866D01*
X152812667Y-71229866D02*
X152812667Y-70991771D01*
X152812667Y-70991771D02*
X152860286Y-70801295D01*
X152860286Y-70801295D02*
X152907905Y-70706057D01*
X152907905Y-70706057D02*
X152955524Y-70658438D01*
X152955524Y-70658438D02*
X153050762Y-70610819D01*
X142097286Y-70717819D02*
X142716333Y-70717819D01*
X142716333Y-70717819D02*
X142383000Y-71098771D01*
X142383000Y-71098771D02*
X142525857Y-71098771D01*
X142525857Y-71098771D02*
X142621095Y-71146390D01*
X142621095Y-71146390D02*
X142668714Y-71194009D01*
X142668714Y-71194009D02*
X142716333Y-71289247D01*
X142716333Y-71289247D02*
X142716333Y-71527342D01*
X142716333Y-71527342D02*
X142668714Y-71622580D01*
X142668714Y-71622580D02*
X142621095Y-71670200D01*
X142621095Y-71670200D02*
X142525857Y-71717819D01*
X142525857Y-71717819D02*
X142240143Y-71717819D01*
X142240143Y-71717819D02*
X142144905Y-71670200D01*
X142144905Y-71670200D02*
X142097286Y-71622580D01*
X143049667Y-70717819D02*
X143668714Y-70717819D01*
X143668714Y-70717819D02*
X143335381Y-71098771D01*
X143335381Y-71098771D02*
X143478238Y-71098771D01*
X143478238Y-71098771D02*
X143573476Y-71146390D01*
X143573476Y-71146390D02*
X143621095Y-71194009D01*
X143621095Y-71194009D02*
X143668714Y-71289247D01*
X143668714Y-71289247D02*
X143668714Y-71527342D01*
X143668714Y-71527342D02*
X143621095Y-71622580D01*
X143621095Y-71622580D02*
X143573476Y-71670200D01*
X143573476Y-71670200D02*
X143478238Y-71717819D01*
X143478238Y-71717819D02*
X143192524Y-71717819D01*
X143192524Y-71717819D02*
X143097286Y-71670200D01*
X143097286Y-71670200D02*
X143049667Y-71622580D01*
X144287762Y-70717819D02*
X144383000Y-70717819D01*
X144383000Y-70717819D02*
X144478238Y-70765438D01*
X144478238Y-70765438D02*
X144525857Y-70813057D01*
X144525857Y-70813057D02*
X144573476Y-70908295D01*
X144573476Y-70908295D02*
X144621095Y-71098771D01*
X144621095Y-71098771D02*
X144621095Y-71336866D01*
X144621095Y-71336866D02*
X144573476Y-71527342D01*
X144573476Y-71527342D02*
X144525857Y-71622580D01*
X144525857Y-71622580D02*
X144478238Y-71670200D01*
X144478238Y-71670200D02*
X144383000Y-71717819D01*
X144383000Y-71717819D02*
X144287762Y-71717819D01*
X144287762Y-71717819D02*
X144192524Y-71670200D01*
X144192524Y-71670200D02*
X144144905Y-71622580D01*
X144144905Y-71622580D02*
X144097286Y-71527342D01*
X144097286Y-71527342D02*
X144049667Y-71336866D01*
X144049667Y-71336866D02*
X144049667Y-71098771D01*
X144049667Y-71098771D02*
X144097286Y-70908295D01*
X144097286Y-70908295D02*
X144144905Y-70813057D01*
X144144905Y-70813057D02*
X144192524Y-70765438D01*
X144192524Y-70765438D02*
X144287762Y-70717819D01*
X134096286Y-70717819D02*
X134715333Y-70717819D01*
X134715333Y-70717819D02*
X134382000Y-71098771D01*
X134382000Y-71098771D02*
X134524857Y-71098771D01*
X134524857Y-71098771D02*
X134620095Y-71146390D01*
X134620095Y-71146390D02*
X134667714Y-71194009D01*
X134667714Y-71194009D02*
X134715333Y-71289247D01*
X134715333Y-71289247D02*
X134715333Y-71527342D01*
X134715333Y-71527342D02*
X134667714Y-71622580D01*
X134667714Y-71622580D02*
X134620095Y-71670200D01*
X134620095Y-71670200D02*
X134524857Y-71717819D01*
X134524857Y-71717819D02*
X134239143Y-71717819D01*
X134239143Y-71717819D02*
X134143905Y-71670200D01*
X134143905Y-71670200D02*
X134096286Y-71622580D01*
X135048667Y-70717819D02*
X135667714Y-70717819D01*
X135667714Y-70717819D02*
X135334381Y-71098771D01*
X135334381Y-71098771D02*
X135477238Y-71098771D01*
X135477238Y-71098771D02*
X135572476Y-71146390D01*
X135572476Y-71146390D02*
X135620095Y-71194009D01*
X135620095Y-71194009D02*
X135667714Y-71289247D01*
X135667714Y-71289247D02*
X135667714Y-71527342D01*
X135667714Y-71527342D02*
X135620095Y-71622580D01*
X135620095Y-71622580D02*
X135572476Y-71670200D01*
X135572476Y-71670200D02*
X135477238Y-71717819D01*
X135477238Y-71717819D02*
X135191524Y-71717819D01*
X135191524Y-71717819D02*
X135096286Y-71670200D01*
X135096286Y-71670200D02*
X135048667Y-71622580D01*
X136286762Y-70717819D02*
X136382000Y-70717819D01*
X136382000Y-70717819D02*
X136477238Y-70765438D01*
X136477238Y-70765438D02*
X136524857Y-70813057D01*
X136524857Y-70813057D02*
X136572476Y-70908295D01*
X136572476Y-70908295D02*
X136620095Y-71098771D01*
X136620095Y-71098771D02*
X136620095Y-71336866D01*
X136620095Y-71336866D02*
X136572476Y-71527342D01*
X136572476Y-71527342D02*
X136524857Y-71622580D01*
X136524857Y-71622580D02*
X136477238Y-71670200D01*
X136477238Y-71670200D02*
X136382000Y-71717819D01*
X136382000Y-71717819D02*
X136286762Y-71717819D01*
X136286762Y-71717819D02*
X136191524Y-71670200D01*
X136191524Y-71670200D02*
X136143905Y-71622580D01*
X136143905Y-71622580D02*
X136096286Y-71527342D01*
X136096286Y-71527342D02*
X136048667Y-71336866D01*
X136048667Y-71336866D02*
X136048667Y-71098771D01*
X136048667Y-71098771D02*
X136096286Y-70908295D01*
X136096286Y-70908295D02*
X136143905Y-70813057D01*
X136143905Y-70813057D02*
X136191524Y-70765438D01*
X136191524Y-70765438D02*
X136286762Y-70717819D01*
X117834819Y-56911713D02*
X117834819Y-56292666D01*
X117834819Y-56292666D02*
X118215771Y-56625999D01*
X118215771Y-56625999D02*
X118215771Y-56483142D01*
X118215771Y-56483142D02*
X118263390Y-56387904D01*
X118263390Y-56387904D02*
X118311009Y-56340285D01*
X118311009Y-56340285D02*
X118406247Y-56292666D01*
X118406247Y-56292666D02*
X118644342Y-56292666D01*
X118644342Y-56292666D02*
X118739580Y-56340285D01*
X118739580Y-56340285D02*
X118787200Y-56387904D01*
X118787200Y-56387904D02*
X118834819Y-56483142D01*
X118834819Y-56483142D02*
X118834819Y-56768856D01*
X118834819Y-56768856D02*
X118787200Y-56864094D01*
X118787200Y-56864094D02*
X118739580Y-56911713D01*
X117834819Y-55959332D02*
X117834819Y-55340285D01*
X117834819Y-55340285D02*
X118215771Y-55673618D01*
X118215771Y-55673618D02*
X118215771Y-55530761D01*
X118215771Y-55530761D02*
X118263390Y-55435523D01*
X118263390Y-55435523D02*
X118311009Y-55387904D01*
X118311009Y-55387904D02*
X118406247Y-55340285D01*
X118406247Y-55340285D02*
X118644342Y-55340285D01*
X118644342Y-55340285D02*
X118739580Y-55387904D01*
X118739580Y-55387904D02*
X118787200Y-55435523D01*
X118787200Y-55435523D02*
X118834819Y-55530761D01*
X118834819Y-55530761D02*
X118834819Y-55816475D01*
X118834819Y-55816475D02*
X118787200Y-55911713D01*
X118787200Y-55911713D02*
X118739580Y-55959332D01*
X117834819Y-54721237D02*
X117834819Y-54625999D01*
X117834819Y-54625999D02*
X117882438Y-54530761D01*
X117882438Y-54530761D02*
X117930057Y-54483142D01*
X117930057Y-54483142D02*
X118025295Y-54435523D01*
X118025295Y-54435523D02*
X118215771Y-54387904D01*
X118215771Y-54387904D02*
X118453866Y-54387904D01*
X118453866Y-54387904D02*
X118644342Y-54435523D01*
X118644342Y-54435523D02*
X118739580Y-54483142D01*
X118739580Y-54483142D02*
X118787200Y-54530761D01*
X118787200Y-54530761D02*
X118834819Y-54625999D01*
X118834819Y-54625999D02*
X118834819Y-54721237D01*
X118834819Y-54721237D02*
X118787200Y-54816475D01*
X118787200Y-54816475D02*
X118739580Y-54864094D01*
X118739580Y-54864094D02*
X118644342Y-54911713D01*
X118644342Y-54911713D02*
X118453866Y-54959332D01*
X118453866Y-54959332D02*
X118215771Y-54959332D01*
X118215771Y-54959332D02*
X118025295Y-54911713D01*
X118025295Y-54911713D02*
X117930057Y-54864094D01*
X117930057Y-54864094D02*
X117882438Y-54816475D01*
X117882438Y-54816475D02*
X117834819Y-54721237D01*
X117834819Y-68849713D02*
X117834819Y-68230666D01*
X117834819Y-68230666D02*
X118215771Y-68563999D01*
X118215771Y-68563999D02*
X118215771Y-68421142D01*
X118215771Y-68421142D02*
X118263390Y-68325904D01*
X118263390Y-68325904D02*
X118311009Y-68278285D01*
X118311009Y-68278285D02*
X118406247Y-68230666D01*
X118406247Y-68230666D02*
X118644342Y-68230666D01*
X118644342Y-68230666D02*
X118739580Y-68278285D01*
X118739580Y-68278285D02*
X118787200Y-68325904D01*
X118787200Y-68325904D02*
X118834819Y-68421142D01*
X118834819Y-68421142D02*
X118834819Y-68706856D01*
X118834819Y-68706856D02*
X118787200Y-68802094D01*
X118787200Y-68802094D02*
X118739580Y-68849713D01*
X117834819Y-67897332D02*
X117834819Y-67278285D01*
X117834819Y-67278285D02*
X118215771Y-67611618D01*
X118215771Y-67611618D02*
X118215771Y-67468761D01*
X118215771Y-67468761D02*
X118263390Y-67373523D01*
X118263390Y-67373523D02*
X118311009Y-67325904D01*
X118311009Y-67325904D02*
X118406247Y-67278285D01*
X118406247Y-67278285D02*
X118644342Y-67278285D01*
X118644342Y-67278285D02*
X118739580Y-67325904D01*
X118739580Y-67325904D02*
X118787200Y-67373523D01*
X118787200Y-67373523D02*
X118834819Y-67468761D01*
X118834819Y-67468761D02*
X118834819Y-67754475D01*
X118834819Y-67754475D02*
X118787200Y-67849713D01*
X118787200Y-67849713D02*
X118739580Y-67897332D01*
X117834819Y-66659237D02*
X117834819Y-66563999D01*
X117834819Y-66563999D02*
X117882438Y-66468761D01*
X117882438Y-66468761D02*
X117930057Y-66421142D01*
X117930057Y-66421142D02*
X118025295Y-66373523D01*
X118025295Y-66373523D02*
X118215771Y-66325904D01*
X118215771Y-66325904D02*
X118453866Y-66325904D01*
X118453866Y-66325904D02*
X118644342Y-66373523D01*
X118644342Y-66373523D02*
X118739580Y-66421142D01*
X118739580Y-66421142D02*
X118787200Y-66468761D01*
X118787200Y-66468761D02*
X118834819Y-66563999D01*
X118834819Y-66563999D02*
X118834819Y-66659237D01*
X118834819Y-66659237D02*
X118787200Y-66754475D01*
X118787200Y-66754475D02*
X118739580Y-66802094D01*
X118739580Y-66802094D02*
X118644342Y-66849713D01*
X118644342Y-66849713D02*
X118453866Y-66897332D01*
X118453866Y-66897332D02*
X118215771Y-66897332D01*
X118215771Y-66897332D02*
X118025295Y-66849713D01*
X118025295Y-66849713D02*
X117930057Y-66802094D01*
X117930057Y-66802094D02*
X117882438Y-66754475D01*
X117882438Y-66754475D02*
X117834819Y-66659237D01*
X117834819Y-46370713D02*
X117834819Y-45751666D01*
X117834819Y-45751666D02*
X118215771Y-46084999D01*
X118215771Y-46084999D02*
X118215771Y-45942142D01*
X118215771Y-45942142D02*
X118263390Y-45846904D01*
X118263390Y-45846904D02*
X118311009Y-45799285D01*
X118311009Y-45799285D02*
X118406247Y-45751666D01*
X118406247Y-45751666D02*
X118644342Y-45751666D01*
X118644342Y-45751666D02*
X118739580Y-45799285D01*
X118739580Y-45799285D02*
X118787200Y-45846904D01*
X118787200Y-45846904D02*
X118834819Y-45942142D01*
X118834819Y-45942142D02*
X118834819Y-46227856D01*
X118834819Y-46227856D02*
X118787200Y-46323094D01*
X118787200Y-46323094D02*
X118739580Y-46370713D01*
X117834819Y-45418332D02*
X117834819Y-44799285D01*
X117834819Y-44799285D02*
X118215771Y-45132618D01*
X118215771Y-45132618D02*
X118215771Y-44989761D01*
X118215771Y-44989761D02*
X118263390Y-44894523D01*
X118263390Y-44894523D02*
X118311009Y-44846904D01*
X118311009Y-44846904D02*
X118406247Y-44799285D01*
X118406247Y-44799285D02*
X118644342Y-44799285D01*
X118644342Y-44799285D02*
X118739580Y-44846904D01*
X118739580Y-44846904D02*
X118787200Y-44894523D01*
X118787200Y-44894523D02*
X118834819Y-44989761D01*
X118834819Y-44989761D02*
X118834819Y-45275475D01*
X118834819Y-45275475D02*
X118787200Y-45370713D01*
X118787200Y-45370713D02*
X118739580Y-45418332D01*
X117834819Y-44180237D02*
X117834819Y-44084999D01*
X117834819Y-44084999D02*
X117882438Y-43989761D01*
X117882438Y-43989761D02*
X117930057Y-43942142D01*
X117930057Y-43942142D02*
X118025295Y-43894523D01*
X118025295Y-43894523D02*
X118215771Y-43846904D01*
X118215771Y-43846904D02*
X118453866Y-43846904D01*
X118453866Y-43846904D02*
X118644342Y-43894523D01*
X118644342Y-43894523D02*
X118739580Y-43942142D01*
X118739580Y-43942142D02*
X118787200Y-43989761D01*
X118787200Y-43989761D02*
X118834819Y-44084999D01*
X118834819Y-44084999D02*
X118834819Y-44180237D01*
X118834819Y-44180237D02*
X118787200Y-44275475D01*
X118787200Y-44275475D02*
X118739580Y-44323094D01*
X118739580Y-44323094D02*
X118644342Y-44370713D01*
X118644342Y-44370713D02*
X118453866Y-44418332D01*
X118453866Y-44418332D02*
X118215771Y-44418332D01*
X118215771Y-44418332D02*
X118025295Y-44370713D01*
X118025295Y-44370713D02*
X117930057Y-44323094D01*
X117930057Y-44323094D02*
X117882438Y-44275475D01*
X117882438Y-44275475D02*
X117834819Y-44180237D01*
X161742523Y-111976819D02*
X161171095Y-111976819D01*
X161456809Y-111976819D02*
X161456809Y-110976819D01*
X161456809Y-110976819D02*
X161361571Y-111119676D01*
X161361571Y-111119676D02*
X161266333Y-111214914D01*
X161266333Y-111214914D02*
X161171095Y-111262533D01*
X162361571Y-110976819D02*
X162456809Y-110976819D01*
X162456809Y-110976819D02*
X162552047Y-111024438D01*
X162552047Y-111024438D02*
X162599666Y-111072057D01*
X162599666Y-111072057D02*
X162647285Y-111167295D01*
X162647285Y-111167295D02*
X162694904Y-111357771D01*
X162694904Y-111357771D02*
X162694904Y-111595866D01*
X162694904Y-111595866D02*
X162647285Y-111786342D01*
X162647285Y-111786342D02*
X162599666Y-111881580D01*
X162599666Y-111881580D02*
X162552047Y-111929200D01*
X162552047Y-111929200D02*
X162456809Y-111976819D01*
X162456809Y-111976819D02*
X162361571Y-111976819D01*
X162361571Y-111976819D02*
X162266333Y-111929200D01*
X162266333Y-111929200D02*
X162218714Y-111881580D01*
X162218714Y-111881580D02*
X162171095Y-111786342D01*
X162171095Y-111786342D02*
X162123476Y-111595866D01*
X162123476Y-111595866D02*
X162123476Y-111357771D01*
X162123476Y-111357771D02*
X162171095Y-111167295D01*
X162171095Y-111167295D02*
X162218714Y-111072057D01*
X162218714Y-111072057D02*
X162266333Y-111024438D01*
X162266333Y-111024438D02*
X162361571Y-110976819D01*
X163123476Y-111976819D02*
X163123476Y-110976819D01*
X163694904Y-111976819D02*
X163266333Y-111405390D01*
X163694904Y-110976819D02*
X163123476Y-111548247D01*
X128722523Y-111214819D02*
X128151095Y-111214819D01*
X128436809Y-111214819D02*
X128436809Y-110214819D01*
X128436809Y-110214819D02*
X128341571Y-110357676D01*
X128341571Y-110357676D02*
X128246333Y-110452914D01*
X128246333Y-110452914D02*
X128151095Y-110500533D01*
X129341571Y-110214819D02*
X129436809Y-110214819D01*
X129436809Y-110214819D02*
X129532047Y-110262438D01*
X129532047Y-110262438D02*
X129579666Y-110310057D01*
X129579666Y-110310057D02*
X129627285Y-110405295D01*
X129627285Y-110405295D02*
X129674904Y-110595771D01*
X129674904Y-110595771D02*
X129674904Y-110833866D01*
X129674904Y-110833866D02*
X129627285Y-111024342D01*
X129627285Y-111024342D02*
X129579666Y-111119580D01*
X129579666Y-111119580D02*
X129532047Y-111167200D01*
X129532047Y-111167200D02*
X129436809Y-111214819D01*
X129436809Y-111214819D02*
X129341571Y-111214819D01*
X129341571Y-111214819D02*
X129246333Y-111167200D01*
X129246333Y-111167200D02*
X129198714Y-111119580D01*
X129198714Y-111119580D02*
X129151095Y-111024342D01*
X129151095Y-111024342D02*
X129103476Y-110833866D01*
X129103476Y-110833866D02*
X129103476Y-110595771D01*
X129103476Y-110595771D02*
X129151095Y-110405295D01*
X129151095Y-110405295D02*
X129198714Y-110310057D01*
X129198714Y-110310057D02*
X129246333Y-110262438D01*
X129246333Y-110262438D02*
X129341571Y-110214819D01*
X130103476Y-111214819D02*
X130103476Y-110214819D01*
X130674904Y-111214819D02*
X130246333Y-110643390D01*
X130674904Y-110214819D02*
X130103476Y-110786247D01*
X114485057Y-95114856D02*
X114437438Y-95067237D01*
X114437438Y-95067237D02*
X114389819Y-94971999D01*
X114389819Y-94971999D02*
X114389819Y-94733904D01*
X114389819Y-94733904D02*
X114437438Y-94638666D01*
X114437438Y-94638666D02*
X114485057Y-94591047D01*
X114485057Y-94591047D02*
X114580295Y-94543428D01*
X114580295Y-94543428D02*
X114675533Y-94543428D01*
X114675533Y-94543428D02*
X114818390Y-94591047D01*
X114818390Y-94591047D02*
X115389819Y-95162475D01*
X115389819Y-95162475D02*
X115389819Y-94543428D01*
X114485057Y-94162475D02*
X114437438Y-94114856D01*
X114437438Y-94114856D02*
X114389819Y-94019618D01*
X114389819Y-94019618D02*
X114389819Y-93781523D01*
X114389819Y-93781523D02*
X114437438Y-93686285D01*
X114437438Y-93686285D02*
X114485057Y-93638666D01*
X114485057Y-93638666D02*
X114580295Y-93591047D01*
X114580295Y-93591047D02*
X114675533Y-93591047D01*
X114675533Y-93591047D02*
X114818390Y-93638666D01*
X114818390Y-93638666D02*
X115389819Y-94210094D01*
X115389819Y-94210094D02*
X115389819Y-93591047D01*
X114723152Y-92733904D02*
X115389819Y-92733904D01*
X114723152Y-93162475D02*
X115246961Y-93162475D01*
X115246961Y-93162475D02*
X115342200Y-93114856D01*
X115342200Y-93114856D02*
X115389819Y-93019618D01*
X115389819Y-93019618D02*
X115389819Y-92876761D01*
X115389819Y-92876761D02*
X115342200Y-92781523D01*
X115342200Y-92781523D02*
X115294580Y-92733904D01*
X114866009Y-91924380D02*
X114866009Y-92257713D01*
X115389819Y-92257713D02*
X114389819Y-92257713D01*
X114389819Y-92257713D02*
X114389819Y-91781523D01*
X114612057Y-107941856D02*
X114564438Y-107894237D01*
X114564438Y-107894237D02*
X114516819Y-107798999D01*
X114516819Y-107798999D02*
X114516819Y-107560904D01*
X114516819Y-107560904D02*
X114564438Y-107465666D01*
X114564438Y-107465666D02*
X114612057Y-107418047D01*
X114612057Y-107418047D02*
X114707295Y-107370428D01*
X114707295Y-107370428D02*
X114802533Y-107370428D01*
X114802533Y-107370428D02*
X114945390Y-107418047D01*
X114945390Y-107418047D02*
X115516819Y-107989475D01*
X115516819Y-107989475D02*
X115516819Y-107370428D01*
X114612057Y-106989475D02*
X114564438Y-106941856D01*
X114564438Y-106941856D02*
X114516819Y-106846618D01*
X114516819Y-106846618D02*
X114516819Y-106608523D01*
X114516819Y-106608523D02*
X114564438Y-106513285D01*
X114564438Y-106513285D02*
X114612057Y-106465666D01*
X114612057Y-106465666D02*
X114707295Y-106418047D01*
X114707295Y-106418047D02*
X114802533Y-106418047D01*
X114802533Y-106418047D02*
X114945390Y-106465666D01*
X114945390Y-106465666D02*
X115516819Y-107037094D01*
X115516819Y-107037094D02*
X115516819Y-106418047D01*
X114850152Y-105560904D02*
X115516819Y-105560904D01*
X114850152Y-105989475D02*
X115373961Y-105989475D01*
X115373961Y-105989475D02*
X115469200Y-105941856D01*
X115469200Y-105941856D02*
X115516819Y-105846618D01*
X115516819Y-105846618D02*
X115516819Y-105703761D01*
X115516819Y-105703761D02*
X115469200Y-105608523D01*
X115469200Y-105608523D02*
X115421580Y-105560904D01*
X114993009Y-104751380D02*
X114993009Y-105084713D01*
X115516819Y-105084713D02*
X114516819Y-105084713D01*
X114516819Y-105084713D02*
X114516819Y-104608523D01*
X176254819Y-83303856D02*
X176254819Y-83208618D01*
X176254819Y-83208618D02*
X176302438Y-83113380D01*
X176302438Y-83113380D02*
X176350057Y-83065761D01*
X176350057Y-83065761D02*
X176445295Y-83018142D01*
X176445295Y-83018142D02*
X176635771Y-82970523D01*
X176635771Y-82970523D02*
X176873866Y-82970523D01*
X176873866Y-82970523D02*
X177064342Y-83018142D01*
X177064342Y-83018142D02*
X177159580Y-83065761D01*
X177159580Y-83065761D02*
X177207200Y-83113380D01*
X177207200Y-83113380D02*
X177254819Y-83208618D01*
X177254819Y-83208618D02*
X177254819Y-83303856D01*
X177254819Y-83303856D02*
X177207200Y-83399094D01*
X177207200Y-83399094D02*
X177159580Y-83446713D01*
X177159580Y-83446713D02*
X177064342Y-83494332D01*
X177064342Y-83494332D02*
X176873866Y-83541951D01*
X176873866Y-83541951D02*
X176635771Y-83541951D01*
X176635771Y-83541951D02*
X176445295Y-83494332D01*
X176445295Y-83494332D02*
X176350057Y-83446713D01*
X176350057Y-83446713D02*
X176302438Y-83399094D01*
X176302438Y-83399094D02*
X176254819Y-83303856D01*
X177159580Y-82541951D02*
X177207200Y-82494332D01*
X177207200Y-82494332D02*
X177254819Y-82541951D01*
X177254819Y-82541951D02*
X177207200Y-82589570D01*
X177207200Y-82589570D02*
X177159580Y-82541951D01*
X177159580Y-82541951D02*
X177254819Y-82541951D01*
X177254819Y-81541952D02*
X177254819Y-82113380D01*
X177254819Y-81827666D02*
X176254819Y-81827666D01*
X176254819Y-81827666D02*
X176397676Y-81922904D01*
X176397676Y-81922904D02*
X176492914Y-82018142D01*
X176492914Y-82018142D02*
X176540533Y-82113380D01*
X176588152Y-80684809D02*
X177254819Y-80684809D01*
X176588152Y-81113380D02*
X177111961Y-81113380D01*
X177111961Y-81113380D02*
X177207200Y-81065761D01*
X177207200Y-81065761D02*
X177254819Y-80970523D01*
X177254819Y-80970523D02*
X177254819Y-80827666D01*
X177254819Y-80827666D02*
X177207200Y-80732428D01*
X177207200Y-80732428D02*
X177159580Y-80684809D01*
X176731009Y-79875285D02*
X176731009Y-80208618D01*
X177254819Y-80208618D02*
X176254819Y-80208618D01*
X176254819Y-80208618D02*
X176254819Y-79732428D01*
X175873819Y-100448856D02*
X175873819Y-100353618D01*
X175873819Y-100353618D02*
X175921438Y-100258380D01*
X175921438Y-100258380D02*
X175969057Y-100210761D01*
X175969057Y-100210761D02*
X176064295Y-100163142D01*
X176064295Y-100163142D02*
X176254771Y-100115523D01*
X176254771Y-100115523D02*
X176492866Y-100115523D01*
X176492866Y-100115523D02*
X176683342Y-100163142D01*
X176683342Y-100163142D02*
X176778580Y-100210761D01*
X176778580Y-100210761D02*
X176826200Y-100258380D01*
X176826200Y-100258380D02*
X176873819Y-100353618D01*
X176873819Y-100353618D02*
X176873819Y-100448856D01*
X176873819Y-100448856D02*
X176826200Y-100544094D01*
X176826200Y-100544094D02*
X176778580Y-100591713D01*
X176778580Y-100591713D02*
X176683342Y-100639332D01*
X176683342Y-100639332D02*
X176492866Y-100686951D01*
X176492866Y-100686951D02*
X176254771Y-100686951D01*
X176254771Y-100686951D02*
X176064295Y-100639332D01*
X176064295Y-100639332D02*
X175969057Y-100591713D01*
X175969057Y-100591713D02*
X175921438Y-100544094D01*
X175921438Y-100544094D02*
X175873819Y-100448856D01*
X176778580Y-99686951D02*
X176826200Y-99639332D01*
X176826200Y-99639332D02*
X176873819Y-99686951D01*
X176873819Y-99686951D02*
X176826200Y-99734570D01*
X176826200Y-99734570D02*
X176778580Y-99686951D01*
X176778580Y-99686951D02*
X176873819Y-99686951D01*
X176873819Y-98686952D02*
X176873819Y-99258380D01*
X176873819Y-98972666D02*
X175873819Y-98972666D01*
X175873819Y-98972666D02*
X176016676Y-99067904D01*
X176016676Y-99067904D02*
X176111914Y-99163142D01*
X176111914Y-99163142D02*
X176159533Y-99258380D01*
X176207152Y-97829809D02*
X176873819Y-97829809D01*
X176207152Y-98258380D02*
X176730961Y-98258380D01*
X176730961Y-98258380D02*
X176826200Y-98210761D01*
X176826200Y-98210761D02*
X176873819Y-98115523D01*
X176873819Y-98115523D02*
X176873819Y-97972666D01*
X176873819Y-97972666D02*
X176826200Y-97877428D01*
X176826200Y-97877428D02*
X176778580Y-97829809D01*
X176350009Y-97020285D02*
X176350009Y-97353618D01*
X176873819Y-97353618D02*
X175873819Y-97353618D01*
X175873819Y-97353618D02*
X175873819Y-96877428D01*
X175873819Y-92066856D02*
X175873819Y-91971618D01*
X175873819Y-91971618D02*
X175921438Y-91876380D01*
X175921438Y-91876380D02*
X175969057Y-91828761D01*
X175969057Y-91828761D02*
X176064295Y-91781142D01*
X176064295Y-91781142D02*
X176254771Y-91733523D01*
X176254771Y-91733523D02*
X176492866Y-91733523D01*
X176492866Y-91733523D02*
X176683342Y-91781142D01*
X176683342Y-91781142D02*
X176778580Y-91828761D01*
X176778580Y-91828761D02*
X176826200Y-91876380D01*
X176826200Y-91876380D02*
X176873819Y-91971618D01*
X176873819Y-91971618D02*
X176873819Y-92066856D01*
X176873819Y-92066856D02*
X176826200Y-92162094D01*
X176826200Y-92162094D02*
X176778580Y-92209713D01*
X176778580Y-92209713D02*
X176683342Y-92257332D01*
X176683342Y-92257332D02*
X176492866Y-92304951D01*
X176492866Y-92304951D02*
X176254771Y-92304951D01*
X176254771Y-92304951D02*
X176064295Y-92257332D01*
X176064295Y-92257332D02*
X175969057Y-92209713D01*
X175969057Y-92209713D02*
X175921438Y-92162094D01*
X175921438Y-92162094D02*
X175873819Y-92066856D01*
X176778580Y-91304951D02*
X176826200Y-91257332D01*
X176826200Y-91257332D02*
X176873819Y-91304951D01*
X176873819Y-91304951D02*
X176826200Y-91352570D01*
X176826200Y-91352570D02*
X176778580Y-91304951D01*
X176778580Y-91304951D02*
X176873819Y-91304951D01*
X176873819Y-90304952D02*
X176873819Y-90876380D01*
X176873819Y-90590666D02*
X175873819Y-90590666D01*
X175873819Y-90590666D02*
X176016676Y-90685904D01*
X176016676Y-90685904D02*
X176111914Y-90781142D01*
X176111914Y-90781142D02*
X176159533Y-90876380D01*
X176207152Y-89447809D02*
X176873819Y-89447809D01*
X176207152Y-89876380D02*
X176730961Y-89876380D01*
X176730961Y-89876380D02*
X176826200Y-89828761D01*
X176826200Y-89828761D02*
X176873819Y-89733523D01*
X176873819Y-89733523D02*
X176873819Y-89590666D01*
X176873819Y-89590666D02*
X176826200Y-89495428D01*
X176826200Y-89495428D02*
X176778580Y-89447809D01*
X176350009Y-88638285D02*
X176350009Y-88971618D01*
X176873819Y-88971618D02*
X175873819Y-88971618D01*
X175873819Y-88971618D02*
X175873819Y-88495428D01*
X187303819Y-100448856D02*
X187303819Y-100353618D01*
X187303819Y-100353618D02*
X187351438Y-100258380D01*
X187351438Y-100258380D02*
X187399057Y-100210761D01*
X187399057Y-100210761D02*
X187494295Y-100163142D01*
X187494295Y-100163142D02*
X187684771Y-100115523D01*
X187684771Y-100115523D02*
X187922866Y-100115523D01*
X187922866Y-100115523D02*
X188113342Y-100163142D01*
X188113342Y-100163142D02*
X188208580Y-100210761D01*
X188208580Y-100210761D02*
X188256200Y-100258380D01*
X188256200Y-100258380D02*
X188303819Y-100353618D01*
X188303819Y-100353618D02*
X188303819Y-100448856D01*
X188303819Y-100448856D02*
X188256200Y-100544094D01*
X188256200Y-100544094D02*
X188208580Y-100591713D01*
X188208580Y-100591713D02*
X188113342Y-100639332D01*
X188113342Y-100639332D02*
X187922866Y-100686951D01*
X187922866Y-100686951D02*
X187684771Y-100686951D01*
X187684771Y-100686951D02*
X187494295Y-100639332D01*
X187494295Y-100639332D02*
X187399057Y-100591713D01*
X187399057Y-100591713D02*
X187351438Y-100544094D01*
X187351438Y-100544094D02*
X187303819Y-100448856D01*
X188208580Y-99686951D02*
X188256200Y-99639332D01*
X188256200Y-99639332D02*
X188303819Y-99686951D01*
X188303819Y-99686951D02*
X188256200Y-99734570D01*
X188256200Y-99734570D02*
X188208580Y-99686951D01*
X188208580Y-99686951D02*
X188303819Y-99686951D01*
X188303819Y-98686952D02*
X188303819Y-99258380D01*
X188303819Y-98972666D02*
X187303819Y-98972666D01*
X187303819Y-98972666D02*
X187446676Y-99067904D01*
X187446676Y-99067904D02*
X187541914Y-99163142D01*
X187541914Y-99163142D02*
X187589533Y-99258380D01*
X187637152Y-97829809D02*
X188303819Y-97829809D01*
X187637152Y-98258380D02*
X188160961Y-98258380D01*
X188160961Y-98258380D02*
X188256200Y-98210761D01*
X188256200Y-98210761D02*
X188303819Y-98115523D01*
X188303819Y-98115523D02*
X188303819Y-97972666D01*
X188303819Y-97972666D02*
X188256200Y-97877428D01*
X188256200Y-97877428D02*
X188208580Y-97829809D01*
X187780009Y-97020285D02*
X187780009Y-97353618D01*
X188303819Y-97353618D02*
X187303819Y-97353618D01*
X187303819Y-97353618D02*
X187303819Y-96877428D01*
X114247057Y-120133856D02*
X114199438Y-120086237D01*
X114199438Y-120086237D02*
X114151819Y-119990999D01*
X114151819Y-119990999D02*
X114151819Y-119752904D01*
X114151819Y-119752904D02*
X114199438Y-119657666D01*
X114199438Y-119657666D02*
X114247057Y-119610047D01*
X114247057Y-119610047D02*
X114342295Y-119562428D01*
X114342295Y-119562428D02*
X114437533Y-119562428D01*
X114437533Y-119562428D02*
X114580390Y-119610047D01*
X114580390Y-119610047D02*
X115151819Y-120181475D01*
X115151819Y-120181475D02*
X115151819Y-119562428D01*
X114247057Y-119181475D02*
X114199438Y-119133856D01*
X114199438Y-119133856D02*
X114151819Y-119038618D01*
X114151819Y-119038618D02*
X114151819Y-118800523D01*
X114151819Y-118800523D02*
X114199438Y-118705285D01*
X114199438Y-118705285D02*
X114247057Y-118657666D01*
X114247057Y-118657666D02*
X114342295Y-118610047D01*
X114342295Y-118610047D02*
X114437533Y-118610047D01*
X114437533Y-118610047D02*
X114580390Y-118657666D01*
X114580390Y-118657666D02*
X115151819Y-119229094D01*
X115151819Y-119229094D02*
X115151819Y-118610047D01*
X114485152Y-117752904D02*
X115151819Y-117752904D01*
X114485152Y-118181475D02*
X115008961Y-118181475D01*
X115008961Y-118181475D02*
X115104200Y-118133856D01*
X115104200Y-118133856D02*
X115151819Y-118038618D01*
X115151819Y-118038618D02*
X115151819Y-117895761D01*
X115151819Y-117895761D02*
X115104200Y-117800523D01*
X115104200Y-117800523D02*
X115056580Y-117752904D01*
X114628009Y-116943380D02*
X114628009Y-117276713D01*
X115151819Y-117276713D02*
X114151819Y-117276713D01*
X114151819Y-117276713D02*
X114151819Y-116800523D01*
X124468143Y-48619819D02*
X124563381Y-48619819D01*
X124563381Y-48619819D02*
X124658619Y-48667438D01*
X124658619Y-48667438D02*
X124706238Y-48715057D01*
X124706238Y-48715057D02*
X124753857Y-48810295D01*
X124753857Y-48810295D02*
X124801476Y-49000771D01*
X124801476Y-49000771D02*
X124801476Y-49238866D01*
X124801476Y-49238866D02*
X124753857Y-49429342D01*
X124753857Y-49429342D02*
X124706238Y-49524580D01*
X124706238Y-49524580D02*
X124658619Y-49572200D01*
X124658619Y-49572200D02*
X124563381Y-49619819D01*
X124563381Y-49619819D02*
X124468143Y-49619819D01*
X124468143Y-49619819D02*
X124372905Y-49572200D01*
X124372905Y-49572200D02*
X124325286Y-49524580D01*
X124325286Y-49524580D02*
X124277667Y-49429342D01*
X124277667Y-49429342D02*
X124230048Y-49238866D01*
X124230048Y-49238866D02*
X124230048Y-49000771D01*
X124230048Y-49000771D02*
X124277667Y-48810295D01*
X124277667Y-48810295D02*
X124325286Y-48715057D01*
X124325286Y-48715057D02*
X124372905Y-48667438D01*
X124372905Y-48667438D02*
X124468143Y-48619819D01*
X125230048Y-49524580D02*
X125277667Y-49572200D01*
X125277667Y-49572200D02*
X125230048Y-49619819D01*
X125230048Y-49619819D02*
X125182429Y-49572200D01*
X125182429Y-49572200D02*
X125230048Y-49524580D01*
X125230048Y-49524580D02*
X125230048Y-49619819D01*
X126230047Y-49619819D02*
X125658619Y-49619819D01*
X125944333Y-49619819D02*
X125944333Y-48619819D01*
X125944333Y-48619819D02*
X125849095Y-48762676D01*
X125849095Y-48762676D02*
X125753857Y-48857914D01*
X125753857Y-48857914D02*
X125658619Y-48905533D01*
X127087190Y-48953152D02*
X127087190Y-49619819D01*
X126658619Y-48953152D02*
X126658619Y-49476961D01*
X126658619Y-49476961D02*
X126706238Y-49572200D01*
X126706238Y-49572200D02*
X126801476Y-49619819D01*
X126801476Y-49619819D02*
X126944333Y-49619819D01*
X126944333Y-49619819D02*
X127039571Y-49572200D01*
X127039571Y-49572200D02*
X127087190Y-49524580D01*
X127896714Y-49096009D02*
X127563381Y-49096009D01*
X127563381Y-49619819D02*
X127563381Y-48619819D01*
X127563381Y-48619819D02*
X128039571Y-48619819D01*
X124595143Y-59764057D02*
X124642762Y-59716438D01*
X124642762Y-59716438D02*
X124738000Y-59668819D01*
X124738000Y-59668819D02*
X124976095Y-59668819D01*
X124976095Y-59668819D02*
X125071333Y-59716438D01*
X125071333Y-59716438D02*
X125118952Y-59764057D01*
X125118952Y-59764057D02*
X125166571Y-59859295D01*
X125166571Y-59859295D02*
X125166571Y-59954533D01*
X125166571Y-59954533D02*
X125118952Y-60097390D01*
X125118952Y-60097390D02*
X124547524Y-60668819D01*
X124547524Y-60668819D02*
X125166571Y-60668819D01*
X125547524Y-59764057D02*
X125595143Y-59716438D01*
X125595143Y-59716438D02*
X125690381Y-59668819D01*
X125690381Y-59668819D02*
X125928476Y-59668819D01*
X125928476Y-59668819D02*
X126023714Y-59716438D01*
X126023714Y-59716438D02*
X126071333Y-59764057D01*
X126071333Y-59764057D02*
X126118952Y-59859295D01*
X126118952Y-59859295D02*
X126118952Y-59954533D01*
X126118952Y-59954533D02*
X126071333Y-60097390D01*
X126071333Y-60097390D02*
X125499905Y-60668819D01*
X125499905Y-60668819D02*
X126118952Y-60668819D01*
X126976095Y-60002152D02*
X126976095Y-60668819D01*
X126547524Y-60002152D02*
X126547524Y-60525961D01*
X126547524Y-60525961D02*
X126595143Y-60621200D01*
X126595143Y-60621200D02*
X126690381Y-60668819D01*
X126690381Y-60668819D02*
X126833238Y-60668819D01*
X126833238Y-60668819D02*
X126928476Y-60621200D01*
X126928476Y-60621200D02*
X126976095Y-60573580D01*
X127785619Y-60145009D02*
X127452286Y-60145009D01*
X127452286Y-60668819D02*
X127452286Y-59668819D01*
X127452286Y-59668819D02*
X127928476Y-59668819D01*
X95978866Y-95773713D02*
X95978866Y-95011809D01*
X96359819Y-95392761D02*
X95597914Y-95392761D01*
X95359819Y-94630856D02*
X95359819Y-94011809D01*
X95359819Y-94011809D02*
X95740771Y-94345142D01*
X95740771Y-94345142D02*
X95740771Y-94202285D01*
X95740771Y-94202285D02*
X95788390Y-94107047D01*
X95788390Y-94107047D02*
X95836009Y-94059428D01*
X95836009Y-94059428D02*
X95931247Y-94011809D01*
X95931247Y-94011809D02*
X96169342Y-94011809D01*
X96169342Y-94011809D02*
X96264580Y-94059428D01*
X96264580Y-94059428D02*
X96312200Y-94107047D01*
X96312200Y-94107047D02*
X96359819Y-94202285D01*
X96359819Y-94202285D02*
X96359819Y-94487999D01*
X96359819Y-94487999D02*
X96312200Y-94583237D01*
X96312200Y-94583237D02*
X96264580Y-94630856D01*
X95359819Y-93726094D02*
X96359819Y-93392761D01*
X96359819Y-93392761D02*
X95359819Y-93059428D01*
X102963866Y-108981713D02*
X102963866Y-108219809D01*
X103344819Y-108600761D02*
X102582914Y-108600761D01*
X102344819Y-107267428D02*
X102344819Y-107743618D01*
X102344819Y-107743618D02*
X102821009Y-107791237D01*
X102821009Y-107791237D02*
X102773390Y-107743618D01*
X102773390Y-107743618D02*
X102725771Y-107648380D01*
X102725771Y-107648380D02*
X102725771Y-107410285D01*
X102725771Y-107410285D02*
X102773390Y-107315047D01*
X102773390Y-107315047D02*
X102821009Y-107267428D01*
X102821009Y-107267428D02*
X102916247Y-107219809D01*
X102916247Y-107219809D02*
X103154342Y-107219809D01*
X103154342Y-107219809D02*
X103249580Y-107267428D01*
X103249580Y-107267428D02*
X103297200Y-107315047D01*
X103297200Y-107315047D02*
X103344819Y-107410285D01*
X103344819Y-107410285D02*
X103344819Y-107648380D01*
X103344819Y-107648380D02*
X103297200Y-107743618D01*
X103297200Y-107743618D02*
X103249580Y-107791237D01*
X102344819Y-106934094D02*
X103344819Y-106600761D01*
X103344819Y-106600761D02*
X102344819Y-106267428D01*
X179633524Y-120273819D02*
X179633524Y-119273819D01*
X179633524Y-119750009D02*
X180204952Y-119750009D01*
X180204952Y-120273819D02*
X180204952Y-119273819D01*
X180585905Y-119273819D02*
X181252571Y-120273819D01*
X181252571Y-119273819D02*
X180585905Y-120273819D01*
X181538286Y-119273819D02*
X182204952Y-119273819D01*
X182204952Y-119273819D02*
X181776381Y-120273819D01*
X183109714Y-120273819D02*
X182538286Y-120273819D01*
X182824000Y-120273819D02*
X182824000Y-119273819D01*
X182824000Y-119273819D02*
X182728762Y-119416676D01*
X182728762Y-119416676D02*
X182633524Y-119511914D01*
X182633524Y-119511914D02*
X182538286Y-119559533D01*
X184062095Y-120273819D02*
X183490667Y-120273819D01*
X183776381Y-120273819D02*
X183776381Y-119273819D01*
X183776381Y-119273819D02*
X183681143Y-119416676D01*
X183681143Y-119416676D02*
X183585905Y-119511914D01*
X183585905Y-119511914D02*
X183490667Y-119559533D01*
X134729191Y-60956009D02*
X135062524Y-60956009D01*
X135205381Y-61479819D02*
X134729191Y-61479819D01*
X134729191Y-61479819D02*
X134729191Y-60479819D01*
X134729191Y-60479819D02*
X135205381Y-60479819D01*
X135586334Y-61432200D02*
X135729191Y-61479819D01*
X135729191Y-61479819D02*
X135967286Y-61479819D01*
X135967286Y-61479819D02*
X136062524Y-61432200D01*
X136062524Y-61432200D02*
X136110143Y-61384580D01*
X136110143Y-61384580D02*
X136157762Y-61289342D01*
X136157762Y-61289342D02*
X136157762Y-61194104D01*
X136157762Y-61194104D02*
X136110143Y-61098866D01*
X136110143Y-61098866D02*
X136062524Y-61051247D01*
X136062524Y-61051247D02*
X135967286Y-61003628D01*
X135967286Y-61003628D02*
X135776810Y-60956009D01*
X135776810Y-60956009D02*
X135681572Y-60908390D01*
X135681572Y-60908390D02*
X135633953Y-60860771D01*
X135633953Y-60860771D02*
X135586334Y-60765533D01*
X135586334Y-60765533D02*
X135586334Y-60670295D01*
X135586334Y-60670295D02*
X135633953Y-60575057D01*
X135633953Y-60575057D02*
X135681572Y-60527438D01*
X135681572Y-60527438D02*
X135776810Y-60479819D01*
X135776810Y-60479819D02*
X136014905Y-60479819D01*
X136014905Y-60479819D02*
X136157762Y-60527438D01*
X136586334Y-61479819D02*
X136586334Y-60479819D01*
X136586334Y-60479819D02*
X136967286Y-60479819D01*
X136967286Y-60479819D02*
X137062524Y-60527438D01*
X137062524Y-60527438D02*
X137110143Y-60575057D01*
X137110143Y-60575057D02*
X137157762Y-60670295D01*
X137157762Y-60670295D02*
X137157762Y-60813152D01*
X137157762Y-60813152D02*
X137110143Y-60908390D01*
X137110143Y-60908390D02*
X137062524Y-60956009D01*
X137062524Y-60956009D02*
X136967286Y-61003628D01*
X136967286Y-61003628D02*
X136586334Y-61003628D01*
X137491096Y-60479819D02*
X138110143Y-60479819D01*
X138110143Y-60479819D02*
X137776810Y-60860771D01*
X137776810Y-60860771D02*
X137919667Y-60860771D01*
X137919667Y-60860771D02*
X138014905Y-60908390D01*
X138014905Y-60908390D02*
X138062524Y-60956009D01*
X138062524Y-60956009D02*
X138110143Y-61051247D01*
X138110143Y-61051247D02*
X138110143Y-61289342D01*
X138110143Y-61289342D02*
X138062524Y-61384580D01*
X138062524Y-61384580D02*
X138014905Y-61432200D01*
X138014905Y-61432200D02*
X137919667Y-61479819D01*
X137919667Y-61479819D02*
X137633953Y-61479819D01*
X137633953Y-61479819D02*
X137538715Y-61432200D01*
X137538715Y-61432200D02*
X137491096Y-61384580D01*
X138491096Y-60575057D02*
X138538715Y-60527438D01*
X138538715Y-60527438D02*
X138633953Y-60479819D01*
X138633953Y-60479819D02*
X138872048Y-60479819D01*
X138872048Y-60479819D02*
X138967286Y-60527438D01*
X138967286Y-60527438D02*
X139014905Y-60575057D01*
X139014905Y-60575057D02*
X139062524Y-60670295D01*
X139062524Y-60670295D02*
X139062524Y-60765533D01*
X139062524Y-60765533D02*
X139014905Y-60908390D01*
X139014905Y-60908390D02*
X138443477Y-61479819D01*
X138443477Y-61479819D02*
X139062524Y-61479819D01*
X139491096Y-61098866D02*
X140253001Y-61098866D01*
X140633953Y-60479819D02*
X140872048Y-61479819D01*
X140872048Y-61479819D02*
X141062524Y-60765533D01*
X141062524Y-60765533D02*
X141253000Y-61479819D01*
X141253000Y-61479819D02*
X141491096Y-60479819D01*
X142443476Y-61479819D02*
X142110143Y-61003628D01*
X141872048Y-61479819D02*
X141872048Y-60479819D01*
X141872048Y-60479819D02*
X142253000Y-60479819D01*
X142253000Y-60479819D02*
X142348238Y-60527438D01*
X142348238Y-60527438D02*
X142395857Y-60575057D01*
X142395857Y-60575057D02*
X142443476Y-60670295D01*
X142443476Y-60670295D02*
X142443476Y-60813152D01*
X142443476Y-60813152D02*
X142395857Y-60908390D01*
X142395857Y-60908390D02*
X142348238Y-60956009D01*
X142348238Y-60956009D02*
X142253000Y-61003628D01*
X142253000Y-61003628D02*
X141872048Y-61003628D01*
X143062524Y-60479819D02*
X143253000Y-60479819D01*
X143253000Y-60479819D02*
X143348238Y-60527438D01*
X143348238Y-60527438D02*
X143443476Y-60622676D01*
X143443476Y-60622676D02*
X143491095Y-60813152D01*
X143491095Y-60813152D02*
X143491095Y-61146485D01*
X143491095Y-61146485D02*
X143443476Y-61336961D01*
X143443476Y-61336961D02*
X143348238Y-61432200D01*
X143348238Y-61432200D02*
X143253000Y-61479819D01*
X143253000Y-61479819D02*
X143062524Y-61479819D01*
X143062524Y-61479819D02*
X142967286Y-61432200D01*
X142967286Y-61432200D02*
X142872048Y-61336961D01*
X142872048Y-61336961D02*
X142824429Y-61146485D01*
X142824429Y-61146485D02*
X142824429Y-60813152D01*
X142824429Y-60813152D02*
X142872048Y-60622676D01*
X142872048Y-60622676D02*
X142967286Y-60527438D01*
X142967286Y-60527438D02*
X143062524Y-60479819D01*
X144110143Y-60479819D02*
X144300619Y-60479819D01*
X144300619Y-60479819D02*
X144395857Y-60527438D01*
X144395857Y-60527438D02*
X144491095Y-60622676D01*
X144491095Y-60622676D02*
X144538714Y-60813152D01*
X144538714Y-60813152D02*
X144538714Y-61146485D01*
X144538714Y-61146485D02*
X144491095Y-61336961D01*
X144491095Y-61336961D02*
X144395857Y-61432200D01*
X144395857Y-61432200D02*
X144300619Y-61479819D01*
X144300619Y-61479819D02*
X144110143Y-61479819D01*
X144110143Y-61479819D02*
X144014905Y-61432200D01*
X144014905Y-61432200D02*
X143919667Y-61336961D01*
X143919667Y-61336961D02*
X143872048Y-61146485D01*
X143872048Y-61146485D02*
X143872048Y-60813152D01*
X143872048Y-60813152D02*
X143919667Y-60622676D01*
X143919667Y-60622676D02*
X144014905Y-60527438D01*
X144014905Y-60527438D02*
X144110143Y-60479819D01*
X144967286Y-61479819D02*
X144967286Y-60479819D01*
X144967286Y-60479819D02*
X145300619Y-61194104D01*
X145300619Y-61194104D02*
X145633952Y-60479819D01*
X145633952Y-60479819D02*
X145633952Y-61479819D01*
X146110143Y-61098866D02*
X146872048Y-61098866D01*
X147253000Y-60479819D02*
X147872047Y-60479819D01*
X147872047Y-60479819D02*
X147538714Y-60860771D01*
X147538714Y-60860771D02*
X147681571Y-60860771D01*
X147681571Y-60860771D02*
X147776809Y-60908390D01*
X147776809Y-60908390D02*
X147824428Y-60956009D01*
X147824428Y-60956009D02*
X147872047Y-61051247D01*
X147872047Y-61051247D02*
X147872047Y-61289342D01*
X147872047Y-61289342D02*
X147824428Y-61384580D01*
X147824428Y-61384580D02*
X147776809Y-61432200D01*
X147776809Y-61432200D02*
X147681571Y-61479819D01*
X147681571Y-61479819D02*
X147395857Y-61479819D01*
X147395857Y-61479819D02*
X147300619Y-61432200D01*
X147300619Y-61432200D02*
X147253000Y-61384580D01*
X148253000Y-60575057D02*
X148300619Y-60527438D01*
X148300619Y-60527438D02*
X148395857Y-60479819D01*
X148395857Y-60479819D02*
X148633952Y-60479819D01*
X148633952Y-60479819D02*
X148729190Y-60527438D01*
X148729190Y-60527438D02*
X148776809Y-60575057D01*
X148776809Y-60575057D02*
X148824428Y-60670295D01*
X148824428Y-60670295D02*
X148824428Y-60765533D01*
X148824428Y-60765533D02*
X148776809Y-60908390D01*
X148776809Y-60908390D02*
X148205381Y-61479819D01*
X148205381Y-61479819D02*
X148824428Y-61479819D01*
X149253000Y-61479819D02*
X149253000Y-60479819D01*
X149253000Y-60479819D02*
X149491095Y-60479819D01*
X149491095Y-60479819D02*
X149633952Y-60527438D01*
X149633952Y-60527438D02*
X149729190Y-60622676D01*
X149729190Y-60622676D02*
X149776809Y-60717914D01*
X149776809Y-60717914D02*
X149824428Y-60908390D01*
X149824428Y-60908390D02*
X149824428Y-61051247D01*
X149824428Y-61051247D02*
X149776809Y-61241723D01*
X149776809Y-61241723D02*
X149729190Y-61336961D01*
X149729190Y-61336961D02*
X149633952Y-61432200D01*
X149633952Y-61432200D02*
X149491095Y-61479819D01*
X149491095Y-61479819D02*
X149253000Y-61479819D01*
X161013467Y-121143889D02*
X161127753Y-121181984D01*
X161127753Y-121181984D02*
X161165848Y-121220080D01*
X161165848Y-121220080D02*
X161203944Y-121296270D01*
X161203944Y-121296270D02*
X161203944Y-121410556D01*
X161203944Y-121410556D02*
X161165848Y-121486746D01*
X161165848Y-121486746D02*
X161127753Y-121524842D01*
X161127753Y-121524842D02*
X161051563Y-121562937D01*
X161051563Y-121562937D02*
X160746801Y-121562937D01*
X160746801Y-121562937D02*
X160746801Y-120762937D01*
X160746801Y-120762937D02*
X161013467Y-120762937D01*
X161013467Y-120762937D02*
X161089658Y-120801032D01*
X161089658Y-120801032D02*
X161127753Y-120839127D01*
X161127753Y-120839127D02*
X161165848Y-120915318D01*
X161165848Y-120915318D02*
X161165848Y-120991508D01*
X161165848Y-120991508D02*
X161127753Y-121067699D01*
X161127753Y-121067699D02*
X161089658Y-121105794D01*
X161089658Y-121105794D02*
X161013467Y-121143889D01*
X161013467Y-121143889D02*
X160746801Y-121143889D01*
X161699182Y-120762937D02*
X161851563Y-120762937D01*
X161851563Y-120762937D02*
X161927753Y-120801032D01*
X161927753Y-120801032D02*
X162003944Y-120877222D01*
X162003944Y-120877222D02*
X162042039Y-121029603D01*
X162042039Y-121029603D02*
X162042039Y-121296270D01*
X162042039Y-121296270D02*
X162003944Y-121448651D01*
X162003944Y-121448651D02*
X161927753Y-121524842D01*
X161927753Y-121524842D02*
X161851563Y-121562937D01*
X161851563Y-121562937D02*
X161699182Y-121562937D01*
X161699182Y-121562937D02*
X161622991Y-121524842D01*
X161622991Y-121524842D02*
X161546801Y-121448651D01*
X161546801Y-121448651D02*
X161508705Y-121296270D01*
X161508705Y-121296270D02*
X161508705Y-121029603D01*
X161508705Y-121029603D02*
X161546801Y-120877222D01*
X161546801Y-120877222D02*
X161622991Y-120801032D01*
X161622991Y-120801032D02*
X161699182Y-120762937D01*
X162537277Y-120762937D02*
X162689658Y-120762937D01*
X162689658Y-120762937D02*
X162765848Y-120801032D01*
X162765848Y-120801032D02*
X162842039Y-120877222D01*
X162842039Y-120877222D02*
X162880134Y-121029603D01*
X162880134Y-121029603D02*
X162880134Y-121296270D01*
X162880134Y-121296270D02*
X162842039Y-121448651D01*
X162842039Y-121448651D02*
X162765848Y-121524842D01*
X162765848Y-121524842D02*
X162689658Y-121562937D01*
X162689658Y-121562937D02*
X162537277Y-121562937D01*
X162537277Y-121562937D02*
X162461086Y-121524842D01*
X162461086Y-121524842D02*
X162384896Y-121448651D01*
X162384896Y-121448651D02*
X162346800Y-121296270D01*
X162346800Y-121296270D02*
X162346800Y-121029603D01*
X162346800Y-121029603D02*
X162384896Y-120877222D01*
X162384896Y-120877222D02*
X162461086Y-120801032D01*
X162461086Y-120801032D02*
X162537277Y-120762937D01*
X163108705Y-120762937D02*
X163565848Y-120762937D01*
X163337276Y-121562937D02*
X163337276Y-120762937D01*
X127282277Y-121054937D02*
X127015610Y-120673984D01*
X126825134Y-121054937D02*
X126825134Y-120254937D01*
X126825134Y-120254937D02*
X127129896Y-120254937D01*
X127129896Y-120254937D02*
X127206086Y-120293032D01*
X127206086Y-120293032D02*
X127244181Y-120331127D01*
X127244181Y-120331127D02*
X127282277Y-120407318D01*
X127282277Y-120407318D02*
X127282277Y-120521603D01*
X127282277Y-120521603D02*
X127244181Y-120597794D01*
X127244181Y-120597794D02*
X127206086Y-120635889D01*
X127206086Y-120635889D02*
X127129896Y-120673984D01*
X127129896Y-120673984D02*
X126825134Y-120673984D01*
X127625134Y-120635889D02*
X127891800Y-120635889D01*
X128006086Y-121054937D02*
X127625134Y-121054937D01*
X127625134Y-121054937D02*
X127625134Y-120254937D01*
X127625134Y-120254937D02*
X128006086Y-120254937D01*
X128310848Y-121016842D02*
X128425134Y-121054937D01*
X128425134Y-121054937D02*
X128615610Y-121054937D01*
X128615610Y-121054937D02*
X128691801Y-121016842D01*
X128691801Y-121016842D02*
X128729896Y-120978746D01*
X128729896Y-120978746D02*
X128767991Y-120902556D01*
X128767991Y-120902556D02*
X128767991Y-120826365D01*
X128767991Y-120826365D02*
X128729896Y-120750175D01*
X128729896Y-120750175D02*
X128691801Y-120712080D01*
X128691801Y-120712080D02*
X128615610Y-120673984D01*
X128615610Y-120673984D02*
X128463229Y-120635889D01*
X128463229Y-120635889D02*
X128387039Y-120597794D01*
X128387039Y-120597794D02*
X128348944Y-120559699D01*
X128348944Y-120559699D02*
X128310848Y-120483508D01*
X128310848Y-120483508D02*
X128310848Y-120407318D01*
X128310848Y-120407318D02*
X128348944Y-120331127D01*
X128348944Y-120331127D02*
X128387039Y-120293032D01*
X128387039Y-120293032D02*
X128463229Y-120254937D01*
X128463229Y-120254937D02*
X128653706Y-120254937D01*
X128653706Y-120254937D02*
X128767991Y-120293032D01*
X129110849Y-120635889D02*
X129377515Y-120635889D01*
X129491801Y-121054937D02*
X129110849Y-121054937D01*
X129110849Y-121054937D02*
X129110849Y-120254937D01*
X129110849Y-120254937D02*
X129491801Y-120254937D01*
X129720373Y-120254937D02*
X130177516Y-120254937D01*
X129948944Y-121054937D02*
X129948944Y-120254937D01*
X172952580Y-71119572D02*
X173000200Y-71167191D01*
X173000200Y-71167191D02*
X173047819Y-71310048D01*
X173047819Y-71310048D02*
X173047819Y-71405286D01*
X173047819Y-71405286D02*
X173000200Y-71548143D01*
X173000200Y-71548143D02*
X172904961Y-71643381D01*
X172904961Y-71643381D02*
X172809723Y-71691000D01*
X172809723Y-71691000D02*
X172619247Y-71738619D01*
X172619247Y-71738619D02*
X172476390Y-71738619D01*
X172476390Y-71738619D02*
X172285914Y-71691000D01*
X172285914Y-71691000D02*
X172190676Y-71643381D01*
X172190676Y-71643381D02*
X172095438Y-71548143D01*
X172095438Y-71548143D02*
X172047819Y-71405286D01*
X172047819Y-71405286D02*
X172047819Y-71310048D01*
X172047819Y-71310048D02*
X172095438Y-71167191D01*
X172095438Y-71167191D02*
X172143057Y-71119572D01*
X173047819Y-70262429D02*
X172524009Y-70262429D01*
X172524009Y-70262429D02*
X172428771Y-70310048D01*
X172428771Y-70310048D02*
X172381152Y-70405286D01*
X172381152Y-70405286D02*
X172381152Y-70595762D01*
X172381152Y-70595762D02*
X172428771Y-70691000D01*
X173000200Y-70262429D02*
X173047819Y-70357667D01*
X173047819Y-70357667D02*
X173047819Y-70595762D01*
X173047819Y-70595762D02*
X173000200Y-70691000D01*
X173000200Y-70691000D02*
X172904961Y-70738619D01*
X172904961Y-70738619D02*
X172809723Y-70738619D01*
X172809723Y-70738619D02*
X172714485Y-70691000D01*
X172714485Y-70691000D02*
X172666866Y-70595762D01*
X172666866Y-70595762D02*
X172666866Y-70357667D01*
X172666866Y-70357667D02*
X172619247Y-70262429D01*
X172381152Y-69881476D02*
X173047819Y-69643381D01*
X173047819Y-69643381D02*
X172381152Y-69405286D01*
X173000200Y-69071952D02*
X173047819Y-68929095D01*
X173047819Y-68929095D02*
X173047819Y-68691000D01*
X173047819Y-68691000D02*
X173000200Y-68595762D01*
X173000200Y-68595762D02*
X172952580Y-68548143D01*
X172952580Y-68548143D02*
X172857342Y-68500524D01*
X172857342Y-68500524D02*
X172762104Y-68500524D01*
X172762104Y-68500524D02*
X172666866Y-68548143D01*
X172666866Y-68548143D02*
X172619247Y-68595762D01*
X172619247Y-68595762D02*
X172571628Y-68691000D01*
X172571628Y-68691000D02*
X172524009Y-68881476D01*
X172524009Y-68881476D02*
X172476390Y-68976714D01*
X172476390Y-68976714D02*
X172428771Y-69024333D01*
X172428771Y-69024333D02*
X172333533Y-69071952D01*
X172333533Y-69071952D02*
X172238295Y-69071952D01*
X172238295Y-69071952D02*
X172143057Y-69024333D01*
X172143057Y-69024333D02*
X172095438Y-68976714D01*
X172095438Y-68976714D02*
X172047819Y-68881476D01*
X172047819Y-68881476D02*
X172047819Y-68643381D01*
X172047819Y-68643381D02*
X172095438Y-68500524D01*
X173000200Y-67691000D02*
X173047819Y-67786238D01*
X173047819Y-67786238D02*
X173047819Y-67976714D01*
X173047819Y-67976714D02*
X173000200Y-68071952D01*
X173000200Y-68071952D02*
X172904961Y-68119571D01*
X172904961Y-68119571D02*
X172524009Y-68119571D01*
X172524009Y-68119571D02*
X172428771Y-68071952D01*
X172428771Y-68071952D02*
X172381152Y-67976714D01*
X172381152Y-67976714D02*
X172381152Y-67786238D01*
X172381152Y-67786238D02*
X172428771Y-67691000D01*
X172428771Y-67691000D02*
X172524009Y-67643381D01*
X172524009Y-67643381D02*
X172619247Y-67643381D01*
X172619247Y-67643381D02*
X172714485Y-68119571D01*
X173047819Y-67214809D02*
X172381152Y-67214809D01*
X172571628Y-67214809D02*
X172476390Y-67167190D01*
X172476390Y-67167190D02*
X172428771Y-67119571D01*
X172428771Y-67119571D02*
X172381152Y-67024333D01*
X172381152Y-67024333D02*
X172381152Y-66929095D01*
X172381152Y-66690999D02*
X173047819Y-66452904D01*
X173047819Y-66452904D02*
X172381152Y-66214809D01*
X173047819Y-65690999D02*
X173000200Y-65786237D01*
X173000200Y-65786237D02*
X172952580Y-65833856D01*
X172952580Y-65833856D02*
X172857342Y-65881475D01*
X172857342Y-65881475D02*
X172571628Y-65881475D01*
X172571628Y-65881475D02*
X172476390Y-65833856D01*
X172476390Y-65833856D02*
X172428771Y-65786237D01*
X172428771Y-65786237D02*
X172381152Y-65690999D01*
X172381152Y-65690999D02*
X172381152Y-65548142D01*
X172381152Y-65548142D02*
X172428771Y-65452904D01*
X172428771Y-65452904D02*
X172476390Y-65405285D01*
X172476390Y-65405285D02*
X172571628Y-65357666D01*
X172571628Y-65357666D02*
X172857342Y-65357666D01*
X172857342Y-65357666D02*
X172952580Y-65405285D01*
X172952580Y-65405285D02*
X173000200Y-65452904D01*
X173000200Y-65452904D02*
X173047819Y-65548142D01*
X173047819Y-65548142D02*
X173047819Y-65690999D01*
X172047819Y-64262427D02*
X172047819Y-63643380D01*
X172047819Y-63643380D02*
X172428771Y-63976713D01*
X172428771Y-63976713D02*
X172428771Y-63833856D01*
X172428771Y-63833856D02*
X172476390Y-63738618D01*
X172476390Y-63738618D02*
X172524009Y-63690999D01*
X172524009Y-63690999D02*
X172619247Y-63643380D01*
X172619247Y-63643380D02*
X172857342Y-63643380D01*
X172857342Y-63643380D02*
X172952580Y-63690999D01*
X172952580Y-63690999D02*
X173000200Y-63738618D01*
X173000200Y-63738618D02*
X173047819Y-63833856D01*
X173047819Y-63833856D02*
X173047819Y-64119570D01*
X173047819Y-64119570D02*
X173000200Y-64214808D01*
X173000200Y-64214808D02*
X172952580Y-64262427D01*
X172952580Y-60070572D02*
X173000200Y-60118191D01*
X173000200Y-60118191D02*
X173047819Y-60261048D01*
X173047819Y-60261048D02*
X173047819Y-60356286D01*
X173047819Y-60356286D02*
X173000200Y-60499143D01*
X173000200Y-60499143D02*
X172904961Y-60594381D01*
X172904961Y-60594381D02*
X172809723Y-60642000D01*
X172809723Y-60642000D02*
X172619247Y-60689619D01*
X172619247Y-60689619D02*
X172476390Y-60689619D01*
X172476390Y-60689619D02*
X172285914Y-60642000D01*
X172285914Y-60642000D02*
X172190676Y-60594381D01*
X172190676Y-60594381D02*
X172095438Y-60499143D01*
X172095438Y-60499143D02*
X172047819Y-60356286D01*
X172047819Y-60356286D02*
X172047819Y-60261048D01*
X172047819Y-60261048D02*
X172095438Y-60118191D01*
X172095438Y-60118191D02*
X172143057Y-60070572D01*
X173047819Y-59213429D02*
X172524009Y-59213429D01*
X172524009Y-59213429D02*
X172428771Y-59261048D01*
X172428771Y-59261048D02*
X172381152Y-59356286D01*
X172381152Y-59356286D02*
X172381152Y-59546762D01*
X172381152Y-59546762D02*
X172428771Y-59642000D01*
X173000200Y-59213429D02*
X173047819Y-59308667D01*
X173047819Y-59308667D02*
X173047819Y-59546762D01*
X173047819Y-59546762D02*
X173000200Y-59642000D01*
X173000200Y-59642000D02*
X172904961Y-59689619D01*
X172904961Y-59689619D02*
X172809723Y-59689619D01*
X172809723Y-59689619D02*
X172714485Y-59642000D01*
X172714485Y-59642000D02*
X172666866Y-59546762D01*
X172666866Y-59546762D02*
X172666866Y-59308667D01*
X172666866Y-59308667D02*
X172619247Y-59213429D01*
X172381152Y-58832476D02*
X173047819Y-58594381D01*
X173047819Y-58594381D02*
X172381152Y-58356286D01*
X173000200Y-58022952D02*
X173047819Y-57880095D01*
X173047819Y-57880095D02*
X173047819Y-57642000D01*
X173047819Y-57642000D02*
X173000200Y-57546762D01*
X173000200Y-57546762D02*
X172952580Y-57499143D01*
X172952580Y-57499143D02*
X172857342Y-57451524D01*
X172857342Y-57451524D02*
X172762104Y-57451524D01*
X172762104Y-57451524D02*
X172666866Y-57499143D01*
X172666866Y-57499143D02*
X172619247Y-57546762D01*
X172619247Y-57546762D02*
X172571628Y-57642000D01*
X172571628Y-57642000D02*
X172524009Y-57832476D01*
X172524009Y-57832476D02*
X172476390Y-57927714D01*
X172476390Y-57927714D02*
X172428771Y-57975333D01*
X172428771Y-57975333D02*
X172333533Y-58022952D01*
X172333533Y-58022952D02*
X172238295Y-58022952D01*
X172238295Y-58022952D02*
X172143057Y-57975333D01*
X172143057Y-57975333D02*
X172095438Y-57927714D01*
X172095438Y-57927714D02*
X172047819Y-57832476D01*
X172047819Y-57832476D02*
X172047819Y-57594381D01*
X172047819Y-57594381D02*
X172095438Y-57451524D01*
X173000200Y-56642000D02*
X173047819Y-56737238D01*
X173047819Y-56737238D02*
X173047819Y-56927714D01*
X173047819Y-56927714D02*
X173000200Y-57022952D01*
X173000200Y-57022952D02*
X172904961Y-57070571D01*
X172904961Y-57070571D02*
X172524009Y-57070571D01*
X172524009Y-57070571D02*
X172428771Y-57022952D01*
X172428771Y-57022952D02*
X172381152Y-56927714D01*
X172381152Y-56927714D02*
X172381152Y-56737238D01*
X172381152Y-56737238D02*
X172428771Y-56642000D01*
X172428771Y-56642000D02*
X172524009Y-56594381D01*
X172524009Y-56594381D02*
X172619247Y-56594381D01*
X172619247Y-56594381D02*
X172714485Y-57070571D01*
X173047819Y-56165809D02*
X172381152Y-56165809D01*
X172571628Y-56165809D02*
X172476390Y-56118190D01*
X172476390Y-56118190D02*
X172428771Y-56070571D01*
X172428771Y-56070571D02*
X172381152Y-55975333D01*
X172381152Y-55975333D02*
X172381152Y-55880095D01*
X172381152Y-55641999D02*
X173047819Y-55403904D01*
X173047819Y-55403904D02*
X172381152Y-55165809D01*
X173047819Y-54641999D02*
X173000200Y-54737237D01*
X173000200Y-54737237D02*
X172952580Y-54784856D01*
X172952580Y-54784856D02*
X172857342Y-54832475D01*
X172857342Y-54832475D02*
X172571628Y-54832475D01*
X172571628Y-54832475D02*
X172476390Y-54784856D01*
X172476390Y-54784856D02*
X172428771Y-54737237D01*
X172428771Y-54737237D02*
X172381152Y-54641999D01*
X172381152Y-54641999D02*
X172381152Y-54499142D01*
X172381152Y-54499142D02*
X172428771Y-54403904D01*
X172428771Y-54403904D02*
X172476390Y-54356285D01*
X172476390Y-54356285D02*
X172571628Y-54308666D01*
X172571628Y-54308666D02*
X172857342Y-54308666D01*
X172857342Y-54308666D02*
X172952580Y-54356285D01*
X172952580Y-54356285D02*
X173000200Y-54403904D01*
X173000200Y-54403904D02*
X173047819Y-54499142D01*
X173047819Y-54499142D02*
X173047819Y-54641999D01*
X172143057Y-53165808D02*
X172095438Y-53118189D01*
X172095438Y-53118189D02*
X172047819Y-53022951D01*
X172047819Y-53022951D02*
X172047819Y-52784856D01*
X172047819Y-52784856D02*
X172095438Y-52689618D01*
X172095438Y-52689618D02*
X172143057Y-52641999D01*
X172143057Y-52641999D02*
X172238295Y-52594380D01*
X172238295Y-52594380D02*
X172333533Y-52594380D01*
X172333533Y-52594380D02*
X172476390Y-52641999D01*
X172476390Y-52641999D02*
X173047819Y-53213427D01*
X173047819Y-53213427D02*
X173047819Y-52594380D01*
X172698580Y-49402572D02*
X172746200Y-49450191D01*
X172746200Y-49450191D02*
X172793819Y-49593048D01*
X172793819Y-49593048D02*
X172793819Y-49688286D01*
X172793819Y-49688286D02*
X172746200Y-49831143D01*
X172746200Y-49831143D02*
X172650961Y-49926381D01*
X172650961Y-49926381D02*
X172555723Y-49974000D01*
X172555723Y-49974000D02*
X172365247Y-50021619D01*
X172365247Y-50021619D02*
X172222390Y-50021619D01*
X172222390Y-50021619D02*
X172031914Y-49974000D01*
X172031914Y-49974000D02*
X171936676Y-49926381D01*
X171936676Y-49926381D02*
X171841438Y-49831143D01*
X171841438Y-49831143D02*
X171793819Y-49688286D01*
X171793819Y-49688286D02*
X171793819Y-49593048D01*
X171793819Y-49593048D02*
X171841438Y-49450191D01*
X171841438Y-49450191D02*
X171889057Y-49402572D01*
X172793819Y-48545429D02*
X172270009Y-48545429D01*
X172270009Y-48545429D02*
X172174771Y-48593048D01*
X172174771Y-48593048D02*
X172127152Y-48688286D01*
X172127152Y-48688286D02*
X172127152Y-48878762D01*
X172127152Y-48878762D02*
X172174771Y-48974000D01*
X172746200Y-48545429D02*
X172793819Y-48640667D01*
X172793819Y-48640667D02*
X172793819Y-48878762D01*
X172793819Y-48878762D02*
X172746200Y-48974000D01*
X172746200Y-48974000D02*
X172650961Y-49021619D01*
X172650961Y-49021619D02*
X172555723Y-49021619D01*
X172555723Y-49021619D02*
X172460485Y-48974000D01*
X172460485Y-48974000D02*
X172412866Y-48878762D01*
X172412866Y-48878762D02*
X172412866Y-48640667D01*
X172412866Y-48640667D02*
X172365247Y-48545429D01*
X172127152Y-48164476D02*
X172793819Y-47926381D01*
X172793819Y-47926381D02*
X172127152Y-47688286D01*
X172746200Y-47354952D02*
X172793819Y-47212095D01*
X172793819Y-47212095D02*
X172793819Y-46974000D01*
X172793819Y-46974000D02*
X172746200Y-46878762D01*
X172746200Y-46878762D02*
X172698580Y-46831143D01*
X172698580Y-46831143D02*
X172603342Y-46783524D01*
X172603342Y-46783524D02*
X172508104Y-46783524D01*
X172508104Y-46783524D02*
X172412866Y-46831143D01*
X172412866Y-46831143D02*
X172365247Y-46878762D01*
X172365247Y-46878762D02*
X172317628Y-46974000D01*
X172317628Y-46974000D02*
X172270009Y-47164476D01*
X172270009Y-47164476D02*
X172222390Y-47259714D01*
X172222390Y-47259714D02*
X172174771Y-47307333D01*
X172174771Y-47307333D02*
X172079533Y-47354952D01*
X172079533Y-47354952D02*
X171984295Y-47354952D01*
X171984295Y-47354952D02*
X171889057Y-47307333D01*
X171889057Y-47307333D02*
X171841438Y-47259714D01*
X171841438Y-47259714D02*
X171793819Y-47164476D01*
X171793819Y-47164476D02*
X171793819Y-46926381D01*
X171793819Y-46926381D02*
X171841438Y-46783524D01*
X172746200Y-45974000D02*
X172793819Y-46069238D01*
X172793819Y-46069238D02*
X172793819Y-46259714D01*
X172793819Y-46259714D02*
X172746200Y-46354952D01*
X172746200Y-46354952D02*
X172650961Y-46402571D01*
X172650961Y-46402571D02*
X172270009Y-46402571D01*
X172270009Y-46402571D02*
X172174771Y-46354952D01*
X172174771Y-46354952D02*
X172127152Y-46259714D01*
X172127152Y-46259714D02*
X172127152Y-46069238D01*
X172127152Y-46069238D02*
X172174771Y-45974000D01*
X172174771Y-45974000D02*
X172270009Y-45926381D01*
X172270009Y-45926381D02*
X172365247Y-45926381D01*
X172365247Y-45926381D02*
X172460485Y-46402571D01*
X172793819Y-45497809D02*
X172127152Y-45497809D01*
X172317628Y-45497809D02*
X172222390Y-45450190D01*
X172222390Y-45450190D02*
X172174771Y-45402571D01*
X172174771Y-45402571D02*
X172127152Y-45307333D01*
X172127152Y-45307333D02*
X172127152Y-45212095D01*
X172127152Y-44973999D02*
X172793819Y-44735904D01*
X172793819Y-44735904D02*
X172127152Y-44497809D01*
X172793819Y-43973999D02*
X172746200Y-44069237D01*
X172746200Y-44069237D02*
X172698580Y-44116856D01*
X172698580Y-44116856D02*
X172603342Y-44164475D01*
X172603342Y-44164475D02*
X172317628Y-44164475D01*
X172317628Y-44164475D02*
X172222390Y-44116856D01*
X172222390Y-44116856D02*
X172174771Y-44069237D01*
X172174771Y-44069237D02*
X172127152Y-43973999D01*
X172127152Y-43973999D02*
X172127152Y-43831142D01*
X172127152Y-43831142D02*
X172174771Y-43735904D01*
X172174771Y-43735904D02*
X172222390Y-43688285D01*
X172222390Y-43688285D02*
X172317628Y-43640666D01*
X172317628Y-43640666D02*
X172603342Y-43640666D01*
X172603342Y-43640666D02*
X172698580Y-43688285D01*
X172698580Y-43688285D02*
X172746200Y-43735904D01*
X172746200Y-43735904D02*
X172793819Y-43831142D01*
X172793819Y-43831142D02*
X172793819Y-43973999D01*
X172793819Y-41926380D02*
X172793819Y-42497808D01*
X172793819Y-42212094D02*
X171793819Y-42212094D01*
X171793819Y-42212094D02*
X171936676Y-42307332D01*
X171936676Y-42307332D02*
X172031914Y-42402570D01*
X172031914Y-42402570D02*
X172079533Y-42497808D01*
X143827761Y-131693580D02*
X143780142Y-131741200D01*
X143780142Y-131741200D02*
X143637285Y-131788819D01*
X143637285Y-131788819D02*
X143542047Y-131788819D01*
X143542047Y-131788819D02*
X143399190Y-131741200D01*
X143399190Y-131741200D02*
X143303952Y-131645961D01*
X143303952Y-131645961D02*
X143256333Y-131550723D01*
X143256333Y-131550723D02*
X143208714Y-131360247D01*
X143208714Y-131360247D02*
X143208714Y-131217390D01*
X143208714Y-131217390D02*
X143256333Y-131026914D01*
X143256333Y-131026914D02*
X143303952Y-130931676D01*
X143303952Y-130931676D02*
X143399190Y-130836438D01*
X143399190Y-130836438D02*
X143542047Y-130788819D01*
X143542047Y-130788819D02*
X143637285Y-130788819D01*
X143637285Y-130788819D02*
X143780142Y-130836438D01*
X143780142Y-130836438D02*
X143827761Y-130884057D01*
X144256333Y-131788819D02*
X144256333Y-130788819D01*
X144256333Y-130788819D02*
X144637285Y-130788819D01*
X144637285Y-130788819D02*
X144732523Y-130836438D01*
X144732523Y-130836438D02*
X144780142Y-130884057D01*
X144780142Y-130884057D02*
X144827761Y-130979295D01*
X144827761Y-130979295D02*
X144827761Y-131122152D01*
X144827761Y-131122152D02*
X144780142Y-131217390D01*
X144780142Y-131217390D02*
X144732523Y-131265009D01*
X144732523Y-131265009D02*
X144637285Y-131312628D01*
X144637285Y-131312628D02*
X144256333Y-131312628D01*
X145208714Y-130884057D02*
X145256333Y-130836438D01*
X145256333Y-130836438D02*
X145351571Y-130788819D01*
X145351571Y-130788819D02*
X145589666Y-130788819D01*
X145589666Y-130788819D02*
X145684904Y-130836438D01*
X145684904Y-130836438D02*
X145732523Y-130884057D01*
X145732523Y-130884057D02*
X145780142Y-130979295D01*
X145780142Y-130979295D02*
X145780142Y-131074533D01*
X145780142Y-131074533D02*
X145732523Y-131217390D01*
X145732523Y-131217390D02*
X145161095Y-131788819D01*
X145161095Y-131788819D02*
X145780142Y-131788819D01*
X146732523Y-131788819D02*
X146161095Y-131788819D01*
X146446809Y-131788819D02*
X146446809Y-130788819D01*
X146446809Y-130788819D02*
X146351571Y-130931676D01*
X146351571Y-130931676D02*
X146256333Y-131026914D01*
X146256333Y-131026914D02*
X146161095Y-131074533D01*
X147351571Y-130788819D02*
X147446809Y-130788819D01*
X147446809Y-130788819D02*
X147542047Y-130836438D01*
X147542047Y-130836438D02*
X147589666Y-130884057D01*
X147589666Y-130884057D02*
X147637285Y-130979295D01*
X147637285Y-130979295D02*
X147684904Y-131169771D01*
X147684904Y-131169771D02*
X147684904Y-131407866D01*
X147684904Y-131407866D02*
X147637285Y-131598342D01*
X147637285Y-131598342D02*
X147589666Y-131693580D01*
X147589666Y-131693580D02*
X147542047Y-131741200D01*
X147542047Y-131741200D02*
X147446809Y-131788819D01*
X147446809Y-131788819D02*
X147351571Y-131788819D01*
X147351571Y-131788819D02*
X147256333Y-131741200D01*
X147256333Y-131741200D02*
X147208714Y-131693580D01*
X147208714Y-131693580D02*
X147161095Y-131598342D01*
X147161095Y-131598342D02*
X147113476Y-131407866D01*
X147113476Y-131407866D02*
X147113476Y-131169771D01*
X147113476Y-131169771D02*
X147161095Y-130979295D01*
X147161095Y-130979295D02*
X147208714Y-130884057D01*
X147208714Y-130884057D02*
X147256333Y-130836438D01*
X147256333Y-130836438D02*
X147351571Y-130788819D01*
X148065857Y-130884057D02*
X148113476Y-130836438D01*
X148113476Y-130836438D02*
X148208714Y-130788819D01*
X148208714Y-130788819D02*
X148446809Y-130788819D01*
X148446809Y-130788819D02*
X148542047Y-130836438D01*
X148542047Y-130836438D02*
X148589666Y-130884057D01*
X148589666Y-130884057D02*
X148637285Y-130979295D01*
X148637285Y-130979295D02*
X148637285Y-131074533D01*
X148637285Y-131074533D02*
X148589666Y-131217390D01*
X148589666Y-131217390D02*
X148018238Y-131788819D01*
X148018238Y-131788819D02*
X148637285Y-131788819D01*
X188684819Y-61046953D02*
X188684819Y-61523143D01*
X188684819Y-61523143D02*
X187684819Y-61523143D01*
X188684819Y-60570762D02*
X188637200Y-60666000D01*
X188637200Y-60666000D02*
X188589580Y-60713619D01*
X188589580Y-60713619D02*
X188494342Y-60761238D01*
X188494342Y-60761238D02*
X188208628Y-60761238D01*
X188208628Y-60761238D02*
X188113390Y-60713619D01*
X188113390Y-60713619D02*
X188065771Y-60666000D01*
X188065771Y-60666000D02*
X188018152Y-60570762D01*
X188018152Y-60570762D02*
X188018152Y-60427905D01*
X188018152Y-60427905D02*
X188065771Y-60332667D01*
X188065771Y-60332667D02*
X188113390Y-60285048D01*
X188113390Y-60285048D02*
X188208628Y-60237429D01*
X188208628Y-60237429D02*
X188494342Y-60237429D01*
X188494342Y-60237429D02*
X188589580Y-60285048D01*
X188589580Y-60285048D02*
X188637200Y-60332667D01*
X188637200Y-60332667D02*
X188684819Y-60427905D01*
X188684819Y-60427905D02*
X188684819Y-60570762D01*
X188684819Y-59380286D02*
X188161009Y-59380286D01*
X188161009Y-59380286D02*
X188065771Y-59427905D01*
X188065771Y-59427905D02*
X188018152Y-59523143D01*
X188018152Y-59523143D02*
X188018152Y-59713619D01*
X188018152Y-59713619D02*
X188065771Y-59808857D01*
X188637200Y-59380286D02*
X188684819Y-59475524D01*
X188684819Y-59475524D02*
X188684819Y-59713619D01*
X188684819Y-59713619D02*
X188637200Y-59808857D01*
X188637200Y-59808857D02*
X188541961Y-59856476D01*
X188541961Y-59856476D02*
X188446723Y-59856476D01*
X188446723Y-59856476D02*
X188351485Y-59808857D01*
X188351485Y-59808857D02*
X188303866Y-59713619D01*
X188303866Y-59713619D02*
X188303866Y-59475524D01*
X188303866Y-59475524D02*
X188256247Y-59380286D01*
X188684819Y-58475524D02*
X187684819Y-58475524D01*
X188637200Y-58475524D02*
X188684819Y-58570762D01*
X188684819Y-58570762D02*
X188684819Y-58761238D01*
X188684819Y-58761238D02*
X188637200Y-58856476D01*
X188637200Y-58856476D02*
X188589580Y-58904095D01*
X188589580Y-58904095D02*
X188494342Y-58951714D01*
X188494342Y-58951714D02*
X188208628Y-58951714D01*
X188208628Y-58951714D02*
X188113390Y-58904095D01*
X188113390Y-58904095D02*
X188065771Y-58856476D01*
X188065771Y-58856476D02*
X188018152Y-58761238D01*
X188018152Y-58761238D02*
X188018152Y-58570762D01*
X188018152Y-58570762D02*
X188065771Y-58475524D01*
X188589580Y-56666000D02*
X188637200Y-56713619D01*
X188637200Y-56713619D02*
X188684819Y-56856476D01*
X188684819Y-56856476D02*
X188684819Y-56951714D01*
X188684819Y-56951714D02*
X188637200Y-57094571D01*
X188637200Y-57094571D02*
X188541961Y-57189809D01*
X188541961Y-57189809D02*
X188446723Y-57237428D01*
X188446723Y-57237428D02*
X188256247Y-57285047D01*
X188256247Y-57285047D02*
X188113390Y-57285047D01*
X188113390Y-57285047D02*
X187922914Y-57237428D01*
X187922914Y-57237428D02*
X187827676Y-57189809D01*
X187827676Y-57189809D02*
X187732438Y-57094571D01*
X187732438Y-57094571D02*
X187684819Y-56951714D01*
X187684819Y-56951714D02*
X187684819Y-56856476D01*
X187684819Y-56856476D02*
X187732438Y-56713619D01*
X187732438Y-56713619D02*
X187780057Y-56666000D01*
X188637200Y-55856476D02*
X188684819Y-55951714D01*
X188684819Y-55951714D02*
X188684819Y-56142190D01*
X188684819Y-56142190D02*
X188637200Y-56237428D01*
X188637200Y-56237428D02*
X188541961Y-56285047D01*
X188541961Y-56285047D02*
X188161009Y-56285047D01*
X188161009Y-56285047D02*
X188065771Y-56237428D01*
X188065771Y-56237428D02*
X188018152Y-56142190D01*
X188018152Y-56142190D02*
X188018152Y-55951714D01*
X188018152Y-55951714D02*
X188065771Y-55856476D01*
X188065771Y-55856476D02*
X188161009Y-55808857D01*
X188161009Y-55808857D02*
X188256247Y-55808857D01*
X188256247Y-55808857D02*
X188351485Y-56285047D01*
X188684819Y-55237428D02*
X188637200Y-55332666D01*
X188637200Y-55332666D02*
X188541961Y-55380285D01*
X188541961Y-55380285D02*
X187684819Y-55380285D01*
X188684819Y-54713618D02*
X188637200Y-54808856D01*
X188637200Y-54808856D02*
X188541961Y-54856475D01*
X188541961Y-54856475D02*
X187684819Y-54856475D01*
X149336475Y-81258580D02*
X149288856Y-81306200D01*
X149288856Y-81306200D02*
X149145999Y-81353819D01*
X149145999Y-81353819D02*
X149050761Y-81353819D01*
X149050761Y-81353819D02*
X148907904Y-81306200D01*
X148907904Y-81306200D02*
X148812666Y-81210961D01*
X148812666Y-81210961D02*
X148765047Y-81115723D01*
X148765047Y-81115723D02*
X148717428Y-80925247D01*
X148717428Y-80925247D02*
X148717428Y-80782390D01*
X148717428Y-80782390D02*
X148765047Y-80591914D01*
X148765047Y-80591914D02*
X148812666Y-80496676D01*
X148812666Y-80496676D02*
X148907904Y-80401438D01*
X148907904Y-80401438D02*
X149050761Y-80353819D01*
X149050761Y-80353819D02*
X149145999Y-80353819D01*
X149145999Y-80353819D02*
X149288856Y-80401438D01*
X149288856Y-80401438D02*
X149336475Y-80449057D01*
X149907904Y-81353819D02*
X149812666Y-81306200D01*
X149812666Y-81306200D02*
X149765047Y-81258580D01*
X149765047Y-81258580D02*
X149717428Y-81163342D01*
X149717428Y-81163342D02*
X149717428Y-80877628D01*
X149717428Y-80877628D02*
X149765047Y-80782390D01*
X149765047Y-80782390D02*
X149812666Y-80734771D01*
X149812666Y-80734771D02*
X149907904Y-80687152D01*
X149907904Y-80687152D02*
X150050761Y-80687152D01*
X150050761Y-80687152D02*
X150145999Y-80734771D01*
X150145999Y-80734771D02*
X150193618Y-80782390D01*
X150193618Y-80782390D02*
X150241237Y-80877628D01*
X150241237Y-80877628D02*
X150241237Y-81163342D01*
X150241237Y-81163342D02*
X150193618Y-81258580D01*
X150193618Y-81258580D02*
X150145999Y-81306200D01*
X150145999Y-81306200D02*
X150050761Y-81353819D01*
X150050761Y-81353819D02*
X149907904Y-81353819D01*
X150669809Y-80687152D02*
X150669809Y-81353819D01*
X150669809Y-80782390D02*
X150717428Y-80734771D01*
X150717428Y-80734771D02*
X150812666Y-80687152D01*
X150812666Y-80687152D02*
X150955523Y-80687152D01*
X150955523Y-80687152D02*
X151050761Y-80734771D01*
X151050761Y-80734771D02*
X151098380Y-80830009D01*
X151098380Y-80830009D02*
X151098380Y-81353819D01*
X151479333Y-80353819D02*
X152098380Y-80353819D01*
X152098380Y-80353819D02*
X151765047Y-80734771D01*
X151765047Y-80734771D02*
X151907904Y-80734771D01*
X151907904Y-80734771D02*
X152003142Y-80782390D01*
X152003142Y-80782390D02*
X152050761Y-80830009D01*
X152050761Y-80830009D02*
X152098380Y-80925247D01*
X152098380Y-80925247D02*
X152098380Y-81163342D01*
X152098380Y-81163342D02*
X152050761Y-81258580D01*
X152050761Y-81258580D02*
X152003142Y-81306200D01*
X152003142Y-81306200D02*
X151907904Y-81353819D01*
X151907904Y-81353819D02*
X151622190Y-81353819D01*
X151622190Y-81353819D02*
X151526952Y-81306200D01*
X151526952Y-81306200D02*
X151479333Y-81258580D01*
X153765047Y-81353819D02*
X153288857Y-81353819D01*
X153288857Y-81353819D02*
X153288857Y-80353819D01*
X154098381Y-80830009D02*
X154431714Y-80830009D01*
X154574571Y-81353819D02*
X154098381Y-81353819D01*
X154098381Y-81353819D02*
X154098381Y-80353819D01*
X154098381Y-80353819D02*
X154574571Y-80353819D01*
X155003143Y-81353819D02*
X155003143Y-80353819D01*
X155003143Y-80353819D02*
X155241238Y-80353819D01*
X155241238Y-80353819D02*
X155384095Y-80401438D01*
X155384095Y-80401438D02*
X155479333Y-80496676D01*
X155479333Y-80496676D02*
X155526952Y-80591914D01*
X155526952Y-80591914D02*
X155574571Y-80782390D01*
X155574571Y-80782390D02*
X155574571Y-80925247D01*
X155574571Y-80925247D02*
X155526952Y-81115723D01*
X155526952Y-81115723D02*
X155479333Y-81210961D01*
X155479333Y-81210961D02*
X155384095Y-81306200D01*
X155384095Y-81306200D02*
X155241238Y-81353819D01*
X155241238Y-81353819D02*
X155003143Y-81353819D01*
X140573475Y-81131580D02*
X140525856Y-81179200D01*
X140525856Y-81179200D02*
X140382999Y-81226819D01*
X140382999Y-81226819D02*
X140287761Y-81226819D01*
X140287761Y-81226819D02*
X140144904Y-81179200D01*
X140144904Y-81179200D02*
X140049666Y-81083961D01*
X140049666Y-81083961D02*
X140002047Y-80988723D01*
X140002047Y-80988723D02*
X139954428Y-80798247D01*
X139954428Y-80798247D02*
X139954428Y-80655390D01*
X139954428Y-80655390D02*
X140002047Y-80464914D01*
X140002047Y-80464914D02*
X140049666Y-80369676D01*
X140049666Y-80369676D02*
X140144904Y-80274438D01*
X140144904Y-80274438D02*
X140287761Y-80226819D01*
X140287761Y-80226819D02*
X140382999Y-80226819D01*
X140382999Y-80226819D02*
X140525856Y-80274438D01*
X140525856Y-80274438D02*
X140573475Y-80322057D01*
X141144904Y-81226819D02*
X141049666Y-81179200D01*
X141049666Y-81179200D02*
X141002047Y-81131580D01*
X141002047Y-81131580D02*
X140954428Y-81036342D01*
X140954428Y-81036342D02*
X140954428Y-80750628D01*
X140954428Y-80750628D02*
X141002047Y-80655390D01*
X141002047Y-80655390D02*
X141049666Y-80607771D01*
X141049666Y-80607771D02*
X141144904Y-80560152D01*
X141144904Y-80560152D02*
X141287761Y-80560152D01*
X141287761Y-80560152D02*
X141382999Y-80607771D01*
X141382999Y-80607771D02*
X141430618Y-80655390D01*
X141430618Y-80655390D02*
X141478237Y-80750628D01*
X141478237Y-80750628D02*
X141478237Y-81036342D01*
X141478237Y-81036342D02*
X141430618Y-81131580D01*
X141430618Y-81131580D02*
X141382999Y-81179200D01*
X141382999Y-81179200D02*
X141287761Y-81226819D01*
X141287761Y-81226819D02*
X141144904Y-81226819D01*
X141906809Y-80560152D02*
X141906809Y-81226819D01*
X141906809Y-80655390D02*
X141954428Y-80607771D01*
X141954428Y-80607771D02*
X142049666Y-80560152D01*
X142049666Y-80560152D02*
X142192523Y-80560152D01*
X142192523Y-80560152D02*
X142287761Y-80607771D01*
X142287761Y-80607771D02*
X142335380Y-80703009D01*
X142335380Y-80703009D02*
X142335380Y-81226819D01*
X142763952Y-80322057D02*
X142811571Y-80274438D01*
X142811571Y-80274438D02*
X142906809Y-80226819D01*
X142906809Y-80226819D02*
X143144904Y-80226819D01*
X143144904Y-80226819D02*
X143240142Y-80274438D01*
X143240142Y-80274438D02*
X143287761Y-80322057D01*
X143287761Y-80322057D02*
X143335380Y-80417295D01*
X143335380Y-80417295D02*
X143335380Y-80512533D01*
X143335380Y-80512533D02*
X143287761Y-80655390D01*
X143287761Y-80655390D02*
X142716333Y-81226819D01*
X142716333Y-81226819D02*
X143335380Y-81226819D01*
X145002047Y-81226819D02*
X144525857Y-81226819D01*
X144525857Y-81226819D02*
X144525857Y-80226819D01*
X145335381Y-80703009D02*
X145668714Y-80703009D01*
X145811571Y-81226819D02*
X145335381Y-81226819D01*
X145335381Y-81226819D02*
X145335381Y-80226819D01*
X145335381Y-80226819D02*
X145811571Y-80226819D01*
X146240143Y-81226819D02*
X146240143Y-80226819D01*
X146240143Y-80226819D02*
X146478238Y-80226819D01*
X146478238Y-80226819D02*
X146621095Y-80274438D01*
X146621095Y-80274438D02*
X146716333Y-80369676D01*
X146716333Y-80369676D02*
X146763952Y-80464914D01*
X146763952Y-80464914D02*
X146811571Y-80655390D01*
X146811571Y-80655390D02*
X146811571Y-80798247D01*
X146811571Y-80798247D02*
X146763952Y-80988723D01*
X146763952Y-80988723D02*
X146716333Y-81083961D01*
X146716333Y-81083961D02*
X146621095Y-81179200D01*
X146621095Y-81179200D02*
X146478238Y-81226819D01*
X146478238Y-81226819D02*
X146240143Y-81226819D01*
X132191475Y-81258580D02*
X132143856Y-81306200D01*
X132143856Y-81306200D02*
X132000999Y-81353819D01*
X132000999Y-81353819D02*
X131905761Y-81353819D01*
X131905761Y-81353819D02*
X131762904Y-81306200D01*
X131762904Y-81306200D02*
X131667666Y-81210961D01*
X131667666Y-81210961D02*
X131620047Y-81115723D01*
X131620047Y-81115723D02*
X131572428Y-80925247D01*
X131572428Y-80925247D02*
X131572428Y-80782390D01*
X131572428Y-80782390D02*
X131620047Y-80591914D01*
X131620047Y-80591914D02*
X131667666Y-80496676D01*
X131667666Y-80496676D02*
X131762904Y-80401438D01*
X131762904Y-80401438D02*
X131905761Y-80353819D01*
X131905761Y-80353819D02*
X132000999Y-80353819D01*
X132000999Y-80353819D02*
X132143856Y-80401438D01*
X132143856Y-80401438D02*
X132191475Y-80449057D01*
X132762904Y-81353819D02*
X132667666Y-81306200D01*
X132667666Y-81306200D02*
X132620047Y-81258580D01*
X132620047Y-81258580D02*
X132572428Y-81163342D01*
X132572428Y-81163342D02*
X132572428Y-80877628D01*
X132572428Y-80877628D02*
X132620047Y-80782390D01*
X132620047Y-80782390D02*
X132667666Y-80734771D01*
X132667666Y-80734771D02*
X132762904Y-80687152D01*
X132762904Y-80687152D02*
X132905761Y-80687152D01*
X132905761Y-80687152D02*
X133000999Y-80734771D01*
X133000999Y-80734771D02*
X133048618Y-80782390D01*
X133048618Y-80782390D02*
X133096237Y-80877628D01*
X133096237Y-80877628D02*
X133096237Y-81163342D01*
X133096237Y-81163342D02*
X133048618Y-81258580D01*
X133048618Y-81258580D02*
X133000999Y-81306200D01*
X133000999Y-81306200D02*
X132905761Y-81353819D01*
X132905761Y-81353819D02*
X132762904Y-81353819D01*
X133524809Y-80687152D02*
X133524809Y-81353819D01*
X133524809Y-80782390D02*
X133572428Y-80734771D01*
X133572428Y-80734771D02*
X133667666Y-80687152D01*
X133667666Y-80687152D02*
X133810523Y-80687152D01*
X133810523Y-80687152D02*
X133905761Y-80734771D01*
X133905761Y-80734771D02*
X133953380Y-80830009D01*
X133953380Y-80830009D02*
X133953380Y-81353819D01*
X134953380Y-81353819D02*
X134381952Y-81353819D01*
X134667666Y-81353819D02*
X134667666Y-80353819D01*
X134667666Y-80353819D02*
X134572428Y-80496676D01*
X134572428Y-80496676D02*
X134477190Y-80591914D01*
X134477190Y-80591914D02*
X134381952Y-80639533D01*
X136620047Y-81353819D02*
X136143857Y-81353819D01*
X136143857Y-81353819D02*
X136143857Y-80353819D01*
X136953381Y-80830009D02*
X137286714Y-80830009D01*
X137429571Y-81353819D02*
X136953381Y-81353819D01*
X136953381Y-81353819D02*
X136953381Y-80353819D01*
X136953381Y-80353819D02*
X137429571Y-80353819D01*
X137858143Y-81353819D02*
X137858143Y-80353819D01*
X137858143Y-80353819D02*
X138096238Y-80353819D01*
X138096238Y-80353819D02*
X138239095Y-80401438D01*
X138239095Y-80401438D02*
X138334333Y-80496676D01*
X138334333Y-80496676D02*
X138381952Y-80591914D01*
X138381952Y-80591914D02*
X138429571Y-80782390D01*
X138429571Y-80782390D02*
X138429571Y-80925247D01*
X138429571Y-80925247D02*
X138381952Y-81115723D01*
X138381952Y-81115723D02*
X138334333Y-81210961D01*
X138334333Y-81210961D02*
X138239095Y-81306200D01*
X138239095Y-81306200D02*
X138096238Y-81353819D01*
X138096238Y-81353819D02*
X137858143Y-81353819D01*
X99909903Y-60145009D02*
X100052760Y-60192628D01*
X100052760Y-60192628D02*
X100100379Y-60240247D01*
X100100379Y-60240247D02*
X100147998Y-60335485D01*
X100147998Y-60335485D02*
X100147998Y-60478342D01*
X100147998Y-60478342D02*
X100100379Y-60573580D01*
X100100379Y-60573580D02*
X100052760Y-60621200D01*
X100052760Y-60621200D02*
X99957522Y-60668819D01*
X99957522Y-60668819D02*
X99576570Y-60668819D01*
X99576570Y-60668819D02*
X99576570Y-59668819D01*
X99576570Y-59668819D02*
X99909903Y-59668819D01*
X99909903Y-59668819D02*
X100005141Y-59716438D01*
X100005141Y-59716438D02*
X100052760Y-59764057D01*
X100052760Y-59764057D02*
X100100379Y-59859295D01*
X100100379Y-59859295D02*
X100100379Y-59954533D01*
X100100379Y-59954533D02*
X100052760Y-60049771D01*
X100052760Y-60049771D02*
X100005141Y-60097390D01*
X100005141Y-60097390D02*
X99909903Y-60145009D01*
X99909903Y-60145009D02*
X99576570Y-60145009D01*
X100719427Y-60668819D02*
X100624189Y-60621200D01*
X100624189Y-60621200D02*
X100576570Y-60525961D01*
X100576570Y-60525961D02*
X100576570Y-59668819D01*
X101528951Y-60002152D02*
X101528951Y-60668819D01*
X101100380Y-60002152D02*
X101100380Y-60525961D01*
X101100380Y-60525961D02*
X101147999Y-60621200D01*
X101147999Y-60621200D02*
X101243237Y-60668819D01*
X101243237Y-60668819D02*
X101386094Y-60668819D01*
X101386094Y-60668819D02*
X101481332Y-60621200D01*
X101481332Y-60621200D02*
X101528951Y-60573580D01*
X102386094Y-60621200D02*
X102290856Y-60668819D01*
X102290856Y-60668819D02*
X102100380Y-60668819D01*
X102100380Y-60668819D02*
X102005142Y-60621200D01*
X102005142Y-60621200D02*
X101957523Y-60525961D01*
X101957523Y-60525961D02*
X101957523Y-60145009D01*
X101957523Y-60145009D02*
X102005142Y-60049771D01*
X102005142Y-60049771D02*
X102100380Y-60002152D01*
X102100380Y-60002152D02*
X102290856Y-60002152D01*
X102290856Y-60002152D02*
X102386094Y-60049771D01*
X102386094Y-60049771D02*
X102433713Y-60145009D01*
X102433713Y-60145009D02*
X102433713Y-60240247D01*
X102433713Y-60240247D02*
X101957523Y-60335485D01*
X102719428Y-60002152D02*
X103100380Y-60002152D01*
X102862285Y-59668819D02*
X102862285Y-60525961D01*
X102862285Y-60525961D02*
X102909904Y-60621200D01*
X102909904Y-60621200D02*
X103005142Y-60668819D01*
X103005142Y-60668819D02*
X103100380Y-60668819D01*
X103576571Y-60668819D02*
X103481333Y-60621200D01*
X103481333Y-60621200D02*
X103433714Y-60573580D01*
X103433714Y-60573580D02*
X103386095Y-60478342D01*
X103386095Y-60478342D02*
X103386095Y-60192628D01*
X103386095Y-60192628D02*
X103433714Y-60097390D01*
X103433714Y-60097390D02*
X103481333Y-60049771D01*
X103481333Y-60049771D02*
X103576571Y-60002152D01*
X103576571Y-60002152D02*
X103719428Y-60002152D01*
X103719428Y-60002152D02*
X103814666Y-60049771D01*
X103814666Y-60049771D02*
X103862285Y-60097390D01*
X103862285Y-60097390D02*
X103909904Y-60192628D01*
X103909904Y-60192628D02*
X103909904Y-60478342D01*
X103909904Y-60478342D02*
X103862285Y-60573580D01*
X103862285Y-60573580D02*
X103814666Y-60621200D01*
X103814666Y-60621200D02*
X103719428Y-60668819D01*
X103719428Y-60668819D02*
X103576571Y-60668819D01*
X104481333Y-60668819D02*
X104386095Y-60621200D01*
X104386095Y-60621200D02*
X104338476Y-60573580D01*
X104338476Y-60573580D02*
X104290857Y-60478342D01*
X104290857Y-60478342D02*
X104290857Y-60192628D01*
X104290857Y-60192628D02*
X104338476Y-60097390D01*
X104338476Y-60097390D02*
X104386095Y-60049771D01*
X104386095Y-60049771D02*
X104481333Y-60002152D01*
X104481333Y-60002152D02*
X104624190Y-60002152D01*
X104624190Y-60002152D02*
X104719428Y-60049771D01*
X104719428Y-60049771D02*
X104767047Y-60097390D01*
X104767047Y-60097390D02*
X104814666Y-60192628D01*
X104814666Y-60192628D02*
X104814666Y-60478342D01*
X104814666Y-60478342D02*
X104767047Y-60573580D01*
X104767047Y-60573580D02*
X104719428Y-60621200D01*
X104719428Y-60621200D02*
X104624190Y-60668819D01*
X104624190Y-60668819D02*
X104481333Y-60668819D01*
X105100381Y-60002152D02*
X105481333Y-60002152D01*
X105243238Y-59668819D02*
X105243238Y-60525961D01*
X105243238Y-60525961D02*
X105290857Y-60621200D01*
X105290857Y-60621200D02*
X105386095Y-60668819D01*
X105386095Y-60668819D02*
X105481333Y-60668819D01*
X105814667Y-60668819D02*
X105814667Y-59668819D01*
X106243238Y-60668819D02*
X106243238Y-60145009D01*
X106243238Y-60145009D02*
X106195619Y-60049771D01*
X106195619Y-60049771D02*
X106100381Y-60002152D01*
X106100381Y-60002152D02*
X105957524Y-60002152D01*
X105957524Y-60002152D02*
X105862286Y-60049771D01*
X105862286Y-60049771D02*
X105814667Y-60097390D01*
X107957524Y-60668819D02*
X107481334Y-60668819D01*
X107481334Y-60668819D02*
X107481334Y-59668819D01*
X108290858Y-60145009D02*
X108624191Y-60145009D01*
X108767048Y-60668819D02*
X108290858Y-60668819D01*
X108290858Y-60668819D02*
X108290858Y-59668819D01*
X108290858Y-59668819D02*
X108767048Y-59668819D01*
X109195620Y-60668819D02*
X109195620Y-59668819D01*
X109195620Y-59668819D02*
X109433715Y-59668819D01*
X109433715Y-59668819D02*
X109576572Y-59716438D01*
X109576572Y-59716438D02*
X109671810Y-59811676D01*
X109671810Y-59811676D02*
X109719429Y-59906914D01*
X109719429Y-59906914D02*
X109767048Y-60097390D01*
X109767048Y-60097390D02*
X109767048Y-60240247D01*
X109767048Y-60240247D02*
X109719429Y-60430723D01*
X109719429Y-60430723D02*
X109671810Y-60525961D01*
X109671810Y-60525961D02*
X109576572Y-60621200D01*
X109576572Y-60621200D02*
X109433715Y-60668819D01*
X109433715Y-60668819D02*
X109195620Y-60668819D01*
X102852819Y-119514808D02*
X103852819Y-119181475D01*
X103852819Y-119181475D02*
X102852819Y-118848142D01*
X103852819Y-118514808D02*
X103186152Y-118514808D01*
X102852819Y-118514808D02*
X102900438Y-118562427D01*
X102900438Y-118562427D02*
X102948057Y-118514808D01*
X102948057Y-118514808D02*
X102900438Y-118467189D01*
X102900438Y-118467189D02*
X102852819Y-118514808D01*
X102852819Y-118514808D02*
X102948057Y-118514808D01*
X103186152Y-118038618D02*
X103852819Y-118038618D01*
X103281390Y-118038618D02*
X103233771Y-117990999D01*
X103233771Y-117990999D02*
X103186152Y-117895761D01*
X103186152Y-117895761D02*
X103186152Y-117752904D01*
X103186152Y-117752904D02*
X103233771Y-117657666D01*
X103233771Y-117657666D02*
X103329009Y-117610047D01*
X103329009Y-117610047D02*
X103852819Y-117610047D01*
X101489237Y-72479819D02*
X101155904Y-72003628D01*
X100917809Y-72479819D02*
X100917809Y-71479819D01*
X100917809Y-71479819D02*
X101298761Y-71479819D01*
X101298761Y-71479819D02*
X101393999Y-71527438D01*
X101393999Y-71527438D02*
X101441618Y-71575057D01*
X101441618Y-71575057D02*
X101489237Y-71670295D01*
X101489237Y-71670295D02*
X101489237Y-71813152D01*
X101489237Y-71813152D02*
X101441618Y-71908390D01*
X101441618Y-71908390D02*
X101393999Y-71956009D01*
X101393999Y-71956009D02*
X101298761Y-72003628D01*
X101298761Y-72003628D02*
X100917809Y-72003628D01*
X102298761Y-72432200D02*
X102203523Y-72479819D01*
X102203523Y-72479819D02*
X102013047Y-72479819D01*
X102013047Y-72479819D02*
X101917809Y-72432200D01*
X101917809Y-72432200D02*
X101870190Y-72336961D01*
X101870190Y-72336961D02*
X101870190Y-71956009D01*
X101870190Y-71956009D02*
X101917809Y-71860771D01*
X101917809Y-71860771D02*
X102013047Y-71813152D01*
X102013047Y-71813152D02*
X102203523Y-71813152D01*
X102203523Y-71813152D02*
X102298761Y-71860771D01*
X102298761Y-71860771D02*
X102346380Y-71956009D01*
X102346380Y-71956009D02*
X102346380Y-72051247D01*
X102346380Y-72051247D02*
X101870190Y-72146485D01*
X102632095Y-71813152D02*
X103013047Y-71813152D01*
X102774952Y-72479819D02*
X102774952Y-71622676D01*
X102774952Y-71622676D02*
X102822571Y-71527438D01*
X102822571Y-71527438D02*
X102917809Y-71479819D01*
X102917809Y-71479819D02*
X103013047Y-71479819D01*
X103346381Y-72479819D02*
X103346381Y-71813152D01*
X103346381Y-71479819D02*
X103298762Y-71527438D01*
X103298762Y-71527438D02*
X103346381Y-71575057D01*
X103346381Y-71575057D02*
X103394000Y-71527438D01*
X103394000Y-71527438D02*
X103346381Y-71479819D01*
X103346381Y-71479819D02*
X103346381Y-71575057D01*
X103965428Y-72479819D02*
X103870190Y-72432200D01*
X103870190Y-72432200D02*
X103822571Y-72336961D01*
X103822571Y-72336961D02*
X103822571Y-71479819D01*
X104489238Y-72479819D02*
X104394000Y-72432200D01*
X104394000Y-72432200D02*
X104346381Y-72336961D01*
X104346381Y-72336961D02*
X104346381Y-71479819D01*
X106108286Y-72479819D02*
X105632096Y-72479819D01*
X105632096Y-72479819D02*
X105632096Y-71479819D01*
X106441620Y-71956009D02*
X106774953Y-71956009D01*
X106917810Y-72479819D02*
X106441620Y-72479819D01*
X106441620Y-72479819D02*
X106441620Y-71479819D01*
X106441620Y-71479819D02*
X106917810Y-71479819D01*
X107346382Y-72479819D02*
X107346382Y-71479819D01*
X107346382Y-71479819D02*
X107584477Y-71479819D01*
X107584477Y-71479819D02*
X107727334Y-71527438D01*
X107727334Y-71527438D02*
X107822572Y-71622676D01*
X107822572Y-71622676D02*
X107870191Y-71717914D01*
X107870191Y-71717914D02*
X107917810Y-71908390D01*
X107917810Y-71908390D02*
X107917810Y-72051247D01*
X107917810Y-72051247D02*
X107870191Y-72241723D01*
X107870191Y-72241723D02*
X107822572Y-72336961D01*
X107822572Y-72336961D02*
X107727334Y-72432200D01*
X107727334Y-72432200D02*
X107584477Y-72479819D01*
X107584477Y-72479819D02*
X107346382Y-72479819D01*
X101060714Y-49873819D02*
X101060714Y-48873819D01*
X101060714Y-48873819D02*
X101441666Y-48873819D01*
X101441666Y-48873819D02*
X101536904Y-48921438D01*
X101536904Y-48921438D02*
X101584523Y-48969057D01*
X101584523Y-48969057D02*
X101632142Y-49064295D01*
X101632142Y-49064295D02*
X101632142Y-49207152D01*
X101632142Y-49207152D02*
X101584523Y-49302390D01*
X101584523Y-49302390D02*
X101536904Y-49350009D01*
X101536904Y-49350009D02*
X101441666Y-49397628D01*
X101441666Y-49397628D02*
X101060714Y-49397628D01*
X102203571Y-49873819D02*
X102108333Y-49826200D01*
X102108333Y-49826200D02*
X102060714Y-49778580D01*
X102060714Y-49778580D02*
X102013095Y-49683342D01*
X102013095Y-49683342D02*
X102013095Y-49397628D01*
X102013095Y-49397628D02*
X102060714Y-49302390D01*
X102060714Y-49302390D02*
X102108333Y-49254771D01*
X102108333Y-49254771D02*
X102203571Y-49207152D01*
X102203571Y-49207152D02*
X102346428Y-49207152D01*
X102346428Y-49207152D02*
X102441666Y-49254771D01*
X102441666Y-49254771D02*
X102489285Y-49302390D01*
X102489285Y-49302390D02*
X102536904Y-49397628D01*
X102536904Y-49397628D02*
X102536904Y-49683342D01*
X102536904Y-49683342D02*
X102489285Y-49778580D01*
X102489285Y-49778580D02*
X102441666Y-49826200D01*
X102441666Y-49826200D02*
X102346428Y-49873819D01*
X102346428Y-49873819D02*
X102203571Y-49873819D01*
X102870238Y-49207152D02*
X103060714Y-49873819D01*
X103060714Y-49873819D02*
X103251190Y-49397628D01*
X103251190Y-49397628D02*
X103441666Y-49873819D01*
X103441666Y-49873819D02*
X103632142Y-49207152D01*
X104394047Y-49826200D02*
X104298809Y-49873819D01*
X104298809Y-49873819D02*
X104108333Y-49873819D01*
X104108333Y-49873819D02*
X104013095Y-49826200D01*
X104013095Y-49826200D02*
X103965476Y-49730961D01*
X103965476Y-49730961D02*
X103965476Y-49350009D01*
X103965476Y-49350009D02*
X104013095Y-49254771D01*
X104013095Y-49254771D02*
X104108333Y-49207152D01*
X104108333Y-49207152D02*
X104298809Y-49207152D01*
X104298809Y-49207152D02*
X104394047Y-49254771D01*
X104394047Y-49254771D02*
X104441666Y-49350009D01*
X104441666Y-49350009D02*
X104441666Y-49445247D01*
X104441666Y-49445247D02*
X103965476Y-49540485D01*
X104870238Y-49873819D02*
X104870238Y-49207152D01*
X104870238Y-49397628D02*
X104917857Y-49302390D01*
X104917857Y-49302390D02*
X104965476Y-49254771D01*
X104965476Y-49254771D02*
X105060714Y-49207152D01*
X105060714Y-49207152D02*
X105155952Y-49207152D01*
X106727381Y-49873819D02*
X106251191Y-49873819D01*
X106251191Y-49873819D02*
X106251191Y-48873819D01*
X107060715Y-49350009D02*
X107394048Y-49350009D01*
X107536905Y-49873819D02*
X107060715Y-49873819D01*
X107060715Y-49873819D02*
X107060715Y-48873819D01*
X107060715Y-48873819D02*
X107536905Y-48873819D01*
X107965477Y-49873819D02*
X107965477Y-48873819D01*
X107965477Y-48873819D02*
X108203572Y-48873819D01*
X108203572Y-48873819D02*
X108346429Y-48921438D01*
X108346429Y-48921438D02*
X108441667Y-49016676D01*
X108441667Y-49016676D02*
X108489286Y-49111914D01*
X108489286Y-49111914D02*
X108536905Y-49302390D01*
X108536905Y-49302390D02*
X108536905Y-49445247D01*
X108536905Y-49445247D02*
X108489286Y-49635723D01*
X108489286Y-49635723D02*
X108441667Y-49730961D01*
X108441667Y-49730961D02*
X108346429Y-49826200D01*
X108346429Y-49826200D02*
X108203572Y-49873819D01*
X108203572Y-49873819D02*
X107965477Y-49873819D01*
X98211285Y-138884819D02*
X98211285Y-137884819D01*
X98211285Y-137884819D02*
X98544618Y-138599104D01*
X98544618Y-138599104D02*
X98877951Y-137884819D01*
X98877951Y-137884819D02*
X98877951Y-138884819D01*
X99496999Y-138884819D02*
X99401761Y-138837200D01*
X99401761Y-138837200D02*
X99354142Y-138789580D01*
X99354142Y-138789580D02*
X99306523Y-138694342D01*
X99306523Y-138694342D02*
X99306523Y-138408628D01*
X99306523Y-138408628D02*
X99354142Y-138313390D01*
X99354142Y-138313390D02*
X99401761Y-138265771D01*
X99401761Y-138265771D02*
X99496999Y-138218152D01*
X99496999Y-138218152D02*
X99639856Y-138218152D01*
X99639856Y-138218152D02*
X99735094Y-138265771D01*
X99735094Y-138265771D02*
X99782713Y-138313390D01*
X99782713Y-138313390D02*
X99830332Y-138408628D01*
X99830332Y-138408628D02*
X99830332Y-138694342D01*
X99830332Y-138694342D02*
X99782713Y-138789580D01*
X99782713Y-138789580D02*
X99735094Y-138837200D01*
X99735094Y-138837200D02*
X99639856Y-138884819D01*
X99639856Y-138884819D02*
X99496999Y-138884819D01*
X100687475Y-138218152D02*
X100687475Y-138884819D01*
X100258904Y-138218152D02*
X100258904Y-138741961D01*
X100258904Y-138741961D02*
X100306523Y-138837200D01*
X100306523Y-138837200D02*
X100401761Y-138884819D01*
X100401761Y-138884819D02*
X100544618Y-138884819D01*
X100544618Y-138884819D02*
X100639856Y-138837200D01*
X100639856Y-138837200D02*
X100687475Y-138789580D01*
X101163666Y-138218152D02*
X101163666Y-138884819D01*
X101163666Y-138313390D02*
X101211285Y-138265771D01*
X101211285Y-138265771D02*
X101306523Y-138218152D01*
X101306523Y-138218152D02*
X101449380Y-138218152D01*
X101449380Y-138218152D02*
X101544618Y-138265771D01*
X101544618Y-138265771D02*
X101592237Y-138361009D01*
X101592237Y-138361009D02*
X101592237Y-138884819D01*
X101925571Y-138218152D02*
X102306523Y-138218152D01*
X102068428Y-137884819D02*
X102068428Y-138741961D01*
X102068428Y-138741961D02*
X102116047Y-138837200D01*
X102116047Y-138837200D02*
X102211285Y-138884819D01*
X102211285Y-138884819D02*
X102306523Y-138884819D01*
X102639857Y-138884819D02*
X102639857Y-138218152D01*
X102639857Y-137884819D02*
X102592238Y-137932438D01*
X102592238Y-137932438D02*
X102639857Y-137980057D01*
X102639857Y-137980057D02*
X102687476Y-137932438D01*
X102687476Y-137932438D02*
X102639857Y-137884819D01*
X102639857Y-137884819D02*
X102639857Y-137980057D01*
X103116047Y-138218152D02*
X103116047Y-138884819D01*
X103116047Y-138313390D02*
X103163666Y-138265771D01*
X103163666Y-138265771D02*
X103258904Y-138218152D01*
X103258904Y-138218152D02*
X103401761Y-138218152D01*
X103401761Y-138218152D02*
X103496999Y-138265771D01*
X103496999Y-138265771D02*
X103544618Y-138361009D01*
X103544618Y-138361009D02*
X103544618Y-138884819D01*
X104449380Y-138218152D02*
X104449380Y-139027676D01*
X104449380Y-139027676D02*
X104401761Y-139122914D01*
X104401761Y-139122914D02*
X104354142Y-139170533D01*
X104354142Y-139170533D02*
X104258904Y-139218152D01*
X104258904Y-139218152D02*
X104116047Y-139218152D01*
X104116047Y-139218152D02*
X104020809Y-139170533D01*
X104449380Y-138837200D02*
X104354142Y-138884819D01*
X104354142Y-138884819D02*
X104163666Y-138884819D01*
X104163666Y-138884819D02*
X104068428Y-138837200D01*
X104068428Y-138837200D02*
X104020809Y-138789580D01*
X104020809Y-138789580D02*
X103973190Y-138694342D01*
X103973190Y-138694342D02*
X103973190Y-138408628D01*
X103973190Y-138408628D02*
X104020809Y-138313390D01*
X104020809Y-138313390D02*
X104068428Y-138265771D01*
X104068428Y-138265771D02*
X104163666Y-138218152D01*
X104163666Y-138218152D02*
X104354142Y-138218152D01*
X104354142Y-138218152D02*
X104449380Y-138265771D01*
X104925571Y-138884819D02*
X104925571Y-137884819D01*
X104925571Y-138361009D02*
X105496999Y-138361009D01*
X105496999Y-138884819D02*
X105496999Y-137884819D01*
X106116047Y-138884819D02*
X106020809Y-138837200D01*
X106020809Y-138837200D02*
X105973190Y-138789580D01*
X105973190Y-138789580D02*
X105925571Y-138694342D01*
X105925571Y-138694342D02*
X105925571Y-138408628D01*
X105925571Y-138408628D02*
X105973190Y-138313390D01*
X105973190Y-138313390D02*
X106020809Y-138265771D01*
X106020809Y-138265771D02*
X106116047Y-138218152D01*
X106116047Y-138218152D02*
X106258904Y-138218152D01*
X106258904Y-138218152D02*
X106354142Y-138265771D01*
X106354142Y-138265771D02*
X106401761Y-138313390D01*
X106401761Y-138313390D02*
X106449380Y-138408628D01*
X106449380Y-138408628D02*
X106449380Y-138694342D01*
X106449380Y-138694342D02*
X106401761Y-138789580D01*
X106401761Y-138789580D02*
X106354142Y-138837200D01*
X106354142Y-138837200D02*
X106258904Y-138884819D01*
X106258904Y-138884819D02*
X106116047Y-138884819D01*
X107020809Y-138884819D02*
X106925571Y-138837200D01*
X106925571Y-138837200D02*
X106877952Y-138741961D01*
X106877952Y-138741961D02*
X106877952Y-137884819D01*
X107782714Y-138837200D02*
X107687476Y-138884819D01*
X107687476Y-138884819D02*
X107497000Y-138884819D01*
X107497000Y-138884819D02*
X107401762Y-138837200D01*
X107401762Y-138837200D02*
X107354143Y-138741961D01*
X107354143Y-138741961D02*
X107354143Y-138361009D01*
X107354143Y-138361009D02*
X107401762Y-138265771D01*
X107401762Y-138265771D02*
X107497000Y-138218152D01*
X107497000Y-138218152D02*
X107687476Y-138218152D01*
X107687476Y-138218152D02*
X107782714Y-138265771D01*
X107782714Y-138265771D02*
X107830333Y-138361009D01*
X107830333Y-138361009D02*
X107830333Y-138456247D01*
X107830333Y-138456247D02*
X107354143Y-138551485D01*
X173395285Y-139138819D02*
X173395285Y-138138819D01*
X173395285Y-138138819D02*
X173728618Y-138853104D01*
X173728618Y-138853104D02*
X174061951Y-138138819D01*
X174061951Y-138138819D02*
X174061951Y-139138819D01*
X174680999Y-139138819D02*
X174585761Y-139091200D01*
X174585761Y-139091200D02*
X174538142Y-139043580D01*
X174538142Y-139043580D02*
X174490523Y-138948342D01*
X174490523Y-138948342D02*
X174490523Y-138662628D01*
X174490523Y-138662628D02*
X174538142Y-138567390D01*
X174538142Y-138567390D02*
X174585761Y-138519771D01*
X174585761Y-138519771D02*
X174680999Y-138472152D01*
X174680999Y-138472152D02*
X174823856Y-138472152D01*
X174823856Y-138472152D02*
X174919094Y-138519771D01*
X174919094Y-138519771D02*
X174966713Y-138567390D01*
X174966713Y-138567390D02*
X175014332Y-138662628D01*
X175014332Y-138662628D02*
X175014332Y-138948342D01*
X175014332Y-138948342D02*
X174966713Y-139043580D01*
X174966713Y-139043580D02*
X174919094Y-139091200D01*
X174919094Y-139091200D02*
X174823856Y-139138819D01*
X174823856Y-139138819D02*
X174680999Y-139138819D01*
X175871475Y-138472152D02*
X175871475Y-139138819D01*
X175442904Y-138472152D02*
X175442904Y-138995961D01*
X175442904Y-138995961D02*
X175490523Y-139091200D01*
X175490523Y-139091200D02*
X175585761Y-139138819D01*
X175585761Y-139138819D02*
X175728618Y-139138819D01*
X175728618Y-139138819D02*
X175823856Y-139091200D01*
X175823856Y-139091200D02*
X175871475Y-139043580D01*
X176347666Y-138472152D02*
X176347666Y-139138819D01*
X176347666Y-138567390D02*
X176395285Y-138519771D01*
X176395285Y-138519771D02*
X176490523Y-138472152D01*
X176490523Y-138472152D02*
X176633380Y-138472152D01*
X176633380Y-138472152D02*
X176728618Y-138519771D01*
X176728618Y-138519771D02*
X176776237Y-138615009D01*
X176776237Y-138615009D02*
X176776237Y-139138819D01*
X177109571Y-138472152D02*
X177490523Y-138472152D01*
X177252428Y-138138819D02*
X177252428Y-138995961D01*
X177252428Y-138995961D02*
X177300047Y-139091200D01*
X177300047Y-139091200D02*
X177395285Y-139138819D01*
X177395285Y-139138819D02*
X177490523Y-139138819D01*
X177823857Y-139138819D02*
X177823857Y-138472152D01*
X177823857Y-138138819D02*
X177776238Y-138186438D01*
X177776238Y-138186438D02*
X177823857Y-138234057D01*
X177823857Y-138234057D02*
X177871476Y-138186438D01*
X177871476Y-138186438D02*
X177823857Y-138138819D01*
X177823857Y-138138819D02*
X177823857Y-138234057D01*
X178300047Y-138472152D02*
X178300047Y-139138819D01*
X178300047Y-138567390D02*
X178347666Y-138519771D01*
X178347666Y-138519771D02*
X178442904Y-138472152D01*
X178442904Y-138472152D02*
X178585761Y-138472152D01*
X178585761Y-138472152D02*
X178680999Y-138519771D01*
X178680999Y-138519771D02*
X178728618Y-138615009D01*
X178728618Y-138615009D02*
X178728618Y-139138819D01*
X179633380Y-138472152D02*
X179633380Y-139281676D01*
X179633380Y-139281676D02*
X179585761Y-139376914D01*
X179585761Y-139376914D02*
X179538142Y-139424533D01*
X179538142Y-139424533D02*
X179442904Y-139472152D01*
X179442904Y-139472152D02*
X179300047Y-139472152D01*
X179300047Y-139472152D02*
X179204809Y-139424533D01*
X179633380Y-139091200D02*
X179538142Y-139138819D01*
X179538142Y-139138819D02*
X179347666Y-139138819D01*
X179347666Y-139138819D02*
X179252428Y-139091200D01*
X179252428Y-139091200D02*
X179204809Y-139043580D01*
X179204809Y-139043580D02*
X179157190Y-138948342D01*
X179157190Y-138948342D02*
X179157190Y-138662628D01*
X179157190Y-138662628D02*
X179204809Y-138567390D01*
X179204809Y-138567390D02*
X179252428Y-138519771D01*
X179252428Y-138519771D02*
X179347666Y-138472152D01*
X179347666Y-138472152D02*
X179538142Y-138472152D01*
X179538142Y-138472152D02*
X179633380Y-138519771D01*
X180109571Y-139138819D02*
X180109571Y-138138819D01*
X180109571Y-138615009D02*
X180680999Y-138615009D01*
X180680999Y-139138819D02*
X180680999Y-138138819D01*
X181300047Y-139138819D02*
X181204809Y-139091200D01*
X181204809Y-139091200D02*
X181157190Y-139043580D01*
X181157190Y-139043580D02*
X181109571Y-138948342D01*
X181109571Y-138948342D02*
X181109571Y-138662628D01*
X181109571Y-138662628D02*
X181157190Y-138567390D01*
X181157190Y-138567390D02*
X181204809Y-138519771D01*
X181204809Y-138519771D02*
X181300047Y-138472152D01*
X181300047Y-138472152D02*
X181442904Y-138472152D01*
X181442904Y-138472152D02*
X181538142Y-138519771D01*
X181538142Y-138519771D02*
X181585761Y-138567390D01*
X181585761Y-138567390D02*
X181633380Y-138662628D01*
X181633380Y-138662628D02*
X181633380Y-138948342D01*
X181633380Y-138948342D02*
X181585761Y-139043580D01*
X181585761Y-139043580D02*
X181538142Y-139091200D01*
X181538142Y-139091200D02*
X181442904Y-139138819D01*
X181442904Y-139138819D02*
X181300047Y-139138819D01*
X182204809Y-139138819D02*
X182109571Y-139091200D01*
X182109571Y-139091200D02*
X182061952Y-138995961D01*
X182061952Y-138995961D02*
X182061952Y-138138819D01*
X182966714Y-139091200D02*
X182871476Y-139138819D01*
X182871476Y-139138819D02*
X182681000Y-139138819D01*
X182681000Y-139138819D02*
X182585762Y-139091200D01*
X182585762Y-139091200D02*
X182538143Y-138995961D01*
X182538143Y-138995961D02*
X182538143Y-138615009D01*
X182538143Y-138615009D02*
X182585762Y-138519771D01*
X182585762Y-138519771D02*
X182681000Y-138472152D01*
X182681000Y-138472152D02*
X182871476Y-138472152D01*
X182871476Y-138472152D02*
X182966714Y-138519771D01*
X182966714Y-138519771D02*
X183014333Y-138615009D01*
X183014333Y-138615009D02*
X183014333Y-138710247D01*
X183014333Y-138710247D02*
X182538143Y-138805485D01*
X90972285Y-50746819D02*
X90972285Y-49746819D01*
X90972285Y-49746819D02*
X91305618Y-50461104D01*
X91305618Y-50461104D02*
X91638951Y-49746819D01*
X91638951Y-49746819D02*
X91638951Y-50746819D01*
X92257999Y-50746819D02*
X92162761Y-50699200D01*
X92162761Y-50699200D02*
X92115142Y-50651580D01*
X92115142Y-50651580D02*
X92067523Y-50556342D01*
X92067523Y-50556342D02*
X92067523Y-50270628D01*
X92067523Y-50270628D02*
X92115142Y-50175390D01*
X92115142Y-50175390D02*
X92162761Y-50127771D01*
X92162761Y-50127771D02*
X92257999Y-50080152D01*
X92257999Y-50080152D02*
X92400856Y-50080152D01*
X92400856Y-50080152D02*
X92496094Y-50127771D01*
X92496094Y-50127771D02*
X92543713Y-50175390D01*
X92543713Y-50175390D02*
X92591332Y-50270628D01*
X92591332Y-50270628D02*
X92591332Y-50556342D01*
X92591332Y-50556342D02*
X92543713Y-50651580D01*
X92543713Y-50651580D02*
X92496094Y-50699200D01*
X92496094Y-50699200D02*
X92400856Y-50746819D01*
X92400856Y-50746819D02*
X92257999Y-50746819D01*
X93448475Y-50080152D02*
X93448475Y-50746819D01*
X93019904Y-50080152D02*
X93019904Y-50603961D01*
X93019904Y-50603961D02*
X93067523Y-50699200D01*
X93067523Y-50699200D02*
X93162761Y-50746819D01*
X93162761Y-50746819D02*
X93305618Y-50746819D01*
X93305618Y-50746819D02*
X93400856Y-50699200D01*
X93400856Y-50699200D02*
X93448475Y-50651580D01*
X93924666Y-50080152D02*
X93924666Y-50746819D01*
X93924666Y-50175390D02*
X93972285Y-50127771D01*
X93972285Y-50127771D02*
X94067523Y-50080152D01*
X94067523Y-50080152D02*
X94210380Y-50080152D01*
X94210380Y-50080152D02*
X94305618Y-50127771D01*
X94305618Y-50127771D02*
X94353237Y-50223009D01*
X94353237Y-50223009D02*
X94353237Y-50746819D01*
X94686571Y-50080152D02*
X95067523Y-50080152D01*
X94829428Y-49746819D02*
X94829428Y-50603961D01*
X94829428Y-50603961D02*
X94877047Y-50699200D01*
X94877047Y-50699200D02*
X94972285Y-50746819D01*
X94972285Y-50746819D02*
X95067523Y-50746819D01*
X95400857Y-50746819D02*
X95400857Y-50080152D01*
X95400857Y-49746819D02*
X95353238Y-49794438D01*
X95353238Y-49794438D02*
X95400857Y-49842057D01*
X95400857Y-49842057D02*
X95448476Y-49794438D01*
X95448476Y-49794438D02*
X95400857Y-49746819D01*
X95400857Y-49746819D02*
X95400857Y-49842057D01*
X95877047Y-50080152D02*
X95877047Y-50746819D01*
X95877047Y-50175390D02*
X95924666Y-50127771D01*
X95924666Y-50127771D02*
X96019904Y-50080152D01*
X96019904Y-50080152D02*
X96162761Y-50080152D01*
X96162761Y-50080152D02*
X96257999Y-50127771D01*
X96257999Y-50127771D02*
X96305618Y-50223009D01*
X96305618Y-50223009D02*
X96305618Y-50746819D01*
X97210380Y-50080152D02*
X97210380Y-50889676D01*
X97210380Y-50889676D02*
X97162761Y-50984914D01*
X97162761Y-50984914D02*
X97115142Y-51032533D01*
X97115142Y-51032533D02*
X97019904Y-51080152D01*
X97019904Y-51080152D02*
X96877047Y-51080152D01*
X96877047Y-51080152D02*
X96781809Y-51032533D01*
X97210380Y-50699200D02*
X97115142Y-50746819D01*
X97115142Y-50746819D02*
X96924666Y-50746819D01*
X96924666Y-50746819D02*
X96829428Y-50699200D01*
X96829428Y-50699200D02*
X96781809Y-50651580D01*
X96781809Y-50651580D02*
X96734190Y-50556342D01*
X96734190Y-50556342D02*
X96734190Y-50270628D01*
X96734190Y-50270628D02*
X96781809Y-50175390D01*
X96781809Y-50175390D02*
X96829428Y-50127771D01*
X96829428Y-50127771D02*
X96924666Y-50080152D01*
X96924666Y-50080152D02*
X97115142Y-50080152D01*
X97115142Y-50080152D02*
X97210380Y-50127771D01*
X97686571Y-50746819D02*
X97686571Y-49746819D01*
X97686571Y-50223009D02*
X98257999Y-50223009D01*
X98257999Y-50746819D02*
X98257999Y-49746819D01*
X98877047Y-50746819D02*
X98781809Y-50699200D01*
X98781809Y-50699200D02*
X98734190Y-50651580D01*
X98734190Y-50651580D02*
X98686571Y-50556342D01*
X98686571Y-50556342D02*
X98686571Y-50270628D01*
X98686571Y-50270628D02*
X98734190Y-50175390D01*
X98734190Y-50175390D02*
X98781809Y-50127771D01*
X98781809Y-50127771D02*
X98877047Y-50080152D01*
X98877047Y-50080152D02*
X99019904Y-50080152D01*
X99019904Y-50080152D02*
X99115142Y-50127771D01*
X99115142Y-50127771D02*
X99162761Y-50175390D01*
X99162761Y-50175390D02*
X99210380Y-50270628D01*
X99210380Y-50270628D02*
X99210380Y-50556342D01*
X99210380Y-50556342D02*
X99162761Y-50651580D01*
X99162761Y-50651580D02*
X99115142Y-50699200D01*
X99115142Y-50699200D02*
X99019904Y-50746819D01*
X99019904Y-50746819D02*
X98877047Y-50746819D01*
X99781809Y-50746819D02*
X99686571Y-50699200D01*
X99686571Y-50699200D02*
X99638952Y-50603961D01*
X99638952Y-50603961D02*
X99638952Y-49746819D01*
X100543714Y-50699200D02*
X100448476Y-50746819D01*
X100448476Y-50746819D02*
X100258000Y-50746819D01*
X100258000Y-50746819D02*
X100162762Y-50699200D01*
X100162762Y-50699200D02*
X100115143Y-50603961D01*
X100115143Y-50603961D02*
X100115143Y-50223009D01*
X100115143Y-50223009D02*
X100162762Y-50127771D01*
X100162762Y-50127771D02*
X100258000Y-50080152D01*
X100258000Y-50080152D02*
X100448476Y-50080152D01*
X100448476Y-50080152D02*
X100543714Y-50127771D01*
X100543714Y-50127771D02*
X100591333Y-50223009D01*
X100591333Y-50223009D02*
X100591333Y-50318247D01*
X100591333Y-50318247D02*
X100115143Y-50413485D01*
X180214285Y-49654819D02*
X180214285Y-48654819D01*
X180214285Y-48654819D02*
X180547618Y-49369104D01*
X180547618Y-49369104D02*
X180880951Y-48654819D01*
X180880951Y-48654819D02*
X180880951Y-49654819D01*
X181499999Y-49654819D02*
X181404761Y-49607200D01*
X181404761Y-49607200D02*
X181357142Y-49559580D01*
X181357142Y-49559580D02*
X181309523Y-49464342D01*
X181309523Y-49464342D02*
X181309523Y-49178628D01*
X181309523Y-49178628D02*
X181357142Y-49083390D01*
X181357142Y-49083390D02*
X181404761Y-49035771D01*
X181404761Y-49035771D02*
X181499999Y-48988152D01*
X181499999Y-48988152D02*
X181642856Y-48988152D01*
X181642856Y-48988152D02*
X181738094Y-49035771D01*
X181738094Y-49035771D02*
X181785713Y-49083390D01*
X181785713Y-49083390D02*
X181833332Y-49178628D01*
X181833332Y-49178628D02*
X181833332Y-49464342D01*
X181833332Y-49464342D02*
X181785713Y-49559580D01*
X181785713Y-49559580D02*
X181738094Y-49607200D01*
X181738094Y-49607200D02*
X181642856Y-49654819D01*
X181642856Y-49654819D02*
X181499999Y-49654819D01*
X182690475Y-48988152D02*
X182690475Y-49654819D01*
X182261904Y-48988152D02*
X182261904Y-49511961D01*
X182261904Y-49511961D02*
X182309523Y-49607200D01*
X182309523Y-49607200D02*
X182404761Y-49654819D01*
X182404761Y-49654819D02*
X182547618Y-49654819D01*
X182547618Y-49654819D02*
X182642856Y-49607200D01*
X182642856Y-49607200D02*
X182690475Y-49559580D01*
X183166666Y-48988152D02*
X183166666Y-49654819D01*
X183166666Y-49083390D02*
X183214285Y-49035771D01*
X183214285Y-49035771D02*
X183309523Y-48988152D01*
X183309523Y-48988152D02*
X183452380Y-48988152D01*
X183452380Y-48988152D02*
X183547618Y-49035771D01*
X183547618Y-49035771D02*
X183595237Y-49131009D01*
X183595237Y-49131009D02*
X183595237Y-49654819D01*
X183928571Y-48988152D02*
X184309523Y-48988152D01*
X184071428Y-48654819D02*
X184071428Y-49511961D01*
X184071428Y-49511961D02*
X184119047Y-49607200D01*
X184119047Y-49607200D02*
X184214285Y-49654819D01*
X184214285Y-49654819D02*
X184309523Y-49654819D01*
X184642857Y-49654819D02*
X184642857Y-48988152D01*
X184642857Y-48654819D02*
X184595238Y-48702438D01*
X184595238Y-48702438D02*
X184642857Y-48750057D01*
X184642857Y-48750057D02*
X184690476Y-48702438D01*
X184690476Y-48702438D02*
X184642857Y-48654819D01*
X184642857Y-48654819D02*
X184642857Y-48750057D01*
X185119047Y-48988152D02*
X185119047Y-49654819D01*
X185119047Y-49083390D02*
X185166666Y-49035771D01*
X185166666Y-49035771D02*
X185261904Y-48988152D01*
X185261904Y-48988152D02*
X185404761Y-48988152D01*
X185404761Y-48988152D02*
X185499999Y-49035771D01*
X185499999Y-49035771D02*
X185547618Y-49131009D01*
X185547618Y-49131009D02*
X185547618Y-49654819D01*
X186452380Y-48988152D02*
X186452380Y-49797676D01*
X186452380Y-49797676D02*
X186404761Y-49892914D01*
X186404761Y-49892914D02*
X186357142Y-49940533D01*
X186357142Y-49940533D02*
X186261904Y-49988152D01*
X186261904Y-49988152D02*
X186119047Y-49988152D01*
X186119047Y-49988152D02*
X186023809Y-49940533D01*
X186452380Y-49607200D02*
X186357142Y-49654819D01*
X186357142Y-49654819D02*
X186166666Y-49654819D01*
X186166666Y-49654819D02*
X186071428Y-49607200D01*
X186071428Y-49607200D02*
X186023809Y-49559580D01*
X186023809Y-49559580D02*
X185976190Y-49464342D01*
X185976190Y-49464342D02*
X185976190Y-49178628D01*
X185976190Y-49178628D02*
X186023809Y-49083390D01*
X186023809Y-49083390D02*
X186071428Y-49035771D01*
X186071428Y-49035771D02*
X186166666Y-48988152D01*
X186166666Y-48988152D02*
X186357142Y-48988152D01*
X186357142Y-48988152D02*
X186452380Y-49035771D01*
X186928571Y-49654819D02*
X186928571Y-48654819D01*
X186928571Y-49131009D02*
X187499999Y-49131009D01*
X187499999Y-49654819D02*
X187499999Y-48654819D01*
X188119047Y-49654819D02*
X188023809Y-49607200D01*
X188023809Y-49607200D02*
X187976190Y-49559580D01*
X187976190Y-49559580D02*
X187928571Y-49464342D01*
X187928571Y-49464342D02*
X187928571Y-49178628D01*
X187928571Y-49178628D02*
X187976190Y-49083390D01*
X187976190Y-49083390D02*
X188023809Y-49035771D01*
X188023809Y-49035771D02*
X188119047Y-48988152D01*
X188119047Y-48988152D02*
X188261904Y-48988152D01*
X188261904Y-48988152D02*
X188357142Y-49035771D01*
X188357142Y-49035771D02*
X188404761Y-49083390D01*
X188404761Y-49083390D02*
X188452380Y-49178628D01*
X188452380Y-49178628D02*
X188452380Y-49464342D01*
X188452380Y-49464342D02*
X188404761Y-49559580D01*
X188404761Y-49559580D02*
X188357142Y-49607200D01*
X188357142Y-49607200D02*
X188261904Y-49654819D01*
X188261904Y-49654819D02*
X188119047Y-49654819D01*
X189023809Y-49654819D02*
X188928571Y-49607200D01*
X188928571Y-49607200D02*
X188880952Y-49511961D01*
X188880952Y-49511961D02*
X188880952Y-48654819D01*
X189785714Y-49607200D02*
X189690476Y-49654819D01*
X189690476Y-49654819D02*
X189500000Y-49654819D01*
X189500000Y-49654819D02*
X189404762Y-49607200D01*
X189404762Y-49607200D02*
X189357143Y-49511961D01*
X189357143Y-49511961D02*
X189357143Y-49131009D01*
X189357143Y-49131009D02*
X189404762Y-49035771D01*
X189404762Y-49035771D02*
X189500000Y-48988152D01*
X189500000Y-48988152D02*
X189690476Y-48988152D01*
X189690476Y-48988152D02*
X189785714Y-49035771D01*
X189785714Y-49035771D02*
X189833333Y-49131009D01*
X189833333Y-49131009D02*
X189833333Y-49226247D01*
X189833333Y-49226247D02*
X189357143Y-49321485D01*
D11*
%TO.C,R13*%
X182150000Y-84728000D02*
X186150000Y-84728000D01*
X181120000Y-84438000D02*
X187140000Y-84438000D01*
X187140000Y-84438000D02*
X187140000Y-79138000D01*
X181120000Y-83858000D02*
X181720000Y-83858000D01*
X181720000Y-83858000D02*
X181720000Y-82258000D01*
X186140000Y-83058000D02*
X185610000Y-82808000D01*
X186140000Y-83058000D02*
X186140000Y-80518000D01*
X187140000Y-83058000D02*
X186140000Y-83058000D01*
X185610000Y-82808000D02*
X185610000Y-80768000D01*
X187140000Y-82808000D02*
X186140000Y-82808000D01*
X181720000Y-82258000D02*
X181120000Y-82258000D01*
X181120000Y-81318000D02*
X181720000Y-81318000D01*
X181720000Y-81318000D02*
X181720000Y-79718000D01*
X185610000Y-80768000D02*
X186140000Y-80518000D01*
X187140000Y-80768000D02*
X186140000Y-80768000D01*
X186140000Y-80518000D02*
X187140000Y-80518000D01*
X181720000Y-79718000D02*
X181120000Y-79718000D01*
X181120000Y-79138000D02*
X181120000Y-84438000D01*
X187140000Y-79138000D02*
X181120000Y-79138000D01*
%TO.C,R12*%
X182150000Y-93364000D02*
X186150000Y-93364000D01*
X181120000Y-93074000D02*
X187140000Y-93074000D01*
X187140000Y-93074000D02*
X187140000Y-87774000D01*
X181120000Y-92494000D02*
X181720000Y-92494000D01*
X181720000Y-92494000D02*
X181720000Y-90894000D01*
X186140000Y-91694000D02*
X185610000Y-91444000D01*
X186140000Y-91694000D02*
X186140000Y-89154000D01*
X187140000Y-91694000D02*
X186140000Y-91694000D01*
X185610000Y-91444000D02*
X185610000Y-89404000D01*
X187140000Y-91444000D02*
X186140000Y-91444000D01*
X181720000Y-90894000D02*
X181120000Y-90894000D01*
X181120000Y-89954000D02*
X181720000Y-89954000D01*
X181720000Y-89954000D02*
X181720000Y-88354000D01*
X185610000Y-89404000D02*
X186140000Y-89154000D01*
X187140000Y-89404000D02*
X186140000Y-89404000D01*
X186140000Y-89154000D02*
X187140000Y-89154000D01*
X181720000Y-88354000D02*
X181120000Y-88354000D01*
X181120000Y-87774000D02*
X181120000Y-93074000D01*
X187140000Y-87774000D02*
X181120000Y-87774000D01*
%TO.C,R10*%
X149206000Y-65076000D02*
X149206000Y-69076000D01*
X149496000Y-64046000D02*
X149496000Y-70066000D01*
X149496000Y-70066000D02*
X154796000Y-70066000D01*
X150076000Y-64046000D02*
X150076000Y-64646000D01*
X150076000Y-64646000D02*
X151676000Y-64646000D01*
X150876000Y-69066000D02*
X151126000Y-68536000D01*
X150876000Y-69066000D02*
X153416000Y-69066000D01*
X150876000Y-70066000D02*
X150876000Y-69066000D01*
X151126000Y-68536000D02*
X153166000Y-68536000D01*
X151126000Y-70066000D02*
X151126000Y-69066000D01*
X151676000Y-64646000D02*
X151676000Y-64046000D01*
X152616000Y-64046000D02*
X152616000Y-64646000D01*
X152616000Y-64646000D02*
X154216000Y-64646000D01*
X153166000Y-68536000D02*
X153416000Y-69066000D01*
X153166000Y-70066000D02*
X153166000Y-69066000D01*
X153416000Y-69066000D02*
X153416000Y-70066000D01*
X154216000Y-64646000D02*
X154216000Y-64046000D01*
X154796000Y-64046000D02*
X149496000Y-64046000D01*
X154796000Y-70066000D02*
X154796000Y-64046000D01*
%TO.C,R9*%
X140443000Y-65183000D02*
X140443000Y-69183000D01*
X140733000Y-64153000D02*
X140733000Y-70173000D01*
X140733000Y-70173000D02*
X146033000Y-70173000D01*
X141313000Y-64153000D02*
X141313000Y-64753000D01*
X141313000Y-64753000D02*
X142913000Y-64753000D01*
X142113000Y-69173000D02*
X142363000Y-68643000D01*
X142113000Y-69173000D02*
X144653000Y-69173000D01*
X142113000Y-70173000D02*
X142113000Y-69173000D01*
X142363000Y-68643000D02*
X144403000Y-68643000D01*
X142363000Y-70173000D02*
X142363000Y-69173000D01*
X142913000Y-64753000D02*
X142913000Y-64153000D01*
X143853000Y-64153000D02*
X143853000Y-64753000D01*
X143853000Y-64753000D02*
X145453000Y-64753000D01*
X144403000Y-68643000D02*
X144653000Y-69173000D01*
X144403000Y-70173000D02*
X144403000Y-69173000D01*
X144653000Y-69173000D02*
X144653000Y-70173000D01*
X145453000Y-64753000D02*
X145453000Y-64153000D01*
X146033000Y-64153000D02*
X140733000Y-64153000D01*
X146033000Y-70173000D02*
X146033000Y-64153000D01*
%TO.C,R8*%
X132442000Y-65183000D02*
X132442000Y-69183000D01*
X132732000Y-64153000D02*
X132732000Y-70173000D01*
X132732000Y-70173000D02*
X138032000Y-70173000D01*
X133312000Y-64153000D02*
X133312000Y-64753000D01*
X133312000Y-64753000D02*
X134912000Y-64753000D01*
X134112000Y-69173000D02*
X134362000Y-68643000D01*
X134112000Y-69173000D02*
X136652000Y-69173000D01*
X134112000Y-70173000D02*
X134112000Y-69173000D01*
X134362000Y-68643000D02*
X136402000Y-68643000D01*
X134362000Y-70173000D02*
X134362000Y-69173000D01*
X134912000Y-64753000D02*
X134912000Y-64153000D01*
X135852000Y-64153000D02*
X135852000Y-64753000D01*
X135852000Y-64753000D02*
X137452000Y-64753000D01*
X136402000Y-68643000D02*
X136652000Y-69173000D01*
X136402000Y-70173000D02*
X136402000Y-69173000D01*
X136652000Y-69173000D02*
X136652000Y-70173000D01*
X137452000Y-64753000D02*
X137452000Y-64153000D01*
X138032000Y-64153000D02*
X132732000Y-64153000D01*
X138032000Y-70173000D02*
X138032000Y-64153000D01*
%TO.C,R7*%
X112300000Y-58566000D02*
X116300000Y-58566000D01*
X111270000Y-58276000D02*
X117290000Y-58276000D01*
X117290000Y-58276000D02*
X117290000Y-52976000D01*
X111270000Y-57696000D02*
X111870000Y-57696000D01*
X111870000Y-57696000D02*
X111870000Y-56096000D01*
X116290000Y-56896000D02*
X115760000Y-56646000D01*
X116290000Y-56896000D02*
X116290000Y-54356000D01*
X117290000Y-56896000D02*
X116290000Y-56896000D01*
X115760000Y-56646000D02*
X115760000Y-54606000D01*
X117290000Y-56646000D02*
X116290000Y-56646000D01*
X111870000Y-56096000D02*
X111270000Y-56096000D01*
X111270000Y-55156000D02*
X111870000Y-55156000D01*
X111870000Y-55156000D02*
X111870000Y-53556000D01*
X115760000Y-54606000D02*
X116290000Y-54356000D01*
X117290000Y-54606000D02*
X116290000Y-54606000D01*
X116290000Y-54356000D02*
X117290000Y-54356000D01*
X111870000Y-53556000D02*
X111270000Y-53556000D01*
X111270000Y-52976000D02*
X111270000Y-58276000D01*
X117290000Y-52976000D02*
X111270000Y-52976000D01*
%TO.C,R4*%
X112300000Y-70504000D02*
X116300000Y-70504000D01*
X111270000Y-70214000D02*
X117290000Y-70214000D01*
X117290000Y-70214000D02*
X117290000Y-64914000D01*
X111270000Y-69634000D02*
X111870000Y-69634000D01*
X111870000Y-69634000D02*
X111870000Y-68034000D01*
X116290000Y-68834000D02*
X115760000Y-68584000D01*
X116290000Y-68834000D02*
X116290000Y-66294000D01*
X117290000Y-68834000D02*
X116290000Y-68834000D01*
X115760000Y-68584000D02*
X115760000Y-66544000D01*
X117290000Y-68584000D02*
X116290000Y-68584000D01*
X111870000Y-68034000D02*
X111270000Y-68034000D01*
X111270000Y-67094000D02*
X111870000Y-67094000D01*
X111870000Y-67094000D02*
X111870000Y-65494000D01*
X115760000Y-66544000D02*
X116290000Y-66294000D01*
X117290000Y-66544000D02*
X116290000Y-66544000D01*
X116290000Y-66294000D02*
X117290000Y-66294000D01*
X111870000Y-65494000D02*
X111270000Y-65494000D01*
X111270000Y-64914000D02*
X111270000Y-70214000D01*
X117290000Y-64914000D02*
X111270000Y-64914000D01*
%TO.C,R3*%
X112300000Y-48025000D02*
X116300000Y-48025000D01*
X111270000Y-47735000D02*
X117290000Y-47735000D01*
X117290000Y-47735000D02*
X117290000Y-42435000D01*
X111270000Y-47155000D02*
X111870000Y-47155000D01*
X111870000Y-47155000D02*
X111870000Y-45555000D01*
X116290000Y-46355000D02*
X115760000Y-46105000D01*
X116290000Y-46355000D02*
X116290000Y-43815000D01*
X117290000Y-46355000D02*
X116290000Y-46355000D01*
X115760000Y-46105000D02*
X115760000Y-44065000D01*
X117290000Y-46105000D02*
X116290000Y-46105000D01*
X111870000Y-45555000D02*
X111270000Y-45555000D01*
X111270000Y-44615000D02*
X111870000Y-44615000D01*
X111870000Y-44615000D02*
X111870000Y-43015000D01*
X115760000Y-44065000D02*
X116290000Y-43815000D01*
X117290000Y-44065000D02*
X116290000Y-44065000D01*
X116290000Y-43815000D02*
X117290000Y-43815000D01*
X111870000Y-43015000D02*
X111270000Y-43015000D01*
X111270000Y-42435000D02*
X111270000Y-47735000D01*
X117290000Y-42435000D02*
X111270000Y-42435000D01*
%TO.C,R2*%
X159493000Y-105442000D02*
X159493000Y-109442000D01*
X159783000Y-104412000D02*
X159783000Y-110432000D01*
X159783000Y-110432000D02*
X165083000Y-110432000D01*
X160363000Y-104412000D02*
X160363000Y-105012000D01*
X160363000Y-105012000D02*
X161963000Y-105012000D01*
X161163000Y-109432000D02*
X161413000Y-108902000D01*
X161163000Y-109432000D02*
X163703000Y-109432000D01*
X161163000Y-110432000D02*
X161163000Y-109432000D01*
X161413000Y-108902000D02*
X163453000Y-108902000D01*
X161413000Y-110432000D02*
X161413000Y-109432000D01*
X161963000Y-105012000D02*
X161963000Y-104412000D01*
X162903000Y-104412000D02*
X162903000Y-105012000D01*
X162903000Y-105012000D02*
X164503000Y-105012000D01*
X163453000Y-108902000D02*
X163703000Y-109432000D01*
X163453000Y-110432000D02*
X163453000Y-109432000D01*
X163703000Y-109432000D02*
X163703000Y-110432000D01*
X164503000Y-105012000D02*
X164503000Y-104412000D01*
X165083000Y-104412000D02*
X159783000Y-104412000D01*
X165083000Y-110432000D02*
X165083000Y-104412000D01*
%TO.C,R1*%
X126473000Y-104680000D02*
X126473000Y-108680000D01*
X126763000Y-103650000D02*
X126763000Y-109670000D01*
X126763000Y-109670000D02*
X132063000Y-109670000D01*
X127343000Y-103650000D02*
X127343000Y-104250000D01*
X127343000Y-104250000D02*
X128943000Y-104250000D01*
X128143000Y-108670000D02*
X128393000Y-108140000D01*
X128143000Y-108670000D02*
X130683000Y-108670000D01*
X128143000Y-109670000D02*
X128143000Y-108670000D01*
X128393000Y-108140000D02*
X130433000Y-108140000D01*
X128393000Y-109670000D02*
X128393000Y-108670000D01*
X128943000Y-104250000D02*
X128943000Y-103650000D01*
X129883000Y-103650000D02*
X129883000Y-104250000D01*
X129883000Y-104250000D02*
X131483000Y-104250000D01*
X130433000Y-108140000D02*
X130683000Y-108670000D01*
X130433000Y-109670000D02*
X130433000Y-108670000D01*
X130683000Y-108670000D02*
X130683000Y-109670000D01*
X131483000Y-104250000D02*
X131483000Y-103650000D01*
X132063000Y-103650000D02*
X126763000Y-103650000D01*
X132063000Y-109670000D02*
X132063000Y-103650000D01*
%TO.C,C9*%
X111982000Y-90532000D02*
X107982000Y-90532000D01*
X113012000Y-90822000D02*
X106992000Y-90822000D01*
X106992000Y-90822000D02*
X106992000Y-96122000D01*
X113012000Y-91402000D02*
X112412000Y-91402000D01*
X112412000Y-91402000D02*
X112412000Y-93002000D01*
X107992000Y-92202000D02*
X108522000Y-92452000D01*
X107992000Y-92202000D02*
X107992000Y-94742000D01*
X106992000Y-92202000D02*
X107992000Y-92202000D01*
X108522000Y-92452000D02*
X108522000Y-94492000D01*
X106992000Y-92452000D02*
X107992000Y-92452000D01*
X112412000Y-93002000D02*
X113012000Y-93002000D01*
X113012000Y-93942000D02*
X112412000Y-93942000D01*
X112412000Y-93942000D02*
X112412000Y-95542000D01*
X108522000Y-94492000D02*
X107992000Y-94742000D01*
X106992000Y-94492000D02*
X107992000Y-94492000D01*
X107992000Y-94742000D02*
X106992000Y-94742000D01*
X112412000Y-95542000D02*
X113012000Y-95542000D01*
X113012000Y-96122000D02*
X113012000Y-90822000D01*
X106992000Y-96122000D02*
X113012000Y-96122000D01*
%TO.C,C8*%
X112597000Y-103486000D02*
X108597000Y-103486000D01*
X113627000Y-103776000D02*
X107607000Y-103776000D01*
X107607000Y-103776000D02*
X107607000Y-109076000D01*
X113627000Y-104356000D02*
X113027000Y-104356000D01*
X113027000Y-104356000D02*
X113027000Y-105956000D01*
X108607000Y-105156000D02*
X109137000Y-105406000D01*
X108607000Y-105156000D02*
X108607000Y-107696000D01*
X107607000Y-105156000D02*
X108607000Y-105156000D01*
X109137000Y-105406000D02*
X109137000Y-107446000D01*
X107607000Y-105406000D02*
X108607000Y-105406000D01*
X113027000Y-105956000D02*
X113627000Y-105956000D01*
X113627000Y-106896000D02*
X113027000Y-106896000D01*
X113027000Y-106896000D02*
X113027000Y-108496000D01*
X109137000Y-107446000D02*
X108607000Y-107696000D01*
X107607000Y-107446000D02*
X108607000Y-107446000D01*
X108607000Y-107696000D02*
X107607000Y-107696000D01*
X113027000Y-108496000D02*
X113627000Y-108496000D01*
X113627000Y-109076000D02*
X113627000Y-103776000D01*
X107607000Y-109076000D02*
X113627000Y-109076000D01*
%TO.C,C7*%
X170720000Y-84601000D02*
X174720000Y-84601000D01*
X169690000Y-84311000D02*
X175710000Y-84311000D01*
X175710000Y-84311000D02*
X175710000Y-79011000D01*
X169690000Y-83731000D02*
X170290000Y-83731000D01*
X170290000Y-83731000D02*
X170290000Y-82131000D01*
X174710000Y-82931000D02*
X174180000Y-82681000D01*
X174710000Y-82931000D02*
X174710000Y-80391000D01*
X175710000Y-82931000D02*
X174710000Y-82931000D01*
X174180000Y-82681000D02*
X174180000Y-80641000D01*
X175710000Y-82681000D02*
X174710000Y-82681000D01*
X170290000Y-82131000D02*
X169690000Y-82131000D01*
X169690000Y-81191000D02*
X170290000Y-81191000D01*
X170290000Y-81191000D02*
X170290000Y-79591000D01*
X174180000Y-80641000D02*
X174710000Y-80391000D01*
X175710000Y-80641000D02*
X174710000Y-80641000D01*
X174710000Y-80391000D02*
X175710000Y-80391000D01*
X170290000Y-79591000D02*
X169690000Y-79591000D01*
X169690000Y-79011000D02*
X169690000Y-84311000D01*
X175710000Y-79011000D02*
X169690000Y-79011000D01*
%TO.C,C6*%
X170339000Y-101746000D02*
X174339000Y-101746000D01*
X169309000Y-101456000D02*
X175329000Y-101456000D01*
X175329000Y-101456000D02*
X175329000Y-96156000D01*
X169309000Y-100876000D02*
X169909000Y-100876000D01*
X169909000Y-100876000D02*
X169909000Y-99276000D01*
X174329000Y-100076000D02*
X173799000Y-99826000D01*
X174329000Y-100076000D02*
X174329000Y-97536000D01*
X175329000Y-100076000D02*
X174329000Y-100076000D01*
X173799000Y-99826000D02*
X173799000Y-97786000D01*
X175329000Y-99826000D02*
X174329000Y-99826000D01*
X169909000Y-99276000D02*
X169309000Y-99276000D01*
X169309000Y-98336000D02*
X169909000Y-98336000D01*
X169909000Y-98336000D02*
X169909000Y-96736000D01*
X173799000Y-97786000D02*
X174329000Y-97536000D01*
X175329000Y-97786000D02*
X174329000Y-97786000D01*
X174329000Y-97536000D02*
X175329000Y-97536000D01*
X169909000Y-96736000D02*
X169309000Y-96736000D01*
X169309000Y-96156000D02*
X169309000Y-101456000D01*
X175329000Y-96156000D02*
X169309000Y-96156000D01*
%TO.C,C5*%
X170339000Y-93364000D02*
X174339000Y-93364000D01*
X169309000Y-93074000D02*
X175329000Y-93074000D01*
X175329000Y-93074000D02*
X175329000Y-87774000D01*
X169309000Y-92494000D02*
X169909000Y-92494000D01*
X169909000Y-92494000D02*
X169909000Y-90894000D01*
X174329000Y-91694000D02*
X173799000Y-91444000D01*
X174329000Y-91694000D02*
X174329000Y-89154000D01*
X175329000Y-91694000D02*
X174329000Y-91694000D01*
X173799000Y-91444000D02*
X173799000Y-89404000D01*
X175329000Y-91444000D02*
X174329000Y-91444000D01*
X169909000Y-90894000D02*
X169309000Y-90894000D01*
X169309000Y-89954000D02*
X169909000Y-89954000D01*
X169909000Y-89954000D02*
X169909000Y-88354000D01*
X173799000Y-89404000D02*
X174329000Y-89154000D01*
X175329000Y-89404000D02*
X174329000Y-89404000D01*
X174329000Y-89154000D02*
X175329000Y-89154000D01*
X169909000Y-88354000D02*
X169309000Y-88354000D01*
X169309000Y-87774000D02*
X169309000Y-93074000D01*
X175329000Y-87774000D02*
X169309000Y-87774000D01*
%TO.C,C3*%
X108617000Y-121431000D02*
X112617000Y-121431000D01*
X107587000Y-121141000D02*
X113607000Y-121141000D01*
X113607000Y-121141000D02*
X113607000Y-115841000D01*
X107587000Y-120561000D02*
X108187000Y-120561000D01*
X108187000Y-120561000D02*
X108187000Y-118961000D01*
X112607000Y-119761000D02*
X112077000Y-119511000D01*
X112607000Y-119761000D02*
X112607000Y-117221000D01*
X113607000Y-119761000D02*
X112607000Y-119761000D01*
X112077000Y-119511000D02*
X112077000Y-117471000D01*
X113607000Y-119511000D02*
X112607000Y-119511000D01*
X108187000Y-118961000D02*
X107587000Y-118961000D01*
X107587000Y-118021000D02*
X108187000Y-118021000D01*
X108187000Y-118021000D02*
X108187000Y-116421000D01*
X112077000Y-117471000D02*
X112607000Y-117221000D01*
X113607000Y-117471000D02*
X112607000Y-117471000D01*
X112607000Y-117221000D02*
X113607000Y-117221000D01*
X108187000Y-116421000D02*
X107587000Y-116421000D01*
X107587000Y-115841000D02*
X107587000Y-121141000D01*
X113607000Y-115841000D02*
X107587000Y-115841000D01*
D12*
%TO.C,U4*%
X101683500Y-99377500D02*
X101683500Y-88836500D01*
X101683500Y-88836500D02*
X96984500Y-88836500D01*
X96984500Y-88836500D02*
X96984500Y-99377500D01*
X96984500Y-99377500D02*
X101683500Y-99377500D01*
%TO.C,U3*%
X99461000Y-114681000D02*
G75*
G02*
X99207000Y-114681000I-127000J0D01*
G01*
X99207000Y-114681000D02*
G75*
G02*
X99461000Y-114681000I127000J0D01*
G01*
X101874000Y-112903000D02*
X101874000Y-101981000D01*
X101874000Y-101981000D02*
X96794000Y-101981000D01*
X96794000Y-101981000D02*
X96794000Y-112903000D01*
X96794000Y-112903000D02*
X101874000Y-112903000D01*
D11*
%TO.C,U2*%
X181824000Y-108859000D02*
X179874000Y-108859000D01*
X181824000Y-108859000D02*
X183774000Y-108859000D01*
X181824000Y-118979000D02*
X179874000Y-118979000D01*
X181824000Y-118979000D02*
X183774000Y-118979000D01*
X179099000Y-108914000D02*
X178859000Y-108584000D01*
X179339000Y-108584000D01*
X179099000Y-108914000D01*
G36*
X179099000Y-108914000D02*
G01*
X178859000Y-108584000D01*
X179339000Y-108584000D01*
X179099000Y-108914000D01*
G37*
%TO.C,U1*%
X133128000Y-40550000D02*
X132628000Y-40550000D01*
X133128000Y-40050000D01*
X133128000Y-40550000D01*
G36*
X133128000Y-40550000D02*
G01*
X132628000Y-40550000D01*
X133128000Y-40050000D01*
X133128000Y-40550000D01*
G37*
X151373000Y-59405000D02*
X150373000Y-59405000D01*
X151373000Y-58625000D02*
X151373000Y-59405000D01*
X151373000Y-33665000D02*
X151373000Y-40080000D01*
X133133000Y-59405000D02*
X134133000Y-59405000D01*
X133133000Y-58625000D02*
X133133000Y-59405000D01*
X133133000Y-33665000D02*
X151373000Y-33665000D01*
X133133000Y-33665000D02*
X133133000Y-39825000D01*
D13*
%TO.C,SW2*%
X156051000Y-115134000D02*
G75*
G02*
X155651000Y-115134000I-200000J0D01*
G01*
X155651000Y-115134000D02*
G75*
G02*
X156051000Y-115134000I200000J0D01*
G01*
D14*
X159208880Y-120384000D02*
X165201000Y-120384000D01*
X165201000Y-120384000D02*
X165201000Y-114384000D01*
X165201000Y-114384000D02*
X159201000Y-114384000D01*
X159201000Y-114384000D02*
X159201260Y-120381200D01*
X163951000Y-117384000D02*
G75*
G02*
X160451000Y-117384000I-1750000J0D01*
G01*
X160451000Y-117384000D02*
G75*
G02*
X163951000Y-117384000I1750000J0D01*
G01*
D13*
%TO.C,SW1*%
X122396000Y-114626000D02*
G75*
G02*
X121996000Y-114626000I-200000J0D01*
G01*
X121996000Y-114626000D02*
G75*
G02*
X122396000Y-114626000I200000J0D01*
G01*
D14*
X125553880Y-119876000D02*
X131546000Y-119876000D01*
X131546000Y-119876000D02*
X131546000Y-113876000D01*
X131546000Y-113876000D02*
X125546000Y-113876000D01*
X125546000Y-113876000D02*
X125546260Y-119873200D01*
X130296000Y-116876000D02*
G75*
G02*
X126796000Y-116876000I-1750000J0D01*
G01*
X126796000Y-116876000D02*
G75*
G02*
X130296000Y-116876000I1750000J0D01*
G01*
D11*
%TO.C,J13*%
X169767000Y-63354000D02*
X165767000Y-63354000D01*
X170797000Y-63644000D02*
X164777000Y-63644000D01*
X164777000Y-63644000D02*
X164777000Y-71484000D01*
X170797000Y-64224000D02*
X170197000Y-64224000D01*
X170197000Y-64224000D02*
X170197000Y-65824000D01*
X165777000Y-65024000D02*
X166307000Y-65274000D01*
X165777000Y-65024000D02*
X165777000Y-70104000D01*
X164777000Y-65024000D02*
X165777000Y-65024000D01*
X166307000Y-65274000D02*
X166307000Y-69854000D01*
X164777000Y-65274000D02*
X165777000Y-65274000D01*
X170197000Y-65824000D02*
X170797000Y-65824000D01*
X170797000Y-66764000D02*
X170197000Y-66764000D01*
X170197000Y-66764000D02*
X170197000Y-68364000D01*
X170197000Y-68364000D02*
X170797000Y-68364000D01*
X170797000Y-69304000D02*
X170197000Y-69304000D01*
X170197000Y-69304000D02*
X170197000Y-70904000D01*
X166307000Y-69854000D02*
X165777000Y-70104000D01*
X164777000Y-69854000D02*
X165777000Y-69854000D01*
X165777000Y-70104000D02*
X164777000Y-70104000D01*
X170197000Y-70904000D02*
X170797000Y-70904000D01*
X170797000Y-71484000D02*
X170797000Y-63644000D01*
X164777000Y-71484000D02*
X170797000Y-71484000D01*
%TO.C,J12*%
X169767000Y-52432000D02*
X165767000Y-52432000D01*
X170797000Y-52722000D02*
X164777000Y-52722000D01*
X164777000Y-52722000D02*
X164777000Y-60562000D01*
X170797000Y-53302000D02*
X170197000Y-53302000D01*
X170197000Y-53302000D02*
X170197000Y-54902000D01*
X165777000Y-54102000D02*
X166307000Y-54352000D01*
X165777000Y-54102000D02*
X165777000Y-59182000D01*
X164777000Y-54102000D02*
X165777000Y-54102000D01*
X166307000Y-54352000D02*
X166307000Y-58932000D01*
X164777000Y-54352000D02*
X165777000Y-54352000D01*
X170197000Y-54902000D02*
X170797000Y-54902000D01*
X170797000Y-55842000D02*
X170197000Y-55842000D01*
X170197000Y-55842000D02*
X170197000Y-57442000D01*
X170197000Y-57442000D02*
X170797000Y-57442000D01*
X170797000Y-58382000D02*
X170197000Y-58382000D01*
X170197000Y-58382000D02*
X170197000Y-59982000D01*
X166307000Y-58932000D02*
X165777000Y-59182000D01*
X164777000Y-58932000D02*
X165777000Y-58932000D01*
X165777000Y-59182000D02*
X164777000Y-59182000D01*
X170197000Y-59982000D02*
X170797000Y-59982000D01*
X170797000Y-60562000D02*
X170797000Y-52722000D01*
X164777000Y-60562000D02*
X170797000Y-60562000D01*
%TO.C,J11*%
X169874000Y-41637000D02*
X165874000Y-41637000D01*
X170904000Y-41927000D02*
X164884000Y-41927000D01*
X164884000Y-41927000D02*
X164884000Y-49767000D01*
X170904000Y-42507000D02*
X170304000Y-42507000D01*
X170304000Y-42507000D02*
X170304000Y-44107000D01*
X165884000Y-43307000D02*
X166414000Y-43557000D01*
X165884000Y-43307000D02*
X165884000Y-48387000D01*
X164884000Y-43307000D02*
X165884000Y-43307000D01*
X166414000Y-43557000D02*
X166414000Y-48137000D01*
X164884000Y-43557000D02*
X165884000Y-43557000D01*
X170304000Y-44107000D02*
X170904000Y-44107000D01*
X170904000Y-45047000D02*
X170304000Y-45047000D01*
X170304000Y-45047000D02*
X170304000Y-46647000D01*
X170304000Y-46647000D02*
X170904000Y-46647000D01*
X170904000Y-47587000D02*
X170304000Y-47587000D01*
X170304000Y-47587000D02*
X170304000Y-49187000D01*
X166414000Y-48137000D02*
X165884000Y-48387000D01*
X164884000Y-48137000D02*
X165884000Y-48137000D01*
X165884000Y-48387000D02*
X164884000Y-48387000D01*
X170304000Y-49187000D02*
X170904000Y-49187000D01*
X170904000Y-49767000D02*
X170904000Y-41927000D01*
X164884000Y-49767000D02*
X170904000Y-49767000D01*
%TO.C,J10*%
X137903000Y-125254000D02*
X137903000Y-129254000D01*
X138193000Y-124224000D02*
X138193000Y-130244000D01*
X138193000Y-130244000D02*
X153653000Y-130244000D01*
X138773000Y-124224000D02*
X138773000Y-124824000D01*
X138773000Y-124824000D02*
X140373000Y-124824000D01*
X139573000Y-129244000D02*
X139823000Y-128714000D01*
X139573000Y-129244000D02*
X152273000Y-129244000D01*
X139573000Y-130244000D02*
X139573000Y-129244000D01*
X139823000Y-128714000D02*
X152023000Y-128714000D01*
X139823000Y-130244000D02*
X139823000Y-129244000D01*
X140373000Y-124824000D02*
X140373000Y-124224000D01*
X141313000Y-124224000D02*
X141313000Y-124824000D01*
X141313000Y-124824000D02*
X142913000Y-124824000D01*
X142913000Y-124824000D02*
X142913000Y-124224000D01*
X143853000Y-124224000D02*
X143853000Y-124824000D01*
X143853000Y-124824000D02*
X145453000Y-124824000D01*
X145453000Y-124824000D02*
X145453000Y-124224000D01*
X146393000Y-124224000D02*
X146393000Y-124824000D01*
X146393000Y-124824000D02*
X147993000Y-124824000D01*
X147993000Y-124824000D02*
X147993000Y-124224000D01*
X148933000Y-124224000D02*
X148933000Y-124824000D01*
X148933000Y-124824000D02*
X150533000Y-124824000D01*
X150533000Y-124824000D02*
X150533000Y-124224000D01*
X151473000Y-124224000D02*
X151473000Y-124824000D01*
X151473000Y-124824000D02*
X153073000Y-124824000D01*
X152023000Y-128714000D02*
X152273000Y-129244000D01*
X152023000Y-130244000D02*
X152023000Y-129244000D01*
X152273000Y-129244000D02*
X152273000Y-130244000D01*
X153073000Y-124824000D02*
X153073000Y-124224000D01*
X153653000Y-124224000D02*
X138193000Y-124224000D01*
X153653000Y-130244000D02*
X153653000Y-124224000D01*
%TO.C,J9*%
X182150000Y-63646000D02*
X186150000Y-63646000D01*
X181120000Y-63356000D02*
X187140000Y-63356000D01*
X187140000Y-63356000D02*
X187140000Y-52976000D01*
X181120000Y-62776000D02*
X181720000Y-62776000D01*
X181720000Y-62776000D02*
X181720000Y-61176000D01*
X186140000Y-61976000D02*
X185610000Y-61726000D01*
X186140000Y-61976000D02*
X186140000Y-54356000D01*
X187140000Y-61976000D02*
X186140000Y-61976000D01*
X185610000Y-61726000D02*
X185610000Y-54606000D01*
X187140000Y-61726000D02*
X186140000Y-61726000D01*
X181720000Y-61176000D02*
X181120000Y-61176000D01*
X181120000Y-60236000D02*
X181720000Y-60236000D01*
X181720000Y-60236000D02*
X181720000Y-58636000D01*
X181720000Y-58636000D02*
X181120000Y-58636000D01*
X181120000Y-57696000D02*
X181720000Y-57696000D01*
X181720000Y-57696000D02*
X181720000Y-56096000D01*
X181720000Y-56096000D02*
X181120000Y-56096000D01*
X181120000Y-55156000D02*
X181720000Y-55156000D01*
X181720000Y-55156000D02*
X181720000Y-53556000D01*
X185610000Y-54606000D02*
X186140000Y-54356000D01*
X187140000Y-54606000D02*
X186140000Y-54606000D01*
X186140000Y-54356000D02*
X187140000Y-54356000D01*
X181720000Y-53556000D02*
X181120000Y-53556000D01*
X181120000Y-52976000D02*
X181120000Y-63356000D01*
X187140000Y-52976000D02*
X181120000Y-52976000D01*
%TO.C,J8*%
X149079000Y-74347000D02*
X149079000Y-78347000D01*
X149369000Y-73317000D02*
X149369000Y-79337000D01*
X149369000Y-79337000D02*
X154669000Y-79337000D01*
X149949000Y-73317000D02*
X149949000Y-73917000D01*
X149949000Y-73917000D02*
X151549000Y-73917000D01*
X150749000Y-78337000D02*
X150999000Y-77807000D01*
X150749000Y-78337000D02*
X153289000Y-78337000D01*
X150749000Y-79337000D02*
X150749000Y-78337000D01*
X150999000Y-77807000D02*
X153039000Y-77807000D01*
X150999000Y-79337000D02*
X150999000Y-78337000D01*
X151549000Y-73917000D02*
X151549000Y-73317000D01*
X152489000Y-73317000D02*
X152489000Y-73917000D01*
X152489000Y-73917000D02*
X154089000Y-73917000D01*
X153039000Y-77807000D02*
X153289000Y-78337000D01*
X153039000Y-79337000D02*
X153039000Y-78337000D01*
X153289000Y-78337000D02*
X153289000Y-79337000D01*
X154089000Y-73917000D02*
X154089000Y-73317000D01*
X154669000Y-73317000D02*
X149369000Y-73317000D01*
X154669000Y-79337000D02*
X154669000Y-73317000D01*
%TO.C,J7*%
X140697000Y-74327000D02*
X140697000Y-78327000D01*
X140987000Y-73297000D02*
X140987000Y-79317000D01*
X140987000Y-79317000D02*
X146287000Y-79317000D01*
X141567000Y-73297000D02*
X141567000Y-73897000D01*
X141567000Y-73897000D02*
X143167000Y-73897000D01*
X142367000Y-78317000D02*
X142617000Y-77787000D01*
X142367000Y-78317000D02*
X144907000Y-78317000D01*
X142367000Y-79317000D02*
X142367000Y-78317000D01*
X142617000Y-77787000D02*
X144657000Y-77787000D01*
X142617000Y-79317000D02*
X142617000Y-78317000D01*
X143167000Y-73897000D02*
X143167000Y-73297000D01*
X144107000Y-73297000D02*
X144107000Y-73897000D01*
X144107000Y-73897000D02*
X145707000Y-73897000D01*
X144657000Y-77787000D02*
X144907000Y-78317000D01*
X144657000Y-79317000D02*
X144657000Y-78317000D01*
X144907000Y-78317000D02*
X144907000Y-79317000D01*
X145707000Y-73897000D02*
X145707000Y-73297000D01*
X146287000Y-73297000D02*
X140987000Y-73297000D01*
X146287000Y-79317000D02*
X146287000Y-73297000D01*
%TO.C,J6*%
X132315000Y-74474000D02*
X132315000Y-78474000D01*
X132605000Y-73444000D02*
X132605000Y-79464000D01*
X132605000Y-79464000D02*
X137905000Y-79464000D01*
X133185000Y-73444000D02*
X133185000Y-74044000D01*
X133185000Y-74044000D02*
X134785000Y-74044000D01*
X133985000Y-78464000D02*
X134235000Y-77934000D01*
X133985000Y-78464000D02*
X136525000Y-78464000D01*
X133985000Y-79464000D02*
X133985000Y-78464000D01*
X134235000Y-77934000D02*
X136275000Y-77934000D01*
X134235000Y-79464000D02*
X134235000Y-78464000D01*
X134785000Y-74044000D02*
X134785000Y-73444000D01*
X135725000Y-73444000D02*
X135725000Y-74044000D01*
X135725000Y-74044000D02*
X137325000Y-74044000D01*
X136275000Y-77934000D02*
X136525000Y-78464000D01*
X136275000Y-79464000D02*
X136275000Y-78464000D01*
X136525000Y-78464000D02*
X136525000Y-79464000D01*
X137325000Y-74044000D02*
X137325000Y-73444000D01*
X137905000Y-73444000D02*
X132605000Y-73444000D01*
X137905000Y-79464000D02*
X137905000Y-73444000D01*
%TO.C,J5*%
X101708000Y-54134000D02*
X101708000Y-58134000D01*
X101998000Y-53104000D02*
X101998000Y-59124000D01*
X101998000Y-59124000D02*
X107298000Y-59124000D01*
X102578000Y-53104000D02*
X102578000Y-53704000D01*
X102578000Y-53704000D02*
X104178000Y-53704000D01*
X103378000Y-58124000D02*
X103628000Y-57594000D01*
X103378000Y-58124000D02*
X105918000Y-58124000D01*
X103378000Y-59124000D02*
X103378000Y-58124000D01*
X103628000Y-57594000D02*
X105668000Y-57594000D01*
X103628000Y-59124000D02*
X103628000Y-58124000D01*
X104178000Y-53704000D02*
X104178000Y-53104000D01*
X105118000Y-53104000D02*
X105118000Y-53704000D01*
X105118000Y-53704000D02*
X106718000Y-53704000D01*
X105668000Y-57594000D02*
X105918000Y-58124000D01*
X105668000Y-59124000D02*
X105668000Y-58124000D01*
X105918000Y-58124000D02*
X105918000Y-59124000D01*
X106718000Y-53704000D02*
X106718000Y-53104000D01*
X107298000Y-53104000D02*
X101998000Y-53104000D01*
X107298000Y-59124000D02*
X107298000Y-53104000D01*
%TO.C,J4*%
X101060000Y-115678000D02*
X97060000Y-115678000D01*
X102090000Y-115968000D02*
X96070000Y-115968000D01*
X96070000Y-115968000D02*
X96070000Y-121268000D01*
X102090000Y-116548000D02*
X101490000Y-116548000D01*
X101490000Y-116548000D02*
X101490000Y-118148000D01*
X97070000Y-117348000D02*
X97600000Y-117598000D01*
X97070000Y-117348000D02*
X97070000Y-119888000D01*
X96070000Y-117348000D02*
X97070000Y-117348000D01*
X97600000Y-117598000D02*
X97600000Y-119638000D01*
X96070000Y-117598000D02*
X97070000Y-117598000D01*
X101490000Y-118148000D02*
X102090000Y-118148000D01*
X102090000Y-119088000D02*
X101490000Y-119088000D01*
X101490000Y-119088000D02*
X101490000Y-120688000D01*
X97600000Y-119638000D02*
X97070000Y-119888000D01*
X96070000Y-119638000D02*
X97070000Y-119638000D01*
X97070000Y-119888000D02*
X96070000Y-119888000D01*
X101490000Y-120688000D02*
X102090000Y-120688000D01*
X102090000Y-121268000D02*
X102090000Y-115968000D01*
X96070000Y-121268000D02*
X102090000Y-121268000D01*
%TO.C,J2*%
X101454000Y-65945000D02*
X101454000Y-69945000D01*
X101744000Y-64915000D02*
X101744000Y-70935000D01*
X101744000Y-70935000D02*
X107044000Y-70935000D01*
X102324000Y-64915000D02*
X102324000Y-65515000D01*
X102324000Y-65515000D02*
X103924000Y-65515000D01*
X103124000Y-69935000D02*
X103374000Y-69405000D01*
X103124000Y-69935000D02*
X105664000Y-69935000D01*
X103124000Y-70935000D02*
X103124000Y-69935000D01*
X103374000Y-69405000D02*
X105414000Y-69405000D01*
X103374000Y-70935000D02*
X103374000Y-69935000D01*
X103924000Y-65515000D02*
X103924000Y-64915000D01*
X104864000Y-64915000D02*
X104864000Y-65515000D01*
X104864000Y-65515000D02*
X106464000Y-65515000D01*
X105414000Y-69405000D02*
X105664000Y-69935000D01*
X105414000Y-70935000D02*
X105414000Y-69935000D01*
X105664000Y-69935000D02*
X105664000Y-70935000D01*
X106464000Y-65515000D02*
X106464000Y-64915000D01*
X107044000Y-64915000D02*
X101744000Y-64915000D01*
X107044000Y-70935000D02*
X107044000Y-64915000D01*
%TO.C,J1*%
X101835000Y-43339000D02*
X101835000Y-47339000D01*
X102125000Y-42309000D02*
X102125000Y-48329000D01*
X102125000Y-48329000D02*
X107425000Y-48329000D01*
X102705000Y-42309000D02*
X102705000Y-42909000D01*
X102705000Y-42909000D02*
X104305000Y-42909000D01*
X103505000Y-47329000D02*
X103755000Y-46799000D01*
X103505000Y-47329000D02*
X106045000Y-47329000D01*
X103505000Y-48329000D02*
X103505000Y-47329000D01*
X103755000Y-46799000D02*
X105795000Y-46799000D01*
X103755000Y-48329000D02*
X103755000Y-47329000D01*
X104305000Y-42909000D02*
X104305000Y-42309000D01*
X105245000Y-42309000D02*
X105245000Y-42909000D01*
X105245000Y-42909000D02*
X106845000Y-42909000D01*
X105795000Y-46799000D02*
X106045000Y-47329000D01*
X105795000Y-48329000D02*
X105795000Y-47329000D01*
X106045000Y-47329000D02*
X106045000Y-48329000D01*
X106845000Y-42909000D02*
X106845000Y-42309000D01*
X107425000Y-42309000D02*
X102125000Y-42309000D01*
X107425000Y-48329000D02*
X107425000Y-42309000D01*
%TD*%
M02*
