%TF.GenerationSoftware,KiCad,Pcbnew,8.0.8*%
%TF.CreationDate,2025-04-22T11:25:48-05:00*%
%TF.ProjectId,LastChance,4c617374-4368-4616-9e63-652e6b696361,rev?*%
%TF.SameCoordinates,Original*%
%TF.FileFunction,Copper,L2,Bot*%
%TF.FilePolarity,Positive*%
%FSLAX46Y46*%
G04 Gerber Fmt 4.6, Leading zero omitted, Abs format (unit mm)*
G04 Created by KiCad (PCBNEW 8.0.8) date 2025-04-22 11:25:48*
%MOMM*%
%LPD*%
G01*
G04 APERTURE LIST*
G04 Aperture macros list*
%AMRoundRect*
0 Rectangle with rounded corners*
0 $1 Rounding radius*
0 $2 $3 $4 $5 $6 $7 $8 $9 X,Y pos of 4 corners*
0 Add a 4 corners polygon primitive as box body*
4,1,4,$2,$3,$4,$5,$6,$7,$8,$9,$2,$3,0*
0 Add four circle primitives for the rounded corners*
1,1,$1+$1,$2,$3*
1,1,$1+$1,$4,$5*
1,1,$1+$1,$6,$7*
1,1,$1+$1,$8,$9*
0 Add four rect primitives between the rounded corners*
20,1,$1+$1,$2,$3,$4,$5,0*
20,1,$1+$1,$4,$5,$6,$7,0*
20,1,$1+$1,$6,$7,$8,$9,0*
20,1,$1+$1,$8,$9,$2,$3,0*%
G04 Aperture macros list end*
%TA.AperFunction,ComponentPad*%
%ADD10RoundRect,0.250000X0.845000X-0.620000X0.845000X0.620000X-0.845000X0.620000X-0.845000X-0.620000X0*%
%TD*%
%TA.AperFunction,ComponentPad*%
%ADD11O,2.190000X1.740000*%
%TD*%
%TA.AperFunction,ComponentPad*%
%ADD12RoundRect,0.250000X-0.620000X-0.845000X0.620000X-0.845000X0.620000X0.845000X-0.620000X0.845000X0*%
%TD*%
%TA.AperFunction,ComponentPad*%
%ADD13O,1.740000X2.190000*%
%TD*%
%TA.AperFunction,ComponentPad*%
%ADD14RoundRect,0.250000X-0.845000X0.620000X-0.845000X-0.620000X0.845000X-0.620000X0.845000X0.620000X0*%
%TD*%
%TA.AperFunction,ComponentPad*%
%ADD15RoundRect,0.250000X0.620000X0.845000X-0.620000X0.845000X-0.620000X-0.845000X0.620000X-0.845000X0*%
%TD*%
%TA.AperFunction,ComponentPad*%
%ADD16R,1.879600X1.879600*%
%TD*%
%TA.AperFunction,ComponentPad*%
%ADD17C,1.879600*%
%TD*%
%TA.AperFunction,ComponentPad*%
%ADD18C,1.778000*%
%TD*%
%TA.AperFunction,HeatsinkPad*%
%ADD19C,0.600000*%
%TD*%
%TA.AperFunction,ViaPad*%
%ADD20C,0.600000*%
%TD*%
%TA.AperFunction,Conductor*%
%ADD21C,0.200000*%
%TD*%
G04 APERTURE END LIST*
D10*
%TO.P,R13,1*%
%TO.N,/Singal -*%
X184150000Y-83058000D03*
D11*
%TO.P,R13,2*%
%TO.N,Net-(U2-INA-)*%
X184150000Y-80518000D03*
%TD*%
D10*
%TO.P,R12,1*%
%TO.N,/Signal +*%
X184150000Y-91694000D03*
D11*
%TO.P,R12,2*%
%TO.N,Net-(U2-INA+)*%
X184150000Y-89154000D03*
%TD*%
D12*
%TO.P,R10,1*%
%TO.N,Net-(J8-Pin_1)*%
X150876000Y-67076000D03*
D13*
%TO.P,R10,2*%
%TO.N,/Container 3 LED*%
X153416000Y-67076000D03*
%TD*%
D12*
%TO.P,R9,1*%
%TO.N,Net-(J7-Pin_1)*%
X142113000Y-67183000D03*
D13*
%TO.P,R9,2*%
%TO.N,/Container 2 LED*%
X144653000Y-67183000D03*
%TD*%
D12*
%TO.P,R8,1*%
%TO.N,Net-(J6-Pin_1)*%
X134112000Y-67183000D03*
D13*
%TO.P,R8,2*%
%TO.N,/Container 1 LED*%
X136652000Y-67183000D03*
%TD*%
D10*
%TO.P,R7,1*%
%TO.N,Net-(J5-Pin_1)*%
X114300000Y-56896000D03*
D11*
%TO.P,R7,2*%
%TO.N,/Bluetooth LED*%
X114300000Y-54356000D03*
%TD*%
D10*
%TO.P,R4,1*%
%TO.N,Net-(J2-Pin_1)*%
X114300000Y-68834000D03*
D11*
%TO.P,R4,2*%
%TO.N,/Refill LED*%
X114300000Y-66294000D03*
%TD*%
D10*
%TO.P,R3,1*%
%TO.N,Net-(J1-Pin_1)*%
X114300000Y-46355000D03*
D11*
%TO.P,R3,2*%
%TO.N,/Power LED*%
X114300000Y-43815000D03*
%TD*%
D12*
%TO.P,R2,1*%
%TO.N,+3.3V*%
X161163000Y-107442000D03*
D13*
%TO.P,R2,2*%
%TO.N,Net-(U1-IO0)*%
X163703000Y-107442000D03*
%TD*%
D12*
%TO.P,R1,1*%
%TO.N,+3.3V*%
X128143000Y-106680000D03*
D13*
%TO.P,R1,2*%
%TO.N,Net-(U1-EN)*%
X130683000Y-106680000D03*
%TD*%
D14*
%TO.P,C9,1*%
%TO.N,+3.3V*%
X109982000Y-92202000D03*
D11*
%TO.P,C9,2*%
%TO.N,GND*%
X109982000Y-94742000D03*
%TD*%
D14*
%TO.P,C8,1*%
%TO.N,+5V*%
X110597000Y-105156000D03*
D11*
%TO.P,C8,2*%
%TO.N,GND*%
X110597000Y-107696000D03*
%TD*%
D10*
%TO.P,C7,1*%
%TO.N,+3.3V*%
X172720000Y-82931000D03*
D11*
%TO.P,C7,2*%
%TO.N,GND*%
X172720000Y-80391000D03*
%TD*%
D10*
%TO.P,C6,1*%
%TO.N,+3.3V*%
X172339000Y-100076000D03*
D11*
%TO.P,C6,2*%
%TO.N,GND*%
X172339000Y-97536000D03*
%TD*%
D10*
%TO.P,C5,1*%
%TO.N,Net-(U2-INA+)*%
X172339000Y-91694000D03*
D11*
%TO.P,C5,2*%
%TO.N,Net-(U2-INA-)*%
X172339000Y-89154000D03*
%TD*%
D14*
%TO.P,C4,1*%
%TO.N,Net-(U2-VBG)*%
X183769000Y-97536000D03*
D11*
%TO.P,C4,2*%
%TO.N,GND*%
X183769000Y-100076000D03*
%TD*%
D10*
%TO.P,C3,1*%
%TO.N,GND*%
X110617000Y-119761000D03*
D11*
%TO.P,C3,2*%
%TO.N,Net-(J4-Pin_1)*%
X110617000Y-117221000D03*
%TD*%
D15*
%TO.P,C2,1*%
%TO.N,+3.3V*%
X127381000Y-45085000D03*
D13*
%TO.P,C2,2*%
%TO.N,GND*%
X124841000Y-45085000D03*
%TD*%
D15*
%TO.P,C1,1*%
%TO.N,+3.3V*%
X127508000Y-56134000D03*
D13*
%TO.P,C1,2*%
%TO.N,GND*%
X124968000Y-56134000D03*
%TD*%
D16*
%TO.P,U4,1,IN*%
%TO.N,+5V*%
X99842000Y-96647000D03*
D17*
%TO.P,U4,2,GND*%
%TO.N,GND*%
X99842000Y-94107000D03*
%TO.P,U4,3,OUT*%
%TO.N,+3.3V*%
X99842000Y-91567000D03*
%TD*%
D18*
%TO.P,U3,1,INPUT*%
%TO.N,Net-(J4-Pin_1)*%
X99334000Y-109982000D03*
%TO.P,U3,2,GROUND*%
%TO.N,GND*%
X99334000Y-107442000D03*
%TO.P,U3,3,OUTPUT*%
%TO.N,+5V*%
X99334000Y-104902000D03*
%TD*%
D19*
%TO.P,U1,39,GND*%
%TO.N,GND*%
X142153000Y-49695000D03*
X142153000Y-48295000D03*
X141453000Y-50395000D03*
X141453000Y-48995000D03*
X141453000Y-47595000D03*
X140728000Y-49695000D03*
X140728000Y-48295000D03*
X140053000Y-50395000D03*
X140053000Y-48995000D03*
X140053000Y-47595000D03*
X139353000Y-49695000D03*
X139353000Y-48295000D03*
%TD*%
D14*
%TO.P,J13,1,Pin_1*%
%TO.N,/Servo Signal 3*%
X167767000Y-65024000D03*
D11*
%TO.P,J13,2,Pin_2*%
%TO.N,+5V*%
X167767000Y-67564000D03*
%TO.P,J13,3,Pin_3*%
%TO.N,GND*%
X167767000Y-70104000D03*
%TD*%
D14*
%TO.P,J12,1,Pin_1*%
%TO.N,/Servo Signal 2*%
X167767000Y-54102000D03*
D11*
%TO.P,J12,2,Pin_2*%
%TO.N,+5V*%
X167767000Y-56642000D03*
%TO.P,J12,3,Pin_3*%
%TO.N,GND*%
X167767000Y-59182000D03*
%TD*%
D14*
%TO.P,J11,1,Pin_1*%
%TO.N,/Servo Signal 1*%
X167874000Y-43307000D03*
D11*
%TO.P,J11,2,Pin_2*%
%TO.N,+5V*%
X167874000Y-45847000D03*
%TO.P,J11,3,Pin_3*%
%TO.N,GND*%
X167874000Y-48387000D03*
%TD*%
D12*
%TO.P,J10,1,Pin_1*%
%TO.N,unconnected-(J10-Pin_1-Pad1)*%
X139573000Y-127254000D03*
D13*
%TO.P,J10,2,Pin_2*%
%TO.N,GND*%
X142113000Y-127254000D03*
%TO.P,J10,3,Pin_3*%
%TO.N,/RXD0*%
X144653000Y-127254000D03*
%TO.P,J10,4,Pin_4*%
%TO.N,/TXD0*%
X147193000Y-127254000D03*
%TO.P,J10,5,Pin_5*%
%TO.N,unconnected-(J10-Pin_5-Pad5)*%
X149733000Y-127254000D03*
%TO.P,J10,6,Pin_6*%
%TO.N,+3.3V*%
X152273000Y-127254000D03*
%TD*%
D10*
%TO.P,J9,1,Pin_1*%
%TO.N,+3.3V*%
X184150000Y-61976000D03*
D11*
%TO.P,J9,2,Pin_2*%
%TO.N,GND*%
X184150000Y-59436000D03*
%TO.P,J9,3,Pin_3*%
%TO.N,/Signal +*%
X184150000Y-56896000D03*
%TO.P,J9,4,Pin_4*%
%TO.N,/Singal -*%
X184150000Y-54356000D03*
%TD*%
D12*
%TO.P,J8,1,Pin_1*%
%TO.N,Net-(J8-Pin_1)*%
X150749000Y-76347000D03*
D13*
%TO.P,J8,2,Pin_2*%
%TO.N,GND*%
X153289000Y-76347000D03*
%TD*%
D12*
%TO.P,J7,1,Pin_1*%
%TO.N,Net-(J7-Pin_1)*%
X142367000Y-76327000D03*
D13*
%TO.P,J7,2,Pin_2*%
%TO.N,GND*%
X144907000Y-76327000D03*
%TD*%
D12*
%TO.P,J6,1,Pin_1*%
%TO.N,Net-(J6-Pin_1)*%
X133985000Y-76474000D03*
D13*
%TO.P,J6,2,Pin_2*%
%TO.N,GND*%
X136525000Y-76474000D03*
%TD*%
D12*
%TO.P,J5,1,Pin_1*%
%TO.N,Net-(J5-Pin_1)*%
X103378000Y-56134000D03*
D13*
%TO.P,J5,2,Pin_2*%
%TO.N,GND*%
X105918000Y-56134000D03*
%TD*%
D14*
%TO.P,J4,1,Pin_1*%
%TO.N,Net-(J4-Pin_1)*%
X99060000Y-117348000D03*
D11*
%TO.P,J4,2,Pin_2*%
%TO.N,GND*%
X99060000Y-119888000D03*
%TD*%
D12*
%TO.P,J2,1,Pin_1*%
%TO.N,Net-(J2-Pin_1)*%
X103124000Y-67945000D03*
D13*
%TO.P,J2,2,Pin_2*%
%TO.N,GND*%
X105664000Y-67945000D03*
%TD*%
D12*
%TO.P,J1,1,Pin_1*%
%TO.N,Net-(J1-Pin_1)*%
X103505000Y-45339000D03*
D13*
%TO.P,J1,2,Pin_2*%
%TO.N,GND*%
X106045000Y-45339000D03*
%TD*%
D20*
%TO.N,/RXD0*%
X154559000Y-86233000D03*
X140970000Y-106934000D03*
X146939000Y-90678000D03*
X167132000Y-61976000D03*
X174879000Y-74803000D03*
X173736000Y-62611000D03*
X177419000Y-68961000D03*
%TO.N,/TXD0*%
X157099000Y-57277000D03*
X151003000Y-45085000D03*
X158877000Y-80391000D03*
X158750000Y-73152000D03*
X149733000Y-121920000D03*
%TO.N,/Power LED*%
X126111000Y-49149000D03*
X140589000Y-53721000D03*
%TO.N,/HX711 Digital Output*%
X126238000Y-50038000D03*
X184324000Y-114554000D03*
X175387000Y-134874000D03*
X131572000Y-50165000D03*
%TO.N,/HX711 PD_SCK*%
X126238000Y-51308000D03*
X121158000Y-57150000D03*
X121285000Y-76200000D03*
X186309000Y-119253000D03*
X121158000Y-63246000D03*
X118110000Y-107569000D03*
X186309000Y-120650000D03*
X133503000Y-51435000D03*
%TO.N,Net-(U2-INA+)*%
X179324000Y-118364000D03*
%TO.N,Net-(U2-INA-)*%
X179324000Y-117094000D03*
%TO.N,+3.3V*%
X184324000Y-109474000D03*
%TO.N,Net-(U1-IO0)*%
X161417000Y-67183000D03*
X162179000Y-71755000D03*
X155956000Y-60706000D03*
X155067000Y-57912000D03*
X151003000Y-57785000D03*
%TO.N,/Bluetooth LED*%
X124841000Y-65024000D03*
X133503000Y-55245000D03*
%TO.N,/Refill LED*%
X160274000Y-72898000D03*
%TO.N,/Container 2 LED*%
X133503000Y-56515000D03*
%TO.N,/Servo Signal 3*%
X133503000Y-52705000D03*
%TO.N,/Servo Signal 2*%
X151003000Y-42545000D03*
%TO.N,/Servo Signal 1*%
X151003000Y-43815000D03*
%TO.N,Net-(U1-EN)*%
X130429000Y-96139000D03*
X137414000Y-102997000D03*
%TO.N,+3.3V*%
X124206000Y-99695000D03*
%TO.N,GND*%
X157651000Y-119634000D03*
X123996000Y-119126000D03*
X133503000Y-41275000D03*
%TD*%
D21*
%TO.N,GND*%
X98145000Y-95804000D02*
X98145000Y-106253000D01*
%TO.N,/Refill LED*%
X114300000Y-66294000D02*
X114525000Y-66294000D01*
X114525000Y-66294000D02*
X128143000Y-79912000D01*
%TO.N,/RXD0*%
X177419000Y-72263000D02*
X177419000Y-68961000D01*
X174879000Y-74803000D02*
X177419000Y-72263000D01*
X136271000Y-111633000D02*
X140970000Y-106934000D01*
X167513000Y-62357000D02*
X167132000Y-61976000D01*
X173482000Y-62357000D02*
X167513000Y-62357000D01*
X136523000Y-128649000D02*
X136271000Y-128397000D01*
X150114000Y-90678000D02*
X154559000Y-86233000D01*
X173736000Y-62611000D02*
X173482000Y-62357000D01*
X143258000Y-128649000D02*
X136523000Y-128649000D01*
X146939000Y-90678000D02*
X150114000Y-90678000D01*
X136271000Y-128397000D02*
X136271000Y-111633000D01*
X144653000Y-127254000D02*
X143258000Y-128649000D01*
%TO.N,/TXD0*%
X147193000Y-127254000D02*
X147193000Y-124460000D01*
X158877000Y-80391000D02*
X158877000Y-73279000D01*
X157099000Y-57277000D02*
X157099000Y-51181000D01*
X147193000Y-124460000D02*
X149733000Y-121920000D01*
X158877000Y-73279000D02*
X158750000Y-73152000D01*
X157099000Y-51181000D02*
X151003000Y-45085000D01*
%TO.N,Net-(J4-Pin_1)*%
X99334000Y-109982000D02*
X103378000Y-109982000D01*
X103378000Y-109982000D02*
X110617000Y-117221000D01*
%TO.N,/Power LED*%
X126111000Y-49149000D02*
X136017000Y-49149000D01*
X136017000Y-49149000D02*
X140589000Y-53721000D01*
%TO.N,/HX711 Digital Output*%
X126365000Y-50165000D02*
X126238000Y-50038000D01*
X131572000Y-50165000D02*
X126365000Y-50165000D01*
X175387000Y-134874000D02*
X176149000Y-134112000D01*
X176149000Y-134112000D02*
X176149000Y-119420471D01*
X176149000Y-119420471D02*
X181015471Y-114554000D01*
X181015471Y-114554000D02*
X184324000Y-114554000D01*
%TO.N,/HX711 PD_SCK*%
X133376000Y-51308000D02*
X133503000Y-51435000D01*
X118110000Y-107569000D02*
X118110000Y-107061000D01*
X121158000Y-63246000D02*
X121158000Y-57150000D01*
X126238000Y-51308000D02*
X133376000Y-51308000D01*
X121285000Y-103886000D02*
X121285000Y-76200000D01*
X186309000Y-119253000D02*
X186309000Y-120650000D01*
X118110000Y-107061000D02*
X121285000Y-103886000D01*
%TO.N,Net-(U2-INA+)*%
X184150000Y-89154000D02*
X187344000Y-92348000D01*
X187344000Y-121450685D02*
X187001685Y-121793000D01*
X187001685Y-121793000D02*
X182753000Y-121793000D01*
X182753000Y-121793000D02*
X179324000Y-118364000D01*
X187344000Y-92348000D02*
X187344000Y-121450685D01*
%TO.N,Net-(U2-INA-)*%
X179959000Y-104260471D02*
X186944000Y-111245471D01*
X186944000Y-121285000D02*
X183515000Y-121285000D01*
X179959000Y-96774000D02*
X179959000Y-104260471D01*
X183515000Y-121285000D02*
X179324000Y-117094000D01*
X172339000Y-89154000D02*
X179959000Y-96774000D01*
X186944000Y-111245471D02*
X186944000Y-121285000D01*
%TO.N,+3.3V*%
X184150000Y-61976000D02*
X184150000Y-71501000D01*
X184150000Y-71501000D02*
X172720000Y-82931000D01*
%TO.N,/Singal -*%
X184150000Y-83058000D02*
X185545000Y-81663000D01*
X185545000Y-81663000D02*
X185545000Y-55751000D01*
X185545000Y-55751000D02*
X184150000Y-54356000D01*
%TO.N,Net-(U2-INA-)*%
X172339000Y-89154000D02*
X175514000Y-89154000D01*
X175514000Y-89154000D02*
X184150000Y-80518000D01*
%TO.N,+3.3V*%
X172339000Y-100076000D02*
X174926000Y-100076000D01*
X174926000Y-100076000D02*
X184324000Y-109474000D01*
%TO.N,Net-(U1-IO0)*%
X151130000Y-57912000D02*
X151003000Y-57785000D01*
X163703000Y-107442000D02*
X163703000Y-73279000D01*
X161417000Y-67183000D02*
X155956000Y-61722000D01*
X155956000Y-61722000D02*
X155956000Y-60706000D01*
X163703000Y-73279000D02*
X162179000Y-71755000D01*
X155067000Y-57912000D02*
X151130000Y-57912000D01*
%TO.N,/Bluetooth LED*%
X131572000Y-61087000D02*
X131572000Y-56261000D01*
X127635000Y-65024000D02*
X131572000Y-61087000D01*
X132588000Y-55245000D02*
X133503000Y-55245000D01*
X124841000Y-65024000D02*
X127635000Y-65024000D01*
X131572000Y-56261000D02*
X132588000Y-55245000D01*
%TO.N,/Refill LED*%
X148463000Y-93980000D02*
X129032000Y-93980000D01*
X160274000Y-72898000D02*
X160274000Y-82169000D01*
X129032000Y-93980000D02*
X128143000Y-93091000D01*
X160274000Y-82169000D02*
X148463000Y-93980000D01*
X128143000Y-93091000D02*
X128143000Y-79912000D01*
%TO.N,GND*%
X105664000Y-67945000D02*
X105664000Y-74676000D01*
X119126000Y-93853000D02*
X118237000Y-94742000D01*
X105664000Y-74676000D02*
X119126000Y-88138000D01*
X119126000Y-88138000D02*
X119126000Y-93853000D01*
X118237000Y-94742000D02*
X109982000Y-94742000D01*
%TO.N,Net-(J6-Pin_1)*%
X134112000Y-67183000D02*
X134112000Y-76347000D01*
X134112000Y-76347000D02*
X133985000Y-76474000D01*
%TO.N,Net-(J7-Pin_1)*%
X142113000Y-67183000D02*
X142113000Y-76073000D01*
X142113000Y-76073000D02*
X142367000Y-76327000D01*
%TO.N,Net-(J8-Pin_1)*%
X150876000Y-67076000D02*
X150876000Y-76220000D01*
X150876000Y-76220000D02*
X150749000Y-76347000D01*
%TO.N,/Container 2 LED*%
X144653000Y-67183000D02*
X133985000Y-56515000D01*
X133985000Y-56515000D02*
X133503000Y-56515000D01*
%TO.N,/Servo Signal 3*%
X167767000Y-65024000D02*
X161671000Y-58928000D01*
X161671000Y-58928000D02*
X139726000Y-58928000D01*
X139726000Y-58928000D02*
X133503000Y-52705000D01*
%TO.N,/Servo Signal 2*%
X167767000Y-54102000D02*
X169269000Y-52600000D01*
X169269000Y-52600000D02*
X169269000Y-42452256D01*
X168953744Y-42137000D02*
X151411000Y-42137000D01*
X169269000Y-42452256D02*
X168953744Y-42137000D01*
X151411000Y-42137000D02*
X151003000Y-42545000D01*
%TO.N,/Servo Signal 1*%
X167874000Y-43307000D02*
X151511000Y-43307000D01*
X151511000Y-43307000D02*
X151003000Y-43815000D01*
%TO.N,Net-(U1-EN)*%
X137287000Y-102997000D02*
X137414000Y-102997000D01*
X130429000Y-96139000D02*
X137287000Y-102997000D01*
%TO.N,+3.3V*%
X128143000Y-106680000D02*
X129538000Y-105285000D01*
X129538000Y-105285000D02*
X159006000Y-105285000D01*
X159006000Y-105285000D02*
X161163000Y-107442000D01*
X124206000Y-99695000D02*
X128143000Y-103632000D01*
X128143000Y-103632000D02*
X128143000Y-106680000D01*
%TO.N,GND*%
X167767000Y-59182000D02*
X166372000Y-57787000D01*
X166372000Y-49889000D02*
X167874000Y-48387000D01*
X166372000Y-57787000D02*
X166372000Y-49889000D01*
X184150000Y-59436000D02*
X168021000Y-59436000D01*
X168021000Y-59436000D02*
X167767000Y-59182000D01*
X167767000Y-70104000D02*
X173482000Y-70104000D01*
X173482000Y-70104000D02*
X184150000Y-59436000D01*
X144907000Y-76327000D02*
X143512000Y-77722000D01*
X143512000Y-77722000D02*
X137773000Y-77722000D01*
X137773000Y-77722000D02*
X136525000Y-76474000D01*
X153289000Y-76347000D02*
X151894000Y-77742000D01*
X151894000Y-77742000D02*
X146322000Y-77742000D01*
X146322000Y-77742000D02*
X144907000Y-76327000D01*
X167767000Y-70104000D02*
X159532000Y-70104000D01*
X159532000Y-70104000D02*
X153289000Y-76347000D01*
X172720000Y-80391000D02*
X172720000Y-75057000D01*
X172720000Y-75057000D02*
X167767000Y-70104000D01*
X172339000Y-97536000D02*
X170944000Y-96141000D01*
X170944000Y-96141000D02*
X170944000Y-82167000D01*
X170944000Y-82167000D02*
X172720000Y-80391000D01*
X142113000Y-127254000D02*
X149733000Y-119634000D01*
X149733000Y-119634000D02*
X157651000Y-119634000D01*
X110617000Y-119761000D02*
X123361000Y-119761000D01*
X123361000Y-119761000D02*
X123996000Y-119126000D01*
X110617000Y-119761000D02*
X99187000Y-119761000D01*
X99187000Y-119761000D02*
X99060000Y-119888000D01*
X110597000Y-107696000D02*
X112012000Y-109111000D01*
X112012000Y-118366000D02*
X110617000Y-119761000D01*
X112012000Y-109111000D02*
X112012000Y-118366000D01*
X99334000Y-107442000D02*
X110343000Y-107442000D01*
X110343000Y-107442000D02*
X110597000Y-107696000D01*
X99842000Y-94107000D02*
X98145000Y-95804000D01*
X98145000Y-106253000D02*
X99334000Y-107442000D01*
X109982000Y-94742000D02*
X100477000Y-94742000D01*
X100477000Y-94742000D02*
X99842000Y-94107000D01*
X105918000Y-56134000D02*
X105918000Y-67691000D01*
X105918000Y-67691000D02*
X105664000Y-67945000D01*
X124968000Y-56134000D02*
X124360000Y-55526000D01*
X124360000Y-55526000D02*
X106526000Y-55526000D01*
X106526000Y-55526000D02*
X105918000Y-56134000D01*
X124968000Y-56134000D02*
X124968000Y-45212000D01*
X124968000Y-45212000D02*
X124841000Y-45085000D01*
X124841000Y-45085000D02*
X128651000Y-41275000D01*
X128651000Y-41275000D02*
X133503000Y-41275000D01*
X106045000Y-45339000D02*
X106299000Y-45085000D01*
X106299000Y-45085000D02*
X124841000Y-45085000D01*
%TD*%
%TA.AperFunction,Conductor*%
%TO.N,GND*%
G36*
X189442539Y-40652185D02*
G01*
X189488294Y-40704989D01*
X189499500Y-40756500D01*
X189499500Y-139375500D01*
X189479815Y-139442539D01*
X189427011Y-139488294D01*
X189375500Y-139499500D01*
X90624500Y-139499500D01*
X90557461Y-139479815D01*
X90511706Y-139427011D01*
X90500500Y-139375500D01*
X90500500Y-134878711D01*
X93149500Y-134878711D01*
X93149500Y-135121288D01*
X93181161Y-135361785D01*
X93243947Y-135596104D01*
X93278518Y-135679565D01*
X93336776Y-135820212D01*
X93458064Y-136030289D01*
X93458066Y-136030292D01*
X93458067Y-136030293D01*
X93605733Y-136222736D01*
X93605739Y-136222743D01*
X93777256Y-136394260D01*
X93777262Y-136394265D01*
X93969711Y-136541936D01*
X94179788Y-136663224D01*
X94403900Y-136756054D01*
X94638211Y-136818838D01*
X94818586Y-136842584D01*
X94878711Y-136850500D01*
X94878712Y-136850500D01*
X95121289Y-136850500D01*
X95169388Y-136844167D01*
X95361789Y-136818838D01*
X95596100Y-136756054D01*
X95820212Y-136663224D01*
X96030289Y-136541936D01*
X96222738Y-136394265D01*
X96394265Y-136222738D01*
X96541936Y-136030289D01*
X96663224Y-135820212D01*
X96756054Y-135596100D01*
X96818838Y-135361789D01*
X96850500Y-135121288D01*
X96850500Y-134878712D01*
X96818838Y-134638211D01*
X96756054Y-134403900D01*
X96663224Y-134179788D01*
X96541936Y-133969711D01*
X96394265Y-133777262D01*
X96394260Y-133777256D01*
X96222743Y-133605739D01*
X96222736Y-133605733D01*
X96030293Y-133458067D01*
X96030292Y-133458066D01*
X96030289Y-133458064D01*
X95820212Y-133336776D01*
X95820205Y-133336773D01*
X95596104Y-133243947D01*
X95361785Y-133181161D01*
X95121289Y-133149500D01*
X95121288Y-133149500D01*
X94878712Y-133149500D01*
X94878711Y-133149500D01*
X94638214Y-133181161D01*
X94403895Y-133243947D01*
X94179794Y-133336773D01*
X94179785Y-133336777D01*
X93969706Y-133458067D01*
X93777263Y-133605733D01*
X93777256Y-133605739D01*
X93605739Y-133777256D01*
X93605733Y-133777263D01*
X93458067Y-133969706D01*
X93336777Y-134179785D01*
X93336773Y-134179794D01*
X93243947Y-134403895D01*
X93181161Y-134638214D01*
X93149500Y-134878711D01*
X90500500Y-134878711D01*
X90500500Y-128476054D01*
X135670498Y-128476054D01*
X135711423Y-128628785D01*
X135724340Y-128651157D01*
X135724341Y-128651160D01*
X135790475Y-128765709D01*
X135790481Y-128765717D01*
X135909349Y-128884585D01*
X135909355Y-128884590D01*
X136038139Y-129013374D01*
X136038149Y-129013385D01*
X136042479Y-129017715D01*
X136042480Y-129017716D01*
X136154284Y-129129520D01*
X136241095Y-129179639D01*
X136241097Y-129179641D01*
X136279151Y-129201611D01*
X136291215Y-129208577D01*
X136443943Y-129249501D01*
X136443946Y-129249501D01*
X136609653Y-129249501D01*
X136609669Y-129249500D01*
X143171331Y-129249500D01*
X143171347Y-129249501D01*
X143178943Y-129249501D01*
X143337054Y-129249501D01*
X143337057Y-129249501D01*
X143489785Y-129208577D01*
X143539904Y-129179639D01*
X143626716Y-129129520D01*
X143738520Y-129017716D01*
X143738520Y-129017714D01*
X143748728Y-129007507D01*
X143748730Y-129007504D01*
X143983866Y-128772367D01*
X144045187Y-128738884D01*
X144114879Y-128743868D01*
X144124342Y-128748028D01*
X144126903Y-128749089D01*
X144126908Y-128749090D01*
X144126911Y-128749092D01*
X144332074Y-128815754D01*
X144411973Y-128828408D01*
X144545134Y-128849500D01*
X144545139Y-128849500D01*
X144760866Y-128849500D01*
X144879230Y-128830752D01*
X144973926Y-128815754D01*
X145179089Y-128749092D01*
X145371299Y-128651157D01*
X145545821Y-128524359D01*
X145698359Y-128371821D01*
X145822682Y-128200704D01*
X145878012Y-128158040D01*
X145947626Y-128152061D01*
X146009420Y-128184667D01*
X146023315Y-128200702D01*
X146147641Y-128371821D01*
X146300179Y-128524359D01*
X146474701Y-128651157D01*
X146666911Y-128749092D01*
X146872074Y-128815754D01*
X146951973Y-128828408D01*
X147085134Y-128849500D01*
X147085139Y-128849500D01*
X147300866Y-128849500D01*
X147419230Y-128830752D01*
X147513926Y-128815754D01*
X147719089Y-128749092D01*
X147911299Y-128651157D01*
X148085821Y-128524359D01*
X148238359Y-128371821D01*
X148362682Y-128200704D01*
X148418012Y-128158040D01*
X148487626Y-128152061D01*
X148549420Y-128184667D01*
X148563315Y-128200702D01*
X148687641Y-128371821D01*
X148840179Y-128524359D01*
X149014701Y-128651157D01*
X149206911Y-128749092D01*
X149412074Y-128815754D01*
X149491973Y-128828408D01*
X149625134Y-128849500D01*
X149625139Y-128849500D01*
X149840866Y-128849500D01*
X149959230Y-128830752D01*
X150053926Y-128815754D01*
X150259089Y-128749092D01*
X150451299Y-128651157D01*
X150625821Y-128524359D01*
X150778359Y-128371821D01*
X150902682Y-128200704D01*
X150958012Y-128158040D01*
X151027626Y-128152061D01*
X151089420Y-128184667D01*
X151103315Y-128200702D01*
X151227641Y-128371821D01*
X151380179Y-128524359D01*
X151554701Y-128651157D01*
X151746911Y-128749092D01*
X151952074Y-128815754D01*
X152031973Y-128828408D01*
X152165134Y-128849500D01*
X152165139Y-128849500D01*
X152380866Y-128849500D01*
X152499230Y-128830752D01*
X152593926Y-128815754D01*
X152799089Y-128749092D01*
X152991299Y-128651157D01*
X153165821Y-128524359D01*
X153318359Y-128371821D01*
X153445157Y-128197299D01*
X153543092Y-128005089D01*
X153609754Y-127799926D01*
X153624752Y-127705230D01*
X153643500Y-127586866D01*
X153643500Y-126921133D01*
X153609754Y-126708077D01*
X153609754Y-126708074D01*
X153543092Y-126502911D01*
X153445157Y-126310701D01*
X153318359Y-126136179D01*
X153165821Y-125983641D01*
X152991299Y-125856843D01*
X152799089Y-125758908D01*
X152593926Y-125692246D01*
X152593924Y-125692245D01*
X152593922Y-125692245D01*
X152380866Y-125658500D01*
X152380861Y-125658500D01*
X152165139Y-125658500D01*
X152165134Y-125658500D01*
X151952077Y-125692245D01*
X151746908Y-125758909D01*
X151554700Y-125856843D01*
X151455129Y-125929186D01*
X151380179Y-125983641D01*
X151380177Y-125983643D01*
X151380176Y-125983643D01*
X151227643Y-126136176D01*
X151227643Y-126136177D01*
X151227641Y-126136179D01*
X151150729Y-126242038D01*
X151103318Y-126307294D01*
X151047988Y-126349959D01*
X150978374Y-126355938D01*
X150916579Y-126323332D01*
X150902682Y-126307294D01*
X150880435Y-126276674D01*
X150778359Y-126136179D01*
X150625821Y-125983641D01*
X150451299Y-125856843D01*
X150259089Y-125758908D01*
X150053926Y-125692246D01*
X150053924Y-125692245D01*
X150053922Y-125692245D01*
X149840866Y-125658500D01*
X149840861Y-125658500D01*
X149625139Y-125658500D01*
X149625134Y-125658500D01*
X149412077Y-125692245D01*
X149206908Y-125758909D01*
X149014700Y-125856843D01*
X148915129Y-125929186D01*
X148840179Y-125983641D01*
X148840177Y-125983643D01*
X148840176Y-125983643D01*
X148687643Y-126136176D01*
X148687643Y-126136177D01*
X148687641Y-126136179D01*
X148610729Y-126242038D01*
X148563318Y-126307294D01*
X148507988Y-126349959D01*
X148438374Y-126355938D01*
X148376579Y-126323332D01*
X148362682Y-126307294D01*
X148340435Y-126276674D01*
X148238359Y-126136179D01*
X148085821Y-125983641D01*
X147911299Y-125856843D01*
X147911298Y-125856842D01*
X147911296Y-125856841D01*
X147861204Y-125831317D01*
X147810408Y-125783342D01*
X147793500Y-125720833D01*
X147793500Y-124760096D01*
X147813185Y-124693057D01*
X147829814Y-124672420D01*
X149751535Y-122750698D01*
X149812856Y-122717215D01*
X149825311Y-122715163D01*
X149912255Y-122705368D01*
X150082522Y-122645789D01*
X150235262Y-122549816D01*
X150362816Y-122422262D01*
X150458789Y-122269522D01*
X150518368Y-122099255D01*
X150538565Y-121920000D01*
X150535419Y-121892082D01*
X150518369Y-121740750D01*
X150518368Y-121740745D01*
X150458788Y-121570476D01*
X150362815Y-121417737D01*
X150235262Y-121290184D01*
X150082523Y-121194211D01*
X149912254Y-121134631D01*
X149912249Y-121134630D01*
X149733004Y-121114435D01*
X149732996Y-121114435D01*
X149553750Y-121134630D01*
X149553745Y-121134631D01*
X149383476Y-121194211D01*
X149230737Y-121290184D01*
X149103184Y-121417737D01*
X149007210Y-121570478D01*
X148947630Y-121740750D01*
X148937837Y-121827668D01*
X148910770Y-121892082D01*
X148902298Y-121901465D01*
X146824286Y-123979478D01*
X146712481Y-124091282D01*
X146712479Y-124091285D01*
X146662361Y-124178094D01*
X146662359Y-124178096D01*
X146633425Y-124228209D01*
X146633424Y-124228210D01*
X146633423Y-124228215D01*
X146592499Y-124380943D01*
X146592499Y-124380945D01*
X146592499Y-124549046D01*
X146592500Y-124549059D01*
X146592500Y-125720833D01*
X146572815Y-125787872D01*
X146524796Y-125831317D01*
X146474703Y-125856841D01*
X146387440Y-125920242D01*
X146300179Y-125983641D01*
X146300177Y-125983643D01*
X146300176Y-125983643D01*
X146147643Y-126136176D01*
X146147643Y-126136177D01*
X146147641Y-126136179D01*
X146070729Y-126242038D01*
X146023318Y-126307294D01*
X145967988Y-126349959D01*
X145898374Y-126355938D01*
X145836579Y-126323332D01*
X145822682Y-126307294D01*
X145800435Y-126276674D01*
X145698359Y-126136179D01*
X145545821Y-125983641D01*
X145371299Y-125856843D01*
X145179089Y-125758908D01*
X144973926Y-125692246D01*
X144973924Y-125692245D01*
X144973922Y-125692245D01*
X144760866Y-125658500D01*
X144760861Y-125658500D01*
X144545139Y-125658500D01*
X144545134Y-125658500D01*
X144332077Y-125692245D01*
X144126908Y-125758909D01*
X143934700Y-125856843D01*
X143835129Y-125929186D01*
X143760179Y-125983641D01*
X143760177Y-125983643D01*
X143760176Y-125983643D01*
X143607642Y-126136177D01*
X143483008Y-126307720D01*
X143427677Y-126350385D01*
X143358064Y-126356364D01*
X143296269Y-126323758D01*
X143282372Y-126307720D01*
X143157974Y-126136503D01*
X143157974Y-126136502D01*
X143005497Y-125984025D01*
X142831036Y-125857271D01*
X142638899Y-125759372D01*
X142433805Y-125692733D01*
X142363000Y-125681518D01*
X142363000Y-126711290D01*
X142342661Y-126699548D01*
X142191333Y-126659000D01*
X142034667Y-126659000D01*
X141883339Y-126699548D01*
X141863000Y-126711290D01*
X141863000Y-125681518D01*
X141862999Y-125681518D01*
X141792194Y-125692733D01*
X141587100Y-125759372D01*
X141394963Y-125857271D01*
X141220506Y-125984022D01*
X141078420Y-126126108D01*
X141017097Y-126159592D01*
X140947405Y-126154608D01*
X140891472Y-126112736D01*
X140878356Y-126090828D01*
X140877816Y-126089670D01*
X140812654Y-125984025D01*
X140785712Y-125940344D01*
X140661656Y-125816288D01*
X140512334Y-125724186D01*
X140345797Y-125669001D01*
X140345795Y-125669000D01*
X140243010Y-125658500D01*
X138902998Y-125658500D01*
X138902981Y-125658501D01*
X138800203Y-125669000D01*
X138800200Y-125669001D01*
X138633668Y-125724185D01*
X138633663Y-125724187D01*
X138484342Y-125816289D01*
X138360289Y-125940342D01*
X138268187Y-126089663D01*
X138268185Y-126089668D01*
X138267801Y-126090828D01*
X138213001Y-126256203D01*
X138213001Y-126256204D01*
X138213000Y-126256204D01*
X138202500Y-126358983D01*
X138202500Y-126358991D01*
X138202500Y-127197039D01*
X138202501Y-127924500D01*
X138182816Y-127991539D01*
X138130013Y-128037294D01*
X138078501Y-128048500D01*
X136995500Y-128048500D01*
X136928461Y-128028815D01*
X136882706Y-127976011D01*
X136871500Y-127924500D01*
X136871500Y-111933097D01*
X136891185Y-111866058D01*
X136907819Y-111845416D01*
X138929714Y-109823521D01*
X140988536Y-107764698D01*
X141049857Y-107731215D01*
X141062310Y-107729163D01*
X141149255Y-107719368D01*
X141319522Y-107659789D01*
X141472262Y-107563816D01*
X141599816Y-107436262D01*
X141695789Y-107283522D01*
X141755368Y-107113255D01*
X141755832Y-107109139D01*
X141775565Y-106934003D01*
X141775565Y-106933996D01*
X141755369Y-106754750D01*
X141755368Y-106754745D01*
X141733511Y-106692282D01*
X141695789Y-106584478D01*
X141599816Y-106431738D01*
X141472262Y-106304184D01*
X141452076Y-106291500D01*
X141319523Y-106208211D01*
X141149254Y-106148631D01*
X141149249Y-106148630D01*
X141008035Y-106132720D01*
X140970775Y-106117064D01*
X140953017Y-106128477D01*
X140931965Y-106132720D01*
X140790750Y-106148630D01*
X140790745Y-106148631D01*
X140620476Y-106208211D01*
X140467737Y-106304184D01*
X140340184Y-106431737D01*
X140244210Y-106584478D01*
X140184630Y-106754750D01*
X140174837Y-106841667D01*
X140147770Y-106906081D01*
X140139298Y-106915464D01*
X135902286Y-111152478D01*
X135790481Y-111264282D01*
X135790479Y-111264284D01*
X135766031Y-111306630D01*
X135755698Y-111324529D01*
X135711423Y-111401215D01*
X135670499Y-111553943D01*
X135670499Y-111553945D01*
X135670499Y-111722046D01*
X135670500Y-111722059D01*
X135670500Y-128310330D01*
X135670499Y-128310348D01*
X135670499Y-128476054D01*
X135670498Y-128476054D01*
X90500500Y-128476054D01*
X90500500Y-116677983D01*
X97464500Y-116677983D01*
X97464500Y-118018001D01*
X97464501Y-118018018D01*
X97475000Y-118120796D01*
X97475001Y-118120799D01*
X97526431Y-118276003D01*
X97530186Y-118287334D01*
X97622288Y-118436656D01*
X97746344Y-118560712D01*
X97895666Y-118652814D01*
X97895667Y-118652814D01*
X97895670Y-118652816D01*
X97896828Y-118653356D01*
X97897488Y-118653937D01*
X97901813Y-118656605D01*
X97901357Y-118657343D01*
X97949268Y-118699527D01*
X97968422Y-118766720D01*
X97948208Y-118833601D01*
X97932108Y-118853420D01*
X97790022Y-118995506D01*
X97663271Y-119169963D01*
X97565372Y-119362098D01*
X97498733Y-119567190D01*
X97487519Y-119638000D01*
X98517291Y-119638000D01*
X98505548Y-119658339D01*
X98465000Y-119809667D01*
X98465000Y-119966333D01*
X98505548Y-120117661D01*
X98517291Y-120138000D01*
X97487519Y-120138000D01*
X97498733Y-120208809D01*
X97565372Y-120413901D01*
X97663271Y-120606036D01*
X97790025Y-120780496D01*
X97790025Y-120780497D01*
X97942502Y-120932974D01*
X98116963Y-121059728D01*
X98309098Y-121157627D01*
X98514190Y-121224265D01*
X98727180Y-121258000D01*
X98810000Y-121258000D01*
X98810000Y-120430709D01*
X98830339Y-120442452D01*
X98981667Y-120483000D01*
X99138333Y-120483000D01*
X99289661Y-120442452D01*
X99310000Y-120430709D01*
X99310000Y-121258000D01*
X99392820Y-121258000D01*
X99605809Y-121224265D01*
X99810901Y-121157627D01*
X100003036Y-121059728D01*
X100177496Y-120932974D01*
X100177497Y-120932974D01*
X100329974Y-120780497D01*
X100329974Y-120780496D01*
X100456728Y-120606036D01*
X100554627Y-120413901D01*
X100621266Y-120208809D01*
X100632481Y-120138000D01*
X99602709Y-120138000D01*
X99614452Y-120117661D01*
X99655000Y-119966333D01*
X99655000Y-119809667D01*
X99614452Y-119658339D01*
X99602709Y-119638000D01*
X100632481Y-119638000D01*
X100621266Y-119567190D01*
X100554627Y-119362098D01*
X100456728Y-119169963D01*
X100329974Y-118995503D01*
X100329974Y-118995502D01*
X100187892Y-118853420D01*
X100154407Y-118792097D01*
X100159391Y-118722405D01*
X100201263Y-118666472D01*
X100223177Y-118653353D01*
X100224323Y-118652817D01*
X100224334Y-118652814D01*
X100373656Y-118560712D01*
X100497712Y-118436656D01*
X100589814Y-118287334D01*
X100644999Y-118120797D01*
X100655500Y-118018009D01*
X100655499Y-116677992D01*
X100644999Y-116575203D01*
X100589814Y-116408666D01*
X100497712Y-116259344D01*
X100373656Y-116135288D01*
X100224334Y-116043186D01*
X100057797Y-115988001D01*
X100057795Y-115988000D01*
X99955010Y-115977500D01*
X98164998Y-115977500D01*
X98164981Y-115977501D01*
X98062203Y-115988000D01*
X98062200Y-115988001D01*
X97895668Y-116043185D01*
X97895663Y-116043187D01*
X97746342Y-116135289D01*
X97622289Y-116259342D01*
X97530187Y-116408663D01*
X97530186Y-116408666D01*
X97475001Y-116575203D01*
X97475001Y-116575204D01*
X97475000Y-116575204D01*
X97464500Y-116677983D01*
X90500500Y-116677983D01*
X90500500Y-104901994D01*
X97939738Y-104901994D01*
X97939738Y-104902005D01*
X97958753Y-105131484D01*
X98015282Y-105354714D01*
X98107782Y-105565594D01*
X98233728Y-105758370D01*
X98274102Y-105802227D01*
X98389692Y-105927792D01*
X98487976Y-106004289D01*
X98575459Y-106072380D01*
X98574570Y-106073521D01*
X98615632Y-106121624D01*
X98625063Y-106190855D01*
X98595568Y-106254194D01*
X98575429Y-106271651D01*
X98575733Y-106272041D01*
X98543040Y-106297485D01*
X98543040Y-106297487D01*
X99097992Y-106852438D01*
X99033215Y-106879271D01*
X98929211Y-106948764D01*
X98840764Y-107037211D01*
X98771271Y-107141215D01*
X98744439Y-107205992D01*
X98190760Y-106652313D01*
X98108224Y-106778644D01*
X98015757Y-106989446D01*
X97959249Y-107212591D01*
X97959247Y-107212603D01*
X97940240Y-107441994D01*
X97940240Y-107442005D01*
X97959247Y-107671396D01*
X97959249Y-107671408D01*
X98015757Y-107894553D01*
X98108224Y-108105355D01*
X98190759Y-108231685D01*
X98744438Y-107678006D01*
X98771271Y-107742785D01*
X98840764Y-107846789D01*
X98929211Y-107935236D01*
X99033215Y-108004729D01*
X99097991Y-108031560D01*
X98543040Y-108586512D01*
X98543040Y-108586514D01*
X98575733Y-108611960D01*
X98574789Y-108613172D01*
X98615639Y-108661043D01*
X98625060Y-108730274D01*
X98595556Y-108793609D01*
X98575181Y-108811263D01*
X98575459Y-108811620D01*
X98389694Y-108956206D01*
X98389689Y-108956211D01*
X98233728Y-109125629D01*
X98107782Y-109318405D01*
X98015282Y-109529285D01*
X97958753Y-109752515D01*
X97939738Y-109981994D01*
X97939738Y-109982005D01*
X97958753Y-110211484D01*
X98015282Y-110434714D01*
X98107782Y-110645594D01*
X98233728Y-110838370D01*
X98233731Y-110838373D01*
X98389692Y-111007792D01*
X98571411Y-111149229D01*
X98773931Y-111258828D01*
X98887025Y-111297653D01*
X98991725Y-111333597D01*
X98991727Y-111333597D01*
X98991729Y-111333598D01*
X99218863Y-111371500D01*
X99218864Y-111371500D01*
X99449136Y-111371500D01*
X99449137Y-111371500D01*
X99676271Y-111333598D01*
X99894069Y-111258828D01*
X100096589Y-111149229D01*
X100278308Y-111007792D01*
X100434269Y-110838373D01*
X100560217Y-110645595D01*
X100563022Y-110641302D01*
X100564418Y-110642214D01*
X100608432Y-110597883D01*
X100668251Y-110582500D01*
X103077903Y-110582500D01*
X103144942Y-110602185D01*
X103165584Y-110618819D01*
X109098630Y-116551865D01*
X109132115Y-116613188D01*
X109127131Y-116682880D01*
X109122978Y-116692327D01*
X109121907Y-116694913D01*
X109055245Y-116900077D01*
X109021500Y-117113133D01*
X109021500Y-117328866D01*
X109055245Y-117541922D01*
X109055246Y-117541926D01*
X109121908Y-117747089D01*
X109219843Y-117939299D01*
X109346641Y-118113821D01*
X109346643Y-118113823D01*
X109489003Y-118256183D01*
X109522488Y-118317506D01*
X109517504Y-118387198D01*
X109475632Y-118443131D01*
X109453728Y-118456245D01*
X109452885Y-118456637D01*
X109303654Y-118548684D01*
X109179684Y-118672654D01*
X109087643Y-118821875D01*
X109087641Y-118821880D01*
X109032494Y-118988302D01*
X109032493Y-118988309D01*
X109022000Y-119091013D01*
X109022000Y-119511000D01*
X110074291Y-119511000D01*
X110062548Y-119531339D01*
X110022000Y-119682667D01*
X110022000Y-119839333D01*
X110062548Y-119990661D01*
X110074291Y-120011000D01*
X109022001Y-120011000D01*
X109022001Y-120430986D01*
X109032494Y-120533697D01*
X109087641Y-120700119D01*
X109087643Y-120700124D01*
X109179684Y-120849345D01*
X109303654Y-120973315D01*
X109452875Y-121065356D01*
X109452880Y-121065358D01*
X109619302Y-121120505D01*
X109619309Y-121120506D01*
X109722019Y-121130999D01*
X110366999Y-121130999D01*
X110367000Y-121130998D01*
X110367000Y-120303709D01*
X110387339Y-120315452D01*
X110538667Y-120356000D01*
X110695333Y-120356000D01*
X110846661Y-120315452D01*
X110867000Y-120303709D01*
X110867000Y-121130999D01*
X111511972Y-121130999D01*
X111511986Y-121130998D01*
X111614697Y-121120505D01*
X111781119Y-121065358D01*
X111781124Y-121065356D01*
X111930345Y-120973315D01*
X112054315Y-120849345D01*
X112146356Y-120700124D01*
X112146358Y-120700119D01*
X112201505Y-120533697D01*
X112201506Y-120533690D01*
X112211999Y-120430986D01*
X112212000Y-120430973D01*
X112212000Y-120011000D01*
X111159709Y-120011000D01*
X111171452Y-119990661D01*
X111212000Y-119839333D01*
X111212000Y-119682667D01*
X111171452Y-119531339D01*
X111159709Y-119511000D01*
X112211999Y-119511000D01*
X112211999Y-119091028D01*
X112211998Y-119091013D01*
X112201505Y-118988302D01*
X112146358Y-118821880D01*
X112146356Y-118821875D01*
X112054315Y-118672654D01*
X111930345Y-118548684D01*
X111781118Y-118456640D01*
X111780277Y-118456248D01*
X111779796Y-118455824D01*
X111774975Y-118452851D01*
X111775483Y-118452027D01*
X111727836Y-118410078D01*
X111708681Y-118342885D01*
X111728894Y-118276003D01*
X111744987Y-118256192D01*
X111887359Y-118113821D01*
X112014157Y-117939299D01*
X112112092Y-117747089D01*
X112178754Y-117541926D01*
X112193752Y-117447230D01*
X112212500Y-117328866D01*
X112212500Y-117113133D01*
X112190002Y-116971095D01*
X112178754Y-116900074D01*
X112112092Y-116694911D01*
X112014157Y-116502701D01*
X111887359Y-116328179D01*
X111734821Y-116175641D01*
X111560299Y-116048843D01*
X111368089Y-115950908D01*
X111162926Y-115884246D01*
X111162924Y-115884245D01*
X111162922Y-115884245D01*
X110949866Y-115850500D01*
X110949861Y-115850500D01*
X110284139Y-115850500D01*
X110284134Y-115850500D01*
X110183898Y-115866376D01*
X110114605Y-115857422D01*
X110076819Y-115831584D01*
X103865590Y-109620355D01*
X103865588Y-109620352D01*
X103746717Y-109501481D01*
X103746716Y-109501480D01*
X103659904Y-109451360D01*
X103659904Y-109451359D01*
X103659900Y-109451358D01*
X103609785Y-109422423D01*
X103457057Y-109381499D01*
X103298943Y-109381499D01*
X103291347Y-109381499D01*
X103291331Y-109381500D01*
X100668251Y-109381500D01*
X100601212Y-109361815D01*
X100564205Y-109321924D01*
X100563022Y-109322698D01*
X100434271Y-109125629D01*
X100407355Y-109096390D01*
X100278308Y-108956208D01*
X100180023Y-108879710D01*
X100092541Y-108811620D01*
X100093428Y-108810480D01*
X100052363Y-108762366D01*
X100042938Y-108693135D01*
X100072437Y-108629798D01*
X100092571Y-108612352D01*
X100092266Y-108611960D01*
X100124958Y-108586513D01*
X100124959Y-108586511D01*
X99570008Y-108031560D01*
X99634785Y-108004729D01*
X99738789Y-107935236D01*
X99827236Y-107846789D01*
X99896729Y-107742785D01*
X99923560Y-107678008D01*
X100477238Y-108231686D01*
X100559774Y-108105357D01*
X100652242Y-107894553D01*
X100708750Y-107671408D01*
X100708752Y-107671396D01*
X100727760Y-107442005D01*
X100727760Y-107441994D01*
X100708752Y-107212603D01*
X100708750Y-107212591D01*
X100652242Y-106989446D01*
X100559775Y-106778644D01*
X100477238Y-106652312D01*
X99923560Y-107205990D01*
X99896729Y-107141215D01*
X99827236Y-107037211D01*
X99738789Y-106948764D01*
X99634785Y-106879271D01*
X99570007Y-106852438D01*
X100124958Y-106297486D01*
X100124958Y-106297484D01*
X100092267Y-106272040D01*
X100093209Y-106270829D01*
X100052355Y-106222947D01*
X100042941Y-106153714D01*
X100072450Y-106090382D01*
X100092820Y-106072738D01*
X100092541Y-106072380D01*
X100180024Y-106004289D01*
X100278308Y-105927792D01*
X100434269Y-105758373D01*
X100560217Y-105565595D01*
X100652717Y-105354716D01*
X100709246Y-105131488D01*
X100725867Y-104930902D01*
X100728262Y-104902005D01*
X100728262Y-104901994D01*
X100709246Y-104672515D01*
X100709246Y-104672512D01*
X100662010Y-104485983D01*
X109001500Y-104485983D01*
X109001500Y-105826001D01*
X109001501Y-105826018D01*
X109012000Y-105928796D01*
X109012001Y-105928799D01*
X109041996Y-106019317D01*
X109067186Y-106095334D01*
X109159288Y-106244656D01*
X109283344Y-106368712D01*
X109432666Y-106460814D01*
X109432667Y-106460814D01*
X109432670Y-106460816D01*
X109433828Y-106461356D01*
X109434488Y-106461937D01*
X109438813Y-106464605D01*
X109438357Y-106465343D01*
X109486268Y-106507527D01*
X109505422Y-106574720D01*
X109485208Y-106641601D01*
X109469108Y-106661420D01*
X109327022Y-106803506D01*
X109200271Y-106977963D01*
X109102372Y-107170098D01*
X109035733Y-107375190D01*
X109024519Y-107446000D01*
X110054291Y-107446000D01*
X110042548Y-107466339D01*
X110002000Y-107617667D01*
X110002000Y-107774333D01*
X110042548Y-107925661D01*
X110054291Y-107946000D01*
X109024519Y-107946000D01*
X109035733Y-108016809D01*
X109102372Y-108221901D01*
X109200271Y-108414036D01*
X109327025Y-108588496D01*
X109327025Y-108588497D01*
X109479502Y-108740974D01*
X109653963Y-108867728D01*
X109846098Y-108965627D01*
X110051190Y-109032265D01*
X110264180Y-109066000D01*
X110347000Y-109066000D01*
X110347000Y-108238709D01*
X110367339Y-108250452D01*
X110518667Y-108291000D01*
X110675333Y-108291000D01*
X110826661Y-108250452D01*
X110847000Y-108238709D01*
X110847000Y-109066000D01*
X110929820Y-109066000D01*
X111142809Y-109032265D01*
X111347901Y-108965627D01*
X111540036Y-108867728D01*
X111714496Y-108740974D01*
X111714497Y-108740974D01*
X111866974Y-108588497D01*
X111866974Y-108588496D01*
X111993728Y-108414036D01*
X112091627Y-108221901D01*
X112158266Y-108016809D01*
X112169481Y-107946000D01*
X111139709Y-107946000D01*
X111151452Y-107925661D01*
X111192000Y-107774333D01*
X111192000Y-107617667D01*
X111178959Y-107568996D01*
X117304435Y-107568996D01*
X117304435Y-107569003D01*
X117324630Y-107748249D01*
X117324631Y-107748254D01*
X117384211Y-107918523D01*
X117445969Y-108016809D01*
X117480184Y-108071262D01*
X117607738Y-108198816D01*
X117689916Y-108250452D01*
X117754447Y-108291000D01*
X117760478Y-108294789D01*
X117881113Y-108337001D01*
X117930745Y-108354368D01*
X117930750Y-108354369D01*
X118109996Y-108374565D01*
X118110000Y-108374565D01*
X118110004Y-108374565D01*
X118289249Y-108354369D01*
X118289252Y-108354368D01*
X118289255Y-108354368D01*
X118459522Y-108294789D01*
X118612262Y-108198816D01*
X118739816Y-108071262D01*
X118835789Y-107918522D01*
X118895368Y-107748255D01*
X118895369Y-107748249D01*
X118915565Y-107569003D01*
X118915565Y-107568996D01*
X118895369Y-107389750D01*
X118895367Y-107389740D01*
X118858199Y-107283523D01*
X118852440Y-107267066D01*
X118848878Y-107197290D01*
X118881799Y-107138434D01*
X121643506Y-104376728D01*
X121643511Y-104376724D01*
X121653714Y-104366520D01*
X121653716Y-104366520D01*
X121765520Y-104254716D01*
X121831312Y-104140760D01*
X121844577Y-104117785D01*
X121885500Y-103965057D01*
X121885500Y-103806943D01*
X121885500Y-99694996D01*
X123400435Y-99694996D01*
X123400435Y-99695003D01*
X123420630Y-99874249D01*
X123420631Y-99874254D01*
X123480211Y-100044523D01*
X123549210Y-100154333D01*
X123576184Y-100197262D01*
X123703738Y-100324816D01*
X123856478Y-100420789D01*
X124026745Y-100480368D01*
X124113669Y-100490161D01*
X124178080Y-100517226D01*
X124187465Y-100525700D01*
X127506181Y-103844416D01*
X127539666Y-103905739D01*
X127542500Y-103932097D01*
X127542500Y-104965422D01*
X127522815Y-105032461D01*
X127470011Y-105078216D01*
X127431102Y-105088780D01*
X127370202Y-105095001D01*
X127370200Y-105095001D01*
X127203668Y-105150185D01*
X127203663Y-105150187D01*
X127054342Y-105242289D01*
X126930289Y-105366342D01*
X126838187Y-105515663D01*
X126838186Y-105515666D01*
X126783001Y-105682203D01*
X126783001Y-105682204D01*
X126783000Y-105682204D01*
X126772500Y-105784983D01*
X126772500Y-107575001D01*
X126772501Y-107575018D01*
X126783000Y-107677796D01*
X126783001Y-107677799D01*
X126822773Y-107797821D01*
X126838186Y-107844334D01*
X126930288Y-107993656D01*
X127054344Y-108117712D01*
X127203666Y-108209814D01*
X127370203Y-108264999D01*
X127472991Y-108275500D01*
X128813008Y-108275499D01*
X128915797Y-108264999D01*
X129082334Y-108209814D01*
X129231656Y-108117712D01*
X129355712Y-107993656D01*
X129447814Y-107844334D01*
X129447817Y-107844322D01*
X129448129Y-107843657D01*
X129448469Y-107843269D01*
X129451605Y-107838187D01*
X129452473Y-107838722D01*
X129494299Y-107791216D01*
X129561491Y-107772060D01*
X129628373Y-107792272D01*
X129648195Y-107808375D01*
X129790179Y-107950359D01*
X129964701Y-108077157D01*
X130156911Y-108175092D01*
X130362074Y-108241754D01*
X130441973Y-108254408D01*
X130575134Y-108275500D01*
X130575139Y-108275500D01*
X130790866Y-108275500D01*
X130909230Y-108256752D01*
X131003926Y-108241754D01*
X131209089Y-108175092D01*
X131401299Y-108077157D01*
X131575821Y-107950359D01*
X131728359Y-107797821D01*
X131855157Y-107623299D01*
X131953092Y-107431089D01*
X132019754Y-107225926D01*
X132037599Y-107113255D01*
X132053500Y-107012866D01*
X132053500Y-106347133D01*
X132025704Y-106171641D01*
X132019754Y-106134074D01*
X131991726Y-106047816D01*
X131989732Y-105977977D01*
X132025812Y-105918144D01*
X132088513Y-105887316D01*
X132109658Y-105885500D01*
X140918082Y-105885500D01*
X140972158Y-105901378D01*
X141000524Y-105887360D01*
X141021918Y-105885500D01*
X158705903Y-105885500D01*
X158772942Y-105905185D01*
X158793584Y-105921819D01*
X159756181Y-106884416D01*
X159789666Y-106945739D01*
X159792500Y-106972097D01*
X159792500Y-108337001D01*
X159792501Y-108337018D01*
X159803000Y-108439796D01*
X159803001Y-108439799D01*
X159858185Y-108606331D01*
X159858187Y-108606336D01*
X159873031Y-108630402D01*
X159950288Y-108755656D01*
X160074344Y-108879712D01*
X160223666Y-108971814D01*
X160390203Y-109026999D01*
X160492991Y-109037500D01*
X161833008Y-109037499D01*
X161935797Y-109026999D01*
X162102334Y-108971814D01*
X162251656Y-108879712D01*
X162375712Y-108755656D01*
X162467814Y-108606334D01*
X162467817Y-108606322D01*
X162468129Y-108605657D01*
X162468469Y-108605269D01*
X162471605Y-108600187D01*
X162472473Y-108600722D01*
X162514299Y-108553216D01*
X162581491Y-108534060D01*
X162648373Y-108554272D01*
X162668195Y-108570375D01*
X162810179Y-108712359D01*
X162984701Y-108839157D01*
X163176911Y-108937092D01*
X163382074Y-109003754D01*
X163461973Y-109016408D01*
X163595134Y-109037500D01*
X163595139Y-109037500D01*
X163810866Y-109037500D01*
X163929230Y-109018752D01*
X164023926Y-109003754D01*
X164229089Y-108937092D01*
X164421299Y-108839157D01*
X164595821Y-108712359D01*
X164748359Y-108559821D01*
X164875157Y-108385299D01*
X164973092Y-108193089D01*
X165039754Y-107987926D01*
X165062108Y-107846789D01*
X165073500Y-107774866D01*
X165073500Y-107109133D01*
X165039754Y-106896077D01*
X165039754Y-106896074D01*
X164973092Y-106690911D01*
X164875157Y-106498701D01*
X164748359Y-106324179D01*
X164595821Y-106171641D01*
X164421299Y-106044843D01*
X164421298Y-106044842D01*
X164421296Y-106044841D01*
X164371204Y-106019317D01*
X164320408Y-105971342D01*
X164303500Y-105908833D01*
X164303500Y-89046133D01*
X170743500Y-89046133D01*
X170743500Y-89261866D01*
X170777245Y-89474922D01*
X170777246Y-89474926D01*
X170843908Y-89680089D01*
X170941843Y-89872299D01*
X171068641Y-90046821D01*
X171068643Y-90046823D01*
X171210624Y-90188804D01*
X171244109Y-90250127D01*
X171239125Y-90319819D01*
X171197253Y-90375752D01*
X171175360Y-90388861D01*
X171174677Y-90389179D01*
X171025342Y-90481289D01*
X170901289Y-90605342D01*
X170809187Y-90754663D01*
X170809186Y-90754666D01*
X170754001Y-90921203D01*
X170754001Y-90921204D01*
X170754000Y-90921204D01*
X170743500Y-91023983D01*
X170743500Y-92364001D01*
X170743501Y-92364018D01*
X170754000Y-92466796D01*
X170754001Y-92466799D01*
X170785023Y-92560416D01*
X170809186Y-92633334D01*
X170901288Y-92782656D01*
X171025344Y-92906712D01*
X171174666Y-92998814D01*
X171341203Y-93053999D01*
X171443991Y-93064500D01*
X173234008Y-93064499D01*
X173336797Y-93053999D01*
X173503334Y-92998814D01*
X173652656Y-92906712D01*
X173776712Y-92782656D01*
X173868814Y-92633334D01*
X173923999Y-92466797D01*
X173934500Y-92364009D01*
X173934499Y-91898094D01*
X173954183Y-91831057D01*
X174006987Y-91785302D01*
X174076146Y-91775358D01*
X174139702Y-91804383D01*
X174146180Y-91810415D01*
X179322181Y-96986416D01*
X179355666Y-97047739D01*
X179358500Y-97074097D01*
X179358500Y-103359903D01*
X179338815Y-103426942D01*
X179286011Y-103472697D01*
X179216853Y-103482641D01*
X179153297Y-103453616D01*
X179146819Y-103447584D01*
X175413590Y-99714355D01*
X175413588Y-99714352D01*
X175294717Y-99595481D01*
X175294716Y-99595480D01*
X175195472Y-99538182D01*
X175195471Y-99538181D01*
X175157783Y-99516422D01*
X175101881Y-99501443D01*
X175005057Y-99475499D01*
X174846943Y-99475499D01*
X174839347Y-99475499D01*
X174839331Y-99475500D01*
X174053578Y-99475500D01*
X173986539Y-99455815D01*
X173940784Y-99403011D01*
X173930220Y-99364102D01*
X173928317Y-99345476D01*
X173923999Y-99303203D01*
X173868814Y-99136666D01*
X173776712Y-98987344D01*
X173652656Y-98863288D01*
X173503334Y-98771186D01*
X173503332Y-98771185D01*
X173503325Y-98771181D01*
X173502165Y-98770640D01*
X173501503Y-98770057D01*
X173497187Y-98767395D01*
X173497642Y-98766657D01*
X173449727Y-98724466D01*
X173430577Y-98657272D01*
X173450795Y-98590392D01*
X173466892Y-98570578D01*
X173608977Y-98428493D01*
X173735728Y-98254036D01*
X173833627Y-98061901D01*
X173900266Y-97856809D01*
X173911481Y-97786000D01*
X172881709Y-97786000D01*
X172893452Y-97765661D01*
X172934000Y-97614333D01*
X172934000Y-97457667D01*
X172893452Y-97306339D01*
X172881709Y-97286000D01*
X173911481Y-97286000D01*
X173900266Y-97215190D01*
X173833627Y-97010098D01*
X173735728Y-96817963D01*
X173608974Y-96643503D01*
X173608974Y-96643502D01*
X173456497Y-96491025D01*
X173282036Y-96364271D01*
X173089901Y-96266372D01*
X172884809Y-96199734D01*
X172671820Y-96166000D01*
X172589000Y-96166000D01*
X172589000Y-96993290D01*
X172568661Y-96981548D01*
X172417333Y-96941000D01*
X172260667Y-96941000D01*
X172109339Y-96981548D01*
X172089000Y-96993290D01*
X172089000Y-96166000D01*
X172006180Y-96166000D01*
X171793190Y-96199734D01*
X171588098Y-96266372D01*
X171395963Y-96364271D01*
X171221503Y-96491025D01*
X171221502Y-96491025D01*
X171069025Y-96643502D01*
X171069025Y-96643503D01*
X170942271Y-96817963D01*
X170844372Y-97010098D01*
X170777733Y-97215190D01*
X170766519Y-97286000D01*
X171796291Y-97286000D01*
X171784548Y-97306339D01*
X171744000Y-97457667D01*
X171744000Y-97614333D01*
X171784548Y-97765661D01*
X171796291Y-97786000D01*
X170766519Y-97786000D01*
X170777733Y-97856809D01*
X170844372Y-98061901D01*
X170942271Y-98254036D01*
X171069025Y-98428496D01*
X171069025Y-98428497D01*
X171211107Y-98570579D01*
X171244592Y-98631902D01*
X171239608Y-98701594D01*
X171197736Y-98757527D01*
X171175840Y-98770638D01*
X171174672Y-98771182D01*
X171025342Y-98863289D01*
X170901289Y-98987342D01*
X170809187Y-99136663D01*
X170809185Y-99136668D01*
X170781349Y-99220670D01*
X170754001Y-99303203D01*
X170754001Y-99303204D01*
X170754000Y-99303204D01*
X170743500Y-99405983D01*
X170743500Y-100746001D01*
X170743501Y-100746018D01*
X170754000Y-100848796D01*
X170754001Y-100848799D01*
X170793665Y-100968496D01*
X170809186Y-101015334D01*
X170901288Y-101164656D01*
X171025344Y-101288712D01*
X171174666Y-101380814D01*
X171341203Y-101435999D01*
X171443991Y-101446500D01*
X173234008Y-101446499D01*
X173336797Y-101435999D01*
X173503334Y-101380814D01*
X173652656Y-101288712D01*
X173776712Y-101164656D01*
X173868814Y-101015334D01*
X173923999Y-100848797D01*
X173926901Y-100820389D01*
X173930221Y-100787897D01*
X173956618Y-100723205D01*
X174013799Y-100683054D01*
X174053579Y-100676500D01*
X174625903Y-100676500D01*
X174692942Y-100696185D01*
X174713584Y-100712819D01*
X183493298Y-109492533D01*
X183526783Y-109553856D01*
X183528837Y-109566330D01*
X183538630Y-109653249D01*
X183598210Y-109823521D01*
X183598211Y-109823522D01*
X183694184Y-109976262D01*
X183821738Y-110103816D01*
X183974478Y-110199789D01*
X184144745Y-110259368D01*
X184144750Y-110259369D01*
X184323996Y-110279565D01*
X184324000Y-110279565D01*
X184324004Y-110279565D01*
X184503249Y-110259369D01*
X184503252Y-110259368D01*
X184503255Y-110259368D01*
X184673522Y-110199789D01*
X184820432Y-110107478D01*
X184887668Y-110088479D01*
X184954504Y-110108847D01*
X184974085Y-110124792D01*
X186307181Y-111457887D01*
X186340666Y-111519210D01*
X186343500Y-111545568D01*
X186343500Y-118332734D01*
X186323815Y-118399773D01*
X186271011Y-118445528D01*
X186233384Y-118455954D01*
X186129749Y-118467630D01*
X186129745Y-118467631D01*
X185959476Y-118527211D01*
X185806737Y-118623184D01*
X185679184Y-118750737D01*
X185583211Y-118903476D01*
X185523631Y-119073745D01*
X185523630Y-119073750D01*
X185503435Y-119252996D01*
X185503435Y-119253003D01*
X185523630Y-119432249D01*
X185523631Y-119432254D01*
X185583211Y-119602523D01*
X185679185Y-119755263D01*
X185681445Y-119758097D01*
X185682334Y-119760275D01*
X185682889Y-119761158D01*
X185682734Y-119761255D01*
X185707855Y-119822783D01*
X185708500Y-119835412D01*
X185708500Y-120067587D01*
X185688815Y-120134626D01*
X185681450Y-120144896D01*
X185679186Y-120147734D01*
X185583211Y-120300476D01*
X185523631Y-120470745D01*
X185523630Y-120470749D01*
X185511954Y-120574384D01*
X185484887Y-120638798D01*
X185427292Y-120678353D01*
X185388734Y-120684500D01*
X183815097Y-120684500D01*
X183748058Y-120664815D01*
X183727416Y-120648181D01*
X180154700Y-117075465D01*
X180121215Y-117014142D01*
X180119163Y-117001686D01*
X180109368Y-116914745D01*
X180049789Y-116744478D01*
X180049788Y-116744474D01*
X179957479Y-116597567D01*
X179938478Y-116530331D01*
X179958845Y-116463496D01*
X179974786Y-116443919D01*
X181227887Y-115190819D01*
X181289210Y-115157334D01*
X181315568Y-115154500D01*
X183741588Y-115154500D01*
X183808627Y-115174185D01*
X183818903Y-115181555D01*
X183821736Y-115183814D01*
X183821738Y-115183816D01*
X183974478Y-115279789D01*
X184144745Y-115339368D01*
X184144750Y-115339369D01*
X184323996Y-115359565D01*
X184324000Y-115359565D01*
X184324004Y-115359565D01*
X184503249Y-115339369D01*
X184503252Y-115339368D01*
X184503255Y-115339368D01*
X184673522Y-115279789D01*
X184826262Y-115183816D01*
X184953816Y-115056262D01*
X185049789Y-114903522D01*
X185109368Y-114733255D01*
X185129565Y-114554000D01*
X185109368Y-114374745D01*
X185049789Y-114204478D01*
X184953816Y-114051738D01*
X184826262Y-113924184D01*
X184673523Y-113828211D01*
X184503254Y-113768631D01*
X184503249Y-113768630D01*
X184324004Y-113748435D01*
X184323996Y-113748435D01*
X184144750Y-113768630D01*
X184144745Y-113768631D01*
X183974476Y-113828211D01*
X183821736Y-113924185D01*
X183818903Y-113926445D01*
X183816724Y-113927334D01*
X183815842Y-113927889D01*
X183815744Y-113927734D01*
X183754217Y-113952855D01*
X183741588Y-113953500D01*
X181094528Y-113953500D01*
X180936413Y-113953500D01*
X180783686Y-113994423D01*
X180783685Y-113994423D01*
X180783683Y-113994424D01*
X180783680Y-113994425D01*
X180748537Y-114014716D01*
X180748535Y-114014717D01*
X180646761Y-114073475D01*
X180646753Y-114073481D01*
X175668481Y-119051753D01*
X175668479Y-119051756D01*
X175618361Y-119138565D01*
X175618359Y-119138567D01*
X175589425Y-119188680D01*
X175589424Y-119188681D01*
X175584637Y-119206548D01*
X175548499Y-119341414D01*
X175548499Y-119341416D01*
X175548499Y-119509517D01*
X175548500Y-119509530D01*
X175548500Y-133811902D01*
X175528815Y-133878941D01*
X175512185Y-133899578D01*
X175386435Y-134025329D01*
X175368465Y-134043299D01*
X175307142Y-134076783D01*
X175294668Y-134078837D01*
X175207750Y-134088630D01*
X175037478Y-134148210D01*
X174884737Y-134244184D01*
X174757184Y-134371737D01*
X174661211Y-134524476D01*
X174601631Y-134694745D01*
X174601630Y-134694750D01*
X174581435Y-134873996D01*
X174581435Y-134874003D01*
X174601630Y-135053249D01*
X174601631Y-135053254D01*
X174661211Y-135223523D01*
X174748087Y-135361785D01*
X174757184Y-135376262D01*
X174884738Y-135503816D01*
X175037478Y-135599789D01*
X175207745Y-135659368D01*
X175207750Y-135659369D01*
X175386996Y-135679565D01*
X175387000Y-135679565D01*
X175387004Y-135679565D01*
X175566249Y-135659369D01*
X175566252Y-135659368D01*
X175566255Y-135659368D01*
X175736522Y-135599789D01*
X175889262Y-135503816D01*
X176016816Y-135376262D01*
X176112789Y-135223522D01*
X176172368Y-135053255D01*
X176182161Y-134966329D01*
X176209226Y-134901918D01*
X176217680Y-134892554D01*
X176231523Y-134878711D01*
X183149500Y-134878711D01*
X183149500Y-135121288D01*
X183181161Y-135361785D01*
X183243947Y-135596104D01*
X183278518Y-135679565D01*
X183336776Y-135820212D01*
X183458064Y-136030289D01*
X183458066Y-136030292D01*
X183458067Y-136030293D01*
X183605733Y-136222736D01*
X183605739Y-136222743D01*
X183777256Y-136394260D01*
X183777262Y-136394265D01*
X183969711Y-136541936D01*
X184179788Y-136663224D01*
X184403900Y-136756054D01*
X184638211Y-136818838D01*
X184818586Y-136842584D01*
X184878711Y-136850500D01*
X184878712Y-136850500D01*
X185121289Y-136850500D01*
X185169388Y-136844167D01*
X185361789Y-136818838D01*
X185596100Y-136756054D01*
X185820212Y-136663224D01*
X186030289Y-136541936D01*
X186222738Y-136394265D01*
X186394265Y-136222738D01*
X186541936Y-136030289D01*
X186663224Y-135820212D01*
X186756054Y-135596100D01*
X186818838Y-135361789D01*
X186850500Y-135121288D01*
X186850500Y-134878712D01*
X186818838Y-134638211D01*
X186756054Y-134403900D01*
X186663224Y-134179788D01*
X186541936Y-133969711D01*
X186394265Y-133777262D01*
X186394260Y-133777256D01*
X186222743Y-133605739D01*
X186222736Y-133605733D01*
X186030293Y-133458067D01*
X186030292Y-133458066D01*
X186030289Y-133458064D01*
X185820212Y-133336776D01*
X185820205Y-133336773D01*
X185596104Y-133243947D01*
X185361785Y-133181161D01*
X185121289Y-133149500D01*
X185121288Y-133149500D01*
X184878712Y-133149500D01*
X184878711Y-133149500D01*
X184638214Y-133181161D01*
X184403895Y-133243947D01*
X184179794Y-133336773D01*
X184179785Y-133336777D01*
X183969706Y-133458067D01*
X183777263Y-133605733D01*
X183777256Y-133605739D01*
X183605739Y-133777256D01*
X183605733Y-133777263D01*
X183458067Y-133969706D01*
X183336777Y-134179785D01*
X183336773Y-134179794D01*
X183243947Y-134403895D01*
X183181161Y-134638214D01*
X183149500Y-134878711D01*
X176231523Y-134878711D01*
X176629520Y-134480716D01*
X176708577Y-134343784D01*
X176749501Y-134191057D01*
X176749501Y-134032942D01*
X176749501Y-134025347D01*
X176749500Y-134025329D01*
X176749500Y-119720568D01*
X176769185Y-119653529D01*
X176785819Y-119632887D01*
X177552444Y-118866262D01*
X178326742Y-118091963D01*
X178388063Y-118058480D01*
X178457755Y-118063464D01*
X178513688Y-118105336D01*
X178538105Y-118170800D01*
X178537641Y-118193529D01*
X178518435Y-118363995D01*
X178518435Y-118364003D01*
X178538630Y-118543249D01*
X178538631Y-118543254D01*
X178598211Y-118713523D01*
X178647583Y-118792097D01*
X178694184Y-118866262D01*
X178821738Y-118993816D01*
X178974478Y-119089789D01*
X179144745Y-119149368D01*
X179231669Y-119159161D01*
X179296080Y-119186226D01*
X179305465Y-119194700D01*
X182268139Y-122157374D01*
X182268149Y-122157385D01*
X182272479Y-122161715D01*
X182272480Y-122161716D01*
X182384284Y-122273520D01*
X182471095Y-122323639D01*
X182471097Y-122323641D01*
X182521213Y-122352576D01*
X182521215Y-122352577D01*
X182673942Y-122393500D01*
X182673943Y-122393500D01*
X186915016Y-122393500D01*
X186915032Y-122393501D01*
X186922628Y-122393501D01*
X187080739Y-122393501D01*
X187080742Y-122393501D01*
X187233470Y-122352577D01*
X187283589Y-122323639D01*
X187370401Y-122273520D01*
X187482205Y-122161716D01*
X187482206Y-122161714D01*
X187824520Y-121819401D01*
X187903577Y-121682469D01*
X187944501Y-121529742D01*
X187944501Y-121371627D01*
X187944501Y-121364032D01*
X187944500Y-121364014D01*
X187944500Y-92268945D01*
X187944500Y-92268943D01*
X187903577Y-92116216D01*
X187903577Y-92116215D01*
X187903577Y-92116214D01*
X187857419Y-92036267D01*
X187857418Y-92036266D01*
X187824521Y-91979286D01*
X187824520Y-91979284D01*
X187712716Y-91867480D01*
X187712715Y-91867479D01*
X187708385Y-91863149D01*
X187708374Y-91863139D01*
X185668369Y-89823134D01*
X185634884Y-89761811D01*
X185639868Y-89692119D01*
X185644011Y-89682696D01*
X185645090Y-89680093D01*
X185645092Y-89680089D01*
X185711754Y-89474926D01*
X185726752Y-89380230D01*
X185745500Y-89261866D01*
X185745500Y-89046133D01*
X185711754Y-88833077D01*
X185711754Y-88833074D01*
X185645092Y-88627911D01*
X185547157Y-88435701D01*
X185420359Y-88261179D01*
X185267821Y-88108641D01*
X185093299Y-87981843D01*
X184901089Y-87883908D01*
X184695926Y-87817246D01*
X184695924Y-87817245D01*
X184695922Y-87817245D01*
X184482866Y-87783500D01*
X184482861Y-87783500D01*
X183817139Y-87783500D01*
X183817134Y-87783500D01*
X183604077Y-87817245D01*
X183398908Y-87883909D01*
X183206700Y-87981843D01*
X183107129Y-88054186D01*
X183032179Y-88108641D01*
X183032177Y-88108643D01*
X183032176Y-88108643D01*
X182879643Y-88261176D01*
X182879643Y-88261177D01*
X182879641Y-88261179D01*
X182825186Y-88336129D01*
X182752843Y-88435700D01*
X182654909Y-88627908D01*
X182588245Y-88833077D01*
X182554500Y-89046133D01*
X182554500Y-89261866D01*
X182588245Y-89474922D01*
X182588246Y-89474926D01*
X182654908Y-89680089D01*
X182752843Y-89872299D01*
X182879641Y-90046821D01*
X182879643Y-90046823D01*
X183021624Y-90188804D01*
X183055109Y-90250127D01*
X183050125Y-90319819D01*
X183008253Y-90375752D01*
X182986360Y-90388861D01*
X182985677Y-90389179D01*
X182836342Y-90481289D01*
X182712289Y-90605342D01*
X182620187Y-90754663D01*
X182620186Y-90754666D01*
X182565001Y-90921203D01*
X182565001Y-90921204D01*
X182565000Y-90921204D01*
X182554500Y-91023983D01*
X182554500Y-92364001D01*
X182554501Y-92364018D01*
X182565000Y-92466796D01*
X182565001Y-92466799D01*
X182596023Y-92560416D01*
X182620186Y-92633334D01*
X182712288Y-92782656D01*
X182836344Y-92906712D01*
X182985666Y-92998814D01*
X183152203Y-93053999D01*
X183254991Y-93064500D01*
X185045008Y-93064499D01*
X185147797Y-93053999D01*
X185314334Y-92998814D01*
X185463656Y-92906712D01*
X185587712Y-92782656D01*
X185679814Y-92633334D01*
X185734999Y-92466797D01*
X185745500Y-92364009D01*
X185745499Y-91898094D01*
X185765183Y-91831057D01*
X185817987Y-91785302D01*
X185887146Y-91775358D01*
X185950702Y-91804383D01*
X185957180Y-91810415D01*
X186707181Y-92560416D01*
X186740666Y-92621739D01*
X186743500Y-92648097D01*
X186743500Y-109896373D01*
X186723815Y-109963412D01*
X186671011Y-110009167D01*
X186601853Y-110019111D01*
X186538297Y-109990086D01*
X186531819Y-109984054D01*
X180595819Y-104048054D01*
X180562334Y-103986731D01*
X180559500Y-103960373D01*
X180559500Y-96865983D01*
X182173500Y-96865983D01*
X182173500Y-98206001D01*
X182173501Y-98206018D01*
X182184000Y-98308796D01*
X182184001Y-98308799D01*
X182223664Y-98428493D01*
X182239186Y-98475334D01*
X182331288Y-98624656D01*
X182455344Y-98748712D01*
X182604666Y-98840814D01*
X182604667Y-98840814D01*
X182604670Y-98840816D01*
X182605828Y-98841356D01*
X182606488Y-98841937D01*
X182610813Y-98844605D01*
X182610357Y-98845343D01*
X182658268Y-98887527D01*
X182677422Y-98954720D01*
X182657208Y-99021601D01*
X182641108Y-99041420D01*
X182499022Y-99183506D01*
X182372271Y-99357963D01*
X182274372Y-99550098D01*
X182207733Y-99755190D01*
X182196519Y-99826000D01*
X183226291Y-99826000D01*
X183214548Y-99846339D01*
X183174000Y-99997667D01*
X183174000Y-100154333D01*
X183214548Y-100305661D01*
X183226291Y-100326000D01*
X182196519Y-100326000D01*
X182207733Y-100396809D01*
X182274372Y-100601901D01*
X182372271Y-100794036D01*
X182499025Y-100968496D01*
X182499025Y-100968497D01*
X182651502Y-101120974D01*
X182825963Y-101247728D01*
X183018098Y-101345627D01*
X183223190Y-101412265D01*
X183436180Y-101446000D01*
X183519000Y-101446000D01*
X183519000Y-100618709D01*
X183539339Y-100630452D01*
X183690667Y-100671000D01*
X183847333Y-100671000D01*
X183998661Y-100630452D01*
X184019000Y-100618709D01*
X184019000Y-101446000D01*
X184101820Y-101446000D01*
X184314809Y-101412265D01*
X184519901Y-101345627D01*
X184712036Y-101247728D01*
X184886496Y-101120974D01*
X184886497Y-101120974D01*
X185038974Y-100968497D01*
X185038974Y-100968496D01*
X185165728Y-100794036D01*
X185263627Y-100601901D01*
X185330266Y-100396809D01*
X185341481Y-100326000D01*
X184311709Y-100326000D01*
X184323452Y-100305661D01*
X184364000Y-100154333D01*
X184364000Y-99997667D01*
X184323452Y-99846339D01*
X184311709Y-99826000D01*
X185341481Y-99826000D01*
X185330266Y-99755190D01*
X185263627Y-99550098D01*
X185165728Y-99357963D01*
X185038974Y-99183503D01*
X185038974Y-99183502D01*
X184896892Y-99041420D01*
X184863407Y-98980097D01*
X184868391Y-98910405D01*
X184910263Y-98854472D01*
X184932177Y-98841353D01*
X184933323Y-98840817D01*
X184933334Y-98840814D01*
X185082656Y-98748712D01*
X185206712Y-98624656D01*
X185298814Y-98475334D01*
X185353999Y-98308797D01*
X185364500Y-98206009D01*
X185364499Y-96865992D01*
X185353999Y-96763203D01*
X185298814Y-96596666D01*
X185206712Y-96447344D01*
X185082656Y-96323288D01*
X184933334Y-96231186D01*
X184766797Y-96176001D01*
X184766795Y-96176000D01*
X184664010Y-96165500D01*
X182873998Y-96165500D01*
X182873981Y-96165501D01*
X182771203Y-96176000D01*
X182771200Y-96176001D01*
X182604668Y-96231185D01*
X182604663Y-96231187D01*
X182455342Y-96323289D01*
X182331289Y-96447342D01*
X182239187Y-96596663D01*
X182239186Y-96596666D01*
X182184001Y-96763203D01*
X182184001Y-96763204D01*
X182184000Y-96763204D01*
X182173500Y-96865983D01*
X180559500Y-96865983D01*
X180559500Y-96694945D01*
X180559500Y-96694943D01*
X180518577Y-96542216D01*
X180487577Y-96488522D01*
X180439524Y-96405290D01*
X180439521Y-96405286D01*
X180439520Y-96405284D01*
X180327716Y-96293480D01*
X180327715Y-96293479D01*
X180323385Y-96289149D01*
X180323374Y-96289139D01*
X174000416Y-89966181D01*
X173966931Y-89904858D01*
X173971915Y-89835166D01*
X174013787Y-89779233D01*
X174079251Y-89754816D01*
X174088097Y-89754500D01*
X175427331Y-89754500D01*
X175427347Y-89754501D01*
X175434943Y-89754501D01*
X175593054Y-89754501D01*
X175593057Y-89754501D01*
X175745785Y-89713577D01*
X175803787Y-89680089D01*
X175882716Y-89634520D01*
X175994520Y-89522716D01*
X175994520Y-89522714D01*
X176004724Y-89512511D01*
X176004728Y-89512506D01*
X182342821Y-83174412D01*
X182404142Y-83140929D01*
X182473834Y-83145913D01*
X182529767Y-83187785D01*
X182554184Y-83253249D01*
X182554500Y-83262095D01*
X182554500Y-83728001D01*
X182554501Y-83728019D01*
X182565000Y-83830796D01*
X182565001Y-83830799D01*
X182620185Y-83997331D01*
X182620186Y-83997334D01*
X182712288Y-84146656D01*
X182836344Y-84270712D01*
X182985666Y-84362814D01*
X183152203Y-84417999D01*
X183254991Y-84428500D01*
X185045008Y-84428499D01*
X185147797Y-84417999D01*
X185314334Y-84362814D01*
X185463656Y-84270712D01*
X185587712Y-84146656D01*
X185679814Y-83997334D01*
X185734999Y-83830797D01*
X185745500Y-83728009D01*
X185745499Y-82387992D01*
X185744419Y-82377420D01*
X185757188Y-82308728D01*
X185780093Y-82277140D01*
X185903506Y-82153728D01*
X185903511Y-82153724D01*
X185913714Y-82143520D01*
X185913716Y-82143520D01*
X186025520Y-82031716D01*
X186092467Y-81915760D01*
X186104577Y-81894785D01*
X186145501Y-81742057D01*
X186145501Y-81583943D01*
X186145501Y-81576348D01*
X186145500Y-81576330D01*
X186145500Y-55840059D01*
X186145501Y-55840046D01*
X186145501Y-55671945D01*
X186145501Y-55671943D01*
X186104577Y-55519215D01*
X186104575Y-55519212D01*
X186104575Y-55519210D01*
X186104574Y-55519209D01*
X186071544Y-55462000D01*
X186071542Y-55461998D01*
X186049751Y-55424255D01*
X186025520Y-55382284D01*
X185913716Y-55270480D01*
X185913715Y-55270479D01*
X185909385Y-55266149D01*
X185909374Y-55266139D01*
X185668369Y-55025134D01*
X185634884Y-54963811D01*
X185639868Y-54894119D01*
X185644011Y-54884696D01*
X185645087Y-54882097D01*
X185645092Y-54882089D01*
X185711754Y-54676926D01*
X185726752Y-54582230D01*
X185745500Y-54463866D01*
X185745500Y-54248133D01*
X185723002Y-54106095D01*
X185711754Y-54035074D01*
X185645092Y-53829911D01*
X185547157Y-53637701D01*
X185420359Y-53463179D01*
X185267821Y-53310641D01*
X185093299Y-53183843D01*
X184901089Y-53085908D01*
X184695926Y-53019246D01*
X184695924Y-53019245D01*
X184695922Y-53019245D01*
X184482866Y-52985500D01*
X184482861Y-52985500D01*
X183817139Y-52985500D01*
X183817134Y-52985500D01*
X183604077Y-53019245D01*
X183398908Y-53085909D01*
X183206700Y-53183843D01*
X183158672Y-53218738D01*
X183032179Y-53310641D01*
X183032177Y-53310643D01*
X183032176Y-53310643D01*
X182879643Y-53463176D01*
X182879643Y-53463177D01*
X182879641Y-53463179D01*
X182833108Y-53527226D01*
X182752843Y-53637700D01*
X182654909Y-53829908D01*
X182588245Y-54035077D01*
X182554500Y-54248133D01*
X182554500Y-54463866D01*
X182582298Y-54639372D01*
X182588246Y-54676926D01*
X182654908Y-54882089D01*
X182752843Y-55074299D01*
X182879641Y-55248821D01*
X183032179Y-55401359D01*
X183115643Y-55461999D01*
X183203294Y-55525682D01*
X183245959Y-55581012D01*
X183251938Y-55650626D01*
X183219332Y-55712421D01*
X183203294Y-55726318D01*
X183167725Y-55752161D01*
X183032179Y-55850641D01*
X183032177Y-55850643D01*
X183032176Y-55850643D01*
X182879643Y-56003176D01*
X182879643Y-56003177D01*
X182879641Y-56003179D01*
X182856899Y-56034481D01*
X182752843Y-56177700D01*
X182654909Y-56369908D01*
X182588245Y-56575077D01*
X182554500Y-56788133D01*
X182554500Y-57003866D01*
X182578467Y-57155184D01*
X182588246Y-57216926D01*
X182654908Y-57422089D01*
X182752843Y-57614299D01*
X182879641Y-57788821D01*
X183032179Y-57941359D01*
X183130271Y-58012627D01*
X183203720Y-58065991D01*
X183246385Y-58121321D01*
X183252364Y-58190935D01*
X183219758Y-58252730D01*
X183203720Y-58266627D01*
X183032503Y-58391024D01*
X182880025Y-58543502D01*
X182880025Y-58543503D01*
X182753271Y-58717963D01*
X182655372Y-58910098D01*
X182588733Y-59115190D01*
X182577519Y-59186000D01*
X183607291Y-59186000D01*
X183595548Y-59206339D01*
X183555000Y-59357667D01*
X183555000Y-59514333D01*
X183595548Y-59665661D01*
X183607291Y-59686000D01*
X182577519Y-59686000D01*
X182588733Y-59756809D01*
X182655372Y-59961901D01*
X182753271Y-60154036D01*
X182880025Y-60328496D01*
X182880025Y-60328497D01*
X183022107Y-60470579D01*
X183055592Y-60531902D01*
X183050608Y-60601594D01*
X183008736Y-60657527D01*
X182986840Y-60670638D01*
X182985672Y-60671182D01*
X182836342Y-60763289D01*
X182712289Y-60887342D01*
X182620187Y-61036663D01*
X182620185Y-61036668D01*
X182613937Y-61055523D01*
X182565001Y-61203203D01*
X182565001Y-61203204D01*
X182565000Y-61203204D01*
X182554500Y-61305983D01*
X182554500Y-62646001D01*
X182554501Y-62646018D01*
X182565000Y-62748796D01*
X182565001Y-62748799D01*
X182620185Y-62915331D01*
X182620187Y-62915336D01*
X182639427Y-62946529D01*
X182712288Y-63064656D01*
X182836344Y-63188712D01*
X182985666Y-63280814D01*
X183152203Y-63335999D01*
X183254991Y-63346500D01*
X183425500Y-63346499D01*
X183492539Y-63366183D01*
X183538294Y-63418987D01*
X183549500Y-63470499D01*
X183549500Y-71200902D01*
X183529815Y-71267941D01*
X183513181Y-71288583D01*
X174514919Y-80286844D01*
X174453596Y-80320329D01*
X174383904Y-80315345D01*
X174327971Y-80273473D01*
X174304765Y-80218560D01*
X174281266Y-80070191D01*
X174281266Y-80070190D01*
X174214627Y-79865098D01*
X174116728Y-79672963D01*
X173989974Y-79498503D01*
X173989974Y-79498502D01*
X173837497Y-79346025D01*
X173663036Y-79219271D01*
X173470901Y-79121372D01*
X173265809Y-79054734D01*
X173052820Y-79021000D01*
X172970000Y-79021000D01*
X172970000Y-79848290D01*
X172949661Y-79836548D01*
X172798333Y-79796000D01*
X172641667Y-79796000D01*
X172490339Y-79836548D01*
X172470000Y-79848290D01*
X172470000Y-79021000D01*
X172387180Y-79021000D01*
X172174190Y-79054734D01*
X171969098Y-79121372D01*
X171776963Y-79219271D01*
X171602503Y-79346025D01*
X171602502Y-79346025D01*
X171450025Y-79498502D01*
X171450025Y-79498503D01*
X171323271Y-79672963D01*
X171225372Y-79865098D01*
X171158733Y-80070190D01*
X171147519Y-80141000D01*
X172177291Y-80141000D01*
X172165548Y-80161339D01*
X172125000Y-80312667D01*
X172125000Y-80469333D01*
X172165548Y-80620661D01*
X172177291Y-80641000D01*
X171147519Y-80641000D01*
X171158733Y-80711809D01*
X171225372Y-80916901D01*
X171323271Y-81109036D01*
X171450025Y-81283496D01*
X171450025Y-81283497D01*
X171592107Y-81425579D01*
X171625592Y-81486902D01*
X171620608Y-81556594D01*
X171578736Y-81612527D01*
X171556840Y-81625638D01*
X171555672Y-81626182D01*
X171406342Y-81718289D01*
X171282289Y-81842342D01*
X171190187Y-81991663D01*
X171190186Y-81991666D01*
X171135001Y-82158203D01*
X171135001Y-82158204D01*
X171135000Y-82158204D01*
X171124500Y-82260983D01*
X171124500Y-83601001D01*
X171124501Y-83601018D01*
X171135000Y-83703796D01*
X171135001Y-83703799D01*
X171143024Y-83728009D01*
X171190186Y-83870334D01*
X171282288Y-84019656D01*
X171406344Y-84143712D01*
X171555666Y-84235814D01*
X171722203Y-84290999D01*
X171824991Y-84301500D01*
X173615008Y-84301499D01*
X173717797Y-84290999D01*
X173884334Y-84235814D01*
X174033656Y-84143712D01*
X174157712Y-84019656D01*
X174249814Y-83870334D01*
X174304999Y-83703797D01*
X174315500Y-83601009D01*
X174315499Y-82260992D01*
X174314419Y-82250420D01*
X174327188Y-82181728D01*
X174350093Y-82150140D01*
X184508506Y-71991728D01*
X184508511Y-71991724D01*
X184518714Y-71981520D01*
X184518716Y-71981520D01*
X184630520Y-71869716D01*
X184696751Y-71755000D01*
X184709577Y-71732785D01*
X184709576Y-71732785D01*
X184713113Y-71726661D01*
X184763680Y-71678446D01*
X184832287Y-71665222D01*
X184897151Y-71691190D01*
X184937680Y-71748104D01*
X184944500Y-71788661D01*
X184944500Y-79091341D01*
X184924815Y-79158380D01*
X184872011Y-79204135D01*
X184802853Y-79214079D01*
X184782183Y-79209272D01*
X184695927Y-79181246D01*
X184695922Y-79181245D01*
X184482866Y-79147500D01*
X184482861Y-79147500D01*
X183817139Y-79147500D01*
X183817134Y-79147500D01*
X183604077Y-79181245D01*
X183398908Y-79247909D01*
X183206700Y-79345843D01*
X183206450Y-79346025D01*
X183032179Y-79472641D01*
X183032177Y-79472643D01*
X183032176Y-79472643D01*
X182879643Y-79625176D01*
X182879643Y-79625177D01*
X182879641Y-79625179D01*
X182844924Y-79672963D01*
X182752843Y-79799700D01*
X182654909Y-79991908D01*
X182588245Y-80197077D01*
X182554500Y-80410133D01*
X182554500Y-80625866D01*
X182575165Y-80756338D01*
X182588246Y-80838926D01*
X182622859Y-80945452D01*
X182654910Y-81044096D01*
X182656775Y-81048598D01*
X182655552Y-81049104D01*
X182667328Y-81111841D01*
X182641044Y-81176579D01*
X182631629Y-81187134D01*
X175301584Y-88517181D01*
X175240261Y-88550666D01*
X175213903Y-88553500D01*
X173872165Y-88553500D01*
X173805126Y-88533815D01*
X173761680Y-88485794D01*
X173736157Y-88435701D01*
X173609359Y-88261179D01*
X173456821Y-88108641D01*
X173282299Y-87981843D01*
X173090089Y-87883908D01*
X172884926Y-87817246D01*
X172884924Y-87817245D01*
X172884922Y-87817245D01*
X172671866Y-87783500D01*
X172671861Y-87783500D01*
X172006139Y-87783500D01*
X172006134Y-87783500D01*
X171793077Y-87817245D01*
X171587908Y-87883909D01*
X171395700Y-87981843D01*
X171296129Y-88054186D01*
X171221179Y-88108641D01*
X171221177Y-88108643D01*
X171221176Y-88108643D01*
X171068643Y-88261176D01*
X171068643Y-88261177D01*
X171068641Y-88261179D01*
X171014186Y-88336129D01*
X170941843Y-88435700D01*
X170843909Y-88627908D01*
X170777245Y-88833077D01*
X170743500Y-89046133D01*
X164303500Y-89046133D01*
X164303500Y-74802996D01*
X174073435Y-74802996D01*
X174073435Y-74803003D01*
X174093630Y-74982249D01*
X174093631Y-74982254D01*
X174153211Y-75152523D01*
X174216089Y-75252592D01*
X174249184Y-75305262D01*
X174376738Y-75432816D01*
X174529478Y-75528789D01*
X174672924Y-75578983D01*
X174699745Y-75588368D01*
X174699750Y-75588369D01*
X174878996Y-75608565D01*
X174879000Y-75608565D01*
X174879004Y-75608565D01*
X175058249Y-75588369D01*
X175058252Y-75588368D01*
X175058255Y-75588368D01*
X175228522Y-75528789D01*
X175381262Y-75432816D01*
X175508816Y-75305262D01*
X175604789Y-75152522D01*
X175664368Y-74982255D01*
X175674161Y-74895329D01*
X175701226Y-74830918D01*
X175709695Y-74821539D01*
X177777506Y-72753728D01*
X177777511Y-72753724D01*
X177787714Y-72743520D01*
X177787716Y-72743520D01*
X177899520Y-72631716D01*
X177978577Y-72494784D01*
X178019500Y-72342057D01*
X178019500Y-69543412D01*
X178039185Y-69476373D01*
X178046555Y-69466097D01*
X178048810Y-69463267D01*
X178048816Y-69463262D01*
X178144789Y-69310522D01*
X178204368Y-69140255D01*
X178207852Y-69109333D01*
X178224565Y-68961003D01*
X178224565Y-68960996D01*
X178204369Y-68781750D01*
X178204368Y-68781745D01*
X178184000Y-68723538D01*
X178144789Y-68611478D01*
X178048816Y-68458738D01*
X177921262Y-68331184D01*
X177872943Y-68300823D01*
X177768523Y-68235211D01*
X177598254Y-68175631D01*
X177598249Y-68175630D01*
X177419004Y-68155435D01*
X177418996Y-68155435D01*
X177239750Y-68175630D01*
X177239745Y-68175631D01*
X177069476Y-68235211D01*
X176916737Y-68331184D01*
X176789184Y-68458737D01*
X176693211Y-68611476D01*
X176633631Y-68781745D01*
X176633630Y-68781750D01*
X176613435Y-68960996D01*
X176613435Y-68961003D01*
X176633630Y-69140249D01*
X176633631Y-69140254D01*
X176693211Y-69310523D01*
X176789185Y-69463263D01*
X176791445Y-69466097D01*
X176792334Y-69468275D01*
X176792889Y-69469158D01*
X176792734Y-69469255D01*
X176817855Y-69530783D01*
X176818500Y-69543412D01*
X176818500Y-71962902D01*
X176798815Y-72029941D01*
X176782181Y-72050583D01*
X174860465Y-73972298D01*
X174799142Y-74005783D01*
X174786668Y-74007837D01*
X174699750Y-74017630D01*
X174529478Y-74077210D01*
X174376737Y-74173184D01*
X174249184Y-74300737D01*
X174153211Y-74453476D01*
X174093631Y-74623745D01*
X174093630Y-74623750D01*
X174073435Y-74802996D01*
X164303500Y-74802996D01*
X164303500Y-73199945D01*
X164303500Y-73199943D01*
X164262577Y-73047216D01*
X164262573Y-73047209D01*
X164183524Y-72910290D01*
X164183521Y-72910286D01*
X164183520Y-72910284D01*
X164071716Y-72798480D01*
X164071715Y-72798479D01*
X164067385Y-72794149D01*
X164067374Y-72794139D01*
X163009700Y-71736465D01*
X162976215Y-71675142D01*
X162974163Y-71662686D01*
X162964368Y-71575745D01*
X162904789Y-71405478D01*
X162808816Y-71252738D01*
X162681262Y-71125184D01*
X162528523Y-71029211D01*
X162358254Y-70969631D01*
X162358249Y-70969630D01*
X162179004Y-70949435D01*
X162178996Y-70949435D01*
X161999750Y-70969630D01*
X161999745Y-70969631D01*
X161829476Y-71029211D01*
X161676737Y-71125184D01*
X161549184Y-71252737D01*
X161453211Y-71405476D01*
X161393631Y-71575745D01*
X161393630Y-71575750D01*
X161373435Y-71754996D01*
X161373435Y-71755001D01*
X161393630Y-71934249D01*
X161393631Y-71934254D01*
X161453211Y-72104523D01*
X161495743Y-72172211D01*
X161549184Y-72257262D01*
X161676738Y-72384816D01*
X161829478Y-72480789D01*
X161999745Y-72540368D01*
X162086669Y-72550161D01*
X162151080Y-72577226D01*
X162160465Y-72585700D01*
X163066181Y-73491416D01*
X163099666Y-73552739D01*
X163102500Y-73579097D01*
X163102500Y-105908833D01*
X163082815Y-105975872D01*
X163034796Y-106019317D01*
X162984703Y-106044841D01*
X162810180Y-106171640D01*
X162668195Y-106313625D01*
X162606872Y-106347109D01*
X162537180Y-106342125D01*
X162481247Y-106300253D01*
X162468132Y-106278348D01*
X162467815Y-106277669D01*
X162467814Y-106277668D01*
X162467814Y-106277666D01*
X162375712Y-106128344D01*
X162251656Y-106004288D01*
X162102334Y-105912186D01*
X161935797Y-105857001D01*
X161935795Y-105857000D01*
X161833010Y-105846500D01*
X160492999Y-105846500D01*
X160492985Y-105846501D01*
X160482415Y-105847581D01*
X160413723Y-105834807D01*
X160382139Y-105811903D01*
X159493590Y-104923355D01*
X159493588Y-104923352D01*
X159374717Y-104804481D01*
X159374709Y-104804475D01*
X159264750Y-104740991D01*
X159264749Y-104740990D01*
X159245796Y-104730048D01*
X159237785Y-104725423D01*
X159085057Y-104684499D01*
X158926943Y-104684499D01*
X158919347Y-104684499D01*
X158919331Y-104684500D01*
X129624669Y-104684500D01*
X129624653Y-104684499D01*
X129617057Y-104684499D01*
X129458943Y-104684499D01*
X129306215Y-104725423D01*
X129306213Y-104725424D01*
X129279249Y-104740990D01*
X129279250Y-104740991D01*
X129169287Y-104804477D01*
X129169282Y-104804481D01*
X128955181Y-105018583D01*
X128893858Y-105052068D01*
X128824166Y-105047084D01*
X128768233Y-105005212D01*
X128743816Y-104939748D01*
X128743500Y-104930902D01*
X128743500Y-103721060D01*
X128743501Y-103721047D01*
X128743501Y-103552945D01*
X128743501Y-103552943D01*
X128702577Y-103400215D01*
X128623520Y-103263284D01*
X125036699Y-99676464D01*
X125003215Y-99615142D01*
X125001163Y-99602686D01*
X124991368Y-99515745D01*
X124931789Y-99345478D01*
X124835816Y-99192738D01*
X124708262Y-99065184D01*
X124670442Y-99041420D01*
X124555523Y-98969211D01*
X124385254Y-98909631D01*
X124385249Y-98909630D01*
X124206004Y-98889435D01*
X124205996Y-98889435D01*
X124026750Y-98909630D01*
X124026745Y-98909631D01*
X123856476Y-98969211D01*
X123703737Y-99065184D01*
X123576184Y-99192737D01*
X123480211Y-99345476D01*
X123420631Y-99515745D01*
X123420630Y-99515750D01*
X123400435Y-99694996D01*
X121885500Y-99694996D01*
X121885500Y-96138996D01*
X129623435Y-96138996D01*
X129623435Y-96139003D01*
X129643630Y-96318249D01*
X129643631Y-96318254D01*
X129703211Y-96488523D01*
X129771162Y-96596666D01*
X129799184Y-96641262D01*
X129926738Y-96768816D01*
X130079478Y-96864789D01*
X130249745Y-96924368D01*
X130336669Y-96934161D01*
X130401080Y-96961226D01*
X130410465Y-96969700D01*
X136614869Y-103174105D01*
X136644229Y-103220831D01*
X136688210Y-103346520D01*
X136688212Y-103346524D01*
X136755503Y-103453616D01*
X136784184Y-103499262D01*
X136911738Y-103626816D01*
X136953316Y-103652941D01*
X137061705Y-103721047D01*
X137064478Y-103722789D01*
X137234745Y-103782368D01*
X137234750Y-103782369D01*
X137413996Y-103802565D01*
X137414000Y-103802565D01*
X137414004Y-103802565D01*
X137593249Y-103782369D01*
X137593252Y-103782368D01*
X137593255Y-103782368D01*
X137763522Y-103722789D01*
X137916262Y-103626816D01*
X138043816Y-103499262D01*
X138139789Y-103346522D01*
X138199368Y-103176255D01*
X138199369Y-103176249D01*
X138219565Y-102997003D01*
X138219565Y-102996996D01*
X138199369Y-102817750D01*
X138199368Y-102817745D01*
X138139788Y-102647476D01*
X138043815Y-102494737D01*
X137916262Y-102367184D01*
X137763523Y-102271211D01*
X137593254Y-102211631D01*
X137593249Y-102211630D01*
X137414004Y-102191435D01*
X137413998Y-102191435D01*
X137398449Y-102193187D01*
X137329627Y-102181133D01*
X137296884Y-102157648D01*
X131259700Y-96120465D01*
X131226215Y-96059142D01*
X131224163Y-96046686D01*
X131214368Y-95959745D01*
X131154789Y-95789478D01*
X131058816Y-95636738D01*
X130931262Y-95509184D01*
X130778523Y-95413211D01*
X130608254Y-95353631D01*
X130608249Y-95353630D01*
X130429004Y-95333435D01*
X130428996Y-95333435D01*
X130249750Y-95353630D01*
X130249745Y-95353631D01*
X130079476Y-95413211D01*
X129926737Y-95509184D01*
X129799184Y-95636737D01*
X129703211Y-95789476D01*
X129643631Y-95959745D01*
X129643630Y-95959750D01*
X129623435Y-96138996D01*
X121885500Y-96138996D01*
X121885500Y-76782412D01*
X121905185Y-76715373D01*
X121912555Y-76705097D01*
X121914810Y-76702267D01*
X121914816Y-76702262D01*
X122010789Y-76549522D01*
X122070368Y-76379255D01*
X122085082Y-76248667D01*
X122090565Y-76200003D01*
X122090565Y-76199996D01*
X122070369Y-76020750D01*
X122070368Y-76020745D01*
X122049694Y-75961662D01*
X122010789Y-75850478D01*
X121914816Y-75697738D01*
X121787262Y-75570184D01*
X121634523Y-75474211D01*
X121464254Y-75414631D01*
X121464249Y-75414630D01*
X121285004Y-75394435D01*
X121284996Y-75394435D01*
X121105750Y-75414630D01*
X121105745Y-75414631D01*
X120935476Y-75474211D01*
X120782737Y-75570184D01*
X120655184Y-75697737D01*
X120559211Y-75850476D01*
X120499631Y-76020745D01*
X120499630Y-76020750D01*
X120479435Y-76199996D01*
X120479435Y-76200003D01*
X120499630Y-76379249D01*
X120499631Y-76379254D01*
X120559211Y-76549523D01*
X120589043Y-76597000D01*
X120648948Y-76692338D01*
X120655185Y-76702263D01*
X120657445Y-76705097D01*
X120658334Y-76707275D01*
X120658889Y-76708158D01*
X120658734Y-76708255D01*
X120683855Y-76769783D01*
X120684500Y-76782412D01*
X120684500Y-103585902D01*
X120664815Y-103652941D01*
X120648181Y-103673583D01*
X117629481Y-106692282D01*
X117629479Y-106692285D01*
X117586796Y-106766216D01*
X117586795Y-106766217D01*
X117550423Y-106829214D01*
X117550423Y-106829215D01*
X117509499Y-106981943D01*
X117509499Y-106981945D01*
X117509499Y-106986589D01*
X117489814Y-107053628D01*
X117482445Y-107063903D01*
X117480184Y-107066737D01*
X117384211Y-107219476D01*
X117324631Y-107389745D01*
X117324630Y-107389750D01*
X117304435Y-107568996D01*
X111178959Y-107568996D01*
X111151452Y-107466339D01*
X111139709Y-107446000D01*
X112169481Y-107446000D01*
X112158266Y-107375190D01*
X112091627Y-107170098D01*
X111993728Y-106977963D01*
X111866974Y-106803503D01*
X111866974Y-106803502D01*
X111724892Y-106661420D01*
X111691407Y-106600097D01*
X111696391Y-106530405D01*
X111738263Y-106474472D01*
X111760177Y-106461353D01*
X111761323Y-106460817D01*
X111761334Y-106460814D01*
X111910656Y-106368712D01*
X112034712Y-106244656D01*
X112126814Y-106095334D01*
X112181999Y-105928797D01*
X112192500Y-105826009D01*
X112192499Y-104485992D01*
X112181999Y-104383203D01*
X112126814Y-104216666D01*
X112034712Y-104067344D01*
X111910656Y-103943288D01*
X111761334Y-103851186D01*
X111594797Y-103796001D01*
X111594795Y-103796000D01*
X111492010Y-103785500D01*
X109701998Y-103785500D01*
X109701981Y-103785501D01*
X109599203Y-103796000D01*
X109599200Y-103796001D01*
X109432668Y-103851185D01*
X109432663Y-103851187D01*
X109283342Y-103943289D01*
X109159289Y-104067342D01*
X109067187Y-104216663D01*
X109067186Y-104216666D01*
X109012001Y-104383203D01*
X109012001Y-104383204D01*
X109012000Y-104383204D01*
X109001500Y-104485983D01*
X100662010Y-104485983D01*
X100652717Y-104449284D01*
X100560217Y-104238405D01*
X100496428Y-104140768D01*
X100434271Y-104045629D01*
X100282475Y-103880735D01*
X100278308Y-103876208D01*
X100175258Y-103796001D01*
X100096591Y-103734772D01*
X99894069Y-103625172D01*
X99894061Y-103625169D01*
X99676274Y-103550402D01*
X99505920Y-103521975D01*
X99449137Y-103512500D01*
X99218863Y-103512500D01*
X99173436Y-103520080D01*
X98991725Y-103550402D01*
X98773938Y-103625169D01*
X98773930Y-103625172D01*
X98571408Y-103734772D01*
X98389694Y-103876206D01*
X98389689Y-103876211D01*
X98233728Y-104045629D01*
X98107782Y-104238405D01*
X98015282Y-104449285D01*
X97958753Y-104672515D01*
X97939738Y-104901994D01*
X90500500Y-104901994D01*
X90500500Y-91566994D01*
X98396764Y-91566994D01*
X98396764Y-91567005D01*
X98416473Y-91804869D01*
X98416475Y-91804881D01*
X98475070Y-92036267D01*
X98570951Y-92254852D01*
X98570953Y-92254856D01*
X98701506Y-92454682D01*
X98863168Y-92630295D01*
X99003427Y-92739462D01*
X99044240Y-92796173D01*
X99047915Y-92865946D01*
X99015006Y-92923610D01*
X99014840Y-92926287D01*
X99567111Y-93478558D01*
X99517152Y-93499252D01*
X99404828Y-93574305D01*
X99309305Y-93669828D01*
X99234252Y-93782152D01*
X99213558Y-93832111D01*
X98662057Y-93280609D01*
X98571392Y-93419382D01*
X98475545Y-93637895D01*
X98416969Y-93869203D01*
X98416967Y-93869211D01*
X98397265Y-94106993D01*
X98397265Y-94107006D01*
X98416967Y-94344788D01*
X98416969Y-94344796D01*
X98475545Y-94576104D01*
X98571391Y-94794614D01*
X98662057Y-94933389D01*
X99213558Y-94381888D01*
X99234252Y-94431848D01*
X99309305Y-94544172D01*
X99404828Y-94639695D01*
X99517152Y-94714748D01*
X99567110Y-94735441D01*
X99132170Y-95170381D01*
X99070847Y-95203866D01*
X99044490Y-95206700D01*
X98854330Y-95206700D01*
X98854323Y-95206701D01*
X98794716Y-95213108D01*
X98659871Y-95263402D01*
X98659864Y-95263406D01*
X98544655Y-95349652D01*
X98544652Y-95349655D01*
X98458406Y-95464864D01*
X98458402Y-95464871D01*
X98408108Y-95599717D01*
X98401701Y-95659316D01*
X98401701Y-95659323D01*
X98401700Y-95659335D01*
X98401700Y-97634670D01*
X98401701Y-97634676D01*
X98408108Y-97694283D01*
X98458402Y-97829128D01*
X98458406Y-97829135D01*
X98544652Y-97944344D01*
X98544655Y-97944347D01*
X98659864Y-98030593D01*
X98659871Y-98030597D01*
X98794717Y-98080891D01*
X98794716Y-98080891D01*
X98801644Y-98081635D01*
X98854327Y-98087300D01*
X100829672Y-98087299D01*
X100889283Y-98080891D01*
X101024131Y-98030596D01*
X101139346Y-97944346D01*
X101225596Y-97829131D01*
X101275891Y-97694283D01*
X101282300Y-97634673D01*
X101282299Y-95659328D01*
X101275891Y-95599717D01*
X101242124Y-95509184D01*
X101225597Y-95464871D01*
X101225593Y-95464864D01*
X101139347Y-95349655D01*
X101139344Y-95349652D01*
X101024135Y-95263406D01*
X101024128Y-95263402D01*
X100889282Y-95213108D01*
X100889283Y-95213108D01*
X100829683Y-95206701D01*
X100829681Y-95206700D01*
X100829673Y-95206700D01*
X100829665Y-95206700D01*
X100639508Y-95206700D01*
X100572469Y-95187015D01*
X100551827Y-95170381D01*
X100116888Y-94735441D01*
X100166848Y-94714748D01*
X100279172Y-94639695D01*
X100374695Y-94544172D01*
X100449748Y-94431848D01*
X100470441Y-94381889D01*
X101021941Y-94933389D01*
X101112604Y-94794621D01*
X101112609Y-94794613D01*
X101208454Y-94576104D01*
X101267030Y-94344796D01*
X101267032Y-94344788D01*
X101286735Y-94107006D01*
X101286735Y-94106993D01*
X101267032Y-93869211D01*
X101267030Y-93869203D01*
X101208454Y-93637895D01*
X101112606Y-93419380D01*
X101021941Y-93280609D01*
X100470441Y-93832110D01*
X100449748Y-93782152D01*
X100374695Y-93669828D01*
X100279172Y-93574305D01*
X100166848Y-93499252D01*
X100116888Y-93478557D01*
X100669159Y-92926287D01*
X100668685Y-92918653D01*
X100639757Y-92878456D01*
X100636085Y-92808683D01*
X100670718Y-92748000D01*
X100680559Y-92739473D01*
X100820832Y-92630295D01*
X100982494Y-92454682D01*
X101113047Y-92254856D01*
X101208929Y-92036267D01*
X101267525Y-91804878D01*
X101269971Y-91775358D01*
X101287236Y-91567005D01*
X101287236Y-91566994D01*
X101284335Y-91531983D01*
X108386500Y-91531983D01*
X108386500Y-92872001D01*
X108386501Y-92872018D01*
X108397000Y-92974796D01*
X108397001Y-92974799D01*
X108452185Y-93141331D01*
X108452187Y-93141336D01*
X108469902Y-93170057D01*
X108544288Y-93290656D01*
X108668344Y-93414712D01*
X108817666Y-93506814D01*
X108817667Y-93506814D01*
X108817670Y-93506816D01*
X108818828Y-93507356D01*
X108819488Y-93507937D01*
X108823813Y-93510605D01*
X108823357Y-93511343D01*
X108871268Y-93553527D01*
X108890422Y-93620720D01*
X108870208Y-93687601D01*
X108854108Y-93707420D01*
X108712022Y-93849506D01*
X108585271Y-94023963D01*
X108487372Y-94216098D01*
X108420733Y-94421190D01*
X108409519Y-94492000D01*
X109439291Y-94492000D01*
X109427548Y-94512339D01*
X109387000Y-94663667D01*
X109387000Y-94820333D01*
X109427548Y-94971661D01*
X109439291Y-94992000D01*
X108409519Y-94992000D01*
X108420733Y-95062809D01*
X108487372Y-95267901D01*
X108585271Y-95460036D01*
X108712025Y-95634496D01*
X108712025Y-95634497D01*
X108864502Y-95786974D01*
X109038963Y-95913728D01*
X109231098Y-96011627D01*
X109436190Y-96078265D01*
X109649180Y-96112000D01*
X109732000Y-96112000D01*
X109732000Y-95284709D01*
X109752339Y-95296452D01*
X109903667Y-95337000D01*
X110060333Y-95337000D01*
X110211661Y-95296452D01*
X110232000Y-95284709D01*
X110232000Y-96112000D01*
X110314820Y-96112000D01*
X110527809Y-96078265D01*
X110732901Y-96011627D01*
X110925036Y-95913728D01*
X111099496Y-95786974D01*
X111099497Y-95786974D01*
X111251974Y-95634497D01*
X111251974Y-95634496D01*
X111378728Y-95460036D01*
X111476627Y-95267901D01*
X111543266Y-95062809D01*
X111554481Y-94992000D01*
X110524709Y-94992000D01*
X110536452Y-94971661D01*
X110577000Y-94820333D01*
X110577000Y-94663667D01*
X110536452Y-94512339D01*
X110524709Y-94492000D01*
X111554481Y-94492000D01*
X111543266Y-94421190D01*
X111476627Y-94216098D01*
X111378728Y-94023963D01*
X111251974Y-93849503D01*
X111251974Y-93849502D01*
X111109892Y-93707420D01*
X111076407Y-93646097D01*
X111081391Y-93576405D01*
X111123263Y-93520472D01*
X111145177Y-93507353D01*
X111146323Y-93506817D01*
X111146334Y-93506814D01*
X111295656Y-93414712D01*
X111419712Y-93290656D01*
X111511814Y-93141334D01*
X111566999Y-92974797D01*
X111577500Y-92872009D01*
X111577499Y-91531992D01*
X111566999Y-91429203D01*
X111511814Y-91262666D01*
X111419712Y-91113344D01*
X111295656Y-90989288D01*
X111146334Y-90897186D01*
X110979797Y-90842001D01*
X110979795Y-90842000D01*
X110877010Y-90831500D01*
X109086998Y-90831500D01*
X109086981Y-90831501D01*
X108984203Y-90842000D01*
X108984200Y-90842001D01*
X108817668Y-90897185D01*
X108817663Y-90897187D01*
X108668342Y-90989289D01*
X108544289Y-91113342D01*
X108452187Y-91262663D01*
X108452186Y-91262666D01*
X108397001Y-91429203D01*
X108397001Y-91429204D01*
X108397000Y-91429204D01*
X108386500Y-91531983D01*
X101284335Y-91531983D01*
X101267526Y-91329130D01*
X101267524Y-91329118D01*
X101208929Y-91097732D01*
X101120961Y-90897186D01*
X101113047Y-90879144D01*
X100982494Y-90679318D01*
X100820832Y-90503705D01*
X100632469Y-90357097D01*
X100536152Y-90304972D01*
X100422546Y-90243491D01*
X100422541Y-90243489D01*
X100196786Y-90165988D01*
X100039826Y-90139796D01*
X99961347Y-90126700D01*
X99722653Y-90126700D01*
X99663793Y-90136522D01*
X99487213Y-90165988D01*
X99261458Y-90243489D01*
X99261453Y-90243491D01*
X99051529Y-90357098D01*
X98863169Y-90503704D01*
X98701506Y-90679317D01*
X98570951Y-90879147D01*
X98475070Y-91097732D01*
X98416475Y-91329118D01*
X98416473Y-91329130D01*
X98396764Y-91566994D01*
X90500500Y-91566994D01*
X90500500Y-67049983D01*
X101753500Y-67049983D01*
X101753500Y-68840001D01*
X101753501Y-68840018D01*
X101764000Y-68942796D01*
X101764001Y-68942799D01*
X101801774Y-69056788D01*
X101819186Y-69109334D01*
X101911288Y-69258656D01*
X102035344Y-69382712D01*
X102184666Y-69474814D01*
X102351203Y-69529999D01*
X102453991Y-69540500D01*
X103794008Y-69540499D01*
X103896797Y-69529999D01*
X104063334Y-69474814D01*
X104212656Y-69382712D01*
X104336712Y-69258656D01*
X104428814Y-69109334D01*
X104428817Y-69109323D01*
X104429353Y-69108177D01*
X104429934Y-69107516D01*
X104432605Y-69103187D01*
X104433344Y-69103643D01*
X104475521Y-69055734D01*
X104542713Y-69036577D01*
X104609596Y-69056788D01*
X104629420Y-69072892D01*
X104771502Y-69214974D01*
X104945963Y-69341728D01*
X105138098Y-69439627D01*
X105343190Y-69506266D01*
X105414000Y-69517481D01*
X105414000Y-68487709D01*
X105434339Y-68499452D01*
X105585667Y-68540000D01*
X105742333Y-68540000D01*
X105893661Y-68499452D01*
X105914000Y-68487709D01*
X105914000Y-69517480D01*
X105984809Y-69506266D01*
X106189901Y-69439627D01*
X106382036Y-69341728D01*
X106556496Y-69214974D01*
X106556497Y-69214974D01*
X106708974Y-69062497D01*
X106708974Y-69062496D01*
X106835728Y-68888036D01*
X106933627Y-68695901D01*
X107000265Y-68490809D01*
X107034000Y-68277820D01*
X107034000Y-68195000D01*
X106206709Y-68195000D01*
X106218452Y-68174661D01*
X106259000Y-68023333D01*
X106259000Y-67866667D01*
X106218452Y-67715339D01*
X106206709Y-67695000D01*
X107034000Y-67695000D01*
X107034000Y-67612179D01*
X107000265Y-67399190D01*
X106933627Y-67194098D01*
X106835728Y-67001963D01*
X106708974Y-66827503D01*
X106708974Y-66827502D01*
X106556497Y-66675025D01*
X106382036Y-66548271D01*
X106189899Y-66450372D01*
X105984805Y-66383733D01*
X105914000Y-66372518D01*
X105914000Y-67402290D01*
X105893661Y-67390548D01*
X105742333Y-67350000D01*
X105585667Y-67350000D01*
X105434339Y-67390548D01*
X105414000Y-67402290D01*
X105414000Y-66372518D01*
X105413999Y-66372518D01*
X105343194Y-66383733D01*
X105138100Y-66450372D01*
X104945963Y-66548271D01*
X104771506Y-66675022D01*
X104629420Y-66817108D01*
X104568097Y-66850592D01*
X104498405Y-66845608D01*
X104442472Y-66803736D01*
X104429356Y-66781828D01*
X104428816Y-66780670D01*
X104405667Y-66743139D01*
X104336712Y-66631344D01*
X104212656Y-66507288D01*
X104063334Y-66415186D01*
X103896797Y-66360001D01*
X103896795Y-66360000D01*
X103794010Y-66349500D01*
X102453998Y-66349500D01*
X102453981Y-66349501D01*
X102351203Y-66360000D01*
X102351200Y-66360001D01*
X102184668Y-66415185D01*
X102184663Y-66415187D01*
X102035342Y-66507289D01*
X101911289Y-66631342D01*
X101819187Y-66780663D01*
X101819185Y-66780668D01*
X101818801Y-66781828D01*
X101764001Y-66947203D01*
X101764001Y-66947204D01*
X101764000Y-66947204D01*
X101753500Y-67049983D01*
X90500500Y-67049983D01*
X90500500Y-66186133D01*
X112704500Y-66186133D01*
X112704500Y-66401866D01*
X112728467Y-66553184D01*
X112738246Y-66614926D01*
X112804908Y-66820089D01*
X112902843Y-67012299D01*
X113029641Y-67186821D01*
X113029643Y-67186823D01*
X113171624Y-67328804D01*
X113205109Y-67390127D01*
X113200125Y-67459819D01*
X113158253Y-67515752D01*
X113136360Y-67528861D01*
X113135677Y-67529179D01*
X112986342Y-67621289D01*
X112862289Y-67745342D01*
X112770187Y-67894663D01*
X112770185Y-67894668D01*
X112745763Y-67968369D01*
X112715001Y-68061203D01*
X112715001Y-68061204D01*
X112715000Y-68061204D01*
X112704500Y-68163983D01*
X112704500Y-69504001D01*
X112704501Y-69504018D01*
X112715000Y-69606796D01*
X112715001Y-69606799D01*
X112758697Y-69738662D01*
X112770186Y-69773334D01*
X112862288Y-69922656D01*
X112986344Y-70046712D01*
X113135666Y-70138814D01*
X113302203Y-70193999D01*
X113404991Y-70204500D01*
X115195008Y-70204499D01*
X115297797Y-70193999D01*
X115464334Y-70138814D01*
X115613656Y-70046712D01*
X115737712Y-69922656D01*
X115829814Y-69773334D01*
X115884999Y-69606797D01*
X115895500Y-69504009D01*
X115895499Y-68813094D01*
X115915183Y-68746057D01*
X115967987Y-68700302D01*
X116037146Y-68690358D01*
X116100702Y-68719383D01*
X116107180Y-68725415D01*
X127506181Y-80124416D01*
X127539666Y-80185739D01*
X127542500Y-80212097D01*
X127542500Y-93004330D01*
X127542499Y-93004348D01*
X127542499Y-93170054D01*
X127542498Y-93170054D01*
X127583423Y-93322785D01*
X127612358Y-93372900D01*
X127612359Y-93372904D01*
X127612360Y-93372904D01*
X127639192Y-93419380D01*
X127662479Y-93459714D01*
X127662481Y-93459717D01*
X127781349Y-93578585D01*
X127781355Y-93578590D01*
X128547139Y-94344374D01*
X128547149Y-94344385D01*
X128551479Y-94348715D01*
X128551480Y-94348716D01*
X128663284Y-94460520D01*
X128750095Y-94510639D01*
X128750097Y-94510641D01*
X128788151Y-94532611D01*
X128800215Y-94539577D01*
X128952943Y-94580501D01*
X128952946Y-94580501D01*
X129118653Y-94580501D01*
X129118669Y-94580500D01*
X148376331Y-94580500D01*
X148376347Y-94580501D01*
X148383943Y-94580501D01*
X148542054Y-94580501D01*
X148542057Y-94580501D01*
X148694785Y-94539577D01*
X148744904Y-94510639D01*
X148831716Y-94460520D01*
X148943520Y-94348716D01*
X148943520Y-94348714D01*
X148953728Y-94338507D01*
X148953730Y-94338504D01*
X160632506Y-82659728D01*
X160632511Y-82659724D01*
X160642714Y-82649520D01*
X160642716Y-82649520D01*
X160754520Y-82537716D01*
X160833577Y-82400784D01*
X160871034Y-82260992D01*
X160871035Y-82260991D01*
X160871766Y-82258259D01*
X160874500Y-82248058D01*
X160874500Y-82089943D01*
X160874500Y-73480412D01*
X160894185Y-73413373D01*
X160901555Y-73403097D01*
X160903810Y-73400267D01*
X160903816Y-73400262D01*
X160999789Y-73247522D01*
X161059368Y-73077255D01*
X161062753Y-73047216D01*
X161079565Y-72898003D01*
X161079565Y-72897996D01*
X161059369Y-72718750D01*
X161059368Y-72718745D01*
X161033384Y-72644487D01*
X160999789Y-72548478D01*
X160983267Y-72522184D01*
X160903815Y-72395737D01*
X160776262Y-72268184D01*
X160623523Y-72172211D01*
X160453254Y-72112631D01*
X160453249Y-72112630D01*
X160274004Y-72092435D01*
X160273996Y-72092435D01*
X160094750Y-72112630D01*
X160094745Y-72112631D01*
X159924476Y-72172211D01*
X159771737Y-72268184D01*
X159644184Y-72395737D01*
X159548210Y-72548479D01*
X159543489Y-72561969D01*
X159502764Y-72618743D01*
X159437810Y-72644487D01*
X159369249Y-72631028D01*
X159338768Y-72608690D01*
X159252262Y-72522184D01*
X159099523Y-72426211D01*
X158929254Y-72366631D01*
X158929249Y-72366630D01*
X158750004Y-72346435D01*
X158749996Y-72346435D01*
X158570750Y-72366630D01*
X158570745Y-72366631D01*
X158400476Y-72426211D01*
X158247737Y-72522184D01*
X158120184Y-72649737D01*
X158024211Y-72802476D01*
X157964631Y-72972745D01*
X157964630Y-72972750D01*
X157944435Y-73151996D01*
X157944435Y-73152003D01*
X157964630Y-73331249D01*
X157964631Y-73331254D01*
X158024211Y-73501523D01*
X158120184Y-73654262D01*
X158240181Y-73774259D01*
X158273666Y-73835582D01*
X158276500Y-73861940D01*
X158276500Y-79808587D01*
X158256815Y-79875626D01*
X158249450Y-79885896D01*
X158247186Y-79888734D01*
X158151211Y-80041476D01*
X158091631Y-80211745D01*
X158091630Y-80211750D01*
X158071435Y-80390996D01*
X158071435Y-80391000D01*
X158091630Y-80570249D01*
X158091631Y-80570254D01*
X158151211Y-80740523D01*
X158213040Y-80838922D01*
X158247184Y-80893262D01*
X158374738Y-81020816D01*
X158527478Y-81116789D01*
X158697745Y-81176368D01*
X158697750Y-81176369D01*
X158876996Y-81196565D01*
X158877000Y-81196565D01*
X158877004Y-81196565D01*
X159056249Y-81176369D01*
X159056252Y-81176368D01*
X159056255Y-81176368D01*
X159226522Y-81116789D01*
X159379262Y-81020816D01*
X159461819Y-80938259D01*
X159523142Y-80904774D01*
X159592834Y-80909758D01*
X159648767Y-80951630D01*
X159673184Y-81017094D01*
X159673500Y-81025940D01*
X159673500Y-81868902D01*
X159653815Y-81935941D01*
X159637181Y-81956583D01*
X155534627Y-86059136D01*
X155473304Y-86092621D01*
X155403612Y-86087637D01*
X155347679Y-86045765D01*
X155329904Y-86012409D01*
X155284789Y-85883478D01*
X155188815Y-85730737D01*
X155061262Y-85603184D01*
X154908523Y-85507211D01*
X154738254Y-85447631D01*
X154738249Y-85447630D01*
X154559004Y-85427435D01*
X154558996Y-85427435D01*
X154379750Y-85447630D01*
X154379745Y-85447631D01*
X154209476Y-85507211D01*
X154056737Y-85603184D01*
X153929184Y-85730737D01*
X153833210Y-85883478D01*
X153773630Y-86053750D01*
X153763837Y-86140668D01*
X153736770Y-86205082D01*
X153728298Y-86214465D01*
X149901584Y-90041181D01*
X149840261Y-90074666D01*
X149813903Y-90077500D01*
X147521412Y-90077500D01*
X147454373Y-90057815D01*
X147444097Y-90050445D01*
X147441263Y-90048185D01*
X147441262Y-90048184D01*
X147384496Y-90012515D01*
X147288523Y-89952211D01*
X147118254Y-89892631D01*
X147118249Y-89892630D01*
X146939004Y-89872435D01*
X146938996Y-89872435D01*
X146759750Y-89892630D01*
X146759745Y-89892631D01*
X146589476Y-89952211D01*
X146436737Y-90048184D01*
X146309184Y-90175737D01*
X146213211Y-90328476D01*
X146153631Y-90498745D01*
X146153630Y-90498750D01*
X146133435Y-90677996D01*
X146133435Y-90678003D01*
X146153630Y-90857249D01*
X146153631Y-90857254D01*
X146213211Y-91027523D01*
X146309184Y-91180262D01*
X146436738Y-91307816D01*
X146589478Y-91403789D01*
X146662110Y-91429204D01*
X146759745Y-91463368D01*
X146759750Y-91463369D01*
X146938996Y-91483565D01*
X146939000Y-91483565D01*
X146939004Y-91483565D01*
X147118249Y-91463369D01*
X147118252Y-91463368D01*
X147118255Y-91463368D01*
X147288522Y-91403789D01*
X147441262Y-91307816D01*
X147441267Y-91307810D01*
X147444097Y-91305555D01*
X147446275Y-91304665D01*
X147447158Y-91304111D01*
X147447255Y-91304265D01*
X147508783Y-91279145D01*
X147521412Y-91278500D01*
X150015902Y-91278500D01*
X150082941Y-91298185D01*
X150128696Y-91350989D01*
X150138640Y-91420147D01*
X150109615Y-91483703D01*
X150103583Y-91490181D01*
X148250584Y-93343181D01*
X148189261Y-93376666D01*
X148162903Y-93379500D01*
X129332097Y-93379500D01*
X129265058Y-93359815D01*
X129244416Y-93343181D01*
X128779819Y-92878584D01*
X128746334Y-92817261D01*
X128743500Y-92790903D01*
X128743500Y-79832946D01*
X128743500Y-79832943D01*
X128724273Y-79761184D01*
X128702577Y-79680215D01*
X128659516Y-79605632D01*
X128659516Y-79605630D01*
X128623524Y-79543290D01*
X128623521Y-79543286D01*
X128623520Y-79543284D01*
X128511716Y-79431480D01*
X128511715Y-79431479D01*
X128507385Y-79427149D01*
X128507374Y-79427139D01*
X124659218Y-75578983D01*
X132614500Y-75578983D01*
X132614500Y-77369001D01*
X132614501Y-77369018D01*
X132625000Y-77471796D01*
X132625001Y-77471799D01*
X132668110Y-77601892D01*
X132680186Y-77638334D01*
X132772288Y-77787656D01*
X132896344Y-77911712D01*
X133045666Y-78003814D01*
X133212203Y-78058999D01*
X133314991Y-78069500D01*
X134655008Y-78069499D01*
X134757797Y-78058999D01*
X134924334Y-78003814D01*
X135073656Y-77911712D01*
X135197712Y-77787656D01*
X135289814Y-77638334D01*
X135289817Y-77638323D01*
X135290353Y-77637177D01*
X135290934Y-77636516D01*
X135293605Y-77632187D01*
X135294344Y-77632643D01*
X135336521Y-77584734D01*
X135403713Y-77565577D01*
X135470596Y-77585788D01*
X135490420Y-77601892D01*
X135632502Y-77743974D01*
X135806963Y-77870728D01*
X135999098Y-77968627D01*
X136204190Y-78035266D01*
X136275000Y-78046481D01*
X136275000Y-77016709D01*
X136295339Y-77028452D01*
X136446667Y-77069000D01*
X136603333Y-77069000D01*
X136754661Y-77028452D01*
X136775000Y-77016709D01*
X136775000Y-78046480D01*
X136845809Y-78035266D01*
X137050901Y-77968627D01*
X137243036Y-77870728D01*
X137417496Y-77743974D01*
X137417497Y-77743974D01*
X137569974Y-77591497D01*
X137569974Y-77591496D01*
X137696728Y-77417036D01*
X137794627Y-77224901D01*
X137861265Y-77019809D01*
X137895000Y-76806820D01*
X137895000Y-76724000D01*
X137067709Y-76724000D01*
X137079452Y-76703661D01*
X137120000Y-76552333D01*
X137120000Y-76395667D01*
X137079452Y-76244339D01*
X137067709Y-76224000D01*
X137895000Y-76224000D01*
X137895000Y-76141179D01*
X137861265Y-75928190D01*
X137794627Y-75723098D01*
X137696728Y-75530963D01*
X137569974Y-75356503D01*
X137569974Y-75356502D01*
X137417497Y-75204025D01*
X137243036Y-75077271D01*
X137050899Y-74979372D01*
X136845805Y-74912733D01*
X136775000Y-74901518D01*
X136775000Y-75931290D01*
X136754661Y-75919548D01*
X136603333Y-75879000D01*
X136446667Y-75879000D01*
X136295339Y-75919548D01*
X136275000Y-75931290D01*
X136275000Y-74901518D01*
X136274999Y-74901518D01*
X136204194Y-74912733D01*
X135999100Y-74979372D01*
X135806963Y-75077271D01*
X135632506Y-75204022D01*
X135490420Y-75346108D01*
X135429097Y-75379592D01*
X135359405Y-75374608D01*
X135303472Y-75332736D01*
X135290356Y-75310828D01*
X135289816Y-75309670D01*
X135289812Y-75309663D01*
X135197712Y-75160344D01*
X135073656Y-75036288D01*
X134980888Y-74979069D01*
X134924336Y-74944187D01*
X134924331Y-74944185D01*
X134797496Y-74902156D01*
X134740051Y-74862383D01*
X134713228Y-74797867D01*
X134712500Y-74784450D01*
X134712500Y-68897577D01*
X134732185Y-68830538D01*
X134784989Y-68784783D01*
X134823895Y-68774220D01*
X134884797Y-68767999D01*
X135051334Y-68712814D01*
X135200656Y-68620712D01*
X135324712Y-68496656D01*
X135416814Y-68347334D01*
X135416817Y-68347322D01*
X135417129Y-68346657D01*
X135417469Y-68346269D01*
X135420605Y-68341187D01*
X135421473Y-68341722D01*
X135463299Y-68294216D01*
X135530491Y-68275060D01*
X135597373Y-68295272D01*
X135617195Y-68311375D01*
X135759179Y-68453359D01*
X135933701Y-68580157D01*
X136125911Y-68678092D01*
X136331074Y-68744754D01*
X136410973Y-68757408D01*
X136544134Y-68778500D01*
X136544139Y-68778500D01*
X136759866Y-68778500D01*
X136878230Y-68759752D01*
X136972926Y-68744754D01*
X137178089Y-68678092D01*
X137370299Y-68580157D01*
X137544821Y-68453359D01*
X137697359Y-68300821D01*
X137824157Y-68126299D01*
X137922092Y-67934089D01*
X137988754Y-67728926D01*
X138012395Y-67579662D01*
X138022500Y-67515866D01*
X138022500Y-66850133D01*
X138000002Y-66708095D01*
X137988754Y-66637074D01*
X137922092Y-66431911D01*
X137824157Y-66239701D01*
X137697359Y-66065179D01*
X137544821Y-65912641D01*
X137370299Y-65785843D01*
X137178089Y-65687908D01*
X136972926Y-65621246D01*
X136972924Y-65621245D01*
X136972922Y-65621245D01*
X136759866Y-65587500D01*
X136759861Y-65587500D01*
X136544139Y-65587500D01*
X136544134Y-65587500D01*
X136331077Y-65621245D01*
X136125908Y-65687909D01*
X135933700Y-65785843D01*
X135759180Y-65912640D01*
X135617195Y-66054625D01*
X135555872Y-66088109D01*
X135486180Y-66083125D01*
X135430247Y-66041253D01*
X135417132Y-66019348D01*
X135416815Y-66018669D01*
X135416814Y-66018668D01*
X135416814Y-66018666D01*
X135324712Y-65869344D01*
X135200656Y-65745288D01*
X135069888Y-65664630D01*
X135051336Y-65653187D01*
X135051331Y-65653185D01*
X135042054Y-65650111D01*
X134884797Y-65598001D01*
X134884795Y-65598000D01*
X134782010Y-65587500D01*
X133441998Y-65587500D01*
X133441981Y-65587501D01*
X133339203Y-65598000D01*
X133339200Y-65598001D01*
X133172668Y-65653185D01*
X133172663Y-65653187D01*
X133023342Y-65745289D01*
X132899289Y-65869342D01*
X132807187Y-66018663D01*
X132807186Y-66018666D01*
X132752001Y-66185203D01*
X132752001Y-66185204D01*
X132752000Y-66185204D01*
X132741500Y-66287983D01*
X132741500Y-68078001D01*
X132741501Y-68078018D01*
X132752000Y-68180796D01*
X132752001Y-68180799D01*
X132784151Y-68277820D01*
X132807186Y-68347334D01*
X132899288Y-68496656D01*
X133023344Y-68620712D01*
X133172666Y-68712814D01*
X133339203Y-68767999D01*
X133400102Y-68774220D01*
X133464793Y-68800615D01*
X133504945Y-68857796D01*
X133511500Y-68897578D01*
X133511500Y-74754500D01*
X133491815Y-74821539D01*
X133439011Y-74867294D01*
X133387502Y-74878500D01*
X133314999Y-74878500D01*
X133314980Y-74878501D01*
X133212203Y-74889000D01*
X133212200Y-74889001D01*
X133045668Y-74944185D01*
X133045663Y-74944187D01*
X132896342Y-75036289D01*
X132772289Y-75160342D01*
X132680187Y-75309663D01*
X132680185Y-75309668D01*
X132672541Y-75332736D01*
X132625001Y-75476203D01*
X132625001Y-75476204D01*
X132625000Y-75476204D01*
X132614500Y-75578983D01*
X124659218Y-75578983D01*
X115874629Y-66794394D01*
X115841144Y-66733071D01*
X115844379Y-66668396D01*
X115861754Y-66614926D01*
X115885045Y-66467872D01*
X115895500Y-66401866D01*
X115895500Y-66186133D01*
X115868975Y-66018666D01*
X115861754Y-65973074D01*
X115795092Y-65767911D01*
X115697157Y-65575701D01*
X115570359Y-65401179D01*
X115417821Y-65248641D01*
X115243299Y-65121843D01*
X115051262Y-65023996D01*
X124035435Y-65023996D01*
X124035435Y-65024003D01*
X124055630Y-65203249D01*
X124055631Y-65203254D01*
X124115211Y-65373523D01*
X124203633Y-65514245D01*
X124211184Y-65526262D01*
X124338738Y-65653816D01*
X124392995Y-65687908D01*
X124484314Y-65745288D01*
X124491478Y-65749789D01*
X124625816Y-65796796D01*
X124661745Y-65809368D01*
X124661750Y-65809369D01*
X124840996Y-65829565D01*
X124841000Y-65829565D01*
X124841004Y-65829565D01*
X125020249Y-65809369D01*
X125020252Y-65809368D01*
X125020255Y-65809368D01*
X125190522Y-65749789D01*
X125343262Y-65653816D01*
X125343267Y-65653810D01*
X125346097Y-65651555D01*
X125348275Y-65650665D01*
X125349158Y-65650111D01*
X125349255Y-65650265D01*
X125410783Y-65625145D01*
X125423412Y-65624500D01*
X127548331Y-65624500D01*
X127548347Y-65624501D01*
X127555943Y-65624501D01*
X127714054Y-65624501D01*
X127714057Y-65624501D01*
X127866785Y-65583577D01*
X127916904Y-65554639D01*
X128003716Y-65504520D01*
X128115520Y-65392716D01*
X128115520Y-65392714D01*
X128125728Y-65382507D01*
X128125729Y-65382504D01*
X132052520Y-61455716D01*
X132131577Y-61318785D01*
X132172501Y-61166057D01*
X132172501Y-61007942D01*
X132172501Y-61000347D01*
X132172500Y-61000329D01*
X132172500Y-56561097D01*
X132192185Y-56494058D01*
X132208819Y-56473416D01*
X132361161Y-56321074D01*
X132533248Y-56148986D01*
X132594569Y-56115503D01*
X132664260Y-56120487D01*
X132720194Y-56162358D01*
X132744611Y-56227823D01*
X132737969Y-56277623D01*
X132717632Y-56335742D01*
X132717630Y-56335750D01*
X132697435Y-56514996D01*
X132697435Y-56515003D01*
X132717630Y-56694249D01*
X132717631Y-56694254D01*
X132777211Y-56864523D01*
X132849416Y-56979435D01*
X132873184Y-57017262D01*
X133000738Y-57144816D01*
X133153478Y-57240789D01*
X133299302Y-57291815D01*
X133323745Y-57300368D01*
X133323750Y-57300369D01*
X133502996Y-57320565D01*
X133503000Y-57320565D01*
X133503004Y-57320565D01*
X133682249Y-57300369D01*
X133682252Y-57300368D01*
X133682255Y-57300368D01*
X133682256Y-57300367D01*
X133682259Y-57300367D01*
X133714646Y-57289033D01*
X133785671Y-57264180D01*
X133855448Y-57260618D01*
X133914306Y-57293541D01*
X141996584Y-65375819D01*
X142030069Y-65437142D01*
X142025085Y-65506834D01*
X141983213Y-65562767D01*
X141917749Y-65587184D01*
X141908903Y-65587500D01*
X141442998Y-65587500D01*
X141442980Y-65587501D01*
X141340203Y-65598000D01*
X141340200Y-65598001D01*
X141173668Y-65653185D01*
X141173663Y-65653187D01*
X141024342Y-65745289D01*
X140900289Y-65869342D01*
X140808187Y-66018663D01*
X140808186Y-66018666D01*
X140753001Y-66185203D01*
X140753001Y-66185204D01*
X140753000Y-66185204D01*
X140742500Y-66287983D01*
X140742500Y-68078001D01*
X140742501Y-68078018D01*
X140753000Y-68180796D01*
X140753001Y-68180799D01*
X140785151Y-68277820D01*
X140808186Y-68347334D01*
X140900288Y-68496656D01*
X141024344Y-68620712D01*
X141173666Y-68712814D01*
X141340203Y-68767999D01*
X141401102Y-68774220D01*
X141465793Y-68800615D01*
X141505945Y-68857796D01*
X141512500Y-68897578D01*
X141512500Y-74679533D01*
X141492815Y-74746572D01*
X141440011Y-74792327D01*
X141427795Y-74797125D01*
X141427669Y-74797184D01*
X141278342Y-74889289D01*
X141154289Y-75013342D01*
X141062187Y-75162663D01*
X141062185Y-75162668D01*
X141054541Y-75185736D01*
X141007001Y-75329203D01*
X141007001Y-75329204D01*
X141007000Y-75329204D01*
X140996500Y-75431983D01*
X140996500Y-77222001D01*
X140996501Y-77222018D01*
X141007000Y-77324796D01*
X141007001Y-77324799D01*
X141062185Y-77491331D01*
X141062187Y-77491336D01*
X141071012Y-77505643D01*
X141154288Y-77640656D01*
X141278344Y-77764712D01*
X141427666Y-77856814D01*
X141594203Y-77911999D01*
X141696991Y-77922500D01*
X143037008Y-77922499D01*
X143139797Y-77911999D01*
X143306334Y-77856814D01*
X143455656Y-77764712D01*
X143579712Y-77640656D01*
X143671814Y-77491334D01*
X143671817Y-77491323D01*
X143672353Y-77490177D01*
X143672934Y-77489516D01*
X143675605Y-77485187D01*
X143676344Y-77485643D01*
X143718521Y-77437734D01*
X143785713Y-77418577D01*
X143852596Y-77438788D01*
X143872420Y-77454892D01*
X144014502Y-77596974D01*
X144188963Y-77723728D01*
X144381098Y-77821627D01*
X144586190Y-77888266D01*
X144657000Y-77899481D01*
X144657000Y-76869709D01*
X144677339Y-76881452D01*
X144828667Y-76922000D01*
X144985333Y-76922000D01*
X145136661Y-76881452D01*
X145157000Y-76869709D01*
X145157000Y-77899480D01*
X145227809Y-77888266D01*
X145432901Y-77821627D01*
X145625036Y-77723728D01*
X145799496Y-77596974D01*
X145799497Y-77596974D01*
X145951974Y-77444497D01*
X145951974Y-77444496D01*
X146078728Y-77270036D01*
X146176627Y-77077901D01*
X146243265Y-76872809D01*
X146277000Y-76659820D01*
X146277000Y-76577000D01*
X145449709Y-76577000D01*
X145461452Y-76556661D01*
X145502000Y-76405333D01*
X145502000Y-76248667D01*
X145461452Y-76097339D01*
X145449709Y-76077000D01*
X146277000Y-76077000D01*
X146277000Y-75994179D01*
X146243265Y-75781190D01*
X146176627Y-75576098D01*
X146113386Y-75451983D01*
X149378500Y-75451983D01*
X149378500Y-77242001D01*
X149378501Y-77242018D01*
X149389000Y-77344796D01*
X149389001Y-77344799D01*
X149426774Y-77458788D01*
X149444186Y-77511334D01*
X149536288Y-77660656D01*
X149660344Y-77784712D01*
X149809666Y-77876814D01*
X149976203Y-77931999D01*
X150078991Y-77942500D01*
X151419008Y-77942499D01*
X151521797Y-77931999D01*
X151688334Y-77876814D01*
X151837656Y-77784712D01*
X151961712Y-77660656D01*
X152053814Y-77511334D01*
X152053817Y-77511323D01*
X152054353Y-77510177D01*
X152054934Y-77509516D01*
X152057605Y-77505187D01*
X152058344Y-77505643D01*
X152100521Y-77457734D01*
X152167713Y-77438577D01*
X152234596Y-77458788D01*
X152254420Y-77474892D01*
X152396502Y-77616974D01*
X152570963Y-77743728D01*
X152763098Y-77841627D01*
X152968190Y-77908266D01*
X153039000Y-77919481D01*
X153039000Y-76889709D01*
X153059339Y-76901452D01*
X153210667Y-76942000D01*
X153367333Y-76942000D01*
X153518661Y-76901452D01*
X153539000Y-76889709D01*
X153539000Y-77919480D01*
X153609809Y-77908266D01*
X153814901Y-77841627D01*
X154007036Y-77743728D01*
X154181496Y-77616974D01*
X154181497Y-77616974D01*
X154333974Y-77464497D01*
X154333974Y-77464496D01*
X154460728Y-77290036D01*
X154558627Y-77097901D01*
X154625265Y-76892809D01*
X154659000Y-76679820D01*
X154659000Y-76597000D01*
X153831709Y-76597000D01*
X153843452Y-76576661D01*
X153884000Y-76425333D01*
X153884000Y-76268667D01*
X153843452Y-76117339D01*
X153831709Y-76097000D01*
X154659000Y-76097000D01*
X154659000Y-76014179D01*
X154625265Y-75801190D01*
X154558627Y-75596098D01*
X154460728Y-75403963D01*
X154333974Y-75229503D01*
X154333974Y-75229502D01*
X154181497Y-75077025D01*
X154007036Y-74950271D01*
X153814899Y-74852372D01*
X153609805Y-74785733D01*
X153539000Y-74774518D01*
X153539000Y-75804290D01*
X153518661Y-75792548D01*
X153367333Y-75752000D01*
X153210667Y-75752000D01*
X153059339Y-75792548D01*
X153039000Y-75804290D01*
X153039000Y-74774518D01*
X153038999Y-74774518D01*
X152968194Y-74785733D01*
X152763100Y-74852372D01*
X152570963Y-74950271D01*
X152396506Y-75077022D01*
X152254420Y-75219108D01*
X152193097Y-75252592D01*
X152123405Y-75247608D01*
X152067472Y-75205736D01*
X152054356Y-75183828D01*
X152053816Y-75182670D01*
X152053812Y-75182663D01*
X151961712Y-75033344D01*
X151837656Y-74909288D01*
X151710597Y-74830918D01*
X151688336Y-74817187D01*
X151688331Y-74817185D01*
X151561496Y-74775156D01*
X151504051Y-74735383D01*
X151477228Y-74670867D01*
X151476500Y-74657450D01*
X151476500Y-68790577D01*
X151496185Y-68723538D01*
X151548989Y-68677783D01*
X151587895Y-68667220D01*
X151648797Y-68660999D01*
X151815334Y-68605814D01*
X151964656Y-68513712D01*
X152088712Y-68389656D01*
X152180814Y-68240334D01*
X152180817Y-68240322D01*
X152181129Y-68239657D01*
X152181469Y-68239269D01*
X152184605Y-68234187D01*
X152185473Y-68234722D01*
X152227299Y-68187216D01*
X152294491Y-68168060D01*
X152361373Y-68188272D01*
X152381195Y-68204375D01*
X152523179Y-68346359D01*
X152697701Y-68473157D01*
X152889911Y-68571092D01*
X153095074Y-68637754D01*
X153174973Y-68650408D01*
X153308134Y-68671500D01*
X153308139Y-68671500D01*
X153523866Y-68671500D01*
X153642230Y-68652752D01*
X153736926Y-68637754D01*
X153942089Y-68571092D01*
X154134299Y-68473157D01*
X154308821Y-68346359D01*
X154461359Y-68193821D01*
X154588157Y-68019299D01*
X154686092Y-67827089D01*
X154752754Y-67621926D01*
X154777125Y-67468053D01*
X154786500Y-67408866D01*
X154786500Y-66743133D01*
X154752754Y-66530077D01*
X154752754Y-66530074D01*
X154686092Y-66324911D01*
X154588157Y-66132701D01*
X154461359Y-65958179D01*
X154308821Y-65805641D01*
X154134299Y-65678843D01*
X154027644Y-65624500D01*
X153942091Y-65580909D01*
X153942090Y-65580908D01*
X153942089Y-65580908D01*
X153736926Y-65514246D01*
X153736924Y-65514245D01*
X153736922Y-65514245D01*
X153523866Y-65480500D01*
X153523861Y-65480500D01*
X153308139Y-65480500D01*
X153308134Y-65480500D01*
X153095077Y-65514245D01*
X153095074Y-65514246D01*
X152905940Y-65575700D01*
X152889908Y-65580909D01*
X152697700Y-65678843D01*
X152523180Y-65805640D01*
X152381195Y-65947625D01*
X152319872Y-65981109D01*
X152250180Y-65976125D01*
X152194247Y-65934253D01*
X152181132Y-65912348D01*
X152180815Y-65911669D01*
X152180814Y-65911668D01*
X152180814Y-65911666D01*
X152088712Y-65762344D01*
X151964656Y-65638288D01*
X151842216Y-65562767D01*
X151815336Y-65546187D01*
X151815331Y-65546185D01*
X151755207Y-65526262D01*
X151648797Y-65491001D01*
X151648795Y-65491000D01*
X151546010Y-65480500D01*
X150205998Y-65480500D01*
X150205981Y-65480501D01*
X150103203Y-65491000D01*
X150103200Y-65491001D01*
X149936668Y-65546185D01*
X149936663Y-65546187D01*
X149787342Y-65638289D01*
X149663289Y-65762342D01*
X149571187Y-65911663D01*
X149571186Y-65911666D01*
X149516001Y-66078203D01*
X149516001Y-66078204D01*
X149516000Y-66078204D01*
X149505500Y-66180983D01*
X149505500Y-67971001D01*
X149505501Y-67971018D01*
X149516000Y-68073796D01*
X149516001Y-68073799D01*
X149549746Y-68175632D01*
X149571186Y-68240334D01*
X149663288Y-68389656D01*
X149787344Y-68513712D01*
X149936666Y-68605814D01*
X150103203Y-68660999D01*
X150164102Y-68667220D01*
X150228793Y-68693615D01*
X150268945Y-68750796D01*
X150275500Y-68790578D01*
X150275500Y-74627500D01*
X150255815Y-74694539D01*
X150203011Y-74740294D01*
X150151502Y-74751500D01*
X150078999Y-74751500D01*
X150078980Y-74751501D01*
X149976203Y-74762000D01*
X149976200Y-74762001D01*
X149809668Y-74817185D01*
X149809663Y-74817187D01*
X149660342Y-74909289D01*
X149536289Y-75033342D01*
X149444187Y-75182663D01*
X149444185Y-75182668D01*
X149437109Y-75204022D01*
X149389001Y-75349203D01*
X149389001Y-75349204D01*
X149389000Y-75349204D01*
X149378500Y-75451983D01*
X146113386Y-75451983D01*
X146078728Y-75383963D01*
X145951974Y-75209503D01*
X145951974Y-75209502D01*
X145799497Y-75057025D01*
X145625036Y-74930271D01*
X145432899Y-74832372D01*
X145227805Y-74765733D01*
X145157000Y-74754518D01*
X145157000Y-75784290D01*
X145136661Y-75772548D01*
X144985333Y-75732000D01*
X144828667Y-75732000D01*
X144677339Y-75772548D01*
X144657000Y-75784290D01*
X144657000Y-74754518D01*
X144656999Y-74754518D01*
X144586194Y-74765733D01*
X144381100Y-74832372D01*
X144188963Y-74930271D01*
X144014506Y-75057022D01*
X143872420Y-75199108D01*
X143811097Y-75232592D01*
X143741405Y-75227608D01*
X143685472Y-75185736D01*
X143672356Y-75163828D01*
X143671816Y-75162670D01*
X143671812Y-75162663D01*
X143579712Y-75013344D01*
X143455656Y-74889288D01*
X143338761Y-74817187D01*
X143306336Y-74797187D01*
X143306331Y-74797185D01*
X143304862Y-74796698D01*
X143139797Y-74742001D01*
X143139795Y-74742000D01*
X143037016Y-74731500D01*
X143037009Y-74731500D01*
X142837500Y-74731500D01*
X142770461Y-74711815D01*
X142724706Y-74659011D01*
X142713500Y-74607500D01*
X142713500Y-68897577D01*
X142733185Y-68830538D01*
X142785989Y-68784783D01*
X142824895Y-68774220D01*
X142885797Y-68767999D01*
X143052334Y-68712814D01*
X143201656Y-68620712D01*
X143325712Y-68496656D01*
X143417814Y-68347334D01*
X143417817Y-68347322D01*
X143418129Y-68346657D01*
X143418469Y-68346269D01*
X143421605Y-68341187D01*
X143422473Y-68341722D01*
X143464299Y-68294216D01*
X143531491Y-68275060D01*
X143598373Y-68295272D01*
X143618195Y-68311375D01*
X143760179Y-68453359D01*
X143934701Y-68580157D01*
X144126911Y-68678092D01*
X144332074Y-68744754D01*
X144411973Y-68757408D01*
X144545134Y-68778500D01*
X144545139Y-68778500D01*
X144760866Y-68778500D01*
X144879230Y-68759752D01*
X144973926Y-68744754D01*
X145179089Y-68678092D01*
X145371299Y-68580157D01*
X145545821Y-68453359D01*
X145698359Y-68300821D01*
X145825157Y-68126299D01*
X145923092Y-67934089D01*
X145989754Y-67728926D01*
X146013395Y-67579662D01*
X146023500Y-67515866D01*
X146023500Y-66850133D01*
X146001002Y-66708095D01*
X145989754Y-66637074D01*
X145923092Y-66431911D01*
X145825157Y-66239701D01*
X145698359Y-66065179D01*
X145545821Y-65912641D01*
X145371299Y-65785843D01*
X145179089Y-65687908D01*
X144973926Y-65621246D01*
X144973924Y-65621245D01*
X144973922Y-65621245D01*
X144760866Y-65587500D01*
X144760861Y-65587500D01*
X144545139Y-65587500D01*
X144545134Y-65587500D01*
X144332077Y-65621245D01*
X144126913Y-65687907D01*
X144122407Y-65689774D01*
X144121901Y-65688552D01*
X144059157Y-65700329D01*
X143994420Y-65674045D01*
X143983865Y-65664630D01*
X139025231Y-60705996D01*
X155150435Y-60705996D01*
X155150435Y-60706003D01*
X155170630Y-60885249D01*
X155170631Y-60885254D01*
X155230211Y-61055523D01*
X155290515Y-61151496D01*
X155323005Y-61203203D01*
X155326185Y-61208263D01*
X155328445Y-61211097D01*
X155329334Y-61213275D01*
X155329889Y-61214158D01*
X155329734Y-61214255D01*
X155354855Y-61275783D01*
X155355500Y-61288412D01*
X155355500Y-61635330D01*
X155355499Y-61635348D01*
X155355499Y-61801054D01*
X155355498Y-61801054D01*
X155355499Y-61801057D01*
X155396423Y-61953785D01*
X155396424Y-61953786D01*
X155400298Y-61960498D01*
X155400300Y-61960500D01*
X155475477Y-62090712D01*
X155475481Y-62090717D01*
X155594349Y-62209585D01*
X155594355Y-62209590D01*
X160586298Y-67201533D01*
X160619783Y-67262856D01*
X160621837Y-67275330D01*
X160631630Y-67362249D01*
X160691210Y-67532521D01*
X160720831Y-67579662D01*
X160787184Y-67685262D01*
X160914738Y-67812816D01*
X160937457Y-67827091D01*
X161045004Y-67894668D01*
X161067478Y-67908789D01*
X161139787Y-67934091D01*
X161237745Y-67968368D01*
X161237750Y-67968369D01*
X161416996Y-67988565D01*
X161417000Y-67988565D01*
X161417004Y-67988565D01*
X161596249Y-67968369D01*
X161596252Y-67968368D01*
X161596255Y-67968368D01*
X161766522Y-67908789D01*
X161919262Y-67812816D01*
X162046816Y-67685262D01*
X162142789Y-67532522D01*
X162202368Y-67362255D01*
X162212162Y-67275330D01*
X162222565Y-67183003D01*
X162222565Y-67182996D01*
X162202369Y-67003750D01*
X162202368Y-67003745D01*
X162147066Y-66845701D01*
X162142789Y-66833478D01*
X162134377Y-66820091D01*
X162046815Y-66680737D01*
X161919262Y-66553184D01*
X161766521Y-66457210D01*
X161596249Y-66397630D01*
X161509330Y-66387837D01*
X161444916Y-66360770D01*
X161435533Y-66352298D01*
X156592819Y-61509584D01*
X156559334Y-61448261D01*
X156556500Y-61421903D01*
X156556500Y-61288412D01*
X156576185Y-61221373D01*
X156583555Y-61211097D01*
X156585810Y-61208267D01*
X156585816Y-61208262D01*
X156681789Y-61055522D01*
X156741368Y-60885255D01*
X156741369Y-60885249D01*
X156761565Y-60706003D01*
X156761565Y-60705996D01*
X156741369Y-60526750D01*
X156741368Y-60526745D01*
X156681788Y-60356476D01*
X156585815Y-60203737D01*
X156458262Y-60076184D01*
X156305523Y-59980211D01*
X156135254Y-59920631D01*
X156135249Y-59920630D01*
X155956004Y-59900435D01*
X155955996Y-59900435D01*
X155776750Y-59920630D01*
X155776745Y-59920631D01*
X155606476Y-59980211D01*
X155453737Y-60076184D01*
X155326184Y-60203737D01*
X155230211Y-60356476D01*
X155170631Y-60526745D01*
X155170630Y-60526750D01*
X155150435Y-60705996D01*
X139025231Y-60705996D01*
X134472590Y-56153355D01*
X134472588Y-56153352D01*
X134353717Y-56034481D01*
X134353716Y-56034480D01*
X134243400Y-55970789D01*
X134243398Y-55970788D01*
X134216785Y-55955423D01*
X134193755Y-55949252D01*
X134134097Y-55912887D01*
X134103569Y-55850040D01*
X134111864Y-55780664D01*
X134128908Y-55752161D01*
X134132805Y-55747272D01*
X134132816Y-55747262D01*
X134228789Y-55594522D01*
X134288368Y-55424255D01*
X134288820Y-55420247D01*
X134308565Y-55245003D01*
X134308565Y-55244996D01*
X134288369Y-55065750D01*
X134288368Y-55065745D01*
X134255155Y-54970828D01*
X134228789Y-54895478D01*
X134220377Y-54882091D01*
X134151214Y-54772018D01*
X134132816Y-54742738D01*
X134005262Y-54615184D01*
X133852523Y-54519211D01*
X133682254Y-54459631D01*
X133682249Y-54459630D01*
X133503004Y-54439435D01*
X133502996Y-54439435D01*
X133323750Y-54459630D01*
X133323745Y-54459631D01*
X133153476Y-54519211D01*
X133000736Y-54615185D01*
X132997903Y-54617445D01*
X132995724Y-54618334D01*
X132994842Y-54618889D01*
X132994744Y-54618734D01*
X132933217Y-54643855D01*
X132920588Y-54644500D01*
X132674669Y-54644500D01*
X132674653Y-54644499D01*
X132667057Y-54644499D01*
X132508943Y-54644499D01*
X132401587Y-54673265D01*
X132356210Y-54685424D01*
X132356209Y-54685425D01*
X132321066Y-54705716D01*
X132321064Y-54705717D01*
X132219290Y-54764475D01*
X132219282Y-54764481D01*
X131091481Y-55892282D01*
X131091479Y-55892285D01*
X131046157Y-55970787D01*
X131046156Y-55970788D01*
X131046155Y-55970790D01*
X131012423Y-56029215D01*
X130971499Y-56181943D01*
X130971499Y-56181945D01*
X130971499Y-56350046D01*
X130971500Y-56350059D01*
X130971500Y-60786902D01*
X130951815Y-60853941D01*
X130935181Y-60874583D01*
X127422584Y-64387181D01*
X127361261Y-64420666D01*
X127334903Y-64423500D01*
X125423412Y-64423500D01*
X125356373Y-64403815D01*
X125346097Y-64396445D01*
X125343263Y-64394185D01*
X125343262Y-64394184D01*
X125262462Y-64343414D01*
X125190523Y-64298211D01*
X125020254Y-64238631D01*
X125020249Y-64238630D01*
X124841004Y-64218435D01*
X124840996Y-64218435D01*
X124661750Y-64238630D01*
X124661745Y-64238631D01*
X124491476Y-64298211D01*
X124338737Y-64394184D01*
X124211184Y-64521737D01*
X124115211Y-64674476D01*
X124055631Y-64844745D01*
X124055630Y-64844750D01*
X124035435Y-65023996D01*
X115051262Y-65023996D01*
X115051089Y-65023908D01*
X114845926Y-64957246D01*
X114845924Y-64957245D01*
X114845922Y-64957245D01*
X114632866Y-64923500D01*
X114632861Y-64923500D01*
X113967139Y-64923500D01*
X113967134Y-64923500D01*
X113754077Y-64957245D01*
X113548908Y-65023909D01*
X113356700Y-65121843D01*
X113257129Y-65194186D01*
X113182179Y-65248641D01*
X113182177Y-65248643D01*
X113182176Y-65248643D01*
X113029643Y-65401176D01*
X113029643Y-65401177D01*
X113029641Y-65401179D01*
X112975186Y-65476129D01*
X112902843Y-65575700D01*
X112804909Y-65767908D01*
X112804908Y-65767910D01*
X112804908Y-65767911D01*
X112795523Y-65796795D01*
X112738245Y-65973077D01*
X112704500Y-66186133D01*
X90500500Y-66186133D01*
X90500500Y-55238983D01*
X102007500Y-55238983D01*
X102007500Y-57029001D01*
X102007501Y-57029018D01*
X102018000Y-57131796D01*
X102018001Y-57131799D01*
X102073185Y-57298331D01*
X102073187Y-57298336D01*
X102074441Y-57300369D01*
X102165288Y-57447656D01*
X102289344Y-57571712D01*
X102438666Y-57663814D01*
X102605203Y-57718999D01*
X102707991Y-57729500D01*
X104048008Y-57729499D01*
X104150797Y-57718999D01*
X104317334Y-57663814D01*
X104466656Y-57571712D01*
X104590712Y-57447656D01*
X104682814Y-57298334D01*
X104682817Y-57298323D01*
X104683353Y-57297177D01*
X104683934Y-57296516D01*
X104686605Y-57292187D01*
X104687344Y-57292643D01*
X104729521Y-57244734D01*
X104796713Y-57225577D01*
X104863596Y-57245788D01*
X104883420Y-57261892D01*
X105025502Y-57403974D01*
X105199963Y-57530728D01*
X105392098Y-57628627D01*
X105597190Y-57695266D01*
X105668000Y-57706481D01*
X105668000Y-56676709D01*
X105688339Y-56688452D01*
X105839667Y-56729000D01*
X105996333Y-56729000D01*
X106147661Y-56688452D01*
X106168000Y-56676709D01*
X106168000Y-57706480D01*
X106238809Y-57695266D01*
X106443901Y-57628627D01*
X106636036Y-57530728D01*
X106810496Y-57403974D01*
X106810497Y-57403974D01*
X106962974Y-57251497D01*
X106962974Y-57251496D01*
X107089728Y-57077036D01*
X107187627Y-56884901D01*
X107254265Y-56679809D01*
X107288000Y-56466820D01*
X107288000Y-56384000D01*
X106460709Y-56384000D01*
X106472452Y-56363661D01*
X106513000Y-56212333D01*
X106513000Y-56055667D01*
X106472452Y-55904339D01*
X106460709Y-55884000D01*
X107288000Y-55884000D01*
X107288000Y-55801179D01*
X107254265Y-55588190D01*
X107187627Y-55383098D01*
X107089728Y-55190963D01*
X106962974Y-55016503D01*
X106962974Y-55016502D01*
X106810497Y-54864025D01*
X106636036Y-54737271D01*
X106443899Y-54639372D01*
X106238805Y-54572733D01*
X106168000Y-54561518D01*
X106168000Y-55591290D01*
X106147661Y-55579548D01*
X105996333Y-55539000D01*
X105839667Y-55539000D01*
X105688339Y-55579548D01*
X105668000Y-55591290D01*
X105668000Y-54561518D01*
X105667999Y-54561518D01*
X105597194Y-54572733D01*
X105392100Y-54639372D01*
X105199963Y-54737271D01*
X105025506Y-54864022D01*
X104883420Y-55006108D01*
X104822097Y-55039592D01*
X104752405Y-55034608D01*
X104696472Y-54992736D01*
X104683356Y-54970828D01*
X104682816Y-54969670D01*
X104682812Y-54969663D01*
X104590712Y-54820344D01*
X104466656Y-54696288D01*
X104373888Y-54639069D01*
X104317336Y-54604187D01*
X104317331Y-54604185D01*
X104315862Y-54603698D01*
X104150797Y-54549001D01*
X104150795Y-54549000D01*
X104048010Y-54538500D01*
X102707998Y-54538500D01*
X102707981Y-54538501D01*
X102605203Y-54549000D01*
X102605200Y-54549001D01*
X102438668Y-54604185D01*
X102438663Y-54604187D01*
X102289342Y-54696289D01*
X102165289Y-54820342D01*
X102073187Y-54969663D01*
X102073185Y-54969668D01*
X102049437Y-55041336D01*
X102018001Y-55136203D01*
X102018001Y-55136204D01*
X102018000Y-55136204D01*
X102007500Y-55238983D01*
X90500500Y-55238983D01*
X90500500Y-54248133D01*
X112704500Y-54248133D01*
X112704500Y-54463866D01*
X112732298Y-54639372D01*
X112738246Y-54676926D01*
X112804908Y-54882089D01*
X112902843Y-55074299D01*
X113029641Y-55248821D01*
X113029643Y-55248823D01*
X113171624Y-55390804D01*
X113205109Y-55452127D01*
X113200125Y-55521819D01*
X113158253Y-55577752D01*
X113136360Y-55590861D01*
X113135677Y-55591179D01*
X112986342Y-55683289D01*
X112862289Y-55807342D01*
X112770187Y-55956663D01*
X112770185Y-55956668D01*
X112746146Y-56029215D01*
X112715001Y-56123203D01*
X112715001Y-56123204D01*
X112715000Y-56123204D01*
X112704500Y-56225983D01*
X112704500Y-57566001D01*
X112704501Y-57566018D01*
X112715000Y-57668796D01*
X112715001Y-57668799D01*
X112753507Y-57785000D01*
X112770186Y-57835334D01*
X112862288Y-57984656D01*
X112986344Y-58108712D01*
X113135666Y-58200814D01*
X113302203Y-58255999D01*
X113404991Y-58266500D01*
X115195008Y-58266499D01*
X115297797Y-58255999D01*
X115464334Y-58200814D01*
X115613656Y-58108712D01*
X115737712Y-57984656D01*
X115829814Y-57835334D01*
X115884999Y-57668797D01*
X115895500Y-57566009D01*
X115895500Y-57149996D01*
X120352435Y-57149996D01*
X120352435Y-57150003D01*
X120372630Y-57329249D01*
X120372631Y-57329254D01*
X120432211Y-57499523D01*
X120473992Y-57566016D01*
X120512010Y-57626522D01*
X120528185Y-57652263D01*
X120530445Y-57655097D01*
X120531334Y-57657275D01*
X120531889Y-57658158D01*
X120531734Y-57658255D01*
X120556855Y-57719783D01*
X120557500Y-57732412D01*
X120557500Y-62663587D01*
X120537815Y-62730626D01*
X120530450Y-62740896D01*
X120528186Y-62743734D01*
X120432211Y-62896476D01*
X120372631Y-63066745D01*
X120372630Y-63066750D01*
X120352435Y-63245996D01*
X120352435Y-63246003D01*
X120372630Y-63425249D01*
X120372631Y-63425254D01*
X120432211Y-63595523D01*
X120475239Y-63664001D01*
X120528184Y-63748262D01*
X120655738Y-63875816D01*
X120808478Y-63971789D01*
X120978745Y-64031368D01*
X120978750Y-64031369D01*
X121157996Y-64051565D01*
X121158000Y-64051565D01*
X121158004Y-64051565D01*
X121337249Y-64031369D01*
X121337252Y-64031368D01*
X121337255Y-64031368D01*
X121507522Y-63971789D01*
X121660262Y-63875816D01*
X121787816Y-63748262D01*
X121883789Y-63595522D01*
X121943368Y-63425255D01*
X121943369Y-63425249D01*
X121963565Y-63246003D01*
X121963565Y-63245996D01*
X121943369Y-63066750D01*
X121943368Y-63066745D01*
X121925446Y-63015528D01*
X121883789Y-62896478D01*
X121787816Y-62743738D01*
X121787814Y-62743736D01*
X121787813Y-62743734D01*
X121785550Y-62740896D01*
X121784659Y-62738715D01*
X121784111Y-62737842D01*
X121784264Y-62737745D01*
X121759144Y-62676209D01*
X121758500Y-62663587D01*
X121758500Y-57732412D01*
X121778185Y-57665373D01*
X121785555Y-57655097D01*
X121787810Y-57652267D01*
X121787816Y-57652262D01*
X121883789Y-57499522D01*
X121943368Y-57329255D01*
X121944347Y-57320565D01*
X121963565Y-57150003D01*
X121963565Y-57149996D01*
X121943369Y-56970750D01*
X121943368Y-56970745D01*
X121928228Y-56927478D01*
X121883789Y-56800478D01*
X121867615Y-56774738D01*
X121817253Y-56694587D01*
X121787816Y-56647738D01*
X121660262Y-56520184D01*
X121507523Y-56424211D01*
X121337254Y-56364631D01*
X121337249Y-56364630D01*
X121158004Y-56344435D01*
X121157996Y-56344435D01*
X120978750Y-56364630D01*
X120978745Y-56364631D01*
X120808476Y-56424211D01*
X120655737Y-56520184D01*
X120528184Y-56647737D01*
X120432211Y-56800476D01*
X120372631Y-56970745D01*
X120372630Y-56970750D01*
X120352435Y-57149996D01*
X115895500Y-57149996D01*
X115895499Y-56225992D01*
X115884999Y-56123203D01*
X115829814Y-55956666D01*
X115737712Y-55807344D01*
X115731547Y-55801179D01*
X123598000Y-55801179D01*
X123598000Y-55884000D01*
X124425291Y-55884000D01*
X124413548Y-55904339D01*
X124373000Y-56055667D01*
X124373000Y-56212333D01*
X124413548Y-56363661D01*
X124425291Y-56384000D01*
X123598000Y-56384000D01*
X123598000Y-56466820D01*
X123631734Y-56679809D01*
X123698372Y-56884901D01*
X123796271Y-57077036D01*
X123923025Y-57251496D01*
X123923025Y-57251497D01*
X124075502Y-57403974D01*
X124249963Y-57530728D01*
X124442098Y-57628627D01*
X124647190Y-57695266D01*
X124718000Y-57706481D01*
X124718000Y-56676709D01*
X124738339Y-56688452D01*
X124889667Y-56729000D01*
X125046333Y-56729000D01*
X125197661Y-56688452D01*
X125218000Y-56676709D01*
X125218000Y-57706480D01*
X125288809Y-57695266D01*
X125493901Y-57628627D01*
X125686036Y-57530728D01*
X125860493Y-57403977D01*
X126002578Y-57261892D01*
X126063901Y-57228407D01*
X126133593Y-57233391D01*
X126189527Y-57275262D01*
X126202640Y-57297165D01*
X126203181Y-57298325D01*
X126203185Y-57298331D01*
X126203186Y-57298334D01*
X126295288Y-57447656D01*
X126419344Y-57571712D01*
X126568666Y-57663814D01*
X126735203Y-57718999D01*
X126837991Y-57729500D01*
X128178008Y-57729499D01*
X128280797Y-57718999D01*
X128447334Y-57663814D01*
X128596656Y-57571712D01*
X128720712Y-57447656D01*
X128812814Y-57298334D01*
X128867999Y-57131797D01*
X128878500Y-57029009D01*
X128878499Y-55238992D01*
X128867999Y-55136203D01*
X128812814Y-54969666D01*
X128720712Y-54820344D01*
X128596656Y-54696288D01*
X128503888Y-54639069D01*
X128447336Y-54604187D01*
X128447331Y-54604185D01*
X128445862Y-54603698D01*
X128280797Y-54549001D01*
X128280795Y-54549000D01*
X128178010Y-54538500D01*
X126837998Y-54538500D01*
X126837981Y-54538501D01*
X126735203Y-54549000D01*
X126735200Y-54549001D01*
X126568668Y-54604185D01*
X126568663Y-54604187D01*
X126419342Y-54696289D01*
X126295289Y-54820342D01*
X126203182Y-54969672D01*
X126202638Y-54970840D01*
X126202051Y-54971505D01*
X126199395Y-54975813D01*
X126198658Y-54975358D01*
X126156461Y-55023275D01*
X126089266Y-55042422D01*
X126022387Y-55022201D01*
X126002579Y-55006107D01*
X125860497Y-54864025D01*
X125686036Y-54737271D01*
X125493899Y-54639372D01*
X125288805Y-54572733D01*
X125218000Y-54561518D01*
X125218000Y-55591290D01*
X125197661Y-55579548D01*
X125046333Y-55539000D01*
X124889667Y-55539000D01*
X124738339Y-55579548D01*
X124718000Y-55591290D01*
X124718000Y-54561518D01*
X124717999Y-54561518D01*
X124647194Y-54572733D01*
X124442100Y-54639372D01*
X124249963Y-54737271D01*
X124075503Y-54864025D01*
X124075502Y-54864025D01*
X123923025Y-55016502D01*
X123923025Y-55016503D01*
X123796271Y-55190963D01*
X123698372Y-55383098D01*
X123631734Y-55588190D01*
X123598000Y-55801179D01*
X115731547Y-55801179D01*
X115613656Y-55683288D01*
X115464334Y-55591186D01*
X115464326Y-55591181D01*
X115463645Y-55590864D01*
X115463256Y-55590521D01*
X115458187Y-55587395D01*
X115458721Y-55586528D01*
X115411208Y-55544688D01*
X115392060Y-55477494D01*
X115412280Y-55410614D01*
X115428366Y-55390813D01*
X115570359Y-55248821D01*
X115697157Y-55074299D01*
X115795092Y-54882089D01*
X115861754Y-54676926D01*
X115876752Y-54582230D01*
X115895500Y-54463866D01*
X115895500Y-54248133D01*
X115873002Y-54106095D01*
X115861754Y-54035074D01*
X115795092Y-53829911D01*
X115697157Y-53637701D01*
X115570359Y-53463179D01*
X115417821Y-53310641D01*
X115243299Y-53183843D01*
X115051089Y-53085908D01*
X114845926Y-53019246D01*
X114845924Y-53019245D01*
X114845922Y-53019245D01*
X114632866Y-52985500D01*
X114632861Y-52985500D01*
X113967139Y-52985500D01*
X113967134Y-52985500D01*
X113754077Y-53019245D01*
X113548908Y-53085909D01*
X113356700Y-53183843D01*
X113308672Y-53218738D01*
X113182179Y-53310641D01*
X113182177Y-53310643D01*
X113182176Y-53310643D01*
X113029643Y-53463176D01*
X113029643Y-53463177D01*
X113029641Y-53463179D01*
X112983108Y-53527226D01*
X112902843Y-53637700D01*
X112804909Y-53829908D01*
X112738245Y-54035077D01*
X112704500Y-54248133D01*
X90500500Y-54248133D01*
X90500500Y-49148996D01*
X125305435Y-49148996D01*
X125305435Y-49149003D01*
X125325630Y-49328249D01*
X125325631Y-49328254D01*
X125385211Y-49498523D01*
X125477706Y-49645727D01*
X125496706Y-49712964D01*
X125489754Y-49752653D01*
X125452632Y-49858742D01*
X125452630Y-49858750D01*
X125432435Y-50037996D01*
X125432435Y-50038003D01*
X125452630Y-50217249D01*
X125452631Y-50217254D01*
X125512211Y-50387523D01*
X125608184Y-50540262D01*
X125608185Y-50540263D01*
X125653241Y-50585320D01*
X125686725Y-50646643D01*
X125681740Y-50716335D01*
X125653241Y-50760680D01*
X125608184Y-50805737D01*
X125512211Y-50958476D01*
X125452631Y-51128745D01*
X125452630Y-51128750D01*
X125432435Y-51307996D01*
X125432435Y-51308003D01*
X125452630Y-51487249D01*
X125452631Y-51487254D01*
X125512211Y-51657523D01*
X125592010Y-51784522D01*
X125608184Y-51810262D01*
X125735738Y-51937816D01*
X125806564Y-51982319D01*
X125877141Y-52026666D01*
X125888478Y-52033789D01*
X125977148Y-52064816D01*
X126058745Y-52093368D01*
X126058750Y-52093369D01*
X126237996Y-52113565D01*
X126238000Y-52113565D01*
X126238004Y-52113565D01*
X126417249Y-52093369D01*
X126417252Y-52093368D01*
X126417255Y-52093368D01*
X126587522Y-52033789D01*
X126740262Y-51937816D01*
X126740267Y-51937810D01*
X126743097Y-51935555D01*
X126745275Y-51934665D01*
X126746158Y-51934111D01*
X126746255Y-51934265D01*
X126807783Y-51909145D01*
X126820412Y-51908500D01*
X132793059Y-51908500D01*
X132860098Y-51928185D01*
X132880740Y-51944819D01*
X132918240Y-51982319D01*
X132951725Y-52043642D01*
X132946741Y-52113334D01*
X132918241Y-52157680D01*
X132873184Y-52202737D01*
X132777211Y-52355476D01*
X132717631Y-52525745D01*
X132717630Y-52525750D01*
X132697435Y-52704996D01*
X132697435Y-52705003D01*
X132717630Y-52884249D01*
X132717631Y-52884254D01*
X132777211Y-53054523D01*
X132845162Y-53162666D01*
X132873184Y-53207262D01*
X133000738Y-53334816D01*
X133153478Y-53430789D01*
X133323745Y-53490368D01*
X133410669Y-53500161D01*
X133475080Y-53527226D01*
X133484465Y-53535700D01*
X139241139Y-59292374D01*
X139241149Y-59292385D01*
X139245479Y-59296715D01*
X139245480Y-59296716D01*
X139357284Y-59408520D01*
X139362725Y-59411661D01*
X139444095Y-59458639D01*
X139444097Y-59458641D01*
X139482151Y-59480611D01*
X139494215Y-59487577D01*
X139646943Y-59528501D01*
X139646946Y-59528501D01*
X139812653Y-59528501D01*
X139812669Y-59528500D01*
X161370903Y-59528500D01*
X161437942Y-59548185D01*
X161458584Y-59564819D01*
X166136902Y-64243137D01*
X166170387Y-64304460D01*
X166172580Y-64343414D01*
X166171500Y-64353985D01*
X166171500Y-65694001D01*
X166171501Y-65694018D01*
X166182000Y-65796796D01*
X166182001Y-65796799D01*
X166237185Y-65963331D01*
X166237187Y-65963336D01*
X166271313Y-66018663D01*
X166329288Y-66112656D01*
X166453344Y-66236712D01*
X166602666Y-66328814D01*
X166602668Y-66328814D01*
X166602669Y-66328815D01*
X166603348Y-66329132D01*
X166603735Y-66329473D01*
X166608813Y-66332605D01*
X166608277Y-66333472D01*
X166655787Y-66375304D01*
X166674939Y-66442498D01*
X166654723Y-66509379D01*
X166638625Y-66529195D01*
X166496640Y-66671180D01*
X166369843Y-66845700D01*
X166271909Y-67037908D01*
X166205245Y-67243077D01*
X166171500Y-67456133D01*
X166171500Y-67671866D01*
X166202354Y-67866667D01*
X166205246Y-67884926D01*
X166271908Y-68090089D01*
X166369843Y-68282299D01*
X166496641Y-68456821D01*
X166649179Y-68609359D01*
X166808916Y-68725415D01*
X166820720Y-68733991D01*
X166863385Y-68789321D01*
X166869364Y-68858935D01*
X166836758Y-68920730D01*
X166820720Y-68934627D01*
X166649503Y-69059024D01*
X166497025Y-69211502D01*
X166497025Y-69211503D01*
X166370271Y-69385963D01*
X166272372Y-69578098D01*
X166205733Y-69783190D01*
X166194519Y-69854000D01*
X167224291Y-69854000D01*
X167212548Y-69874339D01*
X167172000Y-70025667D01*
X167172000Y-70182333D01*
X167212548Y-70333661D01*
X167224291Y-70354000D01*
X166194519Y-70354000D01*
X166205733Y-70424809D01*
X166272372Y-70629901D01*
X166370271Y-70822036D01*
X166497025Y-70996496D01*
X166497025Y-70996497D01*
X166649502Y-71148974D01*
X166823963Y-71275728D01*
X167016098Y-71373627D01*
X167221190Y-71440265D01*
X167434180Y-71474000D01*
X167517000Y-71474000D01*
X167517000Y-70646709D01*
X167537339Y-70658452D01*
X167688667Y-70699000D01*
X167845333Y-70699000D01*
X167996661Y-70658452D01*
X168017000Y-70646709D01*
X168017000Y-71474000D01*
X168099820Y-71474000D01*
X168312809Y-71440265D01*
X168517901Y-71373627D01*
X168710036Y-71275728D01*
X168884496Y-71148974D01*
X168884497Y-71148974D01*
X169036974Y-70996497D01*
X169036974Y-70996496D01*
X169163728Y-70822036D01*
X169261627Y-70629901D01*
X169328266Y-70424809D01*
X169339481Y-70354000D01*
X168309709Y-70354000D01*
X168321452Y-70333661D01*
X168362000Y-70182333D01*
X168362000Y-70025667D01*
X168321452Y-69874339D01*
X168309709Y-69854000D01*
X169339481Y-69854000D01*
X169328266Y-69783190D01*
X169261627Y-69578098D01*
X169163728Y-69385963D01*
X169036974Y-69211503D01*
X169036974Y-69211502D01*
X168884497Y-69059025D01*
X168713279Y-68934627D01*
X168670614Y-68879297D01*
X168664635Y-68809683D01*
X168697241Y-68747888D01*
X168713280Y-68733991D01*
X168725084Y-68725415D01*
X168884821Y-68609359D01*
X169037359Y-68456821D01*
X169164157Y-68282299D01*
X169262092Y-68090089D01*
X169328754Y-67884926D01*
X169343752Y-67790230D01*
X169362500Y-67671866D01*
X169362500Y-67456133D01*
X169328754Y-67243077D01*
X169328754Y-67243074D01*
X169262092Y-67037911D01*
X169164157Y-66845701D01*
X169037359Y-66671179D01*
X168895375Y-66529195D01*
X168861890Y-66467872D01*
X168866874Y-66398180D01*
X168908746Y-66342247D01*
X168930657Y-66329129D01*
X168931322Y-66328817D01*
X168931334Y-66328814D01*
X169080656Y-66236712D01*
X169204712Y-66112656D01*
X169296814Y-65963334D01*
X169351999Y-65796797D01*
X169362500Y-65694009D01*
X169362499Y-64353992D01*
X169361418Y-64343414D01*
X169351999Y-64251203D01*
X169351998Y-64251200D01*
X169341141Y-64218435D01*
X169296814Y-64084666D01*
X169204712Y-63935344D01*
X169080656Y-63811288D01*
X168931334Y-63719186D01*
X168764797Y-63664001D01*
X168764795Y-63664000D01*
X168662016Y-63653500D01*
X168662009Y-63653500D01*
X167297097Y-63653500D01*
X167230058Y-63633815D01*
X167209416Y-63617181D01*
X165568231Y-61975996D01*
X166326435Y-61975996D01*
X166326435Y-61976003D01*
X166346630Y-62155249D01*
X166346631Y-62155254D01*
X166406211Y-62325523D01*
X166502184Y-62478262D01*
X166629738Y-62605816D01*
X166782478Y-62701789D01*
X166952745Y-62761368D01*
X167039668Y-62771161D01*
X167104079Y-62798226D01*
X167113464Y-62806700D01*
X167144284Y-62837520D01*
X167144286Y-62837521D01*
X167144290Y-62837524D01*
X167281209Y-62916573D01*
X167281216Y-62916577D01*
X167393019Y-62946534D01*
X167433942Y-62957500D01*
X167433943Y-62957500D01*
X172939780Y-62957500D01*
X173006819Y-62977185D01*
X173044772Y-63015526D01*
X173106184Y-63113262D01*
X173233738Y-63240816D01*
X173324080Y-63297582D01*
X173385220Y-63335999D01*
X173386478Y-63336789D01*
X173556745Y-63396368D01*
X173556750Y-63396369D01*
X173735996Y-63416565D01*
X173736000Y-63416565D01*
X173736004Y-63416565D01*
X173915249Y-63396369D01*
X173915252Y-63396368D01*
X173915255Y-63396368D01*
X174085522Y-63336789D01*
X174238262Y-63240816D01*
X174365816Y-63113262D01*
X174461789Y-62960522D01*
X174521368Y-62790255D01*
X174522972Y-62776019D01*
X174541565Y-62611003D01*
X174541565Y-62610996D01*
X174521369Y-62431750D01*
X174521368Y-62431745D01*
X174461788Y-62261476D01*
X174422582Y-62199080D01*
X174365816Y-62108738D01*
X174238262Y-61981184D01*
X174085523Y-61885211D01*
X173915254Y-61825631D01*
X173915249Y-61825630D01*
X173749450Y-61806950D01*
X173715877Y-61798290D01*
X173713787Y-61797424D01*
X173713785Y-61797423D01*
X173561057Y-61756499D01*
X173402943Y-61756499D01*
X173395347Y-61756499D01*
X173395331Y-61756500D01*
X167991268Y-61756500D01*
X167924229Y-61736815D01*
X167878474Y-61684011D01*
X167874234Y-61673475D01*
X167857789Y-61626478D01*
X167761816Y-61473738D01*
X167634262Y-61346184D01*
X167481523Y-61250211D01*
X167311254Y-61190631D01*
X167311249Y-61190630D01*
X167132004Y-61170435D01*
X167131996Y-61170435D01*
X166952750Y-61190630D01*
X166952745Y-61190631D01*
X166782476Y-61250211D01*
X166629737Y-61346184D01*
X166502184Y-61473737D01*
X166406211Y-61626476D01*
X166346631Y-61796745D01*
X166346630Y-61796750D01*
X166326435Y-61975996D01*
X165568231Y-61975996D01*
X162158590Y-58566355D01*
X162158588Y-58566352D01*
X162039717Y-58447481D01*
X162039716Y-58447480D01*
X161944520Y-58392519D01*
X161902785Y-58368423D01*
X161750057Y-58327499D01*
X161591943Y-58327499D01*
X161584347Y-58327499D01*
X161584331Y-58327500D01*
X157133167Y-58327500D01*
X157101361Y-58318160D01*
X157086227Y-58325640D01*
X157064833Y-58327500D01*
X155944465Y-58327500D01*
X155877426Y-58307815D01*
X155831671Y-58255011D01*
X155821727Y-58185853D01*
X155827423Y-58162546D01*
X155852367Y-58091257D01*
X155852368Y-58091255D01*
X155853605Y-58080280D01*
X155872565Y-57912003D01*
X155872565Y-57911996D01*
X155852369Y-57732750D01*
X155852368Y-57732745D01*
X155843177Y-57706480D01*
X155792789Y-57562478D01*
X155696816Y-57409738D01*
X155569262Y-57282184D01*
X155416523Y-57186211D01*
X155246254Y-57126631D01*
X155246249Y-57126630D01*
X155067004Y-57106435D01*
X155066996Y-57106435D01*
X154887750Y-57126630D01*
X154887745Y-57126631D01*
X154717476Y-57186211D01*
X154564736Y-57282185D01*
X154561903Y-57284445D01*
X154559724Y-57285334D01*
X154558842Y-57285889D01*
X154558744Y-57285734D01*
X154497217Y-57310855D01*
X154484588Y-57311500D01*
X151712941Y-57311500D01*
X151645902Y-57291815D01*
X151625260Y-57275182D01*
X151567000Y-57216922D01*
X151505262Y-57155184D01*
X151459819Y-57126630D01*
X151352523Y-57059211D01*
X151182254Y-56999631D01*
X151182249Y-56999630D01*
X151003004Y-56979435D01*
X151002996Y-56979435D01*
X150823750Y-56999630D01*
X150823745Y-56999631D01*
X150653476Y-57059211D01*
X150500737Y-57155184D01*
X150373184Y-57282737D01*
X150277211Y-57435476D01*
X150217631Y-57605745D01*
X150217630Y-57605750D01*
X150197435Y-57784996D01*
X150197435Y-57785003D01*
X150217630Y-57964249D01*
X150217631Y-57964254D01*
X150277211Y-58134523D01*
X150279097Y-58137524D01*
X150279723Y-58139741D01*
X150280231Y-58140795D01*
X150280046Y-58140883D01*
X150298100Y-58204760D01*
X150277735Y-58271596D01*
X150224469Y-58316812D01*
X150174106Y-58327500D01*
X140026097Y-58327500D01*
X139959058Y-58307815D01*
X139938416Y-58291181D01*
X134333700Y-52686465D01*
X134300215Y-52625142D01*
X134298163Y-52612686D01*
X134288368Y-52525745D01*
X134228789Y-52355478D01*
X134132816Y-52202738D01*
X134087758Y-52157680D01*
X134054274Y-52096358D01*
X134059258Y-52026666D01*
X134087759Y-51982319D01*
X134132816Y-51937262D01*
X134228789Y-51784522D01*
X134288368Y-51614255D01*
X134288369Y-51614249D01*
X134308565Y-51435003D01*
X134308565Y-51434996D01*
X134288369Y-51255750D01*
X134288368Y-51255745D01*
X134228789Y-51085478D01*
X134132816Y-50932738D01*
X134005262Y-50805184D01*
X133852523Y-50709211D01*
X133682254Y-50649631D01*
X133682249Y-50649630D01*
X133503004Y-50629435D01*
X133502996Y-50629435D01*
X133323753Y-50649630D01*
X133323747Y-50649631D01*
X133178252Y-50700542D01*
X133137298Y-50707500D01*
X132400894Y-50707500D01*
X132333855Y-50687815D01*
X132288100Y-50635011D01*
X132278156Y-50565853D01*
X132295903Y-50517524D01*
X132297788Y-50514523D01*
X132297789Y-50514522D01*
X132357368Y-50344255D01*
X132357369Y-50344249D01*
X132377565Y-50165003D01*
X132377565Y-50164996D01*
X132357369Y-49985750D01*
X132357367Y-49985742D01*
X132332423Y-49914454D01*
X132328862Y-49844675D01*
X132363591Y-49784048D01*
X132425585Y-49751821D01*
X132449465Y-49749500D01*
X135716903Y-49749500D01*
X135783942Y-49769185D01*
X135804584Y-49785819D01*
X139758298Y-53739533D01*
X139791783Y-53800856D01*
X139793837Y-53813330D01*
X139803630Y-53900249D01*
X139863210Y-54070521D01*
X139959184Y-54223262D01*
X140086738Y-54350816D01*
X140239478Y-54446789D01*
X140409745Y-54506368D01*
X140409750Y-54506369D01*
X140588996Y-54526565D01*
X140589000Y-54526565D01*
X140589004Y-54526565D01*
X140768249Y-54506369D01*
X140768252Y-54506368D01*
X140768255Y-54506368D01*
X140938522Y-54446789D01*
X141091262Y-54350816D01*
X141218816Y-54223262D01*
X141314789Y-54070522D01*
X141374368Y-53900255D01*
X141384162Y-53813330D01*
X141394565Y-53721003D01*
X141394565Y-53720996D01*
X141374369Y-53541750D01*
X141374368Y-53541745D01*
X141356390Y-53490367D01*
X141314789Y-53371478D01*
X141303009Y-53352731D01*
X141218815Y-53218737D01*
X141091262Y-53091184D01*
X140938521Y-52995210D01*
X140768249Y-52935630D01*
X140681330Y-52925837D01*
X140616916Y-52898770D01*
X140607533Y-52890298D01*
X136504590Y-48787355D01*
X136504588Y-48787352D01*
X136385717Y-48668481D01*
X136385709Y-48668475D01*
X136283936Y-48609717D01*
X136283934Y-48609716D01*
X136248790Y-48589425D01*
X136248789Y-48589424D01*
X136236263Y-48586067D01*
X136096057Y-48548499D01*
X135937943Y-48548499D01*
X135930347Y-48548499D01*
X135930331Y-48548500D01*
X126693412Y-48548500D01*
X126626373Y-48528815D01*
X126616097Y-48521445D01*
X126613263Y-48519185D01*
X126613262Y-48519184D01*
X126518258Y-48459489D01*
X126460523Y-48423211D01*
X126290254Y-48363631D01*
X126290249Y-48363630D01*
X126111004Y-48343435D01*
X126110996Y-48343435D01*
X125931750Y-48363630D01*
X125931745Y-48363631D01*
X125761476Y-48423211D01*
X125608737Y-48519184D01*
X125481184Y-48646737D01*
X125385211Y-48799476D01*
X125325631Y-48969745D01*
X125325630Y-48969750D01*
X125305435Y-49148996D01*
X90500500Y-49148996D01*
X90500500Y-44878711D01*
X93149500Y-44878711D01*
X93149500Y-45121288D01*
X93181161Y-45361785D01*
X93243947Y-45596104D01*
X93332873Y-45810789D01*
X93336776Y-45820212D01*
X93458064Y-46030289D01*
X93458066Y-46030292D01*
X93458067Y-46030293D01*
X93605733Y-46222736D01*
X93605739Y-46222743D01*
X93777256Y-46394260D01*
X93777263Y-46394266D01*
X93890321Y-46481018D01*
X93969711Y-46541936D01*
X94179788Y-46663224D01*
X94403900Y-46756054D01*
X94638211Y-46818838D01*
X94818586Y-46842584D01*
X94878711Y-46850500D01*
X94878712Y-46850500D01*
X95121289Y-46850500D01*
X95169388Y-46844167D01*
X95361789Y-46818838D01*
X95596100Y-46756054D01*
X95820212Y-46663224D01*
X96030289Y-46541936D01*
X96222738Y-46394265D01*
X96394265Y-46222738D01*
X96541936Y-46030289D01*
X96663224Y-45820212D01*
X96756054Y-45596100D01*
X96818838Y-45361789D01*
X96850500Y-45121288D01*
X96850500Y-44878712D01*
X96818838Y-44638211D01*
X96766794Y-44443983D01*
X102134500Y-44443983D01*
X102134500Y-46234001D01*
X102134501Y-46234018D01*
X102145000Y-46336796D01*
X102145001Y-46336799D01*
X102182774Y-46450788D01*
X102200186Y-46503334D01*
X102292288Y-46652656D01*
X102416344Y-46776712D01*
X102565666Y-46868814D01*
X102732203Y-46923999D01*
X102834991Y-46934500D01*
X104175008Y-46934499D01*
X104277797Y-46923999D01*
X104444334Y-46868814D01*
X104593656Y-46776712D01*
X104717712Y-46652656D01*
X104809814Y-46503334D01*
X104809817Y-46503323D01*
X104810353Y-46502177D01*
X104810934Y-46501516D01*
X104813605Y-46497187D01*
X104814344Y-46497643D01*
X104856521Y-46449734D01*
X104923713Y-46430577D01*
X104990596Y-46450788D01*
X105010420Y-46466892D01*
X105152502Y-46608974D01*
X105326963Y-46735728D01*
X105519098Y-46833627D01*
X105724190Y-46900266D01*
X105795000Y-46911481D01*
X105795000Y-45881709D01*
X105815339Y-45893452D01*
X105966667Y-45934000D01*
X106123333Y-45934000D01*
X106274661Y-45893452D01*
X106295000Y-45881709D01*
X106295000Y-46911480D01*
X106365809Y-46900266D01*
X106570901Y-46833627D01*
X106763036Y-46735728D01*
X106937496Y-46608974D01*
X106937497Y-46608974D01*
X107089974Y-46456497D01*
X107089974Y-46456496D01*
X107216728Y-46282036D01*
X107314627Y-46089901D01*
X107381265Y-45884809D01*
X107415000Y-45671820D01*
X107415000Y-45589000D01*
X106587709Y-45589000D01*
X106599452Y-45568661D01*
X106640000Y-45417333D01*
X106640000Y-45260667D01*
X106599452Y-45109339D01*
X106587709Y-45089000D01*
X107415000Y-45089000D01*
X107415000Y-45006179D01*
X107381265Y-44793190D01*
X107314627Y-44588098D01*
X107216728Y-44395963D01*
X107089974Y-44221503D01*
X107089974Y-44221502D01*
X106937497Y-44069025D01*
X106763036Y-43942271D01*
X106570899Y-43844372D01*
X106365805Y-43777733D01*
X106295000Y-43766518D01*
X106295000Y-44796290D01*
X106274661Y-44784548D01*
X106123333Y-44744000D01*
X105966667Y-44744000D01*
X105815339Y-44784548D01*
X105795000Y-44796290D01*
X105795000Y-43766518D01*
X105794999Y-43766518D01*
X105724194Y-43777733D01*
X105519100Y-43844372D01*
X105326963Y-43942271D01*
X105152506Y-44069022D01*
X105010420Y-44211108D01*
X104949097Y-44244592D01*
X104879405Y-44239608D01*
X104823472Y-44197736D01*
X104810356Y-44175828D01*
X104809816Y-44174670D01*
X104809812Y-44174663D01*
X104717712Y-44025344D01*
X104593656Y-43901288D01*
X104444334Y-43809186D01*
X104277797Y-43754001D01*
X104277795Y-43754000D01*
X104175010Y-43743500D01*
X102834998Y-43743500D01*
X102834981Y-43743501D01*
X102732203Y-43754000D01*
X102732200Y-43754001D01*
X102565668Y-43809185D01*
X102565663Y-43809187D01*
X102416342Y-43901289D01*
X102292289Y-44025342D01*
X102200187Y-44174663D01*
X102200185Y-44174668D01*
X102176437Y-44246336D01*
X102145001Y-44341203D01*
X102145001Y-44341204D01*
X102145000Y-44341204D01*
X102134500Y-44443983D01*
X96766794Y-44443983D01*
X96756054Y-44403900D01*
X96663224Y-44179788D01*
X96541936Y-43969711D01*
X96418760Y-43809185D01*
X96394266Y-43777263D01*
X96394260Y-43777256D01*
X96324137Y-43707133D01*
X112704500Y-43707133D01*
X112704500Y-43922866D01*
X112730529Y-44087203D01*
X112738246Y-44135926D01*
X112804908Y-44341089D01*
X112902843Y-44533299D01*
X113029641Y-44707821D01*
X113029643Y-44707823D01*
X113171624Y-44849804D01*
X113205109Y-44911127D01*
X113200125Y-44980819D01*
X113158253Y-45036752D01*
X113136360Y-45049861D01*
X113135677Y-45050179D01*
X112986342Y-45142289D01*
X112862289Y-45266342D01*
X112770187Y-45415663D01*
X112770185Y-45415668D01*
X112763937Y-45434523D01*
X112715001Y-45582203D01*
X112715001Y-45582204D01*
X112715000Y-45582204D01*
X112704500Y-45684983D01*
X112704500Y-47025001D01*
X112704501Y-47025018D01*
X112715000Y-47127796D01*
X112715001Y-47127799D01*
X112770185Y-47294331D01*
X112770186Y-47294334D01*
X112862288Y-47443656D01*
X112986344Y-47567712D01*
X113135666Y-47659814D01*
X113302203Y-47714999D01*
X113404991Y-47725500D01*
X115195008Y-47725499D01*
X115297797Y-47714999D01*
X115464334Y-47659814D01*
X115613656Y-47567712D01*
X115737712Y-47443656D01*
X115829814Y-47294334D01*
X115884999Y-47127797D01*
X115895500Y-47025009D01*
X115895499Y-45684992D01*
X115894153Y-45671820D01*
X115884999Y-45582203D01*
X115884998Y-45582200D01*
X115878012Y-45561118D01*
X115829814Y-45415666D01*
X115737712Y-45266344D01*
X115613656Y-45142288D01*
X115464334Y-45050186D01*
X115464326Y-45050181D01*
X115463645Y-45049864D01*
X115463256Y-45049521D01*
X115458187Y-45046395D01*
X115458721Y-45045528D01*
X115411208Y-45003688D01*
X115392060Y-44936494D01*
X115412280Y-44869614D01*
X115428366Y-44849813D01*
X115526001Y-44752179D01*
X123471000Y-44752179D01*
X123471000Y-44835000D01*
X124298291Y-44835000D01*
X124286548Y-44855339D01*
X124246000Y-45006667D01*
X124246000Y-45163333D01*
X124286548Y-45314661D01*
X124298291Y-45335000D01*
X123471000Y-45335000D01*
X123471000Y-45417820D01*
X123504734Y-45630809D01*
X123571372Y-45835901D01*
X123669271Y-46028036D01*
X123796025Y-46202496D01*
X123796025Y-46202497D01*
X123948502Y-46354974D01*
X124122963Y-46481728D01*
X124315098Y-46579627D01*
X124520190Y-46646266D01*
X124591000Y-46657481D01*
X124591000Y-45627709D01*
X124611339Y-45639452D01*
X124762667Y-45680000D01*
X124919333Y-45680000D01*
X125070661Y-45639452D01*
X125091000Y-45627709D01*
X125091000Y-46657480D01*
X125161809Y-46646266D01*
X125366901Y-46579627D01*
X125559036Y-46481728D01*
X125733493Y-46354977D01*
X125875578Y-46212892D01*
X125936901Y-46179407D01*
X126006593Y-46184391D01*
X126062527Y-46226262D01*
X126075640Y-46248165D01*
X126076181Y-46249325D01*
X126076185Y-46249331D01*
X126076186Y-46249334D01*
X126168288Y-46398656D01*
X126292344Y-46522712D01*
X126441666Y-46614814D01*
X126608203Y-46669999D01*
X126710991Y-46680500D01*
X128051008Y-46680499D01*
X128153797Y-46669999D01*
X128320334Y-46614814D01*
X128469656Y-46522712D01*
X128593712Y-46398656D01*
X128685814Y-46249334D01*
X128740999Y-46082797D01*
X128751500Y-45980009D01*
X128751499Y-44189992D01*
X128749933Y-44174666D01*
X128740999Y-44087203D01*
X128740998Y-44087200D01*
X128710199Y-43994255D01*
X128685814Y-43920666D01*
X128593712Y-43771344D01*
X128469656Y-43647288D01*
X128320334Y-43555186D01*
X128153797Y-43500001D01*
X128153795Y-43500000D01*
X128051010Y-43489500D01*
X126710998Y-43489500D01*
X126710981Y-43489501D01*
X126608203Y-43500000D01*
X126608200Y-43500001D01*
X126441668Y-43555185D01*
X126441663Y-43555187D01*
X126292342Y-43647289D01*
X126168289Y-43771342D01*
X126076182Y-43920672D01*
X126075638Y-43921840D01*
X126075051Y-43922505D01*
X126072395Y-43926813D01*
X126071658Y-43926358D01*
X126029461Y-43974275D01*
X125962266Y-43993422D01*
X125895387Y-43973201D01*
X125875579Y-43957107D01*
X125733497Y-43815025D01*
X125559036Y-43688271D01*
X125366899Y-43590372D01*
X125161805Y-43523733D01*
X125091000Y-43512518D01*
X125091000Y-44542290D01*
X125070661Y-44530548D01*
X124919333Y-44490000D01*
X124762667Y-44490000D01*
X124611339Y-44530548D01*
X124591000Y-44542290D01*
X124591000Y-43512518D01*
X124590999Y-43512518D01*
X124520194Y-43523733D01*
X124315100Y-43590372D01*
X124122963Y-43688271D01*
X123948503Y-43815025D01*
X123948502Y-43815025D01*
X123796025Y-43967502D01*
X123796025Y-43967503D01*
X123669271Y-44141963D01*
X123571372Y-44334098D01*
X123504734Y-44539190D01*
X123471000Y-44752179D01*
X115526001Y-44752179D01*
X115570359Y-44707821D01*
X115697157Y-44533299D01*
X115795092Y-44341089D01*
X115861754Y-44135926D01*
X115880289Y-44018898D01*
X115895500Y-43922866D01*
X115895500Y-43707133D01*
X115864675Y-43512518D01*
X115861754Y-43494074D01*
X115795092Y-43288911D01*
X115697157Y-43096701D01*
X115570359Y-42922179D01*
X115417821Y-42769641D01*
X115243299Y-42642843D01*
X115051262Y-42544996D01*
X150197435Y-42544996D01*
X150197435Y-42545003D01*
X150217630Y-42724249D01*
X150217631Y-42724254D01*
X150277211Y-42894523D01*
X150373184Y-43047262D01*
X150373185Y-43047263D01*
X150418241Y-43092320D01*
X150451725Y-43153643D01*
X150446740Y-43223335D01*
X150418241Y-43267680D01*
X150373184Y-43312737D01*
X150277211Y-43465476D01*
X150217631Y-43635745D01*
X150217630Y-43635750D01*
X150197435Y-43814996D01*
X150197435Y-43815003D01*
X150217630Y-43994249D01*
X150217631Y-43994254D01*
X150277211Y-44164523D01*
X150373184Y-44317262D01*
X150373185Y-44317263D01*
X150418241Y-44362320D01*
X150451725Y-44423643D01*
X150446740Y-44493335D01*
X150418241Y-44537680D01*
X150373184Y-44582737D01*
X150277211Y-44735476D01*
X150217631Y-44905745D01*
X150217630Y-44905750D01*
X150197435Y-45084996D01*
X150197435Y-45085003D01*
X150217630Y-45264249D01*
X150217631Y-45264254D01*
X150277211Y-45434523D01*
X150334737Y-45526074D01*
X150373184Y-45587262D01*
X150500738Y-45714816D01*
X150653478Y-45810789D01*
X150823745Y-45870368D01*
X150910669Y-45880161D01*
X150975080Y-45907226D01*
X150984465Y-45915700D01*
X156462181Y-51393416D01*
X156495666Y-51454739D01*
X156498500Y-51481097D01*
X156498500Y-56694587D01*
X156478815Y-56761626D01*
X156471450Y-56771896D01*
X156469186Y-56774734D01*
X156373211Y-56927476D01*
X156313631Y-57097745D01*
X156313630Y-57097750D01*
X156293435Y-57276996D01*
X156293435Y-57277003D01*
X156313630Y-57456249D01*
X156313631Y-57456254D01*
X156373211Y-57626523D01*
X156469184Y-57779262D01*
X156596738Y-57906816D01*
X156605135Y-57912092D01*
X156720619Y-57984656D01*
X156749478Y-58002789D01*
X156919745Y-58062368D01*
X156919750Y-58062369D01*
X157078716Y-58080280D01*
X157094508Y-58086915D01*
X157098232Y-58084523D01*
X157119284Y-58080280D01*
X157278249Y-58062369D01*
X157278252Y-58062368D01*
X157278255Y-58062368D01*
X157448522Y-58002789D01*
X157601262Y-57906816D01*
X157728816Y-57779262D01*
X157824789Y-57626522D01*
X157884368Y-57456255D01*
X157886709Y-57435478D01*
X157904565Y-57277003D01*
X157904565Y-57276996D01*
X157884369Y-57097750D01*
X157884368Y-57097745D01*
X157851518Y-57003866D01*
X157824789Y-56927478D01*
X157728816Y-56774738D01*
X157728814Y-56774736D01*
X157728813Y-56774734D01*
X157726550Y-56771896D01*
X157725659Y-56769715D01*
X157725111Y-56768842D01*
X157725264Y-56768745D01*
X157700144Y-56707209D01*
X157699500Y-56694587D01*
X157699500Y-51270059D01*
X157699501Y-51270046D01*
X157699501Y-51101945D01*
X157699501Y-51101943D01*
X157658577Y-50949215D01*
X157614845Y-50873470D01*
X157579520Y-50812284D01*
X157467716Y-50700480D01*
X157467715Y-50700479D01*
X157463385Y-50696149D01*
X157463374Y-50696139D01*
X151833700Y-45066465D01*
X151800215Y-45005142D01*
X151798163Y-44992686D01*
X151788368Y-44905745D01*
X151728789Y-44735478D01*
X151632816Y-44582738D01*
X151587758Y-44537680D01*
X151554274Y-44476358D01*
X151559258Y-44406666D01*
X151587759Y-44362319D01*
X151608989Y-44341089D01*
X151632816Y-44317262D01*
X151728789Y-44164522D01*
X151788368Y-43994255D01*
X151788369Y-43994249D01*
X151789665Y-43990546D01*
X151830387Y-43933770D01*
X151895339Y-43908022D01*
X151906707Y-43907500D01*
X166159422Y-43907500D01*
X166226461Y-43927185D01*
X166272216Y-43979989D01*
X166282780Y-44018898D01*
X166289001Y-44079797D01*
X166289001Y-44079799D01*
X166322134Y-44179785D01*
X166344186Y-44246334D01*
X166436288Y-44395656D01*
X166560344Y-44519712D01*
X166709666Y-44611814D01*
X166709668Y-44611814D01*
X166709669Y-44611815D01*
X166710348Y-44612132D01*
X166710735Y-44612473D01*
X166715813Y-44615605D01*
X166715277Y-44616472D01*
X166762787Y-44658304D01*
X166781939Y-44725498D01*
X166761723Y-44792379D01*
X166745625Y-44812195D01*
X166603640Y-44954180D01*
X166476843Y-45128700D01*
X166378909Y-45320908D01*
X166312245Y-45526077D01*
X166278500Y-45739133D01*
X166278500Y-45954866D01*
X166299888Y-46089901D01*
X166312246Y-46167926D01*
X166378908Y-46373089D01*
X166476843Y-46565299D01*
X166603641Y-46739821D01*
X166756179Y-46892359D01*
X166927720Y-47016991D01*
X166970385Y-47072321D01*
X166976364Y-47141935D01*
X166943758Y-47203730D01*
X166927720Y-47217627D01*
X166756503Y-47342024D01*
X166604025Y-47494502D01*
X166604025Y-47494503D01*
X166477271Y-47668963D01*
X166379372Y-47861098D01*
X166312733Y-48066190D01*
X166301519Y-48137000D01*
X167331291Y-48137000D01*
X167319548Y-48157339D01*
X167279000Y-48308667D01*
X167279000Y-48465333D01*
X167319548Y-48616661D01*
X167331291Y-48637000D01*
X166301519Y-48637000D01*
X166312733Y-48707809D01*
X166379372Y-48912901D01*
X166477271Y-49105036D01*
X166604025Y-49279496D01*
X166604025Y-49279497D01*
X166756502Y-49431974D01*
X166930963Y-49558728D01*
X167123098Y-49656627D01*
X167328190Y-49723265D01*
X167541180Y-49757000D01*
X167624000Y-49757000D01*
X167624000Y-48929709D01*
X167644339Y-48941452D01*
X167795667Y-48982000D01*
X167952333Y-48982000D01*
X168103661Y-48941452D01*
X168124000Y-48929709D01*
X168124000Y-49757000D01*
X168206820Y-49757000D01*
X168419809Y-49723265D01*
X168506181Y-49695202D01*
X168576023Y-49693207D01*
X168635856Y-49729287D01*
X168666684Y-49791988D01*
X168668500Y-49813133D01*
X168668500Y-52299902D01*
X168648815Y-52366941D01*
X168632181Y-52387583D01*
X168324582Y-52695181D01*
X168263259Y-52728666D01*
X168236901Y-52731500D01*
X166871998Y-52731500D01*
X166871981Y-52731501D01*
X166769203Y-52742000D01*
X166769200Y-52742001D01*
X166602668Y-52797185D01*
X166602663Y-52797187D01*
X166453342Y-52889289D01*
X166329289Y-53013342D01*
X166237187Y-53162663D01*
X166237185Y-53162668D01*
X166209349Y-53246670D01*
X166182001Y-53329203D01*
X166182001Y-53329204D01*
X166182000Y-53329204D01*
X166171500Y-53431983D01*
X166171500Y-54772001D01*
X166171501Y-54772018D01*
X166182000Y-54874796D01*
X166182001Y-54874799D01*
X166215474Y-54975813D01*
X166237186Y-55041334D01*
X166329288Y-55190656D01*
X166453344Y-55314712D01*
X166602666Y-55406814D01*
X166602668Y-55406814D01*
X166602669Y-55406815D01*
X166603348Y-55407132D01*
X166603735Y-55407473D01*
X166608813Y-55410605D01*
X166608277Y-55411472D01*
X166655787Y-55453304D01*
X166674939Y-55520498D01*
X166654723Y-55587379D01*
X166638625Y-55607195D01*
X166496640Y-55749180D01*
X166369843Y-55923700D01*
X166271909Y-56115908D01*
X166271908Y-56115910D01*
X166271908Y-56115911D01*
X166261161Y-56148988D01*
X166205245Y-56321077D01*
X166171500Y-56534133D01*
X166171500Y-56749866D01*
X166205245Y-56962922D01*
X166205246Y-56962926D01*
X166271908Y-57168089D01*
X166369843Y-57360299D01*
X166496641Y-57534821D01*
X166649179Y-57687359D01*
X166788832Y-57788823D01*
X166820720Y-57811991D01*
X166863385Y-57867321D01*
X166869364Y-57936935D01*
X166836758Y-57998730D01*
X166820720Y-58012627D01*
X166649503Y-58137024D01*
X166497025Y-58289502D01*
X166497025Y-58289503D01*
X166370271Y-58463963D01*
X166272372Y-58656098D01*
X166205733Y-58861190D01*
X166194519Y-58932000D01*
X167224291Y-58932000D01*
X167212548Y-58952339D01*
X167172000Y-59103667D01*
X167172000Y-59260333D01*
X167212548Y-59411661D01*
X167224291Y-59432000D01*
X166194519Y-59432000D01*
X166205733Y-59502809D01*
X166272372Y-59707901D01*
X166370271Y-59900036D01*
X166497025Y-60074496D01*
X166497025Y-60074497D01*
X166649502Y-60226974D01*
X166823963Y-60353728D01*
X167016098Y-60451627D01*
X167221190Y-60518265D01*
X167434180Y-60552000D01*
X167517000Y-60552000D01*
X167517000Y-59724709D01*
X167537339Y-59736452D01*
X167688667Y-59777000D01*
X167845333Y-59777000D01*
X167996661Y-59736452D01*
X168017000Y-59724709D01*
X168017000Y-60552000D01*
X168099820Y-60552000D01*
X168312809Y-60518265D01*
X168517901Y-60451627D01*
X168710036Y-60353728D01*
X168884496Y-60226974D01*
X168884497Y-60226974D01*
X169036974Y-60074497D01*
X169036974Y-60074496D01*
X169163728Y-59900036D01*
X169261627Y-59707901D01*
X169328266Y-59502809D01*
X169339481Y-59432000D01*
X168309709Y-59432000D01*
X168321452Y-59411661D01*
X168362000Y-59260333D01*
X168362000Y-59103667D01*
X168321452Y-58952339D01*
X168309709Y-58932000D01*
X169339481Y-58932000D01*
X169328266Y-58861190D01*
X169261627Y-58656098D01*
X169163728Y-58463963D01*
X169036974Y-58289503D01*
X169036974Y-58289502D01*
X168884497Y-58137025D01*
X168713279Y-58012627D01*
X168670614Y-57957297D01*
X168664635Y-57887683D01*
X168697241Y-57825888D01*
X168713280Y-57811991D01*
X168745168Y-57788823D01*
X168884821Y-57687359D01*
X169037359Y-57534821D01*
X169164157Y-57360299D01*
X169262092Y-57168089D01*
X169328754Y-56962926D01*
X169344340Y-56864522D01*
X169362500Y-56749866D01*
X169362500Y-56534133D01*
X169336489Y-56369911D01*
X169328754Y-56321074D01*
X169262092Y-56115911D01*
X169164157Y-55923701D01*
X169037359Y-55749179D01*
X168895375Y-55607195D01*
X168861890Y-55545872D01*
X168866874Y-55476180D01*
X168908746Y-55420247D01*
X168930657Y-55407129D01*
X168931322Y-55406817D01*
X168931334Y-55406814D01*
X169080656Y-55314712D01*
X169204712Y-55190656D01*
X169296814Y-55041334D01*
X169351999Y-54874797D01*
X169362500Y-54772009D01*
X169362499Y-53431992D01*
X169361419Y-53421422D01*
X169374187Y-53352731D01*
X169397093Y-53321142D01*
X169749520Y-52968716D01*
X169828577Y-52831784D01*
X169869501Y-52679057D01*
X169869501Y-52520942D01*
X169869501Y-52513347D01*
X169869500Y-52513329D01*
X169869500Y-44878711D01*
X183149500Y-44878711D01*
X183149500Y-45121288D01*
X183181161Y-45361785D01*
X183243947Y-45596104D01*
X183332873Y-45810789D01*
X183336776Y-45820212D01*
X183458064Y-46030289D01*
X183458066Y-46030292D01*
X183458067Y-46030293D01*
X183605733Y-46222736D01*
X183605739Y-46222743D01*
X183777256Y-46394260D01*
X183777263Y-46394266D01*
X183890321Y-46481018D01*
X183969711Y-46541936D01*
X184179788Y-46663224D01*
X184403900Y-46756054D01*
X184638211Y-46818838D01*
X184818586Y-46842584D01*
X184878711Y-46850500D01*
X184878712Y-46850500D01*
X185121289Y-46850500D01*
X185169388Y-46844167D01*
X185361789Y-46818838D01*
X185596100Y-46756054D01*
X185820212Y-46663224D01*
X186030289Y-46541936D01*
X186222738Y-46394265D01*
X186394265Y-46222738D01*
X186541936Y-46030289D01*
X186663224Y-45820212D01*
X186756054Y-45596100D01*
X186818838Y-45361789D01*
X186850500Y-45121288D01*
X186850500Y-44878712D01*
X186818838Y-44638211D01*
X186756054Y-44403900D01*
X186663224Y-44179788D01*
X186541936Y-43969711D01*
X186418760Y-43809185D01*
X186394266Y-43777263D01*
X186394260Y-43777256D01*
X186222743Y-43605739D01*
X186222736Y-43605733D01*
X186030293Y-43458067D01*
X186030292Y-43458066D01*
X186030289Y-43458064D01*
X185820212Y-43336776D01*
X185820205Y-43336773D01*
X185596104Y-43243947D01*
X185361785Y-43181161D01*
X185121289Y-43149500D01*
X185121288Y-43149500D01*
X184878712Y-43149500D01*
X184878711Y-43149500D01*
X184638214Y-43181161D01*
X184403895Y-43243947D01*
X184179794Y-43336773D01*
X184179785Y-43336777D01*
X183969706Y-43458067D01*
X183777263Y-43605733D01*
X183777256Y-43605739D01*
X183605739Y-43777256D01*
X183605733Y-43777263D01*
X183458067Y-43969706D01*
X183336777Y-44179785D01*
X183336773Y-44179794D01*
X183243947Y-44403895D01*
X183181161Y-44638214D01*
X183149500Y-44878711D01*
X169869500Y-44878711D01*
X169869500Y-42373201D01*
X169869499Y-42373194D01*
X169868965Y-42371202D01*
X169868318Y-42368785D01*
X169828577Y-42220471D01*
X169799639Y-42170351D01*
X169749520Y-42083540D01*
X169637716Y-41971736D01*
X169637715Y-41971735D01*
X169633385Y-41967405D01*
X169633374Y-41967395D01*
X169441334Y-41775355D01*
X169441332Y-41775352D01*
X169322461Y-41656481D01*
X169322460Y-41656480D01*
X169235648Y-41606360D01*
X169235648Y-41606359D01*
X169235644Y-41606358D01*
X169185529Y-41577423D01*
X169032801Y-41536499D01*
X168874687Y-41536499D01*
X168867091Y-41536499D01*
X168867075Y-41536500D01*
X151490057Y-41536500D01*
X151331943Y-41536500D01*
X151179215Y-41577423D01*
X151179214Y-41577423D01*
X151179212Y-41577424D01*
X151179209Y-41577425D01*
X151129096Y-41606359D01*
X151129095Y-41606360D01*
X151092403Y-41627543D01*
X151042283Y-41656480D01*
X150984462Y-41714300D01*
X150923138Y-41747784D01*
X150910666Y-41749837D01*
X150823750Y-41759630D01*
X150653478Y-41819210D01*
X150500737Y-41915184D01*
X150373184Y-42042737D01*
X150277211Y-42195476D01*
X150217631Y-42365745D01*
X150217630Y-42365750D01*
X150197435Y-42544996D01*
X115051262Y-42544996D01*
X115051089Y-42544908D01*
X114845926Y-42478246D01*
X114845924Y-42478245D01*
X114845922Y-42478245D01*
X114632866Y-42444500D01*
X114632861Y-42444500D01*
X113967139Y-42444500D01*
X113967134Y-42444500D01*
X113754077Y-42478245D01*
X113548908Y-42544909D01*
X113356700Y-42642843D01*
X113257129Y-42715186D01*
X113182179Y-42769641D01*
X113182177Y-42769643D01*
X113182176Y-42769643D01*
X113029643Y-42922176D01*
X113029643Y-42922177D01*
X113029641Y-42922179D01*
X112975186Y-42997129D01*
X112902843Y-43096700D01*
X112804909Y-43288908D01*
X112738245Y-43494077D01*
X112704500Y-43707133D01*
X96324137Y-43707133D01*
X96222743Y-43605739D01*
X96222736Y-43605733D01*
X96030293Y-43458067D01*
X96030292Y-43458066D01*
X96030289Y-43458064D01*
X95820212Y-43336776D01*
X95820205Y-43336773D01*
X95596104Y-43243947D01*
X95361785Y-43181161D01*
X95121289Y-43149500D01*
X95121288Y-43149500D01*
X94878712Y-43149500D01*
X94878711Y-43149500D01*
X94638214Y-43181161D01*
X94403895Y-43243947D01*
X94179794Y-43336773D01*
X94179785Y-43336777D01*
X93969706Y-43458067D01*
X93777263Y-43605733D01*
X93777256Y-43605739D01*
X93605739Y-43777256D01*
X93605733Y-43777263D01*
X93458067Y-43969706D01*
X93336777Y-44179785D01*
X93336773Y-44179794D01*
X93243947Y-44403895D01*
X93181161Y-44638214D01*
X93149500Y-44878711D01*
X90500500Y-44878711D01*
X90500500Y-40756500D01*
X90520185Y-40689461D01*
X90572989Y-40643706D01*
X90624500Y-40632500D01*
X189375500Y-40632500D01*
X189442539Y-40652185D01*
G37*
%TD.AperFunction*%
%TD*%
M02*
