%TF.GenerationSoftware,KiCad,Pcbnew,8.0.8*%
%TF.CreationDate,2025-04-22T11:25:48-05:00*%
%TF.ProjectId,LastChance,4c617374-4368-4616-9e63-652e6b696361,rev?*%
%TF.SameCoordinates,Original*%
%TF.FileFunction,Legend,Bot*%
%TF.FilePolarity,Positive*%
%FSLAX46Y46*%
G04 Gerber Fmt 4.6, Leading zero omitted, Abs format (unit mm)*
G04 Created by KiCad (PCBNEW 8.0.8) date 2025-04-22 11:25:48*
%MOMM*%
%LPD*%
G01*
G04 APERTURE LIST*
%ADD10C,0.120000*%
G04 APERTURE END LIST*
D10*
%TO.C,C4*%
X185769000Y-95866000D02*
X181769000Y-95866000D01*
X186759000Y-96156000D02*
X180739000Y-96156000D01*
X186759000Y-101456000D02*
X186759000Y-96156000D01*
X181339000Y-96736000D02*
X180739000Y-96736000D01*
X181339000Y-98336000D02*
X181339000Y-96736000D01*
X185229000Y-97786000D02*
X185759000Y-97536000D01*
X185759000Y-100076000D02*
X185759000Y-97536000D01*
X185759000Y-97536000D02*
X186759000Y-97536000D01*
X185229000Y-99826000D02*
X185229000Y-97786000D01*
X185759000Y-97786000D02*
X186759000Y-97786000D01*
X180739000Y-98336000D02*
X181339000Y-98336000D01*
X181339000Y-99276000D02*
X180739000Y-99276000D01*
X181339000Y-100876000D02*
X181339000Y-99276000D01*
X185759000Y-100076000D02*
X185229000Y-99826000D01*
X185759000Y-99826000D02*
X186759000Y-99826000D01*
X186759000Y-100076000D02*
X185759000Y-100076000D01*
X180739000Y-100876000D02*
X181339000Y-100876000D01*
X180739000Y-96156000D02*
X180739000Y-101456000D01*
X180739000Y-101456000D02*
X186759000Y-101456000D01*
%TO.C,C2*%
X129051000Y-47085000D02*
X129051000Y-43085000D01*
X128761000Y-48075000D02*
X128761000Y-42055000D01*
X123461000Y-48075000D02*
X128761000Y-48075000D01*
X128181000Y-42655000D02*
X128181000Y-42055000D01*
X126581000Y-42655000D02*
X128181000Y-42655000D01*
X127131000Y-46545000D02*
X127381000Y-47075000D01*
X124841000Y-47075000D02*
X127381000Y-47075000D01*
X127381000Y-47075000D02*
X127381000Y-48075000D01*
X125091000Y-46545000D02*
X127131000Y-46545000D01*
X127131000Y-47075000D02*
X127131000Y-48075000D01*
X126581000Y-42055000D02*
X126581000Y-42655000D01*
X125641000Y-42655000D02*
X125641000Y-42055000D01*
X124041000Y-42655000D02*
X125641000Y-42655000D01*
X124841000Y-47075000D02*
X125091000Y-46545000D01*
X125091000Y-47075000D02*
X125091000Y-48075000D01*
X124841000Y-48075000D02*
X124841000Y-47075000D01*
X124041000Y-42055000D02*
X124041000Y-42655000D01*
X128761000Y-42055000D02*
X123461000Y-42055000D01*
X123461000Y-42055000D02*
X123461000Y-48075000D01*
%TO.C,C1*%
X129178000Y-58134000D02*
X129178000Y-54134000D01*
X128888000Y-59124000D02*
X128888000Y-53104000D01*
X123588000Y-59124000D02*
X128888000Y-59124000D01*
X128308000Y-53704000D02*
X128308000Y-53104000D01*
X126708000Y-53704000D02*
X128308000Y-53704000D01*
X127258000Y-57594000D02*
X127508000Y-58124000D01*
X124968000Y-58124000D02*
X127508000Y-58124000D01*
X127508000Y-58124000D02*
X127508000Y-59124000D01*
X125218000Y-57594000D02*
X127258000Y-57594000D01*
X127258000Y-58124000D02*
X127258000Y-59124000D01*
X126708000Y-53104000D02*
X126708000Y-53704000D01*
X125768000Y-53704000D02*
X125768000Y-53104000D01*
X124168000Y-53704000D02*
X125768000Y-53704000D01*
X124968000Y-58124000D02*
X125218000Y-57594000D01*
X125218000Y-58124000D02*
X125218000Y-59124000D01*
X124968000Y-59124000D02*
X124968000Y-58124000D01*
X124168000Y-53104000D02*
X124168000Y-53704000D01*
X128888000Y-53104000D02*
X123588000Y-53104000D01*
X123588000Y-53104000D02*
X123588000Y-59124000D01*
%TD*%
M02*
