%TF.GenerationSoftware,KiCad,Pcbnew,8.0.8*%
%TF.CreationDate,2025-03-29T16:04:27-05:00*%
%TF.ProjectId,ECE 445 PCBWay Order 4,45434520-3434-4352-9050-434257617920,rev?*%
%TF.SameCoordinates,Original*%
%TF.FileFunction,Copper,L2,Bot*%
%TF.FilePolarity,Positive*%
%FSLAX46Y46*%
G04 Gerber Fmt 4.6, Leading zero omitted, Abs format (unit mm)*
G04 Created by KiCad (PCBNEW 8.0.8) date 2025-03-29 16:04:27*
%MOMM*%
%LPD*%
G01*
G04 APERTURE LIST*
G04 Aperture macros list*
%AMRoundRect*
0 Rectangle with rounded corners*
0 $1 Rounding radius*
0 $2 $3 $4 $5 $6 $7 $8 $9 X,Y pos of 4 corners*
0 Add a 4 corners polygon primitive as box body*
4,1,4,$2,$3,$4,$5,$6,$7,$8,$9,$2,$3,0*
0 Add four circle primitives for the rounded corners*
1,1,$1+$1,$2,$3*
1,1,$1+$1,$4,$5*
1,1,$1+$1,$6,$7*
1,1,$1+$1,$8,$9*
0 Add four rect primitives between the rounded corners*
20,1,$1+$1,$2,$3,$4,$5,0*
20,1,$1+$1,$4,$5,$6,$7,0*
20,1,$1+$1,$6,$7,$8,$9,0*
20,1,$1+$1,$8,$9,$2,$3,0*%
G04 Aperture macros list end*
%TA.AperFunction,ComponentPad*%
%ADD10RoundRect,0.250000X-0.620000X-0.845000X0.620000X-0.845000X0.620000X0.845000X-0.620000X0.845000X0*%
%TD*%
%TA.AperFunction,ComponentPad*%
%ADD11O,1.740000X2.190000*%
%TD*%
%TA.AperFunction,ComponentPad*%
%ADD12C,1.879600*%
%TD*%
%TA.AperFunction,ComponentPad*%
%ADD13R,1.879600X1.879600*%
%TD*%
%TA.AperFunction,ComponentPad*%
%ADD14C,1.778000*%
%TD*%
%TA.AperFunction,HeatsinkPad*%
%ADD15C,0.600000*%
%TD*%
%TA.AperFunction,ComponentPad*%
%ADD16R,1.298000X1.298000*%
%TD*%
%TA.AperFunction,ComponentPad*%
%ADD17C,1.298000*%
%TD*%
%TA.AperFunction,ComponentPad*%
%ADD18RoundRect,0.250000X0.845000X-0.620000X0.845000X0.620000X-0.845000X0.620000X-0.845000X-0.620000X0*%
%TD*%
%TA.AperFunction,ComponentPad*%
%ADD19O,2.190000X1.740000*%
%TD*%
%TA.AperFunction,ComponentPad*%
%ADD20RoundRect,0.250000X-0.845000X0.620000X-0.845000X-0.620000X0.845000X-0.620000X0.845000X0.620000X0*%
%TD*%
%TA.AperFunction,HeatsinkPad*%
%ADD21O,1.200000X1.900000*%
%TD*%
%TA.AperFunction,HeatsinkPad*%
%ADD22C,1.450000*%
%TD*%
%TA.AperFunction,ViaPad*%
%ADD23C,0.600000*%
%TD*%
%TA.AperFunction,Conductor*%
%ADD24C,0.200000*%
%TD*%
%TA.AperFunction,Conductor*%
%ADD25C,0.500000*%
%TD*%
G04 APERTURE END LIST*
D10*
%TO.P,J14,1,Pin_1*%
%TO.N,Net-(J14-Pin_1)*%
X135890000Y-83312000D03*
D11*
%TO.P,J14,2,Pin_2*%
%TO.N,+3.3V*%
X138430000Y-83312000D03*
%TD*%
D12*
%TO.P,U6,3,OUT*%
%TO.N,+3.3V*%
X105029000Y-80137000D03*
%TO.P,U6,2,GND*%
%TO.N,GND*%
X105029000Y-82677000D03*
D13*
%TO.P,U6,1,IN*%
%TO.N,+5V*%
X105029000Y-85217000D03*
%TD*%
D14*
%TO.P,U5,1,INPUT*%
%TO.N,Net-(J3-Pin_1)*%
X105000000Y-100000000D03*
%TO.P,U5,2,GROUND*%
%TO.N,GND*%
X105000000Y-97460000D03*
%TO.P,U5,3,OUTPUT*%
%TO.N,+5V*%
X105000000Y-94920000D03*
%TD*%
D15*
%TO.P,U1,39,GND*%
%TO.N,GND*%
X147060000Y-48041000D03*
X147060000Y-49441000D03*
X147760000Y-47341000D03*
X147760000Y-48741000D03*
X147760000Y-50141000D03*
X148435000Y-48041000D03*
X148435000Y-49441000D03*
X149160000Y-47341000D03*
X149160000Y-48741000D03*
X149160000Y-50141000D03*
X149860000Y-48041000D03*
X149860000Y-49441000D03*
%TD*%
D16*
%TO.P,Q1,1*%
%TO.N,GND*%
X134747000Y-74041000D03*
D17*
%TO.P,Q1,2*%
%TO.N,Net-(Q1-Pad2)*%
X137287000Y-74041000D03*
%TO.P,Q1,3*%
%TO.N,Net-(J14-Pin_1)*%
X139827000Y-74041000D03*
%TD*%
D18*
%TO.P,J15,1,Pin_1*%
%TO.N,Net-(J15-Pin_1)*%
X184678000Y-76454000D03*
D19*
%TO.P,J15,2,Pin_2*%
%TO.N,GND*%
X184678000Y-73914000D03*
%TD*%
D10*
%TO.P,J13,1,Pin_1*%
%TO.N,/Servo Signal 3*%
X154686000Y-73279000D03*
D11*
%TO.P,J13,2,Pin_2*%
%TO.N,+5V*%
X157226000Y-73279000D03*
%TO.P,J13,3,Pin_3*%
%TO.N,GND*%
X159766000Y-73279000D03*
%TD*%
D10*
%TO.P,J12,1,Pin_1*%
%TO.N,/Servo Signal 2*%
X154432000Y-85471000D03*
D11*
%TO.P,J12,2,Pin_2*%
%TO.N,+5V*%
X156972000Y-85471000D03*
%TO.P,J12,3,Pin_3*%
%TO.N,GND*%
X159512000Y-85471000D03*
%TD*%
D10*
%TO.P,J11,1,Pin_1*%
%TO.N,/Servo Signal 1*%
X154178000Y-98171000D03*
D11*
%TO.P,J11,2,Pin_2*%
%TO.N,+5V*%
X156718000Y-98171000D03*
%TO.P,J11,3,Pin_3*%
%TO.N,GND*%
X159258000Y-98171000D03*
%TD*%
D10*
%TO.P,J10,1,Pin_1*%
%TO.N,Net-(J10-Pin_1)*%
X183896000Y-87630000D03*
D11*
%TO.P,J10,2,Pin_2*%
%TO.N,GND*%
X186436000Y-87630000D03*
%TD*%
D10*
%TO.P,J9,1,Pin_1*%
%TO.N,Net-(J9-Pin_1)*%
X183388000Y-107442000D03*
D11*
%TO.P,J9,2,Pin_2*%
%TO.N,GND*%
X185928000Y-107442000D03*
%TD*%
D10*
%TO.P,J8,1,Pin_1*%
%TO.N,Net-(J8-Pin_1)*%
X183896000Y-97282000D03*
D11*
%TO.P,J8,2,Pin_2*%
%TO.N,GND*%
X186436000Y-97282000D03*
%TD*%
D10*
%TO.P,J7,1,Pin_1*%
%TO.N,Net-(J7-Pin_1)*%
X183261000Y-119761000D03*
D11*
%TO.P,J7,2,Pin_2*%
%TO.N,GND*%
X185801000Y-119761000D03*
%TD*%
D18*
%TO.P,J6,1,Pin_1*%
%TO.N,Net-(J6-Pin_1)*%
X182499000Y-46736000D03*
D19*
%TO.P,J6,2,Pin_2*%
%TO.N,GND*%
X182499000Y-44196000D03*
%TD*%
D18*
%TO.P,J5,1,Pin_1*%
%TO.N,Net-(J5-Pin_1)*%
X184678000Y-66454000D03*
D19*
%TO.P,J5,2,Pin_2*%
%TO.N,GND*%
X184678000Y-63914000D03*
%TD*%
D18*
%TO.P,J4,1,Pin_1*%
%TO.N,Net-(J4-Pin_1)*%
X181737000Y-56769000D03*
D19*
%TO.P,J4,2,Pin_2*%
%TO.N,GND*%
X181737000Y-54229000D03*
%TD*%
D20*
%TO.P,J3,1,Pin_1*%
%TO.N,Net-(J3-Pin_1)*%
X105000000Y-107188000D03*
D19*
%TO.P,J3,2,Pin_2*%
%TO.N,GND*%
X105000000Y-109728000D03*
%TD*%
D21*
%TO.P,J2,6,Shield*%
%TO.N,GND*%
X146500000Y-136779000D03*
D22*
X147500000Y-134079000D03*
X152500000Y-134079000D03*
D21*
X153500000Y-136779000D03*
%TD*%
D10*
%TO.P,J1,1,Pin_1*%
%TO.N,+3.3V*%
X109347000Y-67056000D03*
D11*
%TO.P,J1,2,Pin_2*%
%TO.N,GND*%
X111887000Y-67056000D03*
%TO.P,J1,3,Pin_3*%
%TO.N,/Signal +*%
X114427000Y-67056000D03*
%TO.P,J1,4,Pin_4*%
%TO.N,/Singal -*%
X116967000Y-67056000D03*
%TD*%
D23*
%TO.N,/Servo Signal 2*%
X189738000Y-44196000D03*
X158710000Y-42291000D03*
X169418000Y-78867000D03*
X165227000Y-78994000D03*
%TO.N,/Servo Signal 1*%
X162814000Y-95631000D03*
X192278000Y-92964000D03*
X175895000Y-43180000D03*
X176276000Y-94107000D03*
%TO.N,+5V*%
X144780000Y-101092000D03*
X145923000Y-94234000D03*
X126492000Y-101092000D03*
%TO.N,+3.3V*%
X140208000Y-105664000D03*
X110744000Y-84582000D03*
X109601000Y-80264000D03*
%TO.N,GND*%
X147447000Y-111252000D03*
%TO.N,+3.3V*%
X146312000Y-111252000D03*
X158242000Y-122936000D03*
X166048500Y-114797000D03*
%TO.N,/TXD0*%
X157988000Y-63881000D03*
X158710000Y-44831000D03*
%TO.N,+5V*%
X156718000Y-103505000D03*
%TO.N,/Container 2 LED*%
X141210000Y-56261000D03*
X169291000Y-105283000D03*
%TO.N,/Container 1 LED*%
X163957000Y-67945000D03*
X170815000Y-92837000D03*
%TO.N,/Container 3 LED*%
X170942000Y-83058000D03*
X158710000Y-54991000D03*
%TO.N,/Servo Signal 3*%
X138176000Y-58420000D03*
X140462000Y-66675000D03*
X141210000Y-52451000D03*
%TO.N,/Bluetooth LED*%
X140716000Y-64770000D03*
X169164000Y-68580000D03*
%TO.N,GND*%
X144250000Y-58781000D03*
%TO.N,+3.3V*%
X134501000Y-53467000D03*
%TO.N,/Singal -*%
X110871000Y-59563000D03*
%TD*%
D24*
%TO.N,/Servo Signal 2*%
X169291000Y-78994000D02*
X169418000Y-78867000D01*
X165227000Y-78994000D02*
X169291000Y-78994000D01*
X189738000Y-44196000D02*
X187833000Y-42291000D01*
X187833000Y-42291000D02*
X158710000Y-42291000D01*
%TO.N,/Servo Signal 1*%
X176276000Y-94107000D02*
X164338000Y-94107000D01*
X192278000Y-52095370D02*
X192278000Y-92964000D01*
X183208630Y-43026000D02*
X192278000Y-52095370D01*
X175895000Y-43180000D02*
X176049000Y-43026000D01*
X176049000Y-43026000D02*
X183208630Y-43026000D01*
X164338000Y-94107000D02*
X162814000Y-95631000D01*
D25*
%TO.N,+3.3V*%
X109347000Y-67056000D02*
X109347000Y-57023000D01*
X109347000Y-57023000D02*
X112903000Y-53467000D01*
X112903000Y-53467000D02*
X134501000Y-53467000D01*
%TO.N,+5V*%
X148209000Y-91948000D02*
X151257000Y-91948000D01*
X145923000Y-94234000D02*
X148209000Y-91948000D01*
X156972000Y-86233000D02*
X156972000Y-85471000D01*
X126492000Y-101092000D02*
X144780000Y-101092000D01*
X151257000Y-91948000D02*
X156972000Y-86233000D01*
%TO.N,+3.3V*%
X145796000Y-111252000D02*
X146312000Y-111252000D01*
X140208000Y-105664000D02*
X145796000Y-111252000D01*
X109601000Y-80264000D02*
X110236000Y-80899000D01*
X110236000Y-80899000D02*
X110236000Y-84074000D01*
X110236000Y-84074000D02*
X110744000Y-84582000D01*
D24*
%TO.N,GND*%
X105000000Y-109728000D02*
X107124000Y-111852000D01*
X146847000Y-111852000D02*
X147447000Y-111252000D01*
X107124000Y-111852000D02*
X146847000Y-111852000D01*
D25*
%TO.N,+3.3V*%
X162295000Y-114797000D02*
X155956000Y-108458000D01*
X166048500Y-114797000D02*
X162295000Y-114797000D01*
X155956000Y-108458000D02*
X149106000Y-108458000D01*
X149106000Y-108458000D02*
X146312000Y-111252000D01*
X158242000Y-122936000D02*
X166048500Y-115129500D01*
X166048500Y-115129500D02*
X166048500Y-114797000D01*
D24*
%TO.N,/TXD0*%
X157988000Y-63881000D02*
X157988000Y-45553000D01*
X157988000Y-45553000D02*
X158710000Y-44831000D01*
%TO.N,GND*%
X159258000Y-98171000D02*
X176366744Y-98171000D01*
X176366744Y-98171000D02*
X185637744Y-107442000D01*
X185637744Y-107442000D02*
X185928000Y-107442000D01*
X159512000Y-85471000D02*
X159512000Y-73533000D01*
X159512000Y-73533000D02*
X159766000Y-73279000D01*
X159512000Y-85471000D02*
X159512000Y-97917000D01*
X159512000Y-97917000D02*
X159258000Y-98171000D01*
D25*
%TO.N,+5V*%
X156718000Y-98171000D02*
X156718000Y-103505000D01*
X156972000Y-85471000D02*
X156972000Y-85598000D01*
X156972000Y-85598000D02*
X156718000Y-85852000D01*
X156718000Y-85852000D02*
X156718000Y-98171000D01*
X157226000Y-73279000D02*
X157226000Y-85217000D01*
X157226000Y-85217000D02*
X156972000Y-85471000D01*
D24*
%TO.N,/Container 2 LED*%
X124968000Y-78486000D02*
X124968000Y-73025000D01*
X141210000Y-56783000D02*
X141210000Y-56261000D01*
X124968000Y-73025000D02*
X141210000Y-56783000D01*
X169291000Y-105283000D02*
X151765000Y-105283000D01*
X151765000Y-105283000D02*
X124968000Y-78486000D01*
%TO.N,/Container 1 LED*%
X170815000Y-92837000D02*
X170815000Y-92202000D01*
X163957000Y-85344000D02*
X163957000Y-67945000D01*
X170815000Y-92202000D02*
X163957000Y-85344000D01*
%TO.N,/Container 3 LED*%
X170942000Y-58039000D02*
X167894000Y-54991000D01*
X170942000Y-83058000D02*
X170942000Y-58039000D01*
X167894000Y-54991000D02*
X158710000Y-54991000D01*
%TO.N,GND*%
X186436000Y-87630000D02*
X186436000Y-75672000D01*
X186436000Y-75672000D02*
X184678000Y-73914000D01*
X186436000Y-97282000D02*
X186436000Y-87630000D01*
X185928000Y-107442000D02*
X185928000Y-97790000D01*
X185928000Y-97790000D02*
X186436000Y-97282000D01*
X185801000Y-119761000D02*
X185801000Y-107569000D01*
X185801000Y-107569000D02*
X185928000Y-107442000D01*
%TO.N,/Servo Signal 3*%
X138176000Y-55485000D02*
X141210000Y-52451000D01*
X154686000Y-73279000D02*
X147066000Y-73279000D01*
X138176000Y-58420000D02*
X138176000Y-55485000D01*
X147066000Y-73279000D02*
X140462000Y-66675000D01*
%TO.N,/Bluetooth LED*%
X165354000Y-64770000D02*
X140716000Y-64770000D01*
X169164000Y-68580000D02*
X165354000Y-64770000D01*
%TO.N,GND*%
X184678000Y-63914000D02*
X186073000Y-65309000D01*
X186073000Y-72519000D02*
X184678000Y-73914000D01*
X186073000Y-65309000D02*
X186073000Y-72519000D01*
X184678000Y-63914000D02*
X184678000Y-57170000D01*
X184678000Y-57170000D02*
X181737000Y-54229000D01*
X181737000Y-54229000D02*
X181104000Y-53596000D01*
X181104000Y-45591000D02*
X182499000Y-44196000D01*
X181104000Y-53596000D02*
X181104000Y-45591000D01*
X134747000Y-74041000D02*
X134747000Y-68284000D01*
X134747000Y-68284000D02*
X144250000Y-58781000D01*
%TO.N,Net-(J14-Pin_1)*%
X139827000Y-74041000D02*
X139827000Y-79375000D01*
X139827000Y-79375000D02*
X135890000Y-83312000D01*
%TO.N,GND*%
X146500000Y-136779000D02*
X146500000Y-135079000D01*
X146500000Y-135079000D02*
X147500000Y-134079000D01*
X152500000Y-134079000D02*
X152500000Y-135779000D01*
X152500000Y-135779000D02*
X153500000Y-136779000D01*
%TO.N,/Singal -*%
X116967000Y-65659000D02*
X110871000Y-59563000D01*
X116967000Y-67056000D02*
X116967000Y-65659000D01*
%TD*%
%TA.AperFunction,Conductor*%
%TO.N,GND*%
G36*
X110302703Y-60127227D02*
G01*
X110309181Y-60133259D01*
X110368738Y-60192816D01*
X110521478Y-60288789D01*
X110691745Y-60348368D01*
X110778669Y-60358161D01*
X110843080Y-60385226D01*
X110852465Y-60393700D01*
X116071611Y-65612846D01*
X116105096Y-65674169D01*
X116100112Y-65743861D01*
X116071612Y-65788208D01*
X115921640Y-65938180D01*
X115797318Y-66109294D01*
X115741988Y-66151959D01*
X115672374Y-66157938D01*
X115610579Y-66125332D01*
X115596682Y-66109294D01*
X115574435Y-66078674D01*
X115472359Y-65938179D01*
X115319821Y-65785641D01*
X115145299Y-65658843D01*
X114953089Y-65560908D01*
X114747926Y-65494246D01*
X114747924Y-65494245D01*
X114747922Y-65494245D01*
X114534866Y-65460500D01*
X114534861Y-65460500D01*
X114319139Y-65460500D01*
X114319134Y-65460500D01*
X114106077Y-65494245D01*
X113900908Y-65560909D01*
X113708700Y-65658843D01*
X113632773Y-65714008D01*
X113534179Y-65785641D01*
X113534177Y-65785643D01*
X113534176Y-65785643D01*
X113381642Y-65938177D01*
X113257008Y-66109720D01*
X113201677Y-66152385D01*
X113132064Y-66158364D01*
X113070269Y-66125758D01*
X113056372Y-66109720D01*
X112931974Y-65938503D01*
X112931974Y-65938502D01*
X112779497Y-65786025D01*
X112605036Y-65659271D01*
X112412899Y-65561372D01*
X112207805Y-65494733D01*
X112137000Y-65483518D01*
X112137000Y-66513290D01*
X112116661Y-66501548D01*
X111965333Y-66461000D01*
X111808667Y-66461000D01*
X111657339Y-66501548D01*
X111637000Y-66513290D01*
X111637000Y-65483518D01*
X111636999Y-65483518D01*
X111566194Y-65494733D01*
X111361100Y-65561372D01*
X111168963Y-65659271D01*
X110994506Y-65786022D01*
X110852420Y-65928108D01*
X110791097Y-65961592D01*
X110721405Y-65956608D01*
X110665472Y-65914736D01*
X110652356Y-65892828D01*
X110651816Y-65891670D01*
X110650559Y-65889632D01*
X110559712Y-65742344D01*
X110435656Y-65618288D01*
X110342628Y-65560908D01*
X110286336Y-65526187D01*
X110286335Y-65526186D01*
X110286334Y-65526186D01*
X110182495Y-65491777D01*
X110125051Y-65452004D01*
X110098228Y-65387488D01*
X110097500Y-65374071D01*
X110097500Y-60220940D01*
X110117185Y-60153901D01*
X110169989Y-60108146D01*
X110239147Y-60098202D01*
X110302703Y-60127227D01*
G37*
%TD.AperFunction*%
%TA.AperFunction,Conductor*%
G36*
X199442539Y-40395185D02*
G01*
X199488294Y-40447989D01*
X199499500Y-40499500D01*
X199499500Y-139250500D01*
X199479815Y-139317539D01*
X199427011Y-139363294D01*
X199375500Y-139374500D01*
X100624500Y-139374500D01*
X100557461Y-139354815D01*
X100511706Y-139302011D01*
X100500500Y-139250500D01*
X100500500Y-134878711D01*
X103149500Y-134878711D01*
X103149500Y-135121288D01*
X103181161Y-135361785D01*
X103243947Y-135596104D01*
X103336773Y-135820205D01*
X103336776Y-135820212D01*
X103458064Y-136030289D01*
X103458066Y-136030292D01*
X103458067Y-136030293D01*
X103605733Y-136222736D01*
X103605739Y-136222743D01*
X103777256Y-136394260D01*
X103777262Y-136394265D01*
X103969711Y-136541936D01*
X104179788Y-136663224D01*
X104403900Y-136756054D01*
X104638211Y-136818838D01*
X104818586Y-136842584D01*
X104878711Y-136850500D01*
X104878712Y-136850500D01*
X105121289Y-136850500D01*
X105169388Y-136844167D01*
X105361789Y-136818838D01*
X105596100Y-136756054D01*
X105820212Y-136663224D01*
X106030289Y-136541936D01*
X106222738Y-136394265D01*
X106274575Y-136342428D01*
X145400000Y-136342428D01*
X145400000Y-136529000D01*
X146200000Y-136529000D01*
X146200000Y-137029000D01*
X145400000Y-137029000D01*
X145400000Y-137215571D01*
X145427085Y-137386584D01*
X145480591Y-137551257D01*
X145559195Y-137705524D01*
X145660967Y-137845602D01*
X145783397Y-137968032D01*
X145923475Y-138069804D01*
X146077744Y-138148408D01*
X146242415Y-138201914D01*
X146242414Y-138201914D01*
X146249999Y-138203115D01*
X146250000Y-138203114D01*
X146250000Y-137295988D01*
X146259940Y-137313205D01*
X146315795Y-137369060D01*
X146384204Y-137408556D01*
X146460504Y-137429000D01*
X146539496Y-137429000D01*
X146615796Y-137408556D01*
X146684205Y-137369060D01*
X146740060Y-137313205D01*
X146750000Y-137295988D01*
X146750000Y-138203115D01*
X146757584Y-138201914D01*
X146922255Y-138148408D01*
X147076524Y-138069804D01*
X147216602Y-137968032D01*
X147339032Y-137845602D01*
X147440804Y-137705524D01*
X147519408Y-137551257D01*
X147572914Y-137386584D01*
X147600000Y-137215571D01*
X147600000Y-137029000D01*
X146800000Y-137029000D01*
X146800000Y-136529000D01*
X147600000Y-136529000D01*
X147600000Y-136342428D01*
X147572914Y-136171415D01*
X147519408Y-136006742D01*
X147440804Y-135852475D01*
X147339032Y-135712397D01*
X147216602Y-135589967D01*
X147076522Y-135488194D01*
X147074414Y-135487120D01*
X147073755Y-135486498D01*
X147072373Y-135485651D01*
X147072551Y-135485360D01*
X147023619Y-135439146D01*
X147006824Y-135371325D01*
X147029362Y-135305190D01*
X147084077Y-135261739D01*
X147153598Y-135254767D01*
X147162804Y-135256861D01*
X147286465Y-135289996D01*
X147286472Y-135289997D01*
X147499999Y-135308679D01*
X147500001Y-135308679D01*
X147713527Y-135289997D01*
X147713537Y-135289995D01*
X147920567Y-135234522D01*
X147920576Y-135234518D01*
X148114839Y-135143933D01*
X148171621Y-135104173D01*
X147568173Y-134500725D01*
X147664044Y-134475037D01*
X147760956Y-134419084D01*
X147840084Y-134339956D01*
X147896037Y-134243044D01*
X147921725Y-134147172D01*
X148525173Y-134750621D01*
X148564933Y-134693839D01*
X148655518Y-134499576D01*
X148655522Y-134499567D01*
X148710995Y-134292537D01*
X148710997Y-134292527D01*
X148729679Y-134079000D01*
X148729679Y-134078999D01*
X151270321Y-134078999D01*
X151270321Y-134079000D01*
X151289002Y-134292527D01*
X151289004Y-134292537D01*
X151344477Y-134499567D01*
X151344481Y-134499576D01*
X151435066Y-134693838D01*
X151435067Y-134693840D01*
X151474825Y-134750620D01*
X151474825Y-134750621D01*
X152078274Y-134147171D01*
X152103963Y-134243044D01*
X152159916Y-134339956D01*
X152239044Y-134419084D01*
X152335956Y-134475037D01*
X152431827Y-134500725D01*
X151828377Y-135104173D01*
X151885161Y-135143933D01*
X152079423Y-135234518D01*
X152079432Y-135234522D01*
X152286462Y-135289995D01*
X152286472Y-135289997D01*
X152499999Y-135308679D01*
X152500001Y-135308679D01*
X152713527Y-135289997D01*
X152713533Y-135289996D01*
X152837195Y-135256861D01*
X152907045Y-135258524D01*
X152964908Y-135297686D01*
X152992412Y-135361915D01*
X152980826Y-135430817D01*
X152933827Y-135482517D01*
X152925591Y-135487117D01*
X152923479Y-135488193D01*
X152783397Y-135589967D01*
X152660967Y-135712397D01*
X152559195Y-135852475D01*
X152480591Y-136006742D01*
X152427085Y-136171415D01*
X152400000Y-136342428D01*
X152400000Y-136529000D01*
X153200000Y-136529000D01*
X153200000Y-137029000D01*
X152400000Y-137029000D01*
X152400000Y-137215571D01*
X152427085Y-137386584D01*
X152480591Y-137551257D01*
X152559195Y-137705524D01*
X152660967Y-137845602D01*
X152783397Y-137968032D01*
X152923475Y-138069804D01*
X153077744Y-138148408D01*
X153242415Y-138201914D01*
X153242414Y-138201914D01*
X153249999Y-138203115D01*
X153250000Y-138203114D01*
X153250000Y-137295988D01*
X153259940Y-137313205D01*
X153315795Y-137369060D01*
X153384204Y-137408556D01*
X153460504Y-137429000D01*
X153539496Y-137429000D01*
X153615796Y-137408556D01*
X153684205Y-137369060D01*
X153740060Y-137313205D01*
X153750000Y-137295988D01*
X153750000Y-138203115D01*
X153757584Y-138201914D01*
X153922255Y-138148408D01*
X154076524Y-138069804D01*
X154216602Y-137968032D01*
X154339032Y-137845602D01*
X154440804Y-137705524D01*
X154519408Y-137551257D01*
X154572914Y-137386584D01*
X154600000Y-137215571D01*
X154600000Y-137029000D01*
X153800000Y-137029000D01*
X153800000Y-136529000D01*
X154600000Y-136529000D01*
X154600000Y-136342428D01*
X154572914Y-136171415D01*
X154519408Y-136006742D01*
X154440804Y-135852475D01*
X154339032Y-135712397D01*
X154216602Y-135589967D01*
X154076524Y-135488195D01*
X153922257Y-135409591D01*
X153757589Y-135356087D01*
X153757581Y-135356085D01*
X153750000Y-135354884D01*
X153750000Y-136262011D01*
X153740060Y-136244795D01*
X153684205Y-136188940D01*
X153615796Y-136149444D01*
X153539496Y-136129000D01*
X153460504Y-136129000D01*
X153384204Y-136149444D01*
X153315795Y-136188940D01*
X153259940Y-136244795D01*
X153250000Y-136262011D01*
X153250000Y-135354884D01*
X153249999Y-135354884D01*
X153242418Y-135356085D01*
X153242407Y-135356088D01*
X153228169Y-135360714D01*
X153158328Y-135362706D01*
X153098497Y-135326623D01*
X153067671Y-135263921D01*
X153075639Y-135194507D01*
X153118733Y-135141206D01*
X153171621Y-135104173D01*
X152946159Y-134878711D01*
X193149500Y-134878711D01*
X193149500Y-135121288D01*
X193181161Y-135361785D01*
X193243947Y-135596104D01*
X193336773Y-135820205D01*
X193336776Y-135820212D01*
X193458064Y-136030289D01*
X193458066Y-136030292D01*
X193458067Y-136030293D01*
X193605733Y-136222736D01*
X193605739Y-136222743D01*
X193777256Y-136394260D01*
X193777262Y-136394265D01*
X193969711Y-136541936D01*
X194179788Y-136663224D01*
X194403900Y-136756054D01*
X194638211Y-136818838D01*
X194818586Y-136842584D01*
X194878711Y-136850500D01*
X194878712Y-136850500D01*
X195121289Y-136850500D01*
X195169388Y-136844167D01*
X195361789Y-136818838D01*
X195596100Y-136756054D01*
X195820212Y-136663224D01*
X196030289Y-136541936D01*
X196222738Y-136394265D01*
X196394265Y-136222738D01*
X196541936Y-136030289D01*
X196663224Y-135820212D01*
X196756054Y-135596100D01*
X196818838Y-135361789D01*
X196850500Y-135121288D01*
X196850500Y-134878712D01*
X196818838Y-134638211D01*
X196756054Y-134403900D01*
X196663224Y-134179788D01*
X196541936Y-133969711D01*
X196394265Y-133777262D01*
X196394260Y-133777256D01*
X196222743Y-133605739D01*
X196222736Y-133605733D01*
X196030293Y-133458067D01*
X196030292Y-133458066D01*
X196030289Y-133458064D01*
X195820212Y-133336776D01*
X195820205Y-133336773D01*
X195596104Y-133243947D01*
X195361785Y-133181161D01*
X195121289Y-133149500D01*
X195121288Y-133149500D01*
X194878712Y-133149500D01*
X194878711Y-133149500D01*
X194638214Y-133181161D01*
X194403895Y-133243947D01*
X194179794Y-133336773D01*
X194179785Y-133336777D01*
X193969706Y-133458067D01*
X193777263Y-133605733D01*
X193777256Y-133605739D01*
X193605739Y-133777256D01*
X193605733Y-133777263D01*
X193458067Y-133969706D01*
X193336777Y-134179785D01*
X193336773Y-134179794D01*
X193243947Y-134403895D01*
X193181161Y-134638214D01*
X193149500Y-134878711D01*
X152946159Y-134878711D01*
X152568173Y-134500725D01*
X152664044Y-134475037D01*
X152760956Y-134419084D01*
X152840084Y-134339956D01*
X152896037Y-134243044D01*
X152921725Y-134147172D01*
X153525173Y-134750621D01*
X153564933Y-134693839D01*
X153655518Y-134499576D01*
X153655522Y-134499567D01*
X153710995Y-134292537D01*
X153710997Y-134292527D01*
X153729679Y-134079000D01*
X153729679Y-134078999D01*
X153710997Y-133865472D01*
X153710995Y-133865462D01*
X153655522Y-133658432D01*
X153655518Y-133658423D01*
X153564933Y-133464162D01*
X153525173Y-133407378D01*
X152921725Y-134010826D01*
X152896037Y-133914956D01*
X152840084Y-133818044D01*
X152760956Y-133738916D01*
X152664044Y-133682963D01*
X152568171Y-133657274D01*
X153171621Y-133053825D01*
X153114840Y-133014067D01*
X153114838Y-133014066D01*
X152920576Y-132923481D01*
X152920567Y-132923477D01*
X152713537Y-132868004D01*
X152713527Y-132868002D01*
X152500001Y-132849321D01*
X152499999Y-132849321D01*
X152286472Y-132868002D01*
X152286462Y-132868004D01*
X152079432Y-132923477D01*
X152079423Y-132923481D01*
X151885158Y-133014068D01*
X151828378Y-133053824D01*
X152431828Y-133657274D01*
X152335956Y-133682963D01*
X152239044Y-133738916D01*
X152159916Y-133818044D01*
X152103963Y-133914956D01*
X152078274Y-134010828D01*
X151474824Y-133407378D01*
X151435068Y-133464158D01*
X151344481Y-133658423D01*
X151344477Y-133658432D01*
X151289004Y-133865462D01*
X151289002Y-133865472D01*
X151270321Y-134078999D01*
X148729679Y-134078999D01*
X148710997Y-133865472D01*
X148710995Y-133865462D01*
X148655522Y-133658432D01*
X148655518Y-133658423D01*
X148564933Y-133464162D01*
X148525173Y-133407378D01*
X147921725Y-134010826D01*
X147896037Y-133914956D01*
X147840084Y-133818044D01*
X147760956Y-133738916D01*
X147664044Y-133682963D01*
X147568171Y-133657274D01*
X148171621Y-133053825D01*
X148114840Y-133014067D01*
X148114838Y-133014066D01*
X147920576Y-132923481D01*
X147920567Y-132923477D01*
X147713537Y-132868004D01*
X147713527Y-132868002D01*
X147500001Y-132849321D01*
X147499999Y-132849321D01*
X147286472Y-132868002D01*
X147286462Y-132868004D01*
X147079432Y-132923477D01*
X147079423Y-132923481D01*
X146885158Y-133014068D01*
X146828378Y-133053824D01*
X147431828Y-133657274D01*
X147335956Y-133682963D01*
X147239044Y-133738916D01*
X147159916Y-133818044D01*
X147103963Y-133914956D01*
X147078274Y-134010828D01*
X146474824Y-133407378D01*
X146435068Y-133464158D01*
X146344481Y-133658423D01*
X146344477Y-133658432D01*
X146289004Y-133865462D01*
X146289002Y-133865472D01*
X146270321Y-134078999D01*
X146270321Y-134079000D01*
X146289002Y-134292527D01*
X146289004Y-134292537D01*
X146344477Y-134499567D01*
X146344481Y-134499576D01*
X146435066Y-134693838D01*
X146435067Y-134693840D01*
X146474825Y-134750620D01*
X146474825Y-134750621D01*
X147078274Y-134147171D01*
X147103963Y-134243044D01*
X147159916Y-134339956D01*
X147239044Y-134419084D01*
X147335956Y-134475037D01*
X147431827Y-134500725D01*
X146828377Y-135104173D01*
X146828377Y-135104174D01*
X146881267Y-135141207D01*
X146924892Y-135195783D01*
X146932086Y-135265281D01*
X146900564Y-135327636D01*
X146840334Y-135363051D01*
X146771825Y-135360713D01*
X146757589Y-135356087D01*
X146757581Y-135356085D01*
X146750000Y-135354884D01*
X146750000Y-136262011D01*
X146740060Y-136244795D01*
X146684205Y-136188940D01*
X146615796Y-136149444D01*
X146539496Y-136129000D01*
X146460504Y-136129000D01*
X146384204Y-136149444D01*
X146315795Y-136188940D01*
X146259940Y-136244795D01*
X146250000Y-136262011D01*
X146250000Y-135354884D01*
X146249999Y-135354884D01*
X146242418Y-135356085D01*
X146242410Y-135356087D01*
X146077742Y-135409591D01*
X145923475Y-135488195D01*
X145783397Y-135589967D01*
X145660967Y-135712397D01*
X145559195Y-135852475D01*
X145480591Y-136006742D01*
X145427085Y-136171415D01*
X145400000Y-136342428D01*
X106274575Y-136342428D01*
X106394265Y-136222738D01*
X106541936Y-136030289D01*
X106663224Y-135820212D01*
X106756054Y-135596100D01*
X106818838Y-135361789D01*
X106850500Y-135121288D01*
X106850500Y-134878712D01*
X106818838Y-134638211D01*
X106756054Y-134403900D01*
X106663224Y-134179788D01*
X106541936Y-133969711D01*
X106394265Y-133777262D01*
X106394260Y-133777256D01*
X106222743Y-133605739D01*
X106222736Y-133605733D01*
X106030293Y-133458067D01*
X106030292Y-133458066D01*
X106030289Y-133458064D01*
X105820212Y-133336776D01*
X105820205Y-133336773D01*
X105596104Y-133243947D01*
X105361785Y-133181161D01*
X105121289Y-133149500D01*
X105121288Y-133149500D01*
X104878712Y-133149500D01*
X104878711Y-133149500D01*
X104638214Y-133181161D01*
X104403895Y-133243947D01*
X104179794Y-133336773D01*
X104179785Y-133336777D01*
X103969706Y-133458067D01*
X103777263Y-133605733D01*
X103777256Y-133605739D01*
X103605739Y-133777256D01*
X103605733Y-133777263D01*
X103458067Y-133969706D01*
X103336777Y-134179785D01*
X103336773Y-134179794D01*
X103243947Y-134403895D01*
X103181161Y-134638214D01*
X103149500Y-134878711D01*
X100500500Y-134878711D01*
X100500500Y-106517983D01*
X103404500Y-106517983D01*
X103404500Y-107858001D01*
X103404501Y-107858018D01*
X103415000Y-107960796D01*
X103415001Y-107960799D01*
X103440252Y-108037000D01*
X103470186Y-108127334D01*
X103562288Y-108276656D01*
X103686344Y-108400712D01*
X103835666Y-108492814D01*
X103835667Y-108492814D01*
X103835670Y-108492816D01*
X103836828Y-108493356D01*
X103837488Y-108493937D01*
X103841813Y-108496605D01*
X103841357Y-108497343D01*
X103889268Y-108539527D01*
X103908422Y-108606720D01*
X103888208Y-108673601D01*
X103872108Y-108693420D01*
X103730022Y-108835506D01*
X103603271Y-109009963D01*
X103505372Y-109202098D01*
X103438733Y-109407190D01*
X103427519Y-109478000D01*
X104457291Y-109478000D01*
X104445548Y-109498339D01*
X104405000Y-109649667D01*
X104405000Y-109806333D01*
X104445548Y-109957661D01*
X104457291Y-109978000D01*
X103427519Y-109978000D01*
X103438733Y-110048809D01*
X103505372Y-110253901D01*
X103603271Y-110446036D01*
X103730025Y-110620496D01*
X103730025Y-110620497D01*
X103882502Y-110772974D01*
X104056963Y-110899728D01*
X104249098Y-110997627D01*
X104454190Y-111064265D01*
X104667180Y-111098000D01*
X104750000Y-111098000D01*
X104750000Y-110270709D01*
X104770339Y-110282452D01*
X104921667Y-110323000D01*
X105078333Y-110323000D01*
X105229661Y-110282452D01*
X105250000Y-110270709D01*
X105250000Y-111098000D01*
X105332820Y-111098000D01*
X105545809Y-111064265D01*
X105750901Y-110997627D01*
X105943036Y-110899728D01*
X106117496Y-110772974D01*
X106117497Y-110772974D01*
X106269974Y-110620497D01*
X106269974Y-110620496D01*
X106396728Y-110446036D01*
X106494627Y-110253901D01*
X106561266Y-110048809D01*
X106572481Y-109978000D01*
X105542709Y-109978000D01*
X105554452Y-109957661D01*
X105595000Y-109806333D01*
X105595000Y-109649667D01*
X105554452Y-109498339D01*
X105542709Y-109478000D01*
X106572481Y-109478000D01*
X106561266Y-109407190D01*
X106494627Y-109202098D01*
X106396728Y-109009963D01*
X106269974Y-108835503D01*
X106269974Y-108835502D01*
X106127892Y-108693420D01*
X106094407Y-108632097D01*
X106099391Y-108562405D01*
X106141263Y-108506472D01*
X106163177Y-108493353D01*
X106164323Y-108492817D01*
X106164334Y-108492814D01*
X106313656Y-108400712D01*
X106437712Y-108276656D01*
X106529814Y-108127334D01*
X106584999Y-107960797D01*
X106595500Y-107858009D01*
X106595499Y-106517992D01*
X106587961Y-106444204D01*
X106584999Y-106415203D01*
X106584998Y-106415200D01*
X106554944Y-106324503D01*
X106529814Y-106248666D01*
X106437712Y-106099344D01*
X106313656Y-105975288D01*
X106211349Y-105912185D01*
X106164336Y-105883187D01*
X106164331Y-105883185D01*
X106156931Y-105880733D01*
X105997797Y-105828001D01*
X105997795Y-105828000D01*
X105895010Y-105817500D01*
X104104998Y-105817500D01*
X104104981Y-105817501D01*
X104002203Y-105828000D01*
X104002200Y-105828001D01*
X103835668Y-105883185D01*
X103835663Y-105883187D01*
X103686342Y-105975289D01*
X103562289Y-106099342D01*
X103470187Y-106248663D01*
X103470185Y-106248668D01*
X103460575Y-106277670D01*
X103415001Y-106415203D01*
X103415001Y-106415204D01*
X103415000Y-106415204D01*
X103404500Y-106517983D01*
X100500500Y-106517983D01*
X100500500Y-105663996D01*
X139402435Y-105663996D01*
X139402435Y-105664003D01*
X139422630Y-105843249D01*
X139422631Y-105843254D01*
X139482211Y-106013523D01*
X139578184Y-106166262D01*
X139705738Y-106293816D01*
X139754576Y-106324503D01*
X139858478Y-106389789D01*
X139864754Y-106392811D01*
X139863867Y-106394651D01*
X139899940Y-106417307D01*
X145317580Y-111834948D01*
X145317584Y-111834951D01*
X145440498Y-111917080D01*
X145440511Y-111917087D01*
X145577082Y-111973656D01*
X145577087Y-111973658D01*
X145577091Y-111973658D01*
X145577092Y-111973659D01*
X145722079Y-112002500D01*
X145722082Y-112002500D01*
X145869917Y-112002500D01*
X146012028Y-112002500D01*
X146052983Y-112009458D01*
X146132745Y-112037368D01*
X146132750Y-112037369D01*
X146311996Y-112057565D01*
X146312000Y-112057565D01*
X146312004Y-112057565D01*
X146491249Y-112037369D01*
X146491252Y-112037368D01*
X146491255Y-112037368D01*
X146661522Y-111977789D01*
X146814262Y-111881816D01*
X146941816Y-111754262D01*
X147037789Y-111601522D01*
X147037790Y-111601518D01*
X147040811Y-111595246D01*
X147042655Y-111596134D01*
X147065305Y-111560061D01*
X149380549Y-109244819D01*
X149441872Y-109211334D01*
X149468230Y-109208500D01*
X155593770Y-109208500D01*
X155660809Y-109228185D01*
X155681451Y-109244819D01*
X161816586Y-115379954D01*
X161844639Y-115398697D01*
X161886723Y-115426816D01*
X161939505Y-115462084D01*
X161939507Y-115462085D01*
X161939511Y-115462087D01*
X162076082Y-115518656D01*
X162076087Y-115518658D01*
X162076091Y-115518658D01*
X162076092Y-115518659D01*
X162221079Y-115547500D01*
X162221082Y-115547500D01*
X162221083Y-115547500D01*
X162368918Y-115547500D01*
X164269771Y-115547500D01*
X164336810Y-115567185D01*
X164382565Y-115619989D01*
X164392509Y-115689147D01*
X164363484Y-115752703D01*
X164357452Y-115759181D01*
X157933939Y-122182692D01*
X157897872Y-122205359D01*
X157898753Y-122207188D01*
X157892483Y-122210207D01*
X157739737Y-122306184D01*
X157612184Y-122433737D01*
X157516211Y-122586476D01*
X157456631Y-122756745D01*
X157456630Y-122756750D01*
X157436435Y-122935996D01*
X157436435Y-122936003D01*
X157456630Y-123115249D01*
X157456631Y-123115254D01*
X157516211Y-123285523D01*
X157612184Y-123438262D01*
X157739738Y-123565816D01*
X157892478Y-123661789D01*
X158062745Y-123721368D01*
X158062750Y-123721369D01*
X158241996Y-123741565D01*
X158242000Y-123741565D01*
X158242004Y-123741565D01*
X158421249Y-123721369D01*
X158421252Y-123721368D01*
X158421255Y-123721368D01*
X158591522Y-123661789D01*
X158744262Y-123565816D01*
X158871816Y-123438262D01*
X158967789Y-123285522D01*
X158967790Y-123285520D01*
X158970812Y-123279245D01*
X158972652Y-123280131D01*
X158995307Y-123244058D01*
X163373383Y-118865983D01*
X181890500Y-118865983D01*
X181890500Y-120656001D01*
X181890501Y-120656018D01*
X181901000Y-120758796D01*
X181901001Y-120758799D01*
X181938774Y-120872788D01*
X181956186Y-120925334D01*
X182048288Y-121074656D01*
X182172344Y-121198712D01*
X182321666Y-121290814D01*
X182488203Y-121345999D01*
X182590991Y-121356500D01*
X183931008Y-121356499D01*
X184033797Y-121345999D01*
X184200334Y-121290814D01*
X184349656Y-121198712D01*
X184473712Y-121074656D01*
X184565814Y-120925334D01*
X184565817Y-120925323D01*
X184566353Y-120924177D01*
X184566934Y-120923516D01*
X184569605Y-120919187D01*
X184570344Y-120919643D01*
X184612521Y-120871734D01*
X184679713Y-120852577D01*
X184746596Y-120872788D01*
X184766420Y-120888892D01*
X184908502Y-121030974D01*
X185082963Y-121157728D01*
X185275098Y-121255627D01*
X185480190Y-121322266D01*
X185551000Y-121333481D01*
X185551000Y-120303709D01*
X185571339Y-120315452D01*
X185722667Y-120356000D01*
X185879333Y-120356000D01*
X186030661Y-120315452D01*
X186051000Y-120303709D01*
X186051000Y-121333480D01*
X186121809Y-121322266D01*
X186326901Y-121255627D01*
X186519036Y-121157728D01*
X186693496Y-121030974D01*
X186693497Y-121030974D01*
X186845974Y-120878497D01*
X186845974Y-120878496D01*
X186972728Y-120704036D01*
X187070627Y-120511901D01*
X187137265Y-120306809D01*
X187171000Y-120093820D01*
X187171000Y-120011000D01*
X186343709Y-120011000D01*
X186355452Y-119990661D01*
X186396000Y-119839333D01*
X186396000Y-119682667D01*
X186355452Y-119531339D01*
X186343709Y-119511000D01*
X187171000Y-119511000D01*
X187171000Y-119428179D01*
X187137265Y-119215190D01*
X187070627Y-119010098D01*
X186972728Y-118817963D01*
X186845974Y-118643503D01*
X186845974Y-118643502D01*
X186693497Y-118491025D01*
X186519036Y-118364271D01*
X186326899Y-118266372D01*
X186121805Y-118199733D01*
X186051000Y-118188518D01*
X186051000Y-119218290D01*
X186030661Y-119206548D01*
X185879333Y-119166000D01*
X185722667Y-119166000D01*
X185571339Y-119206548D01*
X185551000Y-119218290D01*
X185551000Y-118188518D01*
X185550999Y-118188518D01*
X185480194Y-118199733D01*
X185275100Y-118266372D01*
X185082963Y-118364271D01*
X184908506Y-118491022D01*
X184766420Y-118633108D01*
X184705097Y-118666592D01*
X184635405Y-118661608D01*
X184579472Y-118619736D01*
X184566356Y-118597828D01*
X184565816Y-118596670D01*
X184500654Y-118491025D01*
X184473712Y-118447344D01*
X184349656Y-118323288D01*
X184200334Y-118231186D01*
X184033797Y-118176001D01*
X184033795Y-118176000D01*
X183931010Y-118165500D01*
X182590998Y-118165500D01*
X182590981Y-118165501D01*
X182488203Y-118176000D01*
X182488200Y-118176001D01*
X182321668Y-118231185D01*
X182321663Y-118231187D01*
X182172342Y-118323289D01*
X182048289Y-118447342D01*
X181956187Y-118596663D01*
X181956185Y-118596668D01*
X181955801Y-118597828D01*
X181901001Y-118763203D01*
X181901001Y-118763204D01*
X181901000Y-118763204D01*
X181890500Y-118865983D01*
X163373383Y-118865983D01*
X166631451Y-115607916D01*
X166713584Y-115484995D01*
X166770158Y-115348413D01*
X166799000Y-115203418D01*
X166799000Y-115096972D01*
X166805958Y-115056017D01*
X166833868Y-114976254D01*
X166833869Y-114976249D01*
X166854065Y-114797003D01*
X166854065Y-114796996D01*
X166833869Y-114617750D01*
X166833868Y-114617745D01*
X166774288Y-114447476D01*
X166678315Y-114294737D01*
X166550762Y-114167184D01*
X166398023Y-114071211D01*
X166227754Y-114011631D01*
X166227749Y-114011630D01*
X166048504Y-113991435D01*
X166048496Y-113991435D01*
X165869250Y-114011630D01*
X165869245Y-114011631D01*
X165789483Y-114039542D01*
X165748528Y-114046500D01*
X162657230Y-114046500D01*
X162590191Y-114026815D01*
X162569549Y-114010181D01*
X156434421Y-107875052D01*
X156434414Y-107875046D01*
X156360729Y-107825812D01*
X156360729Y-107825813D01*
X156311491Y-107792913D01*
X156174917Y-107736343D01*
X156174907Y-107736340D01*
X156029920Y-107707500D01*
X156029918Y-107707500D01*
X149032082Y-107707500D01*
X149032076Y-107707500D01*
X149003242Y-107713234D01*
X149003243Y-107713235D01*
X148887093Y-107736339D01*
X148887083Y-107736342D01*
X148807081Y-107769479D01*
X148807082Y-107769480D01*
X148750502Y-107792917D01*
X148701269Y-107825813D01*
X148627588Y-107875044D01*
X148627580Y-107875050D01*
X146141680Y-110360951D01*
X146080357Y-110394436D01*
X146010665Y-110389452D01*
X145966318Y-110360951D01*
X142152350Y-106546983D01*
X182017500Y-106546983D01*
X182017500Y-108337001D01*
X182017501Y-108337018D01*
X182028000Y-108439796D01*
X182028001Y-108439799D01*
X182065774Y-108553788D01*
X182083186Y-108606334D01*
X182175288Y-108755656D01*
X182299344Y-108879712D01*
X182448666Y-108971814D01*
X182615203Y-109026999D01*
X182717991Y-109037500D01*
X184058008Y-109037499D01*
X184160797Y-109026999D01*
X184327334Y-108971814D01*
X184476656Y-108879712D01*
X184600712Y-108755656D01*
X184692814Y-108606334D01*
X184692817Y-108606323D01*
X184693353Y-108605177D01*
X184693934Y-108604516D01*
X184696605Y-108600187D01*
X184697344Y-108600643D01*
X184739521Y-108552734D01*
X184806713Y-108533577D01*
X184873596Y-108553788D01*
X184893420Y-108569892D01*
X185035502Y-108711974D01*
X185209963Y-108838728D01*
X185402098Y-108936627D01*
X185607190Y-109003266D01*
X185678000Y-109014481D01*
X185678000Y-107984709D01*
X185698339Y-107996452D01*
X185849667Y-108037000D01*
X186006333Y-108037000D01*
X186157661Y-107996452D01*
X186178000Y-107984709D01*
X186178000Y-109014480D01*
X186248809Y-109003266D01*
X186453901Y-108936627D01*
X186646036Y-108838728D01*
X186820496Y-108711974D01*
X186820497Y-108711974D01*
X186972974Y-108559497D01*
X186972974Y-108559496D01*
X187099728Y-108385036D01*
X187197627Y-108192901D01*
X187264265Y-107987809D01*
X187298000Y-107774820D01*
X187298000Y-107692000D01*
X186470709Y-107692000D01*
X186482452Y-107671661D01*
X186523000Y-107520333D01*
X186523000Y-107363667D01*
X186482452Y-107212339D01*
X186470709Y-107192000D01*
X187298000Y-107192000D01*
X187298000Y-107109179D01*
X187264265Y-106896190D01*
X187197627Y-106691098D01*
X187099728Y-106498963D01*
X186972974Y-106324503D01*
X186972974Y-106324502D01*
X186820497Y-106172025D01*
X186646036Y-106045271D01*
X186453899Y-105947372D01*
X186248805Y-105880733D01*
X186178000Y-105869518D01*
X186178000Y-106899290D01*
X186157661Y-106887548D01*
X186006333Y-106847000D01*
X185849667Y-106847000D01*
X185698339Y-106887548D01*
X185678000Y-106899290D01*
X185678000Y-105869518D01*
X185677999Y-105869518D01*
X185607194Y-105880733D01*
X185402100Y-105947372D01*
X185209963Y-106045271D01*
X185035506Y-106172022D01*
X184893420Y-106314108D01*
X184832097Y-106347592D01*
X184762405Y-106342608D01*
X184706472Y-106300736D01*
X184693356Y-106278828D01*
X184692816Y-106277670D01*
X184692812Y-106277663D01*
X184600712Y-106128344D01*
X184476656Y-106004288D01*
X184383888Y-105947069D01*
X184327336Y-105912187D01*
X184327331Y-105912185D01*
X184300171Y-105903185D01*
X184160797Y-105857001D01*
X184160795Y-105857000D01*
X184058010Y-105846500D01*
X182717998Y-105846500D01*
X182717981Y-105846501D01*
X182615203Y-105857000D01*
X182615200Y-105857001D01*
X182448668Y-105912185D01*
X182448663Y-105912187D01*
X182299342Y-106004289D01*
X182175289Y-106128342D01*
X182083187Y-106277663D01*
X182083185Y-106277668D01*
X182077834Y-106293816D01*
X182028001Y-106444203D01*
X182028001Y-106444204D01*
X182028000Y-106444204D01*
X182017500Y-106546983D01*
X142152350Y-106546983D01*
X140961307Y-105355940D01*
X140938651Y-105319867D01*
X140936811Y-105320754D01*
X140933789Y-105314478D01*
X140914010Y-105283000D01*
X140837816Y-105161738D01*
X140710262Y-105034184D01*
X140557523Y-104938211D01*
X140387254Y-104878631D01*
X140387249Y-104878630D01*
X140208004Y-104858435D01*
X140207996Y-104858435D01*
X140028750Y-104878630D01*
X140028745Y-104878631D01*
X139858476Y-104938211D01*
X139705737Y-105034184D01*
X139578184Y-105161737D01*
X139482211Y-105314476D01*
X139422631Y-105484745D01*
X139422630Y-105484750D01*
X139402435Y-105663996D01*
X100500500Y-105663996D01*
X100500500Y-94919994D01*
X103605738Y-94919994D01*
X103605738Y-94920005D01*
X103624753Y-95149484D01*
X103681282Y-95372714D01*
X103773782Y-95583594D01*
X103899728Y-95776370D01*
X103940102Y-95820227D01*
X104055692Y-95945792D01*
X104100315Y-95980523D01*
X104241459Y-96090380D01*
X104240570Y-96091521D01*
X104281632Y-96139624D01*
X104291063Y-96208855D01*
X104261568Y-96272194D01*
X104241429Y-96289651D01*
X104241733Y-96290041D01*
X104209040Y-96315485D01*
X104209040Y-96315487D01*
X104763992Y-96870438D01*
X104699215Y-96897271D01*
X104595211Y-96966764D01*
X104506764Y-97055211D01*
X104437271Y-97159215D01*
X104410439Y-97223992D01*
X103856760Y-96670313D01*
X103774224Y-96796644D01*
X103681757Y-97007446D01*
X103625249Y-97230591D01*
X103625247Y-97230603D01*
X103606240Y-97459994D01*
X103606240Y-97460005D01*
X103625247Y-97689396D01*
X103625249Y-97689408D01*
X103681757Y-97912553D01*
X103774224Y-98123355D01*
X103856759Y-98249685D01*
X104410438Y-97696006D01*
X104437271Y-97760785D01*
X104506764Y-97864789D01*
X104595211Y-97953236D01*
X104699215Y-98022729D01*
X104763991Y-98049560D01*
X104209040Y-98604512D01*
X104209040Y-98604514D01*
X104241733Y-98629960D01*
X104240789Y-98631172D01*
X104281639Y-98679043D01*
X104291060Y-98748274D01*
X104261556Y-98811609D01*
X104241181Y-98829263D01*
X104241459Y-98829620D01*
X104055694Y-98974206D01*
X104055689Y-98974211D01*
X103899728Y-99143629D01*
X103773782Y-99336405D01*
X103681282Y-99547285D01*
X103624753Y-99770515D01*
X103605738Y-99999994D01*
X103605738Y-100000005D01*
X103624753Y-100229484D01*
X103681282Y-100452714D01*
X103773782Y-100663594D01*
X103899728Y-100856370D01*
X103899731Y-100856373D01*
X104055692Y-101025792D01*
X104237411Y-101167229D01*
X104439931Y-101276828D01*
X104553025Y-101315653D01*
X104657725Y-101351597D01*
X104657727Y-101351597D01*
X104657729Y-101351598D01*
X104884863Y-101389500D01*
X104884864Y-101389500D01*
X105115136Y-101389500D01*
X105115137Y-101389500D01*
X105342271Y-101351598D01*
X105560069Y-101276828D01*
X105762589Y-101167229D01*
X105859249Y-101091996D01*
X125686435Y-101091996D01*
X125686435Y-101092003D01*
X125706630Y-101271249D01*
X125706631Y-101271254D01*
X125766211Y-101441523D01*
X125862184Y-101594262D01*
X125989738Y-101721816D01*
X126142478Y-101817789D01*
X126213098Y-101842500D01*
X126312745Y-101877368D01*
X126312750Y-101877369D01*
X126491996Y-101897565D01*
X126492000Y-101897565D01*
X126492004Y-101897565D01*
X126671249Y-101877369D01*
X126671252Y-101877368D01*
X126671255Y-101877368D01*
X126751017Y-101849457D01*
X126791972Y-101842500D01*
X144480028Y-101842500D01*
X144520983Y-101849458D01*
X144600745Y-101877368D01*
X144600750Y-101877369D01*
X144779996Y-101897565D01*
X144780000Y-101897565D01*
X144780004Y-101897565D01*
X144959249Y-101877369D01*
X144959252Y-101877368D01*
X144959255Y-101877368D01*
X145129522Y-101817789D01*
X145282262Y-101721816D01*
X145409816Y-101594262D01*
X145505789Y-101441522D01*
X145565368Y-101271255D01*
X145585565Y-101092000D01*
X145578105Y-101025793D01*
X145565369Y-100912750D01*
X145565368Y-100912745D01*
X145505789Y-100742478D01*
X145409816Y-100589738D01*
X145282262Y-100462184D01*
X145267191Y-100452714D01*
X145129523Y-100366211D01*
X144959254Y-100306631D01*
X144959249Y-100306630D01*
X144780004Y-100286435D01*
X144779996Y-100286435D01*
X144600750Y-100306630D01*
X144600745Y-100306631D01*
X144520983Y-100334542D01*
X144480028Y-100341500D01*
X126791972Y-100341500D01*
X126751017Y-100334542D01*
X126671254Y-100306631D01*
X126671249Y-100306630D01*
X126492004Y-100286435D01*
X126491996Y-100286435D01*
X126312750Y-100306630D01*
X126312745Y-100306631D01*
X126142476Y-100366211D01*
X125989737Y-100462184D01*
X125862184Y-100589737D01*
X125766211Y-100742476D01*
X125706631Y-100912745D01*
X125706630Y-100912750D01*
X125686435Y-101091996D01*
X105859249Y-101091996D01*
X105944308Y-101025792D01*
X106100269Y-100856373D01*
X106226217Y-100663595D01*
X106318717Y-100452716D01*
X106375246Y-100229488D01*
X106394262Y-100000000D01*
X106375246Y-99770512D01*
X106318717Y-99547284D01*
X106226217Y-99336405D01*
X106190814Y-99282216D01*
X106100271Y-99143629D01*
X106028825Y-99066018D01*
X105944308Y-98974208D01*
X105820056Y-98877499D01*
X105758541Y-98829620D01*
X105759428Y-98828480D01*
X105718363Y-98780366D01*
X105708938Y-98711135D01*
X105738437Y-98647798D01*
X105758571Y-98630352D01*
X105758266Y-98629960D01*
X105790958Y-98604513D01*
X105790959Y-98604511D01*
X105236008Y-98049560D01*
X105300785Y-98022729D01*
X105404789Y-97953236D01*
X105493236Y-97864789D01*
X105562729Y-97760785D01*
X105589560Y-97696008D01*
X106143238Y-98249686D01*
X106225774Y-98123357D01*
X106318242Y-97912553D01*
X106374750Y-97689408D01*
X106374752Y-97689396D01*
X106393760Y-97460005D01*
X106393760Y-97459994D01*
X106374752Y-97230603D01*
X106374750Y-97230591D01*
X106318242Y-97007446D01*
X106225775Y-96796644D01*
X106143238Y-96670312D01*
X105589560Y-97223990D01*
X105562729Y-97159215D01*
X105493236Y-97055211D01*
X105404789Y-96966764D01*
X105300785Y-96897271D01*
X105236007Y-96870438D01*
X105790958Y-96315486D01*
X105790958Y-96315484D01*
X105758267Y-96290040D01*
X105759209Y-96288829D01*
X105718355Y-96240947D01*
X105708941Y-96171714D01*
X105738450Y-96108382D01*
X105758820Y-96090738D01*
X105758541Y-96090380D01*
X105859215Y-96012022D01*
X105944308Y-95945792D01*
X106100269Y-95776373D01*
X106226217Y-95583595D01*
X106318717Y-95372716D01*
X106375246Y-95149488D01*
X106394262Y-94920000D01*
X106393036Y-94905210D01*
X106379037Y-94736262D01*
X106375246Y-94690512D01*
X106318717Y-94467284D01*
X106226217Y-94256405D01*
X106211579Y-94234000D01*
X106100271Y-94063629D01*
X106073355Y-94034390D01*
X105944308Y-93894208D01*
X105876036Y-93841070D01*
X105762591Y-93752772D01*
X105560069Y-93643172D01*
X105560061Y-93643169D01*
X105342274Y-93568402D01*
X105171920Y-93539975D01*
X105115137Y-93530500D01*
X104884863Y-93530500D01*
X104839436Y-93538080D01*
X104657725Y-93568402D01*
X104439938Y-93643169D01*
X104439930Y-93643172D01*
X104237408Y-93752772D01*
X104055694Y-93894206D01*
X104055689Y-93894211D01*
X103899728Y-94063629D01*
X103773782Y-94256405D01*
X103681282Y-94467285D01*
X103624753Y-94690515D01*
X103605738Y-94919994D01*
X100500500Y-94919994D01*
X100500500Y-80136994D01*
X103583764Y-80136994D01*
X103583764Y-80137005D01*
X103603473Y-80374869D01*
X103603475Y-80374881D01*
X103662070Y-80606267D01*
X103728959Y-80758757D01*
X103757953Y-80824856D01*
X103888506Y-81024682D01*
X104050168Y-81200295D01*
X104190427Y-81309462D01*
X104231240Y-81366173D01*
X104234915Y-81435946D01*
X104202006Y-81493610D01*
X104201840Y-81496287D01*
X104754111Y-82048558D01*
X104704152Y-82069252D01*
X104591828Y-82144305D01*
X104496305Y-82239828D01*
X104421252Y-82352152D01*
X104400558Y-82402111D01*
X103849057Y-81850609D01*
X103758392Y-81989382D01*
X103662545Y-82207895D01*
X103603969Y-82439203D01*
X103603967Y-82439211D01*
X103584265Y-82676993D01*
X103584265Y-82677006D01*
X103603967Y-82914788D01*
X103603969Y-82914796D01*
X103662545Y-83146104D01*
X103758391Y-83364614D01*
X103849057Y-83503389D01*
X104400558Y-82951888D01*
X104421252Y-83001848D01*
X104496305Y-83114172D01*
X104591828Y-83209695D01*
X104704152Y-83284748D01*
X104754110Y-83305441D01*
X104319170Y-83740381D01*
X104257847Y-83773866D01*
X104231490Y-83776700D01*
X104041330Y-83776700D01*
X104041323Y-83776701D01*
X103981716Y-83783108D01*
X103846871Y-83833402D01*
X103846864Y-83833406D01*
X103731655Y-83919652D01*
X103731652Y-83919655D01*
X103645406Y-84034864D01*
X103645402Y-84034871D01*
X103595108Y-84169717D01*
X103588701Y-84229316D01*
X103588701Y-84229323D01*
X103588700Y-84229335D01*
X103588700Y-86204670D01*
X103588701Y-86204676D01*
X103595108Y-86264283D01*
X103645402Y-86399128D01*
X103645406Y-86399135D01*
X103731652Y-86514344D01*
X103731655Y-86514347D01*
X103846864Y-86600593D01*
X103846871Y-86600597D01*
X103981717Y-86650891D01*
X103981716Y-86650891D01*
X103988644Y-86651635D01*
X104041327Y-86657300D01*
X106016672Y-86657299D01*
X106076283Y-86650891D01*
X106211131Y-86600596D01*
X106326346Y-86514346D01*
X106412596Y-86399131D01*
X106462891Y-86264283D01*
X106469300Y-86204673D01*
X106469299Y-84229328D01*
X106462891Y-84169717D01*
X106458276Y-84157344D01*
X106412597Y-84034871D01*
X106412593Y-84034864D01*
X106326347Y-83919655D01*
X106326344Y-83919652D01*
X106211135Y-83833406D01*
X106211128Y-83833402D01*
X106076282Y-83783108D01*
X106076283Y-83783108D01*
X106016683Y-83776701D01*
X106016681Y-83776700D01*
X106016673Y-83776700D01*
X106016665Y-83776700D01*
X105826508Y-83776700D01*
X105759469Y-83757015D01*
X105738827Y-83740381D01*
X105303888Y-83305441D01*
X105353848Y-83284748D01*
X105466172Y-83209695D01*
X105561695Y-83114172D01*
X105636748Y-83001848D01*
X105657441Y-82951888D01*
X106208941Y-83503389D01*
X106299604Y-83364621D01*
X106299609Y-83364613D01*
X106395454Y-83146104D01*
X106454030Y-82914796D01*
X106454032Y-82914788D01*
X106473735Y-82677006D01*
X106473735Y-82676993D01*
X106454032Y-82439211D01*
X106454030Y-82439203D01*
X106395454Y-82207895D01*
X106299606Y-81989380D01*
X106208941Y-81850609D01*
X105657441Y-82402110D01*
X105636748Y-82352152D01*
X105561695Y-82239828D01*
X105466172Y-82144305D01*
X105353848Y-82069252D01*
X105303888Y-82048557D01*
X105856159Y-81496287D01*
X105855685Y-81488653D01*
X105826757Y-81448456D01*
X105823085Y-81378683D01*
X105857718Y-81318000D01*
X105867559Y-81309473D01*
X106007832Y-81200295D01*
X106169494Y-81024682D01*
X106300047Y-80824856D01*
X106395929Y-80606267D01*
X106454525Y-80374878D01*
X106454526Y-80374869D01*
X106463713Y-80263996D01*
X108795435Y-80263996D01*
X108795435Y-80264003D01*
X108815630Y-80443249D01*
X108815631Y-80443254D01*
X108875211Y-80613523D01*
X108917037Y-80680088D01*
X108971184Y-80766262D01*
X109098738Y-80893816D01*
X109251478Y-80989789D01*
X109251483Y-80989792D01*
X109257753Y-80992812D01*
X109256870Y-80994643D01*
X109292937Y-81017305D01*
X109449182Y-81173549D01*
X109482666Y-81234871D01*
X109485500Y-81261229D01*
X109485500Y-84147918D01*
X109485500Y-84147920D01*
X109485499Y-84147920D01*
X109514340Y-84292907D01*
X109514343Y-84292917D01*
X109570913Y-84429490D01*
X109570916Y-84429495D01*
X109571143Y-84429835D01*
X109571159Y-84429860D01*
X109653046Y-84552414D01*
X109653052Y-84552421D01*
X109990692Y-84890060D01*
X110013356Y-84926123D01*
X110015186Y-84925242D01*
X110018208Y-84931516D01*
X110018210Y-84931519D01*
X110018211Y-84931522D01*
X110114184Y-85084262D01*
X110241738Y-85211816D01*
X110394478Y-85307789D01*
X110564745Y-85367368D01*
X110564750Y-85367369D01*
X110743996Y-85387565D01*
X110744000Y-85387565D01*
X110744004Y-85387565D01*
X110923249Y-85367369D01*
X110923252Y-85367368D01*
X110923255Y-85367368D01*
X111093522Y-85307789D01*
X111246262Y-85211816D01*
X111373816Y-85084262D01*
X111469789Y-84931522D01*
X111529368Y-84761255D01*
X111530669Y-84749710D01*
X111549565Y-84582003D01*
X111549565Y-84581996D01*
X111529369Y-84402750D01*
X111529368Y-84402745D01*
X111495987Y-84307348D01*
X111469789Y-84232478D01*
X111467810Y-84229329D01*
X111373815Y-84079737D01*
X111246262Y-83952184D01*
X111194492Y-83919655D01*
X111093522Y-83856211D01*
X111093519Y-83856210D01*
X111093516Y-83856208D01*
X111087242Y-83853186D01*
X111088123Y-83851356D01*
X111052060Y-83828692D01*
X111022819Y-83799451D01*
X110989334Y-83738128D01*
X110986500Y-83711770D01*
X110986500Y-80825080D01*
X110973307Y-80758759D01*
X110973307Y-80758757D01*
X110957659Y-80680088D01*
X110903408Y-80549117D01*
X110901765Y-80544525D01*
X110901084Y-80543505D01*
X110834099Y-80443255D01*
X110834099Y-80443254D01*
X110818953Y-80420586D01*
X110818950Y-80420583D01*
X110354308Y-79955940D01*
X110331643Y-79919870D01*
X110329812Y-79920753D01*
X110326792Y-79914483D01*
X110317140Y-79899122D01*
X110230816Y-79761738D01*
X110103262Y-79634184D01*
X110097081Y-79630300D01*
X109950523Y-79538211D01*
X109780254Y-79478631D01*
X109780249Y-79478630D01*
X109601004Y-79458435D01*
X109600996Y-79458435D01*
X109421750Y-79478630D01*
X109421745Y-79478631D01*
X109251476Y-79538211D01*
X109098737Y-79634184D01*
X108971184Y-79761737D01*
X108875211Y-79914476D01*
X108815631Y-80084745D01*
X108815630Y-80084750D01*
X108795435Y-80263996D01*
X106463713Y-80263996D01*
X106474236Y-80137005D01*
X106474236Y-80136994D01*
X106454526Y-79899130D01*
X106454524Y-79899118D01*
X106395929Y-79667732D01*
X106320715Y-79496262D01*
X106300047Y-79449144D01*
X106169494Y-79249318D01*
X106007832Y-79073705D01*
X105819469Y-78927097D01*
X105708420Y-78867000D01*
X105609546Y-78813491D01*
X105609541Y-78813489D01*
X105383786Y-78735988D01*
X105226826Y-78709796D01*
X105148347Y-78696700D01*
X104909653Y-78696700D01*
X104850793Y-78706522D01*
X104674213Y-78735988D01*
X104448458Y-78813489D01*
X104448453Y-78813491D01*
X104238529Y-78927098D01*
X104050169Y-79073704D01*
X103888506Y-79249317D01*
X103757951Y-79449147D01*
X103662070Y-79667732D01*
X103603475Y-79899118D01*
X103603473Y-79899130D01*
X103583764Y-80136994D01*
X100500500Y-80136994D01*
X100500500Y-78565054D01*
X124367498Y-78565054D01*
X124408423Y-78717785D01*
X124418933Y-78735988D01*
X124418934Y-78735991D01*
X124487475Y-78854709D01*
X124487481Y-78854717D01*
X124606349Y-78973585D01*
X124606355Y-78973590D01*
X151280139Y-105647374D01*
X151280149Y-105647385D01*
X151284479Y-105651715D01*
X151284480Y-105651716D01*
X151396284Y-105763520D01*
X151483095Y-105813639D01*
X151483097Y-105813641D01*
X151521151Y-105835611D01*
X151533215Y-105842577D01*
X151685943Y-105883501D01*
X151685946Y-105883501D01*
X151851653Y-105883501D01*
X151851669Y-105883500D01*
X168708588Y-105883500D01*
X168775627Y-105903185D01*
X168785903Y-105910555D01*
X168788736Y-105912814D01*
X168788738Y-105912816D01*
X168843734Y-105947372D01*
X168934314Y-106004288D01*
X168941478Y-106008789D01*
X169045738Y-106045271D01*
X169111745Y-106068368D01*
X169111750Y-106068369D01*
X169290996Y-106088565D01*
X169291000Y-106088565D01*
X169291004Y-106088565D01*
X169470249Y-106068369D01*
X169470252Y-106068368D01*
X169470255Y-106068368D01*
X169640522Y-106008789D01*
X169793262Y-105912816D01*
X169920816Y-105785262D01*
X170016789Y-105632522D01*
X170076368Y-105462255D01*
X170090602Y-105335926D01*
X170096565Y-105283003D01*
X170096565Y-105282996D01*
X170076369Y-105103750D01*
X170076368Y-105103745D01*
X170016789Y-104933478D01*
X169920816Y-104780738D01*
X169793262Y-104653184D01*
X169782117Y-104646181D01*
X169640523Y-104557211D01*
X169470254Y-104497631D01*
X169470249Y-104497630D01*
X169291004Y-104477435D01*
X169290996Y-104477435D01*
X169111750Y-104497630D01*
X169111745Y-104497631D01*
X168941476Y-104557211D01*
X168788736Y-104653185D01*
X168785903Y-104655445D01*
X168783724Y-104656334D01*
X168782842Y-104656889D01*
X168782744Y-104656734D01*
X168721217Y-104681855D01*
X168708588Y-104682500D01*
X152065097Y-104682500D01*
X151998058Y-104662815D01*
X151977416Y-104646181D01*
X129748218Y-82416983D01*
X134519500Y-82416983D01*
X134519500Y-84207001D01*
X134519501Y-84207018D01*
X134530000Y-84309796D01*
X134530001Y-84309799D01*
X134567584Y-84423216D01*
X134585186Y-84476334D01*
X134677288Y-84625656D01*
X134801344Y-84749712D01*
X134950666Y-84841814D01*
X135117203Y-84896999D01*
X135219991Y-84907500D01*
X136560008Y-84907499D01*
X136662797Y-84896999D01*
X136829334Y-84841814D01*
X136978656Y-84749712D01*
X137102712Y-84625656D01*
X137194814Y-84476334D01*
X137194817Y-84476322D01*
X137195129Y-84475657D01*
X137195469Y-84475269D01*
X137198605Y-84470187D01*
X137199473Y-84470722D01*
X137241299Y-84423216D01*
X137308491Y-84404060D01*
X137375373Y-84424272D01*
X137395195Y-84440375D01*
X137537179Y-84582359D01*
X137711701Y-84709157D01*
X137903911Y-84807092D01*
X138109074Y-84873754D01*
X138188973Y-84886408D01*
X138322134Y-84907500D01*
X138322139Y-84907500D01*
X138537866Y-84907500D01*
X138656230Y-84888752D01*
X138750926Y-84873754D01*
X138956089Y-84807092D01*
X139148299Y-84709157D01*
X139322821Y-84582359D01*
X139475359Y-84429821D01*
X139602157Y-84255299D01*
X139700092Y-84063089D01*
X139766754Y-83857926D01*
X139793697Y-83687815D01*
X139800500Y-83644866D01*
X139800500Y-82979133D01*
X139766754Y-82766077D01*
X139766754Y-82766074D01*
X139700092Y-82560911D01*
X139602157Y-82368701D01*
X139475359Y-82194179D01*
X139322821Y-82041641D01*
X139148299Y-81914843D01*
X138956089Y-81816908D01*
X138750926Y-81750246D01*
X138750924Y-81750245D01*
X138602875Y-81726796D01*
X138539741Y-81696866D01*
X138502810Y-81637555D01*
X138503808Y-81567692D01*
X138534591Y-81516644D01*
X140307520Y-79743716D01*
X140386577Y-79606785D01*
X140427501Y-79454057D01*
X140427501Y-79295942D01*
X140427501Y-79288347D01*
X140427500Y-79288329D01*
X140427500Y-75090261D01*
X140447185Y-75023222D01*
X140486222Y-74984834D01*
X140522696Y-74962251D01*
X140618955Y-74874499D01*
X140680128Y-74818733D01*
X140680130Y-74818731D01*
X140808512Y-74648726D01*
X140903469Y-74458026D01*
X140961769Y-74253125D01*
X140981425Y-74041000D01*
X140961769Y-73828875D01*
X140903469Y-73623974D01*
X140897437Y-73611861D01*
X140846050Y-73508661D01*
X140808512Y-73433274D01*
X140680130Y-73263269D01*
X140680128Y-73263266D01*
X140522697Y-73119750D01*
X140522696Y-73119749D01*
X140341572Y-73007601D01*
X140341571Y-73007600D01*
X140142926Y-72930645D01*
X140142925Y-72930644D01*
X140142923Y-72930644D01*
X139933517Y-72891500D01*
X139720483Y-72891500D01*
X139511077Y-72930644D01*
X139511075Y-72930644D01*
X139511073Y-72930645D01*
X139312428Y-73007600D01*
X139312427Y-73007601D01*
X139131302Y-73119750D01*
X138973871Y-73263266D01*
X138845488Y-73433273D01*
X138750535Y-73623963D01*
X138750530Y-73623976D01*
X138692230Y-73828875D01*
X138680471Y-73955786D01*
X138654685Y-74020723D01*
X138626929Y-74040605D01*
X138646503Y-74051833D01*
X138678693Y-74113846D01*
X138680471Y-74126213D01*
X138692230Y-74253124D01*
X138750530Y-74458023D01*
X138750535Y-74458036D01*
X138845488Y-74648726D01*
X138973871Y-74818733D01*
X139131303Y-74962250D01*
X139131302Y-74962250D01*
X139131304Y-74962251D01*
X139167777Y-74984834D01*
X139214413Y-75036861D01*
X139226500Y-75090261D01*
X139226500Y-79074902D01*
X139206815Y-79141941D01*
X139190181Y-79162583D01*
X136670861Y-81681902D01*
X136609538Y-81715387D01*
X136570582Y-81717579D01*
X136560028Y-81716501D01*
X136560012Y-81716500D01*
X136560009Y-81716500D01*
X136560003Y-81716500D01*
X135219998Y-81716500D01*
X135219981Y-81716501D01*
X135117203Y-81727000D01*
X135117200Y-81727001D01*
X134950668Y-81782185D01*
X134950663Y-81782187D01*
X134801342Y-81874289D01*
X134677289Y-81998342D01*
X134585187Y-82147663D01*
X134585186Y-82147666D01*
X134530001Y-82314203D01*
X134530001Y-82314204D01*
X134530000Y-82314204D01*
X134519500Y-82416983D01*
X129748218Y-82416983D01*
X125604819Y-78273584D01*
X125571334Y-78212261D01*
X125568500Y-78185903D01*
X125568500Y-73344155D01*
X133598000Y-73344155D01*
X133598000Y-73791000D01*
X134438387Y-73791000D01*
X134430922Y-73798465D01*
X134378919Y-73888536D01*
X134352000Y-73988997D01*
X134352000Y-74093003D01*
X134378919Y-74193464D01*
X134430922Y-74283535D01*
X134438387Y-74291000D01*
X133598000Y-74291000D01*
X133598000Y-74737844D01*
X133604401Y-74797372D01*
X133604403Y-74797379D01*
X133654645Y-74932086D01*
X133654649Y-74932093D01*
X133740809Y-75047187D01*
X133740812Y-75047190D01*
X133855906Y-75133350D01*
X133855913Y-75133354D01*
X133990620Y-75183596D01*
X133990627Y-75183598D01*
X134050155Y-75189999D01*
X134050172Y-75190000D01*
X134497000Y-75190000D01*
X134497000Y-74349613D01*
X134504465Y-74357078D01*
X134594536Y-74409081D01*
X134694997Y-74436000D01*
X134799003Y-74436000D01*
X134899464Y-74409081D01*
X134989535Y-74357078D01*
X134997000Y-74349613D01*
X134997000Y-75190000D01*
X135443828Y-75190000D01*
X135443844Y-75189999D01*
X135503372Y-75183598D01*
X135503379Y-75183596D01*
X135638086Y-75133354D01*
X135638093Y-75133350D01*
X135753187Y-75047190D01*
X135753190Y-75047187D01*
X135839350Y-74932093D01*
X135839354Y-74932086D01*
X135889596Y-74797379D01*
X135889598Y-74797372D01*
X135895999Y-74737844D01*
X135896000Y-74737827D01*
X135896000Y-74170029D01*
X135915685Y-74102990D01*
X135968489Y-74057235D01*
X136037647Y-74047291D01*
X136101203Y-74076316D01*
X136138977Y-74135094D01*
X136143471Y-74158588D01*
X136152230Y-74253124D01*
X136210530Y-74458023D01*
X136210535Y-74458036D01*
X136305488Y-74648726D01*
X136433871Y-74818733D01*
X136558222Y-74932093D01*
X136591304Y-74962251D01*
X136772428Y-75074399D01*
X136971077Y-75151356D01*
X137180483Y-75190500D01*
X137180486Y-75190500D01*
X137393514Y-75190500D01*
X137393517Y-75190500D01*
X137602923Y-75151356D01*
X137801572Y-75074399D01*
X137982696Y-74962251D01*
X138140130Y-74818731D01*
X138268512Y-74648726D01*
X138363469Y-74458026D01*
X138421769Y-74253125D01*
X138433529Y-74126213D01*
X138459315Y-74061276D01*
X138487070Y-74041393D01*
X138467497Y-74030166D01*
X138435307Y-73968153D01*
X138433529Y-73955786D01*
X138421769Y-73828875D01*
X138420612Y-73824809D01*
X138363469Y-73623974D01*
X138357437Y-73611861D01*
X138306050Y-73508661D01*
X138268512Y-73433274D01*
X138140130Y-73263269D01*
X138140128Y-73263266D01*
X137982697Y-73119750D01*
X137982696Y-73119749D01*
X137801572Y-73007601D01*
X137801571Y-73007600D01*
X137602926Y-72930645D01*
X137602925Y-72930644D01*
X137602923Y-72930644D01*
X137393517Y-72891500D01*
X137180483Y-72891500D01*
X136971077Y-72930644D01*
X136971075Y-72930644D01*
X136971073Y-72930645D01*
X136772428Y-73007600D01*
X136772427Y-73007601D01*
X136591302Y-73119750D01*
X136433871Y-73263266D01*
X136305488Y-73433273D01*
X136210535Y-73623963D01*
X136210530Y-73623976D01*
X136152230Y-73828875D01*
X136143471Y-73923411D01*
X136117685Y-73988348D01*
X136060884Y-74029036D01*
X135991103Y-74032556D01*
X135930497Y-73997791D01*
X135898307Y-73935778D01*
X135896000Y-73911970D01*
X135896000Y-73344172D01*
X135895999Y-73344155D01*
X135889598Y-73284627D01*
X135889596Y-73284620D01*
X135839354Y-73149913D01*
X135839350Y-73149906D01*
X135753190Y-73034812D01*
X135753187Y-73034809D01*
X135638093Y-72948649D01*
X135638086Y-72948645D01*
X135503379Y-72898403D01*
X135503372Y-72898401D01*
X135443844Y-72892000D01*
X134997000Y-72892000D01*
X134997000Y-73732387D01*
X134989535Y-73724922D01*
X134899464Y-73672919D01*
X134799003Y-73646000D01*
X134694997Y-73646000D01*
X134594536Y-73672919D01*
X134504465Y-73724922D01*
X134497000Y-73732387D01*
X134497000Y-72892000D01*
X134050155Y-72892000D01*
X133990627Y-72898401D01*
X133990620Y-72898403D01*
X133855913Y-72948645D01*
X133855906Y-72948649D01*
X133740812Y-73034809D01*
X133740809Y-73034812D01*
X133654649Y-73149906D01*
X133654645Y-73149913D01*
X133604403Y-73284620D01*
X133604401Y-73284627D01*
X133598000Y-73344155D01*
X125568500Y-73344155D01*
X125568500Y-73325097D01*
X125588185Y-73258058D01*
X125604819Y-73237416D01*
X132167239Y-66674996D01*
X139656435Y-66674996D01*
X139656435Y-66675003D01*
X139676630Y-66854249D01*
X139676631Y-66854254D01*
X139736211Y-67024523D01*
X139805210Y-67134333D01*
X139832184Y-67177262D01*
X139959738Y-67304816D01*
X140112478Y-67400789D01*
X140282745Y-67460368D01*
X140369669Y-67470161D01*
X140434080Y-67497226D01*
X140443465Y-67505700D01*
X146581139Y-73643374D01*
X146581149Y-73643385D01*
X146585479Y-73647715D01*
X146585480Y-73647716D01*
X146697284Y-73759520D01*
X146697286Y-73759521D01*
X146697290Y-73759524D01*
X146817411Y-73828875D01*
X146834216Y-73838577D01*
X146946019Y-73868534D01*
X146986942Y-73879500D01*
X146986943Y-73879500D01*
X153191501Y-73879500D01*
X153258540Y-73899185D01*
X153304295Y-73951989D01*
X153315501Y-74003500D01*
X153315501Y-74174018D01*
X153326000Y-74276796D01*
X153326001Y-74276799D01*
X153363552Y-74390118D01*
X153381186Y-74443334D01*
X153473288Y-74592656D01*
X153597344Y-74716712D01*
X153746666Y-74808814D01*
X153913203Y-74863999D01*
X154015991Y-74874500D01*
X155356008Y-74874499D01*
X155458797Y-74863999D01*
X155625334Y-74808814D01*
X155774656Y-74716712D01*
X155898712Y-74592656D01*
X155990814Y-74443334D01*
X155990817Y-74443322D01*
X155991129Y-74442657D01*
X155991469Y-74442269D01*
X155994605Y-74437187D01*
X155995473Y-74437722D01*
X156037299Y-74390216D01*
X156104491Y-74371060D01*
X156171373Y-74391272D01*
X156191195Y-74407375D01*
X156333179Y-74549359D01*
X156424386Y-74615624D01*
X156467051Y-74670953D01*
X156475500Y-74715942D01*
X156475500Y-83884844D01*
X156455815Y-83951883D01*
X156407794Y-83995329D01*
X156253702Y-84073841D01*
X156079180Y-84200640D01*
X155937195Y-84342625D01*
X155875872Y-84376109D01*
X155806180Y-84371125D01*
X155750247Y-84329253D01*
X155737132Y-84307348D01*
X155736815Y-84306669D01*
X155736814Y-84306668D01*
X155736814Y-84306666D01*
X155644712Y-84157344D01*
X155520656Y-84033288D01*
X155371334Y-83941186D01*
X155204797Y-83886001D01*
X155204795Y-83886000D01*
X155102010Y-83875500D01*
X153761998Y-83875500D01*
X153761981Y-83875501D01*
X153659203Y-83886000D01*
X153659200Y-83886001D01*
X153492668Y-83941185D01*
X153492663Y-83941187D01*
X153343342Y-84033289D01*
X153219289Y-84157342D01*
X153127187Y-84306663D01*
X153127185Y-84306668D01*
X153125312Y-84312320D01*
X153072001Y-84473203D01*
X153072001Y-84473204D01*
X153072000Y-84473204D01*
X153061500Y-84575983D01*
X153061500Y-86366001D01*
X153061501Y-86366018D01*
X153072000Y-86468796D01*
X153072001Y-86468799D01*
X153127185Y-86635331D01*
X153127187Y-86635336D01*
X153140733Y-86657298D01*
X153219288Y-86784656D01*
X153343344Y-86908712D01*
X153492666Y-87000814D01*
X153659203Y-87055999D01*
X153761991Y-87066500D01*
X154777770Y-87066499D01*
X154844809Y-87086183D01*
X154890564Y-87138987D01*
X154900508Y-87208146D01*
X154871483Y-87271702D01*
X154865451Y-87278180D01*
X150982451Y-91161181D01*
X150921128Y-91194666D01*
X150894770Y-91197500D01*
X148135080Y-91197500D01*
X147990092Y-91226340D01*
X147990082Y-91226343D01*
X147853511Y-91282912D01*
X147853498Y-91282919D01*
X147730584Y-91365048D01*
X147730580Y-91365051D01*
X145614937Y-93480693D01*
X145578873Y-93503370D01*
X145579750Y-93505191D01*
X145573475Y-93508212D01*
X145420737Y-93604184D01*
X145293184Y-93731737D01*
X145197211Y-93884476D01*
X145137631Y-94054745D01*
X145137630Y-94054750D01*
X145117435Y-94233996D01*
X145117435Y-94234003D01*
X145137630Y-94413249D01*
X145137631Y-94413254D01*
X145197211Y-94583523D01*
X145292111Y-94734555D01*
X145293184Y-94736262D01*
X145420738Y-94863816D01*
X145573478Y-94959789D01*
X145691778Y-95001184D01*
X145743745Y-95019368D01*
X145743750Y-95019369D01*
X145922996Y-95039565D01*
X145923000Y-95039565D01*
X145923004Y-95039565D01*
X146102249Y-95019369D01*
X146102252Y-95019368D01*
X146102255Y-95019368D01*
X146272522Y-94959789D01*
X146425262Y-94863816D01*
X146552816Y-94736262D01*
X146648789Y-94583522D01*
X146648792Y-94583510D01*
X146651810Y-94577248D01*
X146653650Y-94578134D01*
X146676305Y-94542061D01*
X148483548Y-92734819D01*
X148544871Y-92701334D01*
X148571229Y-92698500D01*
X151330920Y-92698500D01*
X151428462Y-92679096D01*
X151475913Y-92669658D01*
X151612495Y-92613084D01*
X151661729Y-92580186D01*
X151735416Y-92530952D01*
X155755819Y-88510547D01*
X155817142Y-88477063D01*
X155886834Y-88482047D01*
X155942767Y-88523919D01*
X155967184Y-88589383D01*
X155967500Y-88598229D01*
X155967500Y-96734056D01*
X155947815Y-96801095D01*
X155916387Y-96834373D01*
X155825181Y-96900639D01*
X155683195Y-97042625D01*
X155621872Y-97076109D01*
X155552180Y-97071125D01*
X155496247Y-97029253D01*
X155483132Y-97007348D01*
X155482815Y-97006669D01*
X155482814Y-97006668D01*
X155482814Y-97006666D01*
X155390712Y-96857344D01*
X155266656Y-96733288D01*
X155117334Y-96641186D01*
X154950797Y-96586001D01*
X154950795Y-96586000D01*
X154848010Y-96575500D01*
X153507998Y-96575500D01*
X153507981Y-96575501D01*
X153405203Y-96586000D01*
X153405200Y-96586001D01*
X153238668Y-96641185D01*
X153238663Y-96641187D01*
X153089342Y-96733289D01*
X152965289Y-96857342D01*
X152873187Y-97006663D01*
X152873185Y-97006668D01*
X152865701Y-97029253D01*
X152818001Y-97173203D01*
X152818001Y-97173204D01*
X152818000Y-97173204D01*
X152807500Y-97275983D01*
X152807500Y-99066001D01*
X152807501Y-99066018D01*
X152818000Y-99168796D01*
X152818001Y-99168799D01*
X152873185Y-99335331D01*
X152873187Y-99335336D01*
X152908069Y-99391888D01*
X152965288Y-99484656D01*
X153089344Y-99608712D01*
X153238666Y-99700814D01*
X153405203Y-99755999D01*
X153507991Y-99766500D01*
X154848008Y-99766499D01*
X154950797Y-99755999D01*
X155117334Y-99700814D01*
X155266656Y-99608712D01*
X155390712Y-99484656D01*
X155482814Y-99335334D01*
X155482817Y-99335322D01*
X155483129Y-99334657D01*
X155483469Y-99334269D01*
X155486605Y-99329187D01*
X155487473Y-99329722D01*
X155529299Y-99282216D01*
X155596491Y-99263060D01*
X155663373Y-99283272D01*
X155683195Y-99299375D01*
X155825179Y-99441359D01*
X155916386Y-99507624D01*
X155959051Y-99562953D01*
X155967500Y-99607942D01*
X155967500Y-103205028D01*
X155960542Y-103245982D01*
X155932631Y-103325747D01*
X155912435Y-103504996D01*
X155912435Y-103505003D01*
X155932630Y-103684249D01*
X155932631Y-103684254D01*
X155992211Y-103854523D01*
X156088184Y-104007262D01*
X156215738Y-104134816D01*
X156368478Y-104230789D01*
X156538745Y-104290368D01*
X156538750Y-104290369D01*
X156717996Y-104310565D01*
X156718000Y-104310565D01*
X156718004Y-104310565D01*
X156897249Y-104290369D01*
X156897252Y-104290368D01*
X156897255Y-104290368D01*
X157067522Y-104230789D01*
X157220262Y-104134816D01*
X157347816Y-104007262D01*
X157443789Y-103854522D01*
X157503368Y-103684255D01*
X157523565Y-103505000D01*
X157503368Y-103325745D01*
X157475458Y-103245982D01*
X157468500Y-103205028D01*
X157468500Y-99607942D01*
X157488185Y-99540903D01*
X157519612Y-99507625D01*
X157610821Y-99441359D01*
X157763359Y-99288821D01*
X157887991Y-99117279D01*
X157943321Y-99074614D01*
X158012934Y-99068635D01*
X158074729Y-99101241D01*
X158088627Y-99117279D01*
X158213025Y-99288496D01*
X158213025Y-99288497D01*
X158365502Y-99440974D01*
X158539963Y-99567728D01*
X158732098Y-99665627D01*
X158937190Y-99732266D01*
X159008000Y-99743481D01*
X159008000Y-98713709D01*
X159028339Y-98725452D01*
X159179667Y-98766000D01*
X159336333Y-98766000D01*
X159487661Y-98725452D01*
X159508000Y-98713709D01*
X159508000Y-99743480D01*
X159578809Y-99732266D01*
X159783901Y-99665627D01*
X159976036Y-99567728D01*
X160150496Y-99440974D01*
X160150497Y-99440974D01*
X160302974Y-99288497D01*
X160302974Y-99288496D01*
X160429728Y-99114036D01*
X160527627Y-98921901D01*
X160594265Y-98716809D01*
X160628000Y-98503820D01*
X160628000Y-98421000D01*
X159800709Y-98421000D01*
X159812452Y-98400661D01*
X159853000Y-98249333D01*
X159853000Y-98092667D01*
X159812452Y-97941339D01*
X159800709Y-97921000D01*
X160628000Y-97921000D01*
X160628000Y-97838179D01*
X160594265Y-97625190D01*
X160527627Y-97420098D01*
X160429728Y-97227963D01*
X160302974Y-97053503D01*
X160302974Y-97053502D01*
X160150497Y-96901025D01*
X159976036Y-96774271D01*
X159783899Y-96676372D01*
X159578805Y-96609733D01*
X159508000Y-96598518D01*
X159508000Y-97628290D01*
X159487661Y-97616548D01*
X159336333Y-97576000D01*
X159179667Y-97576000D01*
X159028339Y-97616548D01*
X159008000Y-97628290D01*
X159008000Y-96598518D01*
X159007999Y-96598518D01*
X158937194Y-96609733D01*
X158732100Y-96676372D01*
X158539963Y-96774271D01*
X158365503Y-96901025D01*
X158365502Y-96901025D01*
X158213024Y-97053503D01*
X158088627Y-97224720D01*
X158033296Y-97267385D01*
X157963683Y-97273364D01*
X157901888Y-97240758D01*
X157887991Y-97224720D01*
X157872695Y-97203667D01*
X157763359Y-97053179D01*
X157610821Y-96900641D01*
X157610820Y-96900640D01*
X157519613Y-96834373D01*
X157476948Y-96779043D01*
X157468500Y-96734056D01*
X157468500Y-87057156D01*
X157488185Y-86990117D01*
X157536206Y-86946671D01*
X157690297Y-86868158D01*
X157690296Y-86868158D01*
X157690299Y-86868157D01*
X157864821Y-86741359D01*
X158017359Y-86588821D01*
X158141991Y-86417279D01*
X158197321Y-86374614D01*
X158266934Y-86368635D01*
X158328729Y-86401241D01*
X158342627Y-86417279D01*
X158467025Y-86588496D01*
X158467025Y-86588497D01*
X158619502Y-86740974D01*
X158793963Y-86867728D01*
X158986098Y-86965627D01*
X159191190Y-87032266D01*
X159262000Y-87043481D01*
X159262000Y-86013709D01*
X159282339Y-86025452D01*
X159433667Y-86066000D01*
X159590333Y-86066000D01*
X159741661Y-86025452D01*
X159762000Y-86013709D01*
X159762000Y-87043480D01*
X159832809Y-87032266D01*
X160037901Y-86965627D01*
X160230036Y-86867728D01*
X160404496Y-86740974D01*
X160404497Y-86740974D01*
X160556974Y-86588497D01*
X160556974Y-86588496D01*
X160683728Y-86414036D01*
X160781627Y-86221901D01*
X160848265Y-86016809D01*
X160882000Y-85803820D01*
X160882000Y-85721000D01*
X160054709Y-85721000D01*
X160066452Y-85700661D01*
X160107000Y-85549333D01*
X160107000Y-85392667D01*
X160066452Y-85241339D01*
X160054709Y-85221000D01*
X160882000Y-85221000D01*
X160882000Y-85138179D01*
X160848265Y-84925190D01*
X160781627Y-84720098D01*
X160683728Y-84527963D01*
X160556974Y-84353503D01*
X160556974Y-84353502D01*
X160404497Y-84201025D01*
X160230036Y-84074271D01*
X160037899Y-83976372D01*
X159832805Y-83909733D01*
X159762000Y-83898518D01*
X159762000Y-84928290D01*
X159741661Y-84916548D01*
X159590333Y-84876000D01*
X159433667Y-84876000D01*
X159282339Y-84916548D01*
X159262000Y-84928290D01*
X159262000Y-83898518D01*
X159261999Y-83898518D01*
X159191194Y-83909733D01*
X158986100Y-83976372D01*
X158793963Y-84074271D01*
X158619503Y-84201025D01*
X158619502Y-84201025D01*
X158467024Y-84353503D01*
X158342627Y-84524720D01*
X158287296Y-84567385D01*
X158217683Y-84573364D01*
X158155888Y-84540758D01*
X158141991Y-84524720D01*
X158017359Y-84353179D01*
X158012819Y-84348639D01*
X157979334Y-84287316D01*
X157976500Y-84260958D01*
X157976500Y-74715942D01*
X157996185Y-74648903D01*
X158027612Y-74615625D01*
X158118821Y-74549359D01*
X158271359Y-74396821D01*
X158395991Y-74225279D01*
X158451321Y-74182614D01*
X158520934Y-74176635D01*
X158582729Y-74209241D01*
X158596627Y-74225279D01*
X158721025Y-74396496D01*
X158721025Y-74396497D01*
X158873502Y-74548974D01*
X159047963Y-74675728D01*
X159240098Y-74773627D01*
X159445190Y-74840266D01*
X159516000Y-74851481D01*
X159516000Y-73821709D01*
X159536339Y-73833452D01*
X159687667Y-73874000D01*
X159844333Y-73874000D01*
X159995661Y-73833452D01*
X160016000Y-73821709D01*
X160016000Y-74851480D01*
X160086809Y-74840266D01*
X160291901Y-74773627D01*
X160484036Y-74675728D01*
X160658496Y-74548974D01*
X160658497Y-74548974D01*
X160810974Y-74396497D01*
X160810974Y-74396496D01*
X160937728Y-74222036D01*
X161035627Y-74029901D01*
X161102265Y-73824809D01*
X161136000Y-73611820D01*
X161136000Y-73529000D01*
X160308709Y-73529000D01*
X160320452Y-73508661D01*
X160361000Y-73357333D01*
X160361000Y-73200667D01*
X160320452Y-73049339D01*
X160308709Y-73029000D01*
X161136000Y-73029000D01*
X161136000Y-72946179D01*
X161102265Y-72733190D01*
X161035627Y-72528098D01*
X160937728Y-72335963D01*
X160810974Y-72161503D01*
X160810974Y-72161502D01*
X160658497Y-72009025D01*
X160484036Y-71882271D01*
X160291899Y-71784372D01*
X160086805Y-71717733D01*
X160016000Y-71706518D01*
X160016000Y-72736290D01*
X159995661Y-72724548D01*
X159844333Y-72684000D01*
X159687667Y-72684000D01*
X159536339Y-72724548D01*
X159516000Y-72736290D01*
X159516000Y-71706518D01*
X159515999Y-71706518D01*
X159445194Y-71717733D01*
X159240100Y-71784372D01*
X159047963Y-71882271D01*
X158873503Y-72009025D01*
X158873502Y-72009025D01*
X158721024Y-72161503D01*
X158596627Y-72332720D01*
X158541296Y-72375385D01*
X158471683Y-72381364D01*
X158409888Y-72348758D01*
X158395991Y-72332720D01*
X158271359Y-72161179D01*
X158118821Y-72008641D01*
X157944299Y-71881843D01*
X157752089Y-71783908D01*
X157546926Y-71717246D01*
X157546924Y-71717245D01*
X157546922Y-71717245D01*
X157333866Y-71683500D01*
X157333861Y-71683500D01*
X157118139Y-71683500D01*
X157118134Y-71683500D01*
X156905077Y-71717245D01*
X156699908Y-71783909D01*
X156507700Y-71881843D01*
X156333180Y-72008640D01*
X156191195Y-72150625D01*
X156129872Y-72184109D01*
X156060180Y-72179125D01*
X156004247Y-72137253D01*
X155991132Y-72115348D01*
X155990815Y-72114669D01*
X155990814Y-72114668D01*
X155990814Y-72114666D01*
X155898712Y-71965344D01*
X155774656Y-71841288D01*
X155625334Y-71749186D01*
X155458797Y-71694001D01*
X155458795Y-71694000D01*
X155356010Y-71683500D01*
X154015998Y-71683500D01*
X154015981Y-71683501D01*
X153913203Y-71694000D01*
X153913200Y-71694001D01*
X153746668Y-71749185D01*
X153746663Y-71749187D01*
X153597342Y-71841289D01*
X153473289Y-71965342D01*
X153381187Y-72114663D01*
X153381186Y-72114666D01*
X153326001Y-72281203D01*
X153326001Y-72281204D01*
X153326000Y-72281204D01*
X153315500Y-72383983D01*
X153315500Y-72554500D01*
X153295815Y-72621539D01*
X153243011Y-72667294D01*
X153191500Y-72678500D01*
X147366097Y-72678500D01*
X147299058Y-72658815D01*
X147278416Y-72642181D01*
X141292700Y-66656465D01*
X141259215Y-66595142D01*
X141257163Y-66582686D01*
X141247368Y-66495745D01*
X141187789Y-66325478D01*
X141091816Y-66172738D01*
X140964262Y-66045184D01*
X140811523Y-65949211D01*
X140641254Y-65889631D01*
X140641249Y-65889630D01*
X140462004Y-65869435D01*
X140461996Y-65869435D01*
X140282750Y-65889630D01*
X140282745Y-65889631D01*
X140112476Y-65949211D01*
X139959737Y-66045184D01*
X139832184Y-66172737D01*
X139736211Y-66325476D01*
X139676631Y-66495745D01*
X139676630Y-66495750D01*
X139656435Y-66674996D01*
X132167239Y-66674996D01*
X133600947Y-65241288D01*
X134072239Y-64769996D01*
X139910435Y-64769996D01*
X139910435Y-64770003D01*
X139930630Y-64949249D01*
X139930631Y-64949254D01*
X139990211Y-65119523D01*
X140066722Y-65241288D01*
X140086184Y-65272262D01*
X140213738Y-65399816D01*
X140257345Y-65427216D01*
X140364020Y-65494245D01*
X140366478Y-65495789D01*
X140517055Y-65548478D01*
X140536745Y-65555368D01*
X140536750Y-65555369D01*
X140715996Y-65575565D01*
X140716000Y-65575565D01*
X140716004Y-65575565D01*
X140895249Y-65555369D01*
X140895252Y-65555368D01*
X140895255Y-65555368D01*
X141065522Y-65495789D01*
X141218262Y-65399816D01*
X141218267Y-65399810D01*
X141221097Y-65397555D01*
X141223275Y-65396665D01*
X141224158Y-65396111D01*
X141224255Y-65396265D01*
X141285783Y-65371145D01*
X141298412Y-65370500D01*
X165053903Y-65370500D01*
X165120942Y-65390185D01*
X165141584Y-65406819D01*
X168333298Y-68598534D01*
X168366783Y-68659857D01*
X168368837Y-68672331D01*
X168378630Y-68759249D01*
X168438210Y-68929521D01*
X168534184Y-69082262D01*
X168661738Y-69209816D01*
X168814478Y-69305789D01*
X168984745Y-69365368D01*
X168984750Y-69365369D01*
X169163996Y-69385565D01*
X169164000Y-69385565D01*
X169164004Y-69385565D01*
X169343249Y-69365369D01*
X169343252Y-69365368D01*
X169343255Y-69365368D01*
X169513522Y-69305789D01*
X169666262Y-69209816D01*
X169793816Y-69082262D01*
X169889789Y-68929522D01*
X169949368Y-68759255D01*
X169959162Y-68672331D01*
X169969565Y-68580003D01*
X169969565Y-68579996D01*
X169949369Y-68400750D01*
X169949368Y-68400745D01*
X169889788Y-68230476D01*
X169837699Y-68147577D01*
X169793816Y-68077738D01*
X169666262Y-67950184D01*
X169513521Y-67854210D01*
X169343249Y-67794630D01*
X169256331Y-67784837D01*
X169191917Y-67757770D01*
X169182534Y-67749298D01*
X165841590Y-64408355D01*
X165841588Y-64408352D01*
X165722717Y-64289481D01*
X165722716Y-64289480D01*
X165620597Y-64230522D01*
X165585785Y-64210423D01*
X165433057Y-64169499D01*
X165274943Y-64169499D01*
X165267347Y-64169499D01*
X165267331Y-64169500D01*
X158899815Y-64169500D01*
X158832776Y-64149815D01*
X158787021Y-64097011D01*
X158776595Y-64031616D01*
X158793565Y-63881002D01*
X158793565Y-63880996D01*
X158773369Y-63701750D01*
X158773368Y-63701745D01*
X158713788Y-63531476D01*
X158680645Y-63478730D01*
X158617816Y-63378738D01*
X158617814Y-63378736D01*
X158617813Y-63378734D01*
X158615550Y-63375896D01*
X158614659Y-63373715D01*
X158614111Y-63372842D01*
X158614264Y-63372745D01*
X158589144Y-63311209D01*
X158588500Y-63298587D01*
X158588500Y-55920565D01*
X158608185Y-55853526D01*
X158660989Y-55807771D01*
X158703220Y-55798583D01*
X158703081Y-55797345D01*
X158889249Y-55776369D01*
X158889252Y-55776368D01*
X158889255Y-55776368D01*
X159059522Y-55716789D01*
X159212262Y-55620816D01*
X159212267Y-55620810D01*
X159215097Y-55618555D01*
X159217275Y-55617665D01*
X159218158Y-55617111D01*
X159218255Y-55617265D01*
X159279783Y-55592145D01*
X159292412Y-55591500D01*
X167593903Y-55591500D01*
X167660942Y-55611185D01*
X167681584Y-55627819D01*
X170305181Y-58251416D01*
X170338666Y-58312739D01*
X170341500Y-58339097D01*
X170341500Y-78401719D01*
X170321815Y-78468758D01*
X170269011Y-78514513D01*
X170199853Y-78524457D01*
X170136297Y-78495432D01*
X170112506Y-78467691D01*
X170069563Y-78399348D01*
X170047816Y-78364738D01*
X169920262Y-78237184D01*
X169920260Y-78237183D01*
X169767523Y-78141211D01*
X169597254Y-78081631D01*
X169597249Y-78081630D01*
X169418004Y-78061435D01*
X169417996Y-78061435D01*
X169238750Y-78081630D01*
X169238745Y-78081631D01*
X169068476Y-78141211D01*
X168915739Y-78237183D01*
X168795740Y-78357182D01*
X168734417Y-78390666D01*
X168708059Y-78393500D01*
X165809412Y-78393500D01*
X165742373Y-78373815D01*
X165732097Y-78366445D01*
X165729263Y-78364185D01*
X165729262Y-78364184D01*
X165672496Y-78328515D01*
X165576523Y-78268211D01*
X165406254Y-78208631D01*
X165406249Y-78208630D01*
X165227004Y-78188435D01*
X165226996Y-78188435D01*
X165047750Y-78208630D01*
X165047745Y-78208631D01*
X164877476Y-78268211D01*
X164747472Y-78349899D01*
X164680235Y-78368899D01*
X164613400Y-78348531D01*
X164568186Y-78295263D01*
X164557500Y-78244905D01*
X164557500Y-68527412D01*
X164577185Y-68460373D01*
X164584555Y-68450097D01*
X164586810Y-68447267D01*
X164586816Y-68447262D01*
X164682789Y-68294522D01*
X164742368Y-68124255D01*
X164747609Y-68077738D01*
X164762565Y-67945003D01*
X164762565Y-67944996D01*
X164742369Y-67765750D01*
X164742368Y-67765745D01*
X164702217Y-67651000D01*
X164682789Y-67595478D01*
X164586816Y-67442738D01*
X164459262Y-67315184D01*
X164306523Y-67219211D01*
X164136254Y-67159631D01*
X164136249Y-67159630D01*
X163957004Y-67139435D01*
X163956996Y-67139435D01*
X163777750Y-67159630D01*
X163777745Y-67159631D01*
X163607476Y-67219211D01*
X163454737Y-67315184D01*
X163327184Y-67442737D01*
X163231211Y-67595476D01*
X163171631Y-67765745D01*
X163171630Y-67765750D01*
X163151435Y-67944996D01*
X163151435Y-67945003D01*
X163171630Y-68124249D01*
X163171631Y-68124254D01*
X163231211Y-68294523D01*
X163327185Y-68447263D01*
X163329445Y-68450097D01*
X163330334Y-68452275D01*
X163330889Y-68453158D01*
X163330734Y-68453255D01*
X163355855Y-68514783D01*
X163356500Y-68527412D01*
X163356500Y-85257330D01*
X163356499Y-85257348D01*
X163356499Y-85423054D01*
X163356498Y-85423054D01*
X163397423Y-85575785D01*
X163426358Y-85625900D01*
X163426359Y-85625904D01*
X163426360Y-85625904D01*
X163476479Y-85712714D01*
X163476481Y-85712717D01*
X163595349Y-85831585D01*
X163595355Y-85831590D01*
X170081811Y-92318047D01*
X170115296Y-92379370D01*
X170110312Y-92449062D01*
X170099127Y-92471695D01*
X170089209Y-92487479D01*
X170029633Y-92657737D01*
X170029630Y-92657750D01*
X170009435Y-92836996D01*
X170009435Y-92837003D01*
X170029630Y-93016249D01*
X170029631Y-93016254D01*
X170089211Y-93186523D01*
X170170899Y-93316528D01*
X170189899Y-93383765D01*
X170169531Y-93450600D01*
X170116263Y-93495814D01*
X170065905Y-93506500D01*
X164417057Y-93506500D01*
X164258942Y-93506500D01*
X164252557Y-93508211D01*
X164106214Y-93547423D01*
X164106209Y-93547426D01*
X163969290Y-93626475D01*
X163969282Y-93626481D01*
X163857478Y-93738286D01*
X162795465Y-94800298D01*
X162734142Y-94833783D01*
X162721668Y-94835837D01*
X162634750Y-94845630D01*
X162464478Y-94905210D01*
X162311737Y-95001184D01*
X162184184Y-95128737D01*
X162088211Y-95281476D01*
X162028631Y-95451745D01*
X162028630Y-95451750D01*
X162008435Y-95630996D01*
X162008435Y-95631003D01*
X162028630Y-95810249D01*
X162028631Y-95810254D01*
X162088211Y-95980523D01*
X162184184Y-96133262D01*
X162311738Y-96260816D01*
X162464478Y-96356789D01*
X162634745Y-96416368D01*
X162634750Y-96416369D01*
X162813996Y-96436565D01*
X162814000Y-96436565D01*
X162814004Y-96436565D01*
X162993249Y-96416369D01*
X162993252Y-96416368D01*
X162993255Y-96416368D01*
X163077233Y-96386983D01*
X182525500Y-96386983D01*
X182525500Y-98177001D01*
X182525501Y-98177018D01*
X182536000Y-98279796D01*
X182536001Y-98279799D01*
X182573774Y-98393788D01*
X182591186Y-98446334D01*
X182683288Y-98595656D01*
X182807344Y-98719712D01*
X182956666Y-98811814D01*
X183123203Y-98866999D01*
X183225991Y-98877500D01*
X184566008Y-98877499D01*
X184668797Y-98866999D01*
X184835334Y-98811814D01*
X184984656Y-98719712D01*
X185108712Y-98595656D01*
X185200814Y-98446334D01*
X185200817Y-98446323D01*
X185201353Y-98445177D01*
X185201934Y-98444516D01*
X185204605Y-98440187D01*
X185205344Y-98440643D01*
X185247521Y-98392734D01*
X185314713Y-98373577D01*
X185381596Y-98393788D01*
X185401420Y-98409892D01*
X185543502Y-98551974D01*
X185717963Y-98678728D01*
X185910098Y-98776627D01*
X186115190Y-98843266D01*
X186186000Y-98854481D01*
X186186000Y-97824709D01*
X186206339Y-97836452D01*
X186357667Y-97877000D01*
X186514333Y-97877000D01*
X186665661Y-97836452D01*
X186686000Y-97824709D01*
X186686000Y-98854480D01*
X186756809Y-98843266D01*
X186961901Y-98776627D01*
X187154036Y-98678728D01*
X187328496Y-98551974D01*
X187328497Y-98551974D01*
X187480974Y-98399497D01*
X187480974Y-98399496D01*
X187607728Y-98225036D01*
X187705627Y-98032901D01*
X187772265Y-97827809D01*
X187806000Y-97614820D01*
X187806000Y-97532000D01*
X186978709Y-97532000D01*
X186990452Y-97511661D01*
X187031000Y-97360333D01*
X187031000Y-97203667D01*
X186990452Y-97052339D01*
X186978709Y-97032000D01*
X187806000Y-97032000D01*
X187806000Y-96949179D01*
X187772265Y-96736190D01*
X187705627Y-96531098D01*
X187607728Y-96338963D01*
X187480974Y-96164503D01*
X187480974Y-96164502D01*
X187328497Y-96012025D01*
X187154036Y-95885271D01*
X186961899Y-95787372D01*
X186756805Y-95720733D01*
X186686000Y-95709518D01*
X186686000Y-96739290D01*
X186665661Y-96727548D01*
X186514333Y-96687000D01*
X186357667Y-96687000D01*
X186206339Y-96727548D01*
X186186000Y-96739290D01*
X186186000Y-95709518D01*
X186185999Y-95709518D01*
X186115194Y-95720733D01*
X185910100Y-95787372D01*
X185717963Y-95885271D01*
X185543506Y-96012022D01*
X185401420Y-96154108D01*
X185340097Y-96187592D01*
X185270405Y-96182608D01*
X185214472Y-96140736D01*
X185201356Y-96118828D01*
X185200816Y-96117670D01*
X185200812Y-96117663D01*
X185108712Y-95968344D01*
X184984656Y-95844288D01*
X184835334Y-95752186D01*
X184668797Y-95697001D01*
X184668795Y-95697000D01*
X184566010Y-95686500D01*
X183225998Y-95686500D01*
X183225981Y-95686501D01*
X183123203Y-95697000D01*
X183123200Y-95697001D01*
X182956668Y-95752185D01*
X182956663Y-95752187D01*
X182807342Y-95844289D01*
X182683289Y-95968342D01*
X182591187Y-96117663D01*
X182591185Y-96117668D01*
X182590801Y-96118828D01*
X182536001Y-96284203D01*
X182536001Y-96284204D01*
X182536000Y-96284204D01*
X182525500Y-96386983D01*
X163077233Y-96386983D01*
X163163522Y-96356789D01*
X163316262Y-96260816D01*
X163443816Y-96133262D01*
X163539789Y-95980522D01*
X163599368Y-95810255D01*
X163609161Y-95723329D01*
X163636226Y-95658918D01*
X163644690Y-95649543D01*
X164550416Y-94743819D01*
X164611739Y-94710334D01*
X164638097Y-94707500D01*
X175693588Y-94707500D01*
X175760627Y-94727185D01*
X175770903Y-94734555D01*
X175773736Y-94736814D01*
X175773738Y-94736816D01*
X175926478Y-94832789D01*
X176015148Y-94863816D01*
X176096745Y-94892368D01*
X176096750Y-94892369D01*
X176275996Y-94912565D01*
X176276000Y-94912565D01*
X176276004Y-94912565D01*
X176455249Y-94892369D01*
X176455252Y-94892368D01*
X176455255Y-94892368D01*
X176625522Y-94832789D01*
X176778262Y-94736816D01*
X176905816Y-94609262D01*
X177001789Y-94456522D01*
X177061368Y-94286255D01*
X177061369Y-94286249D01*
X177081565Y-94107003D01*
X177081565Y-94106996D01*
X177061369Y-93927750D01*
X177061368Y-93927745D01*
X177046228Y-93884478D01*
X177001789Y-93757478D01*
X176998831Y-93752771D01*
X176959257Y-93689789D01*
X176905816Y-93604738D01*
X176778262Y-93477184D01*
X176625523Y-93381211D01*
X176455254Y-93321631D01*
X176455249Y-93321630D01*
X176276004Y-93301435D01*
X176275996Y-93301435D01*
X176096750Y-93321630D01*
X176096745Y-93321631D01*
X175926476Y-93381211D01*
X175773736Y-93477185D01*
X175770903Y-93479445D01*
X175768724Y-93480334D01*
X175767842Y-93480889D01*
X175767744Y-93480734D01*
X175706217Y-93505855D01*
X175693588Y-93506500D01*
X171564095Y-93506500D01*
X171497056Y-93486815D01*
X171451301Y-93434011D01*
X171441357Y-93364853D01*
X171459101Y-93316528D01*
X171540788Y-93186523D01*
X171540789Y-93186522D01*
X171600368Y-93016255D01*
X171600369Y-93016249D01*
X171620565Y-92837003D01*
X171620565Y-92836996D01*
X171600369Y-92657750D01*
X171600368Y-92657745D01*
X171585228Y-92614478D01*
X171540789Y-92487478D01*
X171524615Y-92461738D01*
X171482184Y-92394209D01*
X171444816Y-92334738D01*
X171444815Y-92334737D01*
X171442555Y-92331903D01*
X171441665Y-92329724D01*
X171441111Y-92328842D01*
X171441265Y-92328744D01*
X171416146Y-92267216D01*
X171415501Y-92254589D01*
X171415501Y-92122944D01*
X171374576Y-91970214D01*
X171374573Y-91970209D01*
X171295524Y-91833290D01*
X171295518Y-91833282D01*
X166197219Y-86734983D01*
X182525500Y-86734983D01*
X182525500Y-88525001D01*
X182525501Y-88525018D01*
X182536000Y-88627796D01*
X182536001Y-88627799D01*
X182573774Y-88741788D01*
X182591186Y-88794334D01*
X182683288Y-88943656D01*
X182807344Y-89067712D01*
X182956666Y-89159814D01*
X183123203Y-89214999D01*
X183225991Y-89225500D01*
X184566008Y-89225499D01*
X184668797Y-89214999D01*
X184835334Y-89159814D01*
X184984656Y-89067712D01*
X185108712Y-88943656D01*
X185200814Y-88794334D01*
X185200817Y-88794323D01*
X185201353Y-88793177D01*
X185201934Y-88792516D01*
X185204605Y-88788187D01*
X185205344Y-88788643D01*
X185247521Y-88740734D01*
X185314713Y-88721577D01*
X185381596Y-88741788D01*
X185401420Y-88757892D01*
X185543502Y-88899974D01*
X185717963Y-89026728D01*
X185910098Y-89124627D01*
X186115190Y-89191266D01*
X186186000Y-89202481D01*
X186186000Y-88172709D01*
X186206339Y-88184452D01*
X186357667Y-88225000D01*
X186514333Y-88225000D01*
X186665661Y-88184452D01*
X186686000Y-88172709D01*
X186686000Y-89202480D01*
X186756809Y-89191266D01*
X186961901Y-89124627D01*
X187154036Y-89026728D01*
X187328496Y-88899974D01*
X187328497Y-88899974D01*
X187480974Y-88747497D01*
X187480974Y-88747496D01*
X187607728Y-88573036D01*
X187705627Y-88380901D01*
X187772265Y-88175809D01*
X187806000Y-87962820D01*
X187806000Y-87880000D01*
X186978709Y-87880000D01*
X186990452Y-87859661D01*
X187031000Y-87708333D01*
X187031000Y-87551667D01*
X186990452Y-87400339D01*
X186978709Y-87380000D01*
X187806000Y-87380000D01*
X187806000Y-87297179D01*
X187772265Y-87084190D01*
X187705627Y-86879098D01*
X187607728Y-86686963D01*
X187480974Y-86512503D01*
X187480974Y-86512502D01*
X187328497Y-86360025D01*
X187154036Y-86233271D01*
X186961899Y-86135372D01*
X186756805Y-86068733D01*
X186686000Y-86057518D01*
X186686000Y-87087290D01*
X186665661Y-87075548D01*
X186514333Y-87035000D01*
X186357667Y-87035000D01*
X186206339Y-87075548D01*
X186186000Y-87087290D01*
X186186000Y-86057518D01*
X186185999Y-86057518D01*
X186115194Y-86068733D01*
X185910100Y-86135372D01*
X185717963Y-86233271D01*
X185543506Y-86360022D01*
X185401420Y-86502108D01*
X185340097Y-86535592D01*
X185270405Y-86530608D01*
X185214472Y-86488736D01*
X185201356Y-86466828D01*
X185200816Y-86465670D01*
X185170969Y-86417280D01*
X185108712Y-86316344D01*
X184984656Y-86192288D01*
X184835334Y-86100186D01*
X184668797Y-86045001D01*
X184668795Y-86045000D01*
X184566010Y-86034500D01*
X183225998Y-86034500D01*
X183225981Y-86034501D01*
X183123203Y-86045000D01*
X183123200Y-86045001D01*
X182956668Y-86100185D01*
X182956663Y-86100187D01*
X182807342Y-86192289D01*
X182683289Y-86316342D01*
X182591187Y-86465663D01*
X182591185Y-86465668D01*
X182583541Y-86488736D01*
X182536001Y-86632203D01*
X182536001Y-86632204D01*
X182536000Y-86632204D01*
X182525500Y-86734983D01*
X166197219Y-86734983D01*
X164593819Y-85131583D01*
X164560334Y-85070260D01*
X164557500Y-85043902D01*
X164557500Y-79743094D01*
X164577185Y-79676055D01*
X164629989Y-79630300D01*
X164699147Y-79620356D01*
X164747471Y-79638100D01*
X164770178Y-79652368D01*
X164877475Y-79719788D01*
X165047745Y-79779368D01*
X165047750Y-79779369D01*
X165226996Y-79799565D01*
X165227000Y-79799565D01*
X165227004Y-79799565D01*
X165406249Y-79779369D01*
X165406252Y-79779368D01*
X165406255Y-79779368D01*
X165576522Y-79719789D01*
X165729262Y-79623816D01*
X165729267Y-79623810D01*
X165732097Y-79621555D01*
X165734275Y-79620665D01*
X165735158Y-79620111D01*
X165735255Y-79620265D01*
X165796783Y-79595145D01*
X165809412Y-79594500D01*
X169052298Y-79594500D01*
X169093252Y-79601458D01*
X169108476Y-79606785D01*
X169238745Y-79652368D01*
X169238751Y-79652368D01*
X169238753Y-79652369D01*
X169417996Y-79672565D01*
X169418000Y-79672565D01*
X169418004Y-79672565D01*
X169597249Y-79652369D01*
X169597252Y-79652368D01*
X169597255Y-79652368D01*
X169767522Y-79592789D01*
X169920262Y-79496816D01*
X170047816Y-79369262D01*
X170112506Y-79266307D01*
X170164841Y-79220017D01*
X170233894Y-79209369D01*
X170297743Y-79237744D01*
X170336115Y-79296133D01*
X170341500Y-79332280D01*
X170341500Y-82475587D01*
X170321815Y-82542626D01*
X170314450Y-82552896D01*
X170312186Y-82555734D01*
X170216211Y-82708476D01*
X170156631Y-82878745D01*
X170156630Y-82878750D01*
X170136435Y-83057996D01*
X170136435Y-83058003D01*
X170156630Y-83237249D01*
X170156631Y-83237254D01*
X170216211Y-83407523D01*
X170276448Y-83503389D01*
X170312184Y-83560262D01*
X170439738Y-83687816D01*
X170477861Y-83711770D01*
X170591395Y-83783109D01*
X170592478Y-83783789D01*
X170734264Y-83833402D01*
X170762745Y-83843368D01*
X170762750Y-83843369D01*
X170941996Y-83863565D01*
X170942000Y-83863565D01*
X170942004Y-83863565D01*
X171121249Y-83843369D01*
X171121252Y-83843368D01*
X171121255Y-83843368D01*
X171291522Y-83783789D01*
X171444262Y-83687816D01*
X171571816Y-83560262D01*
X171667789Y-83407522D01*
X171727368Y-83237255D01*
X171727369Y-83237249D01*
X171747565Y-83058003D01*
X171747565Y-83057996D01*
X171727369Y-82878750D01*
X171727368Y-82878745D01*
X171667788Y-82708476D01*
X171634645Y-82655730D01*
X171571816Y-82555738D01*
X171571814Y-82555736D01*
X171571813Y-82555734D01*
X171569550Y-82552896D01*
X171568659Y-82550715D01*
X171568111Y-82549842D01*
X171568264Y-82549745D01*
X171543144Y-82488209D01*
X171542500Y-82475587D01*
X171542500Y-75783983D01*
X183082500Y-75783983D01*
X183082500Y-77124001D01*
X183082501Y-77124018D01*
X183093000Y-77226796D01*
X183093001Y-77226799D01*
X183148185Y-77393331D01*
X183148186Y-77393334D01*
X183240288Y-77542656D01*
X183364344Y-77666712D01*
X183513666Y-77758814D01*
X183680203Y-77813999D01*
X183782991Y-77824500D01*
X185573008Y-77824499D01*
X185675797Y-77813999D01*
X185842334Y-77758814D01*
X185991656Y-77666712D01*
X186115712Y-77542656D01*
X186207814Y-77393334D01*
X186262999Y-77226797D01*
X186273500Y-77124009D01*
X186273499Y-75783992D01*
X186262999Y-75681203D01*
X186207814Y-75514666D01*
X186115712Y-75365344D01*
X185991656Y-75241288D01*
X185842334Y-75149186D01*
X185842332Y-75149185D01*
X185842325Y-75149181D01*
X185841165Y-75148640D01*
X185840503Y-75148057D01*
X185836187Y-75145395D01*
X185836642Y-75144657D01*
X185788727Y-75102466D01*
X185769577Y-75035272D01*
X185789795Y-74968392D01*
X185805892Y-74948578D01*
X185947977Y-74806493D01*
X186074728Y-74632036D01*
X186172627Y-74439901D01*
X186239266Y-74234809D01*
X186250481Y-74164000D01*
X185220709Y-74164000D01*
X185232452Y-74143661D01*
X185273000Y-73992333D01*
X185273000Y-73835667D01*
X185232452Y-73684339D01*
X185220709Y-73664000D01*
X186250481Y-73664000D01*
X186239266Y-73593190D01*
X186172627Y-73388098D01*
X186074728Y-73195963D01*
X185947974Y-73021503D01*
X185947974Y-73021502D01*
X185795497Y-72869025D01*
X185621036Y-72742271D01*
X185428901Y-72644372D01*
X185223809Y-72577734D01*
X185010820Y-72544000D01*
X184928000Y-72544000D01*
X184928000Y-73371290D01*
X184907661Y-73359548D01*
X184756333Y-73319000D01*
X184599667Y-73319000D01*
X184448339Y-73359548D01*
X184428000Y-73371290D01*
X184428000Y-72544000D01*
X184345180Y-72544000D01*
X184132190Y-72577734D01*
X183927098Y-72644372D01*
X183734963Y-72742271D01*
X183560503Y-72869025D01*
X183560502Y-72869025D01*
X183408025Y-73021502D01*
X183408025Y-73021503D01*
X183281271Y-73195963D01*
X183183372Y-73388098D01*
X183116733Y-73593190D01*
X183105519Y-73664000D01*
X184135291Y-73664000D01*
X184123548Y-73684339D01*
X184083000Y-73835667D01*
X184083000Y-73992333D01*
X184123548Y-74143661D01*
X184135291Y-74164000D01*
X183105519Y-74164000D01*
X183116733Y-74234809D01*
X183183372Y-74439901D01*
X183281271Y-74632036D01*
X183408025Y-74806496D01*
X183408025Y-74806497D01*
X183550107Y-74948579D01*
X183583592Y-75009902D01*
X183578608Y-75079594D01*
X183536736Y-75135527D01*
X183514840Y-75148638D01*
X183513672Y-75149182D01*
X183364342Y-75241289D01*
X183240289Y-75365342D01*
X183148187Y-75514663D01*
X183148186Y-75514666D01*
X183093001Y-75681203D01*
X183093001Y-75681204D01*
X183093000Y-75681204D01*
X183082500Y-75783983D01*
X171542500Y-75783983D01*
X171542500Y-65783983D01*
X183082500Y-65783983D01*
X183082500Y-67124001D01*
X183082501Y-67124018D01*
X183093000Y-67226796D01*
X183093001Y-67226799D01*
X183146704Y-67388861D01*
X183148186Y-67393334D01*
X183240288Y-67542656D01*
X183364344Y-67666712D01*
X183513666Y-67758814D01*
X183680203Y-67813999D01*
X183782991Y-67824500D01*
X185573008Y-67824499D01*
X185675797Y-67813999D01*
X185842334Y-67758814D01*
X185991656Y-67666712D01*
X186115712Y-67542656D01*
X186207814Y-67393334D01*
X186262999Y-67226797D01*
X186273500Y-67124009D01*
X186273499Y-65783992D01*
X186262999Y-65681203D01*
X186207814Y-65514666D01*
X186115712Y-65365344D01*
X185991656Y-65241288D01*
X185842334Y-65149186D01*
X185842332Y-65149185D01*
X185842325Y-65149181D01*
X185841165Y-65148640D01*
X185840503Y-65148057D01*
X185836187Y-65145395D01*
X185836642Y-65144657D01*
X185788727Y-65102466D01*
X185769577Y-65035272D01*
X185789795Y-64968392D01*
X185805892Y-64948578D01*
X185947977Y-64806493D01*
X186074728Y-64632036D01*
X186172627Y-64439901D01*
X186239266Y-64234809D01*
X186250481Y-64164000D01*
X185220709Y-64164000D01*
X185232452Y-64143661D01*
X185273000Y-63992333D01*
X185273000Y-63835667D01*
X185232452Y-63684339D01*
X185220709Y-63664000D01*
X186250481Y-63664000D01*
X186239266Y-63593190D01*
X186172627Y-63388098D01*
X186074728Y-63195963D01*
X185947974Y-63021503D01*
X185947974Y-63021502D01*
X185795497Y-62869025D01*
X185621036Y-62742271D01*
X185428901Y-62644372D01*
X185223809Y-62577734D01*
X185010820Y-62544000D01*
X184928000Y-62544000D01*
X184928000Y-63371290D01*
X184907661Y-63359548D01*
X184756333Y-63319000D01*
X184599667Y-63319000D01*
X184448339Y-63359548D01*
X184428000Y-63371290D01*
X184428000Y-62544000D01*
X184345180Y-62544000D01*
X184132190Y-62577734D01*
X183927098Y-62644372D01*
X183734963Y-62742271D01*
X183560503Y-62869025D01*
X183560502Y-62869025D01*
X183408025Y-63021502D01*
X183408025Y-63021503D01*
X183281271Y-63195963D01*
X183183372Y-63388098D01*
X183116733Y-63593190D01*
X183105519Y-63664000D01*
X184135291Y-63664000D01*
X184123548Y-63684339D01*
X184083000Y-63835667D01*
X184083000Y-63992333D01*
X184123548Y-64143661D01*
X184135291Y-64164000D01*
X183105519Y-64164000D01*
X183116733Y-64234809D01*
X183183372Y-64439901D01*
X183281271Y-64632036D01*
X183408025Y-64806496D01*
X183408025Y-64806497D01*
X183550107Y-64948579D01*
X183583592Y-65009902D01*
X183578608Y-65079594D01*
X183536736Y-65135527D01*
X183514840Y-65148638D01*
X183513672Y-65149182D01*
X183364342Y-65241289D01*
X183240289Y-65365342D01*
X183148187Y-65514663D01*
X183148185Y-65514668D01*
X183126555Y-65579943D01*
X183093001Y-65681203D01*
X183093001Y-65681204D01*
X183093000Y-65681204D01*
X183082500Y-65783983D01*
X171542500Y-65783983D01*
X171542500Y-58128059D01*
X171542501Y-58128046D01*
X171542501Y-57959945D01*
X171542501Y-57959943D01*
X171501577Y-57807215D01*
X171486311Y-57780775D01*
X171465459Y-57744657D01*
X171465458Y-57744656D01*
X171422521Y-57670286D01*
X171422520Y-57670284D01*
X171310716Y-57558480D01*
X171310715Y-57558479D01*
X171306385Y-57554149D01*
X171306374Y-57554139D01*
X169851218Y-56098983D01*
X180141500Y-56098983D01*
X180141500Y-57439001D01*
X180141501Y-57439018D01*
X180152000Y-57541796D01*
X180152001Y-57541799D01*
X180157529Y-57558480D01*
X180207186Y-57708334D01*
X180299288Y-57857656D01*
X180423344Y-57981712D01*
X180572666Y-58073814D01*
X180739203Y-58128999D01*
X180841991Y-58139500D01*
X182632008Y-58139499D01*
X182734797Y-58128999D01*
X182901334Y-58073814D01*
X183050656Y-57981712D01*
X183174712Y-57857656D01*
X183266814Y-57708334D01*
X183321999Y-57541797D01*
X183332500Y-57439009D01*
X183332499Y-56098992D01*
X183321999Y-55996203D01*
X183266814Y-55829666D01*
X183174712Y-55680344D01*
X183050656Y-55556288D01*
X182901334Y-55464186D01*
X182901332Y-55464185D01*
X182901325Y-55464181D01*
X182900165Y-55463640D01*
X182899503Y-55463057D01*
X182895187Y-55460395D01*
X182895642Y-55459657D01*
X182847727Y-55417466D01*
X182828577Y-55350272D01*
X182848795Y-55283392D01*
X182864892Y-55263578D01*
X183006977Y-55121493D01*
X183133728Y-54947036D01*
X183231627Y-54754901D01*
X183298266Y-54549809D01*
X183309481Y-54479000D01*
X182279709Y-54479000D01*
X182291452Y-54458661D01*
X182332000Y-54307333D01*
X182332000Y-54150667D01*
X182291452Y-53999339D01*
X182279709Y-53979000D01*
X183309481Y-53979000D01*
X183298266Y-53908190D01*
X183231627Y-53703098D01*
X183133728Y-53510963D01*
X183006974Y-53336503D01*
X183006974Y-53336502D01*
X182854497Y-53184025D01*
X182680036Y-53057271D01*
X182487901Y-52959372D01*
X182282809Y-52892734D01*
X182069820Y-52859000D01*
X181987000Y-52859000D01*
X181987000Y-53686290D01*
X181966661Y-53674548D01*
X181815333Y-53634000D01*
X181658667Y-53634000D01*
X181507339Y-53674548D01*
X181487000Y-53686290D01*
X181487000Y-52859000D01*
X181404180Y-52859000D01*
X181191190Y-52892734D01*
X180986098Y-52959372D01*
X180793963Y-53057271D01*
X180619503Y-53184025D01*
X180619502Y-53184025D01*
X180467025Y-53336502D01*
X180467025Y-53336503D01*
X180340271Y-53510963D01*
X180242372Y-53703098D01*
X180175733Y-53908190D01*
X180164519Y-53979000D01*
X181194291Y-53979000D01*
X181182548Y-53999339D01*
X181142000Y-54150667D01*
X181142000Y-54307333D01*
X181182548Y-54458661D01*
X181194291Y-54479000D01*
X180164519Y-54479000D01*
X180175733Y-54549809D01*
X180242372Y-54754901D01*
X180340271Y-54947036D01*
X180467025Y-55121496D01*
X180467025Y-55121497D01*
X180609107Y-55263579D01*
X180642592Y-55324902D01*
X180637608Y-55394594D01*
X180595736Y-55450527D01*
X180573840Y-55463638D01*
X180572672Y-55464182D01*
X180423342Y-55556289D01*
X180299289Y-55680342D01*
X180207187Y-55829663D01*
X180207185Y-55829668D01*
X180180077Y-55911476D01*
X180152001Y-55996203D01*
X180152001Y-55996204D01*
X180152000Y-55996204D01*
X180141500Y-56098983D01*
X169851218Y-56098983D01*
X168381590Y-54629355D01*
X168381588Y-54629352D01*
X168262717Y-54510481D01*
X168262709Y-54510475D01*
X168160936Y-54451717D01*
X168160934Y-54451716D01*
X168125790Y-54431425D01*
X168125789Y-54431424D01*
X168113263Y-54428067D01*
X167973057Y-54390499D01*
X167814943Y-54390499D01*
X167807347Y-54390499D01*
X167807331Y-54390500D01*
X159292412Y-54390500D01*
X159225373Y-54370815D01*
X159215097Y-54363445D01*
X159212263Y-54361185D01*
X159212262Y-54361184D01*
X159126559Y-54307333D01*
X159059523Y-54265211D01*
X158889254Y-54205631D01*
X158889249Y-54205630D01*
X158703081Y-54184655D01*
X158703297Y-54182732D01*
X158645461Y-54165750D01*
X158599706Y-54112946D01*
X158588500Y-54061435D01*
X158588500Y-45853096D01*
X158608185Y-45786057D01*
X158624810Y-45765424D01*
X158728536Y-45661697D01*
X158789855Y-45628215D01*
X158802311Y-45626163D01*
X158889255Y-45616368D01*
X159059522Y-45556789D01*
X159212262Y-45460816D01*
X159339816Y-45333262D01*
X159435789Y-45180522D01*
X159495368Y-45010255D01*
X159505336Y-44921788D01*
X159515565Y-44831003D01*
X159515565Y-44830996D01*
X159495369Y-44651750D01*
X159495368Y-44651745D01*
X159458199Y-44545522D01*
X159435789Y-44481478D01*
X159406455Y-44434794D01*
X159377706Y-44389039D01*
X159339816Y-44328738D01*
X159212262Y-44201184D01*
X159059523Y-44105211D01*
X158889254Y-44045631D01*
X158889249Y-44045630D01*
X158710004Y-44025435D01*
X158709996Y-44025435D01*
X158530750Y-44045630D01*
X158530745Y-44045631D01*
X158360476Y-44105211D01*
X158207737Y-44201184D01*
X158080184Y-44328737D01*
X157984210Y-44481478D01*
X157924630Y-44651750D01*
X157914837Y-44738668D01*
X157887770Y-44803082D01*
X157879298Y-44812465D01*
X157619286Y-45072478D01*
X157507481Y-45184282D01*
X157507480Y-45184284D01*
X157460573Y-45265530D01*
X157445347Y-45291902D01*
X157430700Y-45317272D01*
X157428423Y-45321215D01*
X157387499Y-45473943D01*
X157387499Y-45473945D01*
X157387499Y-45642046D01*
X157387500Y-45642059D01*
X157387500Y-63298587D01*
X157367815Y-63365626D01*
X157360450Y-63375896D01*
X157358186Y-63378734D01*
X157262211Y-63531476D01*
X157202631Y-63701745D01*
X157202630Y-63701750D01*
X157182435Y-63880996D01*
X157182435Y-63881002D01*
X157199405Y-64031616D01*
X157187351Y-64100438D01*
X157140002Y-64151818D01*
X157076185Y-64169500D01*
X141298412Y-64169500D01*
X141231373Y-64149815D01*
X141221097Y-64142445D01*
X141218263Y-64140185D01*
X141218262Y-64140184D01*
X141149553Y-64097011D01*
X141065523Y-64044211D01*
X140895254Y-63984631D01*
X140895249Y-63984630D01*
X140716004Y-63964435D01*
X140715996Y-63964435D01*
X140536750Y-63984630D01*
X140536745Y-63984631D01*
X140366476Y-64044211D01*
X140213737Y-64140184D01*
X140086184Y-64267737D01*
X139990211Y-64420476D01*
X139930631Y-64590745D01*
X139930630Y-64590750D01*
X139910435Y-64769996D01*
X134072239Y-64769996D01*
X141690520Y-57151716D01*
X141769577Y-57014784D01*
X141810501Y-56862057D01*
X141810501Y-56843410D01*
X141830186Y-56776371D01*
X141837559Y-56766091D01*
X141839809Y-56763268D01*
X141839816Y-56763262D01*
X141935789Y-56610522D01*
X141995368Y-56440255D01*
X142015565Y-56261000D01*
X141997311Y-56098992D01*
X141995369Y-56081750D01*
X141995368Y-56081745D01*
X141965436Y-55996204D01*
X141935789Y-55911478D01*
X141839816Y-55758738D01*
X141712262Y-55631184D01*
X141706907Y-55627819D01*
X141559523Y-55535211D01*
X141389254Y-55475631D01*
X141389249Y-55475630D01*
X141210004Y-55455435D01*
X141209996Y-55455435D01*
X141030750Y-55475630D01*
X141030745Y-55475631D01*
X140860476Y-55535211D01*
X140707737Y-55631184D01*
X140580184Y-55758737D01*
X140484211Y-55911476D01*
X140424631Y-56081745D01*
X140424630Y-56081750D01*
X140404435Y-56260996D01*
X140404435Y-56261003D01*
X140424630Y-56440249D01*
X140424633Y-56440262D01*
X140471186Y-56573301D01*
X140474748Y-56643080D01*
X140441826Y-56701937D01*
X139077914Y-58065848D01*
X139016591Y-58099333D01*
X138946899Y-58094349D01*
X138890966Y-58052477D01*
X138885239Y-58044139D01*
X138805816Y-57917738D01*
X138805814Y-57917736D01*
X138805813Y-57917734D01*
X138803550Y-57914896D01*
X138802659Y-57912715D01*
X138802111Y-57911842D01*
X138802264Y-57911745D01*
X138777144Y-57850209D01*
X138776500Y-57837587D01*
X138776500Y-55785096D01*
X138796185Y-55718057D01*
X138812814Y-55697420D01*
X141228535Y-53281698D01*
X141289856Y-53248215D01*
X141302311Y-53246163D01*
X141389255Y-53236368D01*
X141559522Y-53176789D01*
X141712262Y-53080816D01*
X141839816Y-52953262D01*
X141935789Y-52800522D01*
X141995368Y-52630255D01*
X142015565Y-52451000D01*
X142012419Y-52423082D01*
X141995369Y-52271750D01*
X141995368Y-52271745D01*
X141935788Y-52101476D01*
X141839815Y-51948737D01*
X141712262Y-51821184D01*
X141559523Y-51725211D01*
X141389254Y-51665631D01*
X141389249Y-51665630D01*
X141210004Y-51645435D01*
X141209996Y-51645435D01*
X141030750Y-51665630D01*
X141030745Y-51665631D01*
X140860476Y-51725211D01*
X140707737Y-51821184D01*
X140580184Y-51948737D01*
X140484210Y-52101478D01*
X140424630Y-52271750D01*
X140414837Y-52358668D01*
X140387770Y-52423082D01*
X140379298Y-52432465D01*
X137807286Y-55004478D01*
X137695481Y-55116282D01*
X137695479Y-55116285D01*
X137692471Y-55121496D01*
X137664320Y-55170255D01*
X137616423Y-55253215D01*
X137575499Y-55405943D01*
X137575499Y-55405945D01*
X137575499Y-55574046D01*
X137575500Y-55574059D01*
X137575500Y-57837587D01*
X137555815Y-57904626D01*
X137548450Y-57914896D01*
X137546186Y-57917734D01*
X137450211Y-58070476D01*
X137390631Y-58240745D01*
X137390630Y-58240750D01*
X137370435Y-58419996D01*
X137370435Y-58420003D01*
X137390630Y-58599249D01*
X137390631Y-58599254D01*
X137450211Y-58769523D01*
X137492743Y-58837211D01*
X137546184Y-58922262D01*
X137673738Y-59049816D01*
X137800139Y-59129239D01*
X137846430Y-59181574D01*
X137857078Y-59250627D01*
X137828703Y-59314476D01*
X137821848Y-59321914D01*
X124599286Y-72544478D01*
X124487481Y-72656282D01*
X124487479Y-72656285D01*
X124481123Y-72667294D01*
X124451027Y-72719423D01*
X124408423Y-72793215D01*
X124367499Y-72945943D01*
X124367499Y-72945945D01*
X124367499Y-73114046D01*
X124367500Y-73114059D01*
X124367500Y-78399330D01*
X124367499Y-78399348D01*
X124367499Y-78565054D01*
X124367498Y-78565054D01*
X100500500Y-78565054D01*
X100500500Y-66160983D01*
X107976500Y-66160983D01*
X107976500Y-67951001D01*
X107976501Y-67951018D01*
X107987000Y-68053796D01*
X107987001Y-68053799D01*
X108042185Y-68220331D01*
X108042187Y-68220336D01*
X108048443Y-68230478D01*
X108134288Y-68369656D01*
X108258344Y-68493712D01*
X108407666Y-68585814D01*
X108574203Y-68640999D01*
X108676991Y-68651500D01*
X110017008Y-68651499D01*
X110119797Y-68640999D01*
X110286334Y-68585814D01*
X110435656Y-68493712D01*
X110559712Y-68369656D01*
X110651814Y-68220334D01*
X110651817Y-68220323D01*
X110652353Y-68219177D01*
X110652934Y-68218516D01*
X110655605Y-68214187D01*
X110656344Y-68214643D01*
X110698521Y-68166734D01*
X110765713Y-68147577D01*
X110832596Y-68167788D01*
X110852420Y-68183892D01*
X110994502Y-68325974D01*
X111168963Y-68452728D01*
X111361098Y-68550627D01*
X111566190Y-68617266D01*
X111637000Y-68628481D01*
X111637000Y-67598709D01*
X111657339Y-67610452D01*
X111808667Y-67651000D01*
X111965333Y-67651000D01*
X112116661Y-67610452D01*
X112137000Y-67598709D01*
X112137000Y-68628480D01*
X112207809Y-68617266D01*
X112412901Y-68550627D01*
X112605036Y-68452728D01*
X112779496Y-68325974D01*
X112779497Y-68325974D01*
X112931974Y-68173497D01*
X112931979Y-68173491D01*
X113056372Y-68002280D01*
X113111702Y-67959614D01*
X113181315Y-67953635D01*
X113243110Y-67986241D01*
X113257008Y-68002279D01*
X113381641Y-68173821D01*
X113534179Y-68326359D01*
X113708701Y-68453157D01*
X113900911Y-68551092D01*
X114106074Y-68617754D01*
X114173796Y-68628480D01*
X114319134Y-68651500D01*
X114319139Y-68651500D01*
X114534866Y-68651500D01*
X114653230Y-68632752D01*
X114747926Y-68617754D01*
X114953089Y-68551092D01*
X115145299Y-68453157D01*
X115319821Y-68326359D01*
X115472359Y-68173821D01*
X115596682Y-68002704D01*
X115652012Y-67960040D01*
X115721626Y-67954061D01*
X115783420Y-67986667D01*
X115797315Y-68002702D01*
X115921641Y-68173821D01*
X116074179Y-68326359D01*
X116248701Y-68453157D01*
X116440911Y-68551092D01*
X116646074Y-68617754D01*
X116713796Y-68628480D01*
X116859134Y-68651500D01*
X116859139Y-68651500D01*
X117074866Y-68651500D01*
X117193230Y-68632752D01*
X117287926Y-68617754D01*
X117493089Y-68551092D01*
X117685299Y-68453157D01*
X117859821Y-68326359D01*
X118012359Y-68173821D01*
X118139157Y-67999299D01*
X118237092Y-67807089D01*
X118303754Y-67601926D01*
X118324624Y-67470160D01*
X118337500Y-67388866D01*
X118337500Y-66723133D01*
X118303754Y-66510077D01*
X118303754Y-66510074D01*
X118237092Y-66304911D01*
X118139157Y-66112701D01*
X118012359Y-65938179D01*
X117859821Y-65785641D01*
X117685299Y-65658843D01*
X117622549Y-65626870D01*
X117571753Y-65578895D01*
X117559071Y-65548483D01*
X117526577Y-65427215D01*
X117510757Y-65399814D01*
X117493832Y-65370499D01*
X117493832Y-65370498D01*
X117447524Y-65290290D01*
X117447521Y-65290286D01*
X117447520Y-65290284D01*
X117335716Y-65178480D01*
X117335715Y-65178479D01*
X117331385Y-65174149D01*
X117331374Y-65174139D01*
X111701700Y-59544465D01*
X111668215Y-59483142D01*
X111666163Y-59470686D01*
X111656368Y-59383745D01*
X111596789Y-59213478D01*
X111500816Y-59060738D01*
X111373262Y-58933184D01*
X111328503Y-58905060D01*
X111220523Y-58837211D01*
X111050254Y-58777631D01*
X111050249Y-58777630D01*
X110871004Y-58757435D01*
X110870996Y-58757435D01*
X110691750Y-58777630D01*
X110691745Y-58777631D01*
X110521476Y-58837211D01*
X110368737Y-58933184D01*
X110309181Y-58992741D01*
X110247858Y-59026226D01*
X110178166Y-59021242D01*
X110122233Y-58979370D01*
X110097816Y-58913906D01*
X110097500Y-58905060D01*
X110097500Y-57385229D01*
X110117185Y-57318190D01*
X110133819Y-57297548D01*
X113177548Y-54253819D01*
X113238871Y-54220334D01*
X113265229Y-54217500D01*
X134201028Y-54217500D01*
X134241983Y-54224458D01*
X134321745Y-54252368D01*
X134321750Y-54252369D01*
X134500996Y-54272565D01*
X134501000Y-54272565D01*
X134501004Y-54272565D01*
X134680249Y-54252369D01*
X134680252Y-54252368D01*
X134680255Y-54252368D01*
X134850522Y-54192789D01*
X135003262Y-54096816D01*
X135130816Y-53969262D01*
X135226789Y-53816522D01*
X135286368Y-53646255D01*
X135306565Y-53467000D01*
X135286368Y-53287745D01*
X135226789Y-53117478D01*
X135130816Y-52964738D01*
X135003262Y-52837184D01*
X134947138Y-52801919D01*
X134850523Y-52741211D01*
X134680254Y-52681631D01*
X134680249Y-52681630D01*
X134501004Y-52661435D01*
X134500996Y-52661435D01*
X134321750Y-52681630D01*
X134321745Y-52681631D01*
X134241983Y-52709542D01*
X134201028Y-52716500D01*
X112829080Y-52716500D01*
X112684092Y-52745340D01*
X112684082Y-52745343D01*
X112547511Y-52801912D01*
X112547498Y-52801919D01*
X112424584Y-52884048D01*
X112424580Y-52884051D01*
X108764048Y-56544583D01*
X108741946Y-56577662D01*
X108719991Y-56610522D01*
X108700953Y-56639013D01*
X108681916Y-56667504D01*
X108681912Y-56667511D01*
X108625343Y-56804082D01*
X108625340Y-56804092D01*
X108596500Y-56949079D01*
X108596500Y-65374071D01*
X108576815Y-65441110D01*
X108524011Y-65486865D01*
X108511505Y-65491777D01*
X108407666Y-65526186D01*
X108407663Y-65526187D01*
X108258342Y-65618289D01*
X108134289Y-65742342D01*
X108042187Y-65891663D01*
X108042185Y-65891668D01*
X108041801Y-65892828D01*
X107987001Y-66058203D01*
X107987001Y-66058204D01*
X107987000Y-66058204D01*
X107976500Y-66160983D01*
X100500500Y-66160983D01*
X100500500Y-44878711D01*
X103149500Y-44878711D01*
X103149500Y-45121288D01*
X103168489Y-45265531D01*
X103181162Y-45361789D01*
X103198741Y-45427395D01*
X103243947Y-45596104D01*
X103336773Y-45820205D01*
X103336776Y-45820212D01*
X103458064Y-46030289D01*
X103458066Y-46030292D01*
X103458067Y-46030293D01*
X103605733Y-46222736D01*
X103605739Y-46222743D01*
X103777256Y-46394260D01*
X103777262Y-46394265D01*
X103969711Y-46541936D01*
X104179788Y-46663224D01*
X104403900Y-46756054D01*
X104638211Y-46818838D01*
X104818586Y-46842584D01*
X104878711Y-46850500D01*
X104878712Y-46850500D01*
X105121289Y-46850500D01*
X105169388Y-46844167D01*
X105361789Y-46818838D01*
X105596100Y-46756054D01*
X105820212Y-46663224D01*
X106030289Y-46541936D01*
X106222738Y-46394265D01*
X106394265Y-46222738D01*
X106541936Y-46030289D01*
X106663224Y-45820212D01*
X106756054Y-45596100D01*
X106818838Y-45361789D01*
X106850500Y-45121288D01*
X106850500Y-44878712D01*
X106818838Y-44638211D01*
X106756054Y-44403900D01*
X106663224Y-44179788D01*
X106541936Y-43969711D01*
X106394265Y-43777262D01*
X106394260Y-43777256D01*
X106222743Y-43605739D01*
X106222736Y-43605733D01*
X106030293Y-43458067D01*
X106030292Y-43458066D01*
X106030289Y-43458064D01*
X105820212Y-43336776D01*
X105820205Y-43336773D01*
X105596104Y-43243947D01*
X105361785Y-43181161D01*
X105121289Y-43149500D01*
X105121288Y-43149500D01*
X104878712Y-43149500D01*
X104878711Y-43149500D01*
X104638214Y-43181161D01*
X104403895Y-43243947D01*
X104179794Y-43336773D01*
X104179785Y-43336777D01*
X103969706Y-43458067D01*
X103777263Y-43605733D01*
X103777256Y-43605739D01*
X103605739Y-43777256D01*
X103605733Y-43777263D01*
X103458067Y-43969706D01*
X103336777Y-44179785D01*
X103336773Y-44179794D01*
X103243947Y-44403895D01*
X103181161Y-44638214D01*
X103149500Y-44878711D01*
X100500500Y-44878711D01*
X100500500Y-42290996D01*
X157904435Y-42290996D01*
X157904435Y-42291003D01*
X157924630Y-42470249D01*
X157924631Y-42470254D01*
X157984211Y-42640523D01*
X158080184Y-42793262D01*
X158207738Y-42920816D01*
X158360478Y-43016789D01*
X158530745Y-43076368D01*
X158530750Y-43076369D01*
X158709996Y-43096565D01*
X158710000Y-43096565D01*
X158710004Y-43096565D01*
X158889249Y-43076369D01*
X158889252Y-43076368D01*
X158889255Y-43076368D01*
X159059522Y-43016789D01*
X159212262Y-42920816D01*
X159212267Y-42920810D01*
X159215097Y-42918555D01*
X159217275Y-42917665D01*
X159218158Y-42917111D01*
X159218255Y-42917265D01*
X159279783Y-42892145D01*
X159292412Y-42891500D01*
X174983185Y-42891500D01*
X175050224Y-42911185D01*
X175095979Y-42963989D01*
X175106405Y-43029384D01*
X175089435Y-43179997D01*
X175089435Y-43180003D01*
X175109630Y-43359249D01*
X175109631Y-43359254D01*
X175169211Y-43529523D01*
X175217099Y-43605735D01*
X175265184Y-43682262D01*
X175392738Y-43809816D01*
X175545478Y-43905789D01*
X175715745Y-43965368D01*
X175715750Y-43965369D01*
X175894996Y-43985565D01*
X175895000Y-43985565D01*
X175895004Y-43985565D01*
X176074249Y-43965369D01*
X176074252Y-43965368D01*
X176074255Y-43965368D01*
X176244522Y-43905789D01*
X176397262Y-43809816D01*
X176524816Y-43682262D01*
X176524818Y-43682258D01*
X176529163Y-43676812D01*
X176530717Y-43678052D01*
X176575715Y-43638242D01*
X176628386Y-43626500D01*
X180847867Y-43626500D01*
X180914906Y-43646185D01*
X180960661Y-43698989D01*
X180970605Y-43768147D01*
X180965798Y-43788819D01*
X180937733Y-43875190D01*
X180926519Y-43946000D01*
X181956291Y-43946000D01*
X181944548Y-43966339D01*
X181904000Y-44117667D01*
X181904000Y-44274333D01*
X181944548Y-44425661D01*
X181956291Y-44446000D01*
X180926519Y-44446000D01*
X180937733Y-44516809D01*
X181004372Y-44721901D01*
X181102271Y-44914036D01*
X181229025Y-45088496D01*
X181229025Y-45088497D01*
X181371107Y-45230579D01*
X181404592Y-45291902D01*
X181399608Y-45361594D01*
X181357736Y-45417527D01*
X181335840Y-45430638D01*
X181334672Y-45431182D01*
X181185342Y-45523289D01*
X181061289Y-45647342D01*
X180969187Y-45796663D01*
X180969185Y-45796668D01*
X180961383Y-45820214D01*
X180914001Y-45963203D01*
X180914001Y-45963204D01*
X180914000Y-45963204D01*
X180903500Y-46065983D01*
X180903500Y-47406001D01*
X180903501Y-47406018D01*
X180914000Y-47508796D01*
X180914001Y-47508799D01*
X180969185Y-47675331D01*
X180969186Y-47675334D01*
X181061288Y-47824656D01*
X181185344Y-47948712D01*
X181334666Y-48040814D01*
X181501203Y-48095999D01*
X181603991Y-48106500D01*
X183394008Y-48106499D01*
X183496797Y-48095999D01*
X183663334Y-48040814D01*
X183812656Y-47948712D01*
X183936712Y-47824656D01*
X184028814Y-47675334D01*
X184083999Y-47508797D01*
X184094500Y-47406009D01*
X184094499Y-46065992D01*
X184083999Y-45963203D01*
X184028814Y-45796666D01*
X183936712Y-45647344D01*
X183812656Y-45523288D01*
X183663334Y-45431186D01*
X183663332Y-45431185D01*
X183663325Y-45431181D01*
X183662165Y-45430640D01*
X183661503Y-45430057D01*
X183657187Y-45427395D01*
X183657642Y-45426657D01*
X183609727Y-45384466D01*
X183590577Y-45317272D01*
X183610795Y-45250392D01*
X183626892Y-45230578D01*
X183768977Y-45088493D01*
X183895730Y-44914034D01*
X183936959Y-44833117D01*
X183984933Y-44782321D01*
X184052754Y-44765525D01*
X184118889Y-44788062D01*
X184135125Y-44801730D01*
X191641181Y-52307786D01*
X191674666Y-52369109D01*
X191677500Y-52395467D01*
X191677500Y-92381587D01*
X191657815Y-92448626D01*
X191650450Y-92458896D01*
X191648186Y-92461734D01*
X191552211Y-92614476D01*
X191492631Y-92784745D01*
X191492630Y-92784750D01*
X191472435Y-92963996D01*
X191472435Y-92964003D01*
X191492630Y-93143249D01*
X191492631Y-93143254D01*
X191552211Y-93313523D01*
X191627919Y-93434011D01*
X191648184Y-93466262D01*
X191775738Y-93593816D01*
X191928478Y-93689789D01*
X192098745Y-93749368D01*
X192098750Y-93749369D01*
X192277996Y-93769565D01*
X192278000Y-93769565D01*
X192278004Y-93769565D01*
X192457249Y-93749369D01*
X192457252Y-93749368D01*
X192457255Y-93749368D01*
X192627522Y-93689789D01*
X192780262Y-93593816D01*
X192907816Y-93466262D01*
X193003789Y-93313522D01*
X193063368Y-93143255D01*
X193063369Y-93143249D01*
X193083565Y-92964003D01*
X193083565Y-92963996D01*
X193063369Y-92784750D01*
X193063368Y-92784745D01*
X193034181Y-92701334D01*
X193003789Y-92614478D01*
X193002914Y-92613086D01*
X192923990Y-92487479D01*
X192907816Y-92461738D01*
X192907814Y-92461736D01*
X192907813Y-92461734D01*
X192905550Y-92458896D01*
X192904659Y-92456715D01*
X192904111Y-92455842D01*
X192904264Y-92455745D01*
X192879144Y-92394209D01*
X192878500Y-92381587D01*
X192878500Y-52016315D01*
X192878500Y-52016313D01*
X192837577Y-51863586D01*
X192837577Y-51863585D01*
X192837577Y-51863584D01*
X192808639Y-51813465D01*
X192808637Y-51813462D01*
X192758520Y-51726654D01*
X192646716Y-51614850D01*
X192646715Y-51614849D01*
X192642385Y-51610519D01*
X192642374Y-51610509D01*
X184135046Y-43103181D01*
X184101561Y-43041858D01*
X184106545Y-42972166D01*
X184148417Y-42916233D01*
X184213881Y-42891816D01*
X184222727Y-42891500D01*
X187532903Y-42891500D01*
X187599942Y-42911185D01*
X187620584Y-42927819D01*
X188907298Y-44214533D01*
X188940783Y-44275856D01*
X188942837Y-44288330D01*
X188952630Y-44375249D01*
X189012210Y-44545521D01*
X189091757Y-44672118D01*
X189108184Y-44698262D01*
X189235738Y-44825816D01*
X189388478Y-44921789D01*
X189558745Y-44981368D01*
X189558750Y-44981369D01*
X189737996Y-45001565D01*
X189738000Y-45001565D01*
X189738004Y-45001565D01*
X189917249Y-44981369D01*
X189917252Y-44981368D01*
X189917255Y-44981368D01*
X190087522Y-44921789D01*
X190156080Y-44878711D01*
X193149500Y-44878711D01*
X193149500Y-45121288D01*
X193168489Y-45265531D01*
X193181162Y-45361789D01*
X193198741Y-45427395D01*
X193243947Y-45596104D01*
X193336773Y-45820205D01*
X193336776Y-45820212D01*
X193458064Y-46030289D01*
X193458066Y-46030292D01*
X193458067Y-46030293D01*
X193605733Y-46222736D01*
X193605739Y-46222743D01*
X193777256Y-46394260D01*
X193777262Y-46394265D01*
X193969711Y-46541936D01*
X194179788Y-46663224D01*
X194403900Y-46756054D01*
X194638211Y-46818838D01*
X194818586Y-46842584D01*
X194878711Y-46850500D01*
X194878712Y-46850500D01*
X195121289Y-46850500D01*
X195169388Y-46844167D01*
X195361789Y-46818838D01*
X195596100Y-46756054D01*
X195820212Y-46663224D01*
X196030289Y-46541936D01*
X196222738Y-46394265D01*
X196394265Y-46222738D01*
X196541936Y-46030289D01*
X196663224Y-45820212D01*
X196756054Y-45596100D01*
X196818838Y-45361789D01*
X196850500Y-45121288D01*
X196850500Y-44878712D01*
X196818838Y-44638211D01*
X196756054Y-44403900D01*
X196663224Y-44179788D01*
X196541936Y-43969711D01*
X196394265Y-43777262D01*
X196394260Y-43777256D01*
X196222743Y-43605739D01*
X196222736Y-43605733D01*
X196030293Y-43458067D01*
X196030292Y-43458066D01*
X196030289Y-43458064D01*
X195820212Y-43336776D01*
X195820205Y-43336773D01*
X195596104Y-43243947D01*
X195361785Y-43181161D01*
X195121289Y-43149500D01*
X195121288Y-43149500D01*
X194878712Y-43149500D01*
X194878711Y-43149500D01*
X194638214Y-43181161D01*
X194403895Y-43243947D01*
X194179794Y-43336773D01*
X194179785Y-43336777D01*
X193969706Y-43458067D01*
X193777263Y-43605733D01*
X193777256Y-43605739D01*
X193605739Y-43777256D01*
X193605733Y-43777263D01*
X193458067Y-43969706D01*
X193336777Y-44179785D01*
X193336773Y-44179794D01*
X193243947Y-44403895D01*
X193181161Y-44638214D01*
X193149500Y-44878711D01*
X190156080Y-44878711D01*
X190240262Y-44825816D01*
X190367816Y-44698262D01*
X190463789Y-44545522D01*
X190523368Y-44375255D01*
X190528609Y-44328738D01*
X190543565Y-44196003D01*
X190543565Y-44195996D01*
X190523369Y-44016750D01*
X190523368Y-44016745D01*
X190463788Y-43846476D01*
X190367815Y-43693737D01*
X190240262Y-43566184D01*
X190087521Y-43470210D01*
X189917249Y-43410630D01*
X189830330Y-43400837D01*
X189765916Y-43373770D01*
X189756533Y-43365298D01*
X188320590Y-41929355D01*
X188320588Y-41929352D01*
X188201717Y-41810481D01*
X188201709Y-41810475D01*
X188099936Y-41751717D01*
X188099934Y-41751716D01*
X188064790Y-41731425D01*
X188064789Y-41731424D01*
X188052263Y-41728067D01*
X187912057Y-41690499D01*
X187753943Y-41690499D01*
X187746347Y-41690499D01*
X187746331Y-41690500D01*
X159292412Y-41690500D01*
X159225373Y-41670815D01*
X159215097Y-41663445D01*
X159212263Y-41661185D01*
X159212262Y-41661184D01*
X159155496Y-41625515D01*
X159059523Y-41565211D01*
X158889254Y-41505631D01*
X158889249Y-41505630D01*
X158710004Y-41485435D01*
X158709996Y-41485435D01*
X158530750Y-41505630D01*
X158530745Y-41505631D01*
X158360476Y-41565211D01*
X158207737Y-41661184D01*
X158080184Y-41788737D01*
X157984211Y-41941476D01*
X157924631Y-42111745D01*
X157924630Y-42111750D01*
X157904435Y-42290996D01*
X100500500Y-42290996D01*
X100500500Y-40499500D01*
X100520185Y-40432461D01*
X100572989Y-40386706D01*
X100624500Y-40375500D01*
X199375500Y-40375500D01*
X199442539Y-40395185D01*
G37*
%TD.AperFunction*%
%TD*%
M02*
