M48
; DRILL file {KiCad 8.0.8} date 2025-03-29T16:04:38-0500
; FORMAT={-:-/ absolute / inch / decimal}
; #@! TF.CreationDate,2025-03-29T16:04:38-05:00
; #@! TF.GenerationSoftware,Kicad,Pcbnew,8.0.8
; #@! TF.FileFunction,Plated,1,2,PTH
FMAT,2
INCH
; #@! TA.AperFunction,Plated,PTH,ComponentDrill
T1C0.0079
; #@! TA.AperFunction,Plated,PTH,ViaDrill
T2C0.0118
; #@! TA.AperFunction,Plated,PTH,ComponentDrill
T3C0.0236
; #@! TA.AperFunction,Plated,PTH,ComponentDrill
T4C0.0311
; #@! TA.AperFunction,Plated,PTH,ComponentDrill
T5C0.0335
; #@! TA.AperFunction,Plated,PTH,ComponentDrill
T6C0.0469
; #@! TA.AperFunction,Plated,PTH,ComponentDrill
T7C0.0500
; #@! TA.AperFunction,Plated,PTH,ComponentDrill
T8C0.0540
%
G90
G05
T1
X5.7898Y-1.8914
X5.7898Y-1.9465
X5.8173Y-1.8638
X5.8173Y-1.9189
X5.8173Y-1.9741
X5.8439Y-1.8914
X5.8439Y-1.9465
X5.8724Y-1.8638
X5.8724Y-1.9189
X5.8724Y-1.9741
X5.9Y-1.8914
X5.9Y-1.9465
T2
X4.315Y-3.16
X4.36Y-3.33
X4.365Y-2.345
X4.98Y-3.98
X5.2953Y-2.105
X5.44Y-2.3
X5.52Y-4.16
X5.53Y-2.625
X5.54Y-2.55
X5.5594Y-2.065
X5.5594Y-2.215
X5.6791Y-2.3142
X5.7Y-3.98
X5.745Y-3.71
X5.7603Y-4.38
X5.805Y-4.38
X6.17Y-4.075
X6.22Y-2.515
X6.23Y-4.84
X6.2484Y-1.665
X6.2484Y-1.765
X6.2484Y-2.165
X6.41Y-3.765
X6.455Y-2.675
X6.505Y-3.11
X6.5373Y-4.5196
X6.66Y-2.7
X6.665Y-4.145
X6.67Y-3.105
X6.725Y-3.655
X6.73Y-3.27
X6.925Y-1.7
X6.94Y-3.705
X7.47Y-1.74
X7.57Y-3.66
T4
X5.305Y-2.915
X5.405Y-2.915
X5.505Y-2.915
T5
X5.8071Y-5.2787
X6.0039Y-5.2787
T6
X4.1339Y-4.22
X4.1339Y-4.32
X4.305Y-2.64
X4.405Y-2.64
X4.505Y-2.64
X4.605Y-2.64
X5.35Y-3.28
X5.45Y-3.28
X6.07Y-3.865
X6.08Y-3.365
X6.09Y-2.885
X6.17Y-3.865
X6.18Y-3.365
X6.19Y-2.885
X6.27Y-3.865
X6.28Y-3.365
X6.29Y-2.885
X7.155Y-2.135
X7.155Y-2.235
X7.185Y-1.74
X7.185Y-1.84
X7.215Y-4.715
X7.22Y-4.23
X7.24Y-3.45
X7.24Y-3.83
X7.2708Y-2.5163
X7.2708Y-2.6163
X7.2708Y-2.91
X7.2708Y-3.01
X7.315Y-4.715
X7.32Y-4.23
X7.34Y-3.45
X7.34Y-3.83
T7
X4.1339Y-3.737
X4.1339Y-3.837
X4.1339Y-3.937
T8
X4.135Y-3.155
X4.135Y-3.255
X4.135Y-3.355
T3
G00X5.7677Y-5.3988
M15
G01X5.7677Y-5.3712
M16
G05
G00X6.0433Y-5.3712
M15
G01X6.0433Y-5.3988
M16
G05
M30
