M48
; DRILL file {KiCad 8.0.8} date 2025-03-30T01:40:15-0500
; FORMAT={-:-/ absolute / inch / decimal}
; #@! TF.CreationDate,2025-03-30T01:40:15-05:00
; #@! TF.GenerationSoftware,Kicad,Pcbnew,8.0.8
; #@! TF.FileFunction,Plated,1,2,PTH
FMAT,2
INCH
; #@! TA.AperFunction,Plated,PTH,ComponentDrill
T1C0.0079
; #@! TA.AperFunction,Plated,PTH,ViaDrill
T2C0.0118
; #@! TA.AperFunction,Plated,PTH,ComponentDrill
T3C0.0236
; #@! TA.AperFunction,Plated,PTH,ComponentDrill
T4C0.0311
; #@! TA.AperFunction,Plated,PTH,ComponentDrill
T5C0.0335
; #@! TA.AperFunction,Plated,PTH,ComponentDrill
T6C0.0469
; #@! TA.AperFunction,Plated,PTH,ComponentDrill
T7C0.0500
; #@! TA.AperFunction,Plated,PTH,ComponentDrill
T8C0.0540
%
G90
G05
T1
X6.6713Y-2.1814
X6.6713Y-2.2365
X6.6989Y-2.1538
X6.6989Y-2.2089
X6.6989Y-2.2641
X6.7255Y-2.1814
X6.7255Y-2.2365
X6.754Y-2.1538
X6.754Y-2.2089
X6.754Y-2.2641
X6.7816Y-2.1814
X6.7816Y-2.2365
T2
X5.408Y-4.805
X5.4134Y-1.9904
X5.705Y-2.195
X5.705Y-2.25
X5.82Y-2.035
X6.075Y-2.08
X6.105Y-2.485
X6.2Y-3.025
X6.255Y-2.39
X6.28Y-4.44
X6.29Y-2.66
X6.31Y-4.52
X6.441Y-2.405
X6.445Y-4.735
X6.47Y-4.955
X6.51Y-3.02
X6.53Y-4.76
X6.57Y-2.835
X6.58Y-4.63
X6.6107Y-2.6042
X6.625Y-4.655
X6.765Y-2.95
X6.89Y-4.375
X6.895Y-2.815
X6.91Y-4.52
X7.035Y-2.795
X7.04Y-4.52
X7.13Y-1.955
X7.13Y-2.005
X7.15Y-3.23
X7.285Y-4.065
X7.36Y-2.81
X7.405Y-4.77
X7.4094Y-4.545
X7.555Y-3.11
X7.625Y-4.295
X7.635Y-2.255
X7.653Y-4.83
X7.7Y-4.83
X7.745Y-4.415
X7.86Y-2.34
X7.96Y-2.76
T4
X6.215Y-3.435
X6.315Y-3.435
X6.415Y-3.435
T5
X6.3976Y-5.4542
X6.5945Y-5.4542
T6
X4.725Y-4.65
X4.725Y-4.75
X5.015Y-3.05
X5.115Y-3.05
X5.215Y-3.05
X5.315Y-3.05
X5.71Y-3.495
X5.81Y-3.495
X6.26Y-3.765
X6.36Y-3.765
X6.845Y-3.495
X6.945Y-3.495
X7.405Y-3.49
X7.505Y-3.49
X7.575Y-2.055
X7.58Y-2.48
X7.675Y-2.055
X7.68Y-2.48
X8.085Y-3.34
X8.095Y-2.945
X8.1Y-2.54
X8.17Y-4.74
X8.17Y-4.84
X8.185Y-3.34
X8.185Y-4.28
X8.185Y-4.38
X8.195Y-2.945
X8.2Y-2.54
X8.2Y-3.84
X8.2Y-3.94
X8.285Y-3.34
X8.295Y-2.945
X8.3Y-2.54
T7
X4.7244Y-4.1307
X4.7244Y-4.2307
X4.7244Y-4.3307
T8
X4.725Y-3.5433
X4.725Y-3.6433
X4.725Y-3.7433
T3
G00X6.3583Y-5.5743
M15
G01X6.3583Y-5.5468
M16
G05
G00X6.6339Y-5.5468
M15
G01X6.6339Y-5.5743
M16
G05
M30
