%TF.GenerationSoftware,KiCad,Pcbnew,8.0.8*%
%TF.CreationDate,2025-03-30T01:40:13-05:00*%
%TF.ProjectId,ECE 445 PCBWay Order 3 March 31st Group 40,45434520-3434-4352-9050-434257617920,rev?*%
%TF.SameCoordinates,Original*%
%TF.FileFunction,Soldermask,Top*%
%TF.FilePolarity,Negative*%
%FSLAX46Y46*%
G04 Gerber Fmt 4.6, Leading zero omitted, Abs format (unit mm)*
G04 Created by KiCad (PCBNEW 8.0.8) date 2025-03-30 01:40:13*
%MOMM*%
%LPD*%
G01*
G04 APERTURE LIST*
G04 Aperture macros list*
%AMRoundRect*
0 Rectangle with rounded corners*
0 $1 Rounding radius*
0 $2 $3 $4 $5 $6 $7 $8 $9 X,Y pos of 4 corners*
0 Add a 4 corners polygon primitive as box body*
4,1,4,$2,$3,$4,$5,$6,$7,$8,$9,$2,$3,0*
0 Add four circle primitives for the rounded corners*
1,1,$1+$1,$2,$3*
1,1,$1+$1,$4,$5*
1,1,$1+$1,$6,$7*
1,1,$1+$1,$8,$9*
0 Add four rect primitives between the rounded corners*
20,1,$1+$1,$2,$3,$4,$5,0*
20,1,$1+$1,$4,$5,$6,$7,0*
20,1,$1+$1,$6,$7,$8,$9,0*
20,1,$1+$1,$8,$9,$2,$3,0*%
G04 Aperture macros list end*
%ADD10R,1.701800X1.701800*%
%ADD11R,0.355600X0.355600*%
%ADD12R,0.812800X0.254000*%
%ADD13R,0.254000X0.812800*%
%ADD14RoundRect,0.250000X-0.350000X-0.450000X0.350000X-0.450000X0.350000X0.450000X-0.350000X0.450000X0*%
%ADD15RoundRect,0.225000X0.225000X0.375000X-0.225000X0.375000X-0.225000X-0.375000X0.225000X-0.375000X0*%
%ADD16RoundRect,0.155000X-0.212500X-0.155000X0.212500X-0.155000X0.212500X0.155000X-0.212500X0.155000X0*%
%ADD17RoundRect,0.150000X-0.850000X-0.150000X0.850000X-0.150000X0.850000X0.150000X-0.850000X0.150000X0*%
%ADD18C,1.879600*%
%ADD19R,1.879600X1.879600*%
%ADD20C,0.600000*%
%ADD21R,3.800000X3.800000*%
%ADD22R,1.500000X0.900000*%
%ADD23R,0.900000X1.500000*%
%ADD24RoundRect,0.102000X-1.050000X-0.700000X1.050000X-0.700000X1.050000X0.700000X-1.050000X0.700000X0*%
%ADD25RoundRect,0.250000X0.350000X0.450000X-0.350000X0.450000X-0.350000X-0.450000X0.350000X-0.450000X0*%
%ADD26RoundRect,0.250000X0.450000X-0.350000X0.450000X0.350000X-0.450000X0.350000X-0.450000X-0.350000X0*%
%ADD27RoundRect,0.160000X-0.197500X-0.160000X0.197500X-0.160000X0.197500X0.160000X-0.197500X0.160000X0*%
%ADD28C,1.502000*%
%ADD29RoundRect,0.102000X-0.649000X-0.649000X0.649000X-0.649000X0.649000X0.649000X-0.649000X0.649000X0*%
%ADD30RoundRect,0.250000X-0.620000X-0.845000X0.620000X-0.845000X0.620000X0.845000X-0.620000X0.845000X0*%
%ADD31O,1.740000X2.190000*%
%ADD32O,2.190000X1.740000*%
%ADD33RoundRect,0.250000X0.845000X-0.620000X0.845000X0.620000X-0.845000X0.620000X-0.845000X-0.620000X0*%
%ADD34RoundRect,0.250000X-0.845000X0.620000X-0.845000X-0.620000X0.845000X-0.620000X0.845000X0.620000X0*%
%ADD35O,1.200000X1.900000*%
%ADD36R,1.200000X1.900000*%
%ADD37C,1.450000*%
%ADD38R,1.500000X1.900000*%
%ADD39R,0.400000X1.350000*%
%ADD40C,3.200000*%
%ADD41RoundRect,0.250000X0.475000X-0.337500X0.475000X0.337500X-0.475000X0.337500X-0.475000X-0.337500X0*%
%ADD42RoundRect,0.155000X0.155000X-0.212500X0.155000X0.212500X-0.155000X0.212500X-0.155000X-0.212500X0*%
%ADD43RoundRect,0.250000X-0.475000X0.337500X-0.475000X-0.337500X0.475000X-0.337500X0.475000X0.337500X0*%
%ADD44C,1.778000*%
G04 APERTURE END LIST*
D10*
%TO.C,U6*%
X165000000Y-115000000D03*
D11*
X163749939Y-113750000D03*
X166250061Y-113750000D03*
X166250061Y-116250000D03*
X163749939Y-116250000D03*
D12*
X163603000Y-115750189D03*
X163603000Y-115250063D03*
X163603000Y-114749937D03*
X163603000Y-114249811D03*
D13*
X164249811Y-113603000D03*
X164749937Y-113603000D03*
X165250063Y-113603000D03*
X165750189Y-113603000D03*
D12*
X166397000Y-114249811D03*
X166397000Y-114749937D03*
X166397000Y-115250063D03*
X166397000Y-115750189D03*
D13*
X165750189Y-116397000D03*
X165250063Y-116397000D03*
X164749937Y-116397000D03*
X164249811Y-116397000D03*
%TD*%
D14*
%TO.C,R16*%
X186087000Y-121158000D03*
X188087000Y-121158000D03*
%TD*%
%TO.C,R15*%
X186198000Y-115443000D03*
X188198000Y-115443000D03*
%TD*%
%TO.C,R14*%
X186198000Y-109474000D03*
X188198000Y-109474000D03*
%TD*%
D15*
%TO.C,D2*%
X178815000Y-114809000D03*
X175515000Y-114809000D03*
%TD*%
D16*
%TO.C,C13*%
X173998000Y-121158000D03*
X175133000Y-121158000D03*
%TD*%
D17*
%TO.C,U5*%
X142500000Y-50555000D03*
X142500000Y-51825000D03*
X142500000Y-53095000D03*
X142500000Y-54365000D03*
X142500000Y-55635000D03*
X142500000Y-56905000D03*
X142500000Y-58175000D03*
X142500000Y-59445000D03*
X137500000Y-59445000D03*
X137500000Y-58175000D03*
X137500000Y-56905000D03*
X137500000Y-55635000D03*
X137500000Y-54365000D03*
X137500000Y-53095000D03*
X137500000Y-51825000D03*
X137500000Y-50555000D03*
%TD*%
D18*
%TO.C,U4*%
X120015000Y-90000000D03*
X120015000Y-92540000D03*
D19*
X120015000Y-95080000D03*
%TD*%
D20*
%TO.C,U1*%
X172252000Y-56807000D03*
X172252000Y-55407000D03*
X171552000Y-57507000D03*
X171552000Y-56107000D03*
X171552000Y-54707000D03*
D21*
X170852000Y-56107000D03*
D20*
X170827000Y-56807000D03*
X170827000Y-55407000D03*
X170152000Y-57507000D03*
X170152000Y-56107000D03*
X170152000Y-54707000D03*
X169452000Y-56807000D03*
X169452000Y-55407000D03*
D22*
X181102000Y-48387000D03*
X181102000Y-49657000D03*
X181102000Y-50927000D03*
X181102000Y-52197000D03*
X181102000Y-53467000D03*
X181102000Y-54737000D03*
X181102000Y-56007000D03*
X181102000Y-57277000D03*
X181102000Y-58547000D03*
X181102000Y-59817000D03*
X181102000Y-61087000D03*
X181102000Y-62357000D03*
X181102000Y-63627000D03*
X181102000Y-64897000D03*
D23*
X178072000Y-66147000D03*
X176802000Y-66147000D03*
X175532000Y-66147000D03*
X174262000Y-66147000D03*
X172992000Y-66147000D03*
X171722000Y-66147000D03*
X170452000Y-66147000D03*
X169182000Y-66147000D03*
X167912000Y-66147000D03*
X166642000Y-66147000D03*
D22*
X163602000Y-64897000D03*
X163602000Y-63627000D03*
X163602000Y-62357000D03*
X163602000Y-61087000D03*
X163602000Y-59817000D03*
X163602000Y-58547000D03*
X163602000Y-57277000D03*
X163602000Y-56007000D03*
X163602000Y-54737000D03*
X163602000Y-53467000D03*
X163602000Y-52197000D03*
X163602000Y-50927000D03*
X163602000Y-49657000D03*
X163602000Y-48387000D03*
%TD*%
D24*
%TO.C,SW2*%
X192050000Y-132250000D03*
X182950000Y-132250000D03*
X192050000Y-127750000D03*
X182950000Y-127750000D03*
%TD*%
%TO.C,SW1*%
X147050000Y-132250000D03*
X137950000Y-132250000D03*
X147050000Y-127750000D03*
X137950000Y-127750000D03*
%TD*%
D14*
%TO.C,R13*%
X136525000Y-65151000D03*
X134525000Y-65151000D03*
%TD*%
%TO.C,R12*%
X133223000Y-59944000D03*
X131223000Y-59944000D03*
%TD*%
%TO.C,R11*%
X161544000Y-81407000D03*
X159544000Y-81407000D03*
%TD*%
%TO.C,R10*%
X147662500Y-81239000D03*
X145662500Y-81239000D03*
%TD*%
%TO.C,R9*%
X176128500Y-81239000D03*
X174128500Y-81239000D03*
%TD*%
%TO.C,R8*%
X190497500Y-80985000D03*
X188497500Y-80985000D03*
%TD*%
D25*
%TO.C,R7*%
X199025000Y-121523000D03*
X201025000Y-121523000D03*
%TD*%
D26*
%TO.C,R6*%
X187071000Y-60357000D03*
X187071000Y-62357000D03*
%TD*%
%TO.C,R5*%
X186690000Y-51578000D03*
X186690000Y-53578000D03*
%TD*%
D25*
%TO.C,R4*%
X199660000Y-98663000D03*
X201660000Y-98663000D03*
%TD*%
%TO.C,R3*%
X199341000Y-109714500D03*
X201341000Y-109714500D03*
%TD*%
D27*
%TO.C,R2*%
X195580000Y-122682000D03*
X194385000Y-122682000D03*
%TD*%
%TO.C,R1*%
X138557000Y-122047000D03*
X137362000Y-122047000D03*
%TD*%
D28*
%TO.C,Q1*%
X162941000Y-87249000D03*
X160401000Y-87249000D03*
D29*
X157861000Y-87249000D03*
%TD*%
D30*
%TO.C,J15*%
X205359000Y-84836000D03*
D31*
X207899000Y-84836000D03*
X210439000Y-84836000D03*
%TD*%
%TO.C,J14*%
X210693000Y-74803000D03*
X208153000Y-74803000D03*
D30*
X205613000Y-74803000D03*
%TD*%
D31*
%TO.C,J13*%
X210820000Y-64516000D03*
X208280000Y-64516000D03*
D30*
X205740000Y-64516000D03*
%TD*%
D31*
%TO.C,J12*%
X161544000Y-95631000D03*
D30*
X159004000Y-95631000D03*
%TD*%
D31*
%TO.C,J11*%
X135001000Y-77470000D03*
X132461000Y-77470000D03*
X129921000Y-77470000D03*
D30*
X127381000Y-77470000D03*
%TD*%
D31*
%TO.C,J10*%
X147574000Y-88773000D03*
D30*
X145034000Y-88773000D03*
%TD*%
D31*
%TO.C,J9*%
X176403000Y-88773000D03*
D30*
X173863000Y-88773000D03*
%TD*%
D31*
%TO.C,J8*%
X190627000Y-88646000D03*
D30*
X188087000Y-88646000D03*
%TD*%
D32*
%TO.C,J7*%
X207518000Y-120396000D03*
D33*
X207518000Y-122936000D03*
%TD*%
D31*
%TO.C,J6*%
X195072000Y-62992000D03*
D30*
X192532000Y-62992000D03*
%TD*%
D31*
%TO.C,J5*%
X194945000Y-52197000D03*
D30*
X192405000Y-52197000D03*
%TD*%
D32*
%TO.C,J4*%
X208280000Y-97536000D03*
D33*
X208280000Y-100076000D03*
%TD*%
D32*
%TO.C,J3*%
X207899000Y-108712000D03*
D33*
X207899000Y-111252000D03*
%TD*%
D32*
%TO.C,J2*%
X120015000Y-120650000D03*
D34*
X120015000Y-118110000D03*
%TD*%
D35*
%TO.C,J1*%
X168500000Y-141237500D03*
D36*
X167900000Y-141237500D03*
D37*
X167500000Y-138537500D03*
D38*
X166000000Y-141237500D03*
X164000000Y-141237500D03*
D37*
X162500000Y-138537500D03*
D36*
X162100000Y-141237500D03*
D35*
X161500000Y-141237500D03*
D39*
X166300000Y-138537500D03*
X165650000Y-138537500D03*
X165000000Y-138537500D03*
X164350000Y-138537500D03*
X163700000Y-138537500D03*
%TD*%
D40*
%TO.C,H4*%
X207500000Y-140000000D03*
%TD*%
%TO.C,H3*%
X122500000Y-140000000D03*
%TD*%
%TO.C,H2*%
X207500000Y-52500000D03*
%TD*%
%TO.C,H1*%
X122500000Y-52500000D03*
%TD*%
D41*
%TO.C,C12*%
X127381000Y-87587000D03*
X127381000Y-89662000D03*
%TD*%
D42*
%TO.C,C11*%
X147828000Y-51689000D03*
X147828000Y-50554000D03*
%TD*%
%TO.C,C10*%
X147955000Y-55888000D03*
X147955000Y-57023000D03*
%TD*%
%TO.C,C9*%
X132080000Y-54999000D03*
X132080000Y-56134000D03*
%TD*%
%TO.C,C8*%
X132207000Y-50427000D03*
X132207000Y-51562000D03*
%TD*%
D41*
%TO.C,C7*%
X126238000Y-102446000D03*
X126238000Y-104521000D03*
%TD*%
D43*
%TO.C,C6*%
X186944000Y-71374000D03*
X186944000Y-69299000D03*
%TD*%
D41*
%TO.C,C5*%
X120142000Y-125560000D03*
X120142000Y-127635000D03*
%TD*%
D16*
%TO.C,C4*%
X180221000Y-119507000D03*
X181356000Y-119507000D03*
%TD*%
D42*
%TO.C,C3*%
X158750000Y-56007000D03*
X158750000Y-54872000D03*
%TD*%
%TO.C,C2*%
X160849500Y-128083500D03*
X160849500Y-129218500D03*
%TD*%
D41*
%TO.C,C1*%
X158242000Y-48746500D03*
X158242000Y-50821500D03*
%TD*%
D44*
%TO.C,U3*%
X120000000Y-110000000D03*
X120000000Y-107460000D03*
X120000000Y-104920000D03*
%TD*%
M02*
