%TF.GenerationSoftware,KiCad,Pcbnew,8.0.8*%
%TF.CreationDate,2025-03-30T01:40:12-05:00*%
%TF.ProjectId,ECE 445 PCBWay Order 3 March 31st Group 40,45434520-3434-4352-9050-434257617920,rev?*%
%TF.SameCoordinates,Original*%
%TF.FileFunction,Copper,L2,Bot*%
%TF.FilePolarity,Positive*%
%FSLAX46Y46*%
G04 Gerber Fmt 4.6, Leading zero omitted, Abs format (unit mm)*
G04 Created by KiCad (PCBNEW 8.0.8) date 2025-03-30 01:40:12*
%MOMM*%
%LPD*%
G01*
G04 APERTURE LIST*
G04 Aperture macros list*
%AMRoundRect*
0 Rectangle with rounded corners*
0 $1 Rounding radius*
0 $2 $3 $4 $5 $6 $7 $8 $9 X,Y pos of 4 corners*
0 Add a 4 corners polygon primitive as box body*
4,1,4,$2,$3,$4,$5,$6,$7,$8,$9,$2,$3,0*
0 Add four circle primitives for the rounded corners*
1,1,$1+$1,$2,$3*
1,1,$1+$1,$4,$5*
1,1,$1+$1,$6,$7*
1,1,$1+$1,$8,$9*
0 Add four rect primitives between the rounded corners*
20,1,$1+$1,$2,$3,$4,$5,0*
20,1,$1+$1,$4,$5,$6,$7,0*
20,1,$1+$1,$6,$7,$8,$9,0*
20,1,$1+$1,$8,$9,$2,$3,0*%
G04 Aperture macros list end*
%TA.AperFunction,ComponentPad*%
%ADD10C,1.879600*%
%TD*%
%TA.AperFunction,ComponentPad*%
%ADD11R,1.879600X1.879600*%
%TD*%
%TA.AperFunction,HeatsinkPad*%
%ADD12C,0.600000*%
%TD*%
%TA.AperFunction,ComponentPad*%
%ADD13C,1.298000*%
%TD*%
%TA.AperFunction,ComponentPad*%
%ADD14R,1.298000X1.298000*%
%TD*%
%TA.AperFunction,ComponentPad*%
%ADD15RoundRect,0.250000X-0.620000X-0.845000X0.620000X-0.845000X0.620000X0.845000X-0.620000X0.845000X0*%
%TD*%
%TA.AperFunction,ComponentPad*%
%ADD16O,1.740000X2.190000*%
%TD*%
%TA.AperFunction,ComponentPad*%
%ADD17O,2.190000X1.740000*%
%TD*%
%TA.AperFunction,ComponentPad*%
%ADD18RoundRect,0.250000X0.845000X-0.620000X0.845000X0.620000X-0.845000X0.620000X-0.845000X-0.620000X0*%
%TD*%
%TA.AperFunction,ComponentPad*%
%ADD19RoundRect,0.250000X-0.845000X0.620000X-0.845000X-0.620000X0.845000X-0.620000X0.845000X0.620000X0*%
%TD*%
%TA.AperFunction,HeatsinkPad*%
%ADD20O,1.200000X1.900000*%
%TD*%
%TA.AperFunction,HeatsinkPad*%
%ADD21C,1.450000*%
%TD*%
%TA.AperFunction,ComponentPad*%
%ADD22C,1.778000*%
%TD*%
%TA.AperFunction,ViaPad*%
%ADD23C,0.600000*%
%TD*%
%TA.AperFunction,Conductor*%
%ADD24C,0.200000*%
%TD*%
%TA.AperFunction,Conductor*%
%ADD25C,1.000000*%
%TD*%
%TA.AperFunction,Conductor*%
%ADD26C,0.500000*%
%TD*%
G04 APERTURE END LIST*
D10*
%TO.P,U4,3,OUT*%
%TO.N,+3.3V*%
X120015000Y-90000000D03*
%TO.P,U4,2,GND*%
%TO.N,GND*%
X120015000Y-92540000D03*
D11*
%TO.P,U4,1,IN*%
%TO.N,+5V*%
X120015000Y-95080000D03*
%TD*%
D12*
%TO.P,U1,39,GND*%
%TO.N,GND*%
X172252000Y-56807000D03*
X172252000Y-55407000D03*
X171552000Y-57507000D03*
X171552000Y-56107000D03*
X171552000Y-54707000D03*
X170827000Y-56807000D03*
X170827000Y-55407000D03*
X170152000Y-57507000D03*
X170152000Y-56107000D03*
X170152000Y-54707000D03*
X169452000Y-56807000D03*
X169452000Y-55407000D03*
%TD*%
D13*
%TO.P,Q1,3*%
%TO.N,Net-(J12-Pin_1)*%
X162941000Y-87249000D03*
%TO.P,Q1,2*%
%TO.N,Net-(Q1-Pad2)*%
X160401000Y-87249000D03*
D14*
%TO.P,Q1,1*%
%TO.N,GND*%
X157861000Y-87249000D03*
%TD*%
D15*
%TO.P,J15,1,Pin_1*%
%TO.N,/Servo Signal 3*%
X205359000Y-84836000D03*
D16*
%TO.P,J15,2,Pin_2*%
%TO.N,+5V*%
X207899000Y-84836000D03*
%TO.P,J15,3,Pin_3*%
%TO.N,GND*%
X210439000Y-84836000D03*
%TD*%
%TO.P,J14,3,Pin_3*%
%TO.N,GND*%
X210693000Y-74803000D03*
%TO.P,J14,2,Pin_2*%
%TO.N,+5V*%
X208153000Y-74803000D03*
D15*
%TO.P,J14,1,Pin_1*%
%TO.N,/Servo Signal 2*%
X205613000Y-74803000D03*
%TD*%
D16*
%TO.P,J13,3,Pin_3*%
%TO.N,GND*%
X210820000Y-64516000D03*
%TO.P,J13,2,Pin_2*%
%TO.N,+5V*%
X208280000Y-64516000D03*
D15*
%TO.P,J13,1,Pin_1*%
%TO.N,/Servo Signal 1*%
X205740000Y-64516000D03*
%TD*%
D16*
%TO.P,J12,2,Pin_2*%
%TO.N,+3.3V*%
X161544000Y-95631000D03*
D15*
%TO.P,J12,1,Pin_1*%
%TO.N,Net-(J12-Pin_1)*%
X159004000Y-95631000D03*
%TD*%
D16*
%TO.P,J11,4,Pin_4*%
%TO.N,/Singal -*%
X135001000Y-77470000D03*
%TO.P,J11,3,Pin_3*%
%TO.N,/Signal +*%
X132461000Y-77470000D03*
%TO.P,J11,2,Pin_2*%
%TO.N,GND*%
X129921000Y-77470000D03*
D15*
%TO.P,J11,1,Pin_1*%
%TO.N,+3.3V*%
X127381000Y-77470000D03*
%TD*%
D16*
%TO.P,J10,2,Pin_2*%
%TO.N,GND*%
X147574000Y-88773000D03*
D15*
%TO.P,J10,1,Pin_1*%
%TO.N,Net-(J10-Pin_1)*%
X145034000Y-88773000D03*
%TD*%
D16*
%TO.P,J9,2,Pin_2*%
%TO.N,GND*%
X176403000Y-88773000D03*
D15*
%TO.P,J9,1,Pin_1*%
%TO.N,Net-(J9-Pin_1)*%
X173863000Y-88773000D03*
%TD*%
D16*
%TO.P,J8,2,Pin_2*%
%TO.N,GND*%
X190627000Y-88646000D03*
D15*
%TO.P,J8,1,Pin_1*%
%TO.N,Net-(J8-Pin_1)*%
X188087000Y-88646000D03*
%TD*%
D17*
%TO.P,J7,2,Pin_2*%
%TO.N,GND*%
X207518000Y-120396000D03*
D18*
%TO.P,J7,1,Pin_1*%
%TO.N,Net-(J7-Pin_1)*%
X207518000Y-122936000D03*
%TD*%
D16*
%TO.P,J6,2,Pin_2*%
%TO.N,GND*%
X195072000Y-62992000D03*
D15*
%TO.P,J6,1,Pin_1*%
%TO.N,Net-(J6-Pin_1)*%
X192532000Y-62992000D03*
%TD*%
D16*
%TO.P,J5,2,Pin_2*%
%TO.N,GND*%
X194945000Y-52197000D03*
D15*
%TO.P,J5,1,Pin_1*%
%TO.N,Net-(J5-Pin_1)*%
X192405000Y-52197000D03*
%TD*%
D17*
%TO.P,J4,2,Pin_2*%
%TO.N,GND*%
X208280000Y-97536000D03*
D18*
%TO.P,J4,1,Pin_1*%
%TO.N,Net-(J4-Pin_1)*%
X208280000Y-100076000D03*
%TD*%
D17*
%TO.P,J3,2,Pin_2*%
%TO.N,GND*%
X207899000Y-108712000D03*
D18*
%TO.P,J3,1,Pin_1*%
%TO.N,Net-(J3-Pin_1)*%
X207899000Y-111252000D03*
%TD*%
D17*
%TO.P,J2,2,Pin_2*%
%TO.N,GND*%
X120015000Y-120650000D03*
D19*
%TO.P,J2,1,Pin_1*%
%TO.N,Net-(J2-Pin_1)*%
X120015000Y-118110000D03*
%TD*%
D20*
%TO.P,J1,6,Shield*%
%TO.N,GND*%
X168500000Y-141237500D03*
D21*
X167500000Y-138537500D03*
X162500000Y-138537500D03*
D20*
X161500000Y-141237500D03*
%TD*%
D22*
%TO.P,U3,1,INPUT*%
%TO.N,Net-(J2-Pin_1)*%
X120000000Y-110000000D03*
%TO.P,U3,2,GROUND*%
%TO.N,GND*%
X120000000Y-107460000D03*
%TO.P,U3,3,OUTPUT*%
%TO.N,+5V*%
X120000000Y-104920000D03*
%TD*%
D23*
%TO.N,GND*%
X196723000Y-112141000D03*
X188087000Y-121158000D03*
X193675000Y-109093000D03*
%TO.N,+3.3V*%
X154305000Y-52832000D03*
X147828000Y-51689000D03*
X137500000Y-50555000D03*
X137362000Y-122047000D03*
X194385000Y-122682000D03*
X178815000Y-114809000D03*
%TO.N,GND*%
X186944000Y-71374000D03*
X202184000Y-70104000D03*
%TO.N,/Servo Signal 3*%
X191897000Y-78994000D03*
%TO.N,/RXD0*%
X160274000Y-114808000D03*
X159512000Y-112776000D03*
X181610000Y-82042000D03*
X175133000Y-71501000D03*
%TO.N,/Refill LED*%
X199644000Y-59436000D03*
X193929000Y-57277000D03*
%TO.N,/Bluetooth LED*%
X185039000Y-103251000D03*
X166878000Y-72009000D03*
%TO.N,/HX711 PD_SCK*%
X144907000Y-57150000D03*
X155067000Y-63119000D03*
%TO.N,/HX711 Digital Output*%
X144907000Y-55753000D03*
X158877000Y-60706000D03*
%TO.N,/Container 1 LED*%
X167912000Y-66147000D03*
X171831000Y-74930000D03*
%TO.N,/Container 2 LED*%
X159766000Y-67564000D03*
X165354000Y-76708000D03*
%TO.N,/Vibration Motor*%
X157480000Y-76835000D03*
X163602000Y-61087000D03*
%TO.N,Net-(U1-IO0)*%
X178689000Y-70993000D03*
X195580000Y-122682000D03*
%TO.N,/Servo Signal 2*%
X181102000Y-49657000D03*
%TO.N,/Servo Signal 1*%
X181102000Y-50927000D03*
%TO.N,Net-(U6-VBUS)*%
X175006000Y-111125000D03*
X188198000Y-115443000D03*
%TO.N,Net-(D2-A)*%
X167132000Y-117602000D03*
X175515000Y-114809000D03*
%TO.N,/VREGIN*%
X168275000Y-118237000D03*
X163703000Y-120269000D03*
%TO.N,/D-*%
X164338000Y-125857000D03*
X165862000Y-120904000D03*
%TD*%
D24*
%TO.N,GND*%
X204978000Y-120396000D02*
X196723000Y-112141000D01*
X193675000Y-109093000D02*
X191135000Y-109093000D01*
X207518000Y-120396000D02*
X204978000Y-120396000D01*
X191135000Y-109093000D02*
X189992000Y-110236000D01*
X189992000Y-119253000D02*
X188087000Y-121158000D01*
X189992000Y-110236000D02*
X189992000Y-119253000D01*
%TO.N,/Servo Signal 2*%
X205613000Y-74803000D02*
X206910000Y-73506000D01*
X206910000Y-73506000D02*
X206910000Y-59971000D01*
X206910000Y-59971000D02*
X196596000Y-49657000D01*
X196596000Y-49657000D02*
X181102000Y-49657000D01*
D25*
%TO.N,+5V*%
X120000000Y-104920000D02*
X121810000Y-106730000D01*
X121810000Y-119651000D02*
X138176000Y-136017000D01*
X201676000Y-136017000D02*
X214122000Y-123571000D01*
X121810000Y-106730000D02*
X121810000Y-119651000D01*
X138176000Y-136017000D02*
X201676000Y-136017000D01*
X214122000Y-91059000D02*
X207899000Y-84836000D01*
X214122000Y-123571000D02*
X214122000Y-91059000D01*
D26*
%TO.N,+3.3V*%
X154305000Y-52832000D02*
X148971000Y-52832000D01*
X148971000Y-52832000D02*
X147828000Y-51689000D01*
X120015000Y-90000000D02*
X120015000Y-68040000D01*
X120015000Y-68040000D02*
X137500000Y-50555000D01*
X161544000Y-95631000D02*
X161544000Y-97865000D01*
X161544000Y-97865000D02*
X137362000Y-122047000D01*
X178815000Y-114809000D02*
X186688000Y-122682000D01*
X186688000Y-122682000D02*
X194385000Y-122682000D01*
X161544000Y-95631000D02*
X161544000Y-99077214D01*
X161544000Y-99077214D02*
X177275786Y-114809000D01*
X177275786Y-114809000D02*
X178815000Y-114809000D01*
D25*
X120015000Y-90000000D02*
X127441000Y-97426000D01*
X127441000Y-97426000D02*
X160024430Y-97426000D01*
X160024430Y-97426000D02*
X161544000Y-95906430D01*
X161544000Y-95906430D02*
X161544000Y-95631000D01*
D24*
%TO.N,GND*%
X129921000Y-77470000D02*
X139829000Y-87378000D01*
X146179000Y-87378000D02*
X147574000Y-88773000D01*
X139829000Y-87378000D02*
X146179000Y-87378000D01*
X176403000Y-88773000D02*
X173930000Y-86300000D01*
X173930000Y-86300000D02*
X158810000Y-86300000D01*
X158810000Y-86300000D02*
X157861000Y-87249000D01*
X195072000Y-62992000D02*
X195072000Y-63246000D01*
X195072000Y-63246000D02*
X186944000Y-71374000D01*
X195072000Y-62992000D02*
X202184000Y-70104000D01*
%TO.N,/Servo Signal 3*%
X191897000Y-78994000D02*
X197739000Y-84836000D01*
X197739000Y-84836000D02*
X205359000Y-84836000D01*
%TO.N,/RXD0*%
X159512000Y-114046000D02*
X160274000Y-114808000D01*
X159512000Y-112776000D02*
X159512000Y-114046000D01*
X175133000Y-75565000D02*
X181610000Y-82042000D01*
X175133000Y-71501000D02*
X175133000Y-75565000D01*
%TO.N,/Refill LED*%
X197485000Y-57277000D02*
X199644000Y-59436000D01*
X193929000Y-57277000D02*
X197485000Y-57277000D01*
%TO.N,/Bluetooth LED*%
X185039000Y-103124000D02*
X185039000Y-103251000D01*
X183515000Y-101600000D02*
X185039000Y-103124000D01*
X166878000Y-72009000D02*
X183515000Y-88646000D01*
X183515000Y-88646000D02*
X183515000Y-101600000D01*
%TO.N,/HX711 PD_SCK*%
X155067000Y-63119000D02*
X150876000Y-63119000D01*
X150876000Y-63119000D02*
X144907000Y-57150000D01*
%TO.N,/HX711 Digital Output*%
X149860000Y-60706000D02*
X144907000Y-55753000D01*
X158877000Y-60706000D02*
X149860000Y-60706000D01*
%TO.N,/Container 1 LED*%
X171831000Y-74930000D02*
X167912000Y-71011000D01*
X167912000Y-71011000D02*
X167912000Y-66147000D01*
%TO.N,/Container 2 LED*%
X165354000Y-73152000D02*
X159766000Y-67564000D01*
X165354000Y-76708000D02*
X165354000Y-73152000D01*
%TO.N,/Vibration Motor*%
X157480000Y-76835000D02*
X157480000Y-67209000D01*
X157480000Y-67209000D02*
X163602000Y-61087000D01*
%TO.N,Net-(U1-IO0)*%
X178689000Y-70993000D02*
X195580000Y-87884000D01*
X195580000Y-87884000D02*
X195580000Y-122682000D01*
%TO.N,Net-(J12-Pin_1)*%
X162941000Y-87249000D02*
X162941000Y-91694000D01*
X162941000Y-91694000D02*
X159004000Y-95631000D01*
D25*
%TO.N,+5V*%
X208153000Y-74803000D02*
X208153000Y-84582000D01*
X208153000Y-84582000D02*
X207899000Y-84836000D01*
X208280000Y-64516000D02*
X208280000Y-74676000D01*
X208280000Y-74676000D02*
X208153000Y-74803000D01*
D24*
%TO.N,/Servo Signal 1*%
X205740000Y-64516000D02*
X202821000Y-61597000D01*
X191772000Y-61597000D02*
X181102000Y-50927000D01*
X202821000Y-61597000D02*
X191772000Y-61597000D01*
%TO.N,Net-(U6-VBUS)*%
X183880000Y-111125000D02*
X188198000Y-115443000D01*
X175006000Y-111125000D02*
X183880000Y-111125000D01*
%TO.N,Net-(D2-A)*%
X169925000Y-114809000D02*
X175515000Y-114809000D01*
X167132000Y-117602000D02*
X169925000Y-114809000D01*
%TO.N,/VREGIN*%
X166243000Y-120269000D02*
X168275000Y-118237000D01*
X163703000Y-120269000D02*
X166243000Y-120269000D01*
%TO.N,/D-*%
X164338000Y-125857000D02*
X164592000Y-125603000D01*
X164592000Y-125603000D02*
X164592000Y-122174000D01*
X164592000Y-122174000D02*
X165862000Y-120904000D01*
%TD*%
%TA.AperFunction,Conductor*%
%TO.N,GND*%
G36*
X215088539Y-47586185D02*
G01*
X215134294Y-47638989D01*
X215145500Y-47690500D01*
X215145500Y-90381149D01*
X215125815Y-90448188D01*
X215073011Y-90493943D01*
X215003853Y-90503887D01*
X214940297Y-90474862D01*
X214918398Y-90450041D01*
X214899136Y-90421214D01*
X214756686Y-90278764D01*
X214756655Y-90278735D01*
X210982005Y-86504085D01*
X210948520Y-86442762D01*
X210953504Y-86373070D01*
X210995376Y-86317137D01*
X211013392Y-86305919D01*
X211157034Y-86232730D01*
X211331496Y-86105974D01*
X211331497Y-86105974D01*
X211483974Y-85953497D01*
X211483974Y-85953496D01*
X211610728Y-85779036D01*
X211708627Y-85586901D01*
X211775265Y-85381809D01*
X211809000Y-85168820D01*
X211809000Y-85086000D01*
X210981709Y-85086000D01*
X210993452Y-85065661D01*
X211034000Y-84914333D01*
X211034000Y-84757667D01*
X210993452Y-84606339D01*
X210981709Y-84586000D01*
X211809000Y-84586000D01*
X211809000Y-84503179D01*
X211775265Y-84290190D01*
X211708627Y-84085098D01*
X211610728Y-83892963D01*
X211483974Y-83718503D01*
X211483974Y-83718502D01*
X211331497Y-83566025D01*
X211157036Y-83439271D01*
X210964899Y-83341372D01*
X210759805Y-83274733D01*
X210689000Y-83263518D01*
X210689000Y-84293290D01*
X210668661Y-84281548D01*
X210517333Y-84241000D01*
X210360667Y-84241000D01*
X210209339Y-84281548D01*
X210189000Y-84293290D01*
X210189000Y-83263518D01*
X210188999Y-83263518D01*
X210118194Y-83274733D01*
X209913100Y-83341372D01*
X209720963Y-83439271D01*
X209546503Y-83566025D01*
X209546502Y-83566025D01*
X209394025Y-83718502D01*
X209394025Y-83718503D01*
X209377818Y-83740810D01*
X209322488Y-83783475D01*
X209252874Y-83789454D01*
X209191079Y-83756848D01*
X209156722Y-83696009D01*
X209153500Y-83667924D01*
X209153500Y-76017042D01*
X209173185Y-75950003D01*
X209189819Y-75929361D01*
X209198359Y-75920821D01*
X209322991Y-75749279D01*
X209378321Y-75706614D01*
X209447934Y-75700635D01*
X209509729Y-75733241D01*
X209523627Y-75749279D01*
X209648025Y-75920496D01*
X209648025Y-75920497D01*
X209800502Y-76072974D01*
X209974963Y-76199728D01*
X210167098Y-76297627D01*
X210372190Y-76364266D01*
X210443000Y-76375481D01*
X210443000Y-75345709D01*
X210463339Y-75357452D01*
X210614667Y-75398000D01*
X210771333Y-75398000D01*
X210922661Y-75357452D01*
X210943000Y-75345709D01*
X210943000Y-76375480D01*
X211013809Y-76364266D01*
X211218901Y-76297627D01*
X211411036Y-76199728D01*
X211585496Y-76072974D01*
X211585497Y-76072974D01*
X211737974Y-75920497D01*
X211737974Y-75920496D01*
X211864728Y-75746036D01*
X211962627Y-75553901D01*
X212029265Y-75348809D01*
X212063000Y-75135820D01*
X212063000Y-75053000D01*
X211235709Y-75053000D01*
X211247452Y-75032661D01*
X211288000Y-74881333D01*
X211288000Y-74724667D01*
X211247452Y-74573339D01*
X211235709Y-74553000D01*
X212063000Y-74553000D01*
X212063000Y-74470179D01*
X212029265Y-74257190D01*
X211962627Y-74052098D01*
X211864728Y-73859963D01*
X211737974Y-73685503D01*
X211737974Y-73685502D01*
X211585497Y-73533025D01*
X211411036Y-73406271D01*
X211218899Y-73308372D01*
X211013805Y-73241733D01*
X210943000Y-73230518D01*
X210943000Y-74260290D01*
X210922661Y-74248548D01*
X210771333Y-74208000D01*
X210614667Y-74208000D01*
X210463339Y-74248548D01*
X210443000Y-74260290D01*
X210443000Y-73230518D01*
X210442999Y-73230518D01*
X210372194Y-73241733D01*
X210167100Y-73308372D01*
X209974963Y-73406271D01*
X209800503Y-73533025D01*
X209800502Y-73533025D01*
X209648024Y-73685503D01*
X209523627Y-73856720D01*
X209468296Y-73899385D01*
X209398683Y-73905364D01*
X209336888Y-73872758D01*
X209322990Y-73856718D01*
X209304181Y-73830829D01*
X209280702Y-73765023D01*
X209280500Y-73757945D01*
X209280500Y-65730042D01*
X209300185Y-65663003D01*
X209316819Y-65642361D01*
X209325359Y-65633821D01*
X209449991Y-65462279D01*
X209505321Y-65419614D01*
X209574934Y-65413635D01*
X209636729Y-65446241D01*
X209650627Y-65462279D01*
X209775025Y-65633496D01*
X209775025Y-65633497D01*
X209927502Y-65785974D01*
X210101963Y-65912728D01*
X210294098Y-66010627D01*
X210499190Y-66077266D01*
X210570000Y-66088481D01*
X210570000Y-65058709D01*
X210590339Y-65070452D01*
X210741667Y-65111000D01*
X210898333Y-65111000D01*
X211049661Y-65070452D01*
X211070000Y-65058709D01*
X211070000Y-66088480D01*
X211140809Y-66077266D01*
X211345901Y-66010627D01*
X211538036Y-65912728D01*
X211712496Y-65785974D01*
X211712497Y-65785974D01*
X211864974Y-65633497D01*
X211864974Y-65633496D01*
X211991728Y-65459036D01*
X212089627Y-65266901D01*
X212156265Y-65061809D01*
X212190000Y-64848820D01*
X212190000Y-64766000D01*
X211362709Y-64766000D01*
X211374452Y-64745661D01*
X211415000Y-64594333D01*
X211415000Y-64437667D01*
X211374452Y-64286339D01*
X211362709Y-64266000D01*
X212190000Y-64266000D01*
X212190000Y-64183179D01*
X212156265Y-63970190D01*
X212089627Y-63765098D01*
X211991728Y-63572963D01*
X211864974Y-63398503D01*
X211864974Y-63398502D01*
X211712497Y-63246025D01*
X211538036Y-63119271D01*
X211345899Y-63021372D01*
X211140805Y-62954733D01*
X211070000Y-62943518D01*
X211070000Y-63973290D01*
X211049661Y-63961548D01*
X210898333Y-63921000D01*
X210741667Y-63921000D01*
X210590339Y-63961548D01*
X210570000Y-63973290D01*
X210570000Y-62943518D01*
X210569999Y-62943518D01*
X210499194Y-62954733D01*
X210294100Y-63021372D01*
X210101963Y-63119271D01*
X209927503Y-63246025D01*
X209927502Y-63246025D01*
X209775024Y-63398503D01*
X209650627Y-63569720D01*
X209595296Y-63612385D01*
X209525683Y-63618364D01*
X209463888Y-63585758D01*
X209449991Y-63569720D01*
X209426806Y-63537809D01*
X209325359Y-63398179D01*
X209172821Y-63245641D01*
X208998299Y-63118843D01*
X208806089Y-63020908D01*
X208600926Y-62954246D01*
X208600924Y-62954245D01*
X208600922Y-62954245D01*
X208387866Y-62920500D01*
X208387861Y-62920500D01*
X208172139Y-62920500D01*
X208172134Y-62920500D01*
X207959077Y-62954245D01*
X207753908Y-63020909D01*
X207690795Y-63053067D01*
X207622126Y-63065963D01*
X207557385Y-63039687D01*
X207517128Y-62982580D01*
X207510500Y-62942582D01*
X207510500Y-60060060D01*
X207510501Y-60060047D01*
X207510501Y-59891944D01*
X207481985Y-59785522D01*
X207469577Y-59739216D01*
X207398009Y-59615255D01*
X207390524Y-59602290D01*
X207390518Y-59602282D01*
X200166946Y-52378711D01*
X205649500Y-52378711D01*
X205649500Y-52621288D01*
X205681161Y-52861785D01*
X205743947Y-53096104D01*
X205784828Y-53194799D01*
X205836776Y-53320212D01*
X205958064Y-53530289D01*
X205958066Y-53530292D01*
X205958067Y-53530293D01*
X206105733Y-53722736D01*
X206105739Y-53722743D01*
X206277256Y-53894260D01*
X206277262Y-53894265D01*
X206469711Y-54041936D01*
X206679788Y-54163224D01*
X206903900Y-54256054D01*
X207138211Y-54318838D01*
X207318586Y-54342584D01*
X207378711Y-54350500D01*
X207378712Y-54350500D01*
X207621289Y-54350500D01*
X207669388Y-54344167D01*
X207861789Y-54318838D01*
X208096100Y-54256054D01*
X208320212Y-54163224D01*
X208530289Y-54041936D01*
X208722738Y-53894265D01*
X208894265Y-53722738D01*
X209041936Y-53530289D01*
X209163224Y-53320212D01*
X209256054Y-53096100D01*
X209318838Y-52861789D01*
X209350500Y-52621288D01*
X209350500Y-52378712D01*
X209318838Y-52138211D01*
X209256054Y-51903900D01*
X209163224Y-51679788D01*
X209041936Y-51469711D01*
X208942003Y-51339476D01*
X208894266Y-51277263D01*
X208894260Y-51277256D01*
X208722743Y-51105739D01*
X208722736Y-51105733D01*
X208530293Y-50958067D01*
X208530292Y-50958066D01*
X208530289Y-50958064D01*
X208358661Y-50858974D01*
X208320214Y-50836777D01*
X208320205Y-50836773D01*
X208096104Y-50743947D01*
X207861785Y-50681161D01*
X207621289Y-50649500D01*
X207621288Y-50649500D01*
X207378712Y-50649500D01*
X207378711Y-50649500D01*
X207138214Y-50681161D01*
X206903895Y-50743947D01*
X206679794Y-50836773D01*
X206679785Y-50836777D01*
X206469706Y-50958067D01*
X206277263Y-51105733D01*
X206277256Y-51105739D01*
X206105739Y-51277256D01*
X206105733Y-51277263D01*
X205958067Y-51469706D01*
X205836777Y-51679785D01*
X205836773Y-51679794D01*
X205743947Y-51903895D01*
X205681161Y-52138214D01*
X205649500Y-52378711D01*
X200166946Y-52378711D01*
X197083590Y-49295355D01*
X197083588Y-49295352D01*
X196964717Y-49176481D01*
X196964709Y-49176475D01*
X196862936Y-49117717D01*
X196862934Y-49117716D01*
X196827790Y-49097425D01*
X196827789Y-49097424D01*
X196815263Y-49094067D01*
X196675057Y-49056499D01*
X196516943Y-49056499D01*
X196509347Y-49056499D01*
X196509331Y-49056500D01*
X181684412Y-49056500D01*
X181617373Y-49036815D01*
X181607097Y-49029445D01*
X181604263Y-49027185D01*
X181604262Y-49027184D01*
X181547496Y-48991515D01*
X181451523Y-48931211D01*
X181281254Y-48871631D01*
X181281249Y-48871630D01*
X181102004Y-48851435D01*
X181101996Y-48851435D01*
X180922750Y-48871630D01*
X180922745Y-48871631D01*
X180752476Y-48931211D01*
X180599737Y-49027184D01*
X180472184Y-49154737D01*
X180376211Y-49307476D01*
X180316631Y-49477745D01*
X180316630Y-49477750D01*
X180296435Y-49656996D01*
X180296435Y-49657003D01*
X180316630Y-49836249D01*
X180316631Y-49836254D01*
X180376211Y-50006523D01*
X180472184Y-50159262D01*
X180472185Y-50159263D01*
X180517241Y-50204320D01*
X180550725Y-50265643D01*
X180545740Y-50335335D01*
X180517241Y-50379680D01*
X180472184Y-50424737D01*
X180376211Y-50577476D01*
X180316631Y-50747745D01*
X180316630Y-50747750D01*
X180296435Y-50926996D01*
X180296435Y-50927003D01*
X180316630Y-51106249D01*
X180316631Y-51106254D01*
X180376211Y-51276523D01*
X180441821Y-51380940D01*
X180472184Y-51429262D01*
X180599738Y-51556816D01*
X180752478Y-51652789D01*
X180922745Y-51712368D01*
X181009669Y-51722161D01*
X181074080Y-51749226D01*
X181083465Y-51757700D01*
X191154745Y-61828981D01*
X191188230Y-61890304D01*
X191184770Y-61955664D01*
X191172001Y-61994198D01*
X191161500Y-62096983D01*
X191161500Y-63887001D01*
X191161501Y-63887018D01*
X191172000Y-63989796D01*
X191172001Y-63989799D01*
X191209774Y-64103788D01*
X191227186Y-64156334D01*
X191319288Y-64305656D01*
X191443344Y-64429712D01*
X191592666Y-64521814D01*
X191759203Y-64576999D01*
X191861991Y-64587500D01*
X193202008Y-64587499D01*
X193304797Y-64576999D01*
X193471334Y-64521814D01*
X193620656Y-64429712D01*
X193744712Y-64305656D01*
X193836814Y-64156334D01*
X193836817Y-64156323D01*
X193837353Y-64155177D01*
X193837934Y-64154516D01*
X193840605Y-64150187D01*
X193841344Y-64150643D01*
X193883521Y-64102734D01*
X193950713Y-64083577D01*
X194017596Y-64103788D01*
X194037420Y-64119892D01*
X194179502Y-64261974D01*
X194353963Y-64388728D01*
X194546098Y-64486627D01*
X194751190Y-64553266D01*
X194822000Y-64564481D01*
X194822000Y-63534709D01*
X194842339Y-63546452D01*
X194993667Y-63587000D01*
X195150333Y-63587000D01*
X195301661Y-63546452D01*
X195322000Y-63534709D01*
X195322000Y-64564480D01*
X195392809Y-64553266D01*
X195597901Y-64486627D01*
X195790036Y-64388728D01*
X195964496Y-64261974D01*
X195964497Y-64261974D01*
X196116974Y-64109497D01*
X196116974Y-64109496D01*
X196243728Y-63935036D01*
X196341627Y-63742901D01*
X196408265Y-63537809D01*
X196442000Y-63324820D01*
X196442000Y-63242000D01*
X195614709Y-63242000D01*
X195626452Y-63221661D01*
X195667000Y-63070333D01*
X195667000Y-62913667D01*
X195626452Y-62762339D01*
X195614709Y-62742000D01*
X196442000Y-62742000D01*
X196442000Y-62659179D01*
X196408265Y-62446190D01*
X196380202Y-62359819D01*
X196378207Y-62289977D01*
X196414287Y-62230144D01*
X196476988Y-62199316D01*
X196498133Y-62197500D01*
X202520903Y-62197500D01*
X202587942Y-62217185D01*
X202608584Y-62233819D01*
X204333181Y-63958416D01*
X204366666Y-64019739D01*
X204369500Y-64046097D01*
X204369500Y-65411001D01*
X204369501Y-65411018D01*
X204380000Y-65513796D01*
X204380001Y-65513799D01*
X204429443Y-65663003D01*
X204435186Y-65680334D01*
X204527288Y-65829656D01*
X204651344Y-65953712D01*
X204800666Y-66045814D01*
X204967203Y-66100999D01*
X205069991Y-66111500D01*
X206185500Y-66111499D01*
X206252539Y-66131184D01*
X206298294Y-66183987D01*
X206309500Y-66235499D01*
X206309500Y-73083500D01*
X206289815Y-73150539D01*
X206237011Y-73196294D01*
X206185500Y-73207500D01*
X204942998Y-73207500D01*
X204942981Y-73207501D01*
X204840203Y-73218000D01*
X204840200Y-73218001D01*
X204673668Y-73273185D01*
X204673663Y-73273187D01*
X204524342Y-73365289D01*
X204400289Y-73489342D01*
X204308187Y-73638663D01*
X204308186Y-73638666D01*
X204253001Y-73805203D01*
X204253001Y-73805204D01*
X204253000Y-73805204D01*
X204242500Y-73907983D01*
X204242500Y-75698001D01*
X204242501Y-75698018D01*
X204253000Y-75800796D01*
X204253001Y-75800799D01*
X204308185Y-75967331D01*
X204308187Y-75967336D01*
X204312858Y-75974909D01*
X204400288Y-76116656D01*
X204524344Y-76240712D01*
X204673666Y-76332814D01*
X204840203Y-76387999D01*
X204942991Y-76398500D01*
X206283008Y-76398499D01*
X206385797Y-76387999D01*
X206552334Y-76332814D01*
X206701656Y-76240712D01*
X206825712Y-76116656D01*
X206917814Y-75967334D01*
X206917815Y-75967331D01*
X206921605Y-75961187D01*
X206923634Y-75962438D01*
X206962276Y-75918540D01*
X207029467Y-75899379D01*
X207096351Y-75919585D01*
X207141692Y-75972744D01*
X207152500Y-76023375D01*
X207152500Y-83396150D01*
X207132815Y-83463189D01*
X207101387Y-83496467D01*
X207006181Y-83565639D01*
X206864195Y-83707625D01*
X206802872Y-83741109D01*
X206733180Y-83736125D01*
X206677247Y-83694253D01*
X206664132Y-83672348D01*
X206663815Y-83671669D01*
X206663814Y-83671668D01*
X206663814Y-83671666D01*
X206571712Y-83522344D01*
X206447656Y-83398288D01*
X206298334Y-83306186D01*
X206131797Y-83251001D01*
X206131795Y-83251000D01*
X206029010Y-83240500D01*
X204688998Y-83240500D01*
X204688981Y-83240501D01*
X204586203Y-83251000D01*
X204586200Y-83251001D01*
X204419668Y-83306185D01*
X204419663Y-83306187D01*
X204270342Y-83398289D01*
X204146289Y-83522342D01*
X204054187Y-83671663D01*
X204054185Y-83671668D01*
X204042270Y-83707625D01*
X203999001Y-83838203D01*
X203999001Y-83838204D01*
X203999000Y-83838204D01*
X203988500Y-83940983D01*
X203988500Y-84111500D01*
X203968815Y-84178539D01*
X203916011Y-84224294D01*
X203864500Y-84235500D01*
X198039098Y-84235500D01*
X197972059Y-84215815D01*
X197951417Y-84199181D01*
X192727700Y-78975465D01*
X192694215Y-78914142D01*
X192692163Y-78901686D01*
X192682368Y-78814745D01*
X192622789Y-78644478D01*
X192526816Y-78491738D01*
X192399262Y-78364184D01*
X192246523Y-78268211D01*
X192076254Y-78208631D01*
X192076249Y-78208630D01*
X191897004Y-78188435D01*
X191896996Y-78188435D01*
X191717750Y-78208630D01*
X191717745Y-78208631D01*
X191547476Y-78268211D01*
X191394737Y-78364184D01*
X191267184Y-78491737D01*
X191171211Y-78644476D01*
X191111631Y-78814745D01*
X191111630Y-78814750D01*
X191091435Y-78993996D01*
X191091435Y-78994003D01*
X191111630Y-79173249D01*
X191111631Y-79173254D01*
X191171211Y-79343523D01*
X191267184Y-79496262D01*
X191394738Y-79623816D01*
X191547478Y-79719789D01*
X191717745Y-79779368D01*
X191804669Y-79789161D01*
X191869080Y-79816226D01*
X191878464Y-79824699D01*
X197370284Y-85316520D01*
X197370286Y-85316521D01*
X197370290Y-85316524D01*
X197483369Y-85381809D01*
X197507216Y-85395577D01*
X197659943Y-85436501D01*
X197659945Y-85436501D01*
X197825654Y-85436501D01*
X197825670Y-85436500D01*
X203864501Y-85436500D01*
X203931540Y-85456185D01*
X203977295Y-85508989D01*
X203988501Y-85560500D01*
X203988501Y-85731018D01*
X203999000Y-85833796D01*
X203999001Y-85833799D01*
X204036584Y-85947216D01*
X204054186Y-86000334D01*
X204146288Y-86149656D01*
X204270344Y-86273712D01*
X204419666Y-86365814D01*
X204586203Y-86420999D01*
X204688991Y-86431500D01*
X206029008Y-86431499D01*
X206131797Y-86420999D01*
X206298334Y-86365814D01*
X206447656Y-86273712D01*
X206571712Y-86149656D01*
X206663814Y-86000334D01*
X206663817Y-86000322D01*
X206664129Y-85999657D01*
X206664469Y-85999269D01*
X206667605Y-85994187D01*
X206668473Y-85994722D01*
X206710299Y-85947216D01*
X206777491Y-85928060D01*
X206844373Y-85948272D01*
X206864195Y-85964375D01*
X207006179Y-86106359D01*
X207180701Y-86233157D01*
X207372911Y-86331092D01*
X207578074Y-86397754D01*
X207657973Y-86410408D01*
X207791134Y-86431500D01*
X207791139Y-86431500D01*
X208006853Y-86431500D01*
X208006861Y-86431500D01*
X208007216Y-86431443D01*
X208007353Y-86431461D01*
X208011712Y-86431118D01*
X208011784Y-86432033D01*
X208076507Y-86440386D01*
X208114312Y-86466232D01*
X213085181Y-91437101D01*
X213118666Y-91498424D01*
X213121500Y-91524782D01*
X213121500Y-123105218D01*
X213101815Y-123172257D01*
X213085181Y-123192899D01*
X201297899Y-134980181D01*
X201236576Y-135013666D01*
X201210218Y-135016500D01*
X138641782Y-135016500D01*
X138574743Y-134996815D01*
X138554101Y-134980181D01*
X122846819Y-119272899D01*
X122813334Y-119211576D01*
X122810500Y-119185218D01*
X122810500Y-106834675D01*
X122810501Y-106834654D01*
X122810501Y-106631457D01*
X122810500Y-106631455D01*
X122772053Y-106438172D01*
X122772052Y-106438165D01*
X122696632Y-106256086D01*
X122696631Y-106256085D01*
X122696628Y-106256079D01*
X122587140Y-106092219D01*
X122587137Y-106092215D01*
X121424536Y-104929616D01*
X121391051Y-104868293D01*
X121388643Y-104852194D01*
X121375246Y-104690512D01*
X121318717Y-104467284D01*
X121226217Y-104256405D01*
X121100271Y-104063629D01*
X121020328Y-103976788D01*
X120944308Y-103894208D01*
X120876036Y-103841070D01*
X120762591Y-103752772D01*
X120560069Y-103643172D01*
X120560061Y-103643169D01*
X120342274Y-103568402D01*
X120171920Y-103539975D01*
X120115137Y-103530500D01*
X119884863Y-103530500D01*
X119839436Y-103538080D01*
X119657725Y-103568402D01*
X119439938Y-103643169D01*
X119439930Y-103643172D01*
X119237408Y-103752772D01*
X119055694Y-103894206D01*
X119055689Y-103894211D01*
X118899728Y-104063629D01*
X118773782Y-104256405D01*
X118681282Y-104467285D01*
X118624753Y-104690515D01*
X118605738Y-104919994D01*
X118605738Y-104920005D01*
X118624753Y-105149484D01*
X118681282Y-105372714D01*
X118773782Y-105583594D01*
X118899728Y-105776370D01*
X118899731Y-105776373D01*
X119055692Y-105945792D01*
X119172591Y-106036778D01*
X119241459Y-106090380D01*
X119240570Y-106091521D01*
X119281632Y-106139624D01*
X119291063Y-106208855D01*
X119261568Y-106272194D01*
X119241429Y-106289651D01*
X119241733Y-106290041D01*
X119209040Y-106315485D01*
X119209040Y-106315487D01*
X119763992Y-106870439D01*
X119699215Y-106897271D01*
X119595211Y-106966764D01*
X119506764Y-107055211D01*
X119437271Y-107159215D01*
X119410439Y-107223992D01*
X118856760Y-106670313D01*
X118774224Y-106796644D01*
X118681757Y-107007446D01*
X118625249Y-107230591D01*
X118625247Y-107230603D01*
X118606240Y-107459994D01*
X118606240Y-107460005D01*
X118625247Y-107689396D01*
X118625249Y-107689408D01*
X118681757Y-107912553D01*
X118774224Y-108123355D01*
X118856759Y-108249685D01*
X119410438Y-107696006D01*
X119437271Y-107760785D01*
X119506764Y-107864789D01*
X119595211Y-107953236D01*
X119699215Y-108022729D01*
X119763991Y-108049560D01*
X119209040Y-108604512D01*
X119209040Y-108604514D01*
X119241733Y-108629960D01*
X119240789Y-108631172D01*
X119281639Y-108679043D01*
X119291060Y-108748274D01*
X119261556Y-108811609D01*
X119241181Y-108829263D01*
X119241459Y-108829620D01*
X119055694Y-108974206D01*
X119055689Y-108974211D01*
X118899728Y-109143629D01*
X118773782Y-109336405D01*
X118681282Y-109547285D01*
X118624753Y-109770515D01*
X118605738Y-109999994D01*
X118605738Y-110000005D01*
X118624753Y-110229484D01*
X118681282Y-110452714D01*
X118773782Y-110663594D01*
X118899728Y-110856370D01*
X118899731Y-110856373D01*
X119055692Y-111025792D01*
X119237411Y-111167229D01*
X119439931Y-111276828D01*
X119553025Y-111315653D01*
X119657725Y-111351597D01*
X119657727Y-111351597D01*
X119657729Y-111351598D01*
X119884863Y-111389500D01*
X119884864Y-111389500D01*
X120115136Y-111389500D01*
X120115137Y-111389500D01*
X120342271Y-111351598D01*
X120560069Y-111276828D01*
X120560076Y-111276824D01*
X120560079Y-111276823D01*
X120626482Y-111240887D01*
X120694810Y-111226291D01*
X120760182Y-111250953D01*
X120801843Y-111307043D01*
X120809500Y-111349941D01*
X120809500Y-116615500D01*
X120789815Y-116682539D01*
X120737011Y-116728294D01*
X120685500Y-116739500D01*
X119119998Y-116739500D01*
X119119981Y-116739501D01*
X119017203Y-116750000D01*
X119017200Y-116750001D01*
X118850668Y-116805185D01*
X118850663Y-116805187D01*
X118701342Y-116897289D01*
X118577289Y-117021342D01*
X118485187Y-117170663D01*
X118485186Y-117170666D01*
X118430001Y-117337203D01*
X118430001Y-117337204D01*
X118430000Y-117337204D01*
X118419500Y-117439983D01*
X118419500Y-118780001D01*
X118419501Y-118780018D01*
X118430000Y-118882796D01*
X118430001Y-118882799D01*
X118476250Y-119022367D01*
X118485186Y-119049334D01*
X118577288Y-119198656D01*
X118701344Y-119322712D01*
X118850666Y-119414814D01*
X118850667Y-119414814D01*
X118850670Y-119414816D01*
X118851828Y-119415356D01*
X118852488Y-119415937D01*
X118856813Y-119418605D01*
X118856357Y-119419343D01*
X118904268Y-119461527D01*
X118923422Y-119528720D01*
X118903208Y-119595601D01*
X118887108Y-119615420D01*
X118745022Y-119757506D01*
X118618271Y-119931963D01*
X118520372Y-120124098D01*
X118453733Y-120329190D01*
X118442519Y-120400000D01*
X119472291Y-120400000D01*
X119460548Y-120420339D01*
X119420000Y-120571667D01*
X119420000Y-120728333D01*
X119460548Y-120879661D01*
X119472291Y-120900000D01*
X118442519Y-120900000D01*
X118453733Y-120970809D01*
X118520372Y-121175901D01*
X118618271Y-121368036D01*
X118745025Y-121542496D01*
X118745025Y-121542497D01*
X118897502Y-121694974D01*
X119071963Y-121821728D01*
X119264098Y-121919627D01*
X119469190Y-121986265D01*
X119682180Y-122020000D01*
X119765000Y-122020000D01*
X119765000Y-121192709D01*
X119785339Y-121204452D01*
X119936667Y-121245000D01*
X120093333Y-121245000D01*
X120244661Y-121204452D01*
X120265000Y-121192709D01*
X120265000Y-122020000D01*
X120347820Y-122020000D01*
X120560809Y-121986265D01*
X120765901Y-121919627D01*
X120958036Y-121821728D01*
X121132496Y-121694974D01*
X121132497Y-121694974D01*
X121284974Y-121542497D01*
X121284974Y-121542496D01*
X121411728Y-121368036D01*
X121509627Y-121175899D01*
X121547732Y-121058627D01*
X121587169Y-121000951D01*
X121651528Y-120973753D01*
X121720374Y-120985668D01*
X121753344Y-121009264D01*
X137395735Y-136651655D01*
X137395764Y-136651686D01*
X137538214Y-136794136D01*
X137538218Y-136794139D01*
X137702079Y-136903628D01*
X137702092Y-136903635D01*
X137830833Y-136956961D01*
X137873744Y-136974735D01*
X137884164Y-136979051D01*
X137980812Y-136998275D01*
X138029135Y-137007887D01*
X138077458Y-137017500D01*
X138077459Y-137017500D01*
X201774542Y-137017500D01*
X201793870Y-137013655D01*
X201871188Y-136998275D01*
X201967836Y-136979051D01*
X202021165Y-136956961D01*
X202149914Y-136903632D01*
X202313782Y-136794139D01*
X202453139Y-136654782D01*
X202453140Y-136654779D01*
X202460206Y-136647714D01*
X202460209Y-136647710D01*
X214759778Y-124348141D01*
X214759782Y-124348139D01*
X214899139Y-124208782D01*
X214918397Y-124179959D01*
X214972009Y-124135154D01*
X215041334Y-124126447D01*
X215104362Y-124156601D01*
X215141082Y-124216044D01*
X215145500Y-124248850D01*
X215145500Y-146441500D01*
X215125815Y-146508539D01*
X215073011Y-146554294D01*
X215021500Y-146565500D01*
X116270500Y-146565500D01*
X116203461Y-146545815D01*
X116157706Y-146493011D01*
X116146500Y-146441500D01*
X116146500Y-139878711D01*
X120649500Y-139878711D01*
X120649500Y-140121288D01*
X120681161Y-140361785D01*
X120743947Y-140596104D01*
X120816683Y-140771704D01*
X120836776Y-140820212D01*
X120958064Y-141030289D01*
X120958066Y-141030292D01*
X120958067Y-141030293D01*
X121105733Y-141222736D01*
X121105739Y-141222743D01*
X121277256Y-141394260D01*
X121277262Y-141394265D01*
X121469711Y-141541936D01*
X121679788Y-141663224D01*
X121903900Y-141756054D01*
X122138211Y-141818838D01*
X122318586Y-141842584D01*
X122378711Y-141850500D01*
X122378712Y-141850500D01*
X122621289Y-141850500D01*
X122669388Y-141844167D01*
X122861789Y-141818838D01*
X123096100Y-141756054D01*
X123320212Y-141663224D01*
X123530289Y-141541936D01*
X123722738Y-141394265D01*
X123894265Y-141222738D01*
X124041936Y-141030289D01*
X124163224Y-140820212D01*
X124171212Y-140800928D01*
X160400000Y-140800928D01*
X160400000Y-140987500D01*
X161200000Y-140987500D01*
X161200000Y-141487500D01*
X160400000Y-141487500D01*
X160400000Y-141674071D01*
X160427085Y-141845084D01*
X160480591Y-142009757D01*
X160559195Y-142164024D01*
X160660967Y-142304102D01*
X160783397Y-142426532D01*
X160923475Y-142528304D01*
X161077744Y-142606908D01*
X161242415Y-142660414D01*
X161242414Y-142660414D01*
X161249999Y-142661615D01*
X161250000Y-142661614D01*
X161250000Y-141754488D01*
X161259940Y-141771705D01*
X161315795Y-141827560D01*
X161384204Y-141867056D01*
X161460504Y-141887500D01*
X161539496Y-141887500D01*
X161615796Y-141867056D01*
X161684205Y-141827560D01*
X161740060Y-141771705D01*
X161750000Y-141754488D01*
X161750000Y-142661615D01*
X161757584Y-142660414D01*
X161922255Y-142606908D01*
X162076524Y-142528304D01*
X162216602Y-142426532D01*
X162339032Y-142304102D01*
X162440804Y-142164024D01*
X162519408Y-142009757D01*
X162572914Y-141845084D01*
X162600000Y-141674071D01*
X162600000Y-141487500D01*
X161800000Y-141487500D01*
X161800000Y-140987500D01*
X162600000Y-140987500D01*
X162600000Y-140800928D01*
X162572914Y-140629915D01*
X162519408Y-140465242D01*
X162440804Y-140310975D01*
X162339032Y-140170897D01*
X162216602Y-140048467D01*
X162076522Y-139946694D01*
X162074414Y-139945620D01*
X162073755Y-139944998D01*
X162072373Y-139944151D01*
X162072551Y-139943860D01*
X162023619Y-139897646D01*
X162006824Y-139829825D01*
X162029362Y-139763690D01*
X162084077Y-139720239D01*
X162153598Y-139713267D01*
X162162804Y-139715361D01*
X162286465Y-139748496D01*
X162286472Y-139748497D01*
X162499999Y-139767179D01*
X162500001Y-139767179D01*
X162713527Y-139748497D01*
X162713537Y-139748495D01*
X162920567Y-139693022D01*
X162920576Y-139693018D01*
X163114839Y-139602433D01*
X163171621Y-139562673D01*
X162568173Y-138959225D01*
X162664044Y-138933537D01*
X162760956Y-138877584D01*
X162840084Y-138798456D01*
X162896037Y-138701544D01*
X162921725Y-138605672D01*
X163525173Y-139209121D01*
X163564933Y-139152339D01*
X163655518Y-138958076D01*
X163655522Y-138958067D01*
X163710995Y-138751037D01*
X163710997Y-138751027D01*
X163729679Y-138537500D01*
X163729679Y-138537499D01*
X166270321Y-138537499D01*
X166270321Y-138537500D01*
X166289002Y-138751027D01*
X166289004Y-138751037D01*
X166344477Y-138958067D01*
X166344481Y-138958076D01*
X166435066Y-139152338D01*
X166435067Y-139152340D01*
X166474825Y-139209120D01*
X166474825Y-139209121D01*
X167078274Y-138605671D01*
X167103963Y-138701544D01*
X167159916Y-138798456D01*
X167239044Y-138877584D01*
X167335956Y-138933537D01*
X167431827Y-138959225D01*
X166828377Y-139562673D01*
X166885161Y-139602433D01*
X167079423Y-139693018D01*
X167079432Y-139693022D01*
X167286462Y-139748495D01*
X167286472Y-139748497D01*
X167499999Y-139767179D01*
X167500001Y-139767179D01*
X167713527Y-139748497D01*
X167713533Y-139748496D01*
X167837195Y-139715361D01*
X167907045Y-139717024D01*
X167964908Y-139756186D01*
X167992412Y-139820415D01*
X167980826Y-139889317D01*
X167933827Y-139941017D01*
X167925591Y-139945617D01*
X167923479Y-139946693D01*
X167783397Y-140048467D01*
X167660967Y-140170897D01*
X167559195Y-140310975D01*
X167480591Y-140465242D01*
X167427085Y-140629915D01*
X167400000Y-140800928D01*
X167400000Y-140987500D01*
X168200000Y-140987500D01*
X168200000Y-141487500D01*
X167400000Y-141487500D01*
X167400000Y-141674071D01*
X167427085Y-141845084D01*
X167480591Y-142009757D01*
X167559195Y-142164024D01*
X167660967Y-142304102D01*
X167783397Y-142426532D01*
X167923475Y-142528304D01*
X168077744Y-142606908D01*
X168242415Y-142660414D01*
X168242414Y-142660414D01*
X168249999Y-142661615D01*
X168250000Y-142661614D01*
X168250000Y-141754488D01*
X168259940Y-141771705D01*
X168315795Y-141827560D01*
X168384204Y-141867056D01*
X168460504Y-141887500D01*
X168539496Y-141887500D01*
X168615796Y-141867056D01*
X168684205Y-141827560D01*
X168740060Y-141771705D01*
X168750000Y-141754488D01*
X168750000Y-142661615D01*
X168757584Y-142660414D01*
X168922255Y-142606908D01*
X169076524Y-142528304D01*
X169216602Y-142426532D01*
X169339032Y-142304102D01*
X169440804Y-142164024D01*
X169519408Y-142009757D01*
X169572914Y-141845084D01*
X169600000Y-141674071D01*
X169600000Y-141487500D01*
X168800000Y-141487500D01*
X168800000Y-140987500D01*
X169600000Y-140987500D01*
X169600000Y-140800928D01*
X169572914Y-140629915D01*
X169519408Y-140465242D01*
X169440804Y-140310975D01*
X169339032Y-140170897D01*
X169216602Y-140048467D01*
X169076524Y-139946695D01*
X168943100Y-139878711D01*
X205649500Y-139878711D01*
X205649500Y-140121288D01*
X205681161Y-140361785D01*
X205743947Y-140596104D01*
X205816683Y-140771704D01*
X205836776Y-140820212D01*
X205958064Y-141030289D01*
X205958066Y-141030292D01*
X205958067Y-141030293D01*
X206105733Y-141222736D01*
X206105739Y-141222743D01*
X206277256Y-141394260D01*
X206277262Y-141394265D01*
X206469711Y-141541936D01*
X206679788Y-141663224D01*
X206903900Y-141756054D01*
X207138211Y-141818838D01*
X207318586Y-141842584D01*
X207378711Y-141850500D01*
X207378712Y-141850500D01*
X207621289Y-141850500D01*
X207669388Y-141844167D01*
X207861789Y-141818838D01*
X208096100Y-141756054D01*
X208320212Y-141663224D01*
X208530289Y-141541936D01*
X208722738Y-141394265D01*
X208894265Y-141222738D01*
X209041936Y-141030289D01*
X209163224Y-140820212D01*
X209256054Y-140596100D01*
X209318838Y-140361789D01*
X209350500Y-140121288D01*
X209350500Y-139878712D01*
X209318838Y-139638211D01*
X209256054Y-139403900D01*
X209163224Y-139179788D01*
X209041936Y-138969711D01*
X208894265Y-138777262D01*
X208894260Y-138777256D01*
X208722743Y-138605739D01*
X208722736Y-138605733D01*
X208530293Y-138458067D01*
X208530292Y-138458066D01*
X208530289Y-138458064D01*
X208320212Y-138336776D01*
X208320205Y-138336773D01*
X208096104Y-138243947D01*
X207861785Y-138181161D01*
X207621289Y-138149500D01*
X207621288Y-138149500D01*
X207378712Y-138149500D01*
X207378711Y-138149500D01*
X207138214Y-138181161D01*
X206903895Y-138243947D01*
X206679794Y-138336773D01*
X206679785Y-138336777D01*
X206469706Y-138458067D01*
X206277263Y-138605733D01*
X206277256Y-138605739D01*
X206105739Y-138777256D01*
X206105733Y-138777263D01*
X205958067Y-138969706D01*
X205836777Y-139179785D01*
X205836773Y-139179794D01*
X205743947Y-139403895D01*
X205681161Y-139638214D01*
X205649500Y-139878711D01*
X168943100Y-139878711D01*
X168922257Y-139868091D01*
X168757589Y-139814587D01*
X168757581Y-139814585D01*
X168750000Y-139813384D01*
X168750000Y-140720511D01*
X168740060Y-140703295D01*
X168684205Y-140647440D01*
X168615796Y-140607944D01*
X168539496Y-140587500D01*
X168460504Y-140587500D01*
X168384204Y-140607944D01*
X168315795Y-140647440D01*
X168259940Y-140703295D01*
X168250000Y-140720511D01*
X168250000Y-139813384D01*
X168249999Y-139813384D01*
X168242418Y-139814585D01*
X168242407Y-139814588D01*
X168228169Y-139819214D01*
X168158328Y-139821206D01*
X168098497Y-139785123D01*
X168067671Y-139722421D01*
X168075639Y-139653007D01*
X168118733Y-139599706D01*
X168171621Y-139562673D01*
X167568173Y-138959225D01*
X167664044Y-138933537D01*
X167760956Y-138877584D01*
X167840084Y-138798456D01*
X167896037Y-138701544D01*
X167921725Y-138605672D01*
X168525173Y-139209121D01*
X168564933Y-139152339D01*
X168655518Y-138958076D01*
X168655522Y-138958067D01*
X168710995Y-138751037D01*
X168710997Y-138751027D01*
X168729679Y-138537500D01*
X168729679Y-138537499D01*
X168710997Y-138323972D01*
X168710995Y-138323962D01*
X168655522Y-138116932D01*
X168655518Y-138116923D01*
X168564933Y-137922662D01*
X168525173Y-137865878D01*
X167921725Y-138469326D01*
X167896037Y-138373456D01*
X167840084Y-138276544D01*
X167760956Y-138197416D01*
X167664044Y-138141463D01*
X167568171Y-138115774D01*
X168171621Y-137512325D01*
X168114840Y-137472567D01*
X168114838Y-137472566D01*
X167920576Y-137381981D01*
X167920567Y-137381977D01*
X167713537Y-137326504D01*
X167713527Y-137326502D01*
X167500001Y-137307821D01*
X167499999Y-137307821D01*
X167286472Y-137326502D01*
X167286462Y-137326504D01*
X167079432Y-137381977D01*
X167079423Y-137381981D01*
X166885158Y-137472568D01*
X166828378Y-137512324D01*
X167431828Y-138115774D01*
X167335956Y-138141463D01*
X167239044Y-138197416D01*
X167159916Y-138276544D01*
X167103963Y-138373456D01*
X167078274Y-138469328D01*
X166474824Y-137865878D01*
X166435068Y-137922658D01*
X166344481Y-138116923D01*
X166344477Y-138116932D01*
X166289004Y-138323962D01*
X166289002Y-138323972D01*
X166270321Y-138537499D01*
X163729679Y-138537499D01*
X163710997Y-138323972D01*
X163710995Y-138323962D01*
X163655522Y-138116932D01*
X163655518Y-138116923D01*
X163564933Y-137922662D01*
X163525173Y-137865878D01*
X162921725Y-138469326D01*
X162896037Y-138373456D01*
X162840084Y-138276544D01*
X162760956Y-138197416D01*
X162664044Y-138141463D01*
X162568171Y-138115774D01*
X163171621Y-137512325D01*
X163114840Y-137472567D01*
X163114838Y-137472566D01*
X162920576Y-137381981D01*
X162920567Y-137381977D01*
X162713537Y-137326504D01*
X162713527Y-137326502D01*
X162500001Y-137307821D01*
X162499999Y-137307821D01*
X162286472Y-137326502D01*
X162286462Y-137326504D01*
X162079432Y-137381977D01*
X162079423Y-137381981D01*
X161885158Y-137472568D01*
X161828378Y-137512324D01*
X162431828Y-138115774D01*
X162335956Y-138141463D01*
X162239044Y-138197416D01*
X162159916Y-138276544D01*
X162103963Y-138373456D01*
X162078274Y-138469328D01*
X161474824Y-137865878D01*
X161435068Y-137922658D01*
X161344481Y-138116923D01*
X161344477Y-138116932D01*
X161289004Y-138323962D01*
X161289002Y-138323972D01*
X161270321Y-138537499D01*
X161270321Y-138537500D01*
X161289002Y-138751027D01*
X161289004Y-138751037D01*
X161344477Y-138958067D01*
X161344481Y-138958076D01*
X161435066Y-139152338D01*
X161435067Y-139152340D01*
X161474825Y-139209120D01*
X161474825Y-139209121D01*
X162078274Y-138605671D01*
X162103963Y-138701544D01*
X162159916Y-138798456D01*
X162239044Y-138877584D01*
X162335956Y-138933537D01*
X162431827Y-138959225D01*
X161828377Y-139562673D01*
X161828377Y-139562674D01*
X161881267Y-139599707D01*
X161924892Y-139654283D01*
X161932086Y-139723781D01*
X161900564Y-139786136D01*
X161840334Y-139821551D01*
X161771825Y-139819213D01*
X161757589Y-139814587D01*
X161757581Y-139814585D01*
X161750000Y-139813384D01*
X161750000Y-140720511D01*
X161740060Y-140703295D01*
X161684205Y-140647440D01*
X161615796Y-140607944D01*
X161539496Y-140587500D01*
X161460504Y-140587500D01*
X161384204Y-140607944D01*
X161315795Y-140647440D01*
X161259940Y-140703295D01*
X161250000Y-140720511D01*
X161250000Y-139813384D01*
X161249999Y-139813384D01*
X161242418Y-139814585D01*
X161242410Y-139814587D01*
X161077742Y-139868091D01*
X160923475Y-139946695D01*
X160783397Y-140048467D01*
X160660967Y-140170897D01*
X160559195Y-140310975D01*
X160480591Y-140465242D01*
X160427085Y-140629915D01*
X160400000Y-140800928D01*
X124171212Y-140800928D01*
X124256054Y-140596100D01*
X124318838Y-140361789D01*
X124350500Y-140121288D01*
X124350500Y-139878712D01*
X124318838Y-139638211D01*
X124256054Y-139403900D01*
X124163224Y-139179788D01*
X124041936Y-138969711D01*
X123894265Y-138777262D01*
X123894260Y-138777256D01*
X123722743Y-138605739D01*
X123722736Y-138605733D01*
X123530293Y-138458067D01*
X123530292Y-138458066D01*
X123530289Y-138458064D01*
X123320212Y-138336776D01*
X123320205Y-138336773D01*
X123096104Y-138243947D01*
X122861785Y-138181161D01*
X122621289Y-138149500D01*
X122621288Y-138149500D01*
X122378712Y-138149500D01*
X122378711Y-138149500D01*
X122138214Y-138181161D01*
X121903895Y-138243947D01*
X121679794Y-138336773D01*
X121679785Y-138336777D01*
X121469706Y-138458067D01*
X121277263Y-138605733D01*
X121277256Y-138605739D01*
X121105739Y-138777256D01*
X121105733Y-138777263D01*
X120958067Y-138969706D01*
X120836777Y-139179785D01*
X120836773Y-139179794D01*
X120743947Y-139403895D01*
X120681161Y-139638214D01*
X120649500Y-139878711D01*
X116146500Y-139878711D01*
X116146500Y-89999994D01*
X118569764Y-89999994D01*
X118569764Y-90000005D01*
X118589473Y-90237869D01*
X118589475Y-90237881D01*
X118648070Y-90469267D01*
X118743951Y-90687852D01*
X118743953Y-90687856D01*
X118874506Y-90887682D01*
X119036168Y-91063295D01*
X119176427Y-91172462D01*
X119217240Y-91229173D01*
X119220915Y-91298946D01*
X119188006Y-91356610D01*
X119187840Y-91359287D01*
X119740111Y-91911558D01*
X119690152Y-91932252D01*
X119577828Y-92007305D01*
X119482305Y-92102828D01*
X119407252Y-92215152D01*
X119386558Y-92265111D01*
X118835057Y-91713609D01*
X118744392Y-91852382D01*
X118648545Y-92070895D01*
X118589969Y-92302203D01*
X118589967Y-92302211D01*
X118570265Y-92539993D01*
X118570265Y-92540006D01*
X118589967Y-92777788D01*
X118589969Y-92777796D01*
X118648545Y-93009104D01*
X118744391Y-93227614D01*
X118835057Y-93366389D01*
X119386557Y-92814888D01*
X119407252Y-92864848D01*
X119482305Y-92977172D01*
X119577828Y-93072695D01*
X119690152Y-93147748D01*
X119740110Y-93168441D01*
X119305170Y-93603381D01*
X119243847Y-93636866D01*
X119217490Y-93639700D01*
X119027330Y-93639700D01*
X119027323Y-93639701D01*
X118967716Y-93646108D01*
X118832871Y-93696402D01*
X118832864Y-93696406D01*
X118717655Y-93782652D01*
X118717652Y-93782655D01*
X118631406Y-93897864D01*
X118631402Y-93897871D01*
X118581108Y-94032717D01*
X118574701Y-94092316D01*
X118574701Y-94092323D01*
X118574700Y-94092335D01*
X118574700Y-96067670D01*
X118574701Y-96067676D01*
X118581108Y-96127283D01*
X118631402Y-96262128D01*
X118631406Y-96262135D01*
X118717652Y-96377344D01*
X118717655Y-96377347D01*
X118832864Y-96463593D01*
X118832871Y-96463597D01*
X118967717Y-96513891D01*
X118967716Y-96513891D01*
X118974644Y-96514635D01*
X119027327Y-96520300D01*
X121002672Y-96520299D01*
X121062283Y-96513891D01*
X121197131Y-96463596D01*
X121312346Y-96377346D01*
X121398596Y-96262131D01*
X121448891Y-96127283D01*
X121455300Y-96067673D01*
X121455299Y-94092328D01*
X121448891Y-94032717D01*
X121420484Y-93956555D01*
X121398597Y-93897871D01*
X121398593Y-93897864D01*
X121312347Y-93782655D01*
X121312344Y-93782652D01*
X121197135Y-93696406D01*
X121197128Y-93696402D01*
X121062282Y-93646108D01*
X121062283Y-93646108D01*
X121002683Y-93639701D01*
X121002681Y-93639700D01*
X121002673Y-93639700D01*
X121002665Y-93639700D01*
X120812508Y-93639700D01*
X120745469Y-93620015D01*
X120724827Y-93603381D01*
X120289888Y-93168441D01*
X120339848Y-93147748D01*
X120452172Y-93072695D01*
X120547695Y-92977172D01*
X120622748Y-92864848D01*
X120643441Y-92814888D01*
X121194941Y-93366389D01*
X121285604Y-93227621D01*
X121285611Y-93227609D01*
X121377985Y-93017014D01*
X121422940Y-92963528D01*
X121489676Y-92942837D01*
X121557004Y-92961511D01*
X121579222Y-92979142D01*
X126660735Y-98060655D01*
X126660764Y-98060686D01*
X126803217Y-98203139D01*
X126967080Y-98312628D01*
X126967086Y-98312632D01*
X127070715Y-98355556D01*
X127149164Y-98388051D01*
X127245812Y-98407275D01*
X127294135Y-98416887D01*
X127342458Y-98426500D01*
X127342459Y-98426500D01*
X127342460Y-98426500D01*
X127539540Y-98426500D01*
X159621771Y-98426500D01*
X159688810Y-98446185D01*
X159734565Y-98498989D01*
X159744509Y-98568147D01*
X159715484Y-98631703D01*
X159709452Y-98638181D01*
X137053937Y-121293693D01*
X137017876Y-121316362D01*
X137018756Y-121318188D01*
X137012478Y-121321211D01*
X136859737Y-121417184D01*
X136732184Y-121544737D01*
X136636211Y-121697476D01*
X136576631Y-121867745D01*
X136576630Y-121867750D01*
X136556435Y-122046996D01*
X136556435Y-122047003D01*
X136576630Y-122226249D01*
X136576631Y-122226254D01*
X136636211Y-122396523D01*
X136732184Y-122549262D01*
X136859738Y-122676816D01*
X137012478Y-122772789D01*
X137182745Y-122832368D01*
X137182750Y-122832369D01*
X137361996Y-122852565D01*
X137362000Y-122852565D01*
X137362004Y-122852565D01*
X137541249Y-122832369D01*
X137541252Y-122832368D01*
X137541255Y-122832368D01*
X137711522Y-122772789D01*
X137864262Y-122676816D01*
X137991816Y-122549262D01*
X138087789Y-122396522D01*
X138087790Y-122396518D01*
X138090811Y-122390246D01*
X138092655Y-122391134D01*
X138115305Y-122355061D01*
X147694370Y-112775996D01*
X158706435Y-112775996D01*
X158706435Y-112776003D01*
X158726630Y-112955249D01*
X158726631Y-112955254D01*
X158786211Y-113125523D01*
X158882185Y-113278263D01*
X158884445Y-113281097D01*
X158885334Y-113283275D01*
X158885889Y-113284158D01*
X158885734Y-113284255D01*
X158910855Y-113345783D01*
X158911500Y-113358412D01*
X158911500Y-113959330D01*
X158911499Y-113959348D01*
X158911499Y-114125054D01*
X158911498Y-114125054D01*
X158952422Y-114277783D01*
X158968562Y-114305739D01*
X159031475Y-114414709D01*
X159031481Y-114414717D01*
X159150349Y-114533585D01*
X159150355Y-114533590D01*
X159443298Y-114826533D01*
X159476783Y-114887856D01*
X159478837Y-114900330D01*
X159488630Y-114987249D01*
X159548210Y-115157521D01*
X159629829Y-115287416D01*
X159644184Y-115310262D01*
X159771738Y-115437816D01*
X159829452Y-115474080D01*
X159919496Y-115530659D01*
X159924478Y-115533789D01*
X160094745Y-115593368D01*
X160094750Y-115593369D01*
X160273996Y-115613565D01*
X160274000Y-115613565D01*
X160274004Y-115613565D01*
X160453249Y-115593369D01*
X160453252Y-115593368D01*
X160453255Y-115593368D01*
X160623522Y-115533789D01*
X160776262Y-115437816D01*
X160903816Y-115310262D01*
X160999789Y-115157522D01*
X161059368Y-114987255D01*
X161064609Y-114940738D01*
X161079565Y-114808003D01*
X161079565Y-114807996D01*
X161059369Y-114628750D01*
X161059368Y-114628745D01*
X161002335Y-114465754D01*
X160999789Y-114458478D01*
X160972291Y-114414716D01*
X160918106Y-114328481D01*
X160903816Y-114305738D01*
X160776262Y-114178184D01*
X160691711Y-114125057D01*
X160623521Y-114082210D01*
X160453249Y-114022630D01*
X160366330Y-114012837D01*
X160301916Y-113985770D01*
X160292543Y-113977308D01*
X160148817Y-113833581D01*
X160115334Y-113772260D01*
X160112500Y-113745902D01*
X160112500Y-113358412D01*
X160132185Y-113291373D01*
X160139555Y-113281097D01*
X160141810Y-113278267D01*
X160141816Y-113278262D01*
X160237789Y-113125522D01*
X160297368Y-112955255D01*
X160317565Y-112776000D01*
X160297368Y-112596745D01*
X160237789Y-112426478D01*
X160141816Y-112273738D01*
X160014262Y-112146184D01*
X159861523Y-112050211D01*
X159691254Y-111990631D01*
X159691249Y-111990630D01*
X159512004Y-111970435D01*
X159511996Y-111970435D01*
X159332750Y-111990630D01*
X159332745Y-111990631D01*
X159162476Y-112050211D01*
X159009737Y-112146184D01*
X158882184Y-112273737D01*
X158786211Y-112426476D01*
X158726631Y-112596745D01*
X158726630Y-112596750D01*
X158706435Y-112775996D01*
X147694370Y-112775996D01*
X160850212Y-99620153D01*
X160911533Y-99586670D01*
X160981225Y-99591654D01*
X161025572Y-99620155D01*
X175265320Y-113859901D01*
X175298805Y-113921224D01*
X175293821Y-113990916D01*
X175251949Y-114046849D01*
X175218595Y-114064623D01*
X175165479Y-114083209D01*
X175012736Y-114179185D01*
X175009903Y-114181445D01*
X175007724Y-114182334D01*
X175006842Y-114182889D01*
X175006744Y-114182734D01*
X174945217Y-114207855D01*
X174932588Y-114208500D01*
X169845940Y-114208500D01*
X169805019Y-114219464D01*
X169805019Y-114219465D01*
X169767751Y-114229451D01*
X169693214Y-114249423D01*
X169693209Y-114249426D01*
X169556290Y-114328475D01*
X169556282Y-114328481D01*
X169444478Y-114440286D01*
X167113465Y-116771298D01*
X167052142Y-116804783D01*
X167039668Y-116806837D01*
X166952750Y-116816630D01*
X166782478Y-116876210D01*
X166629737Y-116972184D01*
X166502184Y-117099737D01*
X166406211Y-117252476D01*
X166346631Y-117422745D01*
X166346630Y-117422750D01*
X166326435Y-117601996D01*
X166326435Y-117602003D01*
X166346630Y-117781249D01*
X166346631Y-117781254D01*
X166406211Y-117951523D01*
X166502184Y-118104262D01*
X166629738Y-118231816D01*
X166782478Y-118327789D01*
X166952745Y-118387368D01*
X166986853Y-118391211D01*
X167051266Y-118418276D01*
X167090822Y-118475870D01*
X167092961Y-118545707D01*
X167060651Y-118602112D01*
X166030584Y-119632181D01*
X165969261Y-119665666D01*
X165942903Y-119668500D01*
X164285412Y-119668500D01*
X164218373Y-119648815D01*
X164208097Y-119641445D01*
X164205263Y-119639185D01*
X164205262Y-119639184D01*
X164135900Y-119595601D01*
X164052523Y-119543211D01*
X163882254Y-119483631D01*
X163882249Y-119483630D01*
X163703004Y-119463435D01*
X163702996Y-119463435D01*
X163523750Y-119483630D01*
X163523745Y-119483631D01*
X163353476Y-119543211D01*
X163200737Y-119639184D01*
X163073184Y-119766737D01*
X162977211Y-119919476D01*
X162917631Y-120089745D01*
X162917630Y-120089750D01*
X162897435Y-120268996D01*
X162897435Y-120269003D01*
X162917630Y-120448249D01*
X162917631Y-120448254D01*
X162977211Y-120618523D01*
X163031855Y-120705487D01*
X163073184Y-120771262D01*
X163200738Y-120898816D01*
X163282916Y-120950452D01*
X163347447Y-120991000D01*
X163353478Y-120994789D01*
X163412204Y-121015338D01*
X163523745Y-121054368D01*
X163523750Y-121054369D01*
X163702996Y-121074565D01*
X163703000Y-121074565D01*
X163703004Y-121074565D01*
X163882249Y-121054369D01*
X163882252Y-121054368D01*
X163882255Y-121054368D01*
X164052522Y-120994789D01*
X164205262Y-120898816D01*
X164205267Y-120898810D01*
X164208097Y-120896555D01*
X164210275Y-120895665D01*
X164211158Y-120895111D01*
X164211255Y-120895265D01*
X164272783Y-120870145D01*
X164285412Y-120869500D01*
X164747903Y-120869500D01*
X164814942Y-120889185D01*
X164860697Y-120941989D01*
X164870641Y-121011147D01*
X164841616Y-121074703D01*
X164835587Y-121081177D01*
X164510502Y-121406262D01*
X164223286Y-121693478D01*
X164111481Y-121805282D01*
X164111479Y-121805285D01*
X164062465Y-121890182D01*
X164062464Y-121890183D01*
X164042627Y-121924542D01*
X164032423Y-121942215D01*
X163991499Y-122094943D01*
X163991499Y-122094945D01*
X163991499Y-122263046D01*
X163991500Y-122263059D01*
X163991500Y-125060779D01*
X163971815Y-125127818D01*
X163933473Y-125165772D01*
X163835739Y-125227182D01*
X163708184Y-125354737D01*
X163612211Y-125507476D01*
X163552631Y-125677745D01*
X163552630Y-125677750D01*
X163532435Y-125856996D01*
X163532435Y-125857003D01*
X163552630Y-126036249D01*
X163552631Y-126036254D01*
X163612211Y-126206523D01*
X163708184Y-126359262D01*
X163835738Y-126486816D01*
X163988478Y-126582789D01*
X164158745Y-126642368D01*
X164158750Y-126642369D01*
X164337996Y-126662565D01*
X164338000Y-126662565D01*
X164338004Y-126662565D01*
X164517249Y-126642369D01*
X164517252Y-126642368D01*
X164517255Y-126642368D01*
X164687522Y-126582789D01*
X164840262Y-126486816D01*
X164967816Y-126359262D01*
X165063789Y-126206522D01*
X165123368Y-126036255D01*
X165142049Y-125870447D01*
X165150713Y-125836868D01*
X165151572Y-125834793D01*
X165151577Y-125834785D01*
X165192500Y-125682058D01*
X165192500Y-125523943D01*
X165192500Y-122474096D01*
X165212185Y-122407057D01*
X165228815Y-122386419D01*
X165880535Y-121734698D01*
X165941856Y-121701215D01*
X165954311Y-121699163D01*
X166041255Y-121689368D01*
X166211522Y-121629789D01*
X166364262Y-121533816D01*
X166491816Y-121406262D01*
X166587789Y-121253522D01*
X166647368Y-121083255D01*
X166650623Y-121054368D01*
X166667565Y-120904003D01*
X166667565Y-120903997D01*
X166652952Y-120774309D01*
X166665006Y-120705487D01*
X166688491Y-120672743D01*
X166723520Y-120637716D01*
X166723520Y-120637715D01*
X166733722Y-120627514D01*
X166733729Y-120627504D01*
X168293535Y-119067698D01*
X168354856Y-119034215D01*
X168367311Y-119032163D01*
X168454255Y-119022368D01*
X168624522Y-118962789D01*
X168777262Y-118866816D01*
X168904816Y-118739262D01*
X169000789Y-118586522D01*
X169060368Y-118416255D01*
X169080565Y-118237000D01*
X169065609Y-118104262D01*
X169060369Y-118057750D01*
X169060368Y-118057745D01*
X169000788Y-117887476D01*
X168961582Y-117825080D01*
X168904816Y-117734738D01*
X168777262Y-117607184D01*
X168624523Y-117511211D01*
X168454254Y-117451631D01*
X168454249Y-117451630D01*
X168420144Y-117447788D01*
X168355730Y-117420722D01*
X168316174Y-117363127D01*
X168314037Y-117293290D01*
X168346344Y-117236889D01*
X170137416Y-115445819D01*
X170198739Y-115412334D01*
X170225097Y-115409500D01*
X174932588Y-115409500D01*
X174999627Y-115429185D01*
X175009903Y-115436555D01*
X175012736Y-115438814D01*
X175012738Y-115438816D01*
X175097722Y-115492215D01*
X175163886Y-115533789D01*
X175165478Y-115534789D01*
X175332887Y-115593368D01*
X175335745Y-115594368D01*
X175335750Y-115594369D01*
X175514996Y-115614565D01*
X175515000Y-115614565D01*
X175515004Y-115614565D01*
X175694249Y-115594369D01*
X175694252Y-115594368D01*
X175694255Y-115594368D01*
X175864522Y-115534789D01*
X176017262Y-115438816D01*
X176144816Y-115311262D01*
X176240789Y-115158522D01*
X176259375Y-115105405D01*
X176300096Y-115048630D01*
X176365049Y-115022882D01*
X176433611Y-115036338D01*
X176464098Y-115058679D01*
X176692835Y-115287416D01*
X176797370Y-115391951D01*
X176797371Y-115391952D01*
X176920284Y-115474080D01*
X176920297Y-115474087D01*
X177038037Y-115522856D01*
X177056873Y-115530658D01*
X177056877Y-115530658D01*
X177056878Y-115530659D01*
X177201865Y-115559500D01*
X177201868Y-115559500D01*
X177201869Y-115559500D01*
X177349703Y-115559500D01*
X178452770Y-115559500D01*
X178519809Y-115579185D01*
X178540451Y-115595819D01*
X186105048Y-123160415D01*
X186105049Y-123160416D01*
X186161211Y-123216578D01*
X186209585Y-123264952D01*
X186332498Y-123347080D01*
X186332511Y-123347087D01*
X186469082Y-123403656D01*
X186469087Y-123403658D01*
X186469091Y-123403658D01*
X186469092Y-123403659D01*
X186614079Y-123432500D01*
X186614082Y-123432500D01*
X194085028Y-123432500D01*
X194125983Y-123439458D01*
X194205745Y-123467368D01*
X194205750Y-123467369D01*
X194384996Y-123487565D01*
X194385000Y-123487565D01*
X194385004Y-123487565D01*
X194564249Y-123467369D01*
X194564252Y-123467368D01*
X194564255Y-123467368D01*
X194734522Y-123407789D01*
X194887262Y-123311816D01*
X194894819Y-123304259D01*
X194956142Y-123270774D01*
X195025834Y-123275758D01*
X195070181Y-123304259D01*
X195077738Y-123311816D01*
X195168080Y-123368582D01*
X195223903Y-123403658D01*
X195230478Y-123407789D01*
X195301098Y-123432500D01*
X195400745Y-123467368D01*
X195400750Y-123467369D01*
X195579996Y-123487565D01*
X195580000Y-123487565D01*
X195580004Y-123487565D01*
X195759249Y-123467369D01*
X195759252Y-123467368D01*
X195759255Y-123467368D01*
X195929522Y-123407789D01*
X196082262Y-123311816D01*
X196209816Y-123184262D01*
X196305789Y-123031522D01*
X196365368Y-122861255D01*
X196385565Y-122682000D01*
X196370609Y-122549262D01*
X196365369Y-122502750D01*
X196365368Y-122502745D01*
X196328199Y-122396522D01*
X196305789Y-122332478D01*
X196264007Y-122265983D01*
X205922500Y-122265983D01*
X205922500Y-123606001D01*
X205922501Y-123606018D01*
X205933000Y-123708796D01*
X205933001Y-123708799D01*
X205984044Y-123862835D01*
X205988186Y-123875334D01*
X206080288Y-124024656D01*
X206204344Y-124148712D01*
X206353666Y-124240814D01*
X206520203Y-124295999D01*
X206622991Y-124306500D01*
X208413008Y-124306499D01*
X208515797Y-124295999D01*
X208682334Y-124240814D01*
X208831656Y-124148712D01*
X208955712Y-124024656D01*
X209047814Y-123875334D01*
X209102999Y-123708797D01*
X209113500Y-123606009D01*
X209113499Y-122265992D01*
X209113199Y-122263059D01*
X209102999Y-122163203D01*
X209102998Y-122163200D01*
X209086101Y-122112209D01*
X209047814Y-121996666D01*
X208955712Y-121847344D01*
X208831656Y-121723288D01*
X208682334Y-121631186D01*
X208682332Y-121631185D01*
X208682325Y-121631181D01*
X208681165Y-121630640D01*
X208680503Y-121630057D01*
X208676187Y-121627395D01*
X208676642Y-121626657D01*
X208628727Y-121584466D01*
X208609577Y-121517272D01*
X208629795Y-121450392D01*
X208645892Y-121430578D01*
X208787977Y-121288493D01*
X208914728Y-121114036D01*
X209012627Y-120921901D01*
X209079266Y-120716809D01*
X209090481Y-120646000D01*
X208060709Y-120646000D01*
X208072452Y-120625661D01*
X208113000Y-120474333D01*
X208113000Y-120317667D01*
X208072452Y-120166339D01*
X208060709Y-120146000D01*
X209090481Y-120146000D01*
X209079266Y-120075190D01*
X209012627Y-119870098D01*
X208914728Y-119677963D01*
X208787974Y-119503503D01*
X208787974Y-119503502D01*
X208635497Y-119351025D01*
X208461036Y-119224271D01*
X208268901Y-119126372D01*
X208063809Y-119059734D01*
X207850820Y-119026000D01*
X207768000Y-119026000D01*
X207768000Y-119853290D01*
X207747661Y-119841548D01*
X207596333Y-119801000D01*
X207439667Y-119801000D01*
X207288339Y-119841548D01*
X207268000Y-119853290D01*
X207268000Y-119026000D01*
X207185180Y-119026000D01*
X206972190Y-119059734D01*
X206767098Y-119126372D01*
X206574963Y-119224271D01*
X206400503Y-119351025D01*
X206400502Y-119351025D01*
X206248025Y-119503502D01*
X206248025Y-119503503D01*
X206121271Y-119677963D01*
X206023372Y-119870098D01*
X205956733Y-120075190D01*
X205945519Y-120146000D01*
X206975291Y-120146000D01*
X206963548Y-120166339D01*
X206923000Y-120317667D01*
X206923000Y-120474333D01*
X206963548Y-120625661D01*
X206975291Y-120646000D01*
X205945519Y-120646000D01*
X205956733Y-120716809D01*
X206023372Y-120921901D01*
X206121271Y-121114036D01*
X206248025Y-121288496D01*
X206248025Y-121288497D01*
X206390107Y-121430579D01*
X206423592Y-121491902D01*
X206418608Y-121561594D01*
X206376736Y-121617527D01*
X206354840Y-121630638D01*
X206353672Y-121631182D01*
X206204342Y-121723289D01*
X206080289Y-121847342D01*
X205988187Y-121996663D01*
X205988186Y-121996666D01*
X205933001Y-122163203D01*
X205933001Y-122163204D01*
X205933000Y-122163204D01*
X205922500Y-122265983D01*
X196264007Y-122265983D01*
X196209816Y-122179738D01*
X196209814Y-122179736D01*
X196209813Y-122179734D01*
X196207550Y-122176896D01*
X196206659Y-122174715D01*
X196206111Y-122173842D01*
X196206264Y-122173745D01*
X196181144Y-122112209D01*
X196180500Y-122099587D01*
X196180500Y-110581983D01*
X206303500Y-110581983D01*
X206303500Y-111922001D01*
X206303501Y-111922018D01*
X206314000Y-112024796D01*
X206314001Y-112024799D01*
X206322422Y-112050211D01*
X206369186Y-112191334D01*
X206461288Y-112340656D01*
X206585344Y-112464712D01*
X206734666Y-112556814D01*
X206901203Y-112611999D01*
X207003991Y-112622500D01*
X208794008Y-112622499D01*
X208896797Y-112611999D01*
X209063334Y-112556814D01*
X209212656Y-112464712D01*
X209336712Y-112340656D01*
X209428814Y-112191334D01*
X209483999Y-112024797D01*
X209494500Y-111922009D01*
X209494499Y-110581992D01*
X209492806Y-110565423D01*
X209483999Y-110479203D01*
X209483998Y-110479200D01*
X209457492Y-110399211D01*
X209428814Y-110312666D01*
X209336712Y-110163344D01*
X209212656Y-110039288D01*
X209063334Y-109947186D01*
X209063332Y-109947185D01*
X209063325Y-109947181D01*
X209062165Y-109946640D01*
X209061503Y-109946057D01*
X209057187Y-109943395D01*
X209057642Y-109942657D01*
X209009727Y-109900466D01*
X208990577Y-109833272D01*
X209010795Y-109766392D01*
X209026892Y-109746578D01*
X209168977Y-109604493D01*
X209295728Y-109430036D01*
X209393627Y-109237901D01*
X209460266Y-109032809D01*
X209471481Y-108962000D01*
X208441709Y-108962000D01*
X208453452Y-108941661D01*
X208494000Y-108790333D01*
X208494000Y-108633667D01*
X208453452Y-108482339D01*
X208441709Y-108462000D01*
X209471481Y-108462000D01*
X209460266Y-108391190D01*
X209393627Y-108186098D01*
X209295728Y-107993963D01*
X209168974Y-107819503D01*
X209168974Y-107819502D01*
X209016497Y-107667025D01*
X208842036Y-107540271D01*
X208649901Y-107442372D01*
X208444809Y-107375734D01*
X208231820Y-107342000D01*
X208149000Y-107342000D01*
X208149000Y-108169290D01*
X208128661Y-108157548D01*
X207977333Y-108117000D01*
X207820667Y-108117000D01*
X207669339Y-108157548D01*
X207649000Y-108169290D01*
X207649000Y-107342000D01*
X207566180Y-107342000D01*
X207353190Y-107375734D01*
X207148098Y-107442372D01*
X206955963Y-107540271D01*
X206781503Y-107667025D01*
X206781502Y-107667025D01*
X206629025Y-107819502D01*
X206629025Y-107819503D01*
X206502271Y-107993963D01*
X206404372Y-108186098D01*
X206337733Y-108391190D01*
X206326519Y-108462000D01*
X207356291Y-108462000D01*
X207344548Y-108482339D01*
X207304000Y-108633667D01*
X207304000Y-108790333D01*
X207344548Y-108941661D01*
X207356291Y-108962000D01*
X206326519Y-108962000D01*
X206337733Y-109032809D01*
X206404372Y-109237901D01*
X206502271Y-109430036D01*
X206629025Y-109604496D01*
X206629025Y-109604497D01*
X206771107Y-109746579D01*
X206804592Y-109807902D01*
X206799608Y-109877594D01*
X206757736Y-109933527D01*
X206735840Y-109946638D01*
X206734672Y-109947182D01*
X206585342Y-110039289D01*
X206461289Y-110163342D01*
X206369187Y-110312663D01*
X206369185Y-110312668D01*
X206360250Y-110339632D01*
X206314001Y-110479203D01*
X206314001Y-110479204D01*
X206314000Y-110479204D01*
X206303500Y-110581983D01*
X196180500Y-110581983D01*
X196180500Y-99405983D01*
X206684500Y-99405983D01*
X206684500Y-100746001D01*
X206684501Y-100746018D01*
X206695000Y-100848796D01*
X206695001Y-100848799D01*
X206750185Y-101015331D01*
X206750186Y-101015334D01*
X206842288Y-101164656D01*
X206966344Y-101288712D01*
X207115666Y-101380814D01*
X207282203Y-101435999D01*
X207384991Y-101446500D01*
X209175008Y-101446499D01*
X209277797Y-101435999D01*
X209444334Y-101380814D01*
X209593656Y-101288712D01*
X209717712Y-101164656D01*
X209809814Y-101015334D01*
X209864999Y-100848797D01*
X209875500Y-100746009D01*
X209875499Y-99405992D01*
X209864999Y-99303203D01*
X209809814Y-99136666D01*
X209717712Y-98987344D01*
X209593656Y-98863288D01*
X209444334Y-98771186D01*
X209444332Y-98771185D01*
X209444325Y-98771181D01*
X209443165Y-98770640D01*
X209442503Y-98770057D01*
X209438187Y-98767395D01*
X209438642Y-98766657D01*
X209390727Y-98724466D01*
X209371577Y-98657272D01*
X209391795Y-98590392D01*
X209407892Y-98570578D01*
X209549977Y-98428493D01*
X209676728Y-98254036D01*
X209774627Y-98061901D01*
X209841266Y-97856809D01*
X209852481Y-97786000D01*
X208822709Y-97786000D01*
X208834452Y-97765661D01*
X208875000Y-97614333D01*
X208875000Y-97457667D01*
X208834452Y-97306339D01*
X208822709Y-97286000D01*
X209852481Y-97286000D01*
X209841266Y-97215190D01*
X209774627Y-97010098D01*
X209676728Y-96817963D01*
X209549974Y-96643503D01*
X209549974Y-96643502D01*
X209397497Y-96491025D01*
X209223036Y-96364271D01*
X209030901Y-96266372D01*
X208825809Y-96199734D01*
X208612820Y-96166000D01*
X208530000Y-96166000D01*
X208530000Y-96993290D01*
X208509661Y-96981548D01*
X208358333Y-96941000D01*
X208201667Y-96941000D01*
X208050339Y-96981548D01*
X208030000Y-96993290D01*
X208030000Y-96166000D01*
X207947180Y-96166000D01*
X207734190Y-96199734D01*
X207529098Y-96266372D01*
X207336963Y-96364271D01*
X207162503Y-96491025D01*
X207162502Y-96491025D01*
X207010025Y-96643502D01*
X207010025Y-96643503D01*
X206883271Y-96817963D01*
X206785372Y-97010098D01*
X206718733Y-97215190D01*
X206707519Y-97286000D01*
X207737291Y-97286000D01*
X207725548Y-97306339D01*
X207685000Y-97457667D01*
X207685000Y-97614333D01*
X207725548Y-97765661D01*
X207737291Y-97786000D01*
X206707519Y-97786000D01*
X206718733Y-97856809D01*
X206785372Y-98061901D01*
X206883271Y-98254036D01*
X207010025Y-98428496D01*
X207010025Y-98428497D01*
X207152107Y-98570579D01*
X207185592Y-98631902D01*
X207180608Y-98701594D01*
X207138736Y-98757527D01*
X207116840Y-98770638D01*
X207115672Y-98771182D01*
X206966342Y-98863289D01*
X206842289Y-98987342D01*
X206750187Y-99136663D01*
X206750186Y-99136666D01*
X206695001Y-99303203D01*
X206695001Y-99303204D01*
X206695000Y-99303204D01*
X206684500Y-99405983D01*
X196180500Y-99405983D01*
X196180500Y-87804943D01*
X196180499Y-87804939D01*
X196172532Y-87775204D01*
X196167858Y-87757760D01*
X196139577Y-87652215D01*
X196096425Y-87577474D01*
X196068151Y-87528502D01*
X196060522Y-87515287D01*
X196060521Y-87515286D01*
X196060520Y-87515284D01*
X195948716Y-87403480D01*
X195948715Y-87403479D01*
X195944385Y-87399149D01*
X195944374Y-87399139D01*
X179519700Y-70974465D01*
X179486215Y-70913142D01*
X179484163Y-70900686D01*
X179474368Y-70813745D01*
X179414789Y-70643478D01*
X179318816Y-70490738D01*
X179191262Y-70363184D01*
X179038523Y-70267211D01*
X178868254Y-70207631D01*
X178868249Y-70207630D01*
X178689004Y-70187435D01*
X178688996Y-70187435D01*
X178509750Y-70207630D01*
X178509745Y-70207631D01*
X178339476Y-70267211D01*
X178186737Y-70363184D01*
X178059184Y-70490737D01*
X177963211Y-70643476D01*
X177903631Y-70813745D01*
X177903630Y-70813750D01*
X177883435Y-70992996D01*
X177883435Y-70993003D01*
X177903630Y-71172249D01*
X177903631Y-71172254D01*
X177963211Y-71342523D01*
X178056833Y-71491520D01*
X178059184Y-71495262D01*
X178186738Y-71622816D01*
X178339478Y-71718789D01*
X178509745Y-71778368D01*
X178596669Y-71788161D01*
X178661080Y-71815226D01*
X178670465Y-71823700D01*
X194943181Y-88096416D01*
X194976666Y-88157739D01*
X194979500Y-88184097D01*
X194979500Y-121885779D01*
X194959815Y-121952818D01*
X194907011Y-121998573D01*
X194837853Y-122008517D01*
X194789528Y-121990773D01*
X194734523Y-121956211D01*
X194564254Y-121896631D01*
X194564249Y-121896630D01*
X194385004Y-121876435D01*
X194384996Y-121876435D01*
X194205750Y-121896630D01*
X194205745Y-121896631D01*
X194125983Y-121924542D01*
X194085028Y-121931500D01*
X187050229Y-121931500D01*
X186983190Y-121911815D01*
X186962548Y-121895181D01*
X179568307Y-114500940D01*
X179545651Y-114464867D01*
X179543811Y-114465754D01*
X179540789Y-114459478D01*
X179444815Y-114306737D01*
X179317262Y-114179184D01*
X179164523Y-114083211D01*
X178994254Y-114023631D01*
X178994249Y-114023630D01*
X178815004Y-114003435D01*
X178814996Y-114003435D01*
X178635750Y-114023630D01*
X178635745Y-114023631D01*
X178555983Y-114051542D01*
X178515028Y-114058500D01*
X177638015Y-114058500D01*
X177570976Y-114038815D01*
X177550334Y-114022181D01*
X175479853Y-111951700D01*
X175446368Y-111890377D01*
X175451352Y-111820685D01*
X175493224Y-111764752D01*
X175501560Y-111759026D01*
X175508262Y-111754816D01*
X175508266Y-111754811D01*
X175511097Y-111752555D01*
X175513277Y-111751664D01*
X175514162Y-111751109D01*
X175514259Y-111751263D01*
X175575783Y-111726145D01*
X175588412Y-111725500D01*
X183579903Y-111725500D01*
X183646942Y-111745185D01*
X183667584Y-111761819D01*
X187367298Y-115461533D01*
X187400783Y-115522856D01*
X187402837Y-115535330D01*
X187412630Y-115622249D01*
X187472210Y-115792521D01*
X187568184Y-115945262D01*
X187695738Y-116072816D01*
X187848478Y-116168789D01*
X188018745Y-116228368D01*
X188018750Y-116228369D01*
X188197996Y-116248565D01*
X188198000Y-116248565D01*
X188198004Y-116248565D01*
X188377249Y-116228369D01*
X188377252Y-116228368D01*
X188377255Y-116228368D01*
X188547522Y-116168789D01*
X188700262Y-116072816D01*
X188827816Y-115945262D01*
X188923789Y-115792522D01*
X188983368Y-115622255D01*
X188983369Y-115622249D01*
X189003565Y-115443003D01*
X189003565Y-115442996D01*
X188983369Y-115263750D01*
X188983368Y-115263745D01*
X188946549Y-115158522D01*
X188923789Y-115093478D01*
X188827816Y-114940738D01*
X188700262Y-114813184D01*
X188547521Y-114717210D01*
X188377249Y-114657630D01*
X188290330Y-114647837D01*
X188225916Y-114620770D01*
X188216533Y-114612298D01*
X184367590Y-110763355D01*
X184367588Y-110763352D01*
X184248717Y-110644481D01*
X184248716Y-110644480D01*
X184140481Y-110581991D01*
X184140480Y-110581990D01*
X184111783Y-110565422D01*
X184055881Y-110550443D01*
X183959057Y-110524499D01*
X183800943Y-110524499D01*
X183793347Y-110524499D01*
X183793331Y-110524500D01*
X175588412Y-110524500D01*
X175521373Y-110504815D01*
X175511097Y-110497445D01*
X175508263Y-110495185D01*
X175508262Y-110495184D01*
X175440675Y-110452716D01*
X175355523Y-110399211D01*
X175185254Y-110339631D01*
X175185249Y-110339630D01*
X175006004Y-110319435D01*
X175005996Y-110319435D01*
X174826750Y-110339630D01*
X174826745Y-110339631D01*
X174656476Y-110399211D01*
X174503737Y-110495184D01*
X174376182Y-110622739D01*
X174376178Y-110622744D01*
X174371972Y-110629439D01*
X174319637Y-110675729D01*
X174250583Y-110686376D01*
X174186735Y-110657999D01*
X174179299Y-110651146D01*
X162330819Y-98802665D01*
X162297334Y-98741342D01*
X162294500Y-98714984D01*
X162294500Y-97067942D01*
X162314185Y-97000903D01*
X162345612Y-96967625D01*
X162436821Y-96901359D01*
X162589359Y-96748821D01*
X162716157Y-96574299D01*
X162814092Y-96382089D01*
X162880754Y-96176926D01*
X162898056Y-96067683D01*
X162914500Y-95963866D01*
X162914500Y-95298133D01*
X162880754Y-95085077D01*
X162880754Y-95085074D01*
X162814092Y-94879911D01*
X162716157Y-94687701D01*
X162589359Y-94513179D01*
X162436821Y-94360641D01*
X162262299Y-94233843D01*
X162070089Y-94135908D01*
X161864926Y-94069246D01*
X161864924Y-94069245D01*
X161716875Y-94045796D01*
X161653741Y-94015866D01*
X161616810Y-93956555D01*
X161617808Y-93886692D01*
X161648591Y-93835644D01*
X163421520Y-92062716D01*
X163500577Y-91925785D01*
X163541501Y-91773057D01*
X163541501Y-91614942D01*
X163541501Y-91607347D01*
X163541500Y-91607329D01*
X163541500Y-88298261D01*
X163561185Y-88231222D01*
X163600222Y-88192834D01*
X163636696Y-88170251D01*
X163794130Y-88026731D01*
X163906459Y-87877983D01*
X172492500Y-87877983D01*
X172492500Y-89668001D01*
X172492501Y-89668018D01*
X172503000Y-89770796D01*
X172503001Y-89770799D01*
X172540774Y-89884788D01*
X172558186Y-89937334D01*
X172650288Y-90086656D01*
X172774344Y-90210712D01*
X172923666Y-90302814D01*
X173090203Y-90357999D01*
X173192991Y-90368500D01*
X174533008Y-90368499D01*
X174635797Y-90357999D01*
X174802334Y-90302814D01*
X174951656Y-90210712D01*
X175075712Y-90086656D01*
X175167814Y-89937334D01*
X175167817Y-89937323D01*
X175168353Y-89936177D01*
X175168934Y-89935516D01*
X175171605Y-89931187D01*
X175172344Y-89931643D01*
X175214521Y-89883734D01*
X175281713Y-89864577D01*
X175348596Y-89884788D01*
X175368420Y-89900892D01*
X175510502Y-90042974D01*
X175684963Y-90169728D01*
X175877098Y-90267627D01*
X176082190Y-90334266D01*
X176153000Y-90345481D01*
X176153000Y-89315709D01*
X176173339Y-89327452D01*
X176324667Y-89368000D01*
X176481333Y-89368000D01*
X176632661Y-89327452D01*
X176653000Y-89315709D01*
X176653000Y-90345480D01*
X176723809Y-90334266D01*
X176928901Y-90267627D01*
X177121036Y-90169728D01*
X177295496Y-90042974D01*
X177295497Y-90042974D01*
X177447974Y-89890497D01*
X177447974Y-89890496D01*
X177574728Y-89716036D01*
X177672627Y-89523901D01*
X177739265Y-89318809D01*
X177773000Y-89105820D01*
X177773000Y-89023000D01*
X176945709Y-89023000D01*
X176957452Y-89002661D01*
X176998000Y-88851333D01*
X176998000Y-88694667D01*
X176957452Y-88543339D01*
X176945709Y-88523000D01*
X177773000Y-88523000D01*
X177773000Y-88440179D01*
X177739265Y-88227190D01*
X177672627Y-88022098D01*
X177574728Y-87829963D01*
X177447974Y-87655503D01*
X177447974Y-87655502D01*
X177295497Y-87503025D01*
X177121036Y-87376271D01*
X176928899Y-87278372D01*
X176723805Y-87211733D01*
X176653000Y-87200518D01*
X176653000Y-88230290D01*
X176632661Y-88218548D01*
X176481333Y-88178000D01*
X176324667Y-88178000D01*
X176173339Y-88218548D01*
X176153000Y-88230290D01*
X176153000Y-87200518D01*
X176152999Y-87200518D01*
X176082194Y-87211733D01*
X175877100Y-87278372D01*
X175684963Y-87376271D01*
X175510506Y-87503022D01*
X175368420Y-87645108D01*
X175307097Y-87678592D01*
X175237405Y-87673608D01*
X175181472Y-87631736D01*
X175168356Y-87609828D01*
X175167816Y-87608670D01*
X175148575Y-87577475D01*
X175075712Y-87459344D01*
X174951656Y-87335288D01*
X174829323Y-87259833D01*
X174802336Y-87243187D01*
X174802331Y-87243185D01*
X174787185Y-87238166D01*
X174635797Y-87188001D01*
X174635795Y-87188000D01*
X174533010Y-87177500D01*
X173192998Y-87177500D01*
X173192981Y-87177501D01*
X173090203Y-87188000D01*
X173090200Y-87188001D01*
X172923668Y-87243185D01*
X172923663Y-87243187D01*
X172774342Y-87335289D01*
X172650289Y-87459342D01*
X172558187Y-87608663D01*
X172558185Y-87608668D01*
X172550541Y-87631736D01*
X172503001Y-87775203D01*
X172503001Y-87775204D01*
X172503000Y-87775204D01*
X172492500Y-87877983D01*
X163906459Y-87877983D01*
X163922512Y-87856726D01*
X164017469Y-87666026D01*
X164075769Y-87461125D01*
X164095425Y-87249000D01*
X164075769Y-87036875D01*
X164017469Y-86831974D01*
X163922512Y-86641274D01*
X163794130Y-86471269D01*
X163794128Y-86471266D01*
X163636697Y-86327750D01*
X163636696Y-86327749D01*
X163455572Y-86215601D01*
X163455571Y-86215600D01*
X163256926Y-86138645D01*
X163256925Y-86138644D01*
X163256923Y-86138644D01*
X163047517Y-86099500D01*
X162834483Y-86099500D01*
X162625077Y-86138644D01*
X162625075Y-86138644D01*
X162625073Y-86138645D01*
X162426428Y-86215600D01*
X162426427Y-86215601D01*
X162245302Y-86327750D01*
X162087871Y-86471266D01*
X161959488Y-86641273D01*
X161864535Y-86831963D01*
X161864530Y-86831976D01*
X161806230Y-87036875D01*
X161794471Y-87163786D01*
X161768685Y-87228723D01*
X161740929Y-87248605D01*
X161760503Y-87259833D01*
X161792693Y-87321846D01*
X161794471Y-87334213D01*
X161806230Y-87461124D01*
X161864530Y-87666023D01*
X161864535Y-87666036D01*
X161959488Y-87856726D01*
X162087871Y-88026733D01*
X162212222Y-88140093D01*
X162240070Y-88165480D01*
X162245303Y-88170250D01*
X162245302Y-88170250D01*
X162245304Y-88170251D01*
X162281777Y-88192834D01*
X162328413Y-88244861D01*
X162340500Y-88298261D01*
X162340500Y-91393902D01*
X162320815Y-91460941D01*
X162304181Y-91481583D01*
X159784861Y-94000902D01*
X159723538Y-94034387D01*
X159684582Y-94036579D01*
X159674028Y-94035501D01*
X159674012Y-94035500D01*
X159674009Y-94035500D01*
X159674003Y-94035500D01*
X158333998Y-94035500D01*
X158333981Y-94035501D01*
X158231203Y-94046000D01*
X158231200Y-94046001D01*
X158064668Y-94101185D01*
X158064663Y-94101187D01*
X157915342Y-94193289D01*
X157791289Y-94317342D01*
X157699187Y-94466663D01*
X157699186Y-94466666D01*
X157644001Y-94633203D01*
X157644001Y-94633204D01*
X157644000Y-94633204D01*
X157633500Y-94735983D01*
X157633500Y-94735996D01*
X157633501Y-96301500D01*
X157613816Y-96368539D01*
X157561013Y-96414294D01*
X157509501Y-96425500D01*
X127906782Y-96425500D01*
X127839743Y-96405815D01*
X127819101Y-96389181D01*
X121495116Y-90065196D01*
X121461631Y-90003873D01*
X121459222Y-89987773D01*
X121440525Y-89762122D01*
X121428854Y-89716036D01*
X121381929Y-89530732D01*
X121310548Y-89368000D01*
X121286047Y-89312144D01*
X121155494Y-89112318D01*
X120993832Y-88936705D01*
X120813337Y-88796221D01*
X120772525Y-88739511D01*
X120765500Y-88698368D01*
X120765500Y-87877983D01*
X143663500Y-87877983D01*
X143663500Y-89668001D01*
X143663501Y-89668018D01*
X143674000Y-89770796D01*
X143674001Y-89770799D01*
X143711774Y-89884788D01*
X143729186Y-89937334D01*
X143821288Y-90086656D01*
X143945344Y-90210712D01*
X144094666Y-90302814D01*
X144261203Y-90357999D01*
X144363991Y-90368500D01*
X145704008Y-90368499D01*
X145806797Y-90357999D01*
X145973334Y-90302814D01*
X146122656Y-90210712D01*
X146246712Y-90086656D01*
X146338814Y-89937334D01*
X146338817Y-89937323D01*
X146339353Y-89936177D01*
X146339934Y-89935516D01*
X146342605Y-89931187D01*
X146343344Y-89931643D01*
X146385521Y-89883734D01*
X146452713Y-89864577D01*
X146519596Y-89884788D01*
X146539420Y-89900892D01*
X146681502Y-90042974D01*
X146855963Y-90169728D01*
X147048098Y-90267627D01*
X147253190Y-90334266D01*
X147324000Y-90345481D01*
X147324000Y-89315709D01*
X147344339Y-89327452D01*
X147495667Y-89368000D01*
X147652333Y-89368000D01*
X147803661Y-89327452D01*
X147824000Y-89315709D01*
X147824000Y-90345480D01*
X147894809Y-90334266D01*
X148099901Y-90267627D01*
X148292036Y-90169728D01*
X148466496Y-90042974D01*
X148466497Y-90042974D01*
X148618974Y-89890497D01*
X148618974Y-89890496D01*
X148745728Y-89716036D01*
X148843627Y-89523901D01*
X148910265Y-89318809D01*
X148944000Y-89105820D01*
X148944000Y-89023000D01*
X148116709Y-89023000D01*
X148128452Y-89002661D01*
X148169000Y-88851333D01*
X148169000Y-88694667D01*
X148128452Y-88543339D01*
X148116709Y-88523000D01*
X148944000Y-88523000D01*
X148944000Y-88440179D01*
X148910265Y-88227190D01*
X148843627Y-88022098D01*
X148745728Y-87829963D01*
X148618974Y-87655503D01*
X148618974Y-87655502D01*
X148466497Y-87503025D01*
X148292036Y-87376271D01*
X148099899Y-87278372D01*
X147894805Y-87211733D01*
X147824000Y-87200518D01*
X147824000Y-88230290D01*
X147803661Y-88218548D01*
X147652333Y-88178000D01*
X147495667Y-88178000D01*
X147344339Y-88218548D01*
X147324000Y-88230290D01*
X147324000Y-87200518D01*
X147323999Y-87200518D01*
X147253194Y-87211733D01*
X147048100Y-87278372D01*
X146855963Y-87376271D01*
X146681506Y-87503022D01*
X146539420Y-87645108D01*
X146478097Y-87678592D01*
X146408405Y-87673608D01*
X146352472Y-87631736D01*
X146339356Y-87609828D01*
X146338816Y-87608670D01*
X146319575Y-87577475D01*
X146246712Y-87459344D01*
X146122656Y-87335288D01*
X146000323Y-87259833D01*
X145973336Y-87243187D01*
X145973331Y-87243185D01*
X145958185Y-87238166D01*
X145806797Y-87188001D01*
X145806795Y-87188000D01*
X145704010Y-87177500D01*
X144363998Y-87177500D01*
X144363981Y-87177501D01*
X144261203Y-87188000D01*
X144261200Y-87188001D01*
X144094668Y-87243185D01*
X144094663Y-87243187D01*
X143945342Y-87335289D01*
X143821289Y-87459342D01*
X143729187Y-87608663D01*
X143729185Y-87608668D01*
X143721541Y-87631736D01*
X143674001Y-87775203D01*
X143674001Y-87775204D01*
X143674000Y-87775204D01*
X143663500Y-87877983D01*
X120765500Y-87877983D01*
X120765500Y-86552155D01*
X156712000Y-86552155D01*
X156712000Y-86999000D01*
X157552387Y-86999000D01*
X157544922Y-87006465D01*
X157492919Y-87096536D01*
X157466000Y-87196997D01*
X157466000Y-87301003D01*
X157492919Y-87401464D01*
X157544922Y-87491535D01*
X157552387Y-87499000D01*
X156712000Y-87499000D01*
X156712000Y-87945844D01*
X156718401Y-88005372D01*
X156718403Y-88005379D01*
X156768645Y-88140086D01*
X156768649Y-88140093D01*
X156854809Y-88255187D01*
X156854812Y-88255190D01*
X156969906Y-88341350D01*
X156969913Y-88341354D01*
X157104620Y-88391596D01*
X157104627Y-88391598D01*
X157164155Y-88397999D01*
X157164172Y-88398000D01*
X157611000Y-88398000D01*
X157611000Y-87557613D01*
X157618465Y-87565078D01*
X157708536Y-87617081D01*
X157808997Y-87644000D01*
X157913003Y-87644000D01*
X158013464Y-87617081D01*
X158103535Y-87565078D01*
X158111000Y-87557613D01*
X158111000Y-88398000D01*
X158557828Y-88398000D01*
X158557844Y-88397999D01*
X158617372Y-88391598D01*
X158617379Y-88391596D01*
X158752086Y-88341354D01*
X158752093Y-88341350D01*
X158867187Y-88255190D01*
X158867190Y-88255187D01*
X158953350Y-88140093D01*
X158953354Y-88140086D01*
X159003596Y-88005379D01*
X159003598Y-88005372D01*
X159009999Y-87945844D01*
X159010000Y-87945827D01*
X159010000Y-87378029D01*
X159029685Y-87310990D01*
X159082489Y-87265235D01*
X159151647Y-87255291D01*
X159215203Y-87284316D01*
X159252977Y-87343094D01*
X159257471Y-87366588D01*
X159266230Y-87461124D01*
X159324530Y-87666023D01*
X159324535Y-87666036D01*
X159419488Y-87856726D01*
X159547871Y-88026733D01*
X159672222Y-88140093D01*
X159705304Y-88170251D01*
X159886428Y-88282399D01*
X160085077Y-88359356D01*
X160294483Y-88398500D01*
X160294486Y-88398500D01*
X160507514Y-88398500D01*
X160507517Y-88398500D01*
X160716923Y-88359356D01*
X160915572Y-88282399D01*
X161096696Y-88170251D01*
X161254130Y-88026731D01*
X161382512Y-87856726D01*
X161477469Y-87666026D01*
X161535769Y-87461125D01*
X161547529Y-87334213D01*
X161573315Y-87269276D01*
X161601070Y-87249393D01*
X161581497Y-87238166D01*
X161549307Y-87176153D01*
X161547529Y-87163786D01*
X161535769Y-87036875D01*
X161477469Y-86831974D01*
X161382512Y-86641274D01*
X161254130Y-86471269D01*
X161254128Y-86471266D01*
X161096697Y-86327750D01*
X161096696Y-86327749D01*
X160915572Y-86215601D01*
X160915571Y-86215600D01*
X160716926Y-86138645D01*
X160716925Y-86138644D01*
X160716923Y-86138644D01*
X160507517Y-86099500D01*
X160294483Y-86099500D01*
X160085077Y-86138644D01*
X160085075Y-86138644D01*
X160085073Y-86138645D01*
X159886428Y-86215600D01*
X159886427Y-86215601D01*
X159705302Y-86327750D01*
X159547871Y-86471266D01*
X159419488Y-86641273D01*
X159324535Y-86831963D01*
X159324530Y-86831976D01*
X159266230Y-87036875D01*
X159257471Y-87131411D01*
X159231685Y-87196348D01*
X159174884Y-87237036D01*
X159105103Y-87240556D01*
X159044497Y-87205791D01*
X159012307Y-87143778D01*
X159010000Y-87119970D01*
X159010000Y-86552172D01*
X159009999Y-86552155D01*
X159003598Y-86492627D01*
X159003596Y-86492620D01*
X158953354Y-86357913D01*
X158953350Y-86357906D01*
X158867190Y-86242812D01*
X158867187Y-86242809D01*
X158752093Y-86156649D01*
X158752086Y-86156645D01*
X158617379Y-86106403D01*
X158617372Y-86106401D01*
X158557844Y-86100000D01*
X158111000Y-86100000D01*
X158111000Y-86940387D01*
X158103535Y-86932922D01*
X158013464Y-86880919D01*
X157913003Y-86854000D01*
X157808997Y-86854000D01*
X157708536Y-86880919D01*
X157618465Y-86932922D01*
X157611000Y-86940387D01*
X157611000Y-86100000D01*
X157164155Y-86100000D01*
X157104627Y-86106401D01*
X157104620Y-86106403D01*
X156969913Y-86156645D01*
X156969906Y-86156649D01*
X156854812Y-86242809D01*
X156854809Y-86242812D01*
X156768649Y-86357906D01*
X156768645Y-86357913D01*
X156718403Y-86492620D01*
X156718401Y-86492627D01*
X156712000Y-86552155D01*
X120765500Y-86552155D01*
X120765500Y-76574983D01*
X126010500Y-76574983D01*
X126010500Y-78365001D01*
X126010501Y-78365018D01*
X126021000Y-78467796D01*
X126021001Y-78467799D01*
X126076185Y-78634331D01*
X126076187Y-78634336D01*
X126082443Y-78644478D01*
X126168288Y-78783656D01*
X126292344Y-78907712D01*
X126441666Y-78999814D01*
X126608203Y-79054999D01*
X126710991Y-79065500D01*
X128051008Y-79065499D01*
X128153797Y-79054999D01*
X128320334Y-78999814D01*
X128469656Y-78907712D01*
X128593712Y-78783656D01*
X128685814Y-78634334D01*
X128685817Y-78634323D01*
X128686353Y-78633177D01*
X128686934Y-78632516D01*
X128689605Y-78628187D01*
X128690344Y-78628643D01*
X128732521Y-78580734D01*
X128799713Y-78561577D01*
X128866596Y-78581788D01*
X128886420Y-78597892D01*
X129028502Y-78739974D01*
X129202963Y-78866728D01*
X129395098Y-78964627D01*
X129600190Y-79031266D01*
X129671000Y-79042481D01*
X129671000Y-78012709D01*
X129691339Y-78024452D01*
X129842667Y-78065000D01*
X129999333Y-78065000D01*
X130150661Y-78024452D01*
X130171000Y-78012709D01*
X130171000Y-79042480D01*
X130241809Y-79031266D01*
X130446901Y-78964627D01*
X130639036Y-78866728D01*
X130813496Y-78739974D01*
X130813497Y-78739974D01*
X130965974Y-78587497D01*
X130965979Y-78587491D01*
X131090372Y-78416280D01*
X131145702Y-78373614D01*
X131215315Y-78367635D01*
X131277110Y-78400241D01*
X131291008Y-78416279D01*
X131415641Y-78587821D01*
X131568179Y-78740359D01*
X131742701Y-78867157D01*
X131934911Y-78965092D01*
X132140074Y-79031754D01*
X132207796Y-79042480D01*
X132353134Y-79065500D01*
X132353139Y-79065500D01*
X132568866Y-79065500D01*
X132687230Y-79046752D01*
X132781926Y-79031754D01*
X132987089Y-78965092D01*
X133179299Y-78867157D01*
X133353821Y-78740359D01*
X133506359Y-78587821D01*
X133630682Y-78416704D01*
X133686012Y-78374040D01*
X133755626Y-78368061D01*
X133817420Y-78400667D01*
X133831315Y-78416702D01*
X133955641Y-78587821D01*
X134108179Y-78740359D01*
X134282701Y-78867157D01*
X134474911Y-78965092D01*
X134680074Y-79031754D01*
X134747796Y-79042480D01*
X134893134Y-79065500D01*
X134893139Y-79065500D01*
X135108866Y-79065500D01*
X135227230Y-79046752D01*
X135321926Y-79031754D01*
X135527089Y-78965092D01*
X135719299Y-78867157D01*
X135893821Y-78740359D01*
X136046359Y-78587821D01*
X136173157Y-78413299D01*
X136271092Y-78221089D01*
X136337754Y-78015926D01*
X136352752Y-77921230D01*
X136371500Y-77802866D01*
X136371500Y-77137133D01*
X136337754Y-76924077D01*
X136337754Y-76924074D01*
X136308811Y-76834996D01*
X156674435Y-76834996D01*
X156674435Y-76835003D01*
X156694630Y-77014249D01*
X156694631Y-77014254D01*
X156754211Y-77184523D01*
X156789283Y-77240339D01*
X156850184Y-77337262D01*
X156977738Y-77464816D01*
X157130478Y-77560789D01*
X157300745Y-77620368D01*
X157300750Y-77620369D01*
X157479996Y-77640565D01*
X157480000Y-77640565D01*
X157480004Y-77640565D01*
X157659249Y-77620369D01*
X157659252Y-77620368D01*
X157659255Y-77620368D01*
X157829522Y-77560789D01*
X157982262Y-77464816D01*
X158109816Y-77337262D01*
X158205789Y-77184522D01*
X158265368Y-77014255D01*
X158265369Y-77014249D01*
X158285565Y-76835003D01*
X158285565Y-76834996D01*
X158265369Y-76655750D01*
X158265368Y-76655745D01*
X158236043Y-76571938D01*
X158205789Y-76485478D01*
X158197448Y-76472204D01*
X158136673Y-76375481D01*
X158109816Y-76332738D01*
X158109814Y-76332736D01*
X158109813Y-76332734D01*
X158107550Y-76329896D01*
X158106659Y-76327715D01*
X158106111Y-76326842D01*
X158106264Y-76326745D01*
X158081144Y-76265209D01*
X158080500Y-76252587D01*
X158080500Y-67563996D01*
X158960435Y-67563996D01*
X158960435Y-67564003D01*
X158980630Y-67743249D01*
X158980631Y-67743254D01*
X159040211Y-67913523D01*
X159136184Y-68066262D01*
X159263738Y-68193816D01*
X159416478Y-68289789D01*
X159586745Y-68349368D01*
X159673669Y-68359161D01*
X159738080Y-68386226D01*
X159747465Y-68394700D01*
X164717181Y-73364416D01*
X164750666Y-73425739D01*
X164753500Y-73452097D01*
X164753500Y-76125587D01*
X164733815Y-76192626D01*
X164726450Y-76202896D01*
X164724186Y-76205734D01*
X164628211Y-76358476D01*
X164568631Y-76528745D01*
X164568630Y-76528750D01*
X164548435Y-76707996D01*
X164548435Y-76708003D01*
X164568630Y-76887249D01*
X164568631Y-76887254D01*
X164628211Y-77057523D01*
X164708010Y-77184522D01*
X164724184Y-77210262D01*
X164851738Y-77337816D01*
X165004478Y-77433789D01*
X165093148Y-77464816D01*
X165174745Y-77493368D01*
X165174750Y-77493369D01*
X165353996Y-77513565D01*
X165354000Y-77513565D01*
X165354004Y-77513565D01*
X165533249Y-77493369D01*
X165533252Y-77493368D01*
X165533255Y-77493368D01*
X165703522Y-77433789D01*
X165856262Y-77337816D01*
X165983816Y-77210262D01*
X166079789Y-77057522D01*
X166139368Y-76887255D01*
X166140749Y-76875000D01*
X166159565Y-76708003D01*
X166159565Y-76707996D01*
X166139369Y-76528750D01*
X166139368Y-76528745D01*
X166124228Y-76485478D01*
X166079789Y-76358478D01*
X166063615Y-76332738D01*
X166013253Y-76252587D01*
X165983816Y-76205738D01*
X165983814Y-76205736D01*
X165983813Y-76205734D01*
X165981550Y-76202896D01*
X165980659Y-76200715D01*
X165980111Y-76199842D01*
X165980264Y-76199745D01*
X165955144Y-76138209D01*
X165954500Y-76125587D01*
X165954500Y-73072945D01*
X165954500Y-73072943D01*
X165913577Y-72920216D01*
X165913573Y-72920209D01*
X165834524Y-72783290D01*
X165834521Y-72783286D01*
X165834520Y-72783284D01*
X165722716Y-72671480D01*
X165722715Y-72671479D01*
X165718385Y-72667149D01*
X165718374Y-72667139D01*
X165060231Y-72008996D01*
X166072435Y-72008996D01*
X166072435Y-72009003D01*
X166092630Y-72188249D01*
X166092631Y-72188254D01*
X166152211Y-72358523D01*
X166248184Y-72511262D01*
X166375738Y-72638816D01*
X166528478Y-72734789D01*
X166698745Y-72794368D01*
X166785669Y-72804161D01*
X166850080Y-72831226D01*
X166859465Y-72839700D01*
X182878181Y-88858416D01*
X182911666Y-88919739D01*
X182914500Y-88946097D01*
X182914500Y-101513330D01*
X182914499Y-101513348D01*
X182914499Y-101679054D01*
X182914498Y-101679054D01*
X182955423Y-101831785D01*
X182984358Y-101881900D01*
X182984359Y-101881904D01*
X182984360Y-101881904D01*
X183034479Y-101968714D01*
X183034481Y-101968717D01*
X183153349Y-102087585D01*
X183153355Y-102087590D01*
X184199648Y-103133883D01*
X184233133Y-103195206D01*
X184235187Y-103235447D01*
X184233435Y-103250997D01*
X184233435Y-103251003D01*
X184253630Y-103430249D01*
X184253631Y-103430254D01*
X184313211Y-103600523D01*
X184408875Y-103752771D01*
X184409184Y-103753262D01*
X184536738Y-103880816D01*
X184689478Y-103976789D01*
X184859745Y-104036368D01*
X184859750Y-104036369D01*
X185038996Y-104056565D01*
X185039000Y-104056565D01*
X185039004Y-104056565D01*
X185218249Y-104036369D01*
X185218252Y-104036368D01*
X185218255Y-104036368D01*
X185388522Y-103976789D01*
X185541262Y-103880816D01*
X185668816Y-103753262D01*
X185764789Y-103600522D01*
X185824368Y-103430255D01*
X185844565Y-103251000D01*
X185831369Y-103133883D01*
X185824369Y-103071750D01*
X185824368Y-103071745D01*
X185764788Y-102901476D01*
X185668815Y-102748737D01*
X185541262Y-102621184D01*
X185388521Y-102525210D01*
X185305562Y-102496182D01*
X185262829Y-102481229D01*
X185216104Y-102451869D01*
X184151819Y-101387584D01*
X184118334Y-101326261D01*
X184115500Y-101299903D01*
X184115500Y-88735059D01*
X184115501Y-88735046D01*
X184115501Y-88566945D01*
X184115501Y-88566943D01*
X184074577Y-88414215D01*
X184042904Y-88359356D01*
X183995520Y-88277284D01*
X183883716Y-88165480D01*
X183883715Y-88165479D01*
X183879385Y-88161149D01*
X183879374Y-88161139D01*
X183469218Y-87750983D01*
X186716500Y-87750983D01*
X186716500Y-89541001D01*
X186716501Y-89541018D01*
X186727000Y-89643796D01*
X186727001Y-89643799D01*
X186764774Y-89757788D01*
X186782186Y-89810334D01*
X186874288Y-89959656D01*
X186998344Y-90083712D01*
X187147666Y-90175814D01*
X187314203Y-90230999D01*
X187416991Y-90241500D01*
X188757008Y-90241499D01*
X188859797Y-90230999D01*
X189026334Y-90175814D01*
X189175656Y-90083712D01*
X189299712Y-89959656D01*
X189391814Y-89810334D01*
X189391817Y-89810323D01*
X189392353Y-89809177D01*
X189392934Y-89808516D01*
X189395605Y-89804187D01*
X189396344Y-89804643D01*
X189438521Y-89756734D01*
X189505713Y-89737577D01*
X189572596Y-89757788D01*
X189592420Y-89773892D01*
X189734502Y-89915974D01*
X189908963Y-90042728D01*
X190101098Y-90140627D01*
X190306190Y-90207266D01*
X190377000Y-90218481D01*
X190377000Y-89188709D01*
X190397339Y-89200452D01*
X190548667Y-89241000D01*
X190705333Y-89241000D01*
X190856661Y-89200452D01*
X190877000Y-89188709D01*
X190877000Y-90218480D01*
X190947809Y-90207266D01*
X191152901Y-90140627D01*
X191345036Y-90042728D01*
X191519496Y-89915974D01*
X191519497Y-89915974D01*
X191671974Y-89763497D01*
X191671974Y-89763496D01*
X191798728Y-89589036D01*
X191896627Y-89396901D01*
X191963265Y-89191809D01*
X191997000Y-88978820D01*
X191997000Y-88896000D01*
X191169709Y-88896000D01*
X191181452Y-88875661D01*
X191222000Y-88724333D01*
X191222000Y-88567667D01*
X191181452Y-88416339D01*
X191169709Y-88396000D01*
X191997000Y-88396000D01*
X191997000Y-88313179D01*
X191963265Y-88100190D01*
X191896627Y-87895098D01*
X191798728Y-87702963D01*
X191671974Y-87528503D01*
X191671974Y-87528502D01*
X191519497Y-87376025D01*
X191345036Y-87249271D01*
X191152899Y-87151372D01*
X190947805Y-87084733D01*
X190877000Y-87073518D01*
X190877000Y-88103290D01*
X190856661Y-88091548D01*
X190705333Y-88051000D01*
X190548667Y-88051000D01*
X190397339Y-88091548D01*
X190377000Y-88103290D01*
X190377000Y-87073518D01*
X190376999Y-87073518D01*
X190306194Y-87084733D01*
X190101100Y-87151372D01*
X189908963Y-87249271D01*
X189734506Y-87376022D01*
X189592420Y-87518108D01*
X189531097Y-87551592D01*
X189461405Y-87546608D01*
X189405472Y-87504736D01*
X189392356Y-87482828D01*
X189391816Y-87481670D01*
X189379144Y-87461125D01*
X189299712Y-87332344D01*
X189175656Y-87208288D01*
X189026334Y-87116186D01*
X188859797Y-87061001D01*
X188859795Y-87061000D01*
X188757010Y-87050500D01*
X187416998Y-87050500D01*
X187416981Y-87050501D01*
X187314203Y-87061000D01*
X187314200Y-87061001D01*
X187147668Y-87116185D01*
X187147663Y-87116187D01*
X186998342Y-87208289D01*
X186874289Y-87332342D01*
X186782187Y-87481663D01*
X186782185Y-87481668D01*
X186776442Y-87499000D01*
X186727001Y-87648203D01*
X186727001Y-87648204D01*
X186727000Y-87648204D01*
X186716500Y-87750983D01*
X183469218Y-87750983D01*
X171656481Y-75938246D01*
X171622996Y-75876923D01*
X171627980Y-75807231D01*
X171669852Y-75751298D01*
X171735316Y-75726881D01*
X171758044Y-75727344D01*
X171785350Y-75730421D01*
X171830998Y-75735565D01*
X171831000Y-75735565D01*
X171831004Y-75735565D01*
X172010249Y-75715369D01*
X172010252Y-75715368D01*
X172010255Y-75715368D01*
X172180522Y-75655789D01*
X172333262Y-75559816D01*
X172460816Y-75432262D01*
X172556789Y-75279522D01*
X172616368Y-75109255D01*
X172616369Y-75109249D01*
X172636565Y-74930003D01*
X172636565Y-74929996D01*
X172616369Y-74750750D01*
X172616368Y-74750745D01*
X172556788Y-74580476D01*
X172487458Y-74470139D01*
X172460816Y-74427738D01*
X172333262Y-74300184D01*
X172251084Y-74248548D01*
X172180521Y-74204210D01*
X172010249Y-74144630D01*
X171923330Y-74134837D01*
X171858916Y-74107770D01*
X171849533Y-74099298D01*
X169251231Y-71500996D01*
X174327435Y-71500996D01*
X174327435Y-71501003D01*
X174347630Y-71680249D01*
X174347631Y-71680254D01*
X174407211Y-71850523D01*
X174503185Y-72003263D01*
X174505445Y-72006097D01*
X174506334Y-72008275D01*
X174506889Y-72009158D01*
X174506734Y-72009255D01*
X174531855Y-72070783D01*
X174532500Y-72083412D01*
X174532500Y-75478330D01*
X174532499Y-75478348D01*
X174532499Y-75644054D01*
X174532498Y-75644054D01*
X174573423Y-75796785D01*
X174602358Y-75846900D01*
X174602359Y-75846904D01*
X174602360Y-75846904D01*
X174631581Y-75897518D01*
X174652479Y-75933714D01*
X174652481Y-75933717D01*
X174771349Y-76052585D01*
X174771355Y-76052590D01*
X180779298Y-82060533D01*
X180812783Y-82121856D01*
X180814837Y-82134330D01*
X180824630Y-82221249D01*
X180884210Y-82391521D01*
X180980184Y-82544262D01*
X181107738Y-82671816D01*
X181260478Y-82767789D01*
X181430745Y-82827368D01*
X181430750Y-82827369D01*
X181609996Y-82847565D01*
X181610000Y-82847565D01*
X181610004Y-82847565D01*
X181789249Y-82827369D01*
X181789252Y-82827368D01*
X181789255Y-82827368D01*
X181959522Y-82767789D01*
X182112262Y-82671816D01*
X182239816Y-82544262D01*
X182335789Y-82391522D01*
X182395368Y-82221255D01*
X182405162Y-82134330D01*
X182415565Y-82042003D01*
X182415565Y-82041996D01*
X182395369Y-81862750D01*
X182395368Y-81862745D01*
X182335788Y-81692476D01*
X182239815Y-81539737D01*
X182112262Y-81412184D01*
X181959521Y-81316210D01*
X181789249Y-81256630D01*
X181702330Y-81246837D01*
X181637916Y-81219770D01*
X181628533Y-81211298D01*
X175769819Y-75352584D01*
X175736334Y-75291261D01*
X175733500Y-75264903D01*
X175733500Y-72083412D01*
X175753185Y-72016373D01*
X175760555Y-72006097D01*
X175762810Y-72003267D01*
X175762816Y-72003262D01*
X175858789Y-71850522D01*
X175918368Y-71680255D01*
X175920709Y-71659478D01*
X175938565Y-71501003D01*
X175938565Y-71500996D01*
X175918369Y-71321750D01*
X175918368Y-71321745D01*
X175884036Y-71223630D01*
X175858789Y-71151478D01*
X175762816Y-70998738D01*
X175635262Y-70871184D01*
X175482523Y-70775211D01*
X175312254Y-70715631D01*
X175312249Y-70715630D01*
X175133004Y-70695435D01*
X175132996Y-70695435D01*
X174953750Y-70715630D01*
X174953745Y-70715631D01*
X174783476Y-70775211D01*
X174630737Y-70871184D01*
X174503184Y-70998737D01*
X174407211Y-71151476D01*
X174347631Y-71321745D01*
X174347630Y-71321750D01*
X174327435Y-71500996D01*
X169251231Y-71500996D01*
X168548819Y-70798584D01*
X168515334Y-70737261D01*
X168512500Y-70710903D01*
X168512500Y-66729412D01*
X168532185Y-66662373D01*
X168539555Y-66652097D01*
X168541810Y-66649267D01*
X168541816Y-66649262D01*
X168637789Y-66496522D01*
X168697368Y-66326255D01*
X168717565Y-66147000D01*
X168713565Y-66111500D01*
X168697369Y-65967750D01*
X168697368Y-65967745D01*
X168649049Y-65829657D01*
X168637789Y-65797478D01*
X168541816Y-65644738D01*
X168414262Y-65517184D01*
X168326883Y-65462280D01*
X168261523Y-65421211D01*
X168091254Y-65361631D01*
X168091249Y-65361630D01*
X167912004Y-65341435D01*
X167911996Y-65341435D01*
X167732750Y-65361630D01*
X167732745Y-65361631D01*
X167562476Y-65421211D01*
X167409737Y-65517184D01*
X167282184Y-65644737D01*
X167186211Y-65797476D01*
X167126631Y-65967745D01*
X167126630Y-65967750D01*
X167106435Y-66146996D01*
X167106435Y-66147003D01*
X167126630Y-66326249D01*
X167126631Y-66326254D01*
X167186211Y-66496523D01*
X167282185Y-66649263D01*
X167284445Y-66652097D01*
X167285334Y-66654275D01*
X167285889Y-66655158D01*
X167285734Y-66655255D01*
X167310855Y-66716783D01*
X167311500Y-66729412D01*
X167311500Y-70924330D01*
X167311499Y-70924348D01*
X167311499Y-71090061D01*
X167316573Y-71108996D01*
X167314909Y-71178846D01*
X167275746Y-71236707D01*
X167211517Y-71264210D01*
X167155844Y-71258129D01*
X167057257Y-71223632D01*
X167057249Y-71223630D01*
X166878004Y-71203435D01*
X166877996Y-71203435D01*
X166698750Y-71223630D01*
X166698745Y-71223631D01*
X166528476Y-71283211D01*
X166375737Y-71379184D01*
X166248184Y-71506737D01*
X166152211Y-71659476D01*
X166092631Y-71829745D01*
X166092630Y-71829750D01*
X166072435Y-72008996D01*
X165060231Y-72008996D01*
X160596700Y-67545465D01*
X160563215Y-67484142D01*
X160561163Y-67471686D01*
X160551368Y-67384745D01*
X160491789Y-67214478D01*
X160395816Y-67061738D01*
X160268262Y-66934184D01*
X160235342Y-66913499D01*
X160115523Y-66838211D01*
X159945254Y-66778631D01*
X159945249Y-66778630D01*
X159766004Y-66758435D01*
X159765996Y-66758435D01*
X159586750Y-66778630D01*
X159586745Y-66778631D01*
X159416476Y-66838211D01*
X159263737Y-66934184D01*
X159136184Y-67061737D01*
X159040211Y-67214476D01*
X158980631Y-67384745D01*
X158980630Y-67384750D01*
X158960435Y-67563996D01*
X158080500Y-67563996D01*
X158080500Y-67509096D01*
X158100185Y-67442057D01*
X158116814Y-67421420D01*
X163620535Y-61917698D01*
X163681856Y-61884215D01*
X163694311Y-61882163D01*
X163781255Y-61872368D01*
X163951522Y-61812789D01*
X164104262Y-61716816D01*
X164231816Y-61589262D01*
X164327789Y-61436522D01*
X164387368Y-61266255D01*
X164391646Y-61228286D01*
X164407565Y-61087003D01*
X164407565Y-61086996D01*
X164387369Y-60907750D01*
X164387368Y-60907745D01*
X164327788Y-60737476D01*
X164231815Y-60584737D01*
X164104262Y-60457184D01*
X163951523Y-60361211D01*
X163781254Y-60301631D01*
X163781249Y-60301630D01*
X163602004Y-60281435D01*
X163601996Y-60281435D01*
X163422750Y-60301630D01*
X163422745Y-60301631D01*
X163252476Y-60361211D01*
X163099737Y-60457184D01*
X162972184Y-60584737D01*
X162876210Y-60737478D01*
X162816630Y-60907750D01*
X162806837Y-60994668D01*
X162779770Y-61059082D01*
X162771298Y-61068465D01*
X157111286Y-66728478D01*
X156999481Y-66840282D01*
X156999480Y-66840284D01*
X156957209Y-66913500D01*
X156920423Y-66977215D01*
X156879499Y-67129943D01*
X156879499Y-67129945D01*
X156879499Y-67298046D01*
X156879500Y-67298059D01*
X156879500Y-76252587D01*
X156859815Y-76319626D01*
X156852450Y-76329896D01*
X156850186Y-76332734D01*
X156754211Y-76485476D01*
X156694631Y-76655745D01*
X156694630Y-76655750D01*
X156674435Y-76834996D01*
X136308811Y-76834996D01*
X136271092Y-76718911D01*
X136173157Y-76526701D01*
X136046359Y-76352179D01*
X135893821Y-76199641D01*
X135719299Y-76072843D01*
X135527089Y-75974908D01*
X135321926Y-75908246D01*
X135321924Y-75908245D01*
X135321922Y-75908245D01*
X135108866Y-75874500D01*
X135108861Y-75874500D01*
X134893139Y-75874500D01*
X134893134Y-75874500D01*
X134680077Y-75908245D01*
X134474908Y-75974909D01*
X134282700Y-76072843D01*
X134222396Y-76116657D01*
X134108179Y-76199641D01*
X134108177Y-76199643D01*
X134108176Y-76199643D01*
X133955643Y-76352176D01*
X133955643Y-76352177D01*
X133955641Y-76352179D01*
X133921987Y-76398500D01*
X133831318Y-76523294D01*
X133775988Y-76565959D01*
X133706374Y-76571938D01*
X133644579Y-76539332D01*
X133630682Y-76523294D01*
X133603205Y-76485476D01*
X133506359Y-76352179D01*
X133353821Y-76199641D01*
X133179299Y-76072843D01*
X132987089Y-75974908D01*
X132781926Y-75908246D01*
X132781924Y-75908245D01*
X132781922Y-75908245D01*
X132568866Y-75874500D01*
X132568861Y-75874500D01*
X132353139Y-75874500D01*
X132353134Y-75874500D01*
X132140077Y-75908245D01*
X131934908Y-75974909D01*
X131742700Y-76072843D01*
X131682396Y-76116657D01*
X131568179Y-76199641D01*
X131568177Y-76199643D01*
X131568176Y-76199643D01*
X131415642Y-76352177D01*
X131291008Y-76523720D01*
X131235677Y-76566385D01*
X131166064Y-76572364D01*
X131104269Y-76539758D01*
X131090372Y-76523720D01*
X130965974Y-76352503D01*
X130965974Y-76352502D01*
X130813497Y-76200025D01*
X130639036Y-76073271D01*
X130446899Y-75975372D01*
X130241805Y-75908733D01*
X130171000Y-75897518D01*
X130171000Y-76927290D01*
X130150661Y-76915548D01*
X129999333Y-76875000D01*
X129842667Y-76875000D01*
X129691339Y-76915548D01*
X129671000Y-76927290D01*
X129671000Y-75897518D01*
X129670999Y-75897518D01*
X129600194Y-75908733D01*
X129395100Y-75975372D01*
X129202963Y-76073271D01*
X129028506Y-76200022D01*
X128886420Y-76342108D01*
X128825097Y-76375592D01*
X128755405Y-76370608D01*
X128699472Y-76328736D01*
X128686356Y-76306828D01*
X128685816Y-76305670D01*
X128685812Y-76305663D01*
X128593712Y-76156344D01*
X128469656Y-76032288D01*
X128373119Y-75972744D01*
X128320336Y-75940187D01*
X128320331Y-75940185D01*
X128261882Y-75920817D01*
X128153797Y-75885001D01*
X128153795Y-75885000D01*
X128051010Y-75874500D01*
X126710998Y-75874500D01*
X126710981Y-75874501D01*
X126608203Y-75885000D01*
X126608200Y-75885001D01*
X126441668Y-75940185D01*
X126441663Y-75940187D01*
X126292342Y-76032289D01*
X126168289Y-76156342D01*
X126076187Y-76305663D01*
X126076185Y-76305668D01*
X126053015Y-76375592D01*
X126021001Y-76472203D01*
X126021001Y-76472204D01*
X126021000Y-76472204D01*
X126010500Y-76574983D01*
X120765500Y-76574983D01*
X120765500Y-68402228D01*
X120785185Y-68335189D01*
X120801814Y-68314552D01*
X133363369Y-55752996D01*
X144101435Y-55752996D01*
X144101435Y-55753003D01*
X144121630Y-55932249D01*
X144121631Y-55932254D01*
X144181211Y-56102523D01*
X144277184Y-56255262D01*
X144385741Y-56363819D01*
X144419226Y-56425142D01*
X144414242Y-56494834D01*
X144385741Y-56539181D01*
X144277184Y-56647737D01*
X144181211Y-56800476D01*
X144121631Y-56970745D01*
X144121630Y-56970750D01*
X144101435Y-57149996D01*
X144101435Y-57150003D01*
X144121630Y-57329249D01*
X144121631Y-57329254D01*
X144181211Y-57499523D01*
X144261010Y-57626522D01*
X144277184Y-57652262D01*
X144404738Y-57779816D01*
X144557478Y-57875789D01*
X144727745Y-57935368D01*
X144814669Y-57945161D01*
X144879080Y-57972226D01*
X144888464Y-57980699D01*
X150507284Y-63599520D01*
X150507286Y-63599521D01*
X150507290Y-63599524D01*
X150644209Y-63678573D01*
X150644216Y-63678577D01*
X150796943Y-63719501D01*
X150796945Y-63719501D01*
X150962654Y-63719501D01*
X150962670Y-63719500D01*
X154484588Y-63719500D01*
X154551627Y-63739185D01*
X154561903Y-63746555D01*
X154564736Y-63748814D01*
X154564738Y-63748816D01*
X154717478Y-63844789D01*
X154838113Y-63887001D01*
X154887745Y-63904368D01*
X154887750Y-63904369D01*
X155066996Y-63924565D01*
X155067000Y-63924565D01*
X155067004Y-63924565D01*
X155246249Y-63904369D01*
X155246252Y-63904368D01*
X155246255Y-63904368D01*
X155416522Y-63844789D01*
X155569262Y-63748816D01*
X155696816Y-63621262D01*
X155792789Y-63468522D01*
X155852368Y-63298255D01*
X155858296Y-63245641D01*
X155872565Y-63119003D01*
X155872565Y-63118996D01*
X155852369Y-62939750D01*
X155852368Y-62939745D01*
X155833528Y-62885903D01*
X155792789Y-62769478D01*
X155775523Y-62742000D01*
X155723483Y-62659179D01*
X155696816Y-62616738D01*
X155569262Y-62489184D01*
X155487084Y-62437548D01*
X155416523Y-62393211D01*
X155246254Y-62333631D01*
X155246249Y-62333630D01*
X155067004Y-62313435D01*
X155066996Y-62313435D01*
X154887750Y-62333630D01*
X154887745Y-62333631D01*
X154717476Y-62393211D01*
X154564736Y-62489185D01*
X154561903Y-62491445D01*
X154559724Y-62492334D01*
X154558842Y-62492889D01*
X154558744Y-62492734D01*
X154497217Y-62517855D01*
X154484588Y-62518500D01*
X151176098Y-62518500D01*
X151109059Y-62498815D01*
X151088417Y-62482181D01*
X150124417Y-61518181D01*
X150090932Y-61456858D01*
X150095916Y-61387166D01*
X150137788Y-61331233D01*
X150203252Y-61306816D01*
X150212098Y-61306500D01*
X158294588Y-61306500D01*
X158361627Y-61326185D01*
X158371903Y-61333555D01*
X158374736Y-61335814D01*
X158374738Y-61335816D01*
X158527478Y-61431789D01*
X158697745Y-61491368D01*
X158697750Y-61491369D01*
X158876996Y-61511565D01*
X158877000Y-61511565D01*
X158877004Y-61511565D01*
X159056249Y-61491369D01*
X159056252Y-61491368D01*
X159056255Y-61491368D01*
X159226522Y-61431789D01*
X159379262Y-61335816D01*
X159506816Y-61208262D01*
X159602789Y-61055522D01*
X159662368Y-60885255D01*
X159662369Y-60885249D01*
X159682565Y-60706003D01*
X159682565Y-60705996D01*
X159662369Y-60526750D01*
X159662368Y-60526745D01*
X159602789Y-60356478D01*
X159506816Y-60203738D01*
X159379262Y-60076184D01*
X159368117Y-60069181D01*
X159226523Y-59980211D01*
X159056254Y-59920631D01*
X159056249Y-59920630D01*
X158877004Y-59900435D01*
X158876996Y-59900435D01*
X158697750Y-59920630D01*
X158697745Y-59920631D01*
X158527476Y-59980211D01*
X158374736Y-60076185D01*
X158371903Y-60078445D01*
X158369724Y-60079334D01*
X158368842Y-60079889D01*
X158368744Y-60079734D01*
X158307217Y-60104855D01*
X158294588Y-60105500D01*
X150160098Y-60105500D01*
X150093059Y-60085815D01*
X150072417Y-60069181D01*
X145737700Y-55734465D01*
X145704215Y-55673142D01*
X145702163Y-55660686D01*
X145692368Y-55573745D01*
X145632789Y-55403478D01*
X145536816Y-55250738D01*
X145409262Y-55123184D01*
X145256523Y-55027211D01*
X145086254Y-54967631D01*
X145086249Y-54967630D01*
X144907004Y-54947435D01*
X144906996Y-54947435D01*
X144727750Y-54967630D01*
X144727745Y-54967631D01*
X144557476Y-55027211D01*
X144404737Y-55123184D01*
X144277184Y-55250737D01*
X144181211Y-55403476D01*
X144121631Y-55573745D01*
X144121630Y-55573750D01*
X144101435Y-55752996D01*
X133363369Y-55752996D01*
X137427369Y-51688996D01*
X147022435Y-51688996D01*
X147022435Y-51689003D01*
X147042630Y-51868249D01*
X147042631Y-51868254D01*
X147102211Y-52038523D01*
X147198184Y-52191262D01*
X147325738Y-52318816D01*
X147421062Y-52378712D01*
X147478483Y-52414792D01*
X147484753Y-52417812D01*
X147483870Y-52419643D01*
X147519940Y-52442308D01*
X148388049Y-53310416D01*
X148492584Y-53414951D01*
X148492585Y-53414952D01*
X148615498Y-53497080D01*
X148615511Y-53497087D01*
X148752082Y-53553656D01*
X148752087Y-53553658D01*
X148752091Y-53553658D01*
X148752092Y-53553659D01*
X148897079Y-53582500D01*
X148897082Y-53582500D01*
X148897083Y-53582500D01*
X149044917Y-53582500D01*
X154005028Y-53582500D01*
X154045983Y-53589458D01*
X154125745Y-53617368D01*
X154125750Y-53617369D01*
X154304996Y-53637565D01*
X154305000Y-53637565D01*
X154305004Y-53637565D01*
X154484249Y-53617369D01*
X154484252Y-53617368D01*
X154484255Y-53617368D01*
X154654522Y-53557789D01*
X154807262Y-53461816D01*
X154934816Y-53334262D01*
X155030789Y-53181522D01*
X155090368Y-53011255D01*
X155090369Y-53011249D01*
X155110565Y-52832003D01*
X155110565Y-52831996D01*
X155090369Y-52652750D01*
X155090368Y-52652745D01*
X155058733Y-52562338D01*
X155030789Y-52482478D01*
X155005548Y-52442308D01*
X154934815Y-52329737D01*
X154807262Y-52202184D01*
X154654523Y-52106211D01*
X154484254Y-52046631D01*
X154484249Y-52046630D01*
X154305004Y-52026435D01*
X154304996Y-52026435D01*
X154125750Y-52046630D01*
X154125745Y-52046631D01*
X154045983Y-52074542D01*
X154005028Y-52081500D01*
X149333229Y-52081500D01*
X149266190Y-52061815D01*
X149245548Y-52045181D01*
X148921249Y-51720882D01*
X148581308Y-51380940D01*
X148558643Y-51344870D01*
X148556812Y-51345753D01*
X148553792Y-51339483D01*
X148553788Y-51339476D01*
X148457816Y-51186738D01*
X148330262Y-51059184D01*
X148289908Y-51033828D01*
X148177523Y-50963211D01*
X148007254Y-50903631D01*
X148007249Y-50903630D01*
X147828004Y-50883435D01*
X147827996Y-50883435D01*
X147648750Y-50903630D01*
X147648745Y-50903631D01*
X147478476Y-50963211D01*
X147325737Y-51059184D01*
X147198184Y-51186737D01*
X147102211Y-51339476D01*
X147042631Y-51509745D01*
X147042630Y-51509750D01*
X147022435Y-51688996D01*
X137427369Y-51688996D01*
X137808059Y-51308306D01*
X137844132Y-51285657D01*
X137843244Y-51283813D01*
X137849515Y-51280792D01*
X137849516Y-51280790D01*
X137849522Y-51280789D01*
X138002262Y-51184816D01*
X138129816Y-51057262D01*
X138225789Y-50904522D01*
X138285368Y-50734255D01*
X138285369Y-50734249D01*
X138305565Y-50555003D01*
X138305565Y-50554996D01*
X138285369Y-50375750D01*
X138285368Y-50375745D01*
X138271228Y-50335335D01*
X138225789Y-50205478D01*
X138225061Y-50204320D01*
X138129815Y-50052737D01*
X138002262Y-49925184D01*
X137849523Y-49829211D01*
X137679254Y-49769631D01*
X137679249Y-49769630D01*
X137500004Y-49749435D01*
X137499996Y-49749435D01*
X137320750Y-49769630D01*
X137320745Y-49769631D01*
X137150476Y-49829211D01*
X136997737Y-49925184D01*
X136870184Y-50052737D01*
X136774208Y-50205483D01*
X136771186Y-50211758D01*
X136769361Y-50210878D01*
X136746692Y-50246939D01*
X119432050Y-67561580D01*
X119432044Y-67561588D01*
X119382812Y-67635268D01*
X119382813Y-67635269D01*
X119349921Y-67684496D01*
X119349914Y-67684508D01*
X119293342Y-67821086D01*
X119293340Y-67821092D01*
X119264500Y-67966079D01*
X119264500Y-88698368D01*
X119244815Y-88765407D01*
X119216662Y-88796222D01*
X119036169Y-88936704D01*
X118874506Y-89112317D01*
X118743951Y-89312147D01*
X118648070Y-89530732D01*
X118589475Y-89762118D01*
X118589473Y-89762130D01*
X118569764Y-89999994D01*
X116146500Y-89999994D01*
X116146500Y-52378711D01*
X120649500Y-52378711D01*
X120649500Y-52621288D01*
X120681161Y-52861785D01*
X120743947Y-53096104D01*
X120784828Y-53194799D01*
X120836776Y-53320212D01*
X120958064Y-53530289D01*
X120958066Y-53530292D01*
X120958067Y-53530293D01*
X121105733Y-53722736D01*
X121105739Y-53722743D01*
X121277256Y-53894260D01*
X121277262Y-53894265D01*
X121469711Y-54041936D01*
X121679788Y-54163224D01*
X121903900Y-54256054D01*
X122138211Y-54318838D01*
X122318586Y-54342584D01*
X122378711Y-54350500D01*
X122378712Y-54350500D01*
X122621289Y-54350500D01*
X122669388Y-54344167D01*
X122861789Y-54318838D01*
X123096100Y-54256054D01*
X123320212Y-54163224D01*
X123530289Y-54041936D01*
X123722738Y-53894265D01*
X123894265Y-53722738D01*
X124041936Y-53530289D01*
X124163224Y-53320212D01*
X124256054Y-53096100D01*
X124318838Y-52861789D01*
X124350500Y-52621288D01*
X124350500Y-52378712D01*
X124318838Y-52138211D01*
X124256054Y-51903900D01*
X124163224Y-51679788D01*
X124041936Y-51469711D01*
X123942003Y-51339476D01*
X123894266Y-51277263D01*
X123894260Y-51277256D01*
X123722743Y-51105739D01*
X123722736Y-51105733D01*
X123530293Y-50958067D01*
X123530292Y-50958066D01*
X123530289Y-50958064D01*
X123358661Y-50858974D01*
X123320214Y-50836777D01*
X123320205Y-50836773D01*
X123096104Y-50743947D01*
X122861785Y-50681161D01*
X122621289Y-50649500D01*
X122621288Y-50649500D01*
X122378712Y-50649500D01*
X122378711Y-50649500D01*
X122138214Y-50681161D01*
X121903895Y-50743947D01*
X121679794Y-50836773D01*
X121679785Y-50836777D01*
X121469706Y-50958067D01*
X121277263Y-51105733D01*
X121277256Y-51105739D01*
X121105739Y-51277256D01*
X121105733Y-51277263D01*
X120958067Y-51469706D01*
X120836777Y-51679785D01*
X120836773Y-51679794D01*
X120743947Y-51903895D01*
X120681161Y-52138214D01*
X120649500Y-52378711D01*
X116146500Y-52378711D01*
X116146500Y-47690500D01*
X116166185Y-47623461D01*
X116218989Y-47577706D01*
X116270500Y-47566500D01*
X215021500Y-47566500D01*
X215088539Y-47586185D01*
G37*
%TD.AperFunction*%
%TA.AperFunction,Conductor*%
G36*
X196362942Y-50277185D02*
G01*
X196383584Y-50293819D01*
X206273181Y-60183416D01*
X206306666Y-60244739D01*
X206309500Y-60271097D01*
X206309500Y-62796500D01*
X206289815Y-62863539D01*
X206237011Y-62909294D01*
X206185500Y-62920500D01*
X205069999Y-62920500D01*
X205069983Y-62920501D01*
X205059413Y-62921581D01*
X204990721Y-62908807D01*
X204959138Y-62885903D01*
X203308590Y-61235355D01*
X203308588Y-61235352D01*
X203189717Y-61116481D01*
X203189709Y-61116475D01*
X203084134Y-61055522D01*
X203084133Y-61055521D01*
X203084133Y-61055522D01*
X203052785Y-61037423D01*
X202900057Y-60996499D01*
X202741943Y-60996499D01*
X202734347Y-60996499D01*
X202734331Y-60996500D01*
X192072098Y-60996500D01*
X192005059Y-60976815D01*
X191984417Y-60960181D01*
X188301232Y-57276996D01*
X193123435Y-57276996D01*
X193123435Y-57277003D01*
X193143630Y-57456249D01*
X193143631Y-57456254D01*
X193203211Y-57626523D01*
X193299184Y-57779262D01*
X193426738Y-57906816D01*
X193472177Y-57935367D01*
X193544323Y-57980700D01*
X193579478Y-58002789D01*
X193749745Y-58062368D01*
X193749750Y-58062369D01*
X193928996Y-58082565D01*
X193929000Y-58082565D01*
X193929004Y-58082565D01*
X194108249Y-58062369D01*
X194108252Y-58062368D01*
X194108255Y-58062368D01*
X194278522Y-58002789D01*
X194431262Y-57906816D01*
X194431267Y-57906810D01*
X194434097Y-57904555D01*
X194436275Y-57903665D01*
X194437158Y-57903111D01*
X194437255Y-57903265D01*
X194498783Y-57878145D01*
X194511412Y-57877500D01*
X197184903Y-57877500D01*
X197251942Y-57897185D01*
X197272584Y-57913819D01*
X198813298Y-59454533D01*
X198846783Y-59515856D01*
X198848837Y-59528330D01*
X198858630Y-59615249D01*
X198918210Y-59785521D01*
X198985080Y-59891943D01*
X199014184Y-59938262D01*
X199141738Y-60065816D01*
X199294478Y-60161789D01*
X199460078Y-60219735D01*
X199464745Y-60221368D01*
X199464750Y-60221369D01*
X199643996Y-60241565D01*
X199644000Y-60241565D01*
X199644004Y-60241565D01*
X199823249Y-60221369D01*
X199823252Y-60221368D01*
X199823255Y-60221368D01*
X199993522Y-60161789D01*
X200146262Y-60065816D01*
X200273816Y-59938262D01*
X200369789Y-59785522D01*
X200429368Y-59615255D01*
X200430829Y-59602290D01*
X200449565Y-59436003D01*
X200449565Y-59435996D01*
X200429369Y-59256750D01*
X200429368Y-59256745D01*
X200369788Y-59086476D01*
X200273815Y-58933737D01*
X200146262Y-58806184D01*
X199993521Y-58710210D01*
X199823249Y-58650630D01*
X199736330Y-58640837D01*
X199671916Y-58613770D01*
X199662533Y-58605298D01*
X197972590Y-56915355D01*
X197972588Y-56915352D01*
X197853717Y-56796481D01*
X197853709Y-56796475D01*
X197751936Y-56737717D01*
X197751934Y-56737716D01*
X197716790Y-56717425D01*
X197716789Y-56717424D01*
X197704263Y-56714067D01*
X197564057Y-56676499D01*
X197405943Y-56676499D01*
X197398347Y-56676499D01*
X197398331Y-56676500D01*
X194511412Y-56676500D01*
X194444373Y-56656815D01*
X194434097Y-56649445D01*
X194431263Y-56647185D01*
X194431262Y-56647184D01*
X194374496Y-56611515D01*
X194278523Y-56551211D01*
X194108254Y-56491631D01*
X194108249Y-56491630D01*
X193929004Y-56471435D01*
X193928996Y-56471435D01*
X193749750Y-56491630D01*
X193749745Y-56491631D01*
X193579476Y-56551211D01*
X193426737Y-56647184D01*
X193299184Y-56774737D01*
X193203211Y-56927476D01*
X193143631Y-57097745D01*
X193143630Y-57097750D01*
X193123435Y-57276996D01*
X188301232Y-57276996D01*
X182326218Y-51301983D01*
X191034500Y-51301983D01*
X191034500Y-53092001D01*
X191034501Y-53092018D01*
X191045000Y-53194796D01*
X191045001Y-53194799D01*
X191082774Y-53308788D01*
X191100186Y-53361334D01*
X191192288Y-53510656D01*
X191316344Y-53634712D01*
X191465666Y-53726814D01*
X191632203Y-53781999D01*
X191734991Y-53792500D01*
X193075008Y-53792499D01*
X193177797Y-53781999D01*
X193344334Y-53726814D01*
X193493656Y-53634712D01*
X193617712Y-53510656D01*
X193709814Y-53361334D01*
X193709817Y-53361323D01*
X193710353Y-53360177D01*
X193710934Y-53359516D01*
X193713605Y-53355187D01*
X193714344Y-53355643D01*
X193756521Y-53307734D01*
X193823713Y-53288577D01*
X193890596Y-53308788D01*
X193910420Y-53324892D01*
X194052502Y-53466974D01*
X194226963Y-53593728D01*
X194419098Y-53691627D01*
X194624190Y-53758266D01*
X194695000Y-53769481D01*
X194695000Y-52739709D01*
X194715339Y-52751452D01*
X194866667Y-52792000D01*
X195023333Y-52792000D01*
X195174661Y-52751452D01*
X195195000Y-52739709D01*
X195195000Y-53769480D01*
X195265809Y-53758266D01*
X195470901Y-53691627D01*
X195663036Y-53593728D01*
X195837496Y-53466974D01*
X195837497Y-53466974D01*
X195989974Y-53314497D01*
X195989974Y-53314496D01*
X196116728Y-53140036D01*
X196214627Y-52947901D01*
X196281265Y-52742809D01*
X196315000Y-52529820D01*
X196315000Y-52447000D01*
X195487709Y-52447000D01*
X195499452Y-52426661D01*
X195540000Y-52275333D01*
X195540000Y-52118667D01*
X195499452Y-51967339D01*
X195487709Y-51947000D01*
X196315000Y-51947000D01*
X196315000Y-51864179D01*
X196281265Y-51651190D01*
X196214627Y-51446098D01*
X196116728Y-51253963D01*
X195989974Y-51079503D01*
X195989974Y-51079502D01*
X195837497Y-50927025D01*
X195663036Y-50800271D01*
X195470899Y-50702372D01*
X195265805Y-50635733D01*
X195195000Y-50624518D01*
X195195000Y-51654290D01*
X195174661Y-51642548D01*
X195023333Y-51602000D01*
X194866667Y-51602000D01*
X194715339Y-51642548D01*
X194695000Y-51654290D01*
X194695000Y-50624518D01*
X194694999Y-50624518D01*
X194624194Y-50635733D01*
X194419100Y-50702372D01*
X194226963Y-50800271D01*
X194052506Y-50927022D01*
X193910420Y-51069108D01*
X193849097Y-51102592D01*
X193779405Y-51097608D01*
X193723472Y-51055736D01*
X193710356Y-51033828D01*
X193709816Y-51032670D01*
X193709812Y-51032663D01*
X193617712Y-50883344D01*
X193493656Y-50759288D01*
X193344334Y-50667186D01*
X193177797Y-50612001D01*
X193177795Y-50612000D01*
X193075010Y-50601500D01*
X191734998Y-50601500D01*
X191734981Y-50601501D01*
X191632203Y-50612000D01*
X191632200Y-50612001D01*
X191465668Y-50667185D01*
X191465663Y-50667187D01*
X191316342Y-50759289D01*
X191192289Y-50883342D01*
X191100187Y-51032663D01*
X191100185Y-51032668D01*
X191091399Y-51059184D01*
X191045001Y-51199203D01*
X191045001Y-51199204D01*
X191045000Y-51199204D01*
X191034500Y-51301983D01*
X182326218Y-51301983D01*
X181932700Y-50908465D01*
X181899215Y-50847142D01*
X181897163Y-50834686D01*
X181887368Y-50747745D01*
X181827789Y-50577478D01*
X181746101Y-50447472D01*
X181727101Y-50380235D01*
X181747469Y-50313400D01*
X181800737Y-50268186D01*
X181851095Y-50257500D01*
X196295903Y-50257500D01*
X196362942Y-50277185D01*
G37*
%TD.AperFunction*%
%TD*%
M02*
