%TF.GenerationSoftware,KiCad,Pcbnew,8.0.8*%
%TF.CreationDate,2025-04-06T12:17:53-05:00*%
%TF.ProjectId,ECE 445 PCBWay Order 4,45434520-3434-4352-9050-434257617920,rev?*%
%TF.SameCoordinates,Original*%
%TF.FileFunction,Soldermask,Top*%
%TF.FilePolarity,Negative*%
%FSLAX46Y46*%
G04 Gerber Fmt 4.6, Leading zero omitted, Abs format (unit mm)*
G04 Created by KiCad (PCBNEW 8.0.8) date 2025-04-06 12:17:53*
%MOMM*%
%LPD*%
G01*
G04 APERTURE LIST*
G04 Aperture macros list*
%AMRoundRect*
0 Rectangle with rounded corners*
0 $1 Rounding radius*
0 $2 $3 $4 $5 $6 $7 $8 $9 X,Y pos of 4 corners*
0 Add a 4 corners polygon primitive as box body*
4,1,4,$2,$3,$4,$5,$6,$7,$8,$9,$2,$3,0*
0 Add four circle primitives for the rounded corners*
1,1,$1+$1,$2,$3*
1,1,$1+$1,$4,$5*
1,1,$1+$1,$6,$7*
1,1,$1+$1,$8,$9*
0 Add four rect primitives between the rounded corners*
20,1,$1+$1,$2,$3,$4,$5,0*
20,1,$1+$1,$4,$5,$6,$7,0*
20,1,$1+$1,$6,$7,$8,$9,0*
20,1,$1+$1,$8,$9,$2,$3,0*%
G04 Aperture macros list end*
%ADD10RoundRect,0.250000X-0.620000X-0.845000X0.620000X-0.845000X0.620000X0.845000X-0.620000X0.845000X0*%
%ADD11O,1.740000X2.190000*%
%ADD12RoundRect,0.250000X0.475000X-0.337500X0.475000X0.337500X-0.475000X0.337500X-0.475000X-0.337500X0*%
%ADD13RoundRect,0.250000X-0.337500X-0.475000X0.337500X-0.475000X0.337500X0.475000X-0.337500X0.475000X0*%
%ADD14RoundRect,0.160000X-0.197500X-0.160000X0.197500X-0.160000X0.197500X0.160000X-0.197500X0.160000X0*%
%ADD15RoundRect,0.250000X0.845000X-0.620000X0.845000X0.620000X-0.845000X0.620000X-0.845000X-0.620000X0*%
%ADD16O,2.190000X1.740000*%
%ADD17C,3.200000*%
%ADD18RoundRect,0.250000X0.350000X0.450000X-0.350000X0.450000X-0.350000X-0.450000X0.350000X-0.450000X0*%
%ADD19RoundRect,0.155000X-0.212500X-0.155000X0.212500X-0.155000X0.212500X0.155000X-0.212500X0.155000X0*%
%ADD20RoundRect,0.102000X-1.050000X-0.700000X1.050000X-0.700000X1.050000X0.700000X-1.050000X0.700000X0*%
%ADD21R,1.879600X1.879600*%
%ADD22C,1.879600*%
%ADD23RoundRect,0.250000X-0.475000X0.337500X-0.475000X-0.337500X0.475000X-0.337500X0.475000X0.337500X0*%
%ADD24RoundRect,0.102000X-0.649000X-0.649000X0.649000X-0.649000X0.649000X0.649000X-0.649000X0.649000X0*%
%ADD25C,1.502000*%
%ADD26RoundRect,0.250000X-0.350000X-0.450000X0.350000X-0.450000X0.350000X0.450000X-0.350000X0.450000X0*%
%ADD27R,1.750000X0.450000*%
%ADD28C,1.778000*%
%ADD29C,0.600000*%
%ADD30R,3.800000X3.800000*%
%ADD31R,1.500000X0.900000*%
%ADD32R,0.900000X1.500000*%
%ADD33R,0.400000X1.350000*%
%ADD34O,1.200000X1.900000*%
%ADD35R,1.200000X1.900000*%
%ADD36C,1.450000*%
%ADD37R,1.500000X1.900000*%
%ADD38RoundRect,0.150000X-0.850000X-0.150000X0.850000X-0.150000X0.850000X0.150000X-0.850000X0.150000X0*%
%ADD39RoundRect,0.225000X-0.225000X-0.375000X0.225000X-0.375000X0.225000X0.375000X-0.225000X0.375000X0*%
%ADD40RoundRect,0.250000X-0.845000X0.620000X-0.845000X-0.620000X0.845000X-0.620000X0.845000X0.620000X0*%
G04 APERTURE END LIST*
D10*
%TO.C,J16*%
X132461000Y-93853000D03*
D11*
X135001000Y-93853000D03*
%TD*%
D12*
%TO.C,C2*%
X115000000Y-86037500D03*
X115000000Y-83962500D03*
%TD*%
D13*
%TO.C,C9*%
X183112500Y-131826000D03*
X185187500Y-131826000D03*
%TD*%
D14*
%TO.C,R1*%
X132393500Y-114924000D03*
X133588500Y-114924000D03*
%TD*%
D15*
%TO.C,J4*%
X181737000Y-56769000D03*
D16*
X181737000Y-54229000D03*
%TD*%
D17*
%TO.C,H2*%
X105000000Y-45000000D03*
%TD*%
D18*
%TO.C,R9*%
X176508000Y-90188000D03*
X174508000Y-90188000D03*
%TD*%
D10*
%TO.C,J14*%
X135890000Y-83312000D03*
D11*
X138430000Y-83312000D03*
%TD*%
D19*
%TO.C,C7*%
X124948500Y-61816000D03*
X126083500Y-61816000D03*
%TD*%
D10*
%TO.C,J11*%
X154178000Y-98171000D03*
D11*
X156718000Y-98171000D03*
X159258000Y-98171000D03*
%TD*%
D20*
%TO.C,SW1*%
X162096000Y-117547000D03*
X171196000Y-117547000D03*
X162096000Y-122047000D03*
X171196000Y-122047000D03*
%TD*%
D21*
%TO.C,U6*%
X105029000Y-85217000D03*
D22*
X105029000Y-82677000D03*
X105029000Y-80137000D03*
%TD*%
D23*
%TO.C,C3*%
X115000000Y-108962500D03*
X115000000Y-111037500D03*
%TD*%
D17*
%TO.C,H3*%
X105000000Y-135000000D03*
%TD*%
D24*
%TO.C,Q1*%
X134747000Y-74041000D03*
D25*
X137287000Y-74041000D03*
X139827000Y-74041000D03*
%TD*%
D15*
%TO.C,J15*%
X184678000Y-76454000D03*
D16*
X184678000Y-73914000D03*
%TD*%
D26*
%TO.C,R10*%
X136303000Y-67056000D03*
X138303000Y-67056000D03*
%TD*%
D10*
%TO.C,J9*%
X183388000Y-107442000D03*
D11*
X185928000Y-107442000D03*
%TD*%
D15*
%TO.C,J6*%
X182499000Y-46736000D03*
D16*
X182499000Y-44196000D03*
%TD*%
D12*
%TO.C,C1*%
X115000000Y-101037500D03*
X115000000Y-98962500D03*
%TD*%
D27*
%TO.C,U4*%
X146400000Y-115775000D03*
X146400000Y-116425000D03*
X146400000Y-117075000D03*
X146400000Y-117725000D03*
X146400000Y-118375000D03*
X146400000Y-119025000D03*
X146400000Y-119675000D03*
X146400000Y-120325000D03*
X146400000Y-120975000D03*
X146400000Y-121625000D03*
X146400000Y-122275000D03*
X146400000Y-122925000D03*
X146400000Y-123575000D03*
X146400000Y-124225000D03*
X153600000Y-124225000D03*
X153600000Y-123575000D03*
X153600000Y-122925000D03*
X153600000Y-122275000D03*
X153600000Y-121625000D03*
X153600000Y-120975000D03*
X153600000Y-120325000D03*
X153600000Y-119675000D03*
X153600000Y-119025000D03*
X153600000Y-118375000D03*
X153600000Y-117725000D03*
X153600000Y-117075000D03*
X153600000Y-116425000D03*
X153600000Y-115775000D03*
%TD*%
D10*
%TO.C,J1*%
X109347000Y-67056000D03*
D11*
X111887000Y-67056000D03*
X114427000Y-67056000D03*
X116967000Y-67056000D03*
%TD*%
D10*
%TO.C,J12*%
X154432000Y-85471000D03*
D11*
X156972000Y-85471000D03*
X159512000Y-85471000D03*
%TD*%
D19*
%TO.C,C6*%
X117102000Y-44704000D03*
X118237000Y-44704000D03*
%TD*%
D10*
%TO.C,J8*%
X183896000Y-97282000D03*
D11*
X186436000Y-97282000D03*
%TD*%
D13*
%TO.C,C4*%
X133962500Y-42500000D03*
X136037500Y-42500000D03*
%TD*%
D17*
%TO.C,H1*%
X195000000Y-45000000D03*
%TD*%
D18*
%TO.C,R8*%
X176000000Y-110000000D03*
X174000000Y-110000000D03*
%TD*%
D26*
%TO.C,R6*%
X183150000Y-126826000D03*
X185150000Y-126826000D03*
%TD*%
D10*
%TO.C,J10*%
X183896000Y-87630000D03*
D11*
X186436000Y-87630000D03*
%TD*%
D28*
%TO.C,U5*%
X105000000Y-100000000D03*
X105000000Y-97460000D03*
X105000000Y-94920000D03*
%TD*%
D18*
%TO.C,R4*%
X176000000Y-65000000D03*
X174000000Y-65000000D03*
%TD*%
D19*
%TO.C,C11*%
X134501000Y-53467000D03*
X135636000Y-53467000D03*
%TD*%
D10*
%TO.C,J13*%
X154686000Y-73279000D03*
D11*
X157226000Y-73279000D03*
X159766000Y-73279000D03*
%TD*%
D26*
%TO.C,R13*%
X114516000Y-49816000D03*
X116516000Y-49816000D03*
%TD*%
D29*
%TO.C,U1*%
X149860000Y-49441000D03*
X149860000Y-48041000D03*
X149160000Y-50141000D03*
X149160000Y-48741000D03*
X149160000Y-47341000D03*
D30*
X148460000Y-48741000D03*
D29*
X148435000Y-49441000D03*
X148435000Y-48041000D03*
X147760000Y-50141000D03*
X147760000Y-48741000D03*
X147760000Y-47341000D03*
X147060000Y-49441000D03*
X147060000Y-48041000D03*
D31*
X158710000Y-41021000D03*
X158710000Y-42291000D03*
X158710000Y-43561000D03*
X158710000Y-44831000D03*
X158710000Y-46101000D03*
X158710000Y-47371000D03*
X158710000Y-48641000D03*
X158710000Y-49911000D03*
X158710000Y-51181000D03*
X158710000Y-52451000D03*
X158710000Y-53721000D03*
X158710000Y-54991000D03*
X158710000Y-56261000D03*
X158710000Y-57531000D03*
D32*
X155680000Y-58781000D03*
X154410000Y-58781000D03*
X153140000Y-58781000D03*
X151870000Y-58781000D03*
X150600000Y-58781000D03*
X149330000Y-58781000D03*
X148060000Y-58781000D03*
X146790000Y-58781000D03*
X145520000Y-58781000D03*
X144250000Y-58781000D03*
D31*
X141210000Y-57531000D03*
X141210000Y-56261000D03*
X141210000Y-54991000D03*
X141210000Y-53721000D03*
X141210000Y-52451000D03*
X141210000Y-51181000D03*
X141210000Y-49911000D03*
X141210000Y-48641000D03*
X141210000Y-47371000D03*
X141210000Y-46101000D03*
X141210000Y-44831000D03*
X141210000Y-43561000D03*
X141210000Y-42291000D03*
X141210000Y-41021000D03*
%TD*%
D33*
%TO.C,J2*%
X148700000Y-134079000D03*
X149350000Y-134079000D03*
X150000000Y-134079000D03*
X150650000Y-134079000D03*
X151300000Y-134079000D03*
D34*
X146500000Y-136779000D03*
D35*
X147100000Y-136779000D03*
D36*
X147500000Y-134079000D03*
D37*
X149000000Y-136779000D03*
X151000000Y-136779000D03*
D36*
X152500000Y-134079000D03*
D35*
X152900000Y-136779000D03*
D34*
X153500000Y-136779000D03*
%TD*%
D19*
%TO.C,C8*%
X146312000Y-111252000D03*
X147447000Y-111252000D03*
%TD*%
D20*
%TO.C,SW3*%
X128441000Y-117674000D03*
X137541000Y-117674000D03*
X128441000Y-122174000D03*
X137541000Y-122174000D03*
%TD*%
D15*
%TO.C,J5*%
X184678000Y-66454000D03*
D16*
X184678000Y-63914000D03*
%TD*%
D18*
%TO.C,R11*%
X176000000Y-75000000D03*
X174000000Y-75000000D03*
%TD*%
D19*
%TO.C,C12*%
X153297000Y-111125000D03*
X154432000Y-111125000D03*
%TD*%
%TO.C,C10*%
X125484000Y-43815000D03*
X126619000Y-43815000D03*
%TD*%
D38*
%TO.C,U2*%
X123016000Y-47371000D03*
X123016000Y-48641000D03*
X123016000Y-49911000D03*
X123016000Y-51181000D03*
X123016000Y-52451000D03*
X123016000Y-53721000D03*
X123016000Y-54991000D03*
X123016000Y-56261000D03*
X128016000Y-56261000D03*
X128016000Y-54991000D03*
X128016000Y-53721000D03*
X128016000Y-52451000D03*
X128016000Y-51181000D03*
X128016000Y-49911000D03*
X128016000Y-48641000D03*
X128016000Y-47371000D03*
%TD*%
D10*
%TO.C,J7*%
X183261000Y-119761000D03*
D11*
X185801000Y-119761000D03*
%TD*%
D18*
%TO.C,R7*%
X176381000Y-100139000D03*
X174381000Y-100139000D03*
%TD*%
%TO.C,R3*%
X173059000Y-55315000D03*
X171059000Y-55315000D03*
%TD*%
D14*
%TO.C,R2*%
X166048500Y-114797000D03*
X167243500Y-114797000D03*
%TD*%
D19*
%TO.C,C5*%
X134501000Y-47625000D03*
X135636000Y-47625000D03*
%TD*%
D17*
%TO.C,H4*%
X195000000Y-135000000D03*
%TD*%
D39*
%TO.C,D2*%
X138432000Y-133985000D03*
X141732000Y-133985000D03*
%TD*%
D26*
%TO.C,R12*%
X114516000Y-54816000D03*
X116516000Y-54816000D03*
%TD*%
D40*
%TO.C,J3*%
X105000000Y-107188000D03*
D16*
X105000000Y-109728000D03*
%TD*%
D18*
%TO.C,R5*%
X173499000Y-46736000D03*
X171499000Y-46736000D03*
%TD*%
M02*
