%TF.GenerationSoftware,KiCad,Pcbnew,8.0.8*%
%TF.CreationDate,2025-03-12T17:19:21-05:00*%
%TF.ProjectId,Third Design (PCBWay 1),54686972-6420-4446-9573-69676e202850,rev?*%
%TF.SameCoordinates,Original*%
%TF.FileFunction,Soldermask,Bot*%
%TF.FilePolarity,Negative*%
%FSLAX46Y46*%
G04 Gerber Fmt 4.6, Leading zero omitted, Abs format (unit mm)*
G04 Created by KiCad (PCBNEW 8.0.8) date 2025-03-12 17:19:21*
%MOMM*%
%LPD*%
G01*
G04 APERTURE LIST*
G04 Aperture macros list*
%AMRoundRect*
0 Rectangle with rounded corners*
0 $1 Rounding radius*
0 $2 $3 $4 $5 $6 $7 $8 $9 X,Y pos of 4 corners*
0 Add a 4 corners polygon primitive as box body*
4,1,4,$2,$3,$4,$5,$6,$7,$8,$9,$2,$3,0*
0 Add four circle primitives for the rounded corners*
1,1,$1+$1,$2,$3*
1,1,$1+$1,$4,$5*
1,1,$1+$1,$6,$7*
1,1,$1+$1,$8,$9*
0 Add four rect primitives between the rounded corners*
20,1,$1+$1,$2,$3,$4,$5,0*
20,1,$1+$1,$4,$5,$6,$7,0*
20,1,$1+$1,$6,$7,$8,$9,0*
20,1,$1+$1,$8,$9,$2,$3,0*%
G04 Aperture macros list end*
%ADD10C,0.010000*%
%ADD11O,1.740000X2.190000*%
%ADD12RoundRect,0.250000X-0.620000X-0.845000X0.620000X-0.845000X0.620000X0.845000X-0.620000X0.845000X0*%
%ADD13C,3.200000*%
%ADD14RoundRect,0.250000X0.845000X-0.620000X0.845000X0.620000X-0.845000X0.620000X-0.845000X-0.620000X0*%
%ADD15O,2.190000X1.740000*%
%ADD16O,1.154000X1.504000*%
%ADD17C,1.778000*%
%ADD18R,1.879600X1.879600*%
%ADD19C,1.879600*%
%ADD20R,1.800000X1.800000*%
%ADD21O,1.800000X1.800000*%
G04 APERTURE END LIST*
D10*
%TO.C,J18*%
X105213000Y-106799000D02*
X105239000Y-106803000D01*
X105264000Y-106807000D01*
X105289000Y-106813000D01*
X105313000Y-106820000D01*
X105337000Y-106829000D01*
X105361000Y-106839000D01*
X105384000Y-106850000D01*
X105406000Y-106862000D01*
X105428000Y-106875000D01*
X105449000Y-106890000D01*
X105469000Y-106905000D01*
X105489000Y-106922000D01*
X105507000Y-106939000D01*
X105525000Y-106958000D01*
X105541000Y-106977000D01*
X105557000Y-106997000D01*
X105571000Y-107018000D01*
X105585000Y-107040000D01*
X105597000Y-107063000D01*
X105608000Y-107086000D01*
X105618000Y-107109000D01*
X105626000Y-107133000D01*
X105633000Y-107158000D01*
X105639000Y-107183000D01*
X105644000Y-107208000D01*
X105647000Y-107233000D01*
X105649000Y-107258000D01*
X105650000Y-107284000D01*
X105649000Y-107310000D01*
X105647000Y-107335000D01*
X105644000Y-107360000D01*
X105639000Y-107385000D01*
X105633000Y-107410000D01*
X105626000Y-107435000D01*
X105618000Y-107459000D01*
X105608000Y-107482000D01*
X105597000Y-107505000D01*
X105585000Y-107528000D01*
X105571000Y-107550000D01*
X105557000Y-107571000D01*
X105541000Y-107591000D01*
X105525000Y-107610000D01*
X105507000Y-107629000D01*
X105489000Y-107646000D01*
X105469000Y-107663000D01*
X105449000Y-107678000D01*
X105428000Y-107693000D01*
X105406000Y-107706000D01*
X105384000Y-107718000D01*
X105361000Y-107729000D01*
X105337000Y-107739000D01*
X105313000Y-107748000D01*
X105289000Y-107755000D01*
X105264000Y-107761000D01*
X105239000Y-107765000D01*
X105213000Y-107769000D01*
X105188000Y-107771000D01*
X105163000Y-107771000D01*
X105162500Y-107771500D01*
X104387000Y-107771000D01*
X104362000Y-107771000D01*
X104337000Y-107769000D01*
X104311000Y-107765000D01*
X104286000Y-107761000D01*
X104261000Y-107755000D01*
X104237000Y-107748000D01*
X104213000Y-107739000D01*
X104189000Y-107729000D01*
X104166000Y-107718000D01*
X104144000Y-107706000D01*
X104122000Y-107693000D01*
X104101000Y-107678000D01*
X104081000Y-107663000D01*
X104061000Y-107646000D01*
X104043000Y-107629000D01*
X104025000Y-107610000D01*
X104009000Y-107591000D01*
X103993000Y-107571000D01*
X103979000Y-107550000D01*
X103965000Y-107528000D01*
X103953000Y-107505000D01*
X103942000Y-107482000D01*
X103932000Y-107459000D01*
X103924000Y-107435000D01*
X103917000Y-107410000D01*
X103911000Y-107385000D01*
X103906000Y-107360000D01*
X103903000Y-107335000D01*
X103901000Y-107310000D01*
X103900000Y-107284000D01*
X103901000Y-107258000D01*
X103903000Y-107233000D01*
X103906000Y-107208000D01*
X103911000Y-107183000D01*
X103917000Y-107158000D01*
X103924000Y-107133000D01*
X103932000Y-107109000D01*
X103942000Y-107086000D01*
X103953000Y-107063000D01*
X103965000Y-107040000D01*
X103979000Y-107018000D01*
X103993000Y-106997000D01*
X104009000Y-106977000D01*
X104025000Y-106958000D01*
X104043000Y-106939000D01*
X104061000Y-106922000D01*
X104081000Y-106905000D01*
X104101000Y-106890000D01*
X104122000Y-106875000D01*
X104144000Y-106862000D01*
X104166000Y-106850000D01*
X104189000Y-106839000D01*
X104213000Y-106829000D01*
X104237000Y-106820000D01*
X104261000Y-106813000D01*
X104286000Y-106807000D01*
X104311000Y-106803000D01*
X104337000Y-106799000D01*
X104362000Y-106797000D01*
X104387000Y-106797000D01*
X105163000Y-106797000D01*
X105188000Y-106797000D01*
X105213000Y-106799000D01*
G36*
X105213000Y-106799000D02*
G01*
X105239000Y-106803000D01*
X105264000Y-106807000D01*
X105289000Y-106813000D01*
X105313000Y-106820000D01*
X105337000Y-106829000D01*
X105361000Y-106839000D01*
X105384000Y-106850000D01*
X105406000Y-106862000D01*
X105428000Y-106875000D01*
X105449000Y-106890000D01*
X105469000Y-106905000D01*
X105489000Y-106922000D01*
X105507000Y-106939000D01*
X105525000Y-106958000D01*
X105541000Y-106977000D01*
X105557000Y-106997000D01*
X105571000Y-107018000D01*
X105585000Y-107040000D01*
X105597000Y-107063000D01*
X105608000Y-107086000D01*
X105618000Y-107109000D01*
X105626000Y-107133000D01*
X105633000Y-107158000D01*
X105639000Y-107183000D01*
X105644000Y-107208000D01*
X105647000Y-107233000D01*
X105649000Y-107258000D01*
X105650000Y-107284000D01*
X105649000Y-107310000D01*
X105647000Y-107335000D01*
X105644000Y-107360000D01*
X105639000Y-107385000D01*
X105633000Y-107410000D01*
X105626000Y-107435000D01*
X105618000Y-107459000D01*
X105608000Y-107482000D01*
X105597000Y-107505000D01*
X105585000Y-107528000D01*
X105571000Y-107550000D01*
X105557000Y-107571000D01*
X105541000Y-107591000D01*
X105525000Y-107610000D01*
X105507000Y-107629000D01*
X105489000Y-107646000D01*
X105469000Y-107663000D01*
X105449000Y-107678000D01*
X105428000Y-107693000D01*
X105406000Y-107706000D01*
X105384000Y-107718000D01*
X105361000Y-107729000D01*
X105337000Y-107739000D01*
X105313000Y-107748000D01*
X105289000Y-107755000D01*
X105264000Y-107761000D01*
X105239000Y-107765000D01*
X105213000Y-107769000D01*
X105188000Y-107771000D01*
X105163000Y-107771000D01*
X105162500Y-107771500D01*
X104387000Y-107771000D01*
X104362000Y-107771000D01*
X104337000Y-107769000D01*
X104311000Y-107765000D01*
X104286000Y-107761000D01*
X104261000Y-107755000D01*
X104237000Y-107748000D01*
X104213000Y-107739000D01*
X104189000Y-107729000D01*
X104166000Y-107718000D01*
X104144000Y-107706000D01*
X104122000Y-107693000D01*
X104101000Y-107678000D01*
X104081000Y-107663000D01*
X104061000Y-107646000D01*
X104043000Y-107629000D01*
X104025000Y-107610000D01*
X104009000Y-107591000D01*
X103993000Y-107571000D01*
X103979000Y-107550000D01*
X103965000Y-107528000D01*
X103953000Y-107505000D01*
X103942000Y-107482000D01*
X103932000Y-107459000D01*
X103924000Y-107435000D01*
X103917000Y-107410000D01*
X103911000Y-107385000D01*
X103906000Y-107360000D01*
X103903000Y-107335000D01*
X103901000Y-107310000D01*
X103900000Y-107284000D01*
X103901000Y-107258000D01*
X103903000Y-107233000D01*
X103906000Y-107208000D01*
X103911000Y-107183000D01*
X103917000Y-107158000D01*
X103924000Y-107133000D01*
X103932000Y-107109000D01*
X103942000Y-107086000D01*
X103953000Y-107063000D01*
X103965000Y-107040000D01*
X103979000Y-107018000D01*
X103993000Y-106997000D01*
X104009000Y-106977000D01*
X104025000Y-106958000D01*
X104043000Y-106939000D01*
X104061000Y-106922000D01*
X104081000Y-106905000D01*
X104101000Y-106890000D01*
X104122000Y-106875000D01*
X104144000Y-106862000D01*
X104166000Y-106850000D01*
X104189000Y-106839000D01*
X104213000Y-106829000D01*
X104237000Y-106820000D01*
X104261000Y-106813000D01*
X104286000Y-106807000D01*
X104311000Y-106803000D01*
X104337000Y-106799000D01*
X104362000Y-106797000D01*
X104387000Y-106797000D01*
X105163000Y-106797000D01*
X105188000Y-106797000D01*
X105213000Y-106799000D01*
G37*
X105213000Y-113799000D02*
X105239000Y-113803000D01*
X105264000Y-113807000D01*
X105289000Y-113813000D01*
X105313000Y-113820000D01*
X105337000Y-113829000D01*
X105361000Y-113839000D01*
X105384000Y-113850000D01*
X105406000Y-113862000D01*
X105428000Y-113875000D01*
X105449000Y-113890000D01*
X105469000Y-113905000D01*
X105489000Y-113922000D01*
X105507000Y-113939000D01*
X105525000Y-113958000D01*
X105541000Y-113977000D01*
X105557000Y-113997000D01*
X105571000Y-114018000D01*
X105585000Y-114040000D01*
X105597000Y-114063000D01*
X105608000Y-114086000D01*
X105618000Y-114109000D01*
X105626000Y-114133000D01*
X105633000Y-114158000D01*
X105639000Y-114183000D01*
X105644000Y-114208000D01*
X105647000Y-114233000D01*
X105649000Y-114258000D01*
X105650000Y-114284000D01*
X105649000Y-114310000D01*
X105647000Y-114335000D01*
X105644000Y-114360000D01*
X105639000Y-114385000D01*
X105633000Y-114410000D01*
X105626000Y-114435000D01*
X105618000Y-114459000D01*
X105608000Y-114482000D01*
X105597000Y-114505000D01*
X105585000Y-114528000D01*
X105571000Y-114550000D01*
X105557000Y-114571000D01*
X105541000Y-114591000D01*
X105525000Y-114610000D01*
X105507000Y-114629000D01*
X105489000Y-114646000D01*
X105469000Y-114663000D01*
X105449000Y-114678000D01*
X105428000Y-114693000D01*
X105406000Y-114706000D01*
X105384000Y-114718000D01*
X105361000Y-114729000D01*
X105337000Y-114739000D01*
X105313000Y-114748000D01*
X105289000Y-114755000D01*
X105264000Y-114761000D01*
X105239000Y-114765000D01*
X105213000Y-114769000D01*
X105188000Y-114771000D01*
X105163000Y-114771000D01*
X105162500Y-114771500D01*
X104387000Y-114771000D01*
X104362000Y-114771000D01*
X104337000Y-114769000D01*
X104311000Y-114765000D01*
X104286000Y-114761000D01*
X104261000Y-114755000D01*
X104237000Y-114748000D01*
X104213000Y-114739000D01*
X104189000Y-114729000D01*
X104166000Y-114718000D01*
X104144000Y-114706000D01*
X104122000Y-114693000D01*
X104101000Y-114678000D01*
X104081000Y-114663000D01*
X104061000Y-114646000D01*
X104043000Y-114629000D01*
X104025000Y-114610000D01*
X104009000Y-114591000D01*
X103993000Y-114571000D01*
X103979000Y-114550000D01*
X103965000Y-114528000D01*
X103953000Y-114505000D01*
X103942000Y-114482000D01*
X103932000Y-114459000D01*
X103924000Y-114435000D01*
X103917000Y-114410000D01*
X103911000Y-114385000D01*
X103906000Y-114360000D01*
X103903000Y-114335000D01*
X103901000Y-114310000D01*
X103900000Y-114284000D01*
X103901000Y-114258000D01*
X103903000Y-114233000D01*
X103906000Y-114208000D01*
X103911000Y-114183000D01*
X103917000Y-114158000D01*
X103924000Y-114133000D01*
X103932000Y-114109000D01*
X103942000Y-114086000D01*
X103953000Y-114063000D01*
X103965000Y-114040000D01*
X103979000Y-114018000D01*
X103993000Y-113997000D01*
X104009000Y-113977000D01*
X104025000Y-113958000D01*
X104043000Y-113939000D01*
X104061000Y-113922000D01*
X104081000Y-113905000D01*
X104101000Y-113890000D01*
X104122000Y-113875000D01*
X104144000Y-113862000D01*
X104166000Y-113850000D01*
X104189000Y-113839000D01*
X104213000Y-113829000D01*
X104237000Y-113820000D01*
X104261000Y-113813000D01*
X104286000Y-113807000D01*
X104311000Y-113803000D01*
X104337000Y-113799000D01*
X104362000Y-113797000D01*
X104387000Y-113797000D01*
X105163000Y-113797000D01*
X105188000Y-113797000D01*
X105213000Y-113799000D01*
G36*
X105213000Y-113799000D02*
G01*
X105239000Y-113803000D01*
X105264000Y-113807000D01*
X105289000Y-113813000D01*
X105313000Y-113820000D01*
X105337000Y-113829000D01*
X105361000Y-113839000D01*
X105384000Y-113850000D01*
X105406000Y-113862000D01*
X105428000Y-113875000D01*
X105449000Y-113890000D01*
X105469000Y-113905000D01*
X105489000Y-113922000D01*
X105507000Y-113939000D01*
X105525000Y-113958000D01*
X105541000Y-113977000D01*
X105557000Y-113997000D01*
X105571000Y-114018000D01*
X105585000Y-114040000D01*
X105597000Y-114063000D01*
X105608000Y-114086000D01*
X105618000Y-114109000D01*
X105626000Y-114133000D01*
X105633000Y-114158000D01*
X105639000Y-114183000D01*
X105644000Y-114208000D01*
X105647000Y-114233000D01*
X105649000Y-114258000D01*
X105650000Y-114284000D01*
X105649000Y-114310000D01*
X105647000Y-114335000D01*
X105644000Y-114360000D01*
X105639000Y-114385000D01*
X105633000Y-114410000D01*
X105626000Y-114435000D01*
X105618000Y-114459000D01*
X105608000Y-114482000D01*
X105597000Y-114505000D01*
X105585000Y-114528000D01*
X105571000Y-114550000D01*
X105557000Y-114571000D01*
X105541000Y-114591000D01*
X105525000Y-114610000D01*
X105507000Y-114629000D01*
X105489000Y-114646000D01*
X105469000Y-114663000D01*
X105449000Y-114678000D01*
X105428000Y-114693000D01*
X105406000Y-114706000D01*
X105384000Y-114718000D01*
X105361000Y-114729000D01*
X105337000Y-114739000D01*
X105313000Y-114748000D01*
X105289000Y-114755000D01*
X105264000Y-114761000D01*
X105239000Y-114765000D01*
X105213000Y-114769000D01*
X105188000Y-114771000D01*
X105163000Y-114771000D01*
X105162500Y-114771500D01*
X104387000Y-114771000D01*
X104362000Y-114771000D01*
X104337000Y-114769000D01*
X104311000Y-114765000D01*
X104286000Y-114761000D01*
X104261000Y-114755000D01*
X104237000Y-114748000D01*
X104213000Y-114739000D01*
X104189000Y-114729000D01*
X104166000Y-114718000D01*
X104144000Y-114706000D01*
X104122000Y-114693000D01*
X104101000Y-114678000D01*
X104081000Y-114663000D01*
X104061000Y-114646000D01*
X104043000Y-114629000D01*
X104025000Y-114610000D01*
X104009000Y-114591000D01*
X103993000Y-114571000D01*
X103979000Y-114550000D01*
X103965000Y-114528000D01*
X103953000Y-114505000D01*
X103942000Y-114482000D01*
X103932000Y-114459000D01*
X103924000Y-114435000D01*
X103917000Y-114410000D01*
X103911000Y-114385000D01*
X103906000Y-114360000D01*
X103903000Y-114335000D01*
X103901000Y-114310000D01*
X103900000Y-114284000D01*
X103901000Y-114258000D01*
X103903000Y-114233000D01*
X103906000Y-114208000D01*
X103911000Y-114183000D01*
X103917000Y-114158000D01*
X103924000Y-114133000D01*
X103932000Y-114109000D01*
X103942000Y-114086000D01*
X103953000Y-114063000D01*
X103965000Y-114040000D01*
X103979000Y-114018000D01*
X103993000Y-113997000D01*
X104009000Y-113977000D01*
X104025000Y-113958000D01*
X104043000Y-113939000D01*
X104061000Y-113922000D01*
X104081000Y-113905000D01*
X104101000Y-113890000D01*
X104122000Y-113875000D01*
X104144000Y-113862000D01*
X104166000Y-113850000D01*
X104189000Y-113839000D01*
X104213000Y-113829000D01*
X104237000Y-113820000D01*
X104261000Y-113813000D01*
X104286000Y-113807000D01*
X104311000Y-113803000D01*
X104337000Y-113799000D01*
X104362000Y-113797000D01*
X104387000Y-113797000D01*
X105163000Y-113797000D01*
X105188000Y-113797000D01*
X105213000Y-113799000D01*
G37*
%TD*%
D11*
%TO.C,J20*%
X186944000Y-108712000D03*
D12*
X184404000Y-108712000D03*
%TD*%
%TO.C,J12*%
X132334000Y-128016000D03*
D11*
X134874000Y-128016000D03*
%TD*%
D12*
%TO.C,J4*%
X115788000Y-127000000D03*
D11*
X118328000Y-127000000D03*
%TD*%
D12*
%TO.C,J3*%
X154686000Y-102362000D03*
D11*
X157226000Y-102362000D03*
%TD*%
D13*
%TO.C,H1*%
X105000000Y-55000000D03*
%TD*%
D12*
%TO.C,J7*%
X133477000Y-97409000D03*
D11*
X136017000Y-97409000D03*
%TD*%
D14*
%TO.C,J2*%
X107569000Y-87376000D03*
D15*
X107569000Y-84836000D03*
X107569000Y-82296000D03*
%TD*%
D16*
%TO.C,J18*%
X107475000Y-108284000D03*
X107475000Y-113284000D03*
%TD*%
D12*
%TO.C,J9*%
X144018000Y-102489000D03*
D11*
X146558000Y-102489000D03*
%TD*%
D13*
%TO.C,H4*%
X195000000Y-55000000D03*
%TD*%
%TO.C,H2*%
X195000000Y-145000000D03*
%TD*%
D14*
%TO.C,J19*%
X107569000Y-96774000D03*
D15*
X107569000Y-94234000D03*
%TD*%
D12*
%TO.C,J10*%
X120904000Y-54991000D03*
D11*
X123444000Y-54991000D03*
%TD*%
D12*
%TO.C,J6*%
X187452000Y-93599000D03*
D11*
X189992000Y-93599000D03*
%TD*%
D12*
%TO.C,J5*%
X134747000Y-56134000D03*
D11*
X137287000Y-56134000D03*
X139827000Y-56134000D03*
X142367000Y-56134000D03*
%TD*%
D17*
%TO.C,U3*%
X142875000Y-145923000D03*
X145415000Y-145923000D03*
X147955000Y-145923000D03*
%TD*%
D18*
%TO.C,U1*%
X166624000Y-145415000D03*
D19*
X169164000Y-145415000D03*
X171704000Y-145415000D03*
%TD*%
D14*
%TO.C,J17*%
X107569000Y-75311000D03*
D15*
X107569000Y-72771000D03*
X107569000Y-70231000D03*
%TD*%
D12*
%TO.C,J11*%
X173101000Y-59690000D03*
D11*
X175641000Y-59690000D03*
X178181000Y-59690000D03*
X180721000Y-59690000D03*
%TD*%
D12*
%TO.C,J16*%
X137414000Y-66167000D03*
D11*
X139954000Y-66167000D03*
%TD*%
D12*
%TO.C,J15*%
X164465000Y-121031000D03*
D11*
X167005000Y-121031000D03*
X169545000Y-121031000D03*
%TD*%
D12*
%TO.C,J1*%
X128397000Y-144526000D03*
D11*
X130937000Y-144526000D03*
%TD*%
D12*
%TO.C,J14*%
X152400000Y-120904000D03*
D11*
X154940000Y-120904000D03*
X157480000Y-120904000D03*
%TD*%
D12*
%TO.C,J13*%
X140081000Y-120904000D03*
D11*
X142621000Y-120904000D03*
X145161000Y-120904000D03*
%TD*%
D13*
%TO.C,H3*%
X105000000Y-145000000D03*
%TD*%
D20*
%TO.C,U5*%
X148971000Y-62611000D03*
D21*
X150241000Y-57531000D03*
X151511000Y-62611000D03*
X152781000Y-57531000D03*
X154051000Y-62611000D03*
X155321000Y-57531000D03*
X156591000Y-62611000D03*
X157861000Y-57531000D03*
X159131000Y-62611000D03*
X160401000Y-57531000D03*
X161671000Y-62611000D03*
X162941000Y-57531000D03*
X164211000Y-62611000D03*
X165481000Y-57531000D03*
X166751000Y-62611000D03*
%TD*%
D12*
%TO.C,J8*%
X173990000Y-93726000D03*
D11*
X176530000Y-93726000D03*
%TD*%
M02*
