%TF.GenerationSoftware,KiCad,Pcbnew,8.0.8*%
%TF.CreationDate,2025-03-12T17:19:21-05:00*%
%TF.ProjectId,Third Design (PCBWay 1),54686972-6420-4446-9573-69676e202850,rev?*%
%TF.SameCoordinates,Original*%
%TF.FileFunction,Copper,L2,Bot*%
%TF.FilePolarity,Positive*%
%FSLAX46Y46*%
G04 Gerber Fmt 4.6, Leading zero omitted, Abs format (unit mm)*
G04 Created by KiCad (PCBNEW 8.0.8) date 2025-03-12 17:19:21*
%MOMM*%
%LPD*%
G01*
G04 APERTURE LIST*
G04 Aperture macros list*
%AMRoundRect*
0 Rectangle with rounded corners*
0 $1 Rounding radius*
0 $2 $3 $4 $5 $6 $7 $8 $9 X,Y pos of 4 corners*
0 Add a 4 corners polygon primitive as box body*
4,1,4,$2,$3,$4,$5,$6,$7,$8,$9,$2,$3,0*
0 Add four circle primitives for the rounded corners*
1,1,$1+$1,$2,$3*
1,1,$1+$1,$4,$5*
1,1,$1+$1,$6,$7*
1,1,$1+$1,$8,$9*
0 Add four rect primitives between the rounded corners*
20,1,$1+$1,$2,$3,$4,$5,0*
20,1,$1+$1,$4,$5,$6,$7,0*
20,1,$1+$1,$6,$7,$8,$9,0*
20,1,$1+$1,$8,$9,$2,$3,0*%
G04 Aperture macros list end*
%TA.AperFunction,ComponentPad*%
%ADD10O,1.740000X2.190000*%
%TD*%
%TA.AperFunction,ComponentPad*%
%ADD11RoundRect,0.250000X-0.620000X-0.845000X0.620000X-0.845000X0.620000X0.845000X-0.620000X0.845000X0*%
%TD*%
%TA.AperFunction,ComponentPad*%
%ADD12RoundRect,0.250000X0.845000X-0.620000X0.845000X0.620000X-0.845000X0.620000X-0.845000X-0.620000X0*%
%TD*%
%TA.AperFunction,ComponentPad*%
%ADD13O,2.190000X1.740000*%
%TD*%
%TA.AperFunction,ComponentPad*%
%ADD14O,1.550000X0.775000*%
%TD*%
%TA.AperFunction,ComponentPad*%
%ADD15O,0.950000X1.300000*%
%TD*%
%TA.AperFunction,HeatsinkPad*%
%ADD16C,0.600000*%
%TD*%
%TA.AperFunction,ComponentPad*%
%ADD17C,1.778000*%
%TD*%
%TA.AperFunction,ComponentPad*%
%ADD18R,1.879600X1.879600*%
%TD*%
%TA.AperFunction,ComponentPad*%
%ADD19C,1.879600*%
%TD*%
%TA.AperFunction,ComponentPad*%
%ADD20R,1.800000X1.800000*%
%TD*%
%TA.AperFunction,ComponentPad*%
%ADD21O,1.800000X1.800000*%
%TD*%
%TA.AperFunction,ViaPad*%
%ADD22C,0.600000*%
%TD*%
%TA.AperFunction,Conductor*%
%ADD23C,0.200000*%
%TD*%
%TA.AperFunction,Conductor*%
%ADD24C,0.254000*%
%TD*%
%TA.AperFunction,Conductor*%
%ADD25C,0.508000*%
%TD*%
G04 APERTURE END LIST*
D10*
%TO.P,J20,2,Pin_2*%
%TO.N,/Bootload Push Button*%
X186944000Y-108712000D03*
D11*
%TO.P,J20,1,Pin_1*%
%TO.N,GND*%
X184404000Y-108712000D03*
%TD*%
%TO.P,J12,1,Pin_1*%
%TO.N,Net-(J12-Pin_1)*%
X132334000Y-128016000D03*
D10*
%TO.P,J12,2,Pin_2*%
%TO.N,GND*%
X134874000Y-128016000D03*
%TD*%
D11*
%TO.P,J4,1,Pin_1*%
%TO.N,Net-(J4-Pin_1)*%
X115788000Y-127000000D03*
D10*
%TO.P,J4,2,Pin_2*%
%TO.N,GND*%
X118328000Y-127000000D03*
%TD*%
D11*
%TO.P,J3,1,Pin_1*%
%TO.N,Net-(J3-Pin_1)*%
X154686000Y-102362000D03*
D10*
%TO.P,J3,2,Pin_2*%
%TO.N,GND*%
X157226000Y-102362000D03*
%TD*%
D11*
%TO.P,J7,1,Pin_1*%
%TO.N,Net-(J7-Pin_1)*%
X133477000Y-97409000D03*
D10*
%TO.P,J7,2,Pin_2*%
%TO.N,GND*%
X136017000Y-97409000D03*
%TD*%
D12*
%TO.P,J2,1,Pin_1*%
%TO.N,/Shaker Servo Signal 1*%
X107569000Y-87376000D03*
D13*
%TO.P,J2,2,Pin_2*%
%TO.N,+5V*%
X107569000Y-84836000D03*
%TO.P,J2,3,Pin_3*%
%TO.N,GND*%
X107569000Y-82296000D03*
%TD*%
D14*
%TO.P,J18,SH1,SHIELD*%
%TO.N,GND*%
X104775000Y-107284000D03*
%TO.P,J18,SH4,SHIELD__3*%
X104775000Y-114284000D03*
D15*
%TO.P,J18,SH5,SHIELD__4*%
X107475000Y-108284000D03*
%TO.P,J18,SH6,SHIELD__5*%
X107475000Y-113284000D03*
%TD*%
D11*
%TO.P,J9,1,Pin_1*%
%TO.N,Net-(J9-Pin_1)*%
X144018000Y-102489000D03*
D10*
%TO.P,J9,2,Pin_2*%
%TO.N,GND*%
X146558000Y-102489000D03*
%TD*%
D12*
%TO.P,J19,1,Pin_1*%
%TO.N,Net-(J19-Pin_1)*%
X107569000Y-96774000D03*
D13*
%TO.P,J19,2,Pin_2*%
%TO.N,Net-(J19-Pin_2)*%
X107569000Y-94234000D03*
%TD*%
D11*
%TO.P,J10,1,Pin_1*%
%TO.N,Net-(J10-Pin_1)*%
X120904000Y-54991000D03*
D10*
%TO.P,J10,2,Pin_2*%
%TO.N,Net-(J10-Pin_2)*%
X123444000Y-54991000D03*
%TD*%
D11*
%TO.P,J6,1,Pin_1*%
%TO.N,Net-(J6-Pin_1)*%
X187452000Y-93599000D03*
D10*
%TO.P,J6,2,Pin_2*%
%TO.N,GND*%
X189992000Y-93599000D03*
%TD*%
D16*
%TO.P,U2,39,GND*%
%TO.N,GND*%
X153577000Y-84589000D03*
X153577000Y-85989000D03*
X154277000Y-83889000D03*
X154277000Y-85289000D03*
X154277000Y-86689000D03*
X154977000Y-84589000D03*
X154977000Y-85989000D03*
X155677000Y-83889000D03*
X155677000Y-85289000D03*
X155677000Y-86689000D03*
X156377000Y-84589000D03*
X156377000Y-85989000D03*
%TD*%
D11*
%TO.P,J5,1,Pin_1*%
%TO.N,Net-(J5-Pin_1)*%
X134747000Y-56134000D03*
D10*
%TO.P,J5,2,Pin_2*%
%TO.N,Net-(J5-Pin_2)*%
X137287000Y-56134000D03*
%TO.P,J5,3,Pin_3*%
%TO.N,Net-(J5-Pin_3)*%
X139827000Y-56134000D03*
%TO.P,J5,4,Pin_4*%
%TO.N,Net-(J5-Pin_4)*%
X142367000Y-56134000D03*
%TD*%
D17*
%TO.P,U3,1,INPUT*%
%TO.N,+12V*%
X142875000Y-145923000D03*
%TO.P,U3,2,GROUND*%
%TO.N,GND*%
X145415000Y-145923000D03*
%TO.P,U3,3,OUTPUT*%
%TO.N,+5V*%
X147955000Y-145923000D03*
%TD*%
D18*
%TO.P,U1,1,IN*%
%TO.N,+5V*%
X166624000Y-145415000D03*
D19*
%TO.P,U1,2,GND*%
%TO.N,GND*%
X169164000Y-145415000D03*
%TO.P,U1,3,OUT*%
%TO.N,+3.3V*%
X171704000Y-145415000D03*
%TD*%
D12*
%TO.P,J17,1,Pin_1*%
%TO.N,/Shaker Servo Signal 2*%
X107569000Y-75311000D03*
D13*
%TO.P,J17,2,Pin_2*%
%TO.N,+5V*%
X107569000Y-72771000D03*
%TO.P,J17,3,Pin_3*%
%TO.N,GND*%
X107569000Y-70231000D03*
%TD*%
D11*
%TO.P,J11,1,Pin_1*%
%TO.N,/Excitation +*%
X173101000Y-59690000D03*
D10*
%TO.P,J11,2,Pin_2*%
%TO.N,/Excitation -*%
X175641000Y-59690000D03*
%TO.P,J11,3,Pin_3*%
%TO.N,/Signal +*%
X178181000Y-59690000D03*
%TO.P,J11,4,Pin_4*%
%TO.N,/Singal -*%
X180721000Y-59690000D03*
%TD*%
D11*
%TO.P,J16,1,Pin_1*%
%TO.N,GND*%
X137414000Y-66167000D03*
D10*
%TO.P,J16,2,Pin_2*%
%TO.N,Net-(J16-Pin_2)*%
X139954000Y-66167000D03*
%TD*%
D11*
%TO.P,J15,1,Pin_1*%
%TO.N,/Servo Signal 1*%
X164465000Y-121031000D03*
D10*
%TO.P,J15,2,Pin_2*%
%TO.N,+5V*%
X167005000Y-121031000D03*
%TO.P,J15,3,Pin_3*%
%TO.N,GND*%
X169545000Y-121031000D03*
%TD*%
D11*
%TO.P,J1,1,Pin_1*%
%TO.N,+12V*%
X128397000Y-144526000D03*
D10*
%TO.P,J1,2,Pin_2*%
%TO.N,GND*%
X130937000Y-144526000D03*
%TD*%
D11*
%TO.P,J14,1,Pin_1*%
%TO.N,/Servo Signal 3*%
X152400000Y-120904000D03*
D10*
%TO.P,J14,2,Pin_2*%
%TO.N,+5V*%
X154940000Y-120904000D03*
%TO.P,J14,3,Pin_3*%
%TO.N,GND*%
X157480000Y-120904000D03*
%TD*%
D11*
%TO.P,J13,1,Pin_1*%
%TO.N,/Servo Signal 2*%
X140081000Y-120904000D03*
D10*
%TO.P,J13,2,Pin_2*%
%TO.N,+5V*%
X142621000Y-120904000D03*
%TO.P,J13,3,Pin_3*%
%TO.N,GND*%
X145161000Y-120904000D03*
%TD*%
D20*
%TO.P,U5,1,SENSE_A*%
%TO.N,Net-(J10-Pin_1)*%
X148971000Y-62611000D03*
D21*
%TO.P,U5,2,OUT1*%
%TO.N,Net-(J5-Pin_1)*%
X150241000Y-57531000D03*
%TO.P,U5,3,OUT2*%
%TO.N,Net-(J5-Pin_2)*%
X151511000Y-62611000D03*
%TO.P,U5,4,Vs*%
%TO.N,+12V*%
X152781000Y-57531000D03*
%TO.P,U5,5,IN1*%
%TO.N,/Stepper Driver IN1*%
X154051000Y-62611000D03*
%TO.P,U5,6,EnA*%
%TO.N,/Step Driver Speed*%
X155321000Y-57531000D03*
%TO.P,U5,7,IN2*%
%TO.N,/Stepper Driver IN2*%
X156591000Y-62611000D03*
%TO.P,U5,8,GND*%
%TO.N,GND*%
X157861000Y-57531000D03*
%TO.P,U5,9,Vss*%
%TO.N,+5V*%
X159131000Y-62611000D03*
%TO.P,U5,10,IN3*%
%TO.N,/Stepper Driver IN3*%
X160401000Y-57531000D03*
%TO.P,U5,11,EnB*%
%TO.N,/Step Driver Speed*%
X161671000Y-62611000D03*
%TO.P,U5,12,IN4*%
%TO.N,/Stepper Driver IN4*%
X162941000Y-57531000D03*
%TO.P,U5,13,OUT3*%
%TO.N,Net-(J5-Pin_3)*%
X164211000Y-62611000D03*
%TO.P,U5,14,OUT4*%
%TO.N,Net-(J5-Pin_4)*%
X165481000Y-57531000D03*
%TO.P,U5,15,SENSE_B*%
%TO.N,Net-(J10-Pin_2)*%
X166751000Y-62611000D03*
%TD*%
D11*
%TO.P,J8,1,Pin_1*%
%TO.N,Net-(J8-Pin_1)*%
X173990000Y-93726000D03*
D10*
%TO.P,J8,2,Pin_2*%
%TO.N,GND*%
X176530000Y-93726000D03*
%TD*%
D22*
%TO.N,/Compartment 2 LED*%
X147727000Y-94234000D03*
X110998000Y-117475000D03*
%TO.N,Net-(J4-Pin_1)*%
X114868000Y-135330000D03*
%TO.N,/Compartment 1 LED*%
X162192000Y-95329000D03*
X164338000Y-103759000D03*
%TO.N,Net-(J3-Pin_1)*%
X160433000Y-99314000D03*
%TO.N,/Bootload Push Button*%
X133604000Y-123190000D03*
X128937500Y-118000000D03*
%TO.N,GND*%
X175176000Y-135255000D03*
X150762000Y-95329000D03*
X147727000Y-77724000D03*
X156464000Y-75438000D03*
X176403000Y-55118000D03*
X165227000Y-77724000D03*
X151892000Y-110871000D03*
X181229000Y-130683000D03*
%TO.N,+3.3V*%
X181864000Y-64643000D03*
X138938000Y-77724000D03*
X161544000Y-147066000D03*
X174371000Y-70739000D03*
X116586000Y-71374000D03*
X171069000Y-72009000D03*
%TO.N,Net-(J9-Pin_1)*%
X140367000Y-110109000D03*
%TO.N,Net-(J10-Pin_2)*%
X170434000Y-57658000D03*
%TO.N,/Singal -*%
X174371000Y-75819000D03*
%TO.N,/Excitation +*%
X174371000Y-69469000D03*
%TO.N,/Signal +*%
X174371000Y-77089000D03*
%TO.N,/Excitation -*%
X174371000Y-72009000D03*
%TO.N,+5V*%
X152527000Y-139573000D03*
X146431000Y-116078000D03*
X137287000Y-115570000D03*
%TO.N,/Servo Signal 2*%
X165227000Y-89154000D03*
%TO.N,/Servo Signal 3*%
X152032000Y-95329000D03*
%TO.N,Net-(J16-Pin_2)*%
X129699000Y-74676000D03*
%TO.N,/D-*%
X154686000Y-70323000D03*
X156768997Y-68483598D03*
%TO.N,/D+*%
X158496000Y-69053000D03*
X155448000Y-66294000D03*
%TO.N,Net-(J19-Pin_1)*%
X136525000Y-81534000D03*
%TO.N,Net-(J19-Pin_2)*%
X137922000Y-82931000D03*
%TO.N,Net-(Q1-G)*%
X164719000Y-101346000D03*
X161925000Y-84582000D03*
%TO.N,Net-(U7-SUSPEND)*%
X177038000Y-86360000D03*
X162560000Y-88392000D03*
%TO.N,/Dispensing LED*%
X145542000Y-92964000D03*
X132461000Y-104902000D03*
%TO.N,Net-(U7-SUSPENDB)*%
X153311000Y-67818000D03*
X154559000Y-74930000D03*
%TO.N,Net-(U7-WAKEUP)*%
X166878000Y-75057000D03*
X160782000Y-75692000D03*
X155448000Y-77978000D03*
X166878000Y-72517000D03*
%TO.N,/VBUS*%
X153416000Y-72136000D03*
X152101094Y-70875906D03*
X153416000Y-70866000D03*
X140589000Y-103251000D03*
%TO.N,/Stepper Driver IN3*%
X165227000Y-78994000D03*
%TO.N,/Stepper Driver IN1*%
X165227000Y-87884000D03*
%TO.N,/Stepper Driver IN2*%
X165227000Y-86614000D03*
%TO.N,/Step Driver Speed*%
X147727000Y-89154000D03*
X169672000Y-64770000D03*
%TO.N,/Shaker Servo Signal 1*%
X132588000Y-89916000D03*
X147727000Y-86614000D03*
%TO.N,/Shaker Servo Signal 2*%
X137922000Y-87884000D03*
X147701000Y-87884000D03*
%TD*%
D23*
%TO.N,/Compartment 2 LED*%
X110998000Y-117475000D02*
X112303000Y-116170000D01*
X112303000Y-116170000D02*
X137535529Y-116170000D01*
X142748000Y-101940529D02*
X142748000Y-99213000D01*
X137535529Y-116170000D02*
X137887000Y-115818529D01*
X137887000Y-115818529D02*
X137887000Y-106801529D01*
X137887000Y-106801529D02*
X142748000Y-101940529D01*
X142748000Y-99213000D02*
X147727000Y-94234000D01*
%TO.N,GND*%
X157226000Y-102362000D02*
X155831000Y-103757000D01*
X155831000Y-103757000D02*
X153831256Y-103757000D01*
X153831256Y-103757000D02*
X152632000Y-102557744D01*
X152632000Y-102557744D02*
X152632000Y-95080471D01*
X152632000Y-95080471D02*
X152280529Y-94729000D01*
X152280529Y-94729000D02*
X151362000Y-94729000D01*
X151362000Y-94729000D02*
X150762000Y-95329000D01*
%TO.N,Net-(J4-Pin_1)*%
X115788000Y-127000000D02*
X115788000Y-134410000D01*
X115788000Y-134410000D02*
X114868000Y-135330000D01*
%TO.N,GND*%
X118328000Y-127000000D02*
X118707000Y-126621000D01*
X118707000Y-126621000D02*
X133479000Y-126621000D01*
X133479000Y-126621000D02*
X134874000Y-128016000D01*
%TO.N,/Compartment 1 LED*%
X164338000Y-103759000D02*
X162192000Y-101613000D01*
X162192000Y-101613000D02*
X162192000Y-95329000D01*
%TO.N,Net-(J3-Pin_1)*%
X154686000Y-102362000D02*
X157734000Y-99314000D01*
X157734000Y-99314000D02*
X160433000Y-99314000D01*
%TO.N,/Bootload Push Button*%
X128937500Y-118523500D02*
X128937500Y-118000000D01*
X133604000Y-123190000D02*
X128937500Y-118523500D01*
%TO.N,GND*%
X182753000Y-132207000D02*
X176530000Y-125984000D01*
X106475000Y-114284000D02*
X107475000Y-113284000D01*
X182753000Y-132207000D02*
X171577000Y-121031000D01*
X181264000Y-84871000D02*
X189992000Y-93599000D01*
X176530000Y-125984000D02*
X176530000Y-93726000D01*
X154977000Y-84589000D02*
X154977000Y-85989000D01*
D24*
X107569000Y-70231000D02*
X133350000Y-70231000D01*
D23*
X156464000Y-82402000D02*
X155677000Y-83189000D01*
X157077000Y-83889000D02*
X161180529Y-83889000D01*
X107475000Y-108284000D02*
X105775000Y-108284000D01*
X156464000Y-75438000D02*
X156464000Y-82402000D01*
X144018000Y-144526000D02*
X130937000Y-144526000D01*
D24*
X147189800Y-144148200D02*
X145415000Y-145923000D01*
D23*
X147727000Y-72060370D02*
X147727000Y-77724000D01*
D24*
X108991000Y-80874000D02*
X107569000Y-82296000D01*
X167897200Y-144148200D02*
X147189800Y-144148200D01*
X169164000Y-141267000D02*
X175176000Y-135255000D01*
D23*
X145415000Y-145923000D02*
X144018000Y-144526000D01*
D24*
X107569000Y-70231000D02*
X108991000Y-71653000D01*
D23*
X157480000Y-120904000D02*
X156085000Y-119509000D01*
X146558000Y-99533000D02*
X150762000Y-95329000D01*
X181264000Y-64394471D02*
X181264000Y-84871000D01*
X159002000Y-122426000D02*
X157480000Y-120904000D01*
X105775000Y-108284000D02*
X104775000Y-107284000D01*
X169545000Y-121031000D02*
X168150000Y-122426000D01*
D24*
X108991000Y-71653000D02*
X108991000Y-80874000D01*
D23*
X171577000Y-121031000D02*
X169545000Y-121031000D01*
X176403000Y-55118000D02*
X179197000Y-55118000D01*
X157480000Y-116459000D02*
X157480000Y-120904000D01*
X155677000Y-83189000D02*
X155677000Y-83889000D01*
D24*
X169164000Y-145415000D02*
X167897200Y-144148200D01*
D23*
X104775000Y-107284000D02*
X104775000Y-114284000D01*
X146558000Y-102489000D02*
X146558000Y-99533000D01*
D24*
X169164000Y-145415000D02*
X169164000Y-141267000D01*
D23*
X182112529Y-63545942D02*
X181264000Y-64394471D01*
X165827000Y-78324000D02*
X165227000Y-77724000D01*
X137414000Y-66167000D02*
X138809000Y-64772000D01*
X156085000Y-119509000D02*
X146556000Y-119509000D01*
X179197000Y-55118000D02*
X182112529Y-58033529D01*
X104775000Y-114284000D02*
X106475000Y-114284000D01*
X168150000Y-122426000D02*
X159002000Y-122426000D01*
X156377000Y-84589000D02*
X157077000Y-83889000D01*
X146556000Y-119509000D02*
X145161000Y-120904000D01*
X161180529Y-83889000D02*
X165827000Y-79242529D01*
X182112529Y-58033529D02*
X182112529Y-63545942D01*
X181229000Y-130683000D02*
X182753000Y-132207000D01*
X165827000Y-79242529D02*
X165827000Y-78324000D01*
D24*
X133350000Y-70231000D02*
X137414000Y-66167000D01*
D23*
X138809000Y-64772000D02*
X140438630Y-64772000D01*
X151892000Y-110871000D02*
X157480000Y-116459000D01*
X140438630Y-64772000D02*
X147727000Y-72060370D01*
D24*
%TO.N,+3.3V*%
X161544000Y-147066000D02*
X170053000Y-147066000D01*
X171069000Y-72009000D02*
X173101000Y-72009000D01*
X194691000Y-68072000D02*
X191262000Y-64643000D01*
X191262000Y-64643000D02*
X181864000Y-64643000D01*
X138938000Y-77724000D02*
X122936000Y-77724000D01*
X171704000Y-145415000D02*
X176022000Y-145415000D01*
X122936000Y-77724000D02*
X116586000Y-71374000D01*
X195199000Y-126238000D02*
X195199000Y-68580000D01*
X170053000Y-147066000D02*
X171704000Y-145415000D01*
X173101000Y-72009000D02*
X174371000Y-70739000D01*
X176022000Y-145415000D02*
X195199000Y-126238000D01*
X195199000Y-68580000D02*
X194691000Y-68072000D01*
D25*
%TO.N,+12V*%
X128397000Y-144526000D02*
X130682999Y-146811999D01*
X130682999Y-146811999D02*
X141986001Y-146811999D01*
X141986001Y-146811999D02*
X142875000Y-145923000D01*
D23*
%TO.N,Net-(J9-Pin_1)*%
X144018000Y-102489000D02*
X144018000Y-106458000D01*
X144018000Y-106458000D02*
X140367000Y-110109000D01*
%TO.N,Net-(J10-Pin_1)*%
X148971000Y-62611000D02*
X128524000Y-62611000D01*
X128524000Y-62611000D02*
X120904000Y-54991000D01*
%TO.N,Net-(J10-Pin_2)*%
X125476000Y-54991000D02*
X123444000Y-54991000D01*
X164846000Y-52070000D02*
X128397000Y-52070000D01*
X170434000Y-57658000D02*
X164846000Y-52070000D01*
X128397000Y-52070000D02*
X125476000Y-54991000D01*
%TO.N,/Singal -*%
X173771000Y-77337529D02*
X173771000Y-76419000D01*
X173771000Y-76419000D02*
X174371000Y-75819000D01*
X180721000Y-59690000D02*
X180721000Y-71587529D01*
X180721000Y-71587529D02*
X174619529Y-77689000D01*
X174619529Y-77689000D02*
X174122471Y-77689000D01*
X174122471Y-77689000D02*
X173771000Y-77337529D01*
%TO.N,/Excitation +*%
X173101000Y-68199000D02*
X174371000Y-69469000D01*
X173101000Y-59690000D02*
X173101000Y-68199000D01*
%TO.N,/Signal +*%
X178181000Y-59690000D02*
X178181000Y-73279000D01*
X178181000Y-73279000D02*
X174371000Y-77089000D01*
%TO.N,/Excitation -*%
X175641000Y-59690000D02*
X175641000Y-70739000D01*
X175641000Y-70739000D02*
X174371000Y-72009000D01*
D25*
%TO.N,+5V*%
X136398000Y-114681000D02*
X137287000Y-115570000D01*
X133604000Y-114300000D02*
X133985000Y-114681000D01*
X126873000Y-104013000D02*
X126873000Y-107569000D01*
X142621000Y-119888000D02*
X142621000Y-120904000D01*
X154940000Y-137160000D02*
X152527000Y-139573000D01*
X126873000Y-107569000D02*
X133604000Y-114300000D01*
X111379000Y-103632000D02*
X126492000Y-103632000D01*
X106020000Y-74320000D02*
X107569000Y-72771000D01*
X154940000Y-120904000D02*
X154940000Y-137160000D01*
X106020000Y-86385000D02*
X106020000Y-98273000D01*
X146431000Y-116078000D02*
X142621000Y-119888000D01*
X166116000Y-145923000D02*
X166624000Y-145415000D01*
X107569000Y-84836000D02*
X106020000Y-83287000D01*
X147955000Y-145923000D02*
X166116000Y-145923000D01*
X133985000Y-114681000D02*
X136398000Y-114681000D01*
X106020000Y-83287000D02*
X106020000Y-74320000D01*
X126492000Y-103632000D02*
X126873000Y-104013000D01*
X106020000Y-98273000D02*
X111379000Y-103632000D01*
X107569000Y-84836000D02*
X106020000Y-86385000D01*
D23*
%TO.N,/Servo Signal 2*%
X153162000Y-107823000D02*
X165100000Y-107823000D01*
X167259000Y-105664000D02*
X167259000Y-91186000D01*
X165100000Y-107823000D02*
X167259000Y-105664000D01*
X167259000Y-91186000D02*
X165227000Y-89154000D01*
X140081000Y-120904000D02*
X153162000Y-107823000D01*
%TO.N,/Servo Signal 3*%
X152032000Y-99301000D02*
X152032000Y-95329000D01*
X151005000Y-122299000D02*
X139226256Y-122299000D01*
X138911000Y-121983744D02*
X138911000Y-112422000D01*
X152400000Y-120904000D02*
X151005000Y-122299000D01*
X138911000Y-112422000D02*
X152032000Y-99301000D01*
X139226256Y-122299000D02*
X138911000Y-121983744D01*
%TO.N,Net-(J16-Pin_2)*%
X139954000Y-66167000D02*
X139827000Y-66167000D01*
X131318000Y-74676000D02*
X129699000Y-74676000D01*
X139827000Y-66167000D02*
X131318000Y-74676000D01*
D24*
%TO.N,/D-*%
X154686000Y-69977000D02*
X155964000Y-68699000D01*
X155964000Y-68699000D02*
X156553595Y-68699000D01*
X154686000Y-70323000D02*
X154686000Y-69977000D01*
X156553595Y-68699000D02*
X156768997Y-68483598D01*
%TO.N,/D+*%
X158496000Y-69053000D02*
X158496000Y-67818000D01*
X156726000Y-67572000D02*
X155448000Y-66294000D01*
X158250000Y-67572000D02*
X156726000Y-67572000D01*
X158496000Y-67818000D02*
X158250000Y-67572000D01*
D25*
%TO.N,Net-(J19-Pin_1)*%
X120650000Y-96774000D02*
X107569000Y-96774000D01*
X136525000Y-81534000D02*
X135890000Y-81534000D01*
X135890000Y-81534000D02*
X120650000Y-96774000D01*
%TO.N,Net-(J19-Pin_2)*%
X136837318Y-80780000D02*
X121023000Y-80780000D01*
X137922000Y-81864682D02*
X136837318Y-80780000D01*
X121023000Y-80780000D02*
X107569000Y-94234000D01*
X137922000Y-82931000D02*
X137922000Y-81864682D01*
D23*
%TO.N,Net-(Q1-G)*%
X161925000Y-88605529D02*
X161925000Y-84582000D01*
X164719000Y-91399529D02*
X161925000Y-88605529D01*
X164719000Y-101346000D02*
X164719000Y-91399529D01*
%TO.N,Net-(U7-SUSPEND)*%
X164978471Y-88554000D02*
X174844000Y-88554000D01*
X163449000Y-89281000D02*
X164251471Y-89281000D01*
X174844000Y-88554000D02*
X177038000Y-86360000D01*
X164251471Y-89281000D02*
X164978471Y-88554000D01*
X162560000Y-88392000D02*
X163449000Y-89281000D01*
D25*
%TO.N,/Dispensing LED*%
X145542000Y-92964000D02*
X133604000Y-104902000D01*
X133604000Y-104902000D02*
X132461000Y-104902000D01*
D23*
%TO.N,Net-(U7-SUSPENDB)*%
X154051000Y-74422000D02*
X154051000Y-68558000D01*
X154051000Y-68558000D02*
X153311000Y-67818000D01*
X154559000Y-74930000D02*
X154051000Y-74422000D01*
%TO.N,Net-(U7-WAKEUP)*%
X156824374Y-74838000D02*
X157678374Y-75692000D01*
X156215471Y-74838000D02*
X156824374Y-74838000D01*
X154813000Y-77343000D02*
X154813000Y-76240471D01*
X155448000Y-77978000D02*
X154813000Y-77343000D01*
X166878000Y-72517000D02*
X166878000Y-75057000D01*
X157678374Y-75692000D02*
X160782000Y-75692000D01*
X154813000Y-76240471D02*
X156215471Y-74838000D01*
%TO.N,/VBUS*%
X152111000Y-77886000D02*
X152111000Y-70885811D01*
X131861000Y-89794471D02*
X138124471Y-83531000D01*
X152111000Y-70885811D02*
X152110999Y-70885811D01*
X131861000Y-105150529D02*
X131861000Y-89794471D01*
X138338000Y-105502000D02*
X132212471Y-105502000D01*
X153416000Y-70866000D02*
X153416000Y-72136000D01*
X140589000Y-103251000D02*
X138338000Y-105502000D01*
X146466000Y-83531000D02*
X152111000Y-77886000D01*
X152110999Y-70885811D02*
X152101094Y-70875906D01*
X132212471Y-105502000D02*
X131861000Y-105150529D01*
X138124471Y-83531000D02*
X146466000Y-83531000D01*
%TO.N,/Stepper Driver IN3*%
X160401000Y-74168000D02*
X165227000Y-78994000D01*
X160401000Y-57531000D02*
X160401000Y-74168000D01*
%TO.N,/Stepper Driver IN1*%
X164141000Y-57033943D02*
X164141000Y-58303943D01*
X164141000Y-58303943D02*
X167951000Y-62113943D01*
X163038057Y-55931000D02*
X164141000Y-57033943D01*
X167951000Y-62113943D02*
X167951000Y-85160000D01*
X156661000Y-57033943D02*
X157763943Y-55931000D01*
X156661000Y-60001000D02*
X156661000Y-57033943D01*
X167951000Y-85160000D02*
X165227000Y-87884000D01*
X157763943Y-55931000D02*
X163038057Y-55931000D01*
X154051000Y-62611000D02*
X156661000Y-60001000D01*
%TO.N,/Stepper Driver IN2*%
X159903943Y-56331000D02*
X160898057Y-56331000D01*
X165475529Y-77124000D02*
X166227000Y-77875471D01*
X161601000Y-58028057D02*
X165475529Y-61902586D01*
X165475529Y-61902586D02*
X165475529Y-77124000D01*
X161601000Y-57033943D02*
X161601000Y-58028057D01*
X156591000Y-62611000D02*
X159201000Y-60001000D01*
X159201000Y-57033943D02*
X159903943Y-56331000D01*
X166227000Y-77875471D02*
X166227000Y-85614000D01*
X166227000Y-85614000D02*
X165227000Y-86614000D01*
X160898057Y-56331000D02*
X161601000Y-57033943D01*
X159201000Y-60001000D02*
X159201000Y-57033943D01*
%TO.N,/Step Driver Speed*%
X169545000Y-58547000D02*
X169672000Y-58674000D01*
X152019000Y-63800057D02*
X152019000Y-69945282D01*
X169672000Y-58674000D02*
X169672000Y-64770000D01*
X152711000Y-63108057D02*
X152019000Y-63800057D01*
X157321000Y-55531000D02*
X166529000Y-55531000D01*
X152019000Y-60833000D02*
X152019000Y-61421943D01*
X166529000Y-55531000D02*
X169545000Y-58547000D01*
X152019000Y-61421943D02*
X152711000Y-62113943D01*
X152019000Y-69945282D02*
X152711000Y-70637282D01*
X155321000Y-57531000D02*
X157321000Y-55531000D01*
X155321000Y-57531000D02*
X152019000Y-60833000D01*
X152711000Y-62113943D02*
X152711000Y-63108057D01*
X152711000Y-70637282D02*
X152711000Y-84170000D01*
X152711000Y-84170000D02*
X147727000Y-89154000D01*
D24*
%TO.N,/Shaker Servo Signal 1*%
X132588000Y-89916000D02*
X135890000Y-86614000D01*
X135890000Y-86614000D02*
X147727000Y-86614000D01*
%TO.N,/Shaker Servo Signal 2*%
X137922000Y-87884000D02*
X147701000Y-87884000D01*
%TD*%
%TA.AperFunction,Conductor*%
%TO.N,GND*%
G36*
X153516703Y-74711210D02*
G01*
X153542886Y-74742921D01*
X153547403Y-74750745D01*
X153570479Y-74790715D01*
X153689349Y-74909585D01*
X153689355Y-74909590D01*
X153728298Y-74948533D01*
X153761783Y-75009856D01*
X153763837Y-75022330D01*
X153773630Y-75109249D01*
X153833210Y-75279521D01*
X153913010Y-75406522D01*
X153929184Y-75432262D01*
X154056738Y-75559816D01*
X154109162Y-75592756D01*
X154209478Y-75655789D01*
X154275354Y-75678840D01*
X154332130Y-75719562D01*
X154357878Y-75784514D01*
X154344422Y-75853076D01*
X154332781Y-75871362D01*
X154332477Y-75871757D01*
X154293957Y-75938478D01*
X154293957Y-75938480D01*
X154253423Y-76008685D01*
X154253423Y-76008686D01*
X154212499Y-76161414D01*
X154212499Y-76161416D01*
X154212499Y-76329517D01*
X154212500Y-76329530D01*
X154212500Y-77256330D01*
X154212499Y-77256348D01*
X154212499Y-77422054D01*
X154212498Y-77422054D01*
X154253424Y-77574787D01*
X154262935Y-77591260D01*
X154262936Y-77591262D01*
X154332477Y-77711712D01*
X154332481Y-77711717D01*
X154451349Y-77830585D01*
X154451355Y-77830590D01*
X154617298Y-77996533D01*
X154650783Y-78057856D01*
X154652837Y-78070330D01*
X154662630Y-78157249D01*
X154722210Y-78327521D01*
X154818184Y-78480262D01*
X154945738Y-78607816D01*
X155098478Y-78703789D01*
X155268745Y-78763368D01*
X155268750Y-78763369D01*
X155447996Y-78783565D01*
X155448000Y-78783565D01*
X155448004Y-78783565D01*
X155627249Y-78763369D01*
X155627252Y-78763368D01*
X155627255Y-78763368D01*
X155797522Y-78703789D01*
X155950262Y-78607816D01*
X156077816Y-78480262D01*
X156173789Y-78327522D01*
X156233368Y-78157255D01*
X156237114Y-78124008D01*
X156253565Y-77978003D01*
X156253565Y-77977996D01*
X156233369Y-77798750D01*
X156233368Y-77798745D01*
X156207215Y-77724003D01*
X156173789Y-77628478D01*
X156163174Y-77611585D01*
X156097309Y-77506761D01*
X156077816Y-77475738D01*
X155950262Y-77348184D01*
X155797521Y-77252210D01*
X155627249Y-77192630D01*
X155540332Y-77182837D01*
X155475918Y-77155770D01*
X155466535Y-77147298D01*
X155449819Y-77130582D01*
X155416334Y-77069259D01*
X155413500Y-77042901D01*
X155413500Y-76540568D01*
X155433185Y-76473529D01*
X155449819Y-76452887D01*
X156427888Y-75474819D01*
X156489211Y-75441334D01*
X156515569Y-75438500D01*
X156524277Y-75438500D01*
X156591316Y-75458185D01*
X156611958Y-75474819D01*
X157193513Y-76056374D01*
X157193523Y-76056385D01*
X157197853Y-76060715D01*
X157197854Y-76060716D01*
X157309658Y-76172520D01*
X157309660Y-76172521D01*
X157309664Y-76172524D01*
X157446583Y-76251573D01*
X157446590Y-76251577D01*
X157558393Y-76281534D01*
X157599316Y-76292500D01*
X157599317Y-76292500D01*
X160199588Y-76292500D01*
X160266627Y-76312185D01*
X160276903Y-76319555D01*
X160279736Y-76321814D01*
X160279738Y-76321816D01*
X160393270Y-76393152D01*
X160403619Y-76399656D01*
X160432478Y-76417789D01*
X160591774Y-76473529D01*
X160602745Y-76477368D01*
X160602750Y-76477369D01*
X160781996Y-76497565D01*
X160782000Y-76497565D01*
X160782004Y-76497565D01*
X160961249Y-76477369D01*
X160961252Y-76477368D01*
X160961255Y-76477368D01*
X161131522Y-76417789D01*
X161284262Y-76321816D01*
X161407243Y-76198834D01*
X161468562Y-76165352D01*
X161538254Y-76170336D01*
X161582601Y-76198836D01*
X162995349Y-77611585D01*
X164396298Y-79012534D01*
X164429783Y-79073857D01*
X164431837Y-79086331D01*
X164441630Y-79173249D01*
X164501210Y-79343521D01*
X164501211Y-79343522D01*
X164597184Y-79496262D01*
X164724738Y-79623816D01*
X164877478Y-79719789D01*
X165047742Y-79779367D01*
X165047745Y-79779368D01*
X165047750Y-79779369D01*
X165226996Y-79799565D01*
X165227000Y-79799565D01*
X165227004Y-79799565D01*
X165406249Y-79779369D01*
X165406250Y-79779368D01*
X165406255Y-79779368D01*
X165461545Y-79760020D01*
X165531322Y-79756458D01*
X165591950Y-79791186D01*
X165624178Y-79853179D01*
X165626500Y-79877062D01*
X165626500Y-85313902D01*
X165606815Y-85380941D01*
X165590181Y-85401583D01*
X165208465Y-85783298D01*
X165147142Y-85816783D01*
X165134668Y-85818837D01*
X165047750Y-85828630D01*
X164877478Y-85888210D01*
X164724737Y-85984184D01*
X164597184Y-86111737D01*
X164501211Y-86264476D01*
X164441631Y-86434745D01*
X164441630Y-86434750D01*
X164421435Y-86613996D01*
X164421435Y-86614003D01*
X164441630Y-86793249D01*
X164441631Y-86793254D01*
X164501211Y-86963523D01*
X164597184Y-87116262D01*
X164597185Y-87116263D01*
X164642241Y-87161320D01*
X164675725Y-87222643D01*
X164670740Y-87292335D01*
X164642241Y-87336680D01*
X164597184Y-87381737D01*
X164501211Y-87534476D01*
X164441631Y-87704745D01*
X164441630Y-87704750D01*
X164421435Y-87883996D01*
X164421435Y-87884003D01*
X164441630Y-88063249D01*
X164441632Y-88063257D01*
X164462128Y-88121832D01*
X164465689Y-88191611D01*
X164432767Y-88250467D01*
X164039055Y-88644181D01*
X163977732Y-88677666D01*
X163951374Y-88680500D01*
X163749097Y-88680500D01*
X163682058Y-88660815D01*
X163661416Y-88644181D01*
X163390700Y-88373465D01*
X163357215Y-88312142D01*
X163355163Y-88299686D01*
X163345368Y-88212745D01*
X163285789Y-88042478D01*
X163189816Y-87889738D01*
X163062262Y-87762184D01*
X163040161Y-87748297D01*
X162909523Y-87666211D01*
X162739254Y-87606631D01*
X162739250Y-87606630D01*
X162635616Y-87594954D01*
X162571202Y-87567887D01*
X162531647Y-87510292D01*
X162525500Y-87471734D01*
X162525500Y-85164412D01*
X162545185Y-85097373D01*
X162552555Y-85087097D01*
X162554810Y-85084267D01*
X162554816Y-85084262D01*
X162650789Y-84931522D01*
X162710368Y-84761255D01*
X162710369Y-84761249D01*
X162730565Y-84582003D01*
X162730565Y-84581996D01*
X162710369Y-84402750D01*
X162710368Y-84402745D01*
X162656590Y-84249056D01*
X162650789Y-84232478D01*
X162554816Y-84079738D01*
X162427262Y-83952184D01*
X162412931Y-83943179D01*
X162274523Y-83856211D01*
X162104254Y-83796631D01*
X162104249Y-83796630D01*
X161925004Y-83776435D01*
X161924996Y-83776435D01*
X161745750Y-83796630D01*
X161745745Y-83796631D01*
X161575476Y-83856211D01*
X161422737Y-83952184D01*
X161295184Y-84079737D01*
X161199211Y-84232476D01*
X161139631Y-84402745D01*
X161139630Y-84402750D01*
X161119435Y-84581996D01*
X161119435Y-84582003D01*
X161139630Y-84761249D01*
X161139631Y-84761254D01*
X161199211Y-84931523D01*
X161259515Y-85027496D01*
X161293095Y-85080938D01*
X161295185Y-85084263D01*
X161297445Y-85087097D01*
X161298334Y-85089275D01*
X161298889Y-85090158D01*
X161298734Y-85090255D01*
X161323855Y-85151783D01*
X161324500Y-85164412D01*
X161324500Y-88518859D01*
X161324499Y-88518877D01*
X161324499Y-88684583D01*
X161324498Y-88684583D01*
X161365423Y-88837314D01*
X161394358Y-88887429D01*
X161394359Y-88887433D01*
X161394360Y-88887433D01*
X161444479Y-88974243D01*
X161444481Y-88974246D01*
X161563349Y-89093114D01*
X161563355Y-89093119D01*
X164082181Y-91611945D01*
X164115666Y-91673268D01*
X164118500Y-91699626D01*
X164118500Y-100763587D01*
X164098815Y-100830626D01*
X164091450Y-100840896D01*
X164089186Y-100843734D01*
X163993211Y-100996476D01*
X163933631Y-101166745D01*
X163933630Y-101166750D01*
X163913435Y-101345996D01*
X163913435Y-101346003D01*
X163933630Y-101525249D01*
X163933631Y-101525254D01*
X163993211Y-101695523D01*
X164063602Y-101807548D01*
X164089184Y-101848262D01*
X164216738Y-101975816D01*
X164369478Y-102071789D01*
X164516419Y-102123206D01*
X164539745Y-102131368D01*
X164539750Y-102131369D01*
X164718996Y-102151565D01*
X164719000Y-102151565D01*
X164719004Y-102151565D01*
X164898249Y-102131369D01*
X164898252Y-102131368D01*
X164898255Y-102131368D01*
X165068522Y-102071789D01*
X165221262Y-101975816D01*
X165348816Y-101848262D01*
X165444789Y-101695522D01*
X165504368Y-101525255D01*
X165522863Y-101361108D01*
X165524565Y-101346003D01*
X165524565Y-101345996D01*
X165504369Y-101166750D01*
X165504368Y-101166745D01*
X165463968Y-101051288D01*
X165444789Y-100996478D01*
X165421357Y-100959187D01*
X165386681Y-100904000D01*
X165348816Y-100843738D01*
X165348814Y-100843736D01*
X165348813Y-100843734D01*
X165346550Y-100840896D01*
X165345659Y-100838715D01*
X165345111Y-100837842D01*
X165345264Y-100837745D01*
X165320144Y-100776209D01*
X165319500Y-100763587D01*
X165319500Y-91488589D01*
X165319501Y-91488576D01*
X165319501Y-91320473D01*
X165278576Y-91167743D01*
X165278573Y-91167738D01*
X165199524Y-91030819D01*
X165199518Y-91030811D01*
X164260619Y-90091912D01*
X164227134Y-90030589D01*
X164232118Y-89960897D01*
X164273990Y-89904964D01*
X164323046Y-89884984D01*
X164322677Y-89883604D01*
X164330525Y-89881501D01*
X164330528Y-89881501D01*
X164483256Y-89840577D01*
X164545743Y-89804500D01*
X164591473Y-89778097D01*
X164659372Y-89761624D01*
X164719445Y-89780490D01*
X164724737Y-89783815D01*
X164724738Y-89783816D01*
X164877478Y-89879789D01*
X165047745Y-89939368D01*
X165134669Y-89949161D01*
X165199080Y-89976226D01*
X165208465Y-89984700D01*
X166622181Y-91398416D01*
X166655666Y-91459739D01*
X166658500Y-91486097D01*
X166658500Y-105363903D01*
X166638815Y-105430942D01*
X166622181Y-105451584D01*
X164887584Y-107186181D01*
X164826261Y-107219666D01*
X164799903Y-107222500D01*
X153248670Y-107222500D01*
X153248654Y-107222499D01*
X153241058Y-107222499D01*
X153082943Y-107222499D01*
X153039007Y-107234272D01*
X152930214Y-107263423D01*
X152930209Y-107263426D01*
X152793290Y-107342475D01*
X152793282Y-107342481D01*
X140861861Y-119273902D01*
X140800538Y-119307387D01*
X140761582Y-119309579D01*
X140751028Y-119308501D01*
X140751012Y-119308500D01*
X140751009Y-119308500D01*
X140751004Y-119308500D01*
X139635500Y-119308500D01*
X139568461Y-119288815D01*
X139522706Y-119236011D01*
X139511500Y-119184500D01*
X139511500Y-112722096D01*
X139531185Y-112655057D01*
X139547814Y-112634420D01*
X150715250Y-101466983D01*
X153315500Y-101466983D01*
X153315500Y-103257001D01*
X153315501Y-103257018D01*
X153326000Y-103359796D01*
X153326001Y-103359799D01*
X153363774Y-103473788D01*
X153381186Y-103526334D01*
X153473288Y-103675656D01*
X153597344Y-103799712D01*
X153746666Y-103891814D01*
X153913203Y-103946999D01*
X154015991Y-103957500D01*
X155356008Y-103957499D01*
X155458797Y-103946999D01*
X155625334Y-103891814D01*
X155774656Y-103799712D01*
X155898712Y-103675656D01*
X155990814Y-103526334D01*
X155990817Y-103526323D01*
X155991353Y-103525177D01*
X155991934Y-103524516D01*
X155994605Y-103520187D01*
X155995344Y-103520643D01*
X156037521Y-103472734D01*
X156104713Y-103453577D01*
X156171596Y-103473788D01*
X156191420Y-103489892D01*
X156333502Y-103631974D01*
X156507963Y-103758728D01*
X156700098Y-103856627D01*
X156905190Y-103923266D01*
X156976000Y-103934481D01*
X156976000Y-102904709D01*
X156996339Y-102916452D01*
X157147667Y-102957000D01*
X157304333Y-102957000D01*
X157455661Y-102916452D01*
X157476000Y-102904709D01*
X157476000Y-103934480D01*
X157546809Y-103923266D01*
X157751901Y-103856627D01*
X157944036Y-103758728D01*
X158118496Y-103631974D01*
X158118497Y-103631974D01*
X158270974Y-103479497D01*
X158270974Y-103479496D01*
X158397728Y-103305036D01*
X158495627Y-103112901D01*
X158562265Y-102907809D01*
X158596000Y-102694820D01*
X158596000Y-102612000D01*
X157768709Y-102612000D01*
X157780452Y-102591661D01*
X157821000Y-102440333D01*
X157821000Y-102283667D01*
X157780452Y-102132339D01*
X157768709Y-102112000D01*
X158596000Y-102112000D01*
X158596000Y-102029179D01*
X158562265Y-101816190D01*
X158495627Y-101611098D01*
X158397728Y-101418963D01*
X158270974Y-101244503D01*
X158270974Y-101244502D01*
X158118497Y-101092025D01*
X157944036Y-100965271D01*
X157751901Y-100867372D01*
X157546809Y-100800734D01*
X157398437Y-100777234D01*
X157335302Y-100747305D01*
X157298371Y-100687993D01*
X157299369Y-100618131D01*
X157330152Y-100567081D01*
X157946416Y-99950819D01*
X158007739Y-99917334D01*
X158034097Y-99914500D01*
X159850588Y-99914500D01*
X159917627Y-99934185D01*
X159927903Y-99941555D01*
X159930736Y-99943814D01*
X159930738Y-99943816D01*
X160083478Y-100039789D01*
X160253745Y-100099368D01*
X160253750Y-100099369D01*
X160432996Y-100119565D01*
X160433000Y-100119565D01*
X160433004Y-100119565D01*
X160612249Y-100099369D01*
X160612252Y-100099368D01*
X160612255Y-100099368D01*
X160782522Y-100039789D01*
X160935262Y-99943816D01*
X161062816Y-99816262D01*
X161158789Y-99663522D01*
X161218368Y-99493255D01*
X161218369Y-99493249D01*
X161238565Y-99314003D01*
X161238565Y-99313996D01*
X161218369Y-99134750D01*
X161218368Y-99134745D01*
X161218087Y-99133943D01*
X161158789Y-98964478D01*
X161157581Y-98962556D01*
X161113144Y-98891834D01*
X161062816Y-98811738D01*
X160935262Y-98684184D01*
X160849648Y-98630389D01*
X160782523Y-98588211D01*
X160612254Y-98528631D01*
X160612249Y-98528630D01*
X160433004Y-98508435D01*
X160432996Y-98508435D01*
X160253750Y-98528630D01*
X160253745Y-98528631D01*
X160083476Y-98588211D01*
X159930736Y-98684185D01*
X159927903Y-98686445D01*
X159925724Y-98687334D01*
X159924842Y-98687889D01*
X159924744Y-98687734D01*
X159863217Y-98712855D01*
X159850588Y-98713500D01*
X157820669Y-98713500D01*
X157820653Y-98713499D01*
X157813057Y-98713499D01*
X157654943Y-98713499D01*
X157547587Y-98742265D01*
X157502210Y-98754424D01*
X157502209Y-98754425D01*
X157467066Y-98774716D01*
X157467064Y-98774717D01*
X157365290Y-98833475D01*
X157365282Y-98833481D01*
X157253478Y-98945286D01*
X155466861Y-100731902D01*
X155405538Y-100765387D01*
X155366582Y-100767579D01*
X155356028Y-100766501D01*
X155356012Y-100766500D01*
X155356009Y-100766500D01*
X155356003Y-100766500D01*
X154015998Y-100766500D01*
X154015981Y-100766501D01*
X153913203Y-100777000D01*
X153913200Y-100777001D01*
X153746668Y-100832185D01*
X153746663Y-100832187D01*
X153597342Y-100924289D01*
X153473289Y-101048342D01*
X153381187Y-101197663D01*
X153381186Y-101197666D01*
X153326001Y-101364203D01*
X153326001Y-101364204D01*
X153326000Y-101364204D01*
X153315500Y-101466983D01*
X150715250Y-101466983D01*
X152390506Y-99791727D01*
X152390511Y-99791724D01*
X152400714Y-99781520D01*
X152400716Y-99781520D01*
X152512520Y-99669716D01*
X152584072Y-99545784D01*
X152591577Y-99532785D01*
X152632500Y-99380057D01*
X152632500Y-99221943D01*
X152632500Y-95911412D01*
X152652185Y-95844373D01*
X152659555Y-95834097D01*
X152661810Y-95831267D01*
X152661816Y-95831262D01*
X152757789Y-95678522D01*
X152817368Y-95508255D01*
X152821771Y-95469181D01*
X152837565Y-95329003D01*
X152837565Y-95328996D01*
X161386435Y-95328996D01*
X161386435Y-95329003D01*
X161406630Y-95508249D01*
X161406631Y-95508254D01*
X161466211Y-95678523D01*
X161500256Y-95732704D01*
X161557622Y-95824002D01*
X161562185Y-95831263D01*
X161564445Y-95834097D01*
X161565334Y-95836275D01*
X161565889Y-95837158D01*
X161565734Y-95837255D01*
X161590855Y-95898783D01*
X161591500Y-95911412D01*
X161591500Y-101526330D01*
X161591499Y-101526348D01*
X161591499Y-101692054D01*
X161591498Y-101692054D01*
X161631337Y-101840735D01*
X161632423Y-101844785D01*
X161655805Y-101885283D01*
X161708073Y-101975815D01*
X161711479Y-101981714D01*
X161711481Y-101981717D01*
X161830349Y-102100585D01*
X161830355Y-102100590D01*
X163507298Y-103777533D01*
X163540783Y-103838856D01*
X163542837Y-103851330D01*
X163552630Y-103938249D01*
X163612210Y-104108521D01*
X163646942Y-104163796D01*
X163708184Y-104261262D01*
X163835738Y-104388816D01*
X163863381Y-104406185D01*
X163947417Y-104458989D01*
X163988478Y-104484789D01*
X164061956Y-104510500D01*
X164158745Y-104544368D01*
X164158750Y-104544369D01*
X164337996Y-104564565D01*
X164338000Y-104564565D01*
X164338004Y-104564565D01*
X164517249Y-104544369D01*
X164517252Y-104544368D01*
X164517255Y-104544368D01*
X164687522Y-104484789D01*
X164840262Y-104388816D01*
X164967816Y-104261262D01*
X165063789Y-104108522D01*
X165123368Y-103938255D01*
X165123369Y-103938249D01*
X165143565Y-103759003D01*
X165143565Y-103758996D01*
X165123369Y-103579750D01*
X165123368Y-103579745D01*
X165063789Y-103409478D01*
X164967816Y-103256738D01*
X164840262Y-103129184D01*
X164768352Y-103084000D01*
X164687521Y-103033210D01*
X164517249Y-102973630D01*
X164430330Y-102963837D01*
X164365916Y-102936770D01*
X164356533Y-102928298D01*
X162828819Y-101400584D01*
X162795334Y-101339261D01*
X162792500Y-101312903D01*
X162792500Y-95911412D01*
X162812185Y-95844373D01*
X162819555Y-95834097D01*
X162821810Y-95831267D01*
X162821816Y-95831262D01*
X162917789Y-95678522D01*
X162977368Y-95508255D01*
X162981771Y-95469181D01*
X162997565Y-95329003D01*
X162997565Y-95328996D01*
X162977369Y-95149750D01*
X162977368Y-95149745D01*
X162947609Y-95064700D01*
X162917789Y-94979478D01*
X162821816Y-94826738D01*
X162694262Y-94699184D01*
X162569862Y-94621018D01*
X162541523Y-94603211D01*
X162371254Y-94543631D01*
X162371249Y-94543630D01*
X162192004Y-94523435D01*
X162191996Y-94523435D01*
X162012750Y-94543630D01*
X162012745Y-94543631D01*
X161842476Y-94603211D01*
X161689737Y-94699184D01*
X161562184Y-94826737D01*
X161466211Y-94979476D01*
X161406631Y-95149745D01*
X161406630Y-95149750D01*
X161386435Y-95328996D01*
X152837565Y-95328996D01*
X152817369Y-95149750D01*
X152817368Y-95149745D01*
X152787609Y-95064700D01*
X152757789Y-94979478D01*
X152661816Y-94826738D01*
X152534262Y-94699184D01*
X152409862Y-94621018D01*
X152381523Y-94603211D01*
X152211254Y-94543631D01*
X152211249Y-94543630D01*
X152032004Y-94523435D01*
X152031996Y-94523435D01*
X151852750Y-94543630D01*
X151852745Y-94543631D01*
X151682476Y-94603211D01*
X151529737Y-94699184D01*
X151402184Y-94826737D01*
X151306211Y-94979476D01*
X151246631Y-95149745D01*
X151246630Y-95149750D01*
X151226435Y-95328996D01*
X151226435Y-95329003D01*
X151246630Y-95508249D01*
X151246631Y-95508254D01*
X151306211Y-95678523D01*
X151340256Y-95732704D01*
X151397622Y-95824002D01*
X151402185Y-95831263D01*
X151404445Y-95834097D01*
X151405334Y-95836275D01*
X151405889Y-95837158D01*
X151405734Y-95837255D01*
X151430855Y-95898783D01*
X151431500Y-95911412D01*
X151431500Y-99000903D01*
X151411815Y-99067942D01*
X151395181Y-99088584D01*
X148139681Y-102344084D01*
X148078358Y-102377569D01*
X148008666Y-102372585D01*
X147952733Y-102330713D01*
X147928316Y-102265249D01*
X147928000Y-102256403D01*
X147928000Y-102156179D01*
X147894265Y-101943190D01*
X147827627Y-101738098D01*
X147729728Y-101545963D01*
X147602974Y-101371503D01*
X147602974Y-101371502D01*
X147450497Y-101219025D01*
X147276036Y-101092271D01*
X147083899Y-100994372D01*
X146878805Y-100927733D01*
X146808000Y-100916518D01*
X146808000Y-101946290D01*
X146787661Y-101934548D01*
X146636333Y-101894000D01*
X146479667Y-101894000D01*
X146328339Y-101934548D01*
X146308000Y-101946290D01*
X146308000Y-100916518D01*
X146307999Y-100916518D01*
X146237194Y-100927733D01*
X146032100Y-100994372D01*
X145839963Y-101092271D01*
X145665506Y-101219022D01*
X145523420Y-101361108D01*
X145462097Y-101394592D01*
X145392405Y-101389608D01*
X145336472Y-101347736D01*
X145323356Y-101325828D01*
X145322816Y-101324670D01*
X145322814Y-101324666D01*
X145230712Y-101175344D01*
X145106656Y-101051288D01*
X145013888Y-100994069D01*
X144957336Y-100959187D01*
X144957331Y-100959185D01*
X144955862Y-100958698D01*
X144790797Y-100904001D01*
X144790795Y-100904000D01*
X144688016Y-100893500D01*
X144688009Y-100893500D01*
X143472500Y-100893500D01*
X143405461Y-100873815D01*
X143359706Y-100821011D01*
X143348500Y-100769500D01*
X143348500Y-99513096D01*
X143368185Y-99446057D01*
X143384814Y-99425420D01*
X147745535Y-95064698D01*
X147806856Y-95031215D01*
X147819311Y-95029163D01*
X147906255Y-95019368D01*
X148076522Y-94959789D01*
X148229262Y-94863816D01*
X148356816Y-94736262D01*
X148452789Y-94583522D01*
X148512368Y-94413255D01*
X148512369Y-94413249D01*
X148532565Y-94234003D01*
X148532565Y-94233996D01*
X148512369Y-94054750D01*
X148512368Y-94054745D01*
X148477697Y-93955661D01*
X148452789Y-93884478D01*
X148356816Y-93731738D01*
X148229262Y-93604184D01*
X148076523Y-93508211D01*
X147906254Y-93448631D01*
X147906249Y-93448630D01*
X147727004Y-93428435D01*
X147726996Y-93428435D01*
X147547750Y-93448630D01*
X147547745Y-93448631D01*
X147377476Y-93508211D01*
X147224737Y-93604184D01*
X147097184Y-93731737D01*
X147001210Y-93884478D01*
X146941630Y-94054750D01*
X146931837Y-94141668D01*
X146904770Y-94206082D01*
X146896298Y-94215465D01*
X142379286Y-98732478D01*
X142267482Y-98844281D01*
X142267480Y-98844283D01*
X142266079Y-98846710D01*
X142247166Y-98879470D01*
X142188423Y-98981215D01*
X142147499Y-99133943D01*
X142147499Y-99133945D01*
X142147499Y-99302046D01*
X142147500Y-99302059D01*
X142147500Y-101640432D01*
X142127815Y-101707471D01*
X142111181Y-101728113D01*
X141239085Y-102600208D01*
X141177762Y-102633693D01*
X141108070Y-102628709D01*
X141085432Y-102617521D01*
X141076645Y-102612000D01*
X141005559Y-102567333D01*
X140938523Y-102525211D01*
X140768254Y-102465631D01*
X140768249Y-102465630D01*
X140589004Y-102445435D01*
X140588996Y-102445435D01*
X140409750Y-102465630D01*
X140409745Y-102465631D01*
X140239476Y-102525211D01*
X140086737Y-102621184D01*
X139959184Y-102748737D01*
X139863210Y-102901478D01*
X139803630Y-103071750D01*
X139793837Y-103158667D01*
X139766770Y-103223081D01*
X139758298Y-103232464D01*
X138125584Y-104865181D01*
X138064261Y-104898666D01*
X138037903Y-104901500D01*
X134970887Y-104901500D01*
X134903848Y-104881815D01*
X134858093Y-104829011D01*
X134848149Y-104759853D01*
X134877174Y-104696297D01*
X134883206Y-104689819D01*
X136695526Y-102877499D01*
X145860639Y-93712383D01*
X145886130Y-93694301D01*
X145885624Y-93693495D01*
X145891522Y-93689789D01*
X146044262Y-93593816D01*
X146171816Y-93466262D01*
X146267789Y-93313522D01*
X146327368Y-93143255D01*
X146328749Y-93131000D01*
X146347565Y-92964003D01*
X146347565Y-92963996D01*
X146327369Y-92784750D01*
X146327368Y-92784745D01*
X146282305Y-92655963D01*
X146267789Y-92614478D01*
X146259448Y-92601204D01*
X146184235Y-92481503D01*
X146171816Y-92461738D01*
X146044262Y-92334184D01*
X145966534Y-92285344D01*
X145891523Y-92238211D01*
X145721254Y-92178631D01*
X145721249Y-92178630D01*
X145542004Y-92158435D01*
X145541996Y-92158435D01*
X145362750Y-92178630D01*
X145362745Y-92178631D01*
X145192476Y-92238211D01*
X145039737Y-92334184D01*
X144912184Y-92461737D01*
X144812507Y-92620373D01*
X144811705Y-92619869D01*
X144793615Y-92645359D01*
X133327794Y-104111181D01*
X133266471Y-104144666D01*
X133240113Y-104147500D01*
X132749540Y-104147500D01*
X132708585Y-104140541D01*
X132640255Y-104116631D01*
X132571616Y-104108897D01*
X132507202Y-104081830D01*
X132467647Y-104024235D01*
X132461500Y-103985677D01*
X132461500Y-99085294D01*
X132481185Y-99018255D01*
X132533989Y-98972500D01*
X132603147Y-98962556D01*
X132624487Y-98967583D01*
X132704203Y-98993999D01*
X132806991Y-99004500D01*
X134147008Y-99004499D01*
X134249797Y-98993999D01*
X134416334Y-98938814D01*
X134565656Y-98846712D01*
X134689712Y-98722656D01*
X134781814Y-98573334D01*
X134781817Y-98573323D01*
X134782353Y-98572177D01*
X134782934Y-98571516D01*
X134785605Y-98567187D01*
X134786344Y-98567643D01*
X134828521Y-98519734D01*
X134895713Y-98500577D01*
X134962596Y-98520788D01*
X134982420Y-98536892D01*
X135124502Y-98678974D01*
X135298963Y-98805728D01*
X135491098Y-98903627D01*
X135696190Y-98970266D01*
X135767000Y-98981481D01*
X135767000Y-97951709D01*
X135787339Y-97963452D01*
X135938667Y-98004000D01*
X136095333Y-98004000D01*
X136246661Y-97963452D01*
X136267000Y-97951709D01*
X136267000Y-98981480D01*
X136337809Y-98970266D01*
X136542901Y-98903627D01*
X136735036Y-98805728D01*
X136909496Y-98678974D01*
X136909497Y-98678974D01*
X137061974Y-98526497D01*
X137061974Y-98526496D01*
X137188728Y-98352036D01*
X137286627Y-98159901D01*
X137353265Y-97954809D01*
X137387000Y-97741820D01*
X137387000Y-97659000D01*
X136559709Y-97659000D01*
X136571452Y-97638661D01*
X136612000Y-97487333D01*
X136612000Y-97330667D01*
X136571452Y-97179339D01*
X136559709Y-97159000D01*
X137387000Y-97159000D01*
X137387000Y-97076179D01*
X137353265Y-96863190D01*
X137286627Y-96658098D01*
X137188728Y-96465963D01*
X137061974Y-96291503D01*
X137061974Y-96291502D01*
X136909497Y-96139025D01*
X136735036Y-96012271D01*
X136542899Y-95914372D01*
X136337805Y-95847733D01*
X136267000Y-95836518D01*
X136267000Y-96866290D01*
X136246661Y-96854548D01*
X136095333Y-96814000D01*
X135938667Y-96814000D01*
X135787339Y-96854548D01*
X135767000Y-96866290D01*
X135767000Y-95836518D01*
X135766999Y-95836518D01*
X135696194Y-95847733D01*
X135491100Y-95914372D01*
X135298963Y-96012271D01*
X135124506Y-96139022D01*
X134982420Y-96281108D01*
X134921097Y-96314592D01*
X134851405Y-96309608D01*
X134795472Y-96267736D01*
X134782356Y-96245828D01*
X134781816Y-96244670D01*
X134716654Y-96139025D01*
X134689712Y-96095344D01*
X134565656Y-95971288D01*
X134416334Y-95879186D01*
X134249797Y-95824001D01*
X134249795Y-95824000D01*
X134147010Y-95813500D01*
X132806998Y-95813500D01*
X132806981Y-95813501D01*
X132704203Y-95824000D01*
X132704197Y-95824002D01*
X132624503Y-95850410D01*
X132554675Y-95852812D01*
X132494633Y-95817080D01*
X132463441Y-95754559D01*
X132461500Y-95732704D01*
X132461500Y-90845565D01*
X132481185Y-90778526D01*
X132533989Y-90732771D01*
X132581100Y-90722521D01*
X132581081Y-90722345D01*
X132582810Y-90722150D01*
X132585500Y-90721565D01*
X132588004Y-90721565D01*
X132767249Y-90701369D01*
X132767252Y-90701368D01*
X132767255Y-90701368D01*
X132937522Y-90641789D01*
X133090262Y-90545816D01*
X133217816Y-90418262D01*
X133313789Y-90265522D01*
X133373368Y-90095255D01*
X133378313Y-90051361D01*
X133405378Y-89986951D01*
X133413842Y-89977575D01*
X136113600Y-87277819D01*
X136174923Y-87244334D01*
X136201281Y-87241500D01*
X137155940Y-87241500D01*
X137222979Y-87261185D01*
X137268734Y-87313989D01*
X137278678Y-87383147D01*
X137260934Y-87431472D01*
X137196211Y-87534476D01*
X137136631Y-87704745D01*
X137136630Y-87704750D01*
X137116435Y-87883996D01*
X137116435Y-87884003D01*
X137136630Y-88063249D01*
X137136631Y-88063254D01*
X137196211Y-88233523D01*
X137206858Y-88250467D01*
X137292184Y-88386262D01*
X137419738Y-88513816D01*
X137446300Y-88530506D01*
X137531417Y-88583989D01*
X137572478Y-88609789D01*
X137696388Y-88653147D01*
X137742745Y-88669368D01*
X137742750Y-88669369D01*
X137921996Y-88689565D01*
X137922000Y-88689565D01*
X137922004Y-88689565D01*
X138101249Y-88669369D01*
X138101252Y-88669368D01*
X138101255Y-88669368D01*
X138271522Y-88609789D01*
X138397700Y-88530505D01*
X138463672Y-88511500D01*
X146960940Y-88511500D01*
X147027979Y-88531185D01*
X147073734Y-88583989D01*
X147083678Y-88653147D01*
X147065934Y-88701472D01*
X147001211Y-88804476D01*
X146941631Y-88974745D01*
X146941630Y-88974750D01*
X146921435Y-89153996D01*
X146921435Y-89154003D01*
X146941630Y-89333249D01*
X146941631Y-89333254D01*
X147001211Y-89503523D01*
X147038386Y-89562686D01*
X147097184Y-89656262D01*
X147224738Y-89783816D01*
X147315069Y-89840575D01*
X147367513Y-89873528D01*
X147377478Y-89879789D01*
X147547742Y-89939367D01*
X147547745Y-89939368D01*
X147547750Y-89939369D01*
X147726996Y-89959565D01*
X147727000Y-89959565D01*
X147727004Y-89959565D01*
X147906249Y-89939369D01*
X147906252Y-89939368D01*
X147906255Y-89939368D01*
X148076522Y-89879789D01*
X148229262Y-89783816D01*
X148356816Y-89656262D01*
X148452789Y-89503522D01*
X148512368Y-89333255D01*
X148522161Y-89246329D01*
X148549226Y-89181918D01*
X148557690Y-89172543D01*
X153069506Y-84660728D01*
X153069511Y-84660724D01*
X153079714Y-84650520D01*
X153079716Y-84650520D01*
X153191520Y-84538716D01*
X153270577Y-84401784D01*
X153311500Y-84249057D01*
X153311500Y-74804923D01*
X153331185Y-74737884D01*
X153383989Y-74692129D01*
X153453147Y-74682185D01*
X153516703Y-74711210D01*
G37*
%TD.AperFunction*%
%TA.AperFunction,Conductor*%
G36*
X163022904Y-63361304D02*
G01*
X163044809Y-63386583D01*
X163102016Y-63474147D01*
X163102019Y-63474151D01*
X163102021Y-63474153D01*
X163259216Y-63644913D01*
X163259219Y-63644915D01*
X163259222Y-63644918D01*
X163442365Y-63787464D01*
X163442371Y-63787468D01*
X163442374Y-63787470D01*
X163646497Y-63897936D01*
X163713363Y-63920891D01*
X163866015Y-63973297D01*
X163866017Y-63973297D01*
X163866019Y-63973298D01*
X164094951Y-64011500D01*
X164094952Y-64011500D01*
X164327048Y-64011500D01*
X164327049Y-64011500D01*
X164555981Y-63973298D01*
X164710766Y-63920159D01*
X164780564Y-63917010D01*
X164840986Y-63952096D01*
X164872846Y-64014278D01*
X164875029Y-64037441D01*
X164875029Y-77037330D01*
X164875028Y-77037348D01*
X164875028Y-77203054D01*
X164875027Y-77203054D01*
X164875028Y-77203057D01*
X164915952Y-77355785D01*
X164915953Y-77355787D01*
X164915952Y-77355787D01*
X164921448Y-77365305D01*
X164921449Y-77365306D01*
X164995006Y-77492712D01*
X164995010Y-77492717D01*
X165113878Y-77611585D01*
X165113884Y-77611590D01*
X165499034Y-77996740D01*
X165532519Y-78058063D01*
X165527535Y-78127755D01*
X165485663Y-78183688D01*
X165420199Y-78208105D01*
X165397469Y-78207641D01*
X165319331Y-78198837D01*
X165254917Y-78171771D01*
X165245534Y-78163298D01*
X161037819Y-73955583D01*
X161004334Y-73894260D01*
X161001500Y-73867902D01*
X161001500Y-64035563D01*
X161021185Y-63968524D01*
X161073989Y-63922769D01*
X161143147Y-63912825D01*
X161165763Y-63918282D01*
X161326015Y-63973297D01*
X161326017Y-63973297D01*
X161326019Y-63973298D01*
X161554951Y-64011500D01*
X161554952Y-64011500D01*
X161787048Y-64011500D01*
X161787049Y-64011500D01*
X162015981Y-63973298D01*
X162235503Y-63897936D01*
X162439626Y-63787470D01*
X162622784Y-63644913D01*
X162779979Y-63474153D01*
X162837191Y-63386582D01*
X162890337Y-63341226D01*
X162959568Y-63331802D01*
X163022904Y-63361304D01*
G37*
%TD.AperFunction*%
%TA.AperFunction,Conductor*%
G36*
X158111000Y-58908640D02*
G01*
X158205860Y-58892811D01*
X158425290Y-58817481D01*
X158426676Y-58816873D01*
X158427292Y-58816793D01*
X158430152Y-58815812D01*
X158430353Y-58816400D01*
X158495975Y-58807962D01*
X158559091Y-58837931D01*
X158595985Y-58897266D01*
X158600500Y-58930423D01*
X158600500Y-59700902D01*
X158580815Y-59767941D01*
X158564181Y-59788583D01*
X157115840Y-61236923D01*
X157054517Y-61270408D01*
X156987898Y-61266524D01*
X156935981Y-61248702D01*
X156865393Y-61236923D01*
X156707049Y-61210500D01*
X156600096Y-61210500D01*
X156533057Y-61190815D01*
X156487302Y-61138011D01*
X156477358Y-61068853D01*
X156506383Y-61005297D01*
X156512415Y-60998819D01*
X156757291Y-60753943D01*
X157019506Y-60491728D01*
X157019511Y-60491724D01*
X157029714Y-60481520D01*
X157029716Y-60481520D01*
X157141520Y-60369716D01*
X157220577Y-60232784D01*
X157261500Y-60080057D01*
X157261500Y-58979066D01*
X157281185Y-58912027D01*
X157333989Y-58866272D01*
X157403147Y-58856328D01*
X157425763Y-58861785D01*
X157516139Y-58892811D01*
X157610999Y-58908640D01*
X157611000Y-58908639D01*
X157611000Y-57964012D01*
X157668007Y-57996925D01*
X157795174Y-58031000D01*
X157926826Y-58031000D01*
X158053993Y-57996925D01*
X158111000Y-57964012D01*
X158111000Y-58908640D01*
G37*
%TD.AperFunction*%
%TA.AperFunction,Conductor*%
G36*
X199459869Y-50320185D02*
G01*
X199505624Y-50372989D01*
X199516830Y-50424658D01*
X199416317Y-129126734D01*
X199393618Y-146900500D01*
X199390201Y-149575658D01*
X199370431Y-149642673D01*
X199317568Y-149688360D01*
X199266201Y-149699500D01*
X100455089Y-149699500D01*
X100388050Y-149679815D01*
X100342295Y-149627011D01*
X100331090Y-149575026D01*
X100349073Y-144875441D01*
X103099500Y-144875441D01*
X103099500Y-145124558D01*
X103099501Y-145124575D01*
X103132017Y-145371561D01*
X103196498Y-145612207D01*
X103291830Y-145842361D01*
X103291837Y-145842376D01*
X103416400Y-146058126D01*
X103568060Y-146255774D01*
X103568066Y-146255781D01*
X103744218Y-146431933D01*
X103744225Y-146431939D01*
X103941873Y-146583599D01*
X104157623Y-146708162D01*
X104157638Y-146708169D01*
X104256825Y-146749253D01*
X104387793Y-146803502D01*
X104628435Y-146867982D01*
X104875435Y-146900500D01*
X104875442Y-146900500D01*
X105124558Y-146900500D01*
X105124565Y-146900500D01*
X105371565Y-146867982D01*
X105612207Y-146803502D01*
X105842373Y-146708164D01*
X106058127Y-146583599D01*
X106255776Y-146431938D01*
X106431938Y-146255776D01*
X106583599Y-146058127D01*
X106708164Y-145842373D01*
X106803502Y-145612207D01*
X106867982Y-145371565D01*
X106900500Y-145124565D01*
X106900500Y-144875435D01*
X106867982Y-144628435D01*
X106803502Y-144387793D01*
X106728001Y-144205517D01*
X106708169Y-144157638D01*
X106708162Y-144157623D01*
X106583599Y-143941873D01*
X106431939Y-143744225D01*
X106431933Y-143744218D01*
X106318698Y-143630983D01*
X127026500Y-143630983D01*
X127026500Y-145421001D01*
X127026501Y-145421018D01*
X127037000Y-145523796D01*
X127037001Y-145523799D01*
X127076665Y-145643496D01*
X127092186Y-145690334D01*
X127184288Y-145839656D01*
X127308344Y-145963712D01*
X127457666Y-146055814D01*
X127624203Y-146110999D01*
X127726991Y-146121500D01*
X128874112Y-146121499D01*
X128941151Y-146141184D01*
X128961793Y-146157818D01*
X130092599Y-147288623D01*
X130092620Y-147288646D01*
X130202028Y-147398054D01*
X130202031Y-147398056D01*
X130202033Y-147398058D01*
X130284604Y-147453229D01*
X130325610Y-147480629D01*
X130325611Y-147480629D01*
X130325611Y-147480630D01*
X130346563Y-147489308D01*
X130373654Y-147500529D01*
X130373655Y-147500530D01*
X130373656Y-147500530D01*
X130462919Y-147537504D01*
X130462921Y-147537504D01*
X130462923Y-147537505D01*
X130487103Y-147542314D01*
X130487109Y-147542315D01*
X130608685Y-147566500D01*
X130608687Y-147566500D01*
X130763425Y-147566500D01*
X130763445Y-147566499D01*
X141905555Y-147566499D01*
X141905575Y-147566500D01*
X141911689Y-147566500D01*
X142060315Y-147566500D01*
X142181895Y-147542314D01*
X142181895Y-147542315D01*
X142181901Y-147542312D01*
X142206081Y-147537504D01*
X142295344Y-147500530D01*
X142343390Y-147480629D01*
X142466967Y-147398058D01*
X142537041Y-147327982D01*
X142598363Y-147294497D01*
X142645128Y-147293354D01*
X142759863Y-147312500D01*
X142759864Y-147312500D01*
X142990136Y-147312500D01*
X142990137Y-147312500D01*
X143217271Y-147274598D01*
X143218693Y-147274110D01*
X143302747Y-147245254D01*
X143435069Y-147199828D01*
X143637589Y-147090229D01*
X143819308Y-146948792D01*
X143975269Y-146779373D01*
X144041490Y-146678013D01*
X144094636Y-146632657D01*
X144163868Y-146623233D01*
X144227203Y-146652735D01*
X144249108Y-146678014D01*
X144271760Y-146712685D01*
X144825438Y-146159006D01*
X144852271Y-146223785D01*
X144921764Y-146327789D01*
X145010211Y-146416236D01*
X145114215Y-146485729D01*
X145178991Y-146512560D01*
X144624040Y-147067512D01*
X144624040Y-147067514D01*
X144652677Y-147089803D01*
X144652683Y-147089807D01*
X144855131Y-147199367D01*
X144855140Y-147199370D01*
X145072849Y-147274110D01*
X145299905Y-147312000D01*
X145530095Y-147312000D01*
X145757150Y-147274110D01*
X145974859Y-147199370D01*
X145974868Y-147199367D01*
X146177315Y-147089807D01*
X146177316Y-147089806D01*
X146205958Y-147067513D01*
X146205959Y-147067511D01*
X145651008Y-146512560D01*
X145715785Y-146485729D01*
X145819789Y-146416236D01*
X145908236Y-146327789D01*
X145977729Y-146223785D01*
X146004560Y-146159008D01*
X146558238Y-146712686D01*
X146580891Y-146678013D01*
X146634037Y-146632656D01*
X146703269Y-146623232D01*
X146766605Y-146652734D01*
X146788509Y-146678013D01*
X146854728Y-146779370D01*
X146895102Y-146823227D01*
X147010692Y-146948792D01*
X147124139Y-147037091D01*
X147191868Y-147089807D01*
X147192411Y-147090229D01*
X147394931Y-147199828D01*
X147508025Y-147238653D01*
X147612725Y-147274597D01*
X147612727Y-147274597D01*
X147612729Y-147274598D01*
X147839863Y-147312500D01*
X147839864Y-147312500D01*
X148070136Y-147312500D01*
X148070137Y-147312500D01*
X148297271Y-147274598D01*
X148298693Y-147274110D01*
X148382747Y-147245254D01*
X148515069Y-147199828D01*
X148717589Y-147090229D01*
X148899308Y-146948792D01*
X149055269Y-146779373D01*
X149074467Y-146749989D01*
X149085124Y-146733678D01*
X149138270Y-146688322D01*
X149188932Y-146677500D01*
X160657088Y-146677500D01*
X160724127Y-146697185D01*
X160769882Y-146749989D01*
X160779826Y-146819147D01*
X160774129Y-146842455D01*
X160758633Y-146886737D01*
X160758630Y-146886750D01*
X160738435Y-147065996D01*
X160738435Y-147066003D01*
X160758630Y-147245249D01*
X160758631Y-147245254D01*
X160818211Y-147415523D01*
X160859120Y-147480629D01*
X160914184Y-147568262D01*
X161041738Y-147695816D01*
X161194478Y-147791789D01*
X161364745Y-147851368D01*
X161364750Y-147851369D01*
X161543996Y-147871565D01*
X161544000Y-147871565D01*
X161544004Y-147871565D01*
X161723249Y-147851369D01*
X161723252Y-147851368D01*
X161723255Y-147851368D01*
X161893522Y-147791789D01*
X162019700Y-147712505D01*
X162085672Y-147693500D01*
X170114804Y-147693500D01*
X170114805Y-147693499D01*
X170236035Y-147669386D01*
X170316784Y-147635937D01*
X170350233Y-147622083D01*
X170453008Y-147553411D01*
X170540411Y-147466008D01*
X171176260Y-146830157D01*
X171237581Y-146796674D01*
X171304202Y-146800559D01*
X171312772Y-146803501D01*
X171349216Y-146816012D01*
X171584653Y-146855300D01*
X171584654Y-146855300D01*
X171823346Y-146855300D01*
X171823347Y-146855300D01*
X172058784Y-146816012D01*
X172284545Y-146738509D01*
X172494469Y-146624903D01*
X172682832Y-146478295D01*
X172844494Y-146302682D01*
X172975047Y-146102856D01*
X172975046Y-146102856D01*
X172977776Y-146098679D01*
X173030923Y-146053322D01*
X173081585Y-146042500D01*
X176083804Y-146042500D01*
X176083805Y-146042499D01*
X176205035Y-146018386D01*
X176285784Y-145984937D01*
X176319233Y-145971083D01*
X176422008Y-145902411D01*
X176509411Y-145815008D01*
X177448978Y-144875441D01*
X193099500Y-144875441D01*
X193099500Y-145124558D01*
X193099501Y-145124575D01*
X193132017Y-145371561D01*
X193196498Y-145612207D01*
X193291830Y-145842361D01*
X193291837Y-145842376D01*
X193416400Y-146058126D01*
X193568060Y-146255774D01*
X193568066Y-146255781D01*
X193744218Y-146431933D01*
X193744225Y-146431939D01*
X193941873Y-146583599D01*
X194157623Y-146708162D01*
X194157638Y-146708169D01*
X194256825Y-146749253D01*
X194387793Y-146803502D01*
X194628435Y-146867982D01*
X194875435Y-146900500D01*
X194875442Y-146900500D01*
X195124558Y-146900500D01*
X195124565Y-146900500D01*
X195371565Y-146867982D01*
X195612207Y-146803502D01*
X195842373Y-146708164D01*
X196058127Y-146583599D01*
X196255776Y-146431938D01*
X196431938Y-146255776D01*
X196583599Y-146058127D01*
X196708164Y-145842373D01*
X196803502Y-145612207D01*
X196867982Y-145371565D01*
X196900500Y-145124565D01*
X196900500Y-144875435D01*
X196867982Y-144628435D01*
X196803502Y-144387793D01*
X196728001Y-144205517D01*
X196708169Y-144157638D01*
X196708162Y-144157623D01*
X196583599Y-143941873D01*
X196431939Y-143744225D01*
X196431933Y-143744218D01*
X196255781Y-143568066D01*
X196255774Y-143568060D01*
X196058126Y-143416400D01*
X195842376Y-143291837D01*
X195842361Y-143291830D01*
X195612207Y-143196498D01*
X195371561Y-143132017D01*
X195124575Y-143099501D01*
X195124570Y-143099500D01*
X195124565Y-143099500D01*
X194875435Y-143099500D01*
X194875429Y-143099500D01*
X194875424Y-143099501D01*
X194628438Y-143132017D01*
X194387792Y-143196498D01*
X194157638Y-143291830D01*
X194157623Y-143291837D01*
X193941873Y-143416400D01*
X193744225Y-143568060D01*
X193744218Y-143568066D01*
X193568066Y-143744218D01*
X193568060Y-143744225D01*
X193416400Y-143941873D01*
X193291837Y-144157623D01*
X193291830Y-144157638D01*
X193196498Y-144387792D01*
X193132017Y-144628438D01*
X193099501Y-144875424D01*
X193099500Y-144875441D01*
X177448978Y-144875441D01*
X195686410Y-126638009D01*
X195726315Y-126578288D01*
X195755083Y-126535233D01*
X195802385Y-126421035D01*
X195826500Y-126299803D01*
X195826500Y-68518197D01*
X195816614Y-68468500D01*
X195812591Y-68448277D01*
X195802386Y-68396972D01*
X195802385Y-68396965D01*
X195755083Y-68282767D01*
X195699446Y-68199500D01*
X195686411Y-68179992D01*
X195599008Y-68092589D01*
X195091008Y-67584589D01*
X193423419Y-65917000D01*
X191662011Y-64155591D01*
X191662010Y-64155590D01*
X191638954Y-64140185D01*
X191638953Y-64140184D01*
X191559230Y-64086915D01*
X191525785Y-64073062D01*
X191445035Y-64039614D01*
X191445027Y-64039612D01*
X191323807Y-64015500D01*
X191323803Y-64015500D01*
X182405672Y-64015500D01*
X182339700Y-63996494D01*
X182213523Y-63917211D01*
X182043254Y-63857631D01*
X182043249Y-63857630D01*
X181864004Y-63837435D01*
X181863996Y-63837435D01*
X181684750Y-63857630D01*
X181684745Y-63857631D01*
X181514473Y-63917212D01*
X181511468Y-63919101D01*
X181509250Y-63919727D01*
X181508205Y-63920231D01*
X181508116Y-63920047D01*
X181444230Y-63938098D01*
X181377396Y-63917728D01*
X181332184Y-63864459D01*
X181321500Y-63814105D01*
X181321500Y-61223165D01*
X181341185Y-61156126D01*
X181389204Y-61112680D01*
X181439299Y-61087157D01*
X181613821Y-60960359D01*
X181766359Y-60807821D01*
X181893157Y-60633299D01*
X181991092Y-60441089D01*
X182057754Y-60235926D01*
X182081850Y-60083789D01*
X182091500Y-60022866D01*
X182091500Y-59357133D01*
X182057754Y-59144077D01*
X182057754Y-59144074D01*
X181991092Y-58938911D01*
X181893157Y-58746701D01*
X181766359Y-58572179D01*
X181613821Y-58419641D01*
X181439299Y-58292843D01*
X181247089Y-58194908D01*
X181041926Y-58128246D01*
X181041924Y-58128245D01*
X181041922Y-58128245D01*
X180828866Y-58094500D01*
X180828861Y-58094500D01*
X180613139Y-58094500D01*
X180613134Y-58094500D01*
X180400077Y-58128245D01*
X180194908Y-58194909D01*
X180002700Y-58292843D01*
X179903129Y-58365186D01*
X179828179Y-58419641D01*
X179828177Y-58419643D01*
X179828176Y-58419643D01*
X179675643Y-58572176D01*
X179675643Y-58572177D01*
X179675641Y-58572179D01*
X179630282Y-58634610D01*
X179551318Y-58743294D01*
X179495988Y-58785959D01*
X179426374Y-58791938D01*
X179364579Y-58759332D01*
X179350682Y-58743294D01*
X179324650Y-58707464D01*
X179226359Y-58572179D01*
X179073821Y-58419641D01*
X178899299Y-58292843D01*
X178707089Y-58194908D01*
X178501926Y-58128246D01*
X178501924Y-58128245D01*
X178501922Y-58128245D01*
X178288866Y-58094500D01*
X178288861Y-58094500D01*
X178073139Y-58094500D01*
X178073134Y-58094500D01*
X177860077Y-58128245D01*
X177654908Y-58194909D01*
X177462700Y-58292843D01*
X177363129Y-58365186D01*
X177288179Y-58419641D01*
X177288177Y-58419643D01*
X177288176Y-58419643D01*
X177135643Y-58572176D01*
X177135643Y-58572177D01*
X177135641Y-58572179D01*
X177090282Y-58634610D01*
X177011318Y-58743294D01*
X176955988Y-58785959D01*
X176886374Y-58791938D01*
X176824579Y-58759332D01*
X176810682Y-58743294D01*
X176784650Y-58707464D01*
X176686359Y-58572179D01*
X176533821Y-58419641D01*
X176359299Y-58292843D01*
X176167089Y-58194908D01*
X175961926Y-58128246D01*
X175961924Y-58128245D01*
X175961922Y-58128245D01*
X175748866Y-58094500D01*
X175748861Y-58094500D01*
X175533139Y-58094500D01*
X175533134Y-58094500D01*
X175320077Y-58128245D01*
X175114908Y-58194909D01*
X174922700Y-58292843D01*
X174748180Y-58419640D01*
X174606195Y-58561625D01*
X174544872Y-58595109D01*
X174475180Y-58590125D01*
X174419247Y-58548253D01*
X174406132Y-58526348D01*
X174405815Y-58525669D01*
X174405814Y-58525668D01*
X174405814Y-58525666D01*
X174313712Y-58376344D01*
X174189656Y-58252288D01*
X174096628Y-58194908D01*
X174040336Y-58160187D01*
X174040331Y-58160185D01*
X174038862Y-58159698D01*
X173873797Y-58105001D01*
X173873795Y-58105000D01*
X173771010Y-58094500D01*
X172430998Y-58094500D01*
X172430981Y-58094501D01*
X172328203Y-58105000D01*
X172328200Y-58105001D01*
X172161668Y-58160185D01*
X172161663Y-58160187D01*
X172012342Y-58252289D01*
X171888289Y-58376342D01*
X171796187Y-58525663D01*
X171796185Y-58525668D01*
X171788701Y-58548253D01*
X171741001Y-58692203D01*
X171741001Y-58692204D01*
X171741000Y-58692204D01*
X171730500Y-58794983D01*
X171730500Y-60585001D01*
X171730501Y-60585018D01*
X171741000Y-60687796D01*
X171741001Y-60687799D01*
X171778584Y-60801216D01*
X171796186Y-60854334D01*
X171888288Y-61003656D01*
X172012344Y-61127712D01*
X172161666Y-61219814D01*
X172328203Y-61274999D01*
X172389102Y-61281220D01*
X172453793Y-61307615D01*
X172493945Y-61364796D01*
X172500500Y-61404578D01*
X172500500Y-68112330D01*
X172500499Y-68112348D01*
X172500499Y-68278054D01*
X172500498Y-68278054D01*
X172500499Y-68278057D01*
X172541423Y-68430785D01*
X172541424Y-68430787D01*
X172541423Y-68430787D01*
X172546919Y-68440305D01*
X172546920Y-68440306D01*
X172620477Y-68567712D01*
X172620481Y-68567717D01*
X172739349Y-68686585D01*
X172739355Y-68686590D01*
X173540298Y-69487533D01*
X173573783Y-69548856D01*
X173575837Y-69561330D01*
X173585630Y-69648249D01*
X173645210Y-69818521D01*
X173741184Y-69971262D01*
X173741185Y-69971263D01*
X173786241Y-70016320D01*
X173819725Y-70077643D01*
X173814740Y-70147335D01*
X173786241Y-70191680D01*
X173741184Y-70236737D01*
X173645210Y-70389478D01*
X173585632Y-70559745D01*
X173580686Y-70603637D01*
X173553618Y-70668051D01*
X173545147Y-70677432D01*
X172877400Y-71345181D01*
X172816077Y-71378666D01*
X172789719Y-71381500D01*
X171610672Y-71381500D01*
X171544700Y-71362494D01*
X171418523Y-71283211D01*
X171248254Y-71223631D01*
X171248249Y-71223630D01*
X171069004Y-71203435D01*
X171068996Y-71203435D01*
X170889750Y-71223630D01*
X170889745Y-71223631D01*
X170719476Y-71283211D01*
X170566737Y-71379184D01*
X170439184Y-71506737D01*
X170343211Y-71659476D01*
X170283631Y-71829745D01*
X170283630Y-71829750D01*
X170263435Y-72008996D01*
X170263435Y-72009003D01*
X170283630Y-72188249D01*
X170283631Y-72188254D01*
X170343211Y-72358523D01*
X170428723Y-72494614D01*
X170439184Y-72511262D01*
X170566738Y-72638816D01*
X170719478Y-72734789D01*
X170889745Y-72794368D01*
X170889750Y-72794369D01*
X171068996Y-72814565D01*
X171069000Y-72814565D01*
X171069004Y-72814565D01*
X171248249Y-72794369D01*
X171248252Y-72794368D01*
X171248255Y-72794368D01*
X171418522Y-72734789D01*
X171544700Y-72655505D01*
X171610672Y-72636500D01*
X173162804Y-72636500D01*
X173162805Y-72636499D01*
X173284035Y-72612386D01*
X173364784Y-72578937D01*
X173398233Y-72565083D01*
X173501008Y-72496411D01*
X173532825Y-72464594D01*
X173594147Y-72431108D01*
X173663839Y-72436092D01*
X173719773Y-72477962D01*
X173725496Y-72486294D01*
X173741184Y-72511262D01*
X173868738Y-72638816D01*
X174021478Y-72734789D01*
X174191745Y-72794368D01*
X174191750Y-72794369D01*
X174370996Y-72814565D01*
X174371000Y-72814565D01*
X174371004Y-72814565D01*
X174550249Y-72794369D01*
X174550252Y-72794368D01*
X174550255Y-72794368D01*
X174720522Y-72734789D01*
X174873262Y-72638816D01*
X175000816Y-72511262D01*
X175096789Y-72358522D01*
X175156368Y-72188255D01*
X175166161Y-72101329D01*
X175193226Y-72036918D01*
X175201690Y-72027543D01*
X176009713Y-71219521D01*
X176009716Y-71219520D01*
X176121520Y-71107716D01*
X176171639Y-71020904D01*
X176200577Y-70970785D01*
X176241500Y-70818058D01*
X176241500Y-70659943D01*
X176241500Y-61223165D01*
X176261185Y-61156126D01*
X176309204Y-61112680D01*
X176359299Y-61087157D01*
X176533821Y-60960359D01*
X176686359Y-60807821D01*
X176810682Y-60636704D01*
X176866012Y-60594040D01*
X176935626Y-60588061D01*
X176997420Y-60620667D01*
X177011315Y-60636702D01*
X177135641Y-60807821D01*
X177288179Y-60960359D01*
X177462701Y-61087157D01*
X177512794Y-61112680D01*
X177563590Y-61160654D01*
X177580500Y-61223165D01*
X177580500Y-72978902D01*
X177560815Y-73045941D01*
X177544181Y-73066583D01*
X175223908Y-75386855D01*
X175162585Y-75420340D01*
X175092893Y-75415356D01*
X175036960Y-75373484D01*
X175031234Y-75365147D01*
X175000817Y-75316739D01*
X174873262Y-75189184D01*
X174720523Y-75093211D01*
X174550254Y-75033631D01*
X174550249Y-75033630D01*
X174371004Y-75013435D01*
X174370996Y-75013435D01*
X174191750Y-75033630D01*
X174191745Y-75033631D01*
X174021476Y-75093211D01*
X173868737Y-75189184D01*
X173741184Y-75316737D01*
X173645210Y-75469478D01*
X173585630Y-75639750D01*
X173575837Y-75726668D01*
X173548770Y-75791082D01*
X173540299Y-75800465D01*
X173402286Y-75938478D01*
X173290481Y-76050282D01*
X173290477Y-76050287D01*
X173248196Y-76123522D01*
X173211424Y-76187211D01*
X173211423Y-76187212D01*
X173194178Y-76251573D01*
X173170499Y-76339943D01*
X173170499Y-76339945D01*
X173170499Y-76508046D01*
X173170500Y-76508059D01*
X173170500Y-77250859D01*
X173170499Y-77250877D01*
X173170499Y-77416583D01*
X173170498Y-77416583D01*
X173194660Y-77506755D01*
X173211423Y-77569314D01*
X173231750Y-77604521D01*
X173240358Y-77619429D01*
X173240359Y-77619433D01*
X173240360Y-77619433D01*
X173259705Y-77652941D01*
X173290479Y-77706243D01*
X173290481Y-77706246D01*
X173409349Y-77825114D01*
X173409355Y-77825119D01*
X173637610Y-78053374D01*
X173637620Y-78053385D01*
X173641950Y-78057715D01*
X173641951Y-78057716D01*
X173753755Y-78169520D01*
X173753757Y-78169521D01*
X173753758Y-78169522D01*
X173778295Y-78183688D01*
X173820587Y-78208105D01*
X173821497Y-78208630D01*
X173821499Y-78208632D01*
X173821500Y-78208632D01*
X173890686Y-78248577D01*
X174043414Y-78289500D01*
X174201528Y-78289500D01*
X174532860Y-78289500D01*
X174532876Y-78289501D01*
X174540472Y-78289501D01*
X174698583Y-78289501D01*
X174698586Y-78289501D01*
X174851314Y-78248577D01*
X174920500Y-78208632D01*
X174988245Y-78169520D01*
X175100049Y-78057716D01*
X175100049Y-78057714D01*
X175110253Y-78047511D01*
X175110257Y-78047506D01*
X181079506Y-72078257D01*
X181079511Y-72078253D01*
X181089714Y-72068049D01*
X181089716Y-72068049D01*
X181201520Y-71956245D01*
X181204428Y-71951207D01*
X181261591Y-71852199D01*
X181261594Y-71852190D01*
X181261600Y-71852182D01*
X181280577Y-71819314D01*
X181321501Y-71666586D01*
X181321501Y-71508472D01*
X181321501Y-71500877D01*
X181321500Y-71500859D01*
X181321500Y-65471894D01*
X181341185Y-65404855D01*
X181393989Y-65359100D01*
X181463147Y-65349156D01*
X181511477Y-65366903D01*
X181514478Y-65368789D01*
X181649145Y-65415911D01*
X181684745Y-65428368D01*
X181684750Y-65428369D01*
X181863996Y-65448565D01*
X181864000Y-65448565D01*
X181864004Y-65448565D01*
X182043249Y-65428369D01*
X182043252Y-65428368D01*
X182043255Y-65428368D01*
X182213522Y-65368789D01*
X182339700Y-65289505D01*
X182405672Y-65270500D01*
X190950719Y-65270500D01*
X191017758Y-65290185D01*
X191038400Y-65306819D01*
X194535181Y-68803600D01*
X194568666Y-68864923D01*
X194571500Y-68891281D01*
X194571500Y-125926719D01*
X194551815Y-125993758D01*
X194535181Y-126014400D01*
X175798400Y-144751181D01*
X175737077Y-144784666D01*
X175710719Y-144787500D01*
X173081585Y-144787500D01*
X173014546Y-144767815D01*
X172977776Y-144731321D01*
X172884537Y-144588609D01*
X172844494Y-144527318D01*
X172682832Y-144351705D01*
X172494469Y-144205097D01*
X172398152Y-144152972D01*
X172284546Y-144091491D01*
X172284541Y-144091489D01*
X172058786Y-144013988D01*
X171901826Y-143987796D01*
X171823347Y-143974700D01*
X171584653Y-143974700D01*
X171525793Y-143984522D01*
X171349213Y-144013988D01*
X171123458Y-144091489D01*
X171123453Y-144091491D01*
X170913529Y-144205098D01*
X170725167Y-144351705D01*
X170725165Y-144351707D01*
X170563508Y-144527315D01*
X170537508Y-144567110D01*
X170484360Y-144612465D01*
X170415129Y-144621886D01*
X170351794Y-144592383D01*
X170348976Y-144589131D01*
X170343941Y-144588609D01*
X169792441Y-145140109D01*
X169771748Y-145090152D01*
X169696695Y-144977828D01*
X169601172Y-144882305D01*
X169488848Y-144807252D01*
X169438888Y-144786557D01*
X169991159Y-144234287D01*
X169991158Y-144234286D01*
X169954197Y-144205518D01*
X169954191Y-144205513D01*
X169744349Y-144091953D01*
X169744339Y-144091948D01*
X169518664Y-144014474D01*
X169283304Y-143975200D01*
X169044696Y-143975200D01*
X168809335Y-144014474D01*
X168583660Y-144091948D01*
X168583650Y-144091953D01*
X168373807Y-144205514D01*
X168373802Y-144205517D01*
X168336840Y-144234286D01*
X168336840Y-144234287D01*
X168889111Y-144786558D01*
X168839152Y-144807252D01*
X168726828Y-144882305D01*
X168631305Y-144977828D01*
X168556252Y-145090152D01*
X168535558Y-145140111D01*
X168100618Y-144705171D01*
X168067133Y-144643848D01*
X168064299Y-144617490D01*
X168064299Y-144427329D01*
X168064298Y-144427323D01*
X168064297Y-144427316D01*
X168057891Y-144367717D01*
X168007596Y-144232869D01*
X168007595Y-144232868D01*
X168007593Y-144232864D01*
X167921347Y-144117655D01*
X167921344Y-144117652D01*
X167806135Y-144031406D01*
X167806128Y-144031402D01*
X167671282Y-143981108D01*
X167671283Y-143981108D01*
X167611683Y-143974701D01*
X167611681Y-143974700D01*
X167611673Y-143974700D01*
X167611664Y-143974700D01*
X165636329Y-143974700D01*
X165636323Y-143974701D01*
X165576716Y-143981108D01*
X165441871Y-144031402D01*
X165441864Y-144031406D01*
X165326655Y-144117652D01*
X165326652Y-144117655D01*
X165240406Y-144232864D01*
X165240402Y-144232871D01*
X165190108Y-144367717D01*
X165186423Y-144402000D01*
X165183701Y-144427323D01*
X165183700Y-144427335D01*
X165183700Y-145044500D01*
X165164015Y-145111539D01*
X165111211Y-145157294D01*
X165059700Y-145168500D01*
X149188932Y-145168500D01*
X149121893Y-145148815D01*
X149085124Y-145112322D01*
X149055272Y-145066631D01*
X149055270Y-145066629D01*
X149055269Y-145066627D01*
X148899308Y-144897208D01*
X148758355Y-144787500D01*
X148717591Y-144755772D01*
X148515069Y-144646172D01*
X148515061Y-144646169D01*
X148297274Y-144571402D01*
X148126920Y-144542975D01*
X148070137Y-144533500D01*
X147839863Y-144533500D01*
X147794436Y-144541080D01*
X147612725Y-144571402D01*
X147394938Y-144646169D01*
X147394930Y-144646172D01*
X147192408Y-144755772D01*
X147010694Y-144897206D01*
X147010689Y-144897211D01*
X146854727Y-145066631D01*
X146788508Y-145167986D01*
X146735361Y-145213343D01*
X146666130Y-145222766D01*
X146602795Y-145193263D01*
X146580891Y-145167985D01*
X146558238Y-145133312D01*
X146004560Y-145686990D01*
X145977729Y-145622215D01*
X145908236Y-145518211D01*
X145819789Y-145429764D01*
X145715785Y-145360271D01*
X145651007Y-145333438D01*
X146205958Y-144778486D01*
X146205958Y-144778484D01*
X146177322Y-144756196D01*
X146177316Y-144756192D01*
X145974868Y-144646632D01*
X145974859Y-144646629D01*
X145757150Y-144571889D01*
X145530095Y-144534000D01*
X145299905Y-144534000D01*
X145072849Y-144571889D01*
X144855140Y-144646629D01*
X144855132Y-144646632D01*
X144652681Y-144756194D01*
X144624040Y-144778485D01*
X144624040Y-144778487D01*
X145178992Y-145333438D01*
X145114215Y-145360271D01*
X145010211Y-145429764D01*
X144921764Y-145518211D01*
X144852271Y-145622215D01*
X144825439Y-145686992D01*
X144271759Y-145133312D01*
X144249106Y-145167986D01*
X144195960Y-145213342D01*
X144126729Y-145222766D01*
X144063393Y-145193264D01*
X144041489Y-145167985D01*
X144034504Y-145157294D01*
X144005123Y-145112322D01*
X143975271Y-145066629D01*
X143863978Y-144945733D01*
X143819308Y-144897208D01*
X143678355Y-144787500D01*
X143637591Y-144755772D01*
X143435069Y-144646172D01*
X143435061Y-144646169D01*
X143217274Y-144571402D01*
X143046920Y-144542975D01*
X142990137Y-144533500D01*
X142759863Y-144533500D01*
X142714436Y-144541080D01*
X142532725Y-144571402D01*
X142314938Y-144646169D01*
X142314930Y-144646172D01*
X142112408Y-144755772D01*
X141930694Y-144897206D01*
X141930689Y-144897211D01*
X141774728Y-145066629D01*
X141648782Y-145259405D01*
X141556282Y-145470285D01*
X141499753Y-145693515D01*
X141480738Y-145922994D01*
X141480738Y-145923004D01*
X141480759Y-145923258D01*
X141480738Y-145923360D01*
X141480738Y-145928129D01*
X141479757Y-145928129D01*
X141466679Y-145991695D01*
X141417834Y-146041654D01*
X141357183Y-146057499D01*
X131851173Y-146057499D01*
X131784134Y-146037814D01*
X131738379Y-145985010D01*
X131728435Y-145915852D01*
X131757460Y-145852296D01*
X131778288Y-145833181D01*
X131829491Y-145795979D01*
X131829497Y-145795974D01*
X131981974Y-145643497D01*
X131981974Y-145643496D01*
X132108728Y-145469036D01*
X132206627Y-145276901D01*
X132273265Y-145071809D01*
X132307000Y-144858820D01*
X132307000Y-144776000D01*
X131479709Y-144776000D01*
X131491452Y-144755661D01*
X131532000Y-144604333D01*
X131532000Y-144447667D01*
X131491452Y-144296339D01*
X131479709Y-144276000D01*
X132307000Y-144276000D01*
X132307000Y-144193179D01*
X132273265Y-143980190D01*
X132206627Y-143775098D01*
X132108728Y-143582963D01*
X131981974Y-143408503D01*
X131981974Y-143408502D01*
X131829497Y-143256025D01*
X131655036Y-143129271D01*
X131462899Y-143031372D01*
X131257805Y-142964733D01*
X131187000Y-142953518D01*
X131187000Y-143983290D01*
X131166661Y-143971548D01*
X131015333Y-143931000D01*
X130858667Y-143931000D01*
X130707339Y-143971548D01*
X130687000Y-143983290D01*
X130687000Y-142953518D01*
X130686999Y-142953518D01*
X130616194Y-142964733D01*
X130411100Y-143031372D01*
X130218963Y-143129271D01*
X130044506Y-143256022D01*
X129902420Y-143398108D01*
X129841097Y-143431592D01*
X129771405Y-143426608D01*
X129715472Y-143384736D01*
X129702356Y-143362828D01*
X129701816Y-143361670D01*
X129658743Y-143291837D01*
X129609712Y-143212344D01*
X129485656Y-143088288D01*
X129336334Y-142996186D01*
X129169797Y-142941001D01*
X129169795Y-142941000D01*
X129067010Y-142930500D01*
X127726998Y-142930500D01*
X127726981Y-142930501D01*
X127624203Y-142941000D01*
X127624200Y-142941001D01*
X127457668Y-142996185D01*
X127457663Y-142996187D01*
X127308342Y-143088289D01*
X127184289Y-143212342D01*
X127092187Y-143361663D01*
X127092185Y-143361668D01*
X127070666Y-143426608D01*
X127037001Y-143528203D01*
X127037001Y-143528204D01*
X127037000Y-143528204D01*
X127026500Y-143630983D01*
X106318698Y-143630983D01*
X106255781Y-143568066D01*
X106255774Y-143568060D01*
X106058126Y-143416400D01*
X105842376Y-143291837D01*
X105842361Y-143291830D01*
X105612207Y-143196498D01*
X105371561Y-143132017D01*
X105124575Y-143099501D01*
X105124570Y-143099500D01*
X105124565Y-143099500D01*
X104875435Y-143099500D01*
X104875429Y-143099500D01*
X104875424Y-143099501D01*
X104628438Y-143132017D01*
X104387792Y-143196498D01*
X104157638Y-143291830D01*
X104157623Y-143291837D01*
X103941873Y-143416400D01*
X103744225Y-143568060D01*
X103744218Y-143568066D01*
X103568066Y-143744218D01*
X103568060Y-143744225D01*
X103416400Y-143941873D01*
X103291837Y-144157623D01*
X103291830Y-144157638D01*
X103196498Y-144387792D01*
X103132017Y-144628438D01*
X103099501Y-144875424D01*
X103099500Y-144875441D01*
X100349073Y-144875441D01*
X100385599Y-135329996D01*
X114062435Y-135329996D01*
X114062435Y-135330003D01*
X114082630Y-135509249D01*
X114082631Y-135509254D01*
X114142211Y-135679523D01*
X114238184Y-135832262D01*
X114365738Y-135959816D01*
X114518478Y-136055789D01*
X114688745Y-136115368D01*
X114688750Y-136115369D01*
X114867996Y-136135565D01*
X114868000Y-136135565D01*
X114868004Y-136135565D01*
X115047249Y-136115369D01*
X115047252Y-136115368D01*
X115047255Y-136115368D01*
X115217522Y-136055789D01*
X115370262Y-135959816D01*
X115497816Y-135832262D01*
X115593789Y-135679522D01*
X115653368Y-135509255D01*
X115663161Y-135422329D01*
X115690226Y-135357918D01*
X115698690Y-135348543D01*
X116146506Y-134900728D01*
X116146511Y-134900724D01*
X116156714Y-134890520D01*
X116156716Y-134890520D01*
X116268520Y-134778716D01*
X116347577Y-134641784D01*
X116388500Y-134489057D01*
X116388500Y-128714577D01*
X116408185Y-128647538D01*
X116460989Y-128601783D01*
X116499895Y-128591220D01*
X116560797Y-128584999D01*
X116727334Y-128529814D01*
X116876656Y-128437712D01*
X117000712Y-128313656D01*
X117092814Y-128164334D01*
X117092817Y-128164323D01*
X117093353Y-128163177D01*
X117093934Y-128162516D01*
X117096605Y-128158187D01*
X117097344Y-128158643D01*
X117139521Y-128110734D01*
X117206713Y-128091577D01*
X117273596Y-128111788D01*
X117293420Y-128127892D01*
X117435502Y-128269974D01*
X117609963Y-128396728D01*
X117802098Y-128494627D01*
X118007190Y-128561266D01*
X118078000Y-128572481D01*
X118078000Y-127542709D01*
X118098339Y-127554452D01*
X118249667Y-127595000D01*
X118406333Y-127595000D01*
X118557661Y-127554452D01*
X118578000Y-127542709D01*
X118578000Y-128572480D01*
X118648809Y-128561266D01*
X118853901Y-128494627D01*
X119046036Y-128396728D01*
X119220496Y-128269974D01*
X119220497Y-128269974D01*
X119372974Y-128117497D01*
X119372974Y-128117496D01*
X119499728Y-127943036D01*
X119597627Y-127750901D01*
X119664265Y-127545809D01*
X119698000Y-127332820D01*
X119698000Y-127250000D01*
X118870709Y-127250000D01*
X118882452Y-127229661D01*
X118911572Y-127120983D01*
X130963500Y-127120983D01*
X130963500Y-128911001D01*
X130963501Y-128911018D01*
X130974000Y-129013796D01*
X130974001Y-129013799D01*
X131011774Y-129127788D01*
X131029186Y-129180334D01*
X131121288Y-129329656D01*
X131245344Y-129453712D01*
X131394666Y-129545814D01*
X131561203Y-129600999D01*
X131663991Y-129611500D01*
X133004008Y-129611499D01*
X133106797Y-129600999D01*
X133273334Y-129545814D01*
X133422656Y-129453712D01*
X133546712Y-129329656D01*
X133638814Y-129180334D01*
X133638817Y-129180323D01*
X133639353Y-129179177D01*
X133639934Y-129178516D01*
X133642605Y-129174187D01*
X133643344Y-129174643D01*
X133685521Y-129126734D01*
X133752713Y-129107577D01*
X133819596Y-129127788D01*
X133839420Y-129143892D01*
X133981502Y-129285974D01*
X134155963Y-129412728D01*
X134348098Y-129510627D01*
X134553190Y-129577266D01*
X134624000Y-129588481D01*
X134624000Y-128558709D01*
X134644339Y-128570452D01*
X134795667Y-128611000D01*
X134952333Y-128611000D01*
X135103661Y-128570452D01*
X135124000Y-128558709D01*
X135124000Y-129588480D01*
X135194809Y-129577266D01*
X135399901Y-129510627D01*
X135592036Y-129412728D01*
X135766496Y-129285974D01*
X135766497Y-129285974D01*
X135918974Y-129133497D01*
X135918974Y-129133496D01*
X136045728Y-128959036D01*
X136143627Y-128766901D01*
X136210265Y-128561809D01*
X136244000Y-128348820D01*
X136244000Y-128266000D01*
X135416709Y-128266000D01*
X135428452Y-128245661D01*
X135469000Y-128094333D01*
X135469000Y-127937667D01*
X135428452Y-127786339D01*
X135416709Y-127766000D01*
X136244000Y-127766000D01*
X136244000Y-127683179D01*
X136210265Y-127470190D01*
X136143627Y-127265098D01*
X136045728Y-127072963D01*
X135918974Y-126898503D01*
X135918974Y-126898502D01*
X135766497Y-126746025D01*
X135592036Y-126619271D01*
X135399899Y-126521372D01*
X135194805Y-126454733D01*
X135124000Y-126443518D01*
X135124000Y-127473290D01*
X135103661Y-127461548D01*
X134952333Y-127421000D01*
X134795667Y-127421000D01*
X134644339Y-127461548D01*
X134624000Y-127473290D01*
X134624000Y-126443518D01*
X134623999Y-126443518D01*
X134553194Y-126454733D01*
X134348100Y-126521372D01*
X134155963Y-126619271D01*
X133981506Y-126746022D01*
X133839420Y-126888108D01*
X133778097Y-126921592D01*
X133708405Y-126916608D01*
X133652472Y-126874736D01*
X133639356Y-126852828D01*
X133638816Y-126851670D01*
X133573654Y-126746025D01*
X133546712Y-126702344D01*
X133422656Y-126578288D01*
X133273334Y-126486186D01*
X133106797Y-126431001D01*
X133106795Y-126431000D01*
X133004010Y-126420500D01*
X131663998Y-126420500D01*
X131663981Y-126420501D01*
X131561203Y-126431000D01*
X131561200Y-126431001D01*
X131394668Y-126486185D01*
X131394663Y-126486187D01*
X131245342Y-126578289D01*
X131121289Y-126702342D01*
X131029187Y-126851663D01*
X131029185Y-126851668D01*
X131028801Y-126852828D01*
X130974001Y-127018203D01*
X130974001Y-127018204D01*
X130974000Y-127018204D01*
X130963500Y-127120983D01*
X118911572Y-127120983D01*
X118923000Y-127078333D01*
X118923000Y-126921667D01*
X118882452Y-126770339D01*
X118870709Y-126750000D01*
X119698000Y-126750000D01*
X119698000Y-126667179D01*
X119664265Y-126454190D01*
X119597627Y-126249098D01*
X119499728Y-126056963D01*
X119372974Y-125882503D01*
X119372974Y-125882502D01*
X119220497Y-125730025D01*
X119046036Y-125603271D01*
X118853899Y-125505372D01*
X118648805Y-125438733D01*
X118578000Y-125427518D01*
X118578000Y-126457290D01*
X118557661Y-126445548D01*
X118406333Y-126405000D01*
X118249667Y-126405000D01*
X118098339Y-126445548D01*
X118078000Y-126457290D01*
X118078000Y-125427518D01*
X118077999Y-125427518D01*
X118007194Y-125438733D01*
X117802100Y-125505372D01*
X117609963Y-125603271D01*
X117435506Y-125730022D01*
X117293420Y-125872108D01*
X117232097Y-125905592D01*
X117162405Y-125900608D01*
X117106472Y-125858736D01*
X117093356Y-125836828D01*
X117092816Y-125835670D01*
X117027654Y-125730025D01*
X117000712Y-125686344D01*
X116876656Y-125562288D01*
X116727334Y-125470186D01*
X116560797Y-125415001D01*
X116560795Y-125415000D01*
X116458010Y-125404500D01*
X115117998Y-125404500D01*
X115117981Y-125404501D01*
X115015203Y-125415000D01*
X115015200Y-125415001D01*
X114848668Y-125470185D01*
X114848663Y-125470187D01*
X114699342Y-125562289D01*
X114575289Y-125686342D01*
X114483187Y-125835663D01*
X114483185Y-125835668D01*
X114482801Y-125836828D01*
X114428001Y-126002203D01*
X114428001Y-126002204D01*
X114428000Y-126002204D01*
X114417500Y-126104983D01*
X114417500Y-127895001D01*
X114417501Y-127895018D01*
X114428000Y-127997796D01*
X114428001Y-127997799D01*
X114465774Y-128111788D01*
X114483186Y-128164334D01*
X114575288Y-128313656D01*
X114699344Y-128437712D01*
X114848666Y-128529814D01*
X115015203Y-128584999D01*
X115076102Y-128591220D01*
X115140793Y-128617615D01*
X115180945Y-128674796D01*
X115187500Y-128714578D01*
X115187500Y-134109902D01*
X115167815Y-134176941D01*
X115151181Y-134197583D01*
X114849465Y-134499298D01*
X114788142Y-134532783D01*
X114775668Y-134534837D01*
X114688750Y-134544630D01*
X114518478Y-134604210D01*
X114365737Y-134700184D01*
X114238184Y-134827737D01*
X114142211Y-134980476D01*
X114082631Y-135150745D01*
X114082630Y-135150750D01*
X114062435Y-135329996D01*
X100385599Y-135329996D01*
X100467089Y-114034000D01*
X103532342Y-114034000D01*
X104400272Y-114034000D01*
X104308386Y-114072060D01*
X104238060Y-114142386D01*
X104200000Y-114234272D01*
X104200000Y-114333728D01*
X104238060Y-114425614D01*
X104308386Y-114495940D01*
X104400272Y-114534000D01*
X103532342Y-114534000D01*
X103534106Y-114542871D01*
X103534108Y-114542879D01*
X103601004Y-114704382D01*
X103601011Y-114704395D01*
X103698133Y-114849747D01*
X103698136Y-114849751D01*
X103821748Y-114973363D01*
X103821752Y-114973366D01*
X103967104Y-115070488D01*
X103967113Y-115070493D01*
X104128625Y-115137393D01*
X104128633Y-115137395D01*
X104300084Y-115171499D01*
X104300088Y-115171500D01*
X104525000Y-115171500D01*
X104525000Y-114534000D01*
X105025000Y-114534000D01*
X105025000Y-115171500D01*
X105249912Y-115171500D01*
X105249915Y-115171499D01*
X105421366Y-115137395D01*
X105421374Y-115137393D01*
X105582886Y-115070493D01*
X105582895Y-115070488D01*
X105728247Y-114973366D01*
X105728251Y-114973363D01*
X105851863Y-114849751D01*
X105851866Y-114849747D01*
X105948988Y-114704395D01*
X105948995Y-114704382D01*
X106015891Y-114542879D01*
X106015893Y-114542871D01*
X106017658Y-114534000D01*
X105149728Y-114534000D01*
X105241614Y-114495940D01*
X105311940Y-114425614D01*
X105350000Y-114333728D01*
X105350000Y-114234272D01*
X105311940Y-114142386D01*
X105241614Y-114072060D01*
X105149728Y-114034000D01*
X106017658Y-114034000D01*
X106015893Y-114025128D01*
X106015891Y-114025120D01*
X105948995Y-113863617D01*
X105948988Y-113863604D01*
X105851866Y-113718252D01*
X105851863Y-113718248D01*
X105728251Y-113594636D01*
X105728247Y-113594633D01*
X105582895Y-113497511D01*
X105582886Y-113497506D01*
X105421374Y-113430606D01*
X105421366Y-113430604D01*
X105249915Y-113396500D01*
X105025000Y-113396500D01*
X105025000Y-114034000D01*
X104525000Y-114034000D01*
X104525000Y-113396500D01*
X104300084Y-113396500D01*
X104128633Y-113430604D01*
X104128625Y-113430606D01*
X103967113Y-113497506D01*
X103967104Y-113497511D01*
X103821752Y-113594633D01*
X103821748Y-113594636D01*
X103698136Y-113718248D01*
X103698133Y-113718252D01*
X103601011Y-113863604D01*
X103601004Y-113863617D01*
X103534108Y-114025120D01*
X103534106Y-114025128D01*
X103532342Y-114034000D01*
X100467089Y-114034000D01*
X100470996Y-113012966D01*
X106500000Y-113012966D01*
X106500000Y-113034000D01*
X107208408Y-113034000D01*
X107200000Y-113054299D01*
X107200000Y-113513701D01*
X107208408Y-113534000D01*
X106500000Y-113534000D01*
X106500000Y-113555033D01*
X106537466Y-113743389D01*
X106537468Y-113743397D01*
X106610964Y-113920833D01*
X106610969Y-113920842D01*
X106717667Y-114080526D01*
X106717670Y-114080530D01*
X106853469Y-114216329D01*
X106853473Y-114216332D01*
X107013157Y-114323030D01*
X107013167Y-114323035D01*
X107190599Y-114396530D01*
X107190606Y-114396533D01*
X107225000Y-114403373D01*
X107225000Y-113574056D01*
X107241866Y-113614775D01*
X107319225Y-113692134D01*
X107420299Y-113734000D01*
X107529701Y-113734000D01*
X107630775Y-113692134D01*
X107708134Y-113614775D01*
X107725000Y-113574056D01*
X107725000Y-114403372D01*
X107759393Y-114396533D01*
X107759400Y-114396530D01*
X107936832Y-114323035D01*
X107936842Y-114323030D01*
X108096526Y-114216332D01*
X108096530Y-114216329D01*
X108232329Y-114080530D01*
X108232332Y-114080526D01*
X108339030Y-113920842D01*
X108339035Y-113920833D01*
X108412531Y-113743397D01*
X108412533Y-113743389D01*
X108449999Y-113555033D01*
X108450000Y-113555030D01*
X108450000Y-113534000D01*
X107741592Y-113534000D01*
X107750000Y-113513701D01*
X107750000Y-113054299D01*
X107741592Y-113034000D01*
X108450000Y-113034000D01*
X108450000Y-113012970D01*
X108449999Y-113012966D01*
X108412533Y-112824610D01*
X108412531Y-112824602D01*
X108339035Y-112647166D01*
X108339030Y-112647157D01*
X108232332Y-112487473D01*
X108232329Y-112487469D01*
X108096530Y-112351670D01*
X108096526Y-112351667D01*
X107936842Y-112244969D01*
X107936833Y-112244964D01*
X107759397Y-112171468D01*
X107759389Y-112171466D01*
X107725000Y-112164625D01*
X107725000Y-112993943D01*
X107708134Y-112953225D01*
X107630775Y-112875866D01*
X107529701Y-112834000D01*
X107420299Y-112834000D01*
X107319225Y-112875866D01*
X107241866Y-112953225D01*
X107225000Y-112993943D01*
X107225000Y-112164625D01*
X107190610Y-112171466D01*
X107190602Y-112171468D01*
X107013166Y-112244964D01*
X107013157Y-112244969D01*
X106853473Y-112351667D01*
X106853469Y-112351670D01*
X106717670Y-112487469D01*
X106717667Y-112487473D01*
X106610969Y-112647157D01*
X106610964Y-112647166D01*
X106537468Y-112824602D01*
X106537466Y-112824610D01*
X106500000Y-113012966D01*
X100470996Y-113012966D01*
X100493875Y-107034000D01*
X103532342Y-107034000D01*
X104400272Y-107034000D01*
X104308386Y-107072060D01*
X104238060Y-107142386D01*
X104200000Y-107234272D01*
X104200000Y-107333728D01*
X104238060Y-107425614D01*
X104308386Y-107495940D01*
X104400272Y-107534000D01*
X103532342Y-107534000D01*
X103534106Y-107542871D01*
X103534108Y-107542879D01*
X103601004Y-107704382D01*
X103601011Y-107704395D01*
X103698133Y-107849747D01*
X103698136Y-107849751D01*
X103821748Y-107973363D01*
X103821752Y-107973366D01*
X103967104Y-108070488D01*
X103967113Y-108070493D01*
X104128625Y-108137393D01*
X104128633Y-108137395D01*
X104300084Y-108171499D01*
X104300088Y-108171500D01*
X104525000Y-108171500D01*
X104525000Y-107534000D01*
X105025000Y-107534000D01*
X105025000Y-108171500D01*
X105249912Y-108171500D01*
X105249915Y-108171499D01*
X105421366Y-108137395D01*
X105421374Y-108137393D01*
X105582886Y-108070493D01*
X105582895Y-108070488D01*
X105668982Y-108012966D01*
X106500000Y-108012966D01*
X106500000Y-108034000D01*
X107208408Y-108034000D01*
X107200000Y-108054299D01*
X107200000Y-108513701D01*
X107208408Y-108534000D01*
X106500000Y-108534000D01*
X106500000Y-108555033D01*
X106537466Y-108743389D01*
X106537468Y-108743397D01*
X106610964Y-108920833D01*
X106610969Y-108920842D01*
X106717667Y-109080526D01*
X106717670Y-109080530D01*
X106853469Y-109216329D01*
X106853473Y-109216332D01*
X107013157Y-109323030D01*
X107013167Y-109323035D01*
X107190599Y-109396530D01*
X107190606Y-109396533D01*
X107225000Y-109403373D01*
X107225000Y-108574056D01*
X107241866Y-108614775D01*
X107319225Y-108692134D01*
X107420299Y-108734000D01*
X107529701Y-108734000D01*
X107630775Y-108692134D01*
X107708134Y-108614775D01*
X107725000Y-108574056D01*
X107725000Y-109403372D01*
X107759393Y-109396533D01*
X107759400Y-109396530D01*
X107936832Y-109323035D01*
X107936842Y-109323030D01*
X108096526Y-109216332D01*
X108096530Y-109216329D01*
X108232329Y-109080530D01*
X108232332Y-109080526D01*
X108339030Y-108920842D01*
X108339035Y-108920833D01*
X108412531Y-108743397D01*
X108412533Y-108743389D01*
X108449999Y-108555033D01*
X108450000Y-108555030D01*
X108450000Y-108534000D01*
X107741592Y-108534000D01*
X107750000Y-108513701D01*
X107750000Y-108054299D01*
X107741592Y-108034000D01*
X108450000Y-108034000D01*
X108450000Y-108012970D01*
X108449999Y-108012966D01*
X108412533Y-107824610D01*
X108412531Y-107824602D01*
X108339035Y-107647166D01*
X108339030Y-107647157D01*
X108232332Y-107487473D01*
X108232329Y-107487469D01*
X108096530Y-107351670D01*
X108096526Y-107351667D01*
X107936842Y-107244969D01*
X107936833Y-107244964D01*
X107759397Y-107171468D01*
X107759389Y-107171466D01*
X107725000Y-107164625D01*
X107725000Y-107993943D01*
X107708134Y-107953225D01*
X107630775Y-107875866D01*
X107529701Y-107834000D01*
X107420299Y-107834000D01*
X107319225Y-107875866D01*
X107241866Y-107953225D01*
X107225000Y-107993943D01*
X107225000Y-107164625D01*
X107190610Y-107171466D01*
X107190602Y-107171468D01*
X107013166Y-107244964D01*
X107013157Y-107244969D01*
X106853473Y-107351667D01*
X106853469Y-107351670D01*
X106717670Y-107487469D01*
X106717667Y-107487473D01*
X106610969Y-107647157D01*
X106610964Y-107647166D01*
X106537468Y-107824602D01*
X106537466Y-107824610D01*
X106500000Y-108012966D01*
X105668982Y-108012966D01*
X105728247Y-107973366D01*
X105728251Y-107973363D01*
X105851863Y-107849751D01*
X105851866Y-107849747D01*
X105948988Y-107704395D01*
X105948995Y-107704382D01*
X106015891Y-107542879D01*
X106015893Y-107542871D01*
X106017658Y-107534000D01*
X105149728Y-107534000D01*
X105241614Y-107495940D01*
X105311940Y-107425614D01*
X105350000Y-107333728D01*
X105350000Y-107234272D01*
X105311940Y-107142386D01*
X105241614Y-107072060D01*
X105149728Y-107034000D01*
X106017658Y-107034000D01*
X106015893Y-107025128D01*
X106015891Y-107025120D01*
X105948995Y-106863617D01*
X105948988Y-106863604D01*
X105851866Y-106718252D01*
X105851863Y-106718248D01*
X105728251Y-106594636D01*
X105728247Y-106594633D01*
X105582895Y-106497511D01*
X105582886Y-106497506D01*
X105421374Y-106430606D01*
X105421366Y-106430604D01*
X105249915Y-106396500D01*
X105025000Y-106396500D01*
X105025000Y-107034000D01*
X104525000Y-107034000D01*
X104525000Y-106396500D01*
X104300084Y-106396500D01*
X104128633Y-106430604D01*
X104128625Y-106430606D01*
X103967113Y-106497506D01*
X103967104Y-106497511D01*
X103821752Y-106594633D01*
X103821748Y-106594636D01*
X103698136Y-106718248D01*
X103698133Y-106718252D01*
X103601011Y-106863604D01*
X103601004Y-106863617D01*
X103534108Y-107025120D01*
X103534106Y-107025128D01*
X103532342Y-107034000D01*
X100493875Y-107034000D01*
X100619340Y-74245685D01*
X105265499Y-74245685D01*
X105265499Y-74400425D01*
X105265500Y-74400446D01*
X105265500Y-83207552D01*
X105265499Y-83207578D01*
X105265499Y-83361314D01*
X105286224Y-83465500D01*
X105286224Y-83465501D01*
X105294493Y-83507072D01*
X105294495Y-83507080D01*
X105309662Y-83543696D01*
X105351368Y-83644385D01*
X105351372Y-83644392D01*
X105433942Y-83767968D01*
X105433943Y-83767969D01*
X105996137Y-84330161D01*
X106029622Y-84391484D01*
X106026388Y-84456158D01*
X106007245Y-84515074D01*
X105973500Y-84728133D01*
X105973500Y-84943866D01*
X106007246Y-85156927D01*
X106007246Y-85156930D01*
X106026387Y-85215838D01*
X106028382Y-85285679D01*
X105996137Y-85341837D01*
X105433943Y-85904030D01*
X105433942Y-85904031D01*
X105351372Y-86027607D01*
X105351366Y-86027618D01*
X105294496Y-86164916D01*
X105294493Y-86164926D01*
X105265499Y-86310685D01*
X105265499Y-86465425D01*
X105265500Y-86465446D01*
X105265500Y-98193552D01*
X105265499Y-98193578D01*
X105265499Y-98347313D01*
X105277332Y-98406797D01*
X105277332Y-98406799D01*
X105294493Y-98493072D01*
X105294496Y-98493084D01*
X105309221Y-98528633D01*
X105351367Y-98630385D01*
X105433942Y-98753968D01*
X105433943Y-98753969D01*
X110788600Y-104108624D01*
X110788621Y-104108647D01*
X110898031Y-104218057D01*
X110948084Y-104251501D01*
X111021603Y-104300625D01*
X111021609Y-104300628D01*
X111021610Y-104300629D01*
X111158920Y-104357505D01*
X111304683Y-104386499D01*
X111304687Y-104386500D01*
X111304688Y-104386500D01*
X111453312Y-104386500D01*
X125994500Y-104386500D01*
X126061539Y-104406185D01*
X126107294Y-104458989D01*
X126118500Y-104510500D01*
X126118500Y-107489552D01*
X126118499Y-107489578D01*
X126118499Y-107494688D01*
X126118499Y-107643312D01*
X126118499Y-107643314D01*
X126118498Y-107643314D01*
X126147493Y-107789073D01*
X126147496Y-107789083D01*
X126204366Y-107926381D01*
X126204372Y-107926392D01*
X126286942Y-108049968D01*
X126286943Y-108049969D01*
X133013600Y-114776624D01*
X133013621Y-114776647D01*
X133394601Y-115157625D01*
X133394620Y-115157646D01*
X133504028Y-115267054D01*
X133504035Y-115267060D01*
X133616787Y-115342398D01*
X133661593Y-115396010D01*
X133670300Y-115465335D01*
X133640146Y-115528362D01*
X133580703Y-115565082D01*
X133547897Y-115569500D01*
X112389670Y-115569500D01*
X112389654Y-115569499D01*
X112382058Y-115569499D01*
X112223943Y-115569499D01*
X112147579Y-115589961D01*
X112071214Y-115610423D01*
X112071209Y-115610426D01*
X111934290Y-115689475D01*
X111934282Y-115689481D01*
X110979465Y-116644298D01*
X110918142Y-116677783D01*
X110905668Y-116679837D01*
X110818750Y-116689630D01*
X110648478Y-116749210D01*
X110495737Y-116845184D01*
X110368184Y-116972737D01*
X110272211Y-117125476D01*
X110212631Y-117295745D01*
X110212630Y-117295750D01*
X110192435Y-117474996D01*
X110192435Y-117475003D01*
X110212630Y-117654249D01*
X110212631Y-117654254D01*
X110272211Y-117824523D01*
X110368184Y-117977262D01*
X110495738Y-118104816D01*
X110648478Y-118200789D01*
X110818745Y-118260368D01*
X110818750Y-118260369D01*
X110997996Y-118280565D01*
X110998000Y-118280565D01*
X110998004Y-118280565D01*
X111177249Y-118260369D01*
X111177252Y-118260368D01*
X111177255Y-118260368D01*
X111347522Y-118200789D01*
X111500262Y-118104816D01*
X111605082Y-117999996D01*
X128131935Y-117999996D01*
X128131935Y-118000003D01*
X128152130Y-118179249D01*
X128152131Y-118179254D01*
X128211711Y-118349523D01*
X128307682Y-118502259D01*
X128309941Y-118505091D01*
X128310830Y-118507268D01*
X128311389Y-118508158D01*
X128311233Y-118508255D01*
X128336354Y-118569776D01*
X128336999Y-118582410D01*
X128336999Y-118602554D01*
X128336998Y-118602554D01*
X128336999Y-118602557D01*
X128377923Y-118755285D01*
X128377924Y-118755287D01*
X128377923Y-118755287D01*
X128395289Y-118785364D01*
X128395291Y-118785366D01*
X128395292Y-118785368D01*
X128436417Y-118856600D01*
X128456979Y-118892215D01*
X128575849Y-119011085D01*
X128575855Y-119011090D01*
X132773298Y-123208534D01*
X132806783Y-123269857D01*
X132808837Y-123282331D01*
X132818630Y-123369249D01*
X132878210Y-123539521D01*
X132974184Y-123692262D01*
X133101738Y-123819816D01*
X133254478Y-123915789D01*
X133424745Y-123975368D01*
X133424750Y-123975369D01*
X133603996Y-123995565D01*
X133604000Y-123995565D01*
X133604004Y-123995565D01*
X133783249Y-123975369D01*
X133783252Y-123975368D01*
X133783255Y-123975368D01*
X133953522Y-123915789D01*
X134106262Y-123819816D01*
X134233816Y-123692262D01*
X134329789Y-123539522D01*
X134389368Y-123369255D01*
X134399162Y-123282331D01*
X134409565Y-123190003D01*
X134409565Y-123189996D01*
X134389369Y-123010750D01*
X134389368Y-123010745D01*
X134350442Y-122899501D01*
X134329789Y-122840478D01*
X134233816Y-122687738D01*
X134106262Y-122560184D01*
X134009684Y-122499500D01*
X133953521Y-122464210D01*
X133783249Y-122404630D01*
X133696331Y-122394837D01*
X133631917Y-122367770D01*
X133622534Y-122359298D01*
X129705284Y-118442049D01*
X129671799Y-118380726D01*
X129675924Y-118313413D01*
X129722866Y-118179262D01*
X129722869Y-118179249D01*
X129743065Y-118000003D01*
X129743065Y-117999996D01*
X129722869Y-117820750D01*
X129722868Y-117820745D01*
X129663289Y-117650478D01*
X129567316Y-117497738D01*
X129439762Y-117370184D01*
X129287023Y-117274211D01*
X129116754Y-117214631D01*
X129116749Y-117214630D01*
X128937504Y-117194435D01*
X128937496Y-117194435D01*
X128758250Y-117214630D01*
X128758245Y-117214631D01*
X128587976Y-117274211D01*
X128435237Y-117370184D01*
X128307684Y-117497737D01*
X128211711Y-117650476D01*
X128152131Y-117820745D01*
X128152130Y-117820750D01*
X128131935Y-117999996D01*
X111605082Y-117999996D01*
X111627816Y-117977262D01*
X111723789Y-117824522D01*
X111783368Y-117654255D01*
X111793161Y-117567329D01*
X111820226Y-117502918D01*
X111828689Y-117493544D01*
X112515417Y-116806819D01*
X112576740Y-116773334D01*
X112603098Y-116770500D01*
X137448860Y-116770500D01*
X137448876Y-116770501D01*
X137456472Y-116770501D01*
X137614583Y-116770501D01*
X137614586Y-116770501D01*
X137767314Y-116729577D01*
X137836500Y-116689632D01*
X137904245Y-116650520D01*
X138016049Y-116538716D01*
X138016049Y-116538714D01*
X138026250Y-116528514D01*
X138026253Y-116528509D01*
X138098821Y-116455941D01*
X138160143Y-116422459D01*
X138229834Y-116427444D01*
X138285768Y-116469315D01*
X138310184Y-116534780D01*
X138310500Y-116543625D01*
X138310500Y-121897074D01*
X138310499Y-121897092D01*
X138310499Y-122062798D01*
X138310498Y-122062798D01*
X138351423Y-122215529D01*
X138380358Y-122265644D01*
X138380359Y-122265648D01*
X138380360Y-122265648D01*
X138425974Y-122344656D01*
X138430479Y-122352458D01*
X138430481Y-122352461D01*
X138549349Y-122471329D01*
X138549355Y-122471334D01*
X138741395Y-122663374D01*
X138741405Y-122663385D01*
X138745735Y-122667715D01*
X138745736Y-122667716D01*
X138857540Y-122779520D01*
X138929878Y-122821284D01*
X138994471Y-122858577D01*
X139147198Y-122899500D01*
X139147199Y-122899500D01*
X150918331Y-122899500D01*
X150918347Y-122899501D01*
X150925943Y-122899501D01*
X151084054Y-122899501D01*
X151084057Y-122899501D01*
X151236785Y-122858577D01*
X151301378Y-122821284D01*
X151373716Y-122779520D01*
X151485520Y-122667716D01*
X151485520Y-122667714D01*
X151495724Y-122657511D01*
X151495728Y-122657506D01*
X151619138Y-122534095D01*
X151680459Y-122500612D01*
X151719421Y-122498420D01*
X151729991Y-122499500D01*
X153070008Y-122499499D01*
X153172797Y-122488999D01*
X153339334Y-122433814D01*
X153488656Y-122341712D01*
X153612712Y-122217656D01*
X153704814Y-122068334D01*
X153704817Y-122068322D01*
X153705129Y-122067657D01*
X153705469Y-122067269D01*
X153708605Y-122062187D01*
X153709473Y-122062722D01*
X153751299Y-122015216D01*
X153818491Y-121996060D01*
X153885373Y-122016272D01*
X153905195Y-122032375D01*
X154047179Y-122174359D01*
X154134388Y-122237720D01*
X154177051Y-122293046D01*
X154185500Y-122338035D01*
X154185500Y-136796112D01*
X154165815Y-136863151D01*
X154149181Y-136883793D01*
X152208357Y-138824616D01*
X152182869Y-138842705D01*
X152183373Y-138843507D01*
X152024737Y-138943184D01*
X151897184Y-139070737D01*
X151801211Y-139223476D01*
X151741631Y-139393745D01*
X151741630Y-139393750D01*
X151721435Y-139572996D01*
X151721435Y-139573003D01*
X151741630Y-139752249D01*
X151741631Y-139752254D01*
X151801211Y-139922523D01*
X151897184Y-140075262D01*
X152024738Y-140202816D01*
X152177478Y-140298789D01*
X152347745Y-140358368D01*
X152347750Y-140358369D01*
X152526996Y-140378565D01*
X152527000Y-140378565D01*
X152527004Y-140378565D01*
X152706249Y-140358369D01*
X152706252Y-140358368D01*
X152706255Y-140358368D01*
X152876522Y-140298789D01*
X153029262Y-140202816D01*
X153156816Y-140075262D01*
X153252789Y-139922522D01*
X153252789Y-139922520D01*
X153256494Y-139916625D01*
X153257299Y-139917131D01*
X153275382Y-139891641D01*
X155420963Y-137746060D01*
X155420966Y-137746059D01*
X155526059Y-137640966D01*
X155608629Y-137517390D01*
X155665505Y-137380080D01*
X155694500Y-137234312D01*
X155694500Y-122338035D01*
X155714185Y-122270996D01*
X155745609Y-122237721D01*
X155832821Y-122174359D01*
X155985359Y-122021821D01*
X156109991Y-121850279D01*
X156165321Y-121807614D01*
X156234934Y-121801635D01*
X156296729Y-121834241D01*
X156310627Y-121850279D01*
X156435025Y-122021496D01*
X156435025Y-122021497D01*
X156587502Y-122173974D01*
X156761963Y-122300728D01*
X156954098Y-122398627D01*
X157159190Y-122465266D01*
X157230000Y-122476481D01*
X157230000Y-121446709D01*
X157250339Y-121458452D01*
X157401667Y-121499000D01*
X157558333Y-121499000D01*
X157709661Y-121458452D01*
X157730000Y-121446709D01*
X157730000Y-122476480D01*
X157800809Y-122465266D01*
X158005901Y-122398627D01*
X158198036Y-122300728D01*
X158372496Y-122173974D01*
X158372497Y-122173974D01*
X158524974Y-122021497D01*
X158524974Y-122021496D01*
X158651728Y-121847036D01*
X158749627Y-121654901D01*
X158816265Y-121449809D01*
X158850000Y-121236820D01*
X158850000Y-121154000D01*
X158022709Y-121154000D01*
X158034452Y-121133661D01*
X158075000Y-120982333D01*
X158075000Y-120825667D01*
X158034452Y-120674339D01*
X158022709Y-120654000D01*
X158850000Y-120654000D01*
X158850000Y-120571179D01*
X158816265Y-120358190D01*
X158749627Y-120153098D01*
X158740906Y-120135983D01*
X163094500Y-120135983D01*
X163094500Y-121926001D01*
X163094501Y-121926018D01*
X163105000Y-122028796D01*
X163105001Y-122028799D01*
X163158149Y-122189187D01*
X163160186Y-122195334D01*
X163252288Y-122344656D01*
X163376344Y-122468712D01*
X163525666Y-122560814D01*
X163692203Y-122615999D01*
X163794991Y-122626500D01*
X165135008Y-122626499D01*
X165237797Y-122615999D01*
X165404334Y-122560814D01*
X165553656Y-122468712D01*
X165677712Y-122344656D01*
X165769814Y-122195334D01*
X165769817Y-122195322D01*
X165770129Y-122194657D01*
X165770469Y-122194269D01*
X165773605Y-122189187D01*
X165774473Y-122189722D01*
X165816299Y-122142216D01*
X165883491Y-122123060D01*
X165950373Y-122143272D01*
X165970195Y-122159375D01*
X166112179Y-122301359D01*
X166286701Y-122428157D01*
X166478911Y-122526092D01*
X166684074Y-122592754D01*
X166751796Y-122603480D01*
X166897134Y-122626500D01*
X166897139Y-122626500D01*
X167112866Y-122626500D01*
X167231230Y-122607752D01*
X167325926Y-122592754D01*
X167531089Y-122526092D01*
X167723299Y-122428157D01*
X167897821Y-122301359D01*
X168050359Y-122148821D01*
X168174991Y-121977279D01*
X168230321Y-121934614D01*
X168299934Y-121928635D01*
X168361729Y-121961241D01*
X168375627Y-121977279D01*
X168500025Y-122148496D01*
X168500025Y-122148497D01*
X168652502Y-122300974D01*
X168826963Y-122427728D01*
X169019098Y-122525627D01*
X169224190Y-122592266D01*
X169295000Y-122603481D01*
X169295000Y-121573709D01*
X169315339Y-121585452D01*
X169466667Y-121626000D01*
X169623333Y-121626000D01*
X169774661Y-121585452D01*
X169795000Y-121573709D01*
X169795000Y-122603480D01*
X169865809Y-122592266D01*
X170070901Y-122525627D01*
X170263036Y-122427728D01*
X170437496Y-122300974D01*
X170437497Y-122300974D01*
X170589974Y-122148497D01*
X170589974Y-122148496D01*
X170716728Y-121974036D01*
X170814627Y-121781901D01*
X170881265Y-121576809D01*
X170915000Y-121363820D01*
X170915000Y-121281000D01*
X170087709Y-121281000D01*
X170099452Y-121260661D01*
X170140000Y-121109333D01*
X170140000Y-120952667D01*
X170099452Y-120801339D01*
X170087709Y-120781000D01*
X170915000Y-120781000D01*
X170915000Y-120698179D01*
X170881265Y-120485190D01*
X170814627Y-120280098D01*
X170716728Y-120087963D01*
X170589974Y-119913503D01*
X170589974Y-119913502D01*
X170437497Y-119761025D01*
X170263036Y-119634271D01*
X170070899Y-119536372D01*
X169865805Y-119469733D01*
X169795000Y-119458518D01*
X169795000Y-120488290D01*
X169774661Y-120476548D01*
X169623333Y-120436000D01*
X169466667Y-120436000D01*
X169315339Y-120476548D01*
X169295000Y-120488290D01*
X169295000Y-119458518D01*
X169294999Y-119458518D01*
X169224194Y-119469733D01*
X169019100Y-119536372D01*
X168826963Y-119634271D01*
X168652503Y-119761025D01*
X168652502Y-119761025D01*
X168500024Y-119913503D01*
X168375627Y-120084720D01*
X168320296Y-120127385D01*
X168250683Y-120133364D01*
X168188888Y-120100758D01*
X168174991Y-120084720D01*
X168050359Y-119913179D01*
X167897821Y-119760641D01*
X167723299Y-119633843D01*
X167531089Y-119535908D01*
X167325926Y-119469246D01*
X167325924Y-119469245D01*
X167325922Y-119469245D01*
X167112866Y-119435500D01*
X167112861Y-119435500D01*
X166897139Y-119435500D01*
X166897134Y-119435500D01*
X166684077Y-119469245D01*
X166478908Y-119535909D01*
X166286700Y-119633843D01*
X166112180Y-119760640D01*
X165970195Y-119902625D01*
X165908872Y-119936109D01*
X165839180Y-119931125D01*
X165783247Y-119889253D01*
X165770132Y-119867348D01*
X165769815Y-119866669D01*
X165769814Y-119866668D01*
X165769814Y-119866666D01*
X165677712Y-119717344D01*
X165553656Y-119593288D01*
X165414203Y-119507273D01*
X165404336Y-119501187D01*
X165404331Y-119501185D01*
X165402862Y-119500698D01*
X165237797Y-119446001D01*
X165237795Y-119446000D01*
X165135010Y-119435500D01*
X163794998Y-119435500D01*
X163794981Y-119435501D01*
X163692203Y-119446000D01*
X163692200Y-119446001D01*
X163525668Y-119501185D01*
X163525663Y-119501187D01*
X163376342Y-119593289D01*
X163252289Y-119717342D01*
X163160187Y-119866663D01*
X163160186Y-119866666D01*
X163105001Y-120033203D01*
X163105001Y-120033204D01*
X163105000Y-120033204D01*
X163094500Y-120135983D01*
X158740906Y-120135983D01*
X158651728Y-119960963D01*
X158524974Y-119786503D01*
X158524974Y-119786502D01*
X158372497Y-119634025D01*
X158198036Y-119507271D01*
X158005899Y-119409372D01*
X157800805Y-119342733D01*
X157730000Y-119331518D01*
X157730000Y-120361290D01*
X157709661Y-120349548D01*
X157558333Y-120309000D01*
X157401667Y-120309000D01*
X157250339Y-120349548D01*
X157230000Y-120361290D01*
X157230000Y-119331518D01*
X157229999Y-119331518D01*
X157159194Y-119342733D01*
X156954100Y-119409372D01*
X156761963Y-119507271D01*
X156587503Y-119634025D01*
X156587502Y-119634025D01*
X156435024Y-119786503D01*
X156310627Y-119957720D01*
X156255296Y-120000385D01*
X156185683Y-120006364D01*
X156123888Y-119973758D01*
X156109991Y-119957720D01*
X155985359Y-119786179D01*
X155832821Y-119633641D01*
X155658299Y-119506843D01*
X155466089Y-119408908D01*
X155260926Y-119342246D01*
X155260924Y-119342245D01*
X155260922Y-119342245D01*
X155047866Y-119308500D01*
X155047861Y-119308500D01*
X154832139Y-119308500D01*
X154832134Y-119308500D01*
X154619077Y-119342245D01*
X154413908Y-119408909D01*
X154221700Y-119506843D01*
X154047180Y-119633640D01*
X153905195Y-119775625D01*
X153843872Y-119809109D01*
X153774180Y-119804125D01*
X153718247Y-119762253D01*
X153705132Y-119740348D01*
X153704815Y-119739669D01*
X153704814Y-119739668D01*
X153704814Y-119739666D01*
X153612712Y-119590344D01*
X153488656Y-119466288D01*
X153339334Y-119374186D01*
X153172797Y-119319001D01*
X153172795Y-119319000D01*
X153070010Y-119308500D01*
X151729998Y-119308500D01*
X151729981Y-119308501D01*
X151627203Y-119319000D01*
X151627200Y-119319001D01*
X151460668Y-119374185D01*
X151460663Y-119374187D01*
X151311342Y-119466289D01*
X151187289Y-119590342D01*
X151095187Y-119739663D01*
X151095185Y-119739668D01*
X151088235Y-119760643D01*
X151040001Y-119906203D01*
X151040001Y-119906204D01*
X151040000Y-119906204D01*
X151029500Y-120008983D01*
X151029500Y-121373902D01*
X151009815Y-121440941D01*
X150993181Y-121461583D01*
X150792584Y-121662181D01*
X150731261Y-121695666D01*
X150704903Y-121698500D01*
X146587133Y-121698500D01*
X146520094Y-121678815D01*
X146474339Y-121626011D01*
X146464395Y-121556853D01*
X146469202Y-121536181D01*
X146497265Y-121449809D01*
X146531000Y-121236820D01*
X146531000Y-121154000D01*
X145703709Y-121154000D01*
X145715452Y-121133661D01*
X145756000Y-120982333D01*
X145756000Y-120825667D01*
X145715452Y-120674339D01*
X145703709Y-120654000D01*
X146531000Y-120654000D01*
X146531000Y-120571179D01*
X146497265Y-120358190D01*
X146430627Y-120153098D01*
X146332728Y-119960963D01*
X146205974Y-119786503D01*
X146205974Y-119786502D01*
X146053497Y-119634025D01*
X145879036Y-119507271D01*
X145686899Y-119409372D01*
X145481805Y-119342733D01*
X145411000Y-119331518D01*
X145411000Y-120361290D01*
X145390661Y-120349548D01*
X145239333Y-120309000D01*
X145082667Y-120309000D01*
X144931339Y-120349548D01*
X144911000Y-120361290D01*
X144911000Y-119331518D01*
X144910999Y-119331518D01*
X144840194Y-119342733D01*
X144635100Y-119409372D01*
X144442960Y-119507273D01*
X144349180Y-119575408D01*
X144283374Y-119598888D01*
X144215320Y-119583062D01*
X144166625Y-119532956D01*
X144152750Y-119464478D01*
X144178099Y-119399369D01*
X144188607Y-119387416D01*
X146749639Y-116826383D01*
X146775130Y-116808301D01*
X146774624Y-116807495D01*
X146780522Y-116803789D01*
X146933262Y-116707816D01*
X147060816Y-116580262D01*
X147156789Y-116427522D01*
X147216368Y-116257255D01*
X147236565Y-116078000D01*
X147216368Y-115898745D01*
X147156789Y-115728478D01*
X147060816Y-115575738D01*
X146933262Y-115448184D01*
X146780522Y-115352211D01*
X146780519Y-115352209D01*
X146745668Y-115340014D01*
X146688892Y-115299293D01*
X146663145Y-115234340D01*
X146676601Y-115165778D01*
X146698939Y-115135295D01*
X153374417Y-108459819D01*
X153435740Y-108426334D01*
X153462098Y-108423500D01*
X165013331Y-108423500D01*
X165013347Y-108423501D01*
X165020943Y-108423501D01*
X165179054Y-108423501D01*
X165179057Y-108423501D01*
X165331785Y-108382577D01*
X165381904Y-108353639D01*
X165468716Y-108303520D01*
X165580520Y-108191716D01*
X165580520Y-108191714D01*
X165590728Y-108181507D01*
X165590730Y-108181504D01*
X165955221Y-107817013D01*
X183034000Y-107817013D01*
X183034000Y-108462000D01*
X183861291Y-108462000D01*
X183849548Y-108482339D01*
X183809000Y-108633667D01*
X183809000Y-108790333D01*
X183849548Y-108941661D01*
X183861291Y-108962000D01*
X183034001Y-108962000D01*
X183034001Y-109606986D01*
X183044494Y-109709697D01*
X183099641Y-109876119D01*
X183099643Y-109876124D01*
X183191684Y-110025345D01*
X183315654Y-110149315D01*
X183464875Y-110241356D01*
X183464880Y-110241358D01*
X183631302Y-110296505D01*
X183631309Y-110296506D01*
X183734019Y-110306999D01*
X184153999Y-110306999D01*
X184154000Y-110306998D01*
X184154000Y-109254709D01*
X184174339Y-109266452D01*
X184325667Y-109307000D01*
X184482333Y-109307000D01*
X184633661Y-109266452D01*
X184654000Y-109254709D01*
X184654000Y-110306999D01*
X185073972Y-110306999D01*
X185073986Y-110306998D01*
X185176697Y-110296505D01*
X185343119Y-110241358D01*
X185343124Y-110241356D01*
X185492345Y-110149315D01*
X185616315Y-110025345D01*
X185708354Y-109876127D01*
X185708745Y-109875289D01*
X185709167Y-109874809D01*
X185712149Y-109869975D01*
X185712974Y-109870484D01*
X185754910Y-109822843D01*
X185822100Y-109803681D01*
X185888984Y-109823887D01*
X185908816Y-109839996D01*
X186051179Y-109982359D01*
X186225701Y-110109157D01*
X186417911Y-110207092D01*
X186623074Y-110273754D01*
X186702973Y-110286408D01*
X186836134Y-110307500D01*
X186836139Y-110307500D01*
X187051866Y-110307500D01*
X187173408Y-110288249D01*
X187264926Y-110273754D01*
X187470089Y-110207092D01*
X187662299Y-110109157D01*
X187836821Y-109982359D01*
X187989359Y-109829821D01*
X188116157Y-109655299D01*
X188214092Y-109463089D01*
X188280754Y-109257926D01*
X188308851Y-109080530D01*
X188314500Y-109044866D01*
X188314500Y-108379133D01*
X188284815Y-108191716D01*
X188280754Y-108166074D01*
X188214092Y-107960911D01*
X188116157Y-107768701D01*
X187989359Y-107594179D01*
X187836821Y-107441641D01*
X187662299Y-107314843D01*
X187525162Y-107244969D01*
X187470091Y-107216909D01*
X187470090Y-107216908D01*
X187470089Y-107216908D01*
X187264926Y-107150246D01*
X187264924Y-107150245D01*
X187264922Y-107150245D01*
X187051866Y-107116500D01*
X187051861Y-107116500D01*
X186836139Y-107116500D01*
X186836134Y-107116500D01*
X186623077Y-107150245D01*
X186417908Y-107216909D01*
X186225700Y-107314843D01*
X186051180Y-107441640D01*
X185908816Y-107584004D01*
X185847493Y-107617488D01*
X185777801Y-107612504D01*
X185721868Y-107570632D01*
X185708748Y-107548716D01*
X185708356Y-107547876D01*
X185616315Y-107398654D01*
X185492345Y-107274684D01*
X185343124Y-107182643D01*
X185343119Y-107182641D01*
X185176697Y-107127494D01*
X185176690Y-107127493D01*
X185073986Y-107117000D01*
X184654000Y-107117000D01*
X184654000Y-108169290D01*
X184633661Y-108157548D01*
X184482333Y-108117000D01*
X184325667Y-108117000D01*
X184174339Y-108157548D01*
X184154000Y-108169290D01*
X184154000Y-107117000D01*
X183734028Y-107117000D01*
X183734012Y-107117001D01*
X183631302Y-107127494D01*
X183464880Y-107182641D01*
X183464875Y-107182643D01*
X183315654Y-107274684D01*
X183191684Y-107398654D01*
X183099643Y-107547875D01*
X183099641Y-107547880D01*
X183044494Y-107714302D01*
X183044493Y-107714309D01*
X183034000Y-107817013D01*
X165955221Y-107817013D01*
X167627713Y-106144521D01*
X167627716Y-106144520D01*
X167739520Y-106032716D01*
X167789639Y-105945904D01*
X167818577Y-105895785D01*
X167859500Y-105743057D01*
X167859500Y-105584943D01*
X167859500Y-92830983D01*
X172619500Y-92830983D01*
X172619500Y-94621001D01*
X172619501Y-94621018D01*
X172630000Y-94723796D01*
X172630001Y-94723799D01*
X172667774Y-94837788D01*
X172685186Y-94890334D01*
X172777288Y-95039656D01*
X172901344Y-95163712D01*
X173050666Y-95255814D01*
X173217203Y-95310999D01*
X173319991Y-95321500D01*
X174660008Y-95321499D01*
X174762797Y-95310999D01*
X174929334Y-95255814D01*
X175078656Y-95163712D01*
X175202712Y-95039656D01*
X175294814Y-94890334D01*
X175294817Y-94890323D01*
X175295353Y-94889177D01*
X175295934Y-94888516D01*
X175298605Y-94884187D01*
X175299344Y-94884643D01*
X175341521Y-94836734D01*
X175408713Y-94817577D01*
X175475596Y-94837788D01*
X175495420Y-94853892D01*
X175637502Y-94995974D01*
X175811963Y-95122728D01*
X176004098Y-95220627D01*
X176209190Y-95287266D01*
X176280000Y-95298481D01*
X176280000Y-94268709D01*
X176300339Y-94280452D01*
X176451667Y-94321000D01*
X176608333Y-94321000D01*
X176759661Y-94280452D01*
X176780000Y-94268709D01*
X176780000Y-95298480D01*
X176850809Y-95287266D01*
X177055901Y-95220627D01*
X177248036Y-95122728D01*
X177422496Y-94995974D01*
X177422497Y-94995974D01*
X177574974Y-94843497D01*
X177574974Y-94843496D01*
X177701728Y-94669036D01*
X177799627Y-94476901D01*
X177866265Y-94271809D01*
X177900000Y-94058820D01*
X177900000Y-93976000D01*
X177072709Y-93976000D01*
X177084452Y-93955661D01*
X177125000Y-93804333D01*
X177125000Y-93647667D01*
X177084452Y-93496339D01*
X177072709Y-93476000D01*
X177900000Y-93476000D01*
X177900000Y-93393179D01*
X177866265Y-93180190D01*
X177799627Y-92975098D01*
X177701728Y-92782963D01*
X177644345Y-92703983D01*
X186081500Y-92703983D01*
X186081500Y-94494001D01*
X186081501Y-94494018D01*
X186092000Y-94596796D01*
X186092001Y-94596799D01*
X186129774Y-94710788D01*
X186147186Y-94763334D01*
X186239288Y-94912656D01*
X186363344Y-95036712D01*
X186512666Y-95128814D01*
X186679203Y-95183999D01*
X186781991Y-95194500D01*
X188122008Y-95194499D01*
X188224797Y-95183999D01*
X188391334Y-95128814D01*
X188540656Y-95036712D01*
X188664712Y-94912656D01*
X188756814Y-94763334D01*
X188756817Y-94763323D01*
X188757353Y-94762177D01*
X188757934Y-94761516D01*
X188760605Y-94757187D01*
X188761344Y-94757643D01*
X188803521Y-94709734D01*
X188870713Y-94690577D01*
X188937596Y-94710788D01*
X188957420Y-94726892D01*
X189099502Y-94868974D01*
X189273963Y-94995728D01*
X189466098Y-95093627D01*
X189671190Y-95160266D01*
X189742000Y-95171481D01*
X189742000Y-94141709D01*
X189762339Y-94153452D01*
X189913667Y-94194000D01*
X190070333Y-94194000D01*
X190221661Y-94153452D01*
X190242000Y-94141709D01*
X190242000Y-95171480D01*
X190312809Y-95160266D01*
X190517901Y-95093627D01*
X190710036Y-94995728D01*
X190884496Y-94868974D01*
X190884497Y-94868974D01*
X191036974Y-94716497D01*
X191036974Y-94716496D01*
X191163728Y-94542036D01*
X191261627Y-94349901D01*
X191328265Y-94144809D01*
X191362000Y-93931820D01*
X191362000Y-93849000D01*
X190534709Y-93849000D01*
X190546452Y-93828661D01*
X190587000Y-93677333D01*
X190587000Y-93520667D01*
X190546452Y-93369339D01*
X190534709Y-93349000D01*
X191362000Y-93349000D01*
X191362000Y-93266179D01*
X191328265Y-93053190D01*
X191261627Y-92848098D01*
X191163728Y-92655963D01*
X191036974Y-92481503D01*
X191036974Y-92481502D01*
X190884497Y-92329025D01*
X190710036Y-92202271D01*
X190517899Y-92104372D01*
X190312805Y-92037733D01*
X190242000Y-92026518D01*
X190242000Y-93056290D01*
X190221661Y-93044548D01*
X190070333Y-93004000D01*
X189913667Y-93004000D01*
X189762339Y-93044548D01*
X189742000Y-93056290D01*
X189742000Y-92026518D01*
X189741999Y-92026518D01*
X189671194Y-92037733D01*
X189466100Y-92104372D01*
X189273963Y-92202271D01*
X189099506Y-92329022D01*
X188957420Y-92471108D01*
X188896097Y-92504592D01*
X188826405Y-92499608D01*
X188770472Y-92457736D01*
X188757356Y-92435828D01*
X188756816Y-92434670D01*
X188756812Y-92434663D01*
X188664712Y-92285344D01*
X188540656Y-92161288D01*
X188391334Y-92069186D01*
X188224797Y-92014001D01*
X188224795Y-92014000D01*
X188122010Y-92003500D01*
X186781998Y-92003500D01*
X186781981Y-92003501D01*
X186679203Y-92014000D01*
X186679200Y-92014001D01*
X186512668Y-92069185D01*
X186512663Y-92069187D01*
X186363342Y-92161289D01*
X186239289Y-92285342D01*
X186147187Y-92434663D01*
X186147185Y-92434668D01*
X186138215Y-92461738D01*
X186092001Y-92601203D01*
X186092001Y-92601204D01*
X186092000Y-92601204D01*
X186081500Y-92703983D01*
X177644345Y-92703983D01*
X177574974Y-92608503D01*
X177574974Y-92608502D01*
X177422497Y-92456025D01*
X177248036Y-92329271D01*
X177055899Y-92231372D01*
X176850805Y-92164733D01*
X176780000Y-92153518D01*
X176780000Y-93183290D01*
X176759661Y-93171548D01*
X176608333Y-93131000D01*
X176451667Y-93131000D01*
X176300339Y-93171548D01*
X176280000Y-93183290D01*
X176280000Y-92153518D01*
X176279999Y-92153518D01*
X176209194Y-92164733D01*
X176004100Y-92231372D01*
X175811963Y-92329271D01*
X175637506Y-92456022D01*
X175495420Y-92598108D01*
X175434097Y-92631592D01*
X175364405Y-92626608D01*
X175308472Y-92584736D01*
X175295356Y-92562828D01*
X175294816Y-92561670D01*
X175294812Y-92561663D01*
X175202712Y-92412344D01*
X175078656Y-92288288D01*
X174985888Y-92231069D01*
X174929336Y-92196187D01*
X174929331Y-92196185D01*
X174927862Y-92195698D01*
X174762797Y-92141001D01*
X174762795Y-92141000D01*
X174660010Y-92130500D01*
X173319998Y-92130500D01*
X173319981Y-92130501D01*
X173217203Y-92141000D01*
X173217200Y-92141001D01*
X173050668Y-92196185D01*
X173050663Y-92196187D01*
X172901342Y-92288289D01*
X172777289Y-92412342D01*
X172685187Y-92561663D01*
X172685185Y-92561668D01*
X172684801Y-92562828D01*
X172630001Y-92728203D01*
X172630001Y-92728204D01*
X172630000Y-92728204D01*
X172619500Y-92830983D01*
X167859500Y-92830983D01*
X167859500Y-91275059D01*
X167859501Y-91275046D01*
X167859501Y-91106945D01*
X167859501Y-91106943D01*
X167818577Y-90954215D01*
X167752607Y-90839952D01*
X167739520Y-90817284D01*
X167627716Y-90705480D01*
X167627715Y-90705479D01*
X167623385Y-90701149D01*
X167623374Y-90701139D01*
X166288416Y-89366181D01*
X166254931Y-89304858D01*
X166259915Y-89235166D01*
X166301787Y-89179233D01*
X166367251Y-89154816D01*
X166376097Y-89154500D01*
X174757331Y-89154500D01*
X174757347Y-89154501D01*
X174764943Y-89154501D01*
X174923054Y-89154501D01*
X174923057Y-89154501D01*
X175075785Y-89113577D01*
X175125904Y-89084639D01*
X175212716Y-89034520D01*
X175324520Y-88922716D01*
X175324520Y-88922714D01*
X175334728Y-88912507D01*
X175334729Y-88912504D01*
X177056536Y-87190698D01*
X177117857Y-87157215D01*
X177130310Y-87155163D01*
X177217255Y-87145368D01*
X177387522Y-87085789D01*
X177540262Y-86989816D01*
X177667816Y-86862262D01*
X177763789Y-86709522D01*
X177823368Y-86539255D01*
X177823369Y-86539249D01*
X177843565Y-86360003D01*
X177843565Y-86359996D01*
X177823369Y-86180750D01*
X177823368Y-86180745D01*
X177799221Y-86111737D01*
X177763789Y-86010478D01*
X177747267Y-85984184D01*
X177667815Y-85857737D01*
X177540262Y-85730184D01*
X177387523Y-85634211D01*
X177217254Y-85574631D01*
X177217249Y-85574630D01*
X177038004Y-85554435D01*
X177037996Y-85554435D01*
X176858750Y-85574630D01*
X176858745Y-85574631D01*
X176688476Y-85634211D01*
X176535737Y-85730184D01*
X176408184Y-85857737D01*
X176312210Y-86010478D01*
X176252630Y-86180750D01*
X176242837Y-86267667D01*
X176215770Y-86332081D01*
X176207298Y-86341464D01*
X174631584Y-87917181D01*
X174570261Y-87950666D01*
X174543903Y-87953500D01*
X166306096Y-87953500D01*
X166239057Y-87933815D01*
X166193302Y-87881011D01*
X166183358Y-87811853D01*
X166212383Y-87748297D01*
X166218415Y-87741819D01*
X166623554Y-87336680D01*
X168431520Y-85528716D01*
X168510577Y-85391784D01*
X168551501Y-85239057D01*
X168551501Y-85080942D01*
X168551501Y-85073347D01*
X168551500Y-85073329D01*
X168551500Y-62203003D01*
X168551501Y-62202990D01*
X168551501Y-62034887D01*
X168547468Y-62019836D01*
X168510577Y-61882159D01*
X168483590Y-61835416D01*
X168431524Y-61745233D01*
X168431518Y-61745225D01*
X167115225Y-60428932D01*
X165783020Y-59096728D01*
X165749536Y-59035406D01*
X165754520Y-58965714D01*
X165796392Y-58909781D01*
X165830438Y-58891767D01*
X165987260Y-58837931D01*
X166045492Y-58817940D01*
X166045495Y-58817938D01*
X166045503Y-58817936D01*
X166249626Y-58707470D01*
X166432784Y-58564913D01*
X166589979Y-58394153D01*
X166601616Y-58376342D01*
X166682663Y-58252289D01*
X166716924Y-58199849D01*
X166810157Y-57987300D01*
X166867134Y-57762305D01*
X166867135Y-57762297D01*
X166886300Y-57531006D01*
X166886300Y-57530993D01*
X166867135Y-57299702D01*
X166867133Y-57299691D01*
X166855011Y-57251822D01*
X166810157Y-57074700D01*
X166751879Y-56941841D01*
X166742977Y-56872544D01*
X166772954Y-56809431D01*
X166832293Y-56772544D01*
X166902155Y-56773594D01*
X166953117Y-56804352D01*
X169035181Y-58886416D01*
X169068666Y-58947739D01*
X169071500Y-58974097D01*
X169071500Y-64187587D01*
X169051815Y-64254626D01*
X169044450Y-64264896D01*
X169042186Y-64267734D01*
X168946211Y-64420476D01*
X168886631Y-64590745D01*
X168886630Y-64590750D01*
X168866435Y-64769996D01*
X168866435Y-64770003D01*
X168886630Y-64949249D01*
X168886631Y-64949254D01*
X168946211Y-65119523D01*
X168977494Y-65169309D01*
X169042184Y-65272262D01*
X169169738Y-65399816D01*
X169322478Y-65495789D01*
X169492745Y-65555368D01*
X169492750Y-65555369D01*
X169671996Y-65575565D01*
X169672000Y-65575565D01*
X169672004Y-65575565D01*
X169851249Y-65555369D01*
X169851252Y-65555368D01*
X169851255Y-65555368D01*
X170021522Y-65495789D01*
X170174262Y-65399816D01*
X170301816Y-65272262D01*
X170397789Y-65119522D01*
X170457368Y-64949255D01*
X170463296Y-64896641D01*
X170477565Y-64770003D01*
X170477565Y-64769996D01*
X170457369Y-64590750D01*
X170457368Y-64590745D01*
X170454481Y-64582494D01*
X170397789Y-64420478D01*
X170301816Y-64267738D01*
X170301814Y-64267736D01*
X170301813Y-64267734D01*
X170299550Y-64264896D01*
X170298659Y-64262715D01*
X170298111Y-64261842D01*
X170298264Y-64261745D01*
X170273144Y-64200209D01*
X170272500Y-64187587D01*
X170272500Y-58586816D01*
X170275300Y-58586816D01*
X170283963Y-58531241D01*
X170330339Y-58478982D01*
X170397607Y-58460092D01*
X170410008Y-58460861D01*
X170434000Y-58463565D01*
X170434001Y-58463564D01*
X170434002Y-58463565D01*
X170434004Y-58463565D01*
X170613249Y-58443369D01*
X170613252Y-58443368D01*
X170613255Y-58443368D01*
X170783522Y-58383789D01*
X170936262Y-58287816D01*
X171063816Y-58160262D01*
X171159789Y-58007522D01*
X171219368Y-57837255D01*
X171219369Y-57837249D01*
X171239565Y-57658003D01*
X171239565Y-57657996D01*
X171219369Y-57478750D01*
X171219368Y-57478745D01*
X171193338Y-57404356D01*
X171159789Y-57308478D01*
X171153416Y-57298336D01*
X171108002Y-57226060D01*
X171063816Y-57155738D01*
X170936262Y-57028184D01*
X170798853Y-56941844D01*
X170783521Y-56932210D01*
X170613249Y-56872630D01*
X170526330Y-56862837D01*
X170461916Y-56835770D01*
X170452533Y-56827298D01*
X168500676Y-54875441D01*
X193099500Y-54875441D01*
X193099500Y-55124558D01*
X193099501Y-55124575D01*
X193132017Y-55371561D01*
X193196498Y-55612207D01*
X193291830Y-55842361D01*
X193291837Y-55842376D01*
X193416400Y-56058126D01*
X193568060Y-56255774D01*
X193568066Y-56255781D01*
X193744218Y-56431933D01*
X193744225Y-56431939D01*
X193941873Y-56583599D01*
X194157623Y-56708162D01*
X194157638Y-56708169D01*
X194256825Y-56749253D01*
X194387793Y-56803502D01*
X194628435Y-56867982D01*
X194875435Y-56900500D01*
X194875442Y-56900500D01*
X195124558Y-56900500D01*
X195124565Y-56900500D01*
X195371565Y-56867982D01*
X195612207Y-56803502D01*
X195842373Y-56708164D01*
X196058127Y-56583599D01*
X196255776Y-56431938D01*
X196431938Y-56255776D01*
X196583599Y-56058127D01*
X196708164Y-55842373D01*
X196803502Y-55612207D01*
X196867982Y-55371565D01*
X196900500Y-55124565D01*
X196900500Y-54875435D01*
X196867982Y-54628435D01*
X196803502Y-54387793D01*
X196708164Y-54157627D01*
X196646847Y-54051423D01*
X196583599Y-53941873D01*
X196431939Y-53744225D01*
X196431933Y-53744218D01*
X196255781Y-53568066D01*
X196255774Y-53568060D01*
X196058126Y-53416400D01*
X195842376Y-53291837D01*
X195842361Y-53291830D01*
X195612207Y-53196498D01*
X195371561Y-53132017D01*
X195124575Y-53099501D01*
X195124570Y-53099500D01*
X195124565Y-53099500D01*
X194875435Y-53099500D01*
X194875429Y-53099500D01*
X194875424Y-53099501D01*
X194628438Y-53132017D01*
X194387792Y-53196498D01*
X194157638Y-53291830D01*
X194157623Y-53291837D01*
X193941873Y-53416400D01*
X193744225Y-53568060D01*
X193744218Y-53568066D01*
X193568066Y-53744218D01*
X193568060Y-53744225D01*
X193416400Y-53941873D01*
X193291837Y-54157623D01*
X193291830Y-54157638D01*
X193196498Y-54387792D01*
X193132017Y-54628438D01*
X193099501Y-54875424D01*
X193099500Y-54875441D01*
X168500676Y-54875441D01*
X165333590Y-51708355D01*
X165333588Y-51708352D01*
X165214717Y-51589481D01*
X165214716Y-51589480D01*
X165127904Y-51539360D01*
X165127904Y-51539359D01*
X165127900Y-51539358D01*
X165077785Y-51510423D01*
X164925057Y-51469499D01*
X164766943Y-51469499D01*
X164759347Y-51469499D01*
X164759331Y-51469500D01*
X128483669Y-51469500D01*
X128483653Y-51469499D01*
X128476057Y-51469499D01*
X128317943Y-51469499D01*
X128210587Y-51498265D01*
X128165210Y-51510424D01*
X128165209Y-51510425D01*
X128115096Y-51539359D01*
X128115095Y-51539360D01*
X128071689Y-51564420D01*
X128028285Y-51589479D01*
X128028282Y-51589481D01*
X127916478Y-51701286D01*
X125263584Y-54354181D01*
X125202261Y-54387666D01*
X125175903Y-54390500D01*
X124853113Y-54390500D01*
X124786074Y-54370815D01*
X124740319Y-54318011D01*
X124735182Y-54304819D01*
X124714090Y-54239906D01*
X124640762Y-54095991D01*
X124616157Y-54047701D01*
X124489359Y-53873179D01*
X124336821Y-53720641D01*
X124162299Y-53593843D01*
X123970089Y-53495908D01*
X123764926Y-53429246D01*
X123764924Y-53429245D01*
X123764922Y-53429245D01*
X123551866Y-53395500D01*
X123551861Y-53395500D01*
X123336139Y-53395500D01*
X123336134Y-53395500D01*
X123123077Y-53429245D01*
X122917908Y-53495909D01*
X122725700Y-53593843D01*
X122551180Y-53720640D01*
X122409195Y-53862625D01*
X122347872Y-53896109D01*
X122278180Y-53891125D01*
X122222247Y-53849253D01*
X122209132Y-53827348D01*
X122208815Y-53826669D01*
X122208814Y-53826668D01*
X122208814Y-53826666D01*
X122116712Y-53677344D01*
X121992656Y-53553288D01*
X121843334Y-53461186D01*
X121676797Y-53406001D01*
X121676795Y-53406000D01*
X121574010Y-53395500D01*
X120233998Y-53395500D01*
X120233981Y-53395501D01*
X120131203Y-53406000D01*
X120131200Y-53406001D01*
X119964668Y-53461185D01*
X119964663Y-53461187D01*
X119815342Y-53553289D01*
X119691289Y-53677342D01*
X119599187Y-53826663D01*
X119599186Y-53826666D01*
X119544001Y-53993203D01*
X119544001Y-53993204D01*
X119544000Y-53993204D01*
X119533500Y-54095983D01*
X119533500Y-55886001D01*
X119533501Y-55886018D01*
X119544000Y-55988796D01*
X119544001Y-55988799D01*
X119599185Y-56155331D01*
X119599187Y-56155336D01*
X119600166Y-56156923D01*
X119691288Y-56304656D01*
X119815344Y-56428712D01*
X119964666Y-56520814D01*
X120131203Y-56575999D01*
X120233991Y-56586500D01*
X121574008Y-56586499D01*
X121584576Y-56585419D01*
X121653268Y-56598187D01*
X121684861Y-56621096D01*
X128039139Y-62975374D01*
X128039149Y-62975385D01*
X128043479Y-62979715D01*
X128043480Y-62979716D01*
X128155284Y-63091520D01*
X128155286Y-63091521D01*
X128155290Y-63091524D01*
X128292209Y-63170573D01*
X128292216Y-63170577D01*
X128400371Y-63199557D01*
X128400370Y-63199557D01*
X128412313Y-63202756D01*
X128444942Y-63211500D01*
X128444943Y-63211500D01*
X147446501Y-63211500D01*
X147513540Y-63231185D01*
X147559295Y-63283989D01*
X147570501Y-63335500D01*
X147570501Y-63558876D01*
X147576908Y-63618483D01*
X147627202Y-63753328D01*
X147627206Y-63753335D01*
X147713452Y-63868544D01*
X147713455Y-63868547D01*
X147828664Y-63954793D01*
X147828671Y-63954797D01*
X147963517Y-64005091D01*
X147963516Y-64005091D01*
X147970444Y-64005835D01*
X148023127Y-64011500D01*
X149918872Y-64011499D01*
X149978483Y-64005091D01*
X150113331Y-63954796D01*
X150228546Y-63868546D01*
X150314796Y-63753331D01*
X150343455Y-63676493D01*
X150385326Y-63620559D01*
X150450790Y-63596141D01*
X150519063Y-63610992D01*
X150550866Y-63635843D01*
X150558302Y-63643920D01*
X150559215Y-63644912D01*
X150559222Y-63644918D01*
X150742365Y-63787464D01*
X150742371Y-63787468D01*
X150742374Y-63787470D01*
X150946497Y-63897936D01*
X151166019Y-63973298D01*
X151314910Y-63998143D01*
X151377795Y-64028593D01*
X151414234Y-64088208D01*
X151418500Y-64120452D01*
X151418500Y-69858612D01*
X151418499Y-69858630D01*
X151418499Y-70024336D01*
X151418498Y-70024336D01*
X151449889Y-70141489D01*
X151459423Y-70177067D01*
X151462801Y-70182917D01*
X151488140Y-70226807D01*
X151504613Y-70294705D01*
X151481761Y-70360732D01*
X151475518Y-70368113D01*
X151475622Y-70368196D01*
X151471280Y-70373640D01*
X151375305Y-70526382D01*
X151315725Y-70696651D01*
X151315724Y-70696656D01*
X151295529Y-70875902D01*
X151295529Y-70875909D01*
X151315724Y-71055155D01*
X151315725Y-71055160D01*
X151375305Y-71225429D01*
X151471278Y-71378168D01*
X151474181Y-71381071D01*
X151475457Y-71383407D01*
X151475619Y-71383611D01*
X151475583Y-71383639D01*
X151507666Y-71442394D01*
X151510500Y-71468752D01*
X151510500Y-77585902D01*
X151490815Y-77652941D01*
X151474181Y-77673583D01*
X146253584Y-82894181D01*
X146192261Y-82927666D01*
X146165903Y-82930500D01*
X138838322Y-82930500D01*
X138771283Y-82910815D01*
X138725528Y-82858011D01*
X138715102Y-82820383D01*
X138707369Y-82751748D01*
X138683458Y-82683414D01*
X138676500Y-82642459D01*
X138676500Y-81945128D01*
X138676501Y-81945107D01*
X138676501Y-81790367D01*
X138647506Y-81644608D01*
X138647505Y-81644607D01*
X138647505Y-81644603D01*
X138590630Y-81507293D01*
X138508059Y-81383716D01*
X138508057Y-81383713D01*
X137318286Y-80193942D01*
X137277091Y-80166417D01*
X137194707Y-80111370D01*
X137194704Y-80111368D01*
X137194703Y-80111368D01*
X137114273Y-80078053D01*
X137057398Y-80054495D01*
X137057388Y-80054493D01*
X137033212Y-80049684D01*
X136911632Y-80025499D01*
X136911630Y-80025499D01*
X136763006Y-80025499D01*
X136756892Y-80025499D01*
X136756872Y-80025500D01*
X120948683Y-80025500D01*
X120802927Y-80054493D01*
X120802919Y-80054495D01*
X120665608Y-80111371D01*
X120542035Y-80193939D01*
X120542034Y-80193940D01*
X120489488Y-80246487D01*
X120436941Y-80299034D01*
X107908794Y-92827181D01*
X107847471Y-92860666D01*
X107821113Y-92863500D01*
X107236134Y-92863500D01*
X107023077Y-92897245D01*
X107023072Y-92897246D01*
X106936817Y-92925272D01*
X106866976Y-92927267D01*
X106807144Y-92891186D01*
X106776316Y-92828485D01*
X106774500Y-92807341D01*
X106774500Y-88870499D01*
X106794185Y-88803460D01*
X106846989Y-88757705D01*
X106898500Y-88746499D01*
X108464002Y-88746499D01*
X108464008Y-88746499D01*
X108566797Y-88735999D01*
X108733334Y-88680814D01*
X108882656Y-88588712D01*
X109006712Y-88464656D01*
X109098814Y-88315334D01*
X109153999Y-88148797D01*
X109164500Y-88046009D01*
X109164499Y-86705992D01*
X109153999Y-86603203D01*
X109098814Y-86436666D01*
X109006712Y-86287344D01*
X108882656Y-86163288D01*
X108733334Y-86071186D01*
X108733326Y-86071181D01*
X108732645Y-86070864D01*
X108732256Y-86070521D01*
X108727187Y-86067395D01*
X108727721Y-86066528D01*
X108680208Y-86024688D01*
X108661060Y-85957494D01*
X108681280Y-85890614D01*
X108697366Y-85870813D01*
X108839359Y-85728821D01*
X108966157Y-85554299D01*
X109064092Y-85362089D01*
X109130754Y-85156926D01*
X109145752Y-85062230D01*
X109164500Y-84943866D01*
X109164500Y-84728133D01*
X109141353Y-84581996D01*
X109130754Y-84515074D01*
X109064092Y-84309911D01*
X108966157Y-84117701D01*
X108839359Y-83943179D01*
X108686821Y-83790641D01*
X108515279Y-83666008D01*
X108472614Y-83610678D01*
X108466635Y-83541064D01*
X108499241Y-83479269D01*
X108515280Y-83465372D01*
X108686491Y-83340979D01*
X108686497Y-83340974D01*
X108838974Y-83188497D01*
X108838974Y-83188496D01*
X108965728Y-83014036D01*
X109063627Y-82821901D01*
X109130266Y-82616809D01*
X109141481Y-82546000D01*
X108111709Y-82546000D01*
X108123452Y-82525661D01*
X108164000Y-82374333D01*
X108164000Y-82217667D01*
X108123452Y-82066339D01*
X108111709Y-82046000D01*
X109141481Y-82046000D01*
X109130266Y-81975190D01*
X109063627Y-81770098D01*
X108965728Y-81577963D01*
X108838974Y-81403503D01*
X108838974Y-81403502D01*
X108686497Y-81251025D01*
X108512036Y-81124271D01*
X108319901Y-81026372D01*
X108114809Y-80959734D01*
X107901820Y-80926000D01*
X107819000Y-80926000D01*
X107819000Y-81753290D01*
X107798661Y-81741548D01*
X107647333Y-81701000D01*
X107490667Y-81701000D01*
X107339339Y-81741548D01*
X107319000Y-81753290D01*
X107319000Y-80926000D01*
X107236180Y-80926000D01*
X107023189Y-80959734D01*
X107023182Y-80959735D01*
X106936817Y-80987797D01*
X106866976Y-80989792D01*
X106807144Y-80953711D01*
X106776316Y-80891010D01*
X106774500Y-80869866D01*
X106774500Y-76805499D01*
X106794185Y-76738460D01*
X106846989Y-76692705D01*
X106898500Y-76681499D01*
X108464002Y-76681499D01*
X108464008Y-76681499D01*
X108566797Y-76670999D01*
X108733334Y-76615814D01*
X108882656Y-76523712D01*
X109006712Y-76399656D01*
X109098814Y-76250334D01*
X109153999Y-76083797D01*
X109164500Y-75981009D01*
X109164499Y-74640992D01*
X109153999Y-74538203D01*
X109098814Y-74371666D01*
X109006712Y-74222344D01*
X108882656Y-74098288D01*
X108733334Y-74006186D01*
X108733326Y-74006181D01*
X108732645Y-74005864D01*
X108732256Y-74005521D01*
X108727187Y-74002395D01*
X108727721Y-74001528D01*
X108680208Y-73959688D01*
X108661060Y-73892494D01*
X108681280Y-73825614D01*
X108697366Y-73805813D01*
X108839359Y-73663821D01*
X108966157Y-73489299D01*
X109064092Y-73297089D01*
X109130754Y-73091926D01*
X109156434Y-72929790D01*
X109164500Y-72878866D01*
X109164500Y-72663133D01*
X109138093Y-72496411D01*
X109130754Y-72450074D01*
X109064092Y-72244911D01*
X108966157Y-72052701D01*
X108839359Y-71878179D01*
X108686821Y-71725641D01*
X108515279Y-71601008D01*
X108472614Y-71545678D01*
X108466635Y-71476064D01*
X108499241Y-71414269D01*
X108515280Y-71400372D01*
X108551583Y-71373996D01*
X115780435Y-71373996D01*
X115780435Y-71374003D01*
X115800630Y-71553249D01*
X115800631Y-71553254D01*
X115860211Y-71723523D01*
X115941064Y-71852199D01*
X115956184Y-71876262D01*
X116083738Y-72003816D01*
X116236478Y-72099789D01*
X116406745Y-72159368D01*
X116450635Y-72164313D01*
X116515048Y-72191378D01*
X116524433Y-72199852D01*
X122448589Y-78124008D01*
X122494099Y-78169518D01*
X122535993Y-78211412D01*
X122638760Y-78280079D01*
X122638773Y-78280086D01*
X122685919Y-78299614D01*
X122752965Y-78327385D01*
X122752969Y-78327385D01*
X122752970Y-78327386D01*
X122874194Y-78351500D01*
X122874197Y-78351500D01*
X122997803Y-78351500D01*
X138396328Y-78351500D01*
X138462299Y-78370505D01*
X138588478Y-78449789D01*
X138675565Y-78480262D01*
X138758745Y-78509368D01*
X138758750Y-78509369D01*
X138937996Y-78529565D01*
X138938000Y-78529565D01*
X138938004Y-78529565D01*
X139117249Y-78509369D01*
X139117252Y-78509368D01*
X139117255Y-78509368D01*
X139287522Y-78449789D01*
X139440262Y-78353816D01*
X139567816Y-78226262D01*
X139663789Y-78073522D01*
X139723368Y-77903255D01*
X139723369Y-77903249D01*
X139743565Y-77724003D01*
X139743565Y-77723996D01*
X139723369Y-77544750D01*
X139723368Y-77544745D01*
X139699221Y-77475737D01*
X139663789Y-77374478D01*
X139652043Y-77355785D01*
X139594335Y-77263943D01*
X139567816Y-77221738D01*
X139440262Y-77094184D01*
X139413700Y-77077494D01*
X139287523Y-76998211D01*
X139117254Y-76938631D01*
X139117249Y-76938630D01*
X138938004Y-76918435D01*
X138937996Y-76918435D01*
X138758750Y-76938630D01*
X138758745Y-76938631D01*
X138588476Y-76998211D01*
X138462300Y-77077494D01*
X138396328Y-77096500D01*
X123247281Y-77096500D01*
X123180242Y-77076815D01*
X123159600Y-77060181D01*
X120775415Y-74675996D01*
X128893435Y-74675996D01*
X128893435Y-74676003D01*
X128913630Y-74855249D01*
X128913631Y-74855254D01*
X128973211Y-75025523D01*
X129069184Y-75178262D01*
X129196738Y-75305816D01*
X129214122Y-75316739D01*
X129325710Y-75386855D01*
X129349478Y-75401789D01*
X129402494Y-75420340D01*
X129519745Y-75461368D01*
X129519750Y-75461369D01*
X129698996Y-75481565D01*
X129699000Y-75481565D01*
X129699004Y-75481565D01*
X129878249Y-75461369D01*
X129878252Y-75461368D01*
X129878255Y-75461368D01*
X130048522Y-75401789D01*
X130201262Y-75305816D01*
X130201267Y-75305810D01*
X130204097Y-75303555D01*
X130206275Y-75302665D01*
X130207158Y-75302111D01*
X130207255Y-75302265D01*
X130268783Y-75277145D01*
X130281412Y-75276500D01*
X131231331Y-75276500D01*
X131231347Y-75276501D01*
X131238943Y-75276501D01*
X131397054Y-75276501D01*
X131397057Y-75276501D01*
X131549785Y-75235577D01*
X131629180Y-75189738D01*
X131686716Y-75156520D01*
X131798520Y-75044716D01*
X131798520Y-75044714D01*
X131808724Y-75034511D01*
X131808728Y-75034506D01*
X139200733Y-67642500D01*
X139262054Y-67609017D01*
X139331746Y-67614001D01*
X139344706Y-67619698D01*
X139427905Y-67662089D01*
X139427911Y-67662092D01*
X139633074Y-67728754D01*
X139712973Y-67741408D01*
X139846134Y-67762500D01*
X139846139Y-67762500D01*
X140061866Y-67762500D01*
X140180230Y-67743752D01*
X140274926Y-67728754D01*
X140480089Y-67662092D01*
X140672299Y-67564157D01*
X140846821Y-67437359D01*
X140999359Y-67284821D01*
X141126157Y-67110299D01*
X141224092Y-66918089D01*
X141290754Y-66712926D01*
X141305752Y-66618230D01*
X141324500Y-66499866D01*
X141324500Y-65834133D01*
X141290754Y-65621077D01*
X141290754Y-65621074D01*
X141224092Y-65415911D01*
X141126157Y-65223701D01*
X140999359Y-65049179D01*
X140846821Y-64896641D01*
X140672299Y-64769843D01*
X140480089Y-64671908D01*
X140274926Y-64605246D01*
X140274924Y-64605245D01*
X140274922Y-64605245D01*
X140061866Y-64571500D01*
X140061861Y-64571500D01*
X139846139Y-64571500D01*
X139846134Y-64571500D01*
X139633077Y-64605245D01*
X139427908Y-64671909D01*
X139235700Y-64769843D01*
X139061180Y-64896640D01*
X138918816Y-65039004D01*
X138857493Y-65072488D01*
X138787801Y-65067504D01*
X138731868Y-65025632D01*
X138718748Y-65003716D01*
X138718356Y-65002876D01*
X138626315Y-64853654D01*
X138502345Y-64729684D01*
X138353124Y-64637643D01*
X138353119Y-64637641D01*
X138186697Y-64582494D01*
X138186690Y-64582493D01*
X138083986Y-64572000D01*
X137664000Y-64572000D01*
X137664000Y-65624290D01*
X137643661Y-65612548D01*
X137492333Y-65572000D01*
X137335667Y-65572000D01*
X137184339Y-65612548D01*
X137164000Y-65624290D01*
X137164000Y-64572000D01*
X136744028Y-64572000D01*
X136744012Y-64572001D01*
X136641302Y-64582494D01*
X136474880Y-64637641D01*
X136474875Y-64637643D01*
X136325654Y-64729684D01*
X136201684Y-64853654D01*
X136109643Y-65002875D01*
X136109641Y-65002880D01*
X136054494Y-65169302D01*
X136054493Y-65169309D01*
X136044000Y-65272013D01*
X136044000Y-65917000D01*
X136871291Y-65917000D01*
X136859548Y-65937339D01*
X136819000Y-66088667D01*
X136819000Y-66245333D01*
X136859548Y-66396661D01*
X136871291Y-66417000D01*
X136044001Y-66417000D01*
X136044001Y-67061986D01*
X136054494Y-67164697D01*
X136109641Y-67331119D01*
X136109643Y-67331124D01*
X136201684Y-67480345D01*
X136325654Y-67604315D01*
X136474875Y-67696356D01*
X136474880Y-67696358D01*
X136641302Y-67751505D01*
X136641309Y-67751506D01*
X136744019Y-67761999D01*
X137083401Y-67761999D01*
X137150440Y-67781683D01*
X137196195Y-67834487D01*
X137206139Y-67903646D01*
X137177114Y-67967201D01*
X137171082Y-67973680D01*
X131105584Y-74039181D01*
X131044261Y-74072666D01*
X131017903Y-74075500D01*
X130281412Y-74075500D01*
X130214373Y-74055815D01*
X130204097Y-74048445D01*
X130201263Y-74046185D01*
X130201262Y-74046184D01*
X130131572Y-74002395D01*
X130048523Y-73950211D01*
X129878254Y-73890631D01*
X129878249Y-73890630D01*
X129699004Y-73870435D01*
X129698996Y-73870435D01*
X129519750Y-73890630D01*
X129519745Y-73890631D01*
X129349476Y-73950211D01*
X129196737Y-74046184D01*
X129069184Y-74173737D01*
X128973211Y-74326476D01*
X128913631Y-74496745D01*
X128913630Y-74496750D01*
X128893435Y-74675996D01*
X120775415Y-74675996D01*
X117411852Y-71312433D01*
X117378367Y-71251110D01*
X117376314Y-71238648D01*
X117371368Y-71194745D01*
X117311789Y-71024478D01*
X117309543Y-71020904D01*
X117264386Y-70949036D01*
X117215816Y-70871738D01*
X117088262Y-70744184D01*
X117012614Y-70696651D01*
X116935523Y-70648211D01*
X116765254Y-70588631D01*
X116765249Y-70588630D01*
X116586004Y-70568435D01*
X116585996Y-70568435D01*
X116406750Y-70588630D01*
X116406745Y-70588631D01*
X116236476Y-70648211D01*
X116083737Y-70744184D01*
X115956184Y-70871737D01*
X115860211Y-71024476D01*
X115800631Y-71194745D01*
X115800630Y-71194750D01*
X115780435Y-71373996D01*
X108551583Y-71373996D01*
X108686491Y-71275979D01*
X108686497Y-71275974D01*
X108838974Y-71123497D01*
X108838974Y-71123496D01*
X108965728Y-70949036D01*
X109063627Y-70756901D01*
X109130266Y-70551809D01*
X109141481Y-70481000D01*
X108111709Y-70481000D01*
X108123452Y-70460661D01*
X108164000Y-70309333D01*
X108164000Y-70152667D01*
X108123452Y-70001339D01*
X108111709Y-69981000D01*
X109141481Y-69981000D01*
X109130266Y-69910190D01*
X109063627Y-69705098D01*
X108965728Y-69512963D01*
X108838974Y-69338503D01*
X108838974Y-69338502D01*
X108686497Y-69186025D01*
X108512036Y-69059271D01*
X108319901Y-68961372D01*
X108114809Y-68894734D01*
X107901820Y-68861000D01*
X107819000Y-68861000D01*
X107819000Y-69688290D01*
X107798661Y-69676548D01*
X107647333Y-69636000D01*
X107490667Y-69636000D01*
X107339339Y-69676548D01*
X107319000Y-69688290D01*
X107319000Y-68861000D01*
X107236180Y-68861000D01*
X107023190Y-68894734D01*
X106818098Y-68961372D01*
X106625963Y-69059271D01*
X106451503Y-69186025D01*
X106451502Y-69186025D01*
X106299025Y-69338502D01*
X106299025Y-69338503D01*
X106172271Y-69512963D01*
X106074372Y-69705098D01*
X106007733Y-69910190D01*
X105996519Y-69981000D01*
X107026291Y-69981000D01*
X107014548Y-70001339D01*
X106974000Y-70152667D01*
X106974000Y-70309333D01*
X107014548Y-70460661D01*
X107026291Y-70481000D01*
X105996519Y-70481000D01*
X106007733Y-70551809D01*
X106074372Y-70756901D01*
X106172271Y-70949036D01*
X106299025Y-71123496D01*
X106299025Y-71123497D01*
X106451502Y-71275974D01*
X106622720Y-71400372D01*
X106665385Y-71455702D01*
X106671364Y-71525316D01*
X106638758Y-71587110D01*
X106622720Y-71601008D01*
X106451177Y-71725642D01*
X106298643Y-71878176D01*
X106298643Y-71878177D01*
X106298641Y-71878179D01*
X106244186Y-71953129D01*
X106171843Y-72052700D01*
X106073909Y-72244908D01*
X106007245Y-72450077D01*
X105973500Y-72663133D01*
X105973500Y-72878866D01*
X106007246Y-73091927D01*
X106007246Y-73091930D01*
X106026387Y-73150838D01*
X106028382Y-73220679D01*
X105996137Y-73276837D01*
X105433943Y-73839030D01*
X105433942Y-73839031D01*
X105351372Y-73962607D01*
X105351366Y-73962618D01*
X105294496Y-74099916D01*
X105294493Y-74099926D01*
X105265499Y-74245685D01*
X100619340Y-74245685D01*
X100693461Y-54875441D01*
X103099500Y-54875441D01*
X103099500Y-55124558D01*
X103099501Y-55124575D01*
X103132017Y-55371561D01*
X103196498Y-55612207D01*
X103291830Y-55842361D01*
X103291837Y-55842376D01*
X103416400Y-56058126D01*
X103568060Y-56255774D01*
X103568066Y-56255781D01*
X103744218Y-56431933D01*
X103744225Y-56431939D01*
X103941873Y-56583599D01*
X104157623Y-56708162D01*
X104157638Y-56708169D01*
X104256825Y-56749253D01*
X104387793Y-56803502D01*
X104628435Y-56867982D01*
X104875435Y-56900500D01*
X104875442Y-56900500D01*
X105124558Y-56900500D01*
X105124565Y-56900500D01*
X105371565Y-56867982D01*
X105612207Y-56803502D01*
X105842373Y-56708164D01*
X106058127Y-56583599D01*
X106255776Y-56431938D01*
X106431938Y-56255776D01*
X106583599Y-56058127D01*
X106708164Y-55842373D01*
X106803502Y-55612207D01*
X106867982Y-55371565D01*
X106900500Y-55124565D01*
X106900500Y-54875435D01*
X106867982Y-54628435D01*
X106803502Y-54387793D01*
X106708164Y-54157627D01*
X106646847Y-54051423D01*
X106583599Y-53941873D01*
X106431939Y-53744225D01*
X106431933Y-53744218D01*
X106255781Y-53568066D01*
X106255774Y-53568060D01*
X106058126Y-53416400D01*
X105842376Y-53291837D01*
X105842361Y-53291830D01*
X105612207Y-53196498D01*
X105371561Y-53132017D01*
X105124575Y-53099501D01*
X105124570Y-53099500D01*
X105124565Y-53099500D01*
X104875435Y-53099500D01*
X104875429Y-53099500D01*
X104875424Y-53099501D01*
X104628438Y-53132017D01*
X104387792Y-53196498D01*
X104157638Y-53291830D01*
X104157623Y-53291837D01*
X103941873Y-53416400D01*
X103744225Y-53568060D01*
X103744218Y-53568066D01*
X103568066Y-53744218D01*
X103568060Y-53744225D01*
X103416400Y-53941873D01*
X103291837Y-54157623D01*
X103291830Y-54157638D01*
X103196498Y-54387792D01*
X103132017Y-54628438D01*
X103099501Y-54875424D01*
X103099500Y-54875441D01*
X100693461Y-54875441D01*
X100710494Y-50424023D01*
X100730435Y-50357062D01*
X100783414Y-50311509D01*
X100834493Y-50300500D01*
X199392830Y-50300500D01*
X199459869Y-50320185D01*
G37*
%TD.AperFunction*%
%TD*%
M02*
