M48
; DRILL file {KiCad 8.0.8} date 2025-03-02T22:54:28-0600
; FORMAT={-:-/ absolute / inch / decimal}
; #@! TF.CreationDate,2025-03-02T22:54:28-06:00
; #@! TF.GenerationSoftware,Kicad,Pcbnew,8.0.8
; #@! TF.FileFunction,Plated,1,2,PTH
FMAT,2
INCH
; #@! TA.AperFunction,Plated,PTH,ComponentDrill
T1C0.0079
; #@! TA.AperFunction,Plated,PTH,ViaDrill
T2C0.0118
; #@! TA.AperFunction,Plated,PTH,ComponentDrill
T3C0.0197
; #@! TA.AperFunction,Plated,PTH,ComponentDrill
T4C0.0217
; #@! TA.AperFunction,Plated,PTH,ComponentDrill
T5C0.0394
; #@! TA.AperFunction,Plated,PTH,ComponentDrill
T6C0.0469
; #@! TA.AperFunction,Plated,PTH,ComponentDrill
T7C0.0500
; #@! TA.AperFunction,Plated,PTH,ComponentDrill
T8C0.0540
%
G90
G05
T1
X6.0463Y-3.3303
X6.0463Y-3.3854
X6.0739Y-3.3027
X6.0739Y-3.3578
X6.0739Y-3.413
X6.1015Y-3.3303
X6.1015Y-3.3854
X6.129Y-3.3027
X6.129Y-3.3578
X6.129Y-3.413
X6.1566Y-3.3303
X6.1566Y-3.3854
T2
X4.59Y-2.81
X5.1063Y-2.94
X5.215Y-4.13
X5.22Y-3.54
X5.375Y-3.21
X5.405Y-4.55
X5.43Y-3.265
X5.43Y-3.46
X5.47Y-3.06
X5.5263Y-4.335
X5.535Y-4.065
X5.73Y-3.66
X5.765Y-4.57
X5.815Y-3.46
X5.816Y-3.06
X5.816Y-3.41
X5.816Y-3.51
X5.9355Y-3.7531
X5.98Y-4.365
X5.9855Y-3.7531
X5.9882Y-2.7904
X6.005Y-5.495
X6.0359Y-2.67
X6.04Y-2.79
X6.04Y-2.84
X6.085Y-2.95
X6.09Y-2.7686
X6.12Y-2.61
X6.12Y-3.07
X6.16Y-2.97
X6.172Y-2.6962
X6.24Y-2.7186
X6.33Y-2.98
X6.3355Y-3.7531
X6.36Y-5.79
X6.375Y-3.33
X6.3855Y-3.7531
X6.4Y-3.48
X6.485Y-3.99
X6.505Y-3.06
X6.505Y-3.11
X6.505Y-3.41
X6.505Y-3.46
X6.505Y-3.51
X6.57Y-2.855
X6.57Y-2.955
X6.68Y-2.55
X6.71Y-2.27
X6.735Y-2.835
X6.865Y-2.735
X6.865Y-2.785
X6.865Y-2.835
X6.865Y-2.985
X6.865Y-3.035
X6.8967Y-5.325
X6.945Y-2.17
X6.97Y-3.4
X7.135Y-5.145
X7.16Y-2.545
T5
X5.865Y-2.465
X5.915Y-2.265
X5.965Y-2.465
X6.015Y-2.265
X6.065Y-2.465
X6.115Y-2.265
X6.165Y-2.465
X6.215Y-2.265
X6.265Y-2.465
X6.315Y-2.265
X6.365Y-2.465
X6.415Y-2.265
X6.465Y-2.465
X6.515Y-2.265
X6.565Y-2.465
T6
X4.235Y-2.765
X4.235Y-2.865
X4.235Y-2.965
X4.235Y-3.24
X4.235Y-3.34
X4.235Y-3.44
X4.235Y-3.71
X4.235Y-3.81
X4.76Y-2.165
X4.86Y-2.165
X5.055Y-5.69
X5.155Y-5.69
X5.255Y-3.835
X5.305Y-2.21
X5.355Y-3.835
X5.405Y-2.21
X5.41Y-2.605
X5.505Y-2.21
X5.51Y-2.605
X5.515Y-4.76
X5.605Y-2.21
X5.615Y-4.76
X5.67Y-4.035
X5.715Y-4.76
X5.77Y-4.035
X6.0Y-4.76
X6.09Y-4.03
X6.1Y-4.76
X6.19Y-4.03
X6.2Y-4.76
X6.29Y-4.03
X6.475Y-4.765
X6.575Y-4.765
X6.675Y-4.765
X6.815Y-2.35
X6.85Y-3.69
X6.915Y-2.35
X6.95Y-3.69
X7.015Y-2.35
X7.115Y-2.35
X7.38Y-3.685
X7.48Y-3.685
T7
X5.625Y-5.745
X5.725Y-5.745
X5.825Y-5.745
T8
X6.56Y-5.725
X6.66Y-5.725
X6.76Y-5.725
T3
G00X4.1378Y-4.2238
M15
G01X4.1122Y-4.2238
M16
G05
G00X4.1378Y-4.4994
M15
G01X4.1122Y-4.4994
M16
G05
T4
G00X4.2313Y-4.2563
M15
G01X4.2313Y-4.27
M16
G05
G00X4.2313Y-4.4531
M15
G01X4.2313Y-4.4669
M16
G05
M30
