%TF.GenerationSoftware,KiCad,Pcbnew,8.0.8*%
%TF.CreationDate,2025-04-15T11:04:33-05:00*%
%TF.ProjectId,PowerOnly,506f7765-724f-46e6-9c79-2e6b69636164,rev?*%
%TF.SameCoordinates,Original*%
%TF.FileFunction,Copper,L2,Bot*%
%TF.FilePolarity,Positive*%
%FSLAX46Y46*%
G04 Gerber Fmt 4.6, Leading zero omitted, Abs format (unit mm)*
G04 Created by KiCad (PCBNEW 8.0.8) date 2025-04-15 11:04:33*
%MOMM*%
%LPD*%
G01*
G04 APERTURE LIST*
G04 Aperture macros list*
%AMRoundRect*
0 Rectangle with rounded corners*
0 $1 Rounding radius*
0 $2 $3 $4 $5 $6 $7 $8 $9 X,Y pos of 4 corners*
0 Add a 4 corners polygon primitive as box body*
4,1,4,$2,$3,$4,$5,$6,$7,$8,$9,$2,$3,0*
0 Add four circle primitives for the rounded corners*
1,1,$1+$1,$2,$3*
1,1,$1+$1,$4,$5*
1,1,$1+$1,$6,$7*
1,1,$1+$1,$8,$9*
0 Add four rect primitives between the rounded corners*
20,1,$1+$1,$2,$3,$4,$5,0*
20,1,$1+$1,$4,$5,$6,$7,0*
20,1,$1+$1,$6,$7,$8,$9,0*
20,1,$1+$1,$8,$9,$2,$3,0*%
G04 Aperture macros list end*
%TA.AperFunction,ComponentPad*%
%ADD10RoundRect,0.250000X0.620000X0.845000X-0.620000X0.845000X-0.620000X-0.845000X0.620000X-0.845000X0*%
%TD*%
%TA.AperFunction,ComponentPad*%
%ADD11O,1.740000X2.190000*%
%TD*%
%TA.AperFunction,ComponentPad*%
%ADD12R,1.879600X1.879600*%
%TD*%
%TA.AperFunction,ComponentPad*%
%ADD13C,1.879600*%
%TD*%
%TA.AperFunction,ComponentPad*%
%ADD14C,1.778000*%
%TD*%
%TA.AperFunction,ComponentPad*%
%ADD15RoundRect,0.250000X0.845000X-0.620000X0.845000X0.620000X-0.845000X0.620000X-0.845000X-0.620000X0*%
%TD*%
%TA.AperFunction,ComponentPad*%
%ADD16O,2.190000X1.740000*%
%TD*%
%TA.AperFunction,Conductor*%
%ADD17C,0.200000*%
%TD*%
G04 APERTURE END LIST*
D10*
%TO.P,J3,1,Pin_1*%
%TO.N,Net-(J3-Pin_1)*%
X133604000Y-73406000D03*
D11*
%TO.P,J3,2,Pin_2*%
%TO.N,GND*%
X131064000Y-73406000D03*
%TD*%
D10*
%TO.P,J2,1,Pin_1*%
%TO.N,Net-(J2-Pin_1)*%
X133350000Y-96774000D03*
D11*
%TO.P,J2,2,Pin_2*%
%TO.N,GND*%
X130810000Y-96774000D03*
%TD*%
D12*
%TO.P,U2,1,IN*%
%TO.N,Net-(J3-Pin_1)*%
X153543000Y-98933000D03*
D13*
%TO.P,U2,2,GND*%
%TO.N,GND*%
X153543000Y-101473000D03*
%TO.P,U2,3,OUT*%
%TO.N,Net-(J2-Pin_1)*%
X153543000Y-104013000D03*
%TD*%
D14*
%TO.P,U1,1,INPUT*%
%TO.N,Net-(J1-Pin_1)*%
X153416000Y-78486000D03*
%TO.P,U1,2,GROUND*%
%TO.N,GND*%
X153416000Y-81026000D03*
%TO.P,U1,3,OUTPUT*%
%TO.N,Net-(J3-Pin_1)*%
X153416000Y-83566000D03*
%TD*%
D15*
%TO.P,J1,1,Pin_1*%
%TO.N,Net-(J1-Pin_1)*%
X153162000Y-61087000D03*
D16*
%TO.P,J1,2,Pin_2*%
%TO.N,GND*%
X153162000Y-58547000D03*
%TD*%
D15*
%TO.P,C3,1*%
%TO.N,Net-(J2-Pin_1)*%
X143510000Y-102997000D03*
D16*
%TO.P,C3,2*%
%TO.N,GND*%
X143510000Y-100457000D03*
%TD*%
D15*
%TO.P,C2,1*%
%TO.N,Net-(J3-Pin_1)*%
X143383000Y-81661000D03*
D16*
%TO.P,C2,2*%
%TO.N,GND*%
X143383000Y-79121000D03*
%TD*%
D15*
%TO.P,C1,1*%
%TO.N,GND*%
X143510000Y-60960000D03*
D16*
%TO.P,C1,2*%
%TO.N,Net-(J1-Pin_1)*%
X143510000Y-58420000D03*
%TD*%
D17*
%TO.N,GND*%
X131064000Y-73406000D02*
X137541000Y-79883000D01*
X142621000Y-79883000D02*
X143383000Y-79121000D01*
X137541000Y-79883000D02*
X142621000Y-79883000D01*
X130810000Y-96774000D02*
X132205000Y-95379000D01*
X132205000Y-95379000D02*
X138432000Y-95379000D01*
X138432000Y-95379000D02*
X143510000Y-100457000D01*
X143510000Y-100457000D02*
X152527000Y-100457000D01*
X152527000Y-100457000D02*
X153543000Y-101473000D01*
X143383000Y-79121000D02*
X151511000Y-79121000D01*
X151511000Y-79121000D02*
X153416000Y-81026000D01*
X143510000Y-60960000D02*
X150749000Y-60960000D01*
X150749000Y-60960000D02*
X153162000Y-58547000D01*
%TD*%
%TA.AperFunction,Conductor*%
%TO.N,GND*%
G36*
X175591539Y-44965185D02*
G01*
X175637294Y-45017989D01*
X175648500Y-45069500D01*
X175648500Y-116073500D01*
X175628815Y-116140539D01*
X175576011Y-116186294D01*
X175524500Y-116197500D01*
X124332500Y-116197500D01*
X124265461Y-116177815D01*
X124219706Y-116125011D01*
X124208500Y-116073500D01*
X124208500Y-109878711D01*
X128149500Y-109878711D01*
X128149500Y-110121288D01*
X128181161Y-110361785D01*
X128243947Y-110596104D01*
X128336773Y-110820205D01*
X128336776Y-110820212D01*
X128458064Y-111030289D01*
X128458066Y-111030292D01*
X128458067Y-111030293D01*
X128605733Y-111222736D01*
X128605739Y-111222743D01*
X128777256Y-111394260D01*
X128777262Y-111394265D01*
X128969711Y-111541936D01*
X129179788Y-111663224D01*
X129403900Y-111756054D01*
X129638211Y-111818838D01*
X129818586Y-111842584D01*
X129878711Y-111850500D01*
X129878712Y-111850500D01*
X130121289Y-111850500D01*
X130169388Y-111844167D01*
X130361789Y-111818838D01*
X130596100Y-111756054D01*
X130820212Y-111663224D01*
X131030289Y-111541936D01*
X131222738Y-111394265D01*
X131394265Y-111222738D01*
X131541936Y-111030289D01*
X131663224Y-110820212D01*
X131756054Y-110596100D01*
X131818838Y-110361789D01*
X131850500Y-110121288D01*
X131850500Y-109878712D01*
X131850500Y-109878711D01*
X168149500Y-109878711D01*
X168149500Y-110121288D01*
X168181161Y-110361785D01*
X168243947Y-110596104D01*
X168336773Y-110820205D01*
X168336776Y-110820212D01*
X168458064Y-111030289D01*
X168458066Y-111030292D01*
X168458067Y-111030293D01*
X168605733Y-111222736D01*
X168605739Y-111222743D01*
X168777256Y-111394260D01*
X168777262Y-111394265D01*
X168969711Y-111541936D01*
X169179788Y-111663224D01*
X169403900Y-111756054D01*
X169638211Y-111818838D01*
X169818586Y-111842584D01*
X169878711Y-111850500D01*
X169878712Y-111850500D01*
X170121289Y-111850500D01*
X170169388Y-111844167D01*
X170361789Y-111818838D01*
X170596100Y-111756054D01*
X170820212Y-111663224D01*
X171030289Y-111541936D01*
X171222738Y-111394265D01*
X171394265Y-111222738D01*
X171541936Y-111030289D01*
X171663224Y-110820212D01*
X171756054Y-110596100D01*
X171818838Y-110361789D01*
X171850500Y-110121288D01*
X171850500Y-109878712D01*
X171818838Y-109638211D01*
X171756054Y-109403900D01*
X171663224Y-109179788D01*
X171541936Y-108969711D01*
X171394265Y-108777262D01*
X171394260Y-108777256D01*
X171222743Y-108605739D01*
X171222736Y-108605733D01*
X171030293Y-108458067D01*
X171030292Y-108458066D01*
X171030289Y-108458064D01*
X170820212Y-108336776D01*
X170820205Y-108336773D01*
X170596104Y-108243947D01*
X170361785Y-108181161D01*
X170121289Y-108149500D01*
X170121288Y-108149500D01*
X169878712Y-108149500D01*
X169878711Y-108149500D01*
X169638214Y-108181161D01*
X169403895Y-108243947D01*
X169179794Y-108336773D01*
X169179785Y-108336777D01*
X168969706Y-108458067D01*
X168777263Y-108605733D01*
X168777256Y-108605739D01*
X168605739Y-108777256D01*
X168605733Y-108777263D01*
X168458067Y-108969706D01*
X168336777Y-109179785D01*
X168336773Y-109179794D01*
X168243947Y-109403895D01*
X168181161Y-109638214D01*
X168149500Y-109878711D01*
X131850500Y-109878711D01*
X131818838Y-109638211D01*
X131756054Y-109403900D01*
X131663224Y-109179788D01*
X131541936Y-108969711D01*
X131394265Y-108777262D01*
X131394260Y-108777256D01*
X131222743Y-108605739D01*
X131222736Y-108605733D01*
X131030293Y-108458067D01*
X131030292Y-108458066D01*
X131030289Y-108458064D01*
X130820212Y-108336776D01*
X130820205Y-108336773D01*
X130596104Y-108243947D01*
X130361785Y-108181161D01*
X130121289Y-108149500D01*
X130121288Y-108149500D01*
X129878712Y-108149500D01*
X129878711Y-108149500D01*
X129638214Y-108181161D01*
X129403895Y-108243947D01*
X129179794Y-108336773D01*
X129179785Y-108336777D01*
X128969706Y-108458067D01*
X128777263Y-108605733D01*
X128777256Y-108605739D01*
X128605739Y-108777256D01*
X128605733Y-108777263D01*
X128458067Y-108969706D01*
X128336777Y-109179785D01*
X128336773Y-109179794D01*
X128243947Y-109403895D01*
X128181161Y-109638214D01*
X128149500Y-109878711D01*
X124208500Y-109878711D01*
X124208500Y-102326983D01*
X141914500Y-102326983D01*
X141914500Y-103667001D01*
X141914501Y-103667018D01*
X141925000Y-103769796D01*
X141925001Y-103769799D01*
X141926768Y-103775130D01*
X141980186Y-103936334D01*
X142072288Y-104085656D01*
X142196344Y-104209712D01*
X142345666Y-104301814D01*
X142512203Y-104356999D01*
X142614991Y-104367500D01*
X144405008Y-104367499D01*
X144507797Y-104356999D01*
X144674334Y-104301814D01*
X144823656Y-104209712D01*
X144947712Y-104085656D01*
X144992530Y-104012994D01*
X152097764Y-104012994D01*
X152097764Y-104013005D01*
X152117473Y-104250869D01*
X152117475Y-104250881D01*
X152176070Y-104482267D01*
X152271951Y-104700852D01*
X152271953Y-104700856D01*
X152402506Y-104900682D01*
X152564168Y-105076295D01*
X152752531Y-105222903D01*
X152962455Y-105336509D01*
X153188216Y-105414012D01*
X153423653Y-105453300D01*
X153423654Y-105453300D01*
X153662346Y-105453300D01*
X153662347Y-105453300D01*
X153897784Y-105414012D01*
X154123545Y-105336509D01*
X154333469Y-105222903D01*
X154521832Y-105076295D01*
X154683494Y-104900682D01*
X154814047Y-104700856D01*
X154909929Y-104482267D01*
X154968525Y-104250878D01*
X154971936Y-104209712D01*
X154988236Y-104013005D01*
X154988236Y-104012994D01*
X154968526Y-103775130D01*
X154968524Y-103775118D01*
X154909929Y-103543732D01*
X154814048Y-103325147D01*
X154814047Y-103325144D01*
X154683494Y-103125318D01*
X154521832Y-102949705D01*
X154521827Y-102949701D01*
X154521825Y-102949699D01*
X154381571Y-102840535D01*
X154340758Y-102783825D01*
X154337083Y-102714052D01*
X154369992Y-102656387D01*
X154370158Y-102653711D01*
X153817888Y-102101441D01*
X153867848Y-102080748D01*
X153980172Y-102005695D01*
X154075695Y-101910172D01*
X154150748Y-101797848D01*
X154171441Y-101747889D01*
X154722941Y-102299389D01*
X154813604Y-102160621D01*
X154813609Y-102160613D01*
X154909454Y-101942104D01*
X154968030Y-101710796D01*
X154968032Y-101710788D01*
X154987735Y-101473006D01*
X154987735Y-101472993D01*
X154968032Y-101235211D01*
X154968030Y-101235203D01*
X154909454Y-101003895D01*
X154813606Y-100785380D01*
X154722941Y-100646609D01*
X154171441Y-101198110D01*
X154150748Y-101148152D01*
X154075695Y-101035828D01*
X153980172Y-100940305D01*
X153867848Y-100865252D01*
X153817888Y-100844557D01*
X154252828Y-100409618D01*
X154314151Y-100376133D01*
X154340508Y-100373299D01*
X154530672Y-100373299D01*
X154590283Y-100366891D01*
X154725131Y-100316596D01*
X154840346Y-100230346D01*
X154926596Y-100115131D01*
X154976891Y-99980283D01*
X154983300Y-99920673D01*
X154983299Y-97945328D01*
X154976891Y-97885717D01*
X154926596Y-97750869D01*
X154926595Y-97750868D01*
X154926593Y-97750864D01*
X154840347Y-97635655D01*
X154840344Y-97635652D01*
X154725135Y-97549406D01*
X154725128Y-97549402D01*
X154590282Y-97499108D01*
X154590283Y-97499108D01*
X154530683Y-97492701D01*
X154530681Y-97492700D01*
X154530673Y-97492700D01*
X154530664Y-97492700D01*
X152555329Y-97492700D01*
X152555323Y-97492701D01*
X152495716Y-97499108D01*
X152360871Y-97549402D01*
X152360864Y-97549406D01*
X152245655Y-97635652D01*
X152245652Y-97635655D01*
X152159406Y-97750864D01*
X152159402Y-97750871D01*
X152109108Y-97885717D01*
X152102701Y-97945316D01*
X152102701Y-97945323D01*
X152102700Y-97945335D01*
X152102700Y-99920670D01*
X152102701Y-99920676D01*
X152109108Y-99980283D01*
X152159402Y-100115128D01*
X152159406Y-100115135D01*
X152245652Y-100230344D01*
X152245655Y-100230347D01*
X152360864Y-100316593D01*
X152360871Y-100316597D01*
X152405818Y-100333361D01*
X152495717Y-100366891D01*
X152555327Y-100373300D01*
X152745493Y-100373299D01*
X152812530Y-100392983D01*
X152833172Y-100409618D01*
X153268111Y-100844557D01*
X153218152Y-100865252D01*
X153105828Y-100940305D01*
X153010305Y-101035828D01*
X152935252Y-101148152D01*
X152914558Y-101198111D01*
X152363057Y-100646609D01*
X152272392Y-100785382D01*
X152176545Y-101003895D01*
X152117969Y-101235203D01*
X152117967Y-101235211D01*
X152098265Y-101472993D01*
X152098265Y-101473006D01*
X152117967Y-101710788D01*
X152117969Y-101710796D01*
X152176545Y-101942104D01*
X152272391Y-102160614D01*
X152363057Y-102299389D01*
X152914557Y-101747888D01*
X152935252Y-101797848D01*
X153010305Y-101910172D01*
X153105828Y-102005695D01*
X153218152Y-102080748D01*
X153268110Y-102101441D01*
X152715839Y-102653711D01*
X152716313Y-102661345D01*
X152745242Y-102701543D01*
X152748914Y-102771316D01*
X152714281Y-102831999D01*
X152704428Y-102840536D01*
X152564170Y-102949703D01*
X152402506Y-103125317D01*
X152271951Y-103325147D01*
X152176070Y-103543732D01*
X152117475Y-103775118D01*
X152117473Y-103775130D01*
X152097764Y-104012994D01*
X144992530Y-104012994D01*
X145039814Y-103936334D01*
X145094999Y-103769797D01*
X145105500Y-103667009D01*
X145105499Y-102326992D01*
X145094999Y-102224203D01*
X145039814Y-102057666D01*
X144947712Y-101908344D01*
X144823656Y-101784288D01*
X144674334Y-101692186D01*
X144674332Y-101692185D01*
X144674325Y-101692181D01*
X144673165Y-101691640D01*
X144672503Y-101691057D01*
X144668187Y-101688395D01*
X144668642Y-101687657D01*
X144620727Y-101645466D01*
X144601577Y-101578272D01*
X144621795Y-101511392D01*
X144637892Y-101491578D01*
X144779977Y-101349493D01*
X144906728Y-101175036D01*
X145004627Y-100982901D01*
X145071266Y-100777809D01*
X145082481Y-100707000D01*
X144052709Y-100707000D01*
X144064452Y-100686661D01*
X144105000Y-100535333D01*
X144105000Y-100378667D01*
X144064452Y-100227339D01*
X144052709Y-100207000D01*
X145082481Y-100207000D01*
X145071266Y-100136190D01*
X145004627Y-99931098D01*
X144906728Y-99738963D01*
X144779974Y-99564503D01*
X144779974Y-99564502D01*
X144627497Y-99412025D01*
X144453036Y-99285271D01*
X144260901Y-99187372D01*
X144055809Y-99120734D01*
X143842820Y-99087000D01*
X143760000Y-99087000D01*
X143760000Y-99914290D01*
X143739661Y-99902548D01*
X143588333Y-99862000D01*
X143431667Y-99862000D01*
X143280339Y-99902548D01*
X143260000Y-99914290D01*
X143260000Y-99087000D01*
X143177180Y-99087000D01*
X142964190Y-99120734D01*
X142759098Y-99187372D01*
X142566963Y-99285271D01*
X142392503Y-99412025D01*
X142392502Y-99412025D01*
X142240025Y-99564502D01*
X142240025Y-99564503D01*
X142113271Y-99738963D01*
X142015372Y-99931098D01*
X141948733Y-100136190D01*
X141937519Y-100207000D01*
X142967291Y-100207000D01*
X142955548Y-100227339D01*
X142915000Y-100378667D01*
X142915000Y-100535333D01*
X142955548Y-100686661D01*
X142967291Y-100707000D01*
X141937519Y-100707000D01*
X141948733Y-100777809D01*
X142015372Y-100982901D01*
X142113271Y-101175036D01*
X142240025Y-101349496D01*
X142240025Y-101349497D01*
X142382107Y-101491579D01*
X142415592Y-101552902D01*
X142410608Y-101622594D01*
X142368736Y-101678527D01*
X142346840Y-101691638D01*
X142345672Y-101692182D01*
X142196342Y-101784289D01*
X142072289Y-101908342D01*
X141980187Y-102057663D01*
X141980186Y-102057666D01*
X141925001Y-102224203D01*
X141925001Y-102224204D01*
X141925000Y-102224204D01*
X141914500Y-102326983D01*
X124208500Y-102326983D01*
X124208500Y-96441179D01*
X129440000Y-96441179D01*
X129440000Y-96524000D01*
X130267291Y-96524000D01*
X130255548Y-96544339D01*
X130215000Y-96695667D01*
X130215000Y-96852333D01*
X130255548Y-97003661D01*
X130267291Y-97024000D01*
X129440000Y-97024000D01*
X129440000Y-97106820D01*
X129473734Y-97319809D01*
X129540372Y-97524901D01*
X129638271Y-97717036D01*
X129765025Y-97891496D01*
X129765025Y-97891497D01*
X129917502Y-98043974D01*
X130091963Y-98170728D01*
X130284098Y-98268627D01*
X130489190Y-98335266D01*
X130560000Y-98346481D01*
X130560000Y-97316709D01*
X130580339Y-97328452D01*
X130731667Y-97369000D01*
X130888333Y-97369000D01*
X131039661Y-97328452D01*
X131060000Y-97316709D01*
X131060000Y-98346480D01*
X131130809Y-98335266D01*
X131335901Y-98268627D01*
X131528036Y-98170728D01*
X131702493Y-98043977D01*
X131844578Y-97901892D01*
X131905901Y-97868407D01*
X131975593Y-97873391D01*
X132031527Y-97915262D01*
X132044640Y-97937165D01*
X132045181Y-97938325D01*
X132045185Y-97938331D01*
X132045186Y-97938334D01*
X132137288Y-98087656D01*
X132261344Y-98211712D01*
X132410666Y-98303814D01*
X132577203Y-98358999D01*
X132679991Y-98369500D01*
X134020008Y-98369499D01*
X134122797Y-98358999D01*
X134289334Y-98303814D01*
X134438656Y-98211712D01*
X134562712Y-98087656D01*
X134654814Y-97938334D01*
X134709999Y-97771797D01*
X134720500Y-97669009D01*
X134720499Y-95878992D01*
X134709999Y-95776203D01*
X134654814Y-95609666D01*
X134562712Y-95460344D01*
X134438656Y-95336288D01*
X134289334Y-95244186D01*
X134122797Y-95189001D01*
X134122795Y-95189000D01*
X134020010Y-95178500D01*
X132679998Y-95178500D01*
X132679981Y-95178501D01*
X132577203Y-95189000D01*
X132577200Y-95189001D01*
X132410668Y-95244185D01*
X132410663Y-95244187D01*
X132261342Y-95336289D01*
X132137289Y-95460342D01*
X132045182Y-95609672D01*
X132044638Y-95610840D01*
X132044051Y-95611505D01*
X132041395Y-95615813D01*
X132040658Y-95615358D01*
X131998461Y-95663275D01*
X131931266Y-95682422D01*
X131864387Y-95662201D01*
X131844579Y-95646107D01*
X131702497Y-95504025D01*
X131528036Y-95377271D01*
X131335899Y-95279372D01*
X131130805Y-95212733D01*
X131060000Y-95201518D01*
X131060000Y-96231290D01*
X131039661Y-96219548D01*
X130888333Y-96179000D01*
X130731667Y-96179000D01*
X130580339Y-96219548D01*
X130560000Y-96231290D01*
X130560000Y-95201518D01*
X130559999Y-95201518D01*
X130489194Y-95212733D01*
X130284100Y-95279372D01*
X130091963Y-95377271D01*
X129917503Y-95504025D01*
X129917502Y-95504025D01*
X129765025Y-95656502D01*
X129765025Y-95656503D01*
X129638271Y-95830963D01*
X129540372Y-96023098D01*
X129473734Y-96228190D01*
X129440000Y-96441179D01*
X124208500Y-96441179D01*
X124208500Y-80990983D01*
X141787500Y-80990983D01*
X141787500Y-82331001D01*
X141787501Y-82331018D01*
X141798000Y-82433796D01*
X141798001Y-82433799D01*
X141833262Y-82540208D01*
X141853186Y-82600334D01*
X141945288Y-82749656D01*
X142069344Y-82873712D01*
X142218666Y-82965814D01*
X142385203Y-83020999D01*
X142487991Y-83031500D01*
X144278008Y-83031499D01*
X144380797Y-83020999D01*
X144547334Y-82965814D01*
X144696656Y-82873712D01*
X144820712Y-82749656D01*
X144912814Y-82600334D01*
X144967999Y-82433797D01*
X144978500Y-82331009D01*
X144978499Y-80990992D01*
X144967999Y-80888203D01*
X144912814Y-80721666D01*
X144820712Y-80572344D01*
X144696656Y-80448288D01*
X144547334Y-80356186D01*
X144547332Y-80356185D01*
X144547325Y-80356181D01*
X144546165Y-80355640D01*
X144545503Y-80355057D01*
X144541187Y-80352395D01*
X144541642Y-80351657D01*
X144493727Y-80309466D01*
X144474577Y-80242272D01*
X144494795Y-80175392D01*
X144510892Y-80155578D01*
X144652977Y-80013493D01*
X144779728Y-79839036D01*
X144877627Y-79646901D01*
X144944266Y-79441809D01*
X144955481Y-79371000D01*
X143925709Y-79371000D01*
X143937452Y-79350661D01*
X143978000Y-79199333D01*
X143978000Y-79042667D01*
X143937452Y-78891339D01*
X143925709Y-78871000D01*
X144955481Y-78871000D01*
X144944266Y-78800190D01*
X144877627Y-78595098D01*
X144822035Y-78485994D01*
X152021738Y-78485994D01*
X152021738Y-78486005D01*
X152040753Y-78715484D01*
X152097282Y-78938714D01*
X152189782Y-79149594D01*
X152315728Y-79342370D01*
X152342084Y-79371000D01*
X152471692Y-79511792D01*
X152581319Y-79597118D01*
X152657459Y-79656380D01*
X152656570Y-79657521D01*
X152697632Y-79705624D01*
X152707063Y-79774855D01*
X152677568Y-79838194D01*
X152657429Y-79855651D01*
X152657733Y-79856041D01*
X152625040Y-79881485D01*
X152625040Y-79881487D01*
X153179992Y-80436438D01*
X153115215Y-80463271D01*
X153011211Y-80532764D01*
X152922764Y-80621211D01*
X152853271Y-80725215D01*
X152826439Y-80789992D01*
X152272760Y-80236313D01*
X152190224Y-80362644D01*
X152097757Y-80573446D01*
X152041249Y-80796591D01*
X152041247Y-80796603D01*
X152022240Y-81025994D01*
X152022240Y-81026005D01*
X152041247Y-81255396D01*
X152041249Y-81255408D01*
X152097757Y-81478553D01*
X152190224Y-81689355D01*
X152272759Y-81815685D01*
X152826438Y-81262006D01*
X152853271Y-81326785D01*
X152922764Y-81430789D01*
X153011211Y-81519236D01*
X153115215Y-81588729D01*
X153179991Y-81615560D01*
X152625040Y-82170512D01*
X152625040Y-82170514D01*
X152657733Y-82195960D01*
X152656789Y-82197172D01*
X152697639Y-82245043D01*
X152707060Y-82314274D01*
X152677556Y-82377609D01*
X152657181Y-82395263D01*
X152657459Y-82395620D01*
X152471694Y-82540206D01*
X152471689Y-82540211D01*
X152315728Y-82709629D01*
X152189782Y-82902405D01*
X152097282Y-83113285D01*
X152040753Y-83336515D01*
X152021738Y-83565994D01*
X152021738Y-83566005D01*
X152040753Y-83795484D01*
X152097282Y-84018714D01*
X152189782Y-84229594D01*
X152315728Y-84422370D01*
X152315731Y-84422373D01*
X152471692Y-84591792D01*
X152653411Y-84733229D01*
X152855931Y-84842828D01*
X152969025Y-84881653D01*
X153073725Y-84917597D01*
X153073727Y-84917597D01*
X153073729Y-84917598D01*
X153300863Y-84955500D01*
X153300864Y-84955500D01*
X153531136Y-84955500D01*
X153531137Y-84955500D01*
X153758271Y-84917598D01*
X153976069Y-84842828D01*
X154178589Y-84733229D01*
X154360308Y-84591792D01*
X154516269Y-84422373D01*
X154642217Y-84229595D01*
X154734717Y-84018716D01*
X154791246Y-83795488D01*
X154810262Y-83566000D01*
X154791246Y-83336512D01*
X154734717Y-83113284D01*
X154642217Y-82902405D01*
X154542422Y-82749657D01*
X154516271Y-82709629D01*
X154489355Y-82680390D01*
X154360308Y-82540208D01*
X154223591Y-82433797D01*
X154174541Y-82395620D01*
X154175428Y-82394480D01*
X154134363Y-82346366D01*
X154124938Y-82277135D01*
X154154437Y-82213798D01*
X154174571Y-82196352D01*
X154174266Y-82195960D01*
X154206958Y-82170513D01*
X154206959Y-82170511D01*
X153652008Y-81615560D01*
X153716785Y-81588729D01*
X153820789Y-81519236D01*
X153909236Y-81430789D01*
X153978729Y-81326785D01*
X154005560Y-81262008D01*
X154559238Y-81815686D01*
X154641774Y-81689357D01*
X154734242Y-81478553D01*
X154790750Y-81255408D01*
X154790752Y-81255396D01*
X154809760Y-81026005D01*
X154809760Y-81025994D01*
X154790752Y-80796603D01*
X154790750Y-80796591D01*
X154734242Y-80573446D01*
X154641775Y-80362644D01*
X154559238Y-80236312D01*
X154005560Y-80789990D01*
X153978729Y-80725215D01*
X153909236Y-80621211D01*
X153820789Y-80532764D01*
X153716785Y-80463271D01*
X153652007Y-80436438D01*
X154206958Y-79881486D01*
X154206958Y-79881484D01*
X154174267Y-79856040D01*
X154175209Y-79854829D01*
X154134355Y-79806947D01*
X154124941Y-79737714D01*
X154154450Y-79674382D01*
X154174820Y-79656738D01*
X154174541Y-79656380D01*
X154211174Y-79627866D01*
X154360308Y-79511792D01*
X154516269Y-79342373D01*
X154642217Y-79149595D01*
X154734717Y-78938716D01*
X154791246Y-78715488D01*
X154803588Y-78566548D01*
X154810262Y-78486005D01*
X154810262Y-78485994D01*
X154791246Y-78256515D01*
X154791246Y-78256512D01*
X154734717Y-78033284D01*
X154642217Y-77822405D01*
X154595566Y-77751000D01*
X154516271Y-77629629D01*
X154489355Y-77600390D01*
X154360308Y-77460208D01*
X154292036Y-77407070D01*
X154178591Y-77318772D01*
X153976069Y-77209172D01*
X153976061Y-77209169D01*
X153758274Y-77134402D01*
X153587920Y-77105975D01*
X153531137Y-77096500D01*
X153300863Y-77096500D01*
X153255436Y-77104080D01*
X153073725Y-77134402D01*
X152855938Y-77209169D01*
X152855930Y-77209172D01*
X152653408Y-77318772D01*
X152471694Y-77460206D01*
X152471689Y-77460211D01*
X152315728Y-77629629D01*
X152189782Y-77822405D01*
X152097282Y-78033285D01*
X152040753Y-78256515D01*
X152021738Y-78485994D01*
X144822035Y-78485994D01*
X144779728Y-78402963D01*
X144652974Y-78228503D01*
X144652974Y-78228502D01*
X144500497Y-78076025D01*
X144326036Y-77949271D01*
X144133901Y-77851372D01*
X143928809Y-77784734D01*
X143715820Y-77751000D01*
X143633000Y-77751000D01*
X143633000Y-78578290D01*
X143612661Y-78566548D01*
X143461333Y-78526000D01*
X143304667Y-78526000D01*
X143153339Y-78566548D01*
X143133000Y-78578290D01*
X143133000Y-77751000D01*
X143050180Y-77751000D01*
X142837190Y-77784734D01*
X142632098Y-77851372D01*
X142439963Y-77949271D01*
X142265503Y-78076025D01*
X142265502Y-78076025D01*
X142113025Y-78228502D01*
X142113025Y-78228503D01*
X141986271Y-78402963D01*
X141888372Y-78595098D01*
X141821733Y-78800190D01*
X141810519Y-78871000D01*
X142840291Y-78871000D01*
X142828548Y-78891339D01*
X142788000Y-79042667D01*
X142788000Y-79199333D01*
X142828548Y-79350661D01*
X142840291Y-79371000D01*
X141810519Y-79371000D01*
X141821733Y-79441809D01*
X141888372Y-79646901D01*
X141986271Y-79839036D01*
X142113025Y-80013496D01*
X142113025Y-80013497D01*
X142255107Y-80155579D01*
X142288592Y-80216902D01*
X142283608Y-80286594D01*
X142241736Y-80342527D01*
X142219840Y-80355638D01*
X142218672Y-80356182D01*
X142069342Y-80448289D01*
X141945289Y-80572342D01*
X141853187Y-80721663D01*
X141853186Y-80721666D01*
X141798001Y-80888203D01*
X141798001Y-80888204D01*
X141798000Y-80888204D01*
X141787500Y-80990983D01*
X124208500Y-80990983D01*
X124208500Y-73073179D01*
X129694000Y-73073179D01*
X129694000Y-73156000D01*
X130521291Y-73156000D01*
X130509548Y-73176339D01*
X130469000Y-73327667D01*
X130469000Y-73484333D01*
X130509548Y-73635661D01*
X130521291Y-73656000D01*
X129694000Y-73656000D01*
X129694000Y-73738820D01*
X129727734Y-73951809D01*
X129794372Y-74156901D01*
X129892271Y-74349036D01*
X130019025Y-74523496D01*
X130019025Y-74523497D01*
X130171502Y-74675974D01*
X130345963Y-74802728D01*
X130538098Y-74900627D01*
X130743190Y-74967266D01*
X130814000Y-74978481D01*
X130814000Y-73948709D01*
X130834339Y-73960452D01*
X130985667Y-74001000D01*
X131142333Y-74001000D01*
X131293661Y-73960452D01*
X131314000Y-73948709D01*
X131314000Y-74978480D01*
X131384809Y-74967266D01*
X131589901Y-74900627D01*
X131782036Y-74802728D01*
X131956493Y-74675977D01*
X132098578Y-74533892D01*
X132159901Y-74500407D01*
X132229593Y-74505391D01*
X132285527Y-74547262D01*
X132298640Y-74569165D01*
X132299181Y-74570325D01*
X132299185Y-74570331D01*
X132299186Y-74570334D01*
X132391288Y-74719656D01*
X132515344Y-74843712D01*
X132664666Y-74935814D01*
X132831203Y-74990999D01*
X132933991Y-75001500D01*
X134274008Y-75001499D01*
X134376797Y-74990999D01*
X134543334Y-74935814D01*
X134692656Y-74843712D01*
X134816712Y-74719656D01*
X134908814Y-74570334D01*
X134963999Y-74403797D01*
X134974500Y-74301009D01*
X134974499Y-72510992D01*
X134963999Y-72408203D01*
X134908814Y-72241666D01*
X134816712Y-72092344D01*
X134692656Y-71968288D01*
X134543334Y-71876186D01*
X134376797Y-71821001D01*
X134376795Y-71821000D01*
X134274010Y-71810500D01*
X132933998Y-71810500D01*
X132933981Y-71810501D01*
X132831203Y-71821000D01*
X132831200Y-71821001D01*
X132664668Y-71876185D01*
X132664663Y-71876187D01*
X132515342Y-71968289D01*
X132391289Y-72092342D01*
X132299182Y-72241672D01*
X132298638Y-72242840D01*
X132298051Y-72243505D01*
X132295395Y-72247813D01*
X132294658Y-72247358D01*
X132252461Y-72295275D01*
X132185266Y-72314422D01*
X132118387Y-72294201D01*
X132098579Y-72278107D01*
X131956497Y-72136025D01*
X131782036Y-72009271D01*
X131589899Y-71911372D01*
X131384805Y-71844733D01*
X131314000Y-71833518D01*
X131314000Y-72863290D01*
X131293661Y-72851548D01*
X131142333Y-72811000D01*
X130985667Y-72811000D01*
X130834339Y-72851548D01*
X130814000Y-72863290D01*
X130814000Y-71833518D01*
X130813999Y-71833518D01*
X130743194Y-71844733D01*
X130538100Y-71911372D01*
X130345963Y-72009271D01*
X130171503Y-72136025D01*
X130171502Y-72136025D01*
X130019025Y-72288502D01*
X130019025Y-72288503D01*
X129892271Y-72462963D01*
X129794372Y-72655098D01*
X129727734Y-72860190D01*
X129694000Y-73073179D01*
X124208500Y-73073179D01*
X124208500Y-58312133D01*
X141914500Y-58312133D01*
X141914500Y-58527866D01*
X141948245Y-58740922D01*
X141948246Y-58740926D01*
X142014908Y-58946089D01*
X142112843Y-59138299D01*
X142239641Y-59312821D01*
X142239643Y-59312823D01*
X142382003Y-59455183D01*
X142415488Y-59516506D01*
X142410504Y-59586198D01*
X142368632Y-59642131D01*
X142346728Y-59655245D01*
X142345885Y-59655637D01*
X142196654Y-59747684D01*
X142072684Y-59871654D01*
X141980643Y-60020875D01*
X141980641Y-60020880D01*
X141925494Y-60187302D01*
X141925493Y-60187309D01*
X141915000Y-60290013D01*
X141915000Y-60710000D01*
X142967291Y-60710000D01*
X142955548Y-60730339D01*
X142915000Y-60881667D01*
X142915000Y-61038333D01*
X142955548Y-61189661D01*
X142967291Y-61210000D01*
X141915001Y-61210000D01*
X141915001Y-61629986D01*
X141925494Y-61732697D01*
X141980641Y-61899119D01*
X141980643Y-61899124D01*
X142072684Y-62048345D01*
X142196654Y-62172315D01*
X142345875Y-62264356D01*
X142345880Y-62264358D01*
X142512302Y-62319505D01*
X142512309Y-62319506D01*
X142615019Y-62329999D01*
X143259999Y-62329999D01*
X143260000Y-62329998D01*
X143260000Y-61502709D01*
X143280339Y-61514452D01*
X143431667Y-61555000D01*
X143588333Y-61555000D01*
X143739661Y-61514452D01*
X143760000Y-61502709D01*
X143760000Y-62329999D01*
X144404972Y-62329999D01*
X144404986Y-62329998D01*
X144507697Y-62319505D01*
X144674119Y-62264358D01*
X144674124Y-62264356D01*
X144823345Y-62172315D01*
X144947315Y-62048345D01*
X145039356Y-61899124D01*
X145039358Y-61899119D01*
X145094505Y-61732697D01*
X145094506Y-61732690D01*
X145104999Y-61629986D01*
X145105000Y-61629973D01*
X145105000Y-61210000D01*
X144052709Y-61210000D01*
X144064452Y-61189661D01*
X144105000Y-61038333D01*
X144105000Y-60881667D01*
X144064452Y-60730339D01*
X144052709Y-60710000D01*
X145104999Y-60710000D01*
X145104999Y-60416983D01*
X151566500Y-60416983D01*
X151566500Y-61757001D01*
X151566501Y-61757018D01*
X151577000Y-61859796D01*
X151577001Y-61859799D01*
X151632185Y-62026331D01*
X151632186Y-62026334D01*
X151724288Y-62175656D01*
X151848344Y-62299712D01*
X151997666Y-62391814D01*
X152164203Y-62446999D01*
X152266991Y-62457500D01*
X154057008Y-62457499D01*
X154159797Y-62446999D01*
X154326334Y-62391814D01*
X154475656Y-62299712D01*
X154599712Y-62175656D01*
X154691814Y-62026334D01*
X154746999Y-61859797D01*
X154757500Y-61757009D01*
X154757499Y-60416992D01*
X154746999Y-60314203D01*
X154691814Y-60147666D01*
X154599712Y-59998344D01*
X154475656Y-59874288D01*
X154326334Y-59782186D01*
X154326332Y-59782185D01*
X154326325Y-59782181D01*
X154325165Y-59781640D01*
X154324503Y-59781057D01*
X154320187Y-59778395D01*
X154320642Y-59777657D01*
X154272727Y-59735466D01*
X154253577Y-59668272D01*
X154273795Y-59601392D01*
X154289892Y-59581578D01*
X154431977Y-59439493D01*
X154558728Y-59265036D01*
X154656627Y-59072901D01*
X154723266Y-58867809D01*
X154734481Y-58797000D01*
X153704709Y-58797000D01*
X153716452Y-58776661D01*
X153757000Y-58625333D01*
X153757000Y-58468667D01*
X153716452Y-58317339D01*
X153704709Y-58297000D01*
X154734481Y-58297000D01*
X154723266Y-58226190D01*
X154656627Y-58021098D01*
X154558728Y-57828963D01*
X154431974Y-57654503D01*
X154431974Y-57654502D01*
X154279497Y-57502025D01*
X154105036Y-57375271D01*
X153912901Y-57277372D01*
X153707809Y-57210734D01*
X153494820Y-57177000D01*
X153412000Y-57177000D01*
X153412000Y-58004290D01*
X153391661Y-57992548D01*
X153240333Y-57952000D01*
X153083667Y-57952000D01*
X152932339Y-57992548D01*
X152912000Y-58004290D01*
X152912000Y-57177000D01*
X152829180Y-57177000D01*
X152616190Y-57210734D01*
X152411098Y-57277372D01*
X152218963Y-57375271D01*
X152044503Y-57502025D01*
X152044502Y-57502025D01*
X151892025Y-57654502D01*
X151892025Y-57654503D01*
X151765271Y-57828963D01*
X151667372Y-58021098D01*
X151600733Y-58226190D01*
X151589519Y-58297000D01*
X152619291Y-58297000D01*
X152607548Y-58317339D01*
X152567000Y-58468667D01*
X152567000Y-58625333D01*
X152607548Y-58776661D01*
X152619291Y-58797000D01*
X151589519Y-58797000D01*
X151600733Y-58867809D01*
X151667372Y-59072901D01*
X151765271Y-59265036D01*
X151892025Y-59439496D01*
X151892025Y-59439497D01*
X152034107Y-59581579D01*
X152067592Y-59642902D01*
X152062608Y-59712594D01*
X152020736Y-59768527D01*
X151998840Y-59781638D01*
X151997672Y-59782182D01*
X151848342Y-59874289D01*
X151724289Y-59998342D01*
X151632187Y-60147663D01*
X151632185Y-60147668D01*
X151604349Y-60231670D01*
X151577001Y-60314203D01*
X151577001Y-60314204D01*
X151577000Y-60314204D01*
X151566500Y-60416983D01*
X145104999Y-60416983D01*
X145104999Y-60290028D01*
X145104998Y-60290013D01*
X145094505Y-60187302D01*
X145039358Y-60020880D01*
X145039356Y-60020875D01*
X144947315Y-59871654D01*
X144823345Y-59747684D01*
X144674118Y-59655640D01*
X144673277Y-59655248D01*
X144672796Y-59654824D01*
X144667975Y-59651851D01*
X144668483Y-59651027D01*
X144620836Y-59609078D01*
X144601681Y-59541885D01*
X144621894Y-59475003D01*
X144637987Y-59455192D01*
X144780359Y-59312821D01*
X144907157Y-59138299D01*
X145005092Y-58946089D01*
X145071754Y-58740926D01*
X145090062Y-58625333D01*
X145105500Y-58527866D01*
X145105500Y-58312133D01*
X145071754Y-58099077D01*
X145071754Y-58099074D01*
X145005092Y-57893911D01*
X144907157Y-57701701D01*
X144780359Y-57527179D01*
X144627821Y-57374641D01*
X144453299Y-57247843D01*
X144261089Y-57149908D01*
X144055926Y-57083246D01*
X144055924Y-57083245D01*
X144055922Y-57083245D01*
X143842866Y-57049500D01*
X143842861Y-57049500D01*
X143177139Y-57049500D01*
X143177134Y-57049500D01*
X142964077Y-57083245D01*
X142758908Y-57149909D01*
X142566700Y-57247843D01*
X142467129Y-57320186D01*
X142392179Y-57374641D01*
X142392177Y-57374643D01*
X142392176Y-57374643D01*
X142239643Y-57527176D01*
X142239643Y-57527177D01*
X142239641Y-57527179D01*
X142185186Y-57602129D01*
X142112843Y-57701700D01*
X142014909Y-57893908D01*
X141948245Y-58099077D01*
X141914500Y-58312133D01*
X124208500Y-58312133D01*
X124208500Y-49878711D01*
X128149500Y-49878711D01*
X128149500Y-50121288D01*
X128181161Y-50361785D01*
X128243947Y-50596104D01*
X128336773Y-50820205D01*
X128336776Y-50820212D01*
X128458064Y-51030289D01*
X128458066Y-51030292D01*
X128458067Y-51030293D01*
X128605733Y-51222736D01*
X128605739Y-51222743D01*
X128777256Y-51394260D01*
X128777262Y-51394265D01*
X128969711Y-51541936D01*
X129179788Y-51663224D01*
X129403900Y-51756054D01*
X129638211Y-51818838D01*
X129818586Y-51842584D01*
X129878711Y-51850500D01*
X129878712Y-51850500D01*
X130121289Y-51850500D01*
X130169388Y-51844167D01*
X130361789Y-51818838D01*
X130596100Y-51756054D01*
X130820212Y-51663224D01*
X131030289Y-51541936D01*
X131222738Y-51394265D01*
X131394265Y-51222738D01*
X131541936Y-51030289D01*
X131663224Y-50820212D01*
X131756054Y-50596100D01*
X131818838Y-50361789D01*
X131850500Y-50121288D01*
X131850500Y-49878712D01*
X131850500Y-49878711D01*
X168149500Y-49878711D01*
X168149500Y-50121288D01*
X168181161Y-50361785D01*
X168243947Y-50596104D01*
X168336773Y-50820205D01*
X168336776Y-50820212D01*
X168458064Y-51030289D01*
X168458066Y-51030292D01*
X168458067Y-51030293D01*
X168605733Y-51222736D01*
X168605739Y-51222743D01*
X168777256Y-51394260D01*
X168777262Y-51394265D01*
X168969711Y-51541936D01*
X169179788Y-51663224D01*
X169403900Y-51756054D01*
X169638211Y-51818838D01*
X169818586Y-51842584D01*
X169878711Y-51850500D01*
X169878712Y-51850500D01*
X170121289Y-51850500D01*
X170169388Y-51844167D01*
X170361789Y-51818838D01*
X170596100Y-51756054D01*
X170820212Y-51663224D01*
X171030289Y-51541936D01*
X171222738Y-51394265D01*
X171394265Y-51222738D01*
X171541936Y-51030289D01*
X171663224Y-50820212D01*
X171756054Y-50596100D01*
X171818838Y-50361789D01*
X171850500Y-50121288D01*
X171850500Y-49878712D01*
X171818838Y-49638211D01*
X171756054Y-49403900D01*
X171663224Y-49179788D01*
X171541936Y-48969711D01*
X171394265Y-48777262D01*
X171394260Y-48777256D01*
X171222743Y-48605739D01*
X171222736Y-48605733D01*
X171030293Y-48458067D01*
X171030292Y-48458066D01*
X171030289Y-48458064D01*
X170820212Y-48336776D01*
X170820205Y-48336773D01*
X170596104Y-48243947D01*
X170361785Y-48181161D01*
X170121289Y-48149500D01*
X170121288Y-48149500D01*
X169878712Y-48149500D01*
X169878711Y-48149500D01*
X169638214Y-48181161D01*
X169403895Y-48243947D01*
X169179794Y-48336773D01*
X169179785Y-48336777D01*
X168969706Y-48458067D01*
X168777263Y-48605733D01*
X168777256Y-48605739D01*
X168605739Y-48777256D01*
X168605733Y-48777263D01*
X168458067Y-48969706D01*
X168336777Y-49179785D01*
X168336773Y-49179794D01*
X168243947Y-49403895D01*
X168181161Y-49638214D01*
X168149500Y-49878711D01*
X131850500Y-49878711D01*
X131818838Y-49638211D01*
X131756054Y-49403900D01*
X131663224Y-49179788D01*
X131541936Y-48969711D01*
X131394265Y-48777262D01*
X131394260Y-48777256D01*
X131222743Y-48605739D01*
X131222736Y-48605733D01*
X131030293Y-48458067D01*
X131030292Y-48458066D01*
X131030289Y-48458064D01*
X130820212Y-48336776D01*
X130820205Y-48336773D01*
X130596104Y-48243947D01*
X130361785Y-48181161D01*
X130121289Y-48149500D01*
X130121288Y-48149500D01*
X129878712Y-48149500D01*
X129878711Y-48149500D01*
X129638214Y-48181161D01*
X129403895Y-48243947D01*
X129179794Y-48336773D01*
X129179785Y-48336777D01*
X128969706Y-48458067D01*
X128777263Y-48605733D01*
X128777256Y-48605739D01*
X128605739Y-48777256D01*
X128605733Y-48777263D01*
X128458067Y-48969706D01*
X128336777Y-49179785D01*
X128336773Y-49179794D01*
X128243947Y-49403895D01*
X128181161Y-49638214D01*
X128149500Y-49878711D01*
X124208500Y-49878711D01*
X124208500Y-45069500D01*
X124228185Y-45002461D01*
X124280989Y-44956706D01*
X124332500Y-44945500D01*
X175524500Y-44945500D01*
X175591539Y-44965185D01*
G37*
%TD.AperFunction*%
%TD*%
M02*
