%TF.GenerationSoftware,KiCad,Pcbnew,8.0.8*%
%TF.CreationDate,2025-04-15T11:04:33-05:00*%
%TF.ProjectId,PowerOnly,506f7765-724f-46e6-9c79-2e6b69636164,rev?*%
%TF.SameCoordinates,Original*%
%TF.FileFunction,Legend,Top*%
%TF.FilePolarity,Positive*%
%FSLAX46Y46*%
G04 Gerber Fmt 4.6, Leading zero omitted, Abs format (unit mm)*
G04 Created by KiCad (PCBNEW 8.0.8) date 2025-04-15 11:04:33*
%MOMM*%
%LPD*%
G01*
G04 APERTURE LIST*
%ADD10C,0.150000*%
%ADD11C,0.120000*%
%ADD12C,0.152400*%
G04 APERTURE END LIST*
D10*
X129310189Y-68780819D02*
X128833999Y-68780819D01*
X128833999Y-68780819D02*
X128786380Y-69257009D01*
X128786380Y-69257009D02*
X128833999Y-69209390D01*
X128833999Y-69209390D02*
X128929237Y-69161771D01*
X128929237Y-69161771D02*
X129167332Y-69161771D01*
X129167332Y-69161771D02*
X129262570Y-69209390D01*
X129262570Y-69209390D02*
X129310189Y-69257009D01*
X129310189Y-69257009D02*
X129357808Y-69352247D01*
X129357808Y-69352247D02*
X129357808Y-69590342D01*
X129357808Y-69590342D02*
X129310189Y-69685580D01*
X129310189Y-69685580D02*
X129262570Y-69733200D01*
X129262570Y-69733200D02*
X129167332Y-69780819D01*
X129167332Y-69780819D02*
X128929237Y-69780819D01*
X128929237Y-69780819D02*
X128833999Y-69733200D01*
X128833999Y-69733200D02*
X128786380Y-69685580D01*
X129643523Y-68780819D02*
X129976856Y-69780819D01*
X129976856Y-69780819D02*
X130310189Y-68780819D01*
X131595904Y-68780819D02*
X131786380Y-68780819D01*
X131786380Y-68780819D02*
X131881618Y-68828438D01*
X131881618Y-68828438D02*
X131976856Y-68923676D01*
X131976856Y-68923676D02*
X132024475Y-69114152D01*
X132024475Y-69114152D02*
X132024475Y-69447485D01*
X132024475Y-69447485D02*
X131976856Y-69637961D01*
X131976856Y-69637961D02*
X131881618Y-69733200D01*
X131881618Y-69733200D02*
X131786380Y-69780819D01*
X131786380Y-69780819D02*
X131595904Y-69780819D01*
X131595904Y-69780819D02*
X131500666Y-69733200D01*
X131500666Y-69733200D02*
X131405428Y-69637961D01*
X131405428Y-69637961D02*
X131357809Y-69447485D01*
X131357809Y-69447485D02*
X131357809Y-69114152D01*
X131357809Y-69114152D02*
X131405428Y-68923676D01*
X131405428Y-68923676D02*
X131500666Y-68828438D01*
X131500666Y-68828438D02*
X131595904Y-68780819D01*
X132881618Y-69114152D02*
X132881618Y-69780819D01*
X132453047Y-69114152D02*
X132453047Y-69637961D01*
X132453047Y-69637961D02*
X132500666Y-69733200D01*
X132500666Y-69733200D02*
X132595904Y-69780819D01*
X132595904Y-69780819D02*
X132738761Y-69780819D01*
X132738761Y-69780819D02*
X132833999Y-69733200D01*
X132833999Y-69733200D02*
X132881618Y-69685580D01*
X133214952Y-69114152D02*
X133595904Y-69114152D01*
X133357809Y-68780819D02*
X133357809Y-69637961D01*
X133357809Y-69637961D02*
X133405428Y-69733200D01*
X133405428Y-69733200D02*
X133500666Y-69780819D01*
X133500666Y-69780819D02*
X133595904Y-69780819D01*
X133929238Y-69114152D02*
X133929238Y-70114152D01*
X133929238Y-69161771D02*
X134024476Y-69114152D01*
X134024476Y-69114152D02*
X134214952Y-69114152D01*
X134214952Y-69114152D02*
X134310190Y-69161771D01*
X134310190Y-69161771D02*
X134357809Y-69209390D01*
X134357809Y-69209390D02*
X134405428Y-69304628D01*
X134405428Y-69304628D02*
X134405428Y-69590342D01*
X134405428Y-69590342D02*
X134357809Y-69685580D01*
X134357809Y-69685580D02*
X134310190Y-69733200D01*
X134310190Y-69733200D02*
X134214952Y-69780819D01*
X134214952Y-69780819D02*
X134024476Y-69780819D01*
X134024476Y-69780819D02*
X133929238Y-69733200D01*
X135262571Y-69114152D02*
X135262571Y-69780819D01*
X134834000Y-69114152D02*
X134834000Y-69637961D01*
X134834000Y-69637961D02*
X134881619Y-69733200D01*
X134881619Y-69733200D02*
X134976857Y-69780819D01*
X134976857Y-69780819D02*
X135119714Y-69780819D01*
X135119714Y-69780819D02*
X135214952Y-69733200D01*
X135214952Y-69733200D02*
X135262571Y-69685580D01*
X135595905Y-69114152D02*
X135976857Y-69114152D01*
X135738762Y-68780819D02*
X135738762Y-69637961D01*
X135738762Y-69637961D02*
X135786381Y-69733200D01*
X135786381Y-69733200D02*
X135881619Y-69780819D01*
X135881619Y-69780819D02*
X135976857Y-69780819D01*
X127770476Y-92148819D02*
X128389523Y-92148819D01*
X128389523Y-92148819D02*
X128056190Y-92529771D01*
X128056190Y-92529771D02*
X128199047Y-92529771D01*
X128199047Y-92529771D02*
X128294285Y-92577390D01*
X128294285Y-92577390D02*
X128341904Y-92625009D01*
X128341904Y-92625009D02*
X128389523Y-92720247D01*
X128389523Y-92720247D02*
X128389523Y-92958342D01*
X128389523Y-92958342D02*
X128341904Y-93053580D01*
X128341904Y-93053580D02*
X128294285Y-93101200D01*
X128294285Y-93101200D02*
X128199047Y-93148819D01*
X128199047Y-93148819D02*
X127913333Y-93148819D01*
X127913333Y-93148819D02*
X127818095Y-93101200D01*
X127818095Y-93101200D02*
X127770476Y-93053580D01*
X128818095Y-93053580D02*
X128865714Y-93101200D01*
X128865714Y-93101200D02*
X128818095Y-93148819D01*
X128818095Y-93148819D02*
X128770476Y-93101200D01*
X128770476Y-93101200D02*
X128818095Y-93053580D01*
X128818095Y-93053580D02*
X128818095Y-93148819D01*
X129199047Y-92148819D02*
X129818094Y-92148819D01*
X129818094Y-92148819D02*
X129484761Y-92529771D01*
X129484761Y-92529771D02*
X129627618Y-92529771D01*
X129627618Y-92529771D02*
X129722856Y-92577390D01*
X129722856Y-92577390D02*
X129770475Y-92625009D01*
X129770475Y-92625009D02*
X129818094Y-92720247D01*
X129818094Y-92720247D02*
X129818094Y-92958342D01*
X129818094Y-92958342D02*
X129770475Y-93053580D01*
X129770475Y-93053580D02*
X129722856Y-93101200D01*
X129722856Y-93101200D02*
X129627618Y-93148819D01*
X129627618Y-93148819D02*
X129341904Y-93148819D01*
X129341904Y-93148819D02*
X129246666Y-93101200D01*
X129246666Y-93101200D02*
X129199047Y-93053580D01*
X130103809Y-92148819D02*
X130437142Y-93148819D01*
X130437142Y-93148819D02*
X130770475Y-92148819D01*
X132056190Y-92148819D02*
X132246666Y-92148819D01*
X132246666Y-92148819D02*
X132341904Y-92196438D01*
X132341904Y-92196438D02*
X132437142Y-92291676D01*
X132437142Y-92291676D02*
X132484761Y-92482152D01*
X132484761Y-92482152D02*
X132484761Y-92815485D01*
X132484761Y-92815485D02*
X132437142Y-93005961D01*
X132437142Y-93005961D02*
X132341904Y-93101200D01*
X132341904Y-93101200D02*
X132246666Y-93148819D01*
X132246666Y-93148819D02*
X132056190Y-93148819D01*
X132056190Y-93148819D02*
X131960952Y-93101200D01*
X131960952Y-93101200D02*
X131865714Y-93005961D01*
X131865714Y-93005961D02*
X131818095Y-92815485D01*
X131818095Y-92815485D02*
X131818095Y-92482152D01*
X131818095Y-92482152D02*
X131865714Y-92291676D01*
X131865714Y-92291676D02*
X131960952Y-92196438D01*
X131960952Y-92196438D02*
X132056190Y-92148819D01*
X133341904Y-92482152D02*
X133341904Y-93148819D01*
X132913333Y-92482152D02*
X132913333Y-93005961D01*
X132913333Y-93005961D02*
X132960952Y-93101200D01*
X132960952Y-93101200D02*
X133056190Y-93148819D01*
X133056190Y-93148819D02*
X133199047Y-93148819D01*
X133199047Y-93148819D02*
X133294285Y-93101200D01*
X133294285Y-93101200D02*
X133341904Y-93053580D01*
X133675238Y-92482152D02*
X134056190Y-92482152D01*
X133818095Y-92148819D02*
X133818095Y-93005961D01*
X133818095Y-93005961D02*
X133865714Y-93101200D01*
X133865714Y-93101200D02*
X133960952Y-93148819D01*
X133960952Y-93148819D02*
X134056190Y-93148819D01*
X134389524Y-92482152D02*
X134389524Y-93482152D01*
X134389524Y-92529771D02*
X134484762Y-92482152D01*
X134484762Y-92482152D02*
X134675238Y-92482152D01*
X134675238Y-92482152D02*
X134770476Y-92529771D01*
X134770476Y-92529771D02*
X134818095Y-92577390D01*
X134818095Y-92577390D02*
X134865714Y-92672628D01*
X134865714Y-92672628D02*
X134865714Y-92958342D01*
X134865714Y-92958342D02*
X134818095Y-93053580D01*
X134818095Y-93053580D02*
X134770476Y-93101200D01*
X134770476Y-93101200D02*
X134675238Y-93148819D01*
X134675238Y-93148819D02*
X134484762Y-93148819D01*
X134484762Y-93148819D02*
X134389524Y-93101200D01*
X135722857Y-92482152D02*
X135722857Y-93148819D01*
X135294286Y-92482152D02*
X135294286Y-93005961D01*
X135294286Y-93005961D02*
X135341905Y-93101200D01*
X135341905Y-93101200D02*
X135437143Y-93148819D01*
X135437143Y-93148819D02*
X135580000Y-93148819D01*
X135580000Y-93148819D02*
X135675238Y-93101200D01*
X135675238Y-93101200D02*
X135722857Y-93053580D01*
X136056191Y-92482152D02*
X136437143Y-92482152D01*
X136199048Y-92148819D02*
X136199048Y-93005961D01*
X136199048Y-93005961D02*
X136246667Y-93101200D01*
X136246667Y-93101200D02*
X136341905Y-93148819D01*
X136341905Y-93148819D02*
X136437143Y-93148819D01*
X125214285Y-114654819D02*
X125214285Y-113654819D01*
X125214285Y-113654819D02*
X125547618Y-114369104D01*
X125547618Y-114369104D02*
X125880951Y-113654819D01*
X125880951Y-113654819D02*
X125880951Y-114654819D01*
X126499999Y-114654819D02*
X126404761Y-114607200D01*
X126404761Y-114607200D02*
X126357142Y-114559580D01*
X126357142Y-114559580D02*
X126309523Y-114464342D01*
X126309523Y-114464342D02*
X126309523Y-114178628D01*
X126309523Y-114178628D02*
X126357142Y-114083390D01*
X126357142Y-114083390D02*
X126404761Y-114035771D01*
X126404761Y-114035771D02*
X126499999Y-113988152D01*
X126499999Y-113988152D02*
X126642856Y-113988152D01*
X126642856Y-113988152D02*
X126738094Y-114035771D01*
X126738094Y-114035771D02*
X126785713Y-114083390D01*
X126785713Y-114083390D02*
X126833332Y-114178628D01*
X126833332Y-114178628D02*
X126833332Y-114464342D01*
X126833332Y-114464342D02*
X126785713Y-114559580D01*
X126785713Y-114559580D02*
X126738094Y-114607200D01*
X126738094Y-114607200D02*
X126642856Y-114654819D01*
X126642856Y-114654819D02*
X126499999Y-114654819D01*
X127690475Y-113988152D02*
X127690475Y-114654819D01*
X127261904Y-113988152D02*
X127261904Y-114511961D01*
X127261904Y-114511961D02*
X127309523Y-114607200D01*
X127309523Y-114607200D02*
X127404761Y-114654819D01*
X127404761Y-114654819D02*
X127547618Y-114654819D01*
X127547618Y-114654819D02*
X127642856Y-114607200D01*
X127642856Y-114607200D02*
X127690475Y-114559580D01*
X128166666Y-113988152D02*
X128166666Y-114654819D01*
X128166666Y-114083390D02*
X128214285Y-114035771D01*
X128214285Y-114035771D02*
X128309523Y-113988152D01*
X128309523Y-113988152D02*
X128452380Y-113988152D01*
X128452380Y-113988152D02*
X128547618Y-114035771D01*
X128547618Y-114035771D02*
X128595237Y-114131009D01*
X128595237Y-114131009D02*
X128595237Y-114654819D01*
X128928571Y-113988152D02*
X129309523Y-113988152D01*
X129071428Y-113654819D02*
X129071428Y-114511961D01*
X129071428Y-114511961D02*
X129119047Y-114607200D01*
X129119047Y-114607200D02*
X129214285Y-114654819D01*
X129214285Y-114654819D02*
X129309523Y-114654819D01*
X129642857Y-114654819D02*
X129642857Y-113988152D01*
X129642857Y-113654819D02*
X129595238Y-113702438D01*
X129595238Y-113702438D02*
X129642857Y-113750057D01*
X129642857Y-113750057D02*
X129690476Y-113702438D01*
X129690476Y-113702438D02*
X129642857Y-113654819D01*
X129642857Y-113654819D02*
X129642857Y-113750057D01*
X130119047Y-113988152D02*
X130119047Y-114654819D01*
X130119047Y-114083390D02*
X130166666Y-114035771D01*
X130166666Y-114035771D02*
X130261904Y-113988152D01*
X130261904Y-113988152D02*
X130404761Y-113988152D01*
X130404761Y-113988152D02*
X130499999Y-114035771D01*
X130499999Y-114035771D02*
X130547618Y-114131009D01*
X130547618Y-114131009D02*
X130547618Y-114654819D01*
X131452380Y-113988152D02*
X131452380Y-114797676D01*
X131452380Y-114797676D02*
X131404761Y-114892914D01*
X131404761Y-114892914D02*
X131357142Y-114940533D01*
X131357142Y-114940533D02*
X131261904Y-114988152D01*
X131261904Y-114988152D02*
X131119047Y-114988152D01*
X131119047Y-114988152D02*
X131023809Y-114940533D01*
X131452380Y-114607200D02*
X131357142Y-114654819D01*
X131357142Y-114654819D02*
X131166666Y-114654819D01*
X131166666Y-114654819D02*
X131071428Y-114607200D01*
X131071428Y-114607200D02*
X131023809Y-114559580D01*
X131023809Y-114559580D02*
X130976190Y-114464342D01*
X130976190Y-114464342D02*
X130976190Y-114178628D01*
X130976190Y-114178628D02*
X131023809Y-114083390D01*
X131023809Y-114083390D02*
X131071428Y-114035771D01*
X131071428Y-114035771D02*
X131166666Y-113988152D01*
X131166666Y-113988152D02*
X131357142Y-113988152D01*
X131357142Y-113988152D02*
X131452380Y-114035771D01*
X131928571Y-114654819D02*
X131928571Y-113654819D01*
X131928571Y-114131009D02*
X132499999Y-114131009D01*
X132499999Y-114654819D02*
X132499999Y-113654819D01*
X133119047Y-114654819D02*
X133023809Y-114607200D01*
X133023809Y-114607200D02*
X132976190Y-114559580D01*
X132976190Y-114559580D02*
X132928571Y-114464342D01*
X132928571Y-114464342D02*
X132928571Y-114178628D01*
X132928571Y-114178628D02*
X132976190Y-114083390D01*
X132976190Y-114083390D02*
X133023809Y-114035771D01*
X133023809Y-114035771D02*
X133119047Y-113988152D01*
X133119047Y-113988152D02*
X133261904Y-113988152D01*
X133261904Y-113988152D02*
X133357142Y-114035771D01*
X133357142Y-114035771D02*
X133404761Y-114083390D01*
X133404761Y-114083390D02*
X133452380Y-114178628D01*
X133452380Y-114178628D02*
X133452380Y-114464342D01*
X133452380Y-114464342D02*
X133404761Y-114559580D01*
X133404761Y-114559580D02*
X133357142Y-114607200D01*
X133357142Y-114607200D02*
X133261904Y-114654819D01*
X133261904Y-114654819D02*
X133119047Y-114654819D01*
X134023809Y-114654819D02*
X133928571Y-114607200D01*
X133928571Y-114607200D02*
X133880952Y-114511961D01*
X133880952Y-114511961D02*
X133880952Y-113654819D01*
X134785714Y-114607200D02*
X134690476Y-114654819D01*
X134690476Y-114654819D02*
X134500000Y-114654819D01*
X134500000Y-114654819D02*
X134404762Y-114607200D01*
X134404762Y-114607200D02*
X134357143Y-114511961D01*
X134357143Y-114511961D02*
X134357143Y-114131009D01*
X134357143Y-114131009D02*
X134404762Y-114035771D01*
X134404762Y-114035771D02*
X134500000Y-113988152D01*
X134500000Y-113988152D02*
X134690476Y-113988152D01*
X134690476Y-113988152D02*
X134785714Y-114035771D01*
X134785714Y-114035771D02*
X134833333Y-114131009D01*
X134833333Y-114131009D02*
X134833333Y-114226247D01*
X134833333Y-114226247D02*
X134357143Y-114321485D01*
X165214285Y-114654819D02*
X165214285Y-113654819D01*
X165214285Y-113654819D02*
X165547618Y-114369104D01*
X165547618Y-114369104D02*
X165880951Y-113654819D01*
X165880951Y-113654819D02*
X165880951Y-114654819D01*
X166499999Y-114654819D02*
X166404761Y-114607200D01*
X166404761Y-114607200D02*
X166357142Y-114559580D01*
X166357142Y-114559580D02*
X166309523Y-114464342D01*
X166309523Y-114464342D02*
X166309523Y-114178628D01*
X166309523Y-114178628D02*
X166357142Y-114083390D01*
X166357142Y-114083390D02*
X166404761Y-114035771D01*
X166404761Y-114035771D02*
X166499999Y-113988152D01*
X166499999Y-113988152D02*
X166642856Y-113988152D01*
X166642856Y-113988152D02*
X166738094Y-114035771D01*
X166738094Y-114035771D02*
X166785713Y-114083390D01*
X166785713Y-114083390D02*
X166833332Y-114178628D01*
X166833332Y-114178628D02*
X166833332Y-114464342D01*
X166833332Y-114464342D02*
X166785713Y-114559580D01*
X166785713Y-114559580D02*
X166738094Y-114607200D01*
X166738094Y-114607200D02*
X166642856Y-114654819D01*
X166642856Y-114654819D02*
X166499999Y-114654819D01*
X167690475Y-113988152D02*
X167690475Y-114654819D01*
X167261904Y-113988152D02*
X167261904Y-114511961D01*
X167261904Y-114511961D02*
X167309523Y-114607200D01*
X167309523Y-114607200D02*
X167404761Y-114654819D01*
X167404761Y-114654819D02*
X167547618Y-114654819D01*
X167547618Y-114654819D02*
X167642856Y-114607200D01*
X167642856Y-114607200D02*
X167690475Y-114559580D01*
X168166666Y-113988152D02*
X168166666Y-114654819D01*
X168166666Y-114083390D02*
X168214285Y-114035771D01*
X168214285Y-114035771D02*
X168309523Y-113988152D01*
X168309523Y-113988152D02*
X168452380Y-113988152D01*
X168452380Y-113988152D02*
X168547618Y-114035771D01*
X168547618Y-114035771D02*
X168595237Y-114131009D01*
X168595237Y-114131009D02*
X168595237Y-114654819D01*
X168928571Y-113988152D02*
X169309523Y-113988152D01*
X169071428Y-113654819D02*
X169071428Y-114511961D01*
X169071428Y-114511961D02*
X169119047Y-114607200D01*
X169119047Y-114607200D02*
X169214285Y-114654819D01*
X169214285Y-114654819D02*
X169309523Y-114654819D01*
X169642857Y-114654819D02*
X169642857Y-113988152D01*
X169642857Y-113654819D02*
X169595238Y-113702438D01*
X169595238Y-113702438D02*
X169642857Y-113750057D01*
X169642857Y-113750057D02*
X169690476Y-113702438D01*
X169690476Y-113702438D02*
X169642857Y-113654819D01*
X169642857Y-113654819D02*
X169642857Y-113750057D01*
X170119047Y-113988152D02*
X170119047Y-114654819D01*
X170119047Y-114083390D02*
X170166666Y-114035771D01*
X170166666Y-114035771D02*
X170261904Y-113988152D01*
X170261904Y-113988152D02*
X170404761Y-113988152D01*
X170404761Y-113988152D02*
X170499999Y-114035771D01*
X170499999Y-114035771D02*
X170547618Y-114131009D01*
X170547618Y-114131009D02*
X170547618Y-114654819D01*
X171452380Y-113988152D02*
X171452380Y-114797676D01*
X171452380Y-114797676D02*
X171404761Y-114892914D01*
X171404761Y-114892914D02*
X171357142Y-114940533D01*
X171357142Y-114940533D02*
X171261904Y-114988152D01*
X171261904Y-114988152D02*
X171119047Y-114988152D01*
X171119047Y-114988152D02*
X171023809Y-114940533D01*
X171452380Y-114607200D02*
X171357142Y-114654819D01*
X171357142Y-114654819D02*
X171166666Y-114654819D01*
X171166666Y-114654819D02*
X171071428Y-114607200D01*
X171071428Y-114607200D02*
X171023809Y-114559580D01*
X171023809Y-114559580D02*
X170976190Y-114464342D01*
X170976190Y-114464342D02*
X170976190Y-114178628D01*
X170976190Y-114178628D02*
X171023809Y-114083390D01*
X171023809Y-114083390D02*
X171071428Y-114035771D01*
X171071428Y-114035771D02*
X171166666Y-113988152D01*
X171166666Y-113988152D02*
X171357142Y-113988152D01*
X171357142Y-113988152D02*
X171452380Y-114035771D01*
X171928571Y-114654819D02*
X171928571Y-113654819D01*
X171928571Y-114131009D02*
X172499999Y-114131009D01*
X172499999Y-114654819D02*
X172499999Y-113654819D01*
X173119047Y-114654819D02*
X173023809Y-114607200D01*
X173023809Y-114607200D02*
X172976190Y-114559580D01*
X172976190Y-114559580D02*
X172928571Y-114464342D01*
X172928571Y-114464342D02*
X172928571Y-114178628D01*
X172928571Y-114178628D02*
X172976190Y-114083390D01*
X172976190Y-114083390D02*
X173023809Y-114035771D01*
X173023809Y-114035771D02*
X173119047Y-113988152D01*
X173119047Y-113988152D02*
X173261904Y-113988152D01*
X173261904Y-113988152D02*
X173357142Y-114035771D01*
X173357142Y-114035771D02*
X173404761Y-114083390D01*
X173404761Y-114083390D02*
X173452380Y-114178628D01*
X173452380Y-114178628D02*
X173452380Y-114464342D01*
X173452380Y-114464342D02*
X173404761Y-114559580D01*
X173404761Y-114559580D02*
X173357142Y-114607200D01*
X173357142Y-114607200D02*
X173261904Y-114654819D01*
X173261904Y-114654819D02*
X173119047Y-114654819D01*
X174023809Y-114654819D02*
X173928571Y-114607200D01*
X173928571Y-114607200D02*
X173880952Y-114511961D01*
X173880952Y-114511961D02*
X173880952Y-113654819D01*
X174785714Y-114607200D02*
X174690476Y-114654819D01*
X174690476Y-114654819D02*
X174500000Y-114654819D01*
X174500000Y-114654819D02*
X174404762Y-114607200D01*
X174404762Y-114607200D02*
X174357143Y-114511961D01*
X174357143Y-114511961D02*
X174357143Y-114131009D01*
X174357143Y-114131009D02*
X174404762Y-114035771D01*
X174404762Y-114035771D02*
X174500000Y-113988152D01*
X174500000Y-113988152D02*
X174690476Y-113988152D01*
X174690476Y-113988152D02*
X174785714Y-114035771D01*
X174785714Y-114035771D02*
X174833333Y-114131009D01*
X174833333Y-114131009D02*
X174833333Y-114226247D01*
X174833333Y-114226247D02*
X174357143Y-114321485D01*
X165214285Y-54654819D02*
X165214285Y-53654819D01*
X165214285Y-53654819D02*
X165547618Y-54369104D01*
X165547618Y-54369104D02*
X165880951Y-53654819D01*
X165880951Y-53654819D02*
X165880951Y-54654819D01*
X166499999Y-54654819D02*
X166404761Y-54607200D01*
X166404761Y-54607200D02*
X166357142Y-54559580D01*
X166357142Y-54559580D02*
X166309523Y-54464342D01*
X166309523Y-54464342D02*
X166309523Y-54178628D01*
X166309523Y-54178628D02*
X166357142Y-54083390D01*
X166357142Y-54083390D02*
X166404761Y-54035771D01*
X166404761Y-54035771D02*
X166499999Y-53988152D01*
X166499999Y-53988152D02*
X166642856Y-53988152D01*
X166642856Y-53988152D02*
X166738094Y-54035771D01*
X166738094Y-54035771D02*
X166785713Y-54083390D01*
X166785713Y-54083390D02*
X166833332Y-54178628D01*
X166833332Y-54178628D02*
X166833332Y-54464342D01*
X166833332Y-54464342D02*
X166785713Y-54559580D01*
X166785713Y-54559580D02*
X166738094Y-54607200D01*
X166738094Y-54607200D02*
X166642856Y-54654819D01*
X166642856Y-54654819D02*
X166499999Y-54654819D01*
X167690475Y-53988152D02*
X167690475Y-54654819D01*
X167261904Y-53988152D02*
X167261904Y-54511961D01*
X167261904Y-54511961D02*
X167309523Y-54607200D01*
X167309523Y-54607200D02*
X167404761Y-54654819D01*
X167404761Y-54654819D02*
X167547618Y-54654819D01*
X167547618Y-54654819D02*
X167642856Y-54607200D01*
X167642856Y-54607200D02*
X167690475Y-54559580D01*
X168166666Y-53988152D02*
X168166666Y-54654819D01*
X168166666Y-54083390D02*
X168214285Y-54035771D01*
X168214285Y-54035771D02*
X168309523Y-53988152D01*
X168309523Y-53988152D02*
X168452380Y-53988152D01*
X168452380Y-53988152D02*
X168547618Y-54035771D01*
X168547618Y-54035771D02*
X168595237Y-54131009D01*
X168595237Y-54131009D02*
X168595237Y-54654819D01*
X168928571Y-53988152D02*
X169309523Y-53988152D01*
X169071428Y-53654819D02*
X169071428Y-54511961D01*
X169071428Y-54511961D02*
X169119047Y-54607200D01*
X169119047Y-54607200D02*
X169214285Y-54654819D01*
X169214285Y-54654819D02*
X169309523Y-54654819D01*
X169642857Y-54654819D02*
X169642857Y-53988152D01*
X169642857Y-53654819D02*
X169595238Y-53702438D01*
X169595238Y-53702438D02*
X169642857Y-53750057D01*
X169642857Y-53750057D02*
X169690476Y-53702438D01*
X169690476Y-53702438D02*
X169642857Y-53654819D01*
X169642857Y-53654819D02*
X169642857Y-53750057D01*
X170119047Y-53988152D02*
X170119047Y-54654819D01*
X170119047Y-54083390D02*
X170166666Y-54035771D01*
X170166666Y-54035771D02*
X170261904Y-53988152D01*
X170261904Y-53988152D02*
X170404761Y-53988152D01*
X170404761Y-53988152D02*
X170499999Y-54035771D01*
X170499999Y-54035771D02*
X170547618Y-54131009D01*
X170547618Y-54131009D02*
X170547618Y-54654819D01*
X171452380Y-53988152D02*
X171452380Y-54797676D01*
X171452380Y-54797676D02*
X171404761Y-54892914D01*
X171404761Y-54892914D02*
X171357142Y-54940533D01*
X171357142Y-54940533D02*
X171261904Y-54988152D01*
X171261904Y-54988152D02*
X171119047Y-54988152D01*
X171119047Y-54988152D02*
X171023809Y-54940533D01*
X171452380Y-54607200D02*
X171357142Y-54654819D01*
X171357142Y-54654819D02*
X171166666Y-54654819D01*
X171166666Y-54654819D02*
X171071428Y-54607200D01*
X171071428Y-54607200D02*
X171023809Y-54559580D01*
X171023809Y-54559580D02*
X170976190Y-54464342D01*
X170976190Y-54464342D02*
X170976190Y-54178628D01*
X170976190Y-54178628D02*
X171023809Y-54083390D01*
X171023809Y-54083390D02*
X171071428Y-54035771D01*
X171071428Y-54035771D02*
X171166666Y-53988152D01*
X171166666Y-53988152D02*
X171357142Y-53988152D01*
X171357142Y-53988152D02*
X171452380Y-54035771D01*
X171928571Y-54654819D02*
X171928571Y-53654819D01*
X171928571Y-54131009D02*
X172499999Y-54131009D01*
X172499999Y-54654819D02*
X172499999Y-53654819D01*
X173119047Y-54654819D02*
X173023809Y-54607200D01*
X173023809Y-54607200D02*
X172976190Y-54559580D01*
X172976190Y-54559580D02*
X172928571Y-54464342D01*
X172928571Y-54464342D02*
X172928571Y-54178628D01*
X172928571Y-54178628D02*
X172976190Y-54083390D01*
X172976190Y-54083390D02*
X173023809Y-54035771D01*
X173023809Y-54035771D02*
X173119047Y-53988152D01*
X173119047Y-53988152D02*
X173261904Y-53988152D01*
X173261904Y-53988152D02*
X173357142Y-54035771D01*
X173357142Y-54035771D02*
X173404761Y-54083390D01*
X173404761Y-54083390D02*
X173452380Y-54178628D01*
X173452380Y-54178628D02*
X173452380Y-54464342D01*
X173452380Y-54464342D02*
X173404761Y-54559580D01*
X173404761Y-54559580D02*
X173357142Y-54607200D01*
X173357142Y-54607200D02*
X173261904Y-54654819D01*
X173261904Y-54654819D02*
X173119047Y-54654819D01*
X174023809Y-54654819D02*
X173928571Y-54607200D01*
X173928571Y-54607200D02*
X173880952Y-54511961D01*
X173880952Y-54511961D02*
X173880952Y-53654819D01*
X174785714Y-54607200D02*
X174690476Y-54654819D01*
X174690476Y-54654819D02*
X174500000Y-54654819D01*
X174500000Y-54654819D02*
X174404762Y-54607200D01*
X174404762Y-54607200D02*
X174357143Y-54511961D01*
X174357143Y-54511961D02*
X174357143Y-54131009D01*
X174357143Y-54131009D02*
X174404762Y-54035771D01*
X174404762Y-54035771D02*
X174500000Y-53988152D01*
X174500000Y-53988152D02*
X174690476Y-53988152D01*
X174690476Y-53988152D02*
X174785714Y-54035771D01*
X174785714Y-54035771D02*
X174833333Y-54131009D01*
X174833333Y-54131009D02*
X174833333Y-54226247D01*
X174833333Y-54226247D02*
X174357143Y-54321485D01*
X125214285Y-54654819D02*
X125214285Y-53654819D01*
X125214285Y-53654819D02*
X125547618Y-54369104D01*
X125547618Y-54369104D02*
X125880951Y-53654819D01*
X125880951Y-53654819D02*
X125880951Y-54654819D01*
X126499999Y-54654819D02*
X126404761Y-54607200D01*
X126404761Y-54607200D02*
X126357142Y-54559580D01*
X126357142Y-54559580D02*
X126309523Y-54464342D01*
X126309523Y-54464342D02*
X126309523Y-54178628D01*
X126309523Y-54178628D02*
X126357142Y-54083390D01*
X126357142Y-54083390D02*
X126404761Y-54035771D01*
X126404761Y-54035771D02*
X126499999Y-53988152D01*
X126499999Y-53988152D02*
X126642856Y-53988152D01*
X126642856Y-53988152D02*
X126738094Y-54035771D01*
X126738094Y-54035771D02*
X126785713Y-54083390D01*
X126785713Y-54083390D02*
X126833332Y-54178628D01*
X126833332Y-54178628D02*
X126833332Y-54464342D01*
X126833332Y-54464342D02*
X126785713Y-54559580D01*
X126785713Y-54559580D02*
X126738094Y-54607200D01*
X126738094Y-54607200D02*
X126642856Y-54654819D01*
X126642856Y-54654819D02*
X126499999Y-54654819D01*
X127690475Y-53988152D02*
X127690475Y-54654819D01*
X127261904Y-53988152D02*
X127261904Y-54511961D01*
X127261904Y-54511961D02*
X127309523Y-54607200D01*
X127309523Y-54607200D02*
X127404761Y-54654819D01*
X127404761Y-54654819D02*
X127547618Y-54654819D01*
X127547618Y-54654819D02*
X127642856Y-54607200D01*
X127642856Y-54607200D02*
X127690475Y-54559580D01*
X128166666Y-53988152D02*
X128166666Y-54654819D01*
X128166666Y-54083390D02*
X128214285Y-54035771D01*
X128214285Y-54035771D02*
X128309523Y-53988152D01*
X128309523Y-53988152D02*
X128452380Y-53988152D01*
X128452380Y-53988152D02*
X128547618Y-54035771D01*
X128547618Y-54035771D02*
X128595237Y-54131009D01*
X128595237Y-54131009D02*
X128595237Y-54654819D01*
X128928571Y-53988152D02*
X129309523Y-53988152D01*
X129071428Y-53654819D02*
X129071428Y-54511961D01*
X129071428Y-54511961D02*
X129119047Y-54607200D01*
X129119047Y-54607200D02*
X129214285Y-54654819D01*
X129214285Y-54654819D02*
X129309523Y-54654819D01*
X129642857Y-54654819D02*
X129642857Y-53988152D01*
X129642857Y-53654819D02*
X129595238Y-53702438D01*
X129595238Y-53702438D02*
X129642857Y-53750057D01*
X129642857Y-53750057D02*
X129690476Y-53702438D01*
X129690476Y-53702438D02*
X129642857Y-53654819D01*
X129642857Y-53654819D02*
X129642857Y-53750057D01*
X130119047Y-53988152D02*
X130119047Y-54654819D01*
X130119047Y-54083390D02*
X130166666Y-54035771D01*
X130166666Y-54035771D02*
X130261904Y-53988152D01*
X130261904Y-53988152D02*
X130404761Y-53988152D01*
X130404761Y-53988152D02*
X130499999Y-54035771D01*
X130499999Y-54035771D02*
X130547618Y-54131009D01*
X130547618Y-54131009D02*
X130547618Y-54654819D01*
X131452380Y-53988152D02*
X131452380Y-54797676D01*
X131452380Y-54797676D02*
X131404761Y-54892914D01*
X131404761Y-54892914D02*
X131357142Y-54940533D01*
X131357142Y-54940533D02*
X131261904Y-54988152D01*
X131261904Y-54988152D02*
X131119047Y-54988152D01*
X131119047Y-54988152D02*
X131023809Y-54940533D01*
X131452380Y-54607200D02*
X131357142Y-54654819D01*
X131357142Y-54654819D02*
X131166666Y-54654819D01*
X131166666Y-54654819D02*
X131071428Y-54607200D01*
X131071428Y-54607200D02*
X131023809Y-54559580D01*
X131023809Y-54559580D02*
X130976190Y-54464342D01*
X130976190Y-54464342D02*
X130976190Y-54178628D01*
X130976190Y-54178628D02*
X131023809Y-54083390D01*
X131023809Y-54083390D02*
X131071428Y-54035771D01*
X131071428Y-54035771D02*
X131166666Y-53988152D01*
X131166666Y-53988152D02*
X131357142Y-53988152D01*
X131357142Y-53988152D02*
X131452380Y-54035771D01*
X131928571Y-54654819D02*
X131928571Y-53654819D01*
X131928571Y-54131009D02*
X132499999Y-54131009D01*
X132499999Y-54654819D02*
X132499999Y-53654819D01*
X133119047Y-54654819D02*
X133023809Y-54607200D01*
X133023809Y-54607200D02*
X132976190Y-54559580D01*
X132976190Y-54559580D02*
X132928571Y-54464342D01*
X132928571Y-54464342D02*
X132928571Y-54178628D01*
X132928571Y-54178628D02*
X132976190Y-54083390D01*
X132976190Y-54083390D02*
X133023809Y-54035771D01*
X133023809Y-54035771D02*
X133119047Y-53988152D01*
X133119047Y-53988152D02*
X133261904Y-53988152D01*
X133261904Y-53988152D02*
X133357142Y-54035771D01*
X133357142Y-54035771D02*
X133404761Y-54083390D01*
X133404761Y-54083390D02*
X133452380Y-54178628D01*
X133452380Y-54178628D02*
X133452380Y-54464342D01*
X133452380Y-54464342D02*
X133404761Y-54559580D01*
X133404761Y-54559580D02*
X133357142Y-54607200D01*
X133357142Y-54607200D02*
X133261904Y-54654819D01*
X133261904Y-54654819D02*
X133119047Y-54654819D01*
X134023809Y-54654819D02*
X133928571Y-54607200D01*
X133928571Y-54607200D02*
X133880952Y-54511961D01*
X133880952Y-54511961D02*
X133880952Y-53654819D01*
X134785714Y-54607200D02*
X134690476Y-54654819D01*
X134690476Y-54654819D02*
X134500000Y-54654819D01*
X134500000Y-54654819D02*
X134404762Y-54607200D01*
X134404762Y-54607200D02*
X134357143Y-54511961D01*
X134357143Y-54511961D02*
X134357143Y-54131009D01*
X134357143Y-54131009D02*
X134404762Y-54035771D01*
X134404762Y-54035771D02*
X134500000Y-53988152D01*
X134500000Y-53988152D02*
X134690476Y-53988152D01*
X134690476Y-53988152D02*
X134785714Y-54035771D01*
X134785714Y-54035771D02*
X134833333Y-54131009D01*
X134833333Y-54131009D02*
X134833333Y-54226247D01*
X134833333Y-54226247D02*
X134357143Y-54321485D01*
X158696866Y-103139713D02*
X158696866Y-102377809D01*
X159077819Y-102758761D02*
X158315914Y-102758761D01*
X158077819Y-101996856D02*
X158077819Y-101377809D01*
X158077819Y-101377809D02*
X158458771Y-101711142D01*
X158458771Y-101711142D02*
X158458771Y-101568285D01*
X158458771Y-101568285D02*
X158506390Y-101473047D01*
X158506390Y-101473047D02*
X158554009Y-101425428D01*
X158554009Y-101425428D02*
X158649247Y-101377809D01*
X158649247Y-101377809D02*
X158887342Y-101377809D01*
X158887342Y-101377809D02*
X158982580Y-101425428D01*
X158982580Y-101425428D02*
X159030200Y-101473047D01*
X159030200Y-101473047D02*
X159077819Y-101568285D01*
X159077819Y-101568285D02*
X159077819Y-101853999D01*
X159077819Y-101853999D02*
X159030200Y-101949237D01*
X159030200Y-101949237D02*
X158982580Y-101996856D01*
X158077819Y-101092094D02*
X159077819Y-100758761D01*
X159077819Y-100758761D02*
X158077819Y-100425428D01*
X157807866Y-82057713D02*
X157807866Y-81295809D01*
X158188819Y-81676761D02*
X157426914Y-81676761D01*
X157188819Y-80343428D02*
X157188819Y-80819618D01*
X157188819Y-80819618D02*
X157665009Y-80867237D01*
X157665009Y-80867237D02*
X157617390Y-80819618D01*
X157617390Y-80819618D02*
X157569771Y-80724380D01*
X157569771Y-80724380D02*
X157569771Y-80486285D01*
X157569771Y-80486285D02*
X157617390Y-80391047D01*
X157617390Y-80391047D02*
X157665009Y-80343428D01*
X157665009Y-80343428D02*
X157760247Y-80295809D01*
X157760247Y-80295809D02*
X157998342Y-80295809D01*
X157998342Y-80295809D02*
X158093580Y-80343428D01*
X158093580Y-80343428D02*
X158141200Y-80391047D01*
X158141200Y-80391047D02*
X158188819Y-80486285D01*
X158188819Y-80486285D02*
X158188819Y-80724380D01*
X158188819Y-80724380D02*
X158141200Y-80819618D01*
X158141200Y-80819618D02*
X158093580Y-80867237D01*
X157188819Y-80010094D02*
X158188819Y-79676761D01*
X158188819Y-79676761D02*
X157188819Y-79343428D01*
X156696819Y-60840808D02*
X157696819Y-60507475D01*
X157696819Y-60507475D02*
X156696819Y-60174142D01*
X157696819Y-59840808D02*
X157030152Y-59840808D01*
X156696819Y-59840808D02*
X156744438Y-59888427D01*
X156744438Y-59888427D02*
X156792057Y-59840808D01*
X156792057Y-59840808D02*
X156744438Y-59793189D01*
X156744438Y-59793189D02*
X156696819Y-59840808D01*
X156696819Y-59840808D02*
X156792057Y-59840808D01*
X157030152Y-59364618D02*
X157696819Y-59364618D01*
X157125390Y-59364618D02*
X157077771Y-59316999D01*
X157077771Y-59316999D02*
X157030152Y-59221761D01*
X157030152Y-59221761D02*
X157030152Y-59078904D01*
X157030152Y-59078904D02*
X157077771Y-58983666D01*
X157077771Y-58983666D02*
X157173009Y-58936047D01*
X157173009Y-58936047D02*
X157696819Y-58936047D01*
X147140057Y-103369856D02*
X147092438Y-103322237D01*
X147092438Y-103322237D02*
X147044819Y-103226999D01*
X147044819Y-103226999D02*
X147044819Y-102988904D01*
X147044819Y-102988904D02*
X147092438Y-102893666D01*
X147092438Y-102893666D02*
X147140057Y-102846047D01*
X147140057Y-102846047D02*
X147235295Y-102798428D01*
X147235295Y-102798428D02*
X147330533Y-102798428D01*
X147330533Y-102798428D02*
X147473390Y-102846047D01*
X147473390Y-102846047D02*
X148044819Y-103417475D01*
X148044819Y-103417475D02*
X148044819Y-102798428D01*
X147140057Y-102417475D02*
X147092438Y-102369856D01*
X147092438Y-102369856D02*
X147044819Y-102274618D01*
X147044819Y-102274618D02*
X147044819Y-102036523D01*
X147044819Y-102036523D02*
X147092438Y-101941285D01*
X147092438Y-101941285D02*
X147140057Y-101893666D01*
X147140057Y-101893666D02*
X147235295Y-101846047D01*
X147235295Y-101846047D02*
X147330533Y-101846047D01*
X147330533Y-101846047D02*
X147473390Y-101893666D01*
X147473390Y-101893666D02*
X148044819Y-102465094D01*
X148044819Y-102465094D02*
X148044819Y-101846047D01*
X147378152Y-100988904D02*
X148044819Y-100988904D01*
X147378152Y-101417475D02*
X147901961Y-101417475D01*
X147901961Y-101417475D02*
X147997200Y-101369856D01*
X147997200Y-101369856D02*
X148044819Y-101274618D01*
X148044819Y-101274618D02*
X148044819Y-101131761D01*
X148044819Y-101131761D02*
X147997200Y-101036523D01*
X147997200Y-101036523D02*
X147949580Y-100988904D01*
X147521009Y-100179380D02*
X147521009Y-100512713D01*
X148044819Y-100512713D02*
X147044819Y-100512713D01*
X147044819Y-100512713D02*
X147044819Y-100036523D01*
X147013057Y-82033856D02*
X146965438Y-81986237D01*
X146965438Y-81986237D02*
X146917819Y-81890999D01*
X146917819Y-81890999D02*
X146917819Y-81652904D01*
X146917819Y-81652904D02*
X146965438Y-81557666D01*
X146965438Y-81557666D02*
X147013057Y-81510047D01*
X147013057Y-81510047D02*
X147108295Y-81462428D01*
X147108295Y-81462428D02*
X147203533Y-81462428D01*
X147203533Y-81462428D02*
X147346390Y-81510047D01*
X147346390Y-81510047D02*
X147917819Y-82081475D01*
X147917819Y-82081475D02*
X147917819Y-81462428D01*
X147013057Y-81081475D02*
X146965438Y-81033856D01*
X146965438Y-81033856D02*
X146917819Y-80938618D01*
X146917819Y-80938618D02*
X146917819Y-80700523D01*
X146917819Y-80700523D02*
X146965438Y-80605285D01*
X146965438Y-80605285D02*
X147013057Y-80557666D01*
X147013057Y-80557666D02*
X147108295Y-80510047D01*
X147108295Y-80510047D02*
X147203533Y-80510047D01*
X147203533Y-80510047D02*
X147346390Y-80557666D01*
X147346390Y-80557666D02*
X147917819Y-81129094D01*
X147917819Y-81129094D02*
X147917819Y-80510047D01*
X147251152Y-79652904D02*
X147917819Y-79652904D01*
X147251152Y-80081475D02*
X147774961Y-80081475D01*
X147774961Y-80081475D02*
X147870200Y-80033856D01*
X147870200Y-80033856D02*
X147917819Y-79938618D01*
X147917819Y-79938618D02*
X147917819Y-79795761D01*
X147917819Y-79795761D02*
X147870200Y-79700523D01*
X147870200Y-79700523D02*
X147822580Y-79652904D01*
X147394009Y-78843380D02*
X147394009Y-79176713D01*
X147917819Y-79176713D02*
X146917819Y-79176713D01*
X146917819Y-79176713D02*
X146917819Y-78700523D01*
X147140057Y-61332856D02*
X147092438Y-61285237D01*
X147092438Y-61285237D02*
X147044819Y-61189999D01*
X147044819Y-61189999D02*
X147044819Y-60951904D01*
X147044819Y-60951904D02*
X147092438Y-60856666D01*
X147092438Y-60856666D02*
X147140057Y-60809047D01*
X147140057Y-60809047D02*
X147235295Y-60761428D01*
X147235295Y-60761428D02*
X147330533Y-60761428D01*
X147330533Y-60761428D02*
X147473390Y-60809047D01*
X147473390Y-60809047D02*
X148044819Y-61380475D01*
X148044819Y-61380475D02*
X148044819Y-60761428D01*
X147140057Y-60380475D02*
X147092438Y-60332856D01*
X147092438Y-60332856D02*
X147044819Y-60237618D01*
X147044819Y-60237618D02*
X147044819Y-59999523D01*
X147044819Y-59999523D02*
X147092438Y-59904285D01*
X147092438Y-59904285D02*
X147140057Y-59856666D01*
X147140057Y-59856666D02*
X147235295Y-59809047D01*
X147235295Y-59809047D02*
X147330533Y-59809047D01*
X147330533Y-59809047D02*
X147473390Y-59856666D01*
X147473390Y-59856666D02*
X148044819Y-60428094D01*
X148044819Y-60428094D02*
X148044819Y-59809047D01*
X147378152Y-58951904D02*
X148044819Y-58951904D01*
X147378152Y-59380475D02*
X147901961Y-59380475D01*
X147901961Y-59380475D02*
X147997200Y-59332856D01*
X147997200Y-59332856D02*
X148044819Y-59237618D01*
X148044819Y-59237618D02*
X148044819Y-59094761D01*
X148044819Y-59094761D02*
X147997200Y-58999523D01*
X147997200Y-58999523D02*
X147949580Y-58951904D01*
X147521009Y-58142380D02*
X147521009Y-58475713D01*
X148044819Y-58475713D02*
X147044819Y-58475713D01*
X147044819Y-58475713D02*
X147044819Y-57999523D01*
D11*
%TO.C,J3*%
X135274000Y-75406000D02*
X135274000Y-71406000D01*
X134984000Y-76436000D02*
X134984000Y-70416000D01*
X134984000Y-70416000D02*
X129684000Y-70416000D01*
X134404000Y-76436000D02*
X134404000Y-75836000D01*
X134404000Y-75836000D02*
X132804000Y-75836000D01*
X133604000Y-71416000D02*
X133354000Y-71946000D01*
X133604000Y-71416000D02*
X131064000Y-71416000D01*
X133604000Y-70416000D02*
X133604000Y-71416000D01*
X133354000Y-71946000D02*
X131314000Y-71946000D01*
X133354000Y-70416000D02*
X133354000Y-71416000D01*
X132804000Y-75836000D02*
X132804000Y-76436000D01*
X131864000Y-76436000D02*
X131864000Y-75836000D01*
X131864000Y-75836000D02*
X130264000Y-75836000D01*
X131314000Y-71946000D02*
X131064000Y-71416000D01*
X131314000Y-70416000D02*
X131314000Y-71416000D01*
X131064000Y-71416000D02*
X131064000Y-70416000D01*
X130264000Y-75836000D02*
X130264000Y-76436000D01*
X129684000Y-76436000D02*
X134984000Y-76436000D01*
X129684000Y-70416000D02*
X129684000Y-76436000D01*
%TO.C,J2*%
X135020000Y-98774000D02*
X135020000Y-94774000D01*
X134730000Y-99804000D02*
X134730000Y-93784000D01*
X134730000Y-93784000D02*
X129430000Y-93784000D01*
X134150000Y-99804000D02*
X134150000Y-99204000D01*
X134150000Y-99204000D02*
X132550000Y-99204000D01*
X133350000Y-94784000D02*
X133100000Y-95314000D01*
X133350000Y-94784000D02*
X130810000Y-94784000D01*
X133350000Y-93784000D02*
X133350000Y-94784000D01*
X133100000Y-95314000D02*
X131060000Y-95314000D01*
X133100000Y-93784000D02*
X133100000Y-94784000D01*
X132550000Y-99204000D02*
X132550000Y-99804000D01*
X131610000Y-99804000D02*
X131610000Y-99204000D01*
X131610000Y-99204000D02*
X130010000Y-99204000D01*
X131060000Y-95314000D02*
X130810000Y-94784000D01*
X131060000Y-93784000D02*
X131060000Y-94784000D01*
X130810000Y-94784000D02*
X130810000Y-93784000D01*
X130010000Y-99204000D02*
X130010000Y-99804000D01*
X129430000Y-99804000D02*
X134730000Y-99804000D01*
X129430000Y-93784000D02*
X129430000Y-99804000D01*
D12*
%TO.C,U2*%
X151701500Y-96202500D02*
X151701500Y-106743500D01*
X151701500Y-106743500D02*
X156400500Y-106743500D01*
X156400500Y-106743500D02*
X156400500Y-96202500D01*
X156400500Y-96202500D02*
X151701500Y-96202500D01*
%TO.C,U1*%
X153543000Y-73787000D02*
G75*
G02*
X153289000Y-73787000I-127000J0D01*
G01*
X153289000Y-73787000D02*
G75*
G02*
X153543000Y-73787000I127000J0D01*
G01*
X150876000Y-75565000D02*
X150876000Y-86487000D01*
X150876000Y-86487000D02*
X155956000Y-86487000D01*
X155956000Y-86487000D02*
X155956000Y-75565000D01*
X155956000Y-75565000D02*
X150876000Y-75565000D01*
D11*
%TO.C,J1*%
X151162000Y-62757000D02*
X155162000Y-62757000D01*
X150132000Y-62467000D02*
X156152000Y-62467000D01*
X156152000Y-62467000D02*
X156152000Y-57167000D01*
X150132000Y-61887000D02*
X150732000Y-61887000D01*
X150732000Y-61887000D02*
X150732000Y-60287000D01*
X155152000Y-61087000D02*
X154622000Y-60837000D01*
X155152000Y-61087000D02*
X155152000Y-58547000D01*
X156152000Y-61087000D02*
X155152000Y-61087000D01*
X154622000Y-60837000D02*
X154622000Y-58797000D01*
X156152000Y-60837000D02*
X155152000Y-60837000D01*
X150732000Y-60287000D02*
X150132000Y-60287000D01*
X150132000Y-59347000D02*
X150732000Y-59347000D01*
X150732000Y-59347000D02*
X150732000Y-57747000D01*
X154622000Y-58797000D02*
X155152000Y-58547000D01*
X156152000Y-58797000D02*
X155152000Y-58797000D01*
X155152000Y-58547000D02*
X156152000Y-58547000D01*
X150732000Y-57747000D02*
X150132000Y-57747000D01*
X150132000Y-57167000D02*
X150132000Y-62467000D01*
X156152000Y-57167000D02*
X150132000Y-57167000D01*
%TO.C,C3*%
X141510000Y-104667000D02*
X145510000Y-104667000D01*
X140480000Y-104377000D02*
X146500000Y-104377000D01*
X146500000Y-104377000D02*
X146500000Y-99077000D01*
X140480000Y-103797000D02*
X141080000Y-103797000D01*
X141080000Y-103797000D02*
X141080000Y-102197000D01*
X145500000Y-102997000D02*
X144970000Y-102747000D01*
X145500000Y-102997000D02*
X145500000Y-100457000D01*
X146500000Y-102997000D02*
X145500000Y-102997000D01*
X144970000Y-102747000D02*
X144970000Y-100707000D01*
X146500000Y-102747000D02*
X145500000Y-102747000D01*
X141080000Y-102197000D02*
X140480000Y-102197000D01*
X140480000Y-101257000D02*
X141080000Y-101257000D01*
X141080000Y-101257000D02*
X141080000Y-99657000D01*
X144970000Y-100707000D02*
X145500000Y-100457000D01*
X146500000Y-100707000D02*
X145500000Y-100707000D01*
X145500000Y-100457000D02*
X146500000Y-100457000D01*
X141080000Y-99657000D02*
X140480000Y-99657000D01*
X140480000Y-99077000D02*
X140480000Y-104377000D01*
X146500000Y-99077000D02*
X140480000Y-99077000D01*
%TO.C,C2*%
X141383000Y-83331000D02*
X145383000Y-83331000D01*
X140353000Y-83041000D02*
X146373000Y-83041000D01*
X146373000Y-83041000D02*
X146373000Y-77741000D01*
X140353000Y-82461000D02*
X140953000Y-82461000D01*
X140953000Y-82461000D02*
X140953000Y-80861000D01*
X145373000Y-81661000D02*
X144843000Y-81411000D01*
X145373000Y-81661000D02*
X145373000Y-79121000D01*
X146373000Y-81661000D02*
X145373000Y-81661000D01*
X144843000Y-81411000D02*
X144843000Y-79371000D01*
X146373000Y-81411000D02*
X145373000Y-81411000D01*
X140953000Y-80861000D02*
X140353000Y-80861000D01*
X140353000Y-79921000D02*
X140953000Y-79921000D01*
X140953000Y-79921000D02*
X140953000Y-78321000D01*
X144843000Y-79371000D02*
X145373000Y-79121000D01*
X146373000Y-79371000D02*
X145373000Y-79371000D01*
X145373000Y-79121000D02*
X146373000Y-79121000D01*
X140953000Y-78321000D02*
X140353000Y-78321000D01*
X140353000Y-77741000D02*
X140353000Y-83041000D01*
X146373000Y-77741000D02*
X140353000Y-77741000D01*
%TO.C,C1*%
X141510000Y-62630000D02*
X145510000Y-62630000D01*
X140480000Y-62340000D02*
X146500000Y-62340000D01*
X146500000Y-62340000D02*
X146500000Y-57040000D01*
X140480000Y-61760000D02*
X141080000Y-61760000D01*
X141080000Y-61760000D02*
X141080000Y-60160000D01*
X145500000Y-60960000D02*
X144970000Y-60710000D01*
X145500000Y-60960000D02*
X145500000Y-58420000D01*
X146500000Y-60960000D02*
X145500000Y-60960000D01*
X144970000Y-60710000D02*
X144970000Y-58670000D01*
X146500000Y-60710000D02*
X145500000Y-60710000D01*
X141080000Y-60160000D02*
X140480000Y-60160000D01*
X140480000Y-59220000D02*
X141080000Y-59220000D01*
X141080000Y-59220000D02*
X141080000Y-57620000D01*
X144970000Y-58670000D02*
X145500000Y-58420000D01*
X146500000Y-58670000D02*
X145500000Y-58670000D01*
X145500000Y-58420000D02*
X146500000Y-58420000D01*
X141080000Y-57620000D02*
X140480000Y-57620000D01*
X140480000Y-57040000D02*
X140480000Y-62340000D01*
X146500000Y-57040000D02*
X140480000Y-57040000D01*
%TD*%
M02*
